g Acc
v -1.7735499 0.19129202 6.664641
v -1.7867225 0.014155358 6.0679474
v -1.9314098 0.30283377 6.0428286
v -1.672014 -0.1707653 6.5635157
v -1.5705836 -0.24736576 6.091486
v -1.5326142 0.10983914 7.143749
v -1.4029825 -0.45280182 6.442789
v -1.4323354 -0.29568607 7.0199003
v -1.2214893 0.06453037 7.4455404
v -1.1608326 -0.5562064 6.856927
v -1.1416465 -0.25061965 7.344142
v -1.1383086 0.03427893 7.6222253
v -0.98303676 -0.4793417 7.2250404
v -1.0731667 -0.23640186 7.5508747
v -0.9158015 -0.43775305 7.4232435
v -1.7993945 0.5726116 6.172867
v -1.7735499 0.19129202 6.664641
v -1.9314098 0.30283377 6.0428286
v -1.688872 0.5721979 6.7031026
v -1.5948683 0.8229032 6.2925673
v -1.5326142 0.10983914 7.143749
v -1.433633 0.89801013 6.696577
v -1.4512831 0.5393578 7.1767864
v -1.2214893 0.06453037 7.4455404
v -1.1929834 0.8607477 7.1231403
v -1.1564171 0.40034294 7.466445
v -1.1383086 0.03427893 7.6222253
v -1.0090697 0.6679678 7.4405947
v -1.0857177 0.31671807 7.6547947
v -0.9384841 0.56191176 7.61106
v -1.6994166 0.06243199 6.061081
v -1.6788727 0.1994142 6.6334915
v -1.8344253 0.30965626 6.01943
v -1.5879261 -0.11886552 6.548164
v -1.4952272 -0.1818642 6.0970497
v -1.4512837 0.12245104 7.0869493
v -1.3337535 -0.3810891 6.434748
v -1.363501 -0.23715362 6.977055
v -1.1402184 0.07710725 7.3886466
v -1.1034507 -0.48103905 6.8244114
v -1.0703093 -0.1968573 7.2991905
v -1.0469168 0.04376322 7.582759
v -0.9195125 -0.41277236 7.1858845
v -0.9906006 -0.19011505 7.5186243
v -0.85446596 -0.36725038 7.387644
v -1.6788727 0.1994142 6.6334915
v -1.7098349 0.53453267 6.1498666
v -1.8344253 0.30965626 6.01943
v -1.6023409 0.53376305 6.670928
v -1.5159619 0.76411724 6.2747345
v -1.4512837 0.12245104 7.0869493
v -1.360504 0.8381319 6.6639137
v -1.3796306 0.503955 7.1166825
v -1.1402184 0.07710725 7.3886466
v -1.1314285 0.80589026 7.0665574
v -1.0826206 0.3700526 7.4061394
v -1.0469168 0.04376322 7.582759
v -0.9421271 0.623541 7.381054
v -1.0011685 0.28924048 7.609006
v -0.873394 0.51254004 7.553389
v -1.7867225 0.014155358 6.0679474
v -1.8344253 0.30965626 6.01943
v -1.9314098 0.30283377 6.0428286
v -1.6994166 0.06243199 6.061081
v -1.5705836 -0.24736576 6.091486
v -1.4952272 -0.1818642 6.0970497
v -0.9195125 -0.41277236 7.1858845
v -0.9158015 -0.43775305 7.4232435
v -0.85446596 -0.36725038 7.387644
v -0.98303676 -0.4793417 7.2250404
v -1.1034507 -0.48103905 6.8244114
v -1.1608326 -0.5562064 6.856927
v -1.3337535 -0.3810891 6.434748
v -1.4029825 -0.45280182 6.442789
v -1.4952272 -0.1818642 6.0970497
v -1.5705836 -0.24736576 6.091486
v -1.0731667 -0.23640186 7.5508747
v -0.85446596 -0.36725038 7.387644
v -0.9158015 -0.43775305 7.4232435
v -0.9906006 -0.19011505 7.5186243
v -1.1383086 0.03427893 7.6222253
v -1.0469168 0.04376322 7.582759
v -1.0857177 0.31671807 7.6547947
v -1.0011685 0.28924048 7.609006
v -0.9384841 0.56191176 7.61106
v -0.873394 0.51254004 7.553389
v -1.7098349 0.53453267 6.1498666
v -1.9314098 0.30283377 6.0428286
v -1.8344253 0.30965626 6.01943
v -1.7993945 0.5726116 6.172867
v -1.5159619 0.76411724 6.2747345
v -1.5948683 0.8229032 6.2925673
v -1.0090697 0.6679678 7.4405947
v -0.873394 0.51254004 7.553389
v -0.9384841 0.56191176 7.61106
v -0.9421271 0.623541 7.381054
v -1.1929834 0.8607477 7.1231403
v -1.1314285 0.80589026 7.0665574
v -1.433633 0.89801013 6.696577
v -1.360504 0.8381319 6.6639137
v -1.5948683 0.8229032 6.2925673
v -1.5159619 0.76411724 6.2747345
vt 0.8617859 0.3854509
vt 0.91730547 0.31940812
vt 0.8704014 0.30013615
vt 0.9226239 0.3901032
vt 0.9640963 0.34045935
vt 0.8590915 0.45754763
vt 0.98219085 0.3978437
vt 0.92766404 0.45829457
vt 0.8638933 0.51463306
vt 0.9865159 0.46401262
vt 0.91919947 0.5149148
vt 0.86307645 0.5398566
vt 0.9656575 0.51648676
vt 0.90987575 0.54249614
vt 0.95277643 0.5424336
vt 0.91730547 0.31940812
vt 0.8617859 0.3854509
vt 0.8704014 0.30013615
vt 0.9226239 0.3901032
vt 0.9640963 0.34045935
vt 0.8590915 0.45754763
vt 0.98219085 0.3978437
vt 0.92766404 0.45829457
vt 0.8638933 0.51463306
vt 0.9865159 0.46401262
vt 0.91919947 0.5149148
vt 0.86307645 0.5398566
vt 0.9656575 0.51648676
vt 0.90987575 0.54249614
vt 0.95277643 0.5424336
vt 0.83020556 0.029032998
vt 0.8298587 0.029445628
vt 0.82991254 0.02891259
vt 0.8302388 0.029474694
vt 0.8304979 0.029164527
vt 0.82984185 0.029896082
vt 0.830611 0.029523058
vt 0.8302703 0.029900746
vt 0.8298719 0.030252745
vt 0.830638 0.029936474
vt 0.8302174 0.030254504
vt 0.82986677 0.030410342
vt 0.8305077 0.030264327
vt 0.8301592 0.03042683
vt 0.8304272 0.030426443
vt 0.8298587 0.029445628
vt 0.83020556 0.029032998
vt 0.82991254 0.02891259
vt 0.8302388 0.029474694
vt 0.8304979 0.029164527
vt 0.82984185 0.029896082
vt 0.830611 0.029523058
vt 0.8302703 0.029900746
vt 0.8298719 0.030252745
vt 0.830638 0.029936474
vt 0.8302174 0.030254504
vt 0.82986677 0.030410342
vt 0.8305077 0.030264327
vt 0.8301592 0.03042683
vt 0.8304272 0.030426443
vt 0.91730547 0.31940812
vt 0.8704014 0.30013615
vt 0.8704014 0.30013615
vt 0.91730547 0.31940812
vt 0.9640963 0.34045935
vt 0.9640963 0.34045935
vt 0.9656575 0.51648676
vt 0.95277643 0.5424336
vt 0.95277643 0.5424336
vt 0.9656575 0.51648676
vt 0.9865159 0.46401262
vt 0.9865159 0.46401262
vt 0.98219085 0.3978437
vt 0.98219085 0.3978437
vt 0.9640963 0.34045935
vt 0.9640963 0.34045935
vt 0.90987575 0.54249614
vt 0.95277643 0.5424336
vt 0.95277643 0.5424336
vt 0.90987575 0.54249614
vt 0.86307645 0.5398566
vt 0.86307645 0.5398566
vt 0.90987575 0.54249614
vt 0.90987575 0.54249614
vt 0.95277643 0.5424336
vt 0.95277643 0.5424336
vt 0.91730547 0.31940812
vt 0.8704014 0.30013615
vt 0.8704014 0.30013615
vt 0.91730547 0.31940812
vt 0.9640963 0.34045935
vt 0.9640963 0.34045935
vt 0.9656575 0.51648676
vt 0.95277643 0.5424336
vt 0.95277643 0.5424336
vt 0.9656575 0.51648676
vt 0.9865159 0.46401262
vt 0.9865159 0.46401262
vt 0.98219085 0.3978437
vt 0.98219085 0.3978437
vt 0.9640963 0.34045935
vt 0.9640963 0.34045935
vn -0.9467717 -0.08122343 0.31149012
vn -0.8730545 -0.48276654 0.06864568
vn -0.96984553 -0.06822311 0.23397735
vn -0.8408748 -0.51899904 0.15352389
vn -0.7535639 -0.65501654 -0.055631544
vn -0.8133046 -0.1261172 0.56800544
vn -0.692291 -0.7171267 0.08038875
vn -0.688344 -0.5853253 0.42845872
vn -0.8127075 -0.1257693 0.5689365
vn -0.5738241 -0.75167155 0.32513952
vn -0.71336526 -0.5376233 0.44952342
vn -0.913915 -0.09484649 0.39466903
vn -0.6352455 -0.66569436 0.39155343
vn -0.825666 -0.46287268 0.3225285
vn -0.61335593 -0.7050245 0.3559987
vn -0.89559716 0.38078666 0.23001587
vn -0.9467717 -0.08122343 0.31149012
vn -0.96984553 -0.06822311 0.23397735
vn -0.86530805 0.3843459 0.32174546
vn -0.7890675 0.5878579 0.17831324
vn -0.8133046 -0.1261172 0.56800544
vn -0.73128915 0.5987818 0.32661378
vn -0.7165248 0.35402855 0.60104567
vn -0.8127075 -0.1257693 0.5689365
vn -0.61555046 0.5485743 0.5658303
vn -0.73796177 0.30290538 0.6030428
vn -0.913915 -0.09484649 0.39466903
vn -0.66942567 0.4442677 0.59539527
vn -0.8454862 0.27477628 0.45787668
vn -0.6509025 0.49371526 0.5766898
vn 0.86588424 0.49576393 -0.066802256
vn 0.94799674 0.080427706 -0.30795065
vn 0.9699746 0.06802707 -0.23349889
vn 0.83928186 0.52253085 -0.1502246
vn 0.74881685 0.6598971 0.06171802
vn 0.81371665 0.12581356 -0.56748235
vn 0.68783426 0.72206306 -0.0742226
vn 0.68843424 0.58728665 -0.42562035
vn 0.80968964 0.12633483 -0.57309884
vn 0.5674662 0.757143 -0.3235992
vn 0.71079934 0.5396372 -0.4511717
vn 0.91032594 0.09602703 -0.40259832
vn 0.63185525 0.66972905 -0.39015648
vn 0.8180019 0.4703903 -0.33106774
vn 0.59604913 0.72035855 -0.3546954
vn 0.94799674 0.080427706 -0.30795065
vn 0.8891796 -0.39380774 -0.23297034
vn 0.9699746 0.06802707 -0.23349889
vn 0.8639362 -0.3888789 -0.3199806
vn 0.7849163 -0.5945127 -0.17453143
vn 0.81371665 0.12581356 -0.56748235
vn 0.7274104 -0.60553306 -0.32280603
vn 0.7166453 -0.35689095 -0.59920645
vn 0.80968964 0.12633483 -0.57309884
vn 0.60985875 -0.5542059 -0.5665053
vn 0.7355775 -0.30426076 -0.6052694
vn 0.91032594 0.09602703 -0.40259832
vn 0.66646755 -0.44847155 -0.59556216
vn 0.83832777 -0.27906784 -0.4683242
vn 0.635611 -0.5084049 -0.58096737
vn -0.02816983 -0.13816275 -0.99000883
vn -0.17880699 -0.18744572 -0.96586347
vn -0.21735884 -0.19221057 -0.95697975
vn 0.00711198 -0.12670366 -0.9919151
vn 0.09021711 -0.060050435 -0.99411005
vn 0.11595732 -0.049142674 -0.9920378
vn 0.6795419 -0.72038937 -0.13878724
vn 0.7211552 -0.68770456 -0.08365194
vn 0.73080283 -0.67755604 -0.082734704
vn 0.6800703 -0.719346 -0.14158303
vn 0.6506482 -0.66579515 -0.3652037
vn 0.6605644 -0.6578137 -0.3618505
vn 0.5650347 -0.6104795 -0.5550229
vn 0.56755 -0.6087326 -0.55437505
vn 0.5475131 -0.581481 -0.6017551
vn 0.5489784 -0.5804942 -0.60137284
vn 0.46156392 -0.17194657 0.8702834
vn 0.5487093 -0.11575035 0.82796144
vn 0.56594974 -0.07793551 0.8207478
vn 0.44931757 -0.20023747 0.8706427
vn 0.40795714 -0.16231868 0.8984562
vn 0.40726298 -0.163893 0.89848536
vn 0.43257084 -0.14358819 0.8900927
vn 0.4515164 -0.14424571 0.88052607
vn 0.5622338 -0.13539736 0.81581897
vn 0.5936764 -0.14244623 0.7919959
vn -0.0429188 0.481881 -0.875185
vn -0.18337062 0.5513449 -0.813876
vn -0.22934934 0.5803229 -0.78142446
vn -0.01903242 0.4578344 -0.8888338
vn 0.05873384 0.3996705 -0.9147754
vn 0.0746754 0.37991983 -0.9220002
vn 0.6430697 0.7504088 0.15280023
vn 0.6766927 0.71579987 0.17238784
vn 0.68287545 0.7126582 0.16062194
vn 0.64497614 0.74896103 0.15186563
vn 0.6045729 0.7910756 -0.09322552
vn 0.60730857 0.78729326 -0.10651601
vn 0.52083737 0.8010651 -0.29499692
vn 0.52268714 0.798967 -0.29740518
vn 0.5052786 0.7882513 -0.3512172
vn 0.50671583 0.7869468 -0.35207078
g Acc_0
f 3/3/3 2/2/2 1/1/1
f 4/4/4 1/1/1 2/2/2
f 2/2/2 5/5/5 4/4/4
f 1/1/1 4/4/4 6/6/6
f 7/7/7 4/4/4 5/5/5
f 8/8/8 6/6/6 4/4/4
f 4/4/4 7/7/7 8/8/8
f 6/6/6 8/8/8 9/9/9
f 10/10/10 8/8/8 7/7/7
f 11/11/11 9/9/9 8/8/8
f 8/8/8 10/10/10 11/11/11
f 9/9/9 11/11/11 12/12/12
f 13/13/13 11/11/11 10/10/10
f 14/14/14 12/12/12 11/11/11
f 11/11/11 13/13/13 14/14/14
f 15/15/15 14/14/14 13/13/13
f 18/18/18 17/17/17 16/16/16
f 19/19/19 16/16/16 17/17/17
f 16/16/16 19/19/19 20/20/20
f 17/17/17 21/21/21 19/19/19
f 22/22/22 20/20/20 19/19/19
f 23/23/23 19/19/19 21/21/21
f 19/19/19 23/23/23 22/22/22
f 21/21/21 24/24/24 23/23/23
f 25/25/25 22/22/22 23/23/23
f 26/26/26 23/23/23 24/24/24
f 23/23/23 26/26/26 25/25/25
f 24/24/24 27/27/27 26/26/26
f 28/28/28 25/25/25 26/26/26
f 29/29/29 26/26/26 27/27/27
f 26/26/26 29/29/29 28/28/28
f 30/30/30 28/28/28 29/29/29
f 33/33/33 32/32/32 31/31/31
f 34/34/34 31/31/31 32/32/32
f 31/31/31 34/34/34 35/35/35
f 32/32/32 36/36/36 34/34/34
f 37/37/37 35/35/35 34/34/34
f 38/38/38 34/34/34 36/36/36
f 34/34/34 38/38/38 37/37/37
f 36/36/36 39/39/39 38/38/38
f 40/40/40 37/37/37 38/38/38
f 41/41/41 38/38/38 39/39/39
f 38/38/38 41/41/41 40/40/40
f 39/39/39 42/42/42 41/41/41
f 43/43/43 40/40/40 41/41/41
f 44/44/44 41/41/41 42/42/42
f 41/41/41 44/44/44 43/43/43
f 45/45/45 43/43/43 44/44/44
f 48/48/48 47/47/47 46/46/46
f 49/49/49 46/46/46 47/47/47
f 47/47/47 50/50/50 49/49/49
f 46/46/46 49/49/49 51/51/51
f 52/52/52 49/49/49 50/50/50
f 53/53/53 51/51/51 49/49/49
f 49/49/49 52/52/52 53/53/53
f 51/51/51 53/53/53 54/54/54
f 55/55/55 53/53/53 52/52/52
f 56/56/56 54/54/54 53/53/53
f 53/53/53 55/55/55 56/56/56
f 54/54/54 56/56/56 57/57/57
f 58/58/58 56/56/56 55/55/55
f 59/59/59 57/57/57 56/56/56
f 56/56/56 58/58/58 59/59/59
f 60/60/60 59/59/59 58/58/58
f 63/63/63 62/62/62 61/61/61
f 64/64/64 61/61/61 62/62/62
f 61/61/61 64/64/64 65/65/65
f 66/66/66 65/65/65 64/64/64
f 69/69/69 68/68/68 67/67/67
f 70/70/70 67/67/67 68/68/68
f 67/67/67 70/70/70 71/71/71
f 72/72/72 71/71/71 70/70/70
f 71/71/71 72/72/72 73/73/73
f 74/74/74 73/73/73 72/72/72
f 73/73/73 74/74/74 75/75/75
f 76/76/76 75/75/75 74/74/74
f 79/79/79 78/78/78 77/77/77
f 80/80/80 77/77/77 78/78/78
f 77/77/77 80/80/80 81/81/81
f 82/82/82 81/81/81 80/80/80
f 81/81/81 82/82/82 83/83/83
f 84/84/84 83/83/83 82/82/82
f 83/83/83 84/84/84 85/85/85
f 86/86/86 85/85/85 84/84/84
f 89/89/89 88/88/88 87/87/87
f 90/90/90 87/87/87 88/88/88
f 87/87/87 90/90/90 91/91/91
f 92/92/92 91/91/91 90/90/90
f 95/95/95 94/94/94 93/93/93
f 96/96/96 93/93/93 94/94/94
f 93/93/93 96/96/96 97/97/97
f 98/98/98 97/97/97 96/96/96
f 97/97/97 98/98/98 99/99/99
f 100/100/100 99/99/99 98/98/98
f 99/99/99 100/100/100 101/101/101
f 102/102/102 101/101/101 100/100/100
