g alpha_Castle_tower02
v -2.1486688 1.0080439 6.9916244
v -2.230763 0.552264 8.472394
v -2.2301104 0.55209345 7.00206
v -2.230763 0.552264 8.472394
v -2.1486688 1.0080439 6.9916244
v -2.128929 0.9970802 8.504946
v -2.230763 0.552264 8.472394
v -2.3495557 0.10632219 6.9916244
v -2.2301104 0.55209345 7.00206
v -2.147193 0.99630815 10.018271
v -2.258321 0.5596495 10.359842
v -2.3153486 0.57492924 10.03593
v -2.258321 0.5596495 10.359842
v -2.147193 0.99630815 10.018271
v -2.138871 1.0054239 10.368599
v -2.258321 0.5596495 10.359842
v -2.4017758 0.120305836 10.047228
v -2.3153486 0.57492924 10.03593
v -2.4017758 0.120305836 10.047228
v -2.258321 0.5596495 10.359842
v -2.3777556 0.11388142 10.368598
v -2.3153486 0.57492924 10.03593
v -2.128929 0.9970802 8.504946
v -2.147193 0.99630815 10.018271
v -2.128929 0.9970802 8.504946
v -2.3153486 0.57492924 10.03593
v -2.230763 0.552264 8.472394
v -2.3756704 0.11332022 8.519427
v -2.3153486 0.57492924 10.03593
v -2.4017758 0.120305836 10.047228
v 2.3003914 -0.9858902 7.0258975
v 2.3824856 -0.53010404 8.506667
v 2.381836 -0.5299273 7.0363326
v 2.3824856 -0.53010404 8.506667
v 2.3003914 -0.9858902 7.0258975
v 2.2806609 -0.97492033 8.539219
v 2.3824856 -0.53010404 8.506667
v 2.501283 -0.0841592 7.0258975
v 2.381836 -0.5299273 7.0363326
v 2.2989216 -0.9741421 10.052545
v 2.4100404 -0.5424351 10.399578
v 2.4670758 -0.55771166 10.064682
v 2.4100404 -0.5424351 10.399578
v 2.2989216 -0.9741421 10.052545
v 2.2906013 -0.9832516 10.402871
v 2.4100404 -0.5424351 10.399578
v 2.5535045 -0.098155245 10.0815
v 2.4670758 -0.55771166 10.064682
v 2.5535045 -0.098155245 10.0815
v 2.4100404 -0.5424351 10.399578
v 2.5294874 -0.09171533 10.40287
v 2.4670758 -0.55771166 10.064682
v 2.2806609 -0.97492033 8.539219
v 2.2989216 -0.9741421 10.052545
v 2.2806609 -0.97492033 8.539219
v 2.4670758 -0.55771166 10.064682
v 2.3824856 -0.53010404 8.506667
v 2.527393 -0.09115413 8.553699
v 2.4670758 -0.55771166 10.064682
v 2.5535045 -0.098155245 10.0815
v -2.3495557 0.10632219 6.9916244
v -2.230763 0.552264 8.472394
v -2.3756704 0.11332022 8.519427
v -2.3153486 0.57492924 10.03593
v 2.501283 -0.0841592 7.0258975
v 2.3824856 -0.53010404 8.506667
v 2.527393 -0.09115413 8.553699
v 2.4670758 -0.55771166 10.064682
vt 0.004369719 0.52797747
vt 0.11120477 0.72551036
vt 0.11120477 0.52797747
vt 0.11120477 0.72551036
vt 0.004369719 0.52797747
vt 0.004369719 0.72551036
vt 0.11120477 0.72551036
vt 0.21803986 0.52797747
vt 0.11120477 0.52797747
vt 0.004369719 0.92304325
vt 0.11120477 0.9978075
vt 0.11120477 0.92304325
vt 0.11120477 0.9978075
vt 0.004369719 0.92304325
vt 0.004369719 0.9978075
vt 0.11120477 0.9978075
vt 0.21803986 0.92304325
vt 0.11120477 0.92304325
vt 0.21803986 0.92304325
vt 0.11120477 0.9978075
vt 0.21803986 0.9978075
vt 0.11120477 0.92304325
vt 0.004369719 0.72551036
vt 0.004369719 0.92304325
vt 0.004369719 0.72551036
vt 0.11120477 0.92304325
vt 0.11120477 0.72551036
vt 0.21803986 0.72551036
vt 0.11120477 0.92304325
vt 0.21803986 0.92304325
vt 0.004369719 0.52797747
vt 0.11120477 0.72551036
vt 0.11120477 0.52797747
vt 0.11120477 0.72551036
vt 0.004369719 0.52797747
vt 0.004369719 0.72551036
vt 0.11120477 0.72551036
vt 0.21803986 0.52797747
vt 0.11120477 0.52797747
vt 0.004369719 0.92304325
vt 0.11120477 0.9978075
vt 0.11120477 0.92304325
vt 0.11120477 0.9978075
vt 0.004369719 0.92304325
vt 0.004369719 0.9978075
vt 0.11120477 0.9978075
vt 0.21803986 0.92304325
vt 0.11120477 0.92304325
vt 0.21803986 0.92304325
vt 0.11120477 0.9978075
vt 0.21803986 0.9978075
vt 0.11120477 0.92304325
vt 0.004369719 0.72551036
vt 0.004369719 0.92304325
vt 0.004369719 0.72551036
vt 0.11120477 0.92304325
vt 0.11120477 0.72551036
vt 0.21803986 0.72551036
vt 0.11120477 0.92304325
vt 0.21803986 0.92304325
vt 0.21803986 0.52797747
vt 0.11120477 0.72551036
vt 0.21803986 0.72551036
vt 0.11120477 0.92304325
vt 0.21803986 0.52797747
vt 0.11120477 0.72551036
vt 0.21803986 0.72551036
vt 0.11120477 0.92304325
vn -0.98442113 0.17582612 -0.00045737182
vn -0.98442113 0.1758261 -0.00045737182
vn -0.98442113 0.1758261 -0.00045737182
vn -0.97490895 0.22214258 0.014326158
vn -0.97490895 0.22214255 0.014326157
vn -0.97490895 0.22214258 0.014326158
vn -0.9659223 0.25883183 -0.00045878743
vn -0.9659223 0.25883183 -0.00045878743
vn -0.9659223 0.25883186 -0.00045878743
vn -0.9113618 0.37114614 0.17796104
vn -0.9113618 0.37114614 0.17796102
vn -0.9113618 0.37114614 0.177961
vn -0.96587557 0.25849828 0.016217947
vn -0.96587557 0.25849828 0.016217947
vn -0.96587557 0.25849828 0.016217947
vn -0.9657318 0.1880385 0.17889568
vn -0.9657318 0.18803848 0.17889568
vn -0.9657318 0.18803848 0.17889568
vn -0.96267253 0.25944385 0.07713965
vn -0.96267253 0.25944388 0.07713966
vn -0.96267253 0.25944388 0.07713966
vn -0.92887986 0.3702173 -0.0110215815
vn -0.92887986 0.37021726 -0.011021581
vn -0.92887986 0.37021726 -0.011021581
vn -0.9723603 0.22669749 -0.05588986
vn -0.9723603 0.22669749 -0.05588986
vn -0.9723603 0.22669749 -0.055889856
vn -0.98233265 0.18631041 -0.017636899
vn -0.98233265 0.18631044 -0.0176369
vn -0.98233265 0.18631043 -0.017636899
vn 0.9844208 -0.175828 -0.00045603758
vn 0.9844208 -0.17582797 -0.00045603752
vn 0.9844208 -0.17582798 -0.00045603752
vn 0.97491336 -0.22212355 0.014320997
vn 0.97491336 -0.22212358 0.0143209975
vn 0.97491336 -0.22212355 0.014320997
vn 0.9659209 -0.2588366 -0.00045784216
vn 0.96592104 -0.2588366 -0.00045784216
vn 0.9659209 -0.2588366 -0.0004578422
vn 0.9116392 -0.37314007 0.17227975
vn 0.9116392 -0.37314 0.17227973
vn 0.9116392 -0.3731401 0.17227975
vn 0.9651028 -0.26137415 0.01612515
vn 0.9651028 -0.26137412 0.016125148
vn 0.9651028 -0.26137415 0.01612515
vn 0.9667422 -0.18815486 0.17322591
vn 0.9667422 -0.18815486 0.17322591
vn 0.9667422 -0.18815483 0.17322591
vn 0.96361136 -0.25593376 0.07714272
vn 0.96361136 -0.2559338 0.07714272
vn 0.96361136 -0.2559338 0.07714272
vn 0.9273123 -0.37412703 -0.010997235
vn 0.9273123 -0.37412703 -0.010997236
vn 0.9273123 -0.37412703 -0.010997236
vn 0.97229946 -0.22673047 -0.056807213
vn 0.97229946 -0.22673047 -0.05680721
vn 0.97229946 -0.22673047 -0.05680721
vn 0.98273474 -0.18417744 -0.017639864
vn 0.98273474 -0.18417744 -0.017639866
vn 0.98273474 -0.18417743 -0.017639862
vn -0.9500063 0.31173038 -0.017666293
vn -0.9500063 0.31173038 -0.017666293
vn -0.9500063 0.31173038 -0.017666291
vn -0.94987667 0.30759653 -0.055846244
vn 0.9500076 -0.31172678 -0.017662793
vn 0.9500076 -0.31172678 -0.017662793
vn 0.9500076 -0.31172672 -0.017662792
vn 0.94985163 -0.30745843 -0.05701891
g alpha_Castle_tower02_0
f 3/3/3 2/2/2 1/1/1
f 6/6/6 5/5/5 4/4/4
f 9/9/9 8/8/8 7/7/7
f 12/12/12 11/11/11 10/10/10
f 15/15/15 14/14/14 13/13/13
f 18/18/18 17/17/17 16/16/16
f 21/21/21 20/20/20 19/19/19
f 24/24/24 23/23/23 22/22/22
f 27/27/27 26/26/26 25/25/25
f 30/30/30 29/29/29 28/28/28
f 33/33/33 32/32/32 31/31/31
f 36/36/36 35/35/35 34/34/34
f 39/39/39 38/38/38 37/37/37
f 42/42/42 41/41/41 40/40/40
f 45/45/45 44/44/44 43/43/43
f 48/48/48 47/47/47 46/46/46
f 51/51/51 50/50/50 49/49/49
f 54/54/54 53/53/53 52/52/52
f 57/57/57 56/56/56 55/55/55
f 60/60/60 59/59/59 58/58/58
f 63/63/63 62/62/62 61/61/61
f 62/62/62 63/63/63 64/64/64
f 67/67/67 66/66/66 65/65/65
f 66/66/66 67/67/67 68/68/68
