g Base
v -1.3205357 -1.5885383 -0.106742464
v -1.3205357 0.1174948 1.1696523E-06
v -1.0449543 0.017940916 1.1696523E-06
v -1.1661987 -1.5885383 0.02219858
v -1.0112076 -1.5885383 -0.106742464
v -0.6697521 -1.5885383 0.05898297
v -0.41325283 -0.1955043 0.11664678
v -0.48918343 -1.5885383 -0.114433765
v -0 -1.5885379 0.0940387
v -0 -0.25236472 0.15207501
v -0 -0.25236472 0.15207501
v 0.48918343 -1.5885383 -0.114433765
v -0 -1.5885379 0.0940387
v 0.5218878 -0.17578655 0.10083702
v 0.6697521 -1.5885383 0.05898297
v 1.0449553 0.017940916 1.1696523E-06
v 1.0112076 -1.5885383 -0.106742464
v 1.1661987 -1.5885383 0.02219858
v 1.3205357 -1.5885383 -0.106742464
v 1.3205357 0.1174948 1.1696523E-06
vt 0.88195634 0.44762996
vt 0.88195634 0.5740919
vt 0.904459 0.5740919
vt 0.89455867 0.44762996
vt 0.90721446 0.44762996
vt 0.9350961 0.44762996
vt 0.9560406 0.5741717
vt 0.9498405 0.44762996
vt 0.98978484 0.44762996
vt 0.98978484 0.57422394
vt 0.98978484 0.57422394
vt 0.9498405 0.44762996
vt 0.98978484 0.44762996
vt 0.9471701 0.57415795
vt 0.9350961 0.44762996
vt 0.904459 0.5740919
vt 0.90721446 0.44762996
vt 0.89455867 0.44762996
vt 0.88195634 0.44762996
vt 0.88195634 0.5740919
vn -0.29018098 -0.013801142 0.9568722
vn -0.29018095 -0.013801142 0.9568722
vn -0.24502972 -0.014736928 0.9694036
vn -0.026757007 -0.022823192 0.9993814
vn -0.08248713 -0.06779878 0.99428326
vn -0.051406175 -0.092802405 0.9943567
vn -0.16448939 -0.032987837 0.9858271
vn -0.044419747 -0.16112766 0.9859335
vn 0.02213394 -0.085513264 0.9960912
vn 0.06320455 -0.09375517 0.993587
vn 0.06320455 -0.09375517 0.993587
vn 0.004094639 -0.08735092 0.99616915
vn 0.02213394 -0.085513264 0.9960912
vn 0.14175154 -0.071836375 0.9872923
vn 0.027913284 -0.078576095 0.9965173
vn 0.25294584 -0.016087469 0.96734667
vn 0.08248738 -0.067798525 0.99428326
vn 0.026756942 -0.02282326 0.9993814
vn 0.29018155 -0.0138011705 0.9568721
vn 0.29018158 -0.013801171 0.9568721
g Base_0
f 3/3/3 2/2/2 1/1/1
f 4/4/4 3/3/3 1/1/1
f 5/5/5 3/3/3 4/4/4
f 6/6/6 3/3/3 5/5/5
f 7/7/7 3/3/3 6/6/6
f 8/8/8 7/7/7 6/6/6
f 9/9/9 7/7/7 8/8/8
f 10/10/10 7/7/7 9/9/9
f 13/13/13 12/12/12 11/11/11
f 14/14/14 11/11/11 12/12/12
f 14/14/14 12/12/12 15/15/15
f 14/14/14 15/15/15 16/16/16
f 16/16/16 15/15/15 17/17/17
f 16/16/16 17/17/17 18/18/18
f 16/16/16 18/18/18 19/19/19
f 20/20/20 16/16/16 19/19/19
