g blade_mdl
v -2.5776236 3.3780174 1.744783
v -2.836768 3.3780174 1.744783
v -2.7071955 3.1862543 1.877593
v -2.7071955 5.329638 14.291919
v -2.7071955 4.9061866 13.904497
v -2.7621107 5.2247643 13.679153
v -2.7071955 4.50516 13.157457
v -2.7873695 5.238218 13.011978
v -2.8028915 4.8314753 11.248893
v -2.7071955 4.045881 11.460745
v -2.7071955 3.505015 8.471509
v -2.823489 4.3442073 8.2799015
v -2.7071955 3.210734 5.1540637
v -2.836768 4.0927453 5.064238
v -2.7071955 3.1862543 1.877593
v -2.836768 3.3780174 1.744783
v -2.836768 4.074291 1.2928692
v -2.836768 3.3807015 1.2866367
v -2.7071955 5.329638 14.291919
v -2.65228 5.2247643 13.679153
v -2.7071955 4.9061866 13.904497
v -2.7071955 4.50516 13.157457
v -2.6270216 5.238218 13.011978
v -2.6114995 4.8314753 11.248893
v -2.7071955 4.045881 11.460745
v -2.7071955 3.505015 8.471509
v -2.5909026 4.3442073 8.2799015
v -2.7071955 3.210734 5.1540637
v -2.5776236 4.0927453 5.064238
v -2.7071955 3.1862543 1.877593
v -2.5776236 3.3780174 1.744783
v -2.5776236 4.074291 1.2928692
v -2.5776236 3.3807015 1.2866367
v -2.7071955 5.329638 14.291919
v -2.7621107 5.2247643 13.679153
v -2.65228 5.2247643 13.679153
v -2.7873695 5.238218 13.011978
v -2.6270216 5.238218 13.011978
v -2.8028915 4.8314753 11.248893
v -2.6114995 4.8314753 11.248893
v -2.823489 4.3442073 8.2799015
v -2.5909026 4.3442073 8.2799015
v -2.836768 4.0927453 5.064238
v -2.5776236 4.0927453 5.064238
v -2.836768 4.074291 1.2928692
v -2.5776236 4.074291 1.2928692
v -2.836768 4.074291 1.2928692
v -2.836768 3.3807015 1.2866367
v -2.5776236 4.074291 1.2928692
v -2.5776236 3.3807015 1.2866367
v -2.836768 3.3807015 1.2866367
v -2.836768 3.3780174 1.744783
v -2.5776236 3.3807015 1.2866367
v -2.5776236 3.3780174 1.744783
v -2.6949706 3.9888375 -0.34036872
v -2.6949706 3.989071 1.1719408
v -2.850448 3.9073923 1.1719408
v -2.850448 3.9072456 -0.34036872
v -2.850448 3.6113274 1.1719408
v -2.850448 4.018383 -2.072705
v -2.6949706 4.080004 -2.0659533
v -2.850448 3.6114738 -0.36133504
v -2.6949706 3.5177116 1.1719408
v -2.6949706 3.517945 -0.36133504
v -2.850448 3.7074716 -2.09192
v -2.6949706 3.6107795 -2.110769
v -2.6949706 4.080004 -2.0659533
v -2.6949706 3.6107795 -2.110769
v -2.6949706 4.080004 -2.0659533
v -2.6949706 3.6107795 -2.110769
v -2.539493 3.7074716 -2.09192
v -2.539493 4.018383 -2.072705
v -2.539493 3.6114738 -0.36133504
v -2.6949706 3.517945 -0.36133504
v -2.6949706 3.6107795 -2.110769
v -2.6949706 3.5177116 1.1719408
v -2.539493 3.6113274 1.1719408
v -2.539493 3.9072456 -0.34036872
v -2.539493 3.9073923 1.1719408
v -2.6949706 3.9888375 -0.34036872
v -2.6949706 4.080004 -2.0659533
v -2.6949706 3.989071 1.1719408
v -2.3229268 3.4296625 1.3095436
v -2.1669233 3.2340844 1.3095436
v -2.6949708 3.0892968 1.3095436
v -2.6949708 3.4296625 1.3095436
v -2.6949708 3.6181374 1.3095436
v -2.178681 3.6181374 1.3095436
v -2.178681 3.9219215 1.3095436
v -3.067014 3.4296625 1.3095436
v -3.2230186 3.2340844 1.3095436
v -3.2112596 3.6181374 1.3095436
v -3.2112596 3.9219215 1.3095436
v -2.6949708 3.9219215 1.3095436
v -2.322927 4.110397 1.3095436
v -3.067014 4.110397 1.3095436
v -2.6949708 4.110397 1.3095436
v -2.6949708 4.4507623 1.3095436
v -2.1669233 4.3059745 1.3095436
v -3.2230186 4.3059745 1.3095436
v -2.69497 4.4507623 1.1049398
v -2.6949708 4.4507623 1.3095436
v -3.2230172 4.3059745 1.1049398
v -3.2230186 4.3059745 1.3095436
v -2.69497 3.0892968 1.1049398
v -2.166922 3.2340844 1.1049398
v -2.3229263 3.4296625 1.1049398
v -2.69497 3.4296625 1.1049398
v -3.0670133 3.4296625 1.1049398
v -3.2230172 3.2340844 1.1049398
v -2.69497 3.6181374 1.1049398
v -3.2112586 3.6181374 1.1049398
v -2.1786804 3.6181374 1.1049398
v -3.2112586 3.9219215 1.1049398
v -2.69497 3.9219215 1.1049398
v -2.1786807 3.9219215 1.1049398
v -3.0670133 4.110397 1.1049398
v -2.3229263 4.110397 1.1049398
v -2.69497 4.110397 1.1049398
v -2.69497 4.4507623 1.1049398
v -3.2230172 4.3059745 1.1049398
v -2.166922 4.3059745 1.1049398
v -2.1669233 3.2340844 1.3095436
v -2.166922 3.2340844 1.1049398
v -2.6949708 3.0892968 1.3095436
v -2.69497 3.0892968 1.1049398
v -2.166922 3.2340844 1.1049398
v -2.1669233 3.2340844 1.3095436
v -2.3229263 3.4296625 1.1049398
v -2.3229268 3.4296625 1.3095436
v -2.1786804 3.6181374 1.1049398
v -2.178681 3.6181374 1.3095436
v -3.2230186 3.2340844 1.3095436
v -3.2230172 3.2340844 1.1049398
v -3.0670133 3.4296625 1.1049398
v -3.067014 3.4296625 1.3095436
v -3.2112586 3.6181374 1.1049398
v -3.2112596 3.6181374 1.3095436
v -2.166922 4.3059745 1.1049398
v -2.1669233 4.3059745 1.3095436
v -2.69497 4.4507623 1.1049398
v -2.6949708 4.4507623 1.3095436
v -3.2230172 3.2340844 1.1049398
v -3.2230186 3.2340844 1.3095436
v -2.69497 3.0892968 1.1049398
v -2.6949708 3.0892968 1.3095436
v -3.2230186 4.3059745 1.3095436
v -3.067014 4.110397 1.3095436
v -3.2230172 4.3059745 1.1049398
v -3.0670133 4.110397 1.1049398
v -3.2112596 3.9219215 1.3095436
v -3.2112586 3.9219215 1.1049398
v -3.2112586 3.6181374 1.1049398
v -3.2112596 3.6181374 1.3095436
v -2.166922 4.3059745 1.1049398
v -2.3229263 4.110397 1.1049398
v -2.1669233 4.3059745 1.3095436
v -2.322927 4.110397 1.3095436
v -2.178681 3.9219215 1.3095436
v -2.1786807 3.9219215 1.1049398
v -2.1786804 3.6181374 1.1049398
v -2.178681 3.6181374 1.3095436
v -2.7913842 4.0570045 -2.0662096
v -2.5985575 4.0570045 -2.0662096
v -2.7913842 3.6425393 -2.0899434
v -2.5985575 3.6425393 -2.0899434
v -2.7913835 4.3193398 -2.4670115
v -2.598557 4.3193398 -2.4670115
v -2.7913842 4.0570045 -2.0662096
v -2.5985575 4.0570045 -2.0662096
v -2.7913842 3.4276712 -2.5180724
v -2.5985575 3.4276712 -2.5180724
v -2.7913842 3.8798592 -2.6035063
v -2.5985575 3.8798592 -2.6035063
v -2.7913842 3.6425393 -2.0899434
v -2.5985575 3.6425393 -2.0899434
v -2.7913842 3.4276712 -2.5180724
v -2.5985575 3.4276712 -2.5180724
v -2.5985575 3.4276712 -2.5180724
v -2.5985575 3.6425393 -2.0899434
v -2.5985575 3.8798592 -2.6035063
v -2.5985575 4.0570045 -2.0662096
v -2.598557 4.3193398 -2.4670115
v -2.7913842 3.4276712 -2.5180724
v -2.7913842 3.8798592 -2.6035063
v -2.7913842 3.6425393 -2.0899434
v -2.7913842 4.0570045 -2.0662096
v -2.7913835 4.3193398 -2.4670115
v -2.7913842 3.8798592 -2.6035063
v -2.5985575 3.8798592 -2.6035063
v -2.7913835 4.3193398 -2.4670115
v -2.598557 4.3193398 -2.4670115
vt 0.063180506 0.52969605
vt 0.063180506 0.52969605
vt 0.07517373 0.5346239
vt 0.021606654 0.79751354
vt 0.049895674 0.77816606
vt 0.021606918 0.7763375
vt 0.07517347 0.75830853
vt 0.021606918 0.7532807
vt 0.021606918 0.6958371
vt 0.0751737 0.6961859
vt 0.07517376 0.62847465
vt 0.021606918 0.62783754
vt 0.07517337 0.57376516
vt 0.021606918 0.57376784
vt 0.07517373 0.5346239
vt 0.063180506 0.52969605
vt 0.021606918 0.51292807
vt 0.063013375 0.5126972
vt 0.021606654 0.79751354
vt 0.021606918 0.7763375
vt 0.049895674 0.77816606
vt 0.07517347 0.75830853
vt 0.021606918 0.7532807
vt 0.021606918 0.6958371
vt 0.0751737 0.6961859
vt 0.07517376 0.62847465
vt 0.021606918 0.62783754
vt 0.07517337 0.57376516
vt 0.021606918 0.57376784
vt 0.07517373 0.5346239
vt 0.063180506 0.52969605
vt 0.021606918 0.51292807
vt 0.063013375 0.5126972
vt 0.014152765 0.7975136
vt 0.021606922 0.7763375
vt 0.006618459 0.7763375
vt 0.021606922 0.7532807
vt 0.006618459 0.7532807
vt 0.021606922 0.6958371
vt 0.006618459 0.6958371
vt 0.021606922 0.62783766
vt 0.006618459 0.62783766
vt 0.021606922 0.5737678
vt 0.006618459 0.5737678
vt 0.021606922 0.5129281
vt 0.006618459 0.5129281
vt 0.021606918 0.51292807
vt 0.063013375 0.5126972
vt 0.021606918 0.51292807
vt 0.063013375 0.5126972
vt 0.063013375 0.5126972
vt 0.063180506 0.52969605
vt 0.063013375 0.5126972
vt 0.063180506 0.52969605
vt 0.21329796 0.8373532
vt 0.21329677 0.9185848
vt 0.19850004 0.9185848
vt 0.19850004 0.8373532
vt 0.17879283 0.9185848
vt 0.19849849 0.7446666
vt 0.21330369 0.74466634
vt 0.17879272 0.8373532
vt 0.1624788 0.91858506
vt 0.16247869 0.83735335
vt 0.17879283 0.7446666
vt 0.1624738 0.7446667
vt 0.21330369 0.73353815
vt 0.1624738 0.73353875
vt 0.21330369 0.73353815
vt 0.1624738 0.73353875
vt 0.17879283 0.7446666
vt 0.19849849 0.7446666
vt 0.17879272 0.8373532
vt 0.16247869 0.83735335
vt 0.1624738 0.7446667
vt 0.1624788 0.91858506
vt 0.17879283 0.9185848
vt 0.19850004 0.8373532
vt 0.19850004 0.9185848
vt 0.21329796 0.8373532
vt 0.21330369 0.74466634
vt 0.21329677 0.9185848
vt 0.47655582 0.53479004
vt 0.48760366 0.5209389
vt 0.4502082 0.51068497
vt 0.4502082 0.53479004
vt 0.4502082 0.5481374
vt 0.4867711 0.5481374
vt 0.4867711 0.5696511
vt 0.4238596 0.53479004
vt 0.41281176 0.5209389
vt 0.41364527 0.5481374
vt 0.41364527 0.5696511
vt 0.4502082 0.5696511
vt 0.47655582 0.5829985
vt 0.4238596 0.5829985
vt 0.4502082 0.5829985
vt 0.4502082 0.60710335
vt 0.48760366 0.59685016
vt 0.41281176 0.59685016
vt 0.47354966 0.98532414
vt 0.46457687 0.98532414
vt 0.47354966 0.9599278
vt 0.46457687 0.9599278
vt 0.4502082 0.51068497
vt 0.48760366 0.5209389
vt 0.47655582 0.53479004
vt 0.4502082 0.53479004
vt 0.4238596 0.53479004
vt 0.41281176 0.5209389
vt 0.4502082 0.5481374
vt 0.4136443 0.5481374
vt 0.4867711 0.5481374
vt 0.4136443 0.5696511
vt 0.4502082 0.5696511
vt 0.4867711 0.5696511
vt 0.4238596 0.5829985
vt 0.47655582 0.5829985
vt 0.4502082 0.5829985
vt 0.4502082 0.60710335
vt 0.41281176 0.59685016
vt 0.48760366 0.59685016
vt 0.48523548 0.95956284
vt 0.45278203 0.95956284
vt 0.48523542 0.9849586
vt 0.45278203 0.9849586
vt 0.45278203 0.95956284
vt 0.48523548 0.95956284
vt 0.45278203 0.94540113
vt 0.48523542 0.94540113
vt 0.45278203 0.931754
vt 0.48523542 0.931754
vt 0.48523548 0.95956284
vt 0.45278203 0.95956284
vt 0.45278203 0.94540113
vt 0.48523542 0.94540113
vt 0.45278203 0.931754
vt 0.48523542 0.931754
vt 0.47354966 0.9599278
vt 0.46457687 0.9599278
vt 0.47354966 0.98532414
vt 0.46457687 0.98532414
vt 0.45278203 0.95956284
vt 0.48523548 0.95956284
vt 0.45278203 0.9849586
vt 0.48523542 0.9849586
vt 0.46457687 0.9599278
vt 0.46457687 0.9457655
vt 0.47354966 0.9599278
vt 0.47354966 0.9457655
vt 0.46457687 0.932119
vt 0.47354966 0.932119
vt 0.47354966 0.9101225
vt 0.46457687 0.9101225
vt 0.47354966 0.9599278
vt 0.47354966 0.9457655
vt 0.46457687 0.9599278
vt 0.46457687 0.9457655
vt 0.46457687 0.932119
vt 0.47354966 0.932119
vt 0.47354966 0.9101225
vt 0.46457687 0.9101225
vt 0.4160887 0.97847104
vt 0.4160887 0.97847104
vt 0.42802018 0.97815114
vt 0.42802018 0.97815114
vt 0.382999 0.9953251
vt 0.38972116 0.9953251
vt 0.38299894 0.97977364
vt 0.38972116 0.97977364
vt 0.41152894 0.96887213
vt 0.41152892 0.9588471
vt 0.42748666 0.9688721
vt 0.4274867 0.95884705
vt 0.38299894 0.97977364
vt 0.38972116 0.97977364
vt 0.38299894 0.9953251
vt 0.38972116 0.9953251
vt 0.4352088 0.9893585
vt 0.42802018 0.97815114
vt 0.42245993 0.9928971
vt 0.4160887 0.97847104
vt 0.40953976 0.9900466
vt 0.4352088 0.9893585
vt 0.42245993 0.9928971
vt 0.42802018 0.97815114
vt 0.4160887 0.97847104
vt 0.40953976 0.9900466
vt 0.42748666 0.9688721
vt 0.4274867 0.95884705
vt 0.44319934 0.9688721
vt 0.4431993 0.9588471
vn -0 -0.56935805 -0.8220896
vn -0 -0.56935805 -0.8220896
vn -0 -0.56935805 -0.8220896
vn -0.9897878 -0.0962237 0.10517175
vn -0.99022126 -0.10999214 0.08581208
vn -0.99182886 -0.107248634 0.069087826
vn -0.99306244 -0.11012502 0.0412236
vn -0.9942048 -0.101993546 0.03397307
vn -0.99370414 -0.10753448 0.031439006
vn -0.99315464 -0.112749115 0.030519828
vn -0.9917014 -0.12693521 0.020387823
vn -0.9904778 -0.13641809 0.018540965
vn -0.9899345 -0.14121027 0.009451795
vn -0.9787982 -0.20233142 0.031873498
vn -0.94191974 -0.33115265 0.055902176
vn -0.9841123 -0.17356905 0.037371997
vn -1 0 0
vn -1 0 0
vn 0.9897878 -0.09622287 0.10517177
vn 0.99182886 -0.107248574 0.069087796
vn 0.99022126 -0.10999184 0.08581228
vn 0.99306244 -0.11012504 0.041223574
vn 0.9942048 -0.10199345 0.033972837
vn 0.99370414 -0.107534185 0.031439003
vn 0.99315464 -0.112749115 0.030519828
vn 0.99170154 -0.1269349 0.020387711
vn 0.9904779 -0.13641775 0.018540833
vn 0.9899345 -0.14121002 0.009451755
vn 0.97879833 -0.20233117 0.031873398
vn 0.9419199 -0.33115217 0.055901997
vn 0.9841123 -0.17356887 0.037371896
vn 1 0 0
vn 1 0 0
vn -0 0.9856683 -0.16869509
vn -0 0.9972134 -0.07460188
vn -0 0.9990767 -0.042962745
vn -0 0.9980817 -0.061909582
vn -0 0.9895606 -0.14411756
vn -0 0.9789834 -0.20394012
vn -0 0.9831161 -0.18298331
vn -0 0.990973 -0.134062
vn -0 0.9943615 -0.10604264
vn -0 0.9985605 -0.05363697
vn -0 0.9995716 -0.02926653
vn -0 0.9999881 -0.0048931288
vn -0 0.9999881 -0.004893132
vn -0 0.008985434 -0.9999597
vn -0 0.008985431 -0.9999597
vn -0 0.008985431 -0.9999597
vn -0 0.008985429 -0.9999597
vn -0 -0.99998283 -0.0058578863
vn -0 -0.99998283 -0.005858529
vn -0 -0.99998283 -0.005858529
vn -0 -0.99998283 -0.0058591715
vn -0 0.9995666 0.029438263
vn 5.3863255E-07 1 -0.00015445019
vn -0.7368099 0.6761001 -8.489699E-05
vn -0.91169935 0.41064775 0.01314197
vn -0.9466225 -0.32234406 -3.074251E-05
vn -0.80492175 0.53573704 -0.25512135
vn -0 0.4874314 -0.8731612
vn -0.8705317 -0.49202758 -0.009132355
vn -5.913177E-07 -1 -0.00012393843
vn -0 -0.99934727 -0.036126222
vn -0.6271655 -0.4639302 -0.6256454
vn -0 -0.585985 -0.8103218
vn -0 0.4874314 -0.8731612
vn -0 -0.585985 -0.8103218
vn -0 0.4874314 -0.8731612
vn -0 -0.585985 -0.8103218
vn 0.6271656 -0.46392992 -0.62564546
vn 0.8049219 0.53573686 -0.25512126
vn 0.87053144 -0.49202803 -0.009132394
vn -0 -0.99934727 -0.036126222
vn -0 -0.585985 -0.8103218
vn -5.913177E-07 -1 -0.00012393843
vn 0.9466225 -0.32234424 -3.084558E-05
vn 0.9116993 0.41064805 0.013141923
vn 0.7368099 0.6761001 -8.500672E-05
vn -0 0.9995666 0.029438263
vn -0 0.4874314 -0.8731612
vn 5.3863255E-07 1 -0.00015445019
vn -0 0 1
vn -0 0 1
vn -0 0 1
vn -0 0 1
vn -0 0 1
vn -0 0 1
vn -0 0 1
vn -0 0 1
vn -0 0 1
vn -0 0 1
vn -0 0 1
vn -0 0 1
vn -0 0 1
vn -0 0 1
vn -0 0 1
vn -0 0 1
vn -0 0 1
vn -0 0 1
vn -0.26443407 0.9644038 -6.914054E-07
vn -0.2644339 0.9644038 -1.7077491E-06
vn -0.2644339 0.9644038 -1.7077491E-06
vn -0.2644338 0.9644038 -2.7240926E-06
vn -0 0 -1
vn -0 0 -1
vn -0 0 -1
vn -0 0 -1
vn -0 0 -1
vn -0 0 -1
vn -0 0 -1
vn -0 0 -1
vn -0 0 -1
vn -0 0 -1
vn -0 0 -1
vn -0 0 -1
vn -0 0 -1
vn -0 0 -1
vn -0 0 -1
vn -0 0 -1
vn -0 0 -1
vn -0 0 -1
vn 0.264434 -0.9644038 3.4204618E-06
vn 0.26443392 -0.9644038 1.7102309E-06
vn 0.26443392 -0.9644038 1.7102309E-06
vn 0.26443386 -0.9644038 0
vn 0.7817616 0.6235775 4.4379085E-06
vn 0.7817623 0.6235765 2.9642038E-06
vn 0.96513724 0.26174417 3.4270395E-06
vn 0.97019535 -0.24232389 2.2534734E-06
vn 0.94713223 -0.32084358 1.7977824E-06
vn 0.947132 -0.3208441 1.8136574E-06
vn -0.78176117 0.6235779 -4.2006855E-06
vn -0.7817623 0.6235766 -5.4203842E-06
vn -0.9651369 0.26174554 -4.9871596E-06
vn -0.97019595 -0.24232186 -3.4114044E-06
vn -0.94713235 -0.32084328 -3.3812946E-06
vn -0.9471324 -0.320843 -2.7979092E-06
vn 0.26443368 0.9644039 1.9210102E-06
vn 0.26443395 0.9644038 9.60505E-07
vn 0.26443395 0.9644038 9.60505E-07
vn 0.2644342 0.9644037 0
vn -0.26443407 -0.9644038 -3.6525864E-06
vn -0.2644339 -0.9644038 -1.826293E-06
vn -0.2644339 -0.9644038 -1.826293E-06
vn -0.2644338 -0.9644038 0
vn -0.78176093 -0.62357837 -5.96198E-06
vn -0.9651369 -0.26174554 -4.1772328E-06
vn -0.78176117 -0.6235779 -4.316525E-06
vn -0.97019583 0.24232242 -3.3841047E-06
vn -0.94713235 0.32084328 -3.445498E-06
vn -0.9471324 0.320843 -4.0930863E-06
vn -0.94713235 -0.32084328 -3.3812946E-06
vn -0.9471324 -0.320843 -2.7979092E-06
vn 0.7817616 -0.6235775 5.961985E-06
vn 0.9999497 -0.010034506 3.4320435E-06
vn 0.78176194 -0.62357694 4.31653E-06
vn 0.9999497 -0.010033319 2.691813E-06
vn 0.947132 0.3208441 1.314788E-06
vn 0.94713223 0.32084355 8.159196E-07
vn 0.94713223 -0.32084358 1.7977824E-06
vn 0.947132 -0.3208441 1.8136574E-06
vn -0 -0.05716984 0.9983645
vn -0 -0.057169788 0.9983645
vn -0 -0.057169788 0.9983645
vn -0 -0.05716973 0.9983645
vn -0 0.8367088 0.54764795
vn -0 0.8367086 0.5476484
vn -0 0.8367086 0.5476484
vn -0 0.83670837 0.54764867
vn -0 -0.1856503 -0.9826158
vn -0 -0.18565008 -0.98261595
vn -0 -0.18565008 -0.98261595
vn -0 -0.18564989 -0.98261595
vn -0 -0.8937558 0.44855377
vn -0 -0.89375514 0.44855514
vn -0 -0.89375514 0.44855514
vn -0 -0.8937545 0.44855642
vn 1 -7.199175E-07 0
vn 1 0 0
vn 1 0 0
vn 1 0 0
vn 1 0 0
vn -1 0 0
vn -1 0 0
vn -1 -6.98386E-07 0
vn -1 7.4144805E-07 0
vn -1 2.879668E-06 0
vn -0 0.29660538 -0.95500016
vn -0 0.29660556 -0.9550001
vn -0 0.29660556 -0.9550001
vn -0 0.29660574 -0.9550001
g blade_mdl_0
f 3/3/3 2/2/2 1/1/1
f 6/6/6 5/5/5 4/4/4
f 6/6/6 7/7/7 5/5/5
f 6/6/6 8/8/8 7/7/7
f 9/9/9 7/7/7 8/8/8
f 9/9/9 10/10/10 7/7/7
f 9/9/9 11/11/11 10/10/10
f 9/9/9 12/12/12 11/11/11
f 12/12/12 13/13/13 11/11/11
f 12/12/12 14/14/14 13/13/13
f 14/14/14 15/15/15 13/13/13
f 14/14/14 16/16/16 15/15/15
f 16/16/16 14/14/14 17/17/17
f 16/16/16 17/17/17 18/18/18
f 21/21/21 20/20/20 19/19/19
f 22/22/22 20/20/20 21/21/21
f 22/22/22 23/23/23 20/20/20
f 24/24/24 23/23/23 22/22/22
f 24/24/24 22/22/22 25/25/25
f 26/26/26 24/24/24 25/25/25
f 26/26/26 27/27/27 24/24/24
f 28/28/28 27/27/27 26/26/26
f 28/28/28 29/29/29 27/27/27
f 30/30/30 29/29/29 28/28/28
f 30/30/30 31/31/31 29/29/29
f 32/32/32 29/29/29 31/31/31
f 32/32/32 31/31/31 33/33/33
f 36/36/36 35/35/35 34/34/34
f 36/36/36 37/37/37 35/35/35
f 36/36/36 38/38/38 37/37/37
f 38/38/38 39/39/39 37/37/37
f 38/38/38 40/40/40 39/39/39
f 40/40/40 41/41/41 39/39/39
f 40/40/40 42/42/42 41/41/41
f 42/42/42 43/43/43 41/41/41
f 42/42/42 44/44/44 43/43/43
f 44/44/44 45/45/45 43/43/43
f 44/44/44 46/46/46 45/45/45
f 49/49/49 48/48/48 47/47/47
f 49/49/49 50/50/50 48/48/48
f 53/53/53 52/52/52 51/51/51
f 53/53/53 54/54/54 52/52/52
f 57/57/57 56/56/56 55/55/55
f 57/57/57 55/55/55 58/58/58
f 59/59/59 57/57/57 58/58/58
f 55/55/55 60/60/60 58/58/58
f 55/55/55 61/61/61 60/60/60
f 59/59/59 58/58/58 62/62/62
f 62/62/62 58/58/58 60/60/60
f 62/62/62 63/63/63 59/59/59
f 62/62/62 64/64/64 63/63/63
f 62/62/62 60/60/60 65/65/65
f 64/64/64 62/62/62 65/65/65
f 64/64/64 65/65/65 66/66/66
f 67/67/67 65/65/65 60/60/60
f 67/67/67 68/68/68 65/65/65
f 71/71/71 70/70/70 69/69/69
f 71/71/71 69/69/69 72/72/72
f 73/73/73 71/71/71 72/72/72
f 71/71/71 73/73/73 74/74/74
f 71/71/71 74/74/74 75/75/75
f 76/76/76 74/74/74 73/73/73
f 76/76/76 73/73/73 77/77/77
f 78/78/78 77/77/77 73/73/73
f 73/73/73 72/72/72 78/78/78
f 78/78/78 79/79/79 77/77/77
f 80/80/80 78/78/78 72/72/72
f 80/80/80 79/79/79 78/78/78
f 80/80/80 72/72/72 81/81/81
f 80/80/80 82/82/82 79/79/79
f 85/85/85 84/84/84 83/83/83
f 83/83/83 86/86/86 85/85/85
f 83/83/83 87/87/87 86/86/86
f 83/83/83 88/88/88 87/87/87
f 87/87/87 88/88/88 89/89/89
f 86/86/86 90/90/90 85/85/85
f 86/86/86 87/87/87 90/90/90
f 90/90/90 91/91/91 85/85/85
f 87/87/87 92/92/92 90/90/90
f 93/93/93 92/92/92 87/87/87
f 87/87/87 89/89/89 94/94/94
f 93/93/93 87/87/87 94/94/94
f 94/94/94 89/89/89 95/95/95
f 94/94/94 96/96/96 93/93/93
f 97/97/97 94/94/94 95/95/95
f 96/96/96 94/94/94 97/97/97
f 97/97/97 95/95/95 98/98/98
f 96/96/96 97/97/97 98/98/98
f 95/95/95 99/99/99 98/98/98
f 98/98/98 100/100/100 96/96/96
f 103/103/103 102/102/102 101/101/101
f 103/103/103 104/104/104 102/102/102
f 107/107/107 106/106/106 105/105/105
f 108/108/108 107/107/107 105/105/105
f 109/109/109 108/108/108 105/105/105
f 105/105/105 110/110/110 109/109/109
f 108/108/108 111/111/111 107/107/107
f 109/109/109 111/111/111 108/108/108
f 109/109/109 112/112/112 111/111/111
f 111/111/111 113/113/113 107/107/107
f 111/111/111 112/112/112 114/114/114
f 113/113/113 111/111/111 115/115/115
f 111/111/111 114/114/114 115/115/115
f 113/113/113 115/115/115 116/116/116
f 115/115/115 114/114/114 117/117/117
f 115/115/115 118/118/118 116/116/116
f 119/119/119 115/115/115 117/117/117
f 118/118/118 115/115/115 119/119/119
f 119/119/119 117/117/117 120/120/120
f 118/118/118 119/119/119 120/120/120
f 117/117/117 121/121/121 120/120/120
f 120/120/120 122/122/122 118/118/118
f 125/125/125 124/124/124 123/123/123
f 125/125/125 126/126/126 124/124/124
f 129/129/129 128/128/128 127/127/127
f 129/129/129 130/130/130 128/128/128
f 131/131/131 130/130/130 129/129/129
f 131/131/131 132/132/132 130/130/130
f 135/135/135 134/134/134 133/133/133
f 135/135/135 133/133/133 136/136/136
f 137/137/137 135/135/135 136/136/136
f 137/137/137 136/136/136 138/138/138
f 141/141/141 140/140/140 139/139/139
f 141/141/141 142/142/142 140/140/140
f 145/145/145 144/144/144 143/143/143
f 145/145/145 146/146/146 144/144/144
f 149/149/149 148/148/148 147/147/147
f 149/149/149 150/150/150 148/148/148
f 150/150/150 151/151/151 148/148/148
f 150/150/150 152/152/152 151/151/151
f 153/153/153 151/151/151 152/152/152
f 153/153/153 154/154/154 151/151/151
f 157/157/157 156/156/156 155/155/155
f 157/157/157 158/158/158 156/156/156
f 156/156/156 158/158/158 159/159/159
f 156/156/156 159/159/159 160/160/160
f 159/159/159 161/161/161 160/160/160
f 159/159/159 162/162/162 161/161/161
f 165/165/165 164/164/164 163/163/163
f 165/165/165 166/166/166 164/164/164
f 169/169/169 168/168/168 167/167/167
f 169/169/169 170/170/170 168/168/168
f 173/173/173 172/172/172 171/171/171
f 173/173/173 174/174/174 172/172/172
f 177/177/177 176/176/176 175/175/175
f 177/177/177 178/178/178 176/176/176
f 181/181/181 180/180/180 179/179/179
f 181/181/181 182/182/182 180/180/180
f 183/183/183 182/182/182 181/181/181
f 186/186/186 185/185/185 184/184/184
f 186/186/186 187/187/187 185/185/185
f 188/188/188 185/185/185 187/187/187
f 191/191/191 190/190/190 189/189/189
f 191/191/191 192/192/192 190/190/190
