g body001
v 0.0058134315 -0.20724128 -0.32211685
v -0.00084047636 -0.22174522 -0.34300253
v -0.00084047636 -0.20908615 -0.29135022
v 0.0060288897 -0.18497093 -0.23248817
v -0.00084047636 -0.18871841 -0.22930388
v 0.04567104 -0.12289291 -0.13408813
v 0.023403823 -0.1634983 -0.23828255
v -0.00084047636 -0.15627639 -0.12014549
v 0.064272724 -0.07777756 -0.14446914
v -0.00036977194 -0.15472779 -0.115958706
v -0.00084047636 -0.15560898 -0.11525909
v -0.00084047636 -0.08924049 -0.052827224
v 0.0143938875 -0.08220916 -0.06053749
v -0.00084047636 -0.025354765 0.008443832
v 0.019446082 -0.069997326 -0.062810056
v -0.00084047636 -0.0106826015 0.017879639
v 0.009022855 -0.045032196 -0.052390594
v -0.00084047636 -0.0106826015 0.017879639
v -0.00084047636 -0.007245102 0.0055693816
v -0.00084047636 -0.20908615 -0.29135022
v -0.00084047636 -0.22174522 -0.34300253
v -0.007494384 -0.20724128 -0.32211685
v -0.007709842 -0.18497093 -0.23248817
v -0.025084773 -0.1634983 -0.23828255
v -0.047351994 -0.12289291 -0.13408813
v -0.00084047636 -0.18871841 -0.22930388
v -0.06595368 -0.07777756 -0.14446914
v -0.00084047636 -0.15627639 -0.12014549
v -0.021127036 -0.069997326 -0.062810056
v -0.010703808 -0.045032196 -0.052390594
v -0.00084047636 -0.0106826015 0.017879639
v -0.00084047636 -0.007245102 0.0055693816
v -0.0013111809 -0.15472779 -0.115958706
v -0.00084047636 -0.15560898 -0.11525909
v -0.00084047636 -0.08924049 -0.052827224
v -0.01607484 -0.08220916 -0.06053749
v -0.00084047636 -0.025354765 0.008443832
v -0.00084047636 -0.0106826015 0.017879639
vt 0.48982444 0.71611506
vt 0.47680658 0.692134
vt 0.47081155 0.70284057
vt 0.47992164 0.7353297
vt 0.47413385 0.7295978
vt 0.4963552 0.78620946
vt 0.49482837 0.7596754
vt 0.46593964 0.76694465
vt 0.5115277 0.786664
vt 0.46620238 0.76763785
vt 0.46581286 0.76732504
vt 0.46383852 0.781591
vt 0.4694734 0.7901454
vt 0.4631184 0.79728794
vt 0.47555277 0.8061914
vt 0.46444404 0.81955755
vt 0.48416674 0.8129334
vt 0.46444404 0.81955755
vt 0.469247 0.8340587
vt 0.47081155 0.70284057
vt 0.47680658 0.692134
vt 0.48982444 0.71611506
vt 0.47992164 0.7353297
vt 0.49482837 0.7596754
vt 0.4963552 0.78620946
vt 0.47413385 0.7295978
vt 0.5115277 0.786664
vt 0.46593964 0.76694465
vt 0.47555277 0.8061914
vt 0.48416674 0.8129334
vt 0.46444404 0.81955755
vt 0.469247 0.8340587
vt 0.46620238 0.76763785
vt 0.46581286 0.76732504
vt 0.46383852 0.781591
vt 0.4694734 0.7901454
vt 0.4631184 0.79728794
vt 0.46444404 0.81955755
vn 0.8012161 -0.581165 0.14247797
vn -0 -0.971256 0.23803762
vn -0 -0.9631918 0.26881513
vn 0.7328542 -0.6595556 0.16706641
vn -0 -0.9512333 0.30847225
vn 0.73887706 -0.59846133 0.30968502
vn 0.83853936 -0.5399966 0.07249389
vn -0 -0.9690443 0.24688673
vn 0.9183391 -0.30342144 0.25414324
vn 0.71971154 -0.58841157 0.36849314
vn -0 -0.8393558 0.54358226
vn -0 -0.69174457 0.7221422
vn 0.681747 -0.48480558 0.54789096
vn -0 -0.6403924 0.7680479
vn 0.90914595 -0.14685082 0.38972858
vn 0.75032276 -0.16475087 0.64021313
vn 0.9622764 0.12816243 0.23999685
vn 0.8496107 0.40250954 0.3408046
vn -0 0.9946661 -0.10314793
vn -0 -0.9631918 0.26881513
vn -0 -0.971256 0.23803762
vn -0.8012161 -0.581165 0.14247797
vn -0.7328541 -0.6595556 0.16706634
vn -0.8385395 -0.5399965 0.07249388
vn -0.73887706 -0.59846133 0.30968493
vn -0 -0.9512333 0.30847225
vn -0.9183391 -0.3034214 0.25414324
vn -0 -0.9690443 0.24688673
vn -0.9091461 -0.14685082 0.38972864
vn -0.9622764 0.12816247 0.23999685
vn -0.8496107 0.40250954 0.3408046
vn -0 0.9946661 -0.10314793
vn -0.71971154 -0.58841157 0.36849302
vn -0 -0.8393558 0.54358226
vn -0 -0.69174457 0.7221422
vn -0.681747 -0.48480558 0.54789096
vn -0 -0.6403924 0.7680479
vn -0.75032276 -0.16475087 0.64021313
g body001_0
f 3/3/3 2/2/2 1/1/1
f 1/1/1 4/4/4 3/3/3
f 4/4/4 5/5/5 3/3/3
f 5/5/5 4/4/4 6/6/6
f 1/1/1 7/7/7 4/4/4
f 6/6/6 4/4/4 7/7/7
f 6/6/6 8/8/8 5/5/5
f 9/9/9 6/6/6 7/7/7
f 6/6/6 10/10/10 8/8/8
f 10/10/10 11/11/11 8/8/8
f 12/12/12 11/11/11 10/10/10
f 13/13/13 12/12/12 10/10/10
f 13/13/13 10/10/10 6/6/6
f 14/14/14 12/12/12 13/13/13
f 15/15/15 6/6/6 9/9/9
f 15/15/15 13/13/13 6/6/6
f 14/14/14 13/13/13 15/15/15
f 16/16/16 14/14/14 15/15/15
f 17/17/17 15/15/15 9/9/9
f 18/18/18 15/15/15 17/17/17
f 19/19/19 18/18/18 17/17/17
f 22/22/22 21/21/21 20/20/20
f 20/20/20 23/23/23 22/22/22
f 23/23/23 24/24/24 22/22/22
f 23/23/23 25/25/25 24/24/24
f 26/26/26 23/23/23 20/20/20
f 25/25/25 23/23/23 26/26/26
f 25/25/25 27/27/27 24/24/24
f 26/26/26 28/28/28 25/25/25
f 25/25/25 29/29/29 27/27/27
f 29/29/29 30/30/30 27/27/27
f 29/29/29 31/31/31 30/30/30
f 31/31/31 32/32/32 30/30/30
f 28/28/28 33/33/33 25/25/25
f 34/34/34 33/33/33 28/28/28
f 34/34/34 35/35/35 33/33/33
f 33/33/33 36/36/36 25/25/25
f 35/35/35 36/36/36 33/33/33
f 36/36/36 29/29/29 25/25/25
f 35/35/35 37/37/37 36/36/36
f 36/36/36 37/37/37 29/29/29
f 37/37/37 38/38/38 29/29/29
