g body002
v 0.33073813 -0.52727246 -0.29818085
v 0.1362354 -0.7166301 -0.16503248
v 0.22475001 -0.5533697 -0.15432923
v 0.33021697 -0.823338 -0.39777708
v -0.030572409 -0.86900395 -0.35902834
v -0.026995542 -0.71701 -0.08348773
v 0.47214565 -0.48157734 -0.43705887
v -0.11757549 -0.7166299 -0.16246696
v 0.7471262 -0.5767439 -0.70597816
v 0.7181207 -0.398936 -0.77306753
v 0.77783203 -0.41328466 -0.81077075
v 0.8493824 -0.39409304 -0.834885
v 0.8685478 -0.46126038 -0.7971309
v 0.97542435 -0.3596106 -0.8773644
v 0.27719653 -0.9566734 -0.5525328
v -0.036922906 -0.9172977 -0.6005847
v 0.29888082 -0.9746348 -0.6701073
v -0.3767703 -0.823338 -0.3429824
v -0.37188503 -0.96798694 -0.5664981
v -0.042920116 -0.9172977 -0.7518064
v 0.039568074 -1.0000205 -0.905594
v 0.5022181 -1.0237168 -1.065871
v 0.22171903 -1.106803 -1.1713202
v 0.9095839 -1.5010065 -1.5009401
v -0.41921958 -0.93440884 -0.65812397
v -0.11933923 -0.9969792 -0.9109999
v -0.7836054 -1.0476376 -1.0267754
v -0.32187545 -1.1051297 -1.144328
v -0.9586213 -1.3520236 -1.5954783
v -0.41384527 -0.5272724 -0.32679552
v -0.31611237 -0.55336976 -0.22442526
v -0.23919414 -0.5910918 -0.15189165
v -0.49165237 -0.503318 -0.42021075
v -0.42760426 -0.823338 -0.4558223
v -0.59063053 -0.5349909 -0.48600054
v -0.49484268 -0.8291902 -0.5299854
v -0.5134449 -0.8352275 -0.57396376
v -0.515565 -0.83099234 -0.5583831
v -0.42510298 -0.94656134 -0.6755657
v -0.63430554 -0.8024249 -0.64461607
v -0.7019986 -0.5743807 -0.55269516
v -0.9208991 -0.7065379 -0.68838936
v -0.7050651 -0.79809356 -0.68248206
v -0.46634814 -0.97186196 -0.77330285
v -0.84166133 -0.86151236 -0.7909498
v -0.6071666 -0.99624807 -0.9422696
v -0.7300647 -1.0063125 -0.99388456
v -1.043339 -1.1575913 -1.0190711
v 0.33021697 -0.823338 -0.39777708
v 0.4137159 -0.6361449 -0.4615281
v 0.5320926 -0.64729047 -0.5440373
v 0.41130233 -0.8400947 -0.6657378
v 0.66098624 -0.6325797 -0.66238904
v 0.7236881 -0.69196016 -0.7637291
v 0.56977093 -0.8230207 -0.7638765
v 0.878682 -0.8324187 -0.9119594
v 0.3530643 -0.8513487 -0.47656742
v 0.27719653 -0.9566734 -0.5525328
v 0.5415123 -0.7782939 -0.6709023
v 0.25800437 -1.0400848 -0.7068283
v 0.9008273 -0.84315634 -0.85947526
v 0.45241275 -1.144747 -1.0220807
v 1.0647724 -1.1798623 -1.0953044
vt 0.21695842 0.6848114
vt 0.1590539 0.6992473
vt 0.19976309 0.68957365
vt 0.16588506 0.6376285
vt 0.104271255 0.6519762
vt 0.092941135 0.71327156
vt 0.21695842 0.6650136
vt 0.082569234 0.71696204
vt 0.18755427 0.6351371
vt 0.21695843 0.646329
vt 0.21695845 0.63726974
vt 0.21322009 0.6357031
vt 0.19770227 0.6339703
vt 0.20663466 0.63294333
vt 0.14917485 0.59312534
vt 0.111150324 0.60348845
vt 0.14825487 0.5894325
vt 0.06621387 0.6598054
vt 0.076147005 0.63357097
vt 0.12846152 0.5757671
vt 0.13936311 0.5814242
vt 0.14785069 0.58781004
vt 0.14237481 0.582987
vt 0.14728373 0.58553433
vt 0.08133745 0.59344316
vt 0.09857476 0.5610797
vt 0.08494771 0.5655319
vt 0.09259146 0.55813926
vt 0.08630364 0.5550492
vt 0.026951702 0.6956309
vt 0.035777275 0.7153509
vt 0.045878854 0.7368968
vt 0.021171788 0.6837946
vt 0.050758272 0.63679826
vt 0.018244024 0.67994046
vt 0.028191756 0.6128871
vt 0.03191098 0.6088319
vt 0.025052166 0.6201823
vt 0.06889582 0.6166501
vt 0.015529893 0.6423082
vt 0.014179451 0.6742718
vt 0.0061729294 0.66405
vt 0.041408893 0.59847605
vt 0.062588066 0.60193074
vt 0.053083315 0.58612823
vt 0.056400906 0.58749276
vt 0.055851825 0.5862115
vt 0.054834552 0.5838376
vt 0.6562013 0.5315917
vt 0.6562013 0.5538222
vt 0.7159996 0.5538222
vt 0.74432975 0.5315917
vt 0.74432975 0.5538222
vt 0.74432975 0.5471712
vt 0.74432975 0.5315917
vt 0.74432975 0.5315917
vt 0.74432975 0.5315917
vt 0.6562013 0.50983423
vt 0.74432975 0.52837324
vt 0.6914718 0.50983423
vt 0.74432975 0.5214648
vt 0.7102113 0.50983423
vt 0.74432975 0.50983423
vn 0.71836025 -0.25711456 0.6464137
vn 0.49162441 -0.61617726 0.6153299
vn 0.7169854 -0.29108244 0.6334058
vn 0.6551464 -0.4606229 0.5988403
vn -0.006381808 -0.89345294 0.4491115
vn 0.011752949 -0.84297687 0.53782123
vn 0.7130829 -0.11474064 0.6916266
vn -0.5038363 -0.61095554 0.6106408
vn 0.40972155 0.3697621 0.833909
vn 0.64119256 0.18676643 0.7443054
vn 0.36154303 0.4541182 0.814287
vn 0.14467716 0.51520336 0.8447687
vn 0.14357167 0.51572895 0.8446365
vn 0.14357166 0.51572895 0.8446365
vn 0.36140555 -0.8653786 0.34713954
vn 0.0006436418 -0.9981918 0.060106747
vn -0.12919797 -0.973765 0.1873217
vn -0.50059205 -0.5625229 0.65800875
vn -0.3482058 -0.89697444 0.27237776
vn -0.056925796 -0.9793357 0.1940645
vn -0.10130024 -0.94613683 0.30751148
vn -0.012102503 -0.86635286 0.49928573
vn -0.012102503 -0.86635286 0.49928573
vn -0.060167175 -0.7000045 0.7115993
vn 0.078087665 -0.99305224 0.088031836
vn 0.07622136 -0.92888486 0.3624405
vn 0.011701939 -0.91523534 0.4027497
vn 0.011701939 -0.91523534 0.4027497
vn 0.009619713 -0.88284606 0.46956396
vn -0.7237966 -0.20281588 0.6595333
vn -0.6501574 -0.46567988 0.6003647
vn -0.6576733 -0.66668385 0.3507114
vn -0.6920677 -0.19316934 0.6955055
vn -0.5988546 -0.45872027 0.6564669
vn -0.6190086 -0.31094366 0.72120905
vn -0.67393476 -0.49869707 0.54508084
vn -0.59196436 -0.7325134 0.33615825
vn -0.63471824 -0.3601459 0.6836868
vn -0.56224287 -0.7624567 0.32022288
vn -0.39007467 -0.40737632 0.825764
vn -0.39007467 -0.40737632 0.825764
vn -0.2748359 -0.4285236 0.86071634
vn -0.3478153 -0.8041815 0.48199236
vn -0.3478153 -0.8041815 0.48199236
vn -0.043849237 -0.8106992 0.5838185
vn -0.20648237 -0.82852805 0.5204866
vn 0.07002707 -0.79341733 0.6046363
vn 0.28495213 -0.69924736 0.65563357
vn 0.6551464 -0.4606229 0.5988403
vn 0.57313365 0.023314605 0.81913024
vn 0.6734766 -0.46023393 0.57845837
vn 0.68035173 -0.5288233 0.50741255
vn 0.51590055 -0.63010186 0.5803604
vn 0.44862765 -0.53558844 0.7154566
vn 0.42977104 -0.5055633 0.74813277
vn 0.37652084 -0.44310006 0.8135689
vn 0.768052 -0.5182048 0.3762444
vn 0.36140555 -0.8653786 0.34713954
vn 0.5465946 -0.7152187 0.43554163
vn 0.5027434 -0.7191596 0.47964412
vn 0.21825182 -0.6314514 0.7440668
vn 0.21825182 -0.6314514 0.7440668
vn 0.06800481 -0.5499286 0.8324385
g body002_0
f 3/3/3 2/2/2 1/1/1
f 2/2/2 4/4/4 1/1/1
f 5/5/5 4/4/4 2/2/2
f 6/6/6 5/5/5 2/2/2
f 1/1/1 4/4/4 7/7/7
f 6/6/6 8/8/8 5/5/5
f 4/4/4 9/9/9 7/7/7
f 9/9/9 10/10/10 7/7/7
f 11/11/11 10/10/10 9/9/9
f 12/12/12 11/11/11 9/9/9
f 9/9/9 13/13/13 12/12/12
f 14/14/14 12/12/12 13/13/13
f 4/4/4 5/5/5 15/15/15
f 5/5/5 16/16/16 15/15/15
f 17/17/17 15/15/15 16/16/16
f 8/8/8 18/18/18 5/5/5
f 16/16/16 5/5/5 19/19/19
f 5/5/5 18/18/18 19/19/19
f 17/17/17 16/16/16 20/20/20
f 20/20/20 21/21/21 17/17/17
f 22/22/22 17/17/17 21/21/21
f 23/23/23 22/22/22 21/21/21
f 24/24/24 22/22/22 23/23/23
f 20/20/20 16/16/16 25/25/25
f 16/16/16 19/19/19 25/25/25
f 25/25/25 26/26/26 20/20/20
f 26/26/26 25/25/25 27/27/27
f 28/28/28 26/26/26 27/27/27
f 29/29/29 28/28/28 27/27/27
f 18/18/18 8/8/8 30/30/30
f 8/8/8 31/31/31 30/30/30
f 8/8/8 32/32/32 31/31/31
f 18/18/18 30/30/30 33/33/33
f 34/34/34 18/18/18 33/33/33
f 18/18/18 34/34/34 19/19/19
f 34/34/34 33/33/33 35/35/35
f 19/19/19 34/34/34 36/36/36
f 36/36/36 34/34/34 35/35/35
f 19/19/19 36/36/36 37/37/37
f 35/35/35 38/38/38 36/36/36
f 37/37/37 39/39/39 19/19/19
f 40/40/40 38/38/38 35/35/35
f 41/41/41 40/40/40 35/35/35
f 42/42/42 40/40/40 41/41/41
f 37/37/37 43/43/43 39/39/39
f 43/43/43 44/44/44 39/39/39
f 43/43/43 45/45/45 44/44/44
f 45/45/45 46/46/46 44/44/44
f 46/46/46 45/45/45 47/47/47
f 47/47/47 45/45/45 48/48/48
f 51/51/51 50/50/50 49/49/49
f 52/52/52 51/51/51 49/49/49
f 53/53/53 51/51/51 52/52/52
f 54/54/54 53/53/53 52/52/52
f 52/52/52 55/55/55 54/54/54
f 56/56/56 54/54/54 55/55/55
f 49/49/49 57/57/57 52/52/52
f 57/57/57 49/49/49 58/58/58
f 59/59/59 57/57/57 58/58/58
f 58/58/58 60/60/60 59/59/59
f 61/61/61 59/59/59 60/60/60
f 62/62/62 61/61/61 60/60/60
f 63/63/63 61/61/61 62/62/62
