g Bone
v -0.005853235 -0.22937046 0.038820554
v -0.011059438 0.0035237307 -0.02130835
v -0.005853235 -0.22937046 -0.038820572
v -0.011059438 0.0035237558 0.02130835
v 0.0022880617 0.23641792 -0.049694832
v 0.0022880617 0.23641792 0.04969485
v -0.06432875 0.0035237456 0.02130835
v -0.0695351 -0.22937042 0.038820554
v -0.0695351 -0.22937042 -0.038820572
v -0.06432875 0.0035237744 -0.02130835
v -0.0776761 0.23641793 0.04969485
v -0.0776761 0.23641793 -0.049694832
v -0.005853235 -0.22937046 0.038820554
v -0.0695351 -0.22937042 0.038820554
v -0.06432875 0.0035237456 0.02130835
v -0.011059438 0.0035237558 0.02130835
v -0.0776761 0.23641793 0.04969485
v 0.0022880617 0.23641792 0.04969485
v -0.06432875 0.0035237744 -0.02130835
v 0.0022880617 0.23641792 -0.049694832
v -0.0776761 0.23641793 -0.049694832
v -0.011059438 0.0035237307 -0.02130835
v -0.0695351 -0.22937042 -0.038820572
v -0.005853235 -0.22937046 -0.038820572
v 0.011172721 -0.32524756 -0.053176828
v -0.08656111 -0.32524753 -0.053176828
v -0.08656111 -0.30462196 -1.331545E-08
v 0.011172729 -0.304622 -1.3315451E-08
v 0.011172721 -0.32524756 0.053176798
v -0.08656111 -0.32524753 0.053176798
v -0.1075677 -0.29877684 0.08519
v 0.032179322 -0.2987769 0.08519
v 0.032179497 0.25347325 -0.086847715
v 0.0022880617 0.23641792 0.04969485
v 0.032179497 0.25347325 0.08684773
v 0.0022880617 0.23641792 -0.049694832
v 0.0022880617 0.23641792 -0.049694832
v -0.10756752 0.25347325 -0.086847715
v -0.0776761 0.23641793 -0.049694832
v 0.032179497 0.25347325 -0.086847715
v -0.10756752 0.25347325 0.08684773
v -0.0776761 0.23641793 0.04969485
v -0.0776761 0.23641793 -0.049694832
v -0.10756752 0.25347325 -0.086847715
v -0.10756752 0.25347325 0.08684773
v 0.032179497 0.25347325 0.08684773
v 0.0022880617 0.23641792 0.04969485
v -0.0776761 0.23641793 0.04969485
v 0.032179333 -0.25321463 0.08519
v -0.005853235 -0.22937046 -0.038820572
v 0.032179333 -0.25321463 -0.08519002
v -0.005853235 -0.22937046 0.038820554
v -0.0695351 -0.22937042 0.038820554
v -0.005853235 -0.22937046 0.038820554
v 0.032179333 -0.25321463 0.08519
v -0.10756769 -0.2532146 0.08519
v -0.10756769 -0.2532146 -0.08519002
v -0.0695351 -0.22937042 -0.038820572
v -0.0695351 -0.22937042 0.038820554
v -0.10756769 -0.2532146 0.08519
v 0.032179333 -0.25321463 -0.08519002
v -0.0695351 -0.22937042 -0.038820572
v -0.10756769 -0.2532146 -0.08519002
v -0.005853235 -0.22937046 -0.038820572
v -0.10756751 0.29903555 -0.086847715
v 0.032179497 0.25347325 -0.086847715
v 0.03217951 0.29903552 -0.086847715
v -0.10756752 0.25347325 -0.086847715
v -0.10756751 0.29903555 0.08684773
v 0.03217951 0.29903552 0.08684773
v 0.032179497 0.25347325 0.08684773
v -0.10756752 0.25347325 0.08684773
v -0.10756769 -0.2532146 0.08519
v 0.032179333 -0.25321463 0.08519
v 0.032179322 -0.2987769 0.08519
v -0.1075677 -0.29877684 0.08519
v 0.032179322 -0.2987769 -0.08519002
v 0.032179333 -0.25321463 -0.08519002
v -0.10756769 -0.2532146 -0.08519002
v -0.1075677 -0.29877684 -0.08519002
v 0.011172721 -0.32524756 -0.053176828
v -0.08656111 -0.32524753 -0.053176828
v -0.08656091 0.31990126 -0.05421157
v -0.10756751 0.29903555 -0.086847715
v 0.03217951 0.29903552 -0.086847715
v 0.011172924 0.31990126 -0.05421157
v 0.011172919 0.30311203 1.3249448E-08
v -0.08656093 0.30311203 1.32494495E-08
v -0.08656091 0.31990126 0.0542116
v 0.011172924 0.31990126 0.0542116
v 0.03217951 0.29903552 0.08684773
v -0.10756751 0.29903555 0.08684773
v 0.0321795 0.2822463 1.2337378E-08
v 0.032179497 0.25347325 0.08684773
v 0.03217951 0.29903552 0.08684773
v 0.032179497 0.25347325 -0.086847715
v 0.011172924 0.31990126 0.0542116
v 0.03217951 0.29903552 -0.086847715
v 0.011172919 0.30311203 1.3249448E-08
v 0.011172924 0.31990126 -0.05421157
v 0.032179333 -0.25321463 -0.08519002
v 0.032179322 -0.2987769 -0.08519002
v 0.03217933 -0.2781513 -1.2158379E-08
v 0.032179333 -0.25321463 0.08519
v 0.011172721 -0.32524756 -0.053176828
v 0.032179322 -0.2987769 0.08519
v 0.011172729 -0.304622 -1.3315451E-08
v 0.011172721 -0.32524756 0.053176798
v -0.10756752 0.28224632 1.2337379E-08
v -0.10756752 0.25347325 -0.086847715
v -0.10756751 0.29903555 -0.086847715
v -0.10756752 0.25347325 0.08684773
v -0.08656091 0.31990126 -0.05421157
v -0.10756751 0.29903555 0.08684773
v -0.08656093 0.30311203 1.32494495E-08
v -0.08656091 0.31990126 0.0542116
v -0.10756769 -0.2532146 0.08519
v -0.10756769 -0.27815127 -1.2158378E-08
v -0.10756769 -0.2532146 -0.08519002
v -0.1075677 -0.29877684 0.08519
v -0.1075677 -0.29877684 -0.08519002
v -0.08656111 -0.32524753 0.053176798
v -0.08656111 -0.32524753 -0.053176828
v -0.08656111 -0.30462196 -1.331545E-08
vt 0.8192603 0.21572454
vt 0.8203497 0.2452652
vt 0.8249262 0.21636145
vt 0.8172469 0.24530779
vt 0.82642835 0.2734796
vt 0.81930256 0.27448693
vt 0.8132752 0.24527813
vt 0.81459695 0.21545424
vt 0.8087434 0.21545424
vt 0.81007314 0.24518481
vt 0.8135119 0.27471524
vt 0.8063183 0.27428868
vt 0.8192603 0.21572454
vt 0.81459695 0.21545424
vt 0.8132752 0.24527813
vt 0.8172469 0.24530779
vt 0.8135119 0.27471524
vt 0.81930256 0.27448693
vt 0.81007314 0.24518481
vt 0.80063355 0.27337316
vt 0.8063183 0.27428868
vt 0.80617815 0.24498762
vt 0.8087434 0.21545424
vt 0.80407983 0.21572565
vt 0.73007303 0.13458814
vt 0.7298569 0.14072904
vt 0.7338306 0.1416628
vt 0.7340962 0.13391624
vt 0.7380699 0.1348501
vt 0.73785377 0.14099091
vt 0.7405211 0.1433923
vt 0.74091005 0.13263614
vt 0.69073606 0.12893018
vt 0.67789525 0.124975346
vt 0.6743952 0.12891045
vt 0.6872456 0.124986626
vt 0.7002428 0.13970496
vt 0.69560874 0.14785065
vt 0.6995524 0.14593177
vt 0.6968153 0.1369687
vt 0.6759679 0.15313277
vt 0.6788177 0.15634635
vt 0.68644345 0.15634848
vt 0.68929493 0.15313648
vt 0.66965836 0.1479393
vt 0.6682936 0.1370574
vt 0.6648998 0.13984732
vt 0.6656809 0.146074
vt 0.7403597 0.126956
vt 0.73158437 0.122477025
vt 0.7280374 0.12639798
vt 0.73718 0.12273018
vt 0.75091934 0.14068529
vt 0.7510868 0.13609421
vt 0.74667567 0.13318731
vt 0.74630874 0.14326234
vt 0.7275671 0.14862311
vt 0.73074687 0.15284894
vt 0.73634243 0.15310207
vt 0.7398894 0.14918105
vt 0.72161794 0.13231666
vt 0.7168399 0.13948485
vt 0.72125113 0.14239176
vt 0.71700746 0.13489367
vt 0.6895087 0.14717431
vt 0.6968153 0.1369687
vt 0.6907153 0.13629231
vt 0.69560874 0.14785065
vt 0.67575836 0.1471742
vt 0.6743936 0.13629231
vt 0.6682936 0.1370574
vt 0.66965836 0.1479393
vt 0.74630874 0.14326234
vt 0.74667567 0.13318731
vt 0.74091005 0.13263614
vt 0.7405211 0.1433923
vt 0.7274056 0.13218683
vt 0.72161794 0.13231666
vt 0.72125113 0.14239176
vt 0.72701675 0.14294298
vt 0.73007303 0.13458814
vt 0.7298569 0.14072904
vt 0.6868559 0.14480884
vt 0.6895087 0.14717431
vt 0.6907153 0.13629231
vt 0.68724996 0.13855515
vt 0.6825732 0.13763404
vt 0.68263173 0.14546308
vt 0.6784354 0.14484057
vt 0.6778774 0.13862579
vt 0.6743936 0.13629231
vt 0.67575836 0.1471742
vt 0.6825713 0.13356347
vt 0.6743952 0.12891045
vt 0.6743936 0.13629231
vt 0.69073606 0.12893018
vt 0.6778774 0.13862579
vt 0.6907153 0.13629231
vt 0.6825732 0.13763404
vt 0.68724996 0.13855515
vt 0.7280374 0.12639798
vt 0.7274056 0.13218683
vt 0.7342126 0.12998797
vt 0.7403597 0.126956
vt 0.73007303 0.13458814
vt 0.74091005 0.13263614
vt 0.7340962 0.13391624
vt 0.7380699 0.1348501
vt 0.6826305 0.14909822
vt 0.68929493 0.15313648
vt 0.6895087 0.14717431
vt 0.6759679 0.15313277
vt 0.6868559 0.14480884
vt 0.67575836 0.1471742
vt 0.68263173 0.14546308
vt 0.6784354 0.14484057
vt 0.7398894 0.14918105
vt 0.73371416 0.14559108
vt 0.7275671 0.14862311
vt 0.7405211 0.1433923
vt 0.72701675 0.14294298
vt 0.73785377 0.14099091
vt 0.7298569 0.14072904
vt 0.7338306 0.1416628
vn 0.494529 0.73885053 0.45775652
vn 0.7207322 -0.029718868 -0.6925762
vn 0.494529 0.73885053 -0.45775652
vn 0.7207323 -0.02971899 0.6925761
vn 0.4678228 -0.7721109 -0.43010077
vn 0.4678227 -0.7721109 0.4301007
vn -0.7207323 -0.029718464 0.6925761
vn -0.4945289 0.73885053 0.45775652
vn -0.4945289 0.7388506 -0.45775652
vn -0.7207323 -0.029718474 -0.6925761
vn -0.46782303 -0.7721107 0.4301008
vn -0.46782306 -0.77211076 -0.4301008
vn 0.494529 0.73885053 0.45775652
vn -0.4945289 0.73885053 0.45775652
vn -0.7207323 -0.029718464 0.6925761
vn 0.7207323 -0.02971899 0.6925761
vn -0.46782303 -0.7721107 0.4301008
vn 0.4678227 -0.7721109 0.4301007
vn -0.7207323 -0.029718474 -0.6925761
vn 0.4678228 -0.7721109 -0.43010077
vn -0.46782306 -0.77211076 -0.4301008
vn 0.7207322 -0.029718868 -0.6925762
vn -0.4945289 0.7388506 -0.45775652
vn 0.494529 0.73885053 -0.45775652
vn 0.36902443 -0.9251379 -0.089111336
vn -0.36902493 -0.92513764 -0.089111365
vn -0.5217123 -0.8531215 0
vn 0.52171177 -0.85312176 0
vn 0.36902443 -0.9251379 0.089111306
vn -0.36902493 -0.92513764 0.08911134
vn -0.648427 -0.42194462 0.63364434
vn 0.64842683 -0.42194492 0.6336443
vn 0.6175912 -0.47812498 -0.624482
vn 0.4678227 -0.7721109 0.4301007
vn 0.6175912 -0.47812492 0.624482
vn 0.4678228 -0.7721109 -0.43010077
vn 0.4678228 -0.7721109 -0.43010077
vn -0.61759126 -0.47812474 -0.624482
vn -0.46782306 -0.77211076 -0.4301008
vn 0.6175912 -0.47812498 -0.624482
vn -0.61759126 -0.4781247 0.624482
vn -0.46782303 -0.7721107 0.4301008
vn -0.46782306 -0.77211076 -0.4301008
vn -0.61759126 -0.47812474 -0.624482
vn -0.61759126 -0.4781247 0.624482
vn 0.6175912 -0.47812492 0.624482
vn 0.4678227 -0.7721109 0.4301007
vn -0.46782303 -0.7721107 0.4301008
vn 0.6217087 0.46742737 0.62848234
vn 0.494529 0.73885053 -0.45775652
vn 0.6217087 0.4674274 -0.6284823
vn 0.494529 0.73885053 0.45775652
vn -0.4945289 0.73885053 0.45775652
vn 0.494529 0.73885053 0.45775652
vn 0.6217087 0.46742737 0.62848234
vn -0.6217086 0.46742758 0.6284822
vn -0.6217086 0.4674276 -0.6284822
vn -0.4945289 0.7388506 -0.45775652
vn -0.4945289 0.73885053 0.45775652
vn -0.6217086 0.46742758 0.6284822
vn 0.6217087 0.4674274 -0.6284823
vn -0.4945289 0.7388506 -0.45775652
vn -0.6217086 0.4674276 -0.6284822
vn 0.494529 0.73885053 -0.45775652
vn -0.6338124 0.4553044 -0.6252837
vn 0.6175912 -0.47812498 -0.624482
vn 0.63381255 0.45530418 -0.6252837
vn -0.61759126 -0.47812474 -0.624482
vn -0.6338124 0.45530444 0.62528366
vn 0.6338126 0.45530424 0.6252837
vn 0.6175912 -0.47812492 0.624482
vn -0.61759126 -0.4781247 0.624482
vn -0.6217086 0.46742758 0.6284822
vn 0.6217087 0.46742737 0.62848234
vn 0.64842683 -0.42194492 0.6336443
vn -0.648427 -0.42194462 0.63364434
vn 0.64842683 -0.42194486 -0.6336442
vn 0.6217087 0.4674274 -0.6284823
vn -0.6217086 0.4674276 -0.6284822
vn -0.648427 -0.4219446 -0.63364434
vn 0.36902443 -0.9251379 -0.089111336
vn -0.36902493 -0.92513764 -0.089111365
vn -0.3326791 0.94082505 -0.06459682
vn -0.6338124 0.4553044 -0.6252837
vn 0.63381255 0.45530418 -0.6252837
vn 0.3326795 0.940825 -0.064596795
vn 0.45319793 0.89140993 0
vn -0.4531976 0.8914101 0
vn -0.33267906 0.94082516 0.06459692
vn 0.33267936 0.940825 0.06459688
vn 0.6338126 0.45530424 0.6252837
vn -0.6338124 0.45530444 0.62528366
vn 0.951583 0.30739173 0
vn 0.6175912 -0.47812492 0.624482
vn 0.6338126 0.45530424 0.6252837
vn 0.6175912 -0.47812498 -0.624482
vn 0.33267936 0.940825 0.06459688
vn 0.63381255 0.45530418 -0.6252837
vn 0.45319793 0.89140993 0
vn 0.3326795 0.940825 -0.064596795
vn 0.6217087 0.4674274 -0.6284823
vn 0.64842683 -0.42194486 -0.6336442
vn 0.96802217 -0.2508648 0
vn 0.6217087 0.46742737 0.62848234
vn 0.36902443 -0.9251379 -0.089111336
vn 0.64842683 -0.42194492 0.6336443
vn 0.52171177 -0.85312176 0
vn 0.36902443 -0.9251379 0.089111306
vn -0.9515829 0.30739212 0
vn -0.61759126 -0.47812474 -0.624482
vn -0.6338124 0.4553044 -0.6252837
vn -0.61759126 -0.4781247 0.624482
vn -0.3326791 0.94082505 -0.06459682
vn -0.6338124 0.45530444 0.62528366
vn -0.4531976 0.8914101 0
vn -0.33267906 0.94082516 0.06459692
vn -0.6217086 0.46742758 0.6284822
vn -0.9680223 -0.25086436 0
vn -0.6217086 0.4674276 -0.6284822
vn -0.648427 -0.42194462 0.63364434
vn -0.648427 -0.4219446 -0.63364434
vn -0.36902493 -0.92513764 0.08911134
vn -0.36902493 -0.92513764 -0.089111365
vn -0.5217123 -0.8531215 0
g Bone_0
f 3/3/3 2/2/2 1/1/1
f 1/1/1 2/2/2 4/4/4
f 4/4/4 2/2/2 5/5/5
f 5/5/5 6/6/6 4/4/4
f 9/9/9 8/8/8 7/7/7
f 7/7/7 10/10/10 9/9/9
f 10/10/10 7/7/7 11/11/11
f 11/11/11 12/12/12 10/10/10
f 15/15/15 14/14/14 13/13/13
f 13/13/13 16/16/16 15/15/15
f 17/17/17 15/15/15 16/16/16
f 16/16/16 18/18/18 17/17/17
f 21/21/21 20/20/20 19/19/19
f 22/22/22 19/19/19 20/20/20
f 19/19/19 22/22/22 23/23/23
f 24/24/24 23/23/23 22/22/22
f 27/27/27 26/26/26 25/25/25
f 25/25/25 28/28/28 27/27/27
f 27/27/27 28/28/28 29/29/29
f 29/29/29 30/30/30 27/27/27
f 31/31/31 30/30/30 29/29/29
f 31/31/31 29/29/29 32/32/32
f 35/35/35 34/34/34 33/33/33
f 34/34/34 36/36/36 33/33/33
f 39/39/39 38/38/38 37/37/37
f 38/38/38 40/40/40 37/37/37
f 43/43/43 42/42/42 41/41/41
f 44/44/44 43/43/43 41/41/41
f 47/47/47 46/46/46 45/45/45
f 45/45/45 48/48/48 47/47/47
f 51/51/51 50/50/50 49/49/49
f 50/50/50 52/52/52 49/49/49
f 55/55/55 54/54/54 53/53/53
f 53/53/53 56/56/56 55/55/55
f 59/59/59 58/58/58 57/57/57
f 60/60/60 59/59/59 57/57/57
f 63/63/63 62/62/62 61/61/61
f 62/62/62 64/64/64 61/61/61
f 67/67/67 66/66/66 65/65/65
f 66/66/66 68/68/68 65/65/65
f 71/71/71 70/70/70 69/69/69
f 69/69/69 72/72/72 71/71/71
f 75/75/75 74/74/74 73/73/73
f 73/73/73 76/76/76 75/75/75
f 79/79/79 78/78/78 77/77/77
f 77/77/77 80/80/80 79/79/79
f 80/80/80 77/77/77 81/81/81
f 81/81/81 82/82/82 80/80/80
f 85/85/85 84/84/84 83/83/83
f 83/83/83 86/86/86 85/85/85
f 87/87/87 86/86/86 83/83/83
f 83/83/83 88/88/88 87/87/87
f 87/87/87 88/88/88 89/89/89
f 89/89/89 90/90/90 87/87/87
f 91/91/91 90/90/90 89/89/89
f 91/91/91 89/89/89 92/92/92
f 95/95/95 94/94/94 93/93/93
f 96/96/96 93/93/93 94/94/94
f 95/95/95 93/93/93 97/97/97
f 98/98/98 93/93/93 96/96/96
f 97/97/97 93/93/93 99/99/99
f 98/98/98 100/100/100 93/93/93
f 99/99/99 93/93/93 100/100/100
f 103/103/103 102/102/102 101/101/101
f 104/104/104 103/103/103 101/101/101
f 103/103/103 105/105/105 102/102/102
f 106/106/106 103/103/103 104/104/104
f 103/103/103 107/107/107 105/105/105
f 103/103/103 106/106/106 108/108/108
f 108/108/108 107/107/107 103/103/103
f 111/111/111 110/110/110 109/109/109
f 112/112/112 109/109/109 110/110/110
f 111/111/111 109/109/109 113/113/113
f 114/114/114 109/109/109 112/112/112
f 113/113/113 109/109/109 115/115/115
f 114/114/114 116/116/116 109/109/109
f 115/115/115 109/109/109 116/116/116
f 119/119/119 118/118/118 117/117/117
f 118/118/118 120/120/120 117/117/117
f 121/121/121 118/118/118 119/119/119
f 118/118/118 122/122/122 120/120/120
f 118/118/118 121/121/121 123/123/123
f 118/118/118 124/124/124 122/122/122
f 123/123/123 124/124/124 118/118/118
