g Book_06
v 0.13873674 0.09634295 -0.09980078
v -0.13873674 0.09634279 -0.09980009
v -0.13873674 0.082812935 -0.09193961
v 0.13873674 0.09634295 -0.09980078
v -0.13873674 0.082812935 -0.09193961
v 0.13873674 0.08281309 -0.11340206
v -0.13873672 0.04765892 -3.4570694E-06
v -0.13873674 0.08964244 -0.0009617787
v -0.13873674 0.017917909 0.0035635754
v -0.13873677 0.12397716 0.0362214
v -0.13873674 0.017917909 0.0035635754
v -0.13873675 0.12404068 0.037329223
v -0.13873674 0.017917909 0.0035635754
v -0.13873675 0.16074614 0.0910665
v -0.13873675 0.16718383 0.0814653
v -0.13873674 0.07339704 -0.04437183
v -0.13873672 0.04765892 -3.4570694E-06
v -0.13873674 0.09634279 -0.09980009
v -0.13873674 0.082812935 -0.09193961
v -0.13873674 0.060797404 -0.15446697
v -0.13873674 0.0720403 -0.15177915
v 0.13873674 0.08964185 -0.00096219406
v 0.13873672 0.04765892 -4.172325E-06
v 0.13873674 0.017917559 0.003562957
v 0.13873674 0.123976536 0.03622101
v 0.13873674 0.017917559 0.003562957
v 0.13873675 0.12404013 0.037328828
v 0.13873674 0.017917559 0.003562957
v 0.13873675 0.1607487 0.09106824
v 0.13873675 0.16718327 0.08146491
v 0.13873674 0.0733972 -0.044372514
v 0.13873672 0.04765892 -4.172325E-06
v 0.13873674 0.09634295 -0.09980078
v 0.13873674 0.08281309 -0.11340206
v 0.13873674 0.060797565 -0.15446767
v 0.13873674 0.07204047 -0.15177985
v 0.13873674 0.060797565 -0.15446767
v 0.13873674 0.07204047 -0.15177985
v -0.13873674 0.0720403 -0.15177915
v -0.13873674 0.060797404 -0.15446697
v 0.13873672 0.04765892 -4.172325E-06
v -0.13873672 0.04765892 -3.4570694E-06
v -0.13873674 0.07339704 -0.04437183
v 0.13873674 0.0733972 -0.044372514
v -0.13873674 0.09634279 -0.09980009
v 0.13873674 0.09634295 -0.09980078
v 0.13873674 0.08281309 -0.11340206
v -0.13873674 0.082812935 -0.09193961
v -0.13873674 0.083564684 -0.11999972
v 0.13873674 0.08356487 -0.12000042
v -0.13873674 0.09137234 -0.14452365
v 0.13873674 0.091372505 -0.14452434
v -0.13873674 0.0720403 -0.15177915
v 0.13873674 0.07204047 -0.15177985
v 0.13873674 0.08281309 -0.11340206
v -0.13873674 0.082812935 -0.09193961
v 0.13873674 0.060797565 -0.15446767
v -0.13873674 0.060797404 -0.15446697
v 0.13873674 0.017917559 0.003562957
v -0.13873674 0.017917909 0.0035635754
v -0.13873674 0.017917909 0.0035635754
v -0.13873675 0.16074614 0.0910665
v 0.13873674 0.017917559 0.003562957
v 0.13873675 0.1607487 0.09106824
v -0.13873674 0.08964244 -0.0009617787
v -0.13873672 0.04765892 -3.4570694E-06
v 0.13873672 0.04765892 -4.172325E-06
v 0.13873674 0.08964185 -0.00096219406
v -0.13873677 0.12397716 0.0362214
v 0.13873674 0.123976536 0.03622101
v -0.13873675 0.12404068 0.037329223
v 0.13873675 0.12404013 0.037328828
v -0.13873677 0.12927093 0.050297566
v -0.13873675 0.12404068 0.037329223
v 0.13873675 0.12404013 0.037328828
v 0.13873675 0.12927036 0.05029715
v -0.13873677 0.15164432 0.06302202
v 0.13873675 0.15164375 0.06302168
v -0.13873675 0.16718383 0.0814653
v 0.13873675 0.16718327 0.08146491
v 0.13873675 0.1607487 0.09106824
v -0.13873675 0.16074614 0.0910665
v 0.13873675 0.12404013 0.037328828
v 0.13873675 0.16718327 0.08146491
v -0.13873675 0.16718383 0.0814653
v -0.13873675 0.12404068 0.037329223
vt 0.6437829 0.9955389
vt 0.6437829 0.87469167
vt 0.61839575 0.87469167
vt 0.6437829 0.9955389
vt 0.61839575 0.87469167
vt 0.61839575 0.9955383
vt 0.69363785 0.86491853
vt 0.7192451 0.874692
vt 0.69363785 0.8441623
vt 0.74325335 0.87129253
vt 0.69363785 0.8441623
vt 0.7658999 0.85982007
vt 0.69363785 0.8441623
vt 0.79015744 0.8441623
vt 0.79015744 0.8491965
vt 0.66803056 0.874692
vt 0.69363785 0.86491853
vt 0.6440224 0.87129253
vt 0.62137604 0.85982007
vt 0.59711814 0.8441623
vt 0.59711814 0.8491965
vt 0.7192451 0.874692
vt 0.69363785 0.86491853
vt 0.69363785 0.8441623
vt 0.74325335 0.87129253
vt 0.69363785 0.8441623
vt 0.7658999 0.85982007
vt 0.69363785 0.8441623
vt 0.79015744 0.8441623
vt 0.79015744 0.8491965
vt 0.66803056 0.874692
vt 0.69363785 0.86491853
vt 0.6440224 0.87129253
vt 0.62137604 0.85982007
vt 0.59711814 0.8441623
vt 0.59711814 0.8491965
vt 0.5505564 0.9952553
vt 0.5555911 0.9952553
vt 0.5555911 0.8744077
vt 0.5505564 0.8744077
vt 0.6954401 0.99553937
vt 0.6954401 0.87469167
vt 0.66803056 0.87469167
vt 0.66803056 0.9955389
vt 0.6437829 0.87469167
vt 0.6437829 0.9955389
vt 0.61839575 0.9955383
vt 0.61839575 0.87469167
vt 0.6061697 0.87469167
vt 0.6061697 0.9955383
vt 0.59496087 0.87469167
vt 0.594961 0.9955383
vt 0.5555911 0.8744077
vt 0.5555911 0.9952553
vt 0.58207285 0.9952546
vt 0.58207285 0.8744077
vt 0.53591394 0.99385387
vt 0.53591394 0.87643987
vt 0.44213617 0.99385387
vt 0.44213617 0.87643987
vt 0.44213617 0.87643987
vt 0.34835812 0.87643987
vt 0.44213617 0.99385387
vt 0.34835812 0.99385387
vt 0.72284967 0.87469
vt 0.6954401 0.87469167
vt 0.6954401 0.99553937
vt 0.72284967 0.9955403
vt 0.747098 0.87469
vt 0.747098 0.9955403
vt 0.772486 0.8746897
vt 0.772486 0.9955409
vt 0.78471226 0.8746897
vt 0.772486 0.8746897
vt 0.772486 0.9955409
vt 0.78471226 0.9955403
vt 0.79592186 0.8746897
vt 0.79592174 0.9955403
vt 0.5555911 0.8744077
vt 0.5555911 0.9952553
vt 0.5505564 0.9952553
vt 0.5505564 0.8744077
vt 0.58207285 0.9952546
vt 0.5555911 0.9952553
vt 0.5555911 0.8744077
vt 0.58207285 0.8744077
vn -0 0.9539124 -0.3000854
vn -0 0.9539124 -0.3000854
vn -0 0.9432887 -0.33197343
vn -0 0.9539124 -0.3000854
vn -0 0.9432887 -0.33197343
vn -0 0.9432887 -0.33197343
vn -1 0 0
vn -1 0 0
vn -1 0 0
vn -1 0 0
vn -1 0 0
vn -1 0 0
vn -1 0 0
vn -1 0 0
vn -1 0 0
vn -1 0 0
vn -1 0 0
vn -1 0 0
vn -1 0 0
vn -1 0 0
vn -1 0 0
vn 1 0 0
vn 1 0 0
vn 1 0 0
vn 1 0 0
vn 1 0 0
vn 1 0 0
vn 1 0 0
vn 1 0 0
vn 1 0 0
vn 1 0 0
vn 1 0 0
vn 1 0 0
vn 1 0 0
vn 1 0 0
vn 1 0 0
vn -0 0 -1
vn -0 0 -1
vn -0 0 -1
vn -0 0 -1
vn -0 0.9342643 0.3565813
vn -0 0.9342643 0.3565813
vn -0 0.99373734 0.11174113
vn -0 0.99373734 0.11174113
vn -0 0.9539124 -0.3000854
vn -0 0.9539124 -0.3000854
vn -0 0.9432887 -0.33197343
vn -0 0.9432887 -0.33197343
vn -0 0.99774534 -0.06711262
vn -0 0.99774534 -0.06711262
vn -0 0.99729604 0.07348911
vn -0 0.99729604 0.07348911
vn -0 0.9160075 -0.4011611
vn -0 0.9160075 -0.4011611
vn -0 0.9160075 -0.4011611
vn -0 0.9160075 -0.4011611
vn -0 -1 0
vn -0 -1 0
vn -0 -1 0
vn -0 -1 0
vn -0 -1 0
vn -0 -1 0
vn -0 -1 0
vn -0 -1 0
vn -0 0.9937377 -0.11173814
vn -0 0.9342682 -0.35657123
vn -0 0.9342682 -0.35657123
vn -0 0.9937377 -0.11173814
vn -0 0.9539108 0.30009013
vn -0 0.9539108 0.30009013
vn -0 0.9432886 0.33197382
vn -0 0.9432886 0.33197382
vn -0 0.9977457 0.06710834
vn -0 0.9432886 0.33197382
vn -0 0.9432886 0.33197382
vn -0 0.9977457 0.06710834
vn -0 0.9972964 -0.073483676
vn -0 0.9972964 -0.073483676
vn -0 0.00016499948 1
vn -0 0.00016499948 1
vn -0 0.00016499948 1
vn -0 0.00016499948 1
vn -0 0.9160126 0.40114957
vn -0 0.9160126 0.40114957
vn -0 0.9160126 0.40114957
vn -0 0.9160126 0.40114957
g Book_06_0
f 3/3/3 2/2/2 1/1/1
f 6/6/6 5/5/5 4/4/4
f 9/9/9 8/8/8 7/7/7
f 11/11/11 10/10/10 8/8/8
f 13/13/13 12/12/12 10/10/10
f 11/11/11 14/14/14 12/12/12
f 15/15/15 12/12/12 14/14/14
f 11/11/11 17/17/17 16/16/16
f 11/11/11 16/16/16 18/18/18
f 11/11/11 18/18/18 19/19/19
f 11/11/11 19/19/19 20/20/20
f 21/21/21 20/20/20 19/19/19
f 24/24/24 23/23/23 22/22/22
f 26/26/26 22/22/22 25/25/25
f 28/28/28 25/25/25 27/27/27
f 26/26/26 27/27/27 29/29/29
f 30/30/30 29/29/29 27/27/27
f 32/32/32 26/26/26 31/31/31
f 26/26/26 33/33/33 31/31/31
f 26/26/26 34/34/34 33/33/33
f 26/26/26 35/35/35 34/34/34
f 36/36/36 34/34/34 35/35/35
f 39/39/39 38/38/38 37/37/37
f 40/40/40 39/39/39 37/37/37
f 43/43/43 42/42/42 41/41/41
f 44/44/44 43/43/43 41/41/41
f 45/45/45 43/43/43 44/44/44
f 46/46/46 45/45/45 44/44/44
f 49/49/49 48/48/48 47/47/47
f 50/50/50 49/49/49 47/47/47
f 51/51/51 49/49/49 50/50/50
f 52/52/52 51/51/51 50/50/50
f 55/55/55 54/54/54 53/53/53
f 56/56/56 55/55/55 53/53/53
f 59/59/59 58/58/58 57/57/57
f 58/58/58 59/59/59 60/60/60
f 63/63/63 62/62/62 61/61/61
f 62/62/62 63/63/63 64/64/64
f 67/67/67 66/66/66 65/65/65
f 68/68/68 67/67/67 65/65/65
f 68/68/68 65/65/65 69/69/69
f 70/70/70 68/68/68 69/69/69
f 70/70/70 69/69/69 71/71/71
f 72/72/72 70/70/70 71/71/71
f 75/75/75 74/74/74 73/73/73
f 76/76/76 75/75/75 73/73/73
f 76/76/76 73/73/73 77/77/77
f 78/78/78 76/76/76 77/77/77
f 81/81/81 80/80/80 79/79/79
f 82/82/82 81/81/81 79/79/79
f 85/85/85 84/84/84 83/83/83
f 86/86/86 85/85/85 83/83/83
