g Box001
v 0.08679224 0.08227465 0.06700092
v 0.05064766 0.08227465 0.06700092
v 0.07765125 0.06370317 0.03575313
v 0.07765125 0.06370317 0.03575313
v 0.05064766 0.058539648 0.06700091
v 0.08679224 0.058539648 0.06700091
v 0.07765125 0.06370317 0.03575313
v 0.05064766 0.08227465 0.06700092
v 0.05064766 0.058539648 0.06700091
v 0.08679224 0.08227465 0.06700092
v 0.07765125 0.06370317 0.03575313
v 0.08679224 0.058539648 0.06700091
v 0.08679223 -0.080315016 0.06700091
v 0.07765125 -0.061743524 0.035753127
v 0.050647657 -0.080314994 0.06700091
v 0.07765125 -0.061743524 0.035753127
v 0.08679223 -0.056580007 0.06700091
v 0.050647657 -0.05658 0.06700091
v 0.07765125 -0.061743524 0.035753127
v 0.050647657 -0.05658 0.06700091
v 0.050647657 -0.080314994 0.06700091
v 0.08679223 -0.080315016 0.06700091
v 0.08679223 -0.056580007 0.06700091
v 0.07765125 -0.061743524 0.035753127
v -0.086279474 -0.080314994 0.06700091
v -0.0501349 -0.080314994 0.06700091
v -0.07713849 -0.06174351 0.035753127
v -0.07713849 -0.06174351 0.035753127
v -0.0501349 -0.056579992 0.06700091
v -0.08627947 -0.05657999 0.06700091
v -0.07713849 -0.06174351 0.035753127
v -0.0501349 -0.080314994 0.06700091
v -0.0501349 -0.056579992 0.06700091
v -0.086279474 -0.080314994 0.06700091
v -0.07713849 -0.06174351 0.035753127
v -0.08627947 -0.05657999 0.06700091
v -0.08627947 0.08227465 0.06700092
v -0.07713848 0.06370317 0.03575313
v -0.050134897 0.08227465 0.06700092
v -0.07713848 0.06370317 0.03575313
v -0.08627947 0.058539648 0.06700091
v -0.050134897 0.058539648 0.06700091
v -0.07713848 0.06370317 0.03575313
v -0.050134897 0.058539648 0.06700091
v -0.050134897 0.08227465 0.06700092
v -0.08627947 0.08227465 0.06700092
v -0.08627947 0.058539648 0.06700091
v -0.07713848 0.06370317 0.03575313
v -0.08685173 -0.08244398 0.066377394
v 0.08685173 -0.08244398 0.066377394
v 0.08685173 0.08244398 0.066377394
v -0.08685173 0.08244398 0.066377394
v -0.110154904 -0.10843373 0.27538726
v -0.110154904 0.10843373 0.27538726
v 0.110154904 0.10843373 0.27538726
v 0.110154904 -0.10843373 0.27538726
v -0.08685173 -0.08244398 0.066377394
v -0.110154904 -0.10843373 0.27538726
v 0.110154904 -0.10843373 0.27538726
v 0.08685173 -0.08244398 0.066377394
v 0.110154904 0.10843373 0.27538726
v 0.08685173 0.08244398 0.066377394
v -0.110154904 0.10843373 0.27538726
v -0.08685173 0.08244398 0.066377394
v -0.110154904 -0.10843373 0.27538726
v -0.08685173 -0.08244398 0.066377394
v 0.10873543 0.106522374 0.27695322
v 0.08389478 0.10652237 0.36583862
v 0.08389478 0.106522374 0.27695322
v 0.12562521 0.10652237 0.36676085
v 0.08389478 0.10652235 0.47541946
v 0.14615831 0.10652235 0.47594106
v 0.08389478 0.10652232 0.6386649
v 0.15691786 0.10652232 0.64052147
v 0.10177396 0.1065223 0.7767741
v 0.1106365 0.1065223 0.7859748
v 0.10873543 0.08461548 0.27695322
v 0.08389478 0.08461548 0.27695322
v 0.08389478 0.084615454 0.36583865
v 0.1256252 0.084615454 0.36676085
v 0.08389478 0.08461544 0.47541946
v 0.14615831 0.08461544 0.47594106
v 0.08389478 0.08461541 0.6386649
v 0.15691786 0.08461541 0.64052147
v 0.10177396 0.08461538 0.7767741
v 0.1106365 0.084615394 0.7859748
v 0.08389478 0.08461548 0.27695322
v 0.08389478 0.106522374 0.27695322
v 0.08389478 0.10652237 0.36583862
v 0.08389478 0.084615454 0.36583865
v 0.08389478 0.10652235 0.47541946
v 0.08389478 0.08461544 0.47541946
v 0.08389478 0.10652232 0.6386649
v 0.08389478 0.08461541 0.6386649
v 0.10177396 0.1065223 0.7767741
v 0.10177396 0.08461538 0.7767741
v 0.10177396 0.1065223 0.7767741
v 0.1106365 0.1065223 0.7859748
v 0.1106365 0.084615394 0.7859748
v 0.10177396 0.08461538 0.7767741
v 0.1106365 0.084615394 0.7859748
v 0.1106365 0.1065223 0.7859748
v 0.15691786 0.10652232 0.64052147
v 0.15691786 0.08461541 0.64052147
v 0.14615831 0.10652235 0.47594106
v 0.14615831 0.08461544 0.47594106
v 0.12562521 0.10652237 0.36676085
v 0.1256252 0.084615454 0.36676085
v 0.10873543 0.106522374 0.27695322
v 0.10873543 0.08461548 0.27695322
v -0.11082706 0.106522374 0.27695322
v -0.08598642 0.106522374 0.27695322
v -0.08598642 0.10652237 0.36583862
v -0.12771684 0.10652237 0.36676085
v -0.08598642 0.10652235 0.47541946
v -0.14824995 0.10652235 0.47594106
v -0.08598642 0.10652232 0.6386649
v -0.15900949 0.10652232 0.64052147
v -0.1038656 0.1065223 0.7767741
v -0.112728134 0.1065223 0.7859748
v -0.11082706 0.08461548 0.27695322
v -0.08598642 0.084615454 0.36583865
v -0.08598642 0.08461548 0.27695322
v -0.12771684 0.084615454 0.36676085
v -0.08598642 0.08461544 0.47541946
v -0.14824995 0.08461544 0.47594106
v -0.08598642 0.08461541 0.6386649
v -0.15900949 0.08461541 0.64052147
v -0.1038656 0.08461538 0.7767741
v -0.112728134 0.084615394 0.7859748
v -0.08598642 0.10652237 0.36583862
v -0.08598642 0.106522374 0.27695322
v -0.08598642 0.08461548 0.27695322
v -0.08598642 0.084615454 0.36583865
v -0.08598642 0.10652235 0.47541946
v -0.08598642 0.08461544 0.47541946
v -0.08598642 0.10652232 0.6386649
v -0.08598642 0.08461541 0.6386649
v -0.1038656 0.1065223 0.7767741
v -0.1038656 0.08461538 0.7767741
v -0.1038656 0.1065223 0.7767741
v -0.1038656 0.08461538 0.7767741
v -0.112728134 0.084615394 0.7859748
v -0.112728134 0.1065223 0.7859748
v -0.15900949 0.10652232 0.64052147
v -0.112728134 0.1065223 0.7859748
v -0.112728134 0.084615394 0.7859748
v -0.15900949 0.08461541 0.64052147
v -0.14824995 0.10652235 0.47594106
v -0.14824995 0.08461544 0.47594106
v -0.12771684 0.10652237 0.36676085
v -0.12771684 0.084615454 0.36676085
v -0.11082706 0.106522374 0.27695322
v -0.11082706 0.08461548 0.27695322
vt 0.38233292 0.9911846
vt 0.20050381 0.9911846
vt 0.2914184 0.87426674
vt 0.2914184 0.87426674
vt 0.38233292 0.9911846
vt 0.20050381 0.9911846
vt 0.20050381 0.93272567
vt 0.38233292 0.87426674
vt 0.38233292 0.9911846
vt 0.20050381 0.87426674
vt 0.38233292 0.93272567
vt 0.20050381 0.9911846
vt 0.38233292 0.9911846
vt 0.2914184 0.87426674
vt 0.20050381 0.9911846
vt 0.2914184 0.87426674
vt 0.20050381 0.9911846
vt 0.38233292 0.9911846
vt 0.20050381 0.93272567
vt 0.38233292 0.9911846
vt 0.38233292 0.87426674
vt 0.20050381 0.87426674
vt 0.20050381 0.9911846
vt 0.38233292 0.93272567
vt 0.38233292 0.9911846
vt 0.20050381 0.9911846
vt 0.2914184 0.87426674
vt 0.2914184 0.87426674
vt 0.38233292 0.9911846
vt 0.20050381 0.9911846
vt 0.20050381 0.93272567
vt 0.38233292 0.87426674
vt 0.38233292 0.9911846
vt 0.20050381 0.87426674
vt 0.38233292 0.93272567
vt 0.20050381 0.9911846
vt 0.38233292 0.9911846
vt 0.2914184 0.87426674
vt 0.20050381 0.9911846
vt 0.2914184 0.87426674
vt 0.20050381 0.9911846
vt 0.38233292 0.9911846
vt 0.20050381 0.93272567
vt 0.38233292 0.9911846
vt 0.38233292 0.87426674
vt 0.20050381 0.87426674
vt 0.20050381 0.9911846
vt 0.38233292 0.93272567
vt 0.021822087 0.9916984
vt 0.19829291 0.9916984
vt 0.19829291 0.8698141
vt 0.021822087 0.8698141
vt 0.021822087 0.8698141
vt 0.021822087 0.9916984
vt 0.19829291 0.9916984
vt 0.19829291 0.8698141
vt 0.01977235 0.22545426
vt 0.01977235 0.747288
vt 0.101932645 0.747288
vt 0.101932645 0.22545426
vt 0.19753426 0.747288
vt 0.19753426 0.22545426
vt 0.7736719 0.747288
vt 0.7736719 0.22545426
vt 0.96348536 0.747288
vt 0.96348536 0.22545426
vt 0.7597747 0.87440485
vt 0.38972345 0.89386743
vt 0.38972345 0.87440485
vt 0.7597747 0.8940694
vt 0.38972345 0.9178615
vt 0.7597747 0.9179757
vt 0.38972345 0.95360607
vt 0.7597747 0.9540126
vt 0.38972345 0.98952776
vt 0.7597747 0.98952776
vt 0.38972345 0.87440485
vt 0.7597747 0.87440485
vt 0.7597747 0.89386743
vt 0.38972345 0.8940694
vt 0.7597747 0.9178615
vt 0.38972345 0.9179757
vt 0.7597747 0.95360607
vt 0.38972345 0.9540126
vt 0.7597747 0.98952776
vt 0.38972345 0.98952776
vt 0.38972345 0.98952776
vt 0.38972345 0.87440485
vt 0.45228383 0.87440485
vt 0.45228383 0.98952776
vt 0.5294104 0.87440485
vt 0.5294104 0.98952776
vt 0.6443079 0.87440485
vt 0.6443079 0.98952776
vt 0.7597747 0.87440485
vt 0.7597747 0.98952776
vt 0.81234753 0.87440485
vt 0.7597747 0.87440485
vt 0.7597747 0.9880349
vt 0.81234753 0.9880349
vt 0.38972345 0.98952776
vt 0.38972345 0.87440485
vt 0.5038836 0.87440485
vt 0.5038836 0.98952776
vt 0.6197206 0.87440485
vt 0.6197206 0.98952776
vt 0.69656515 0.87440485
vt 0.69656515 0.98952776
vt 0.7597747 0.87440485
vt 0.7597747 0.98952776
vt 0.7597747 0.87440485
vt 0.38972345 0.87440485
vt 0.38972345 0.89386743
vt 0.7597747 0.8940694
vt 0.38972345 0.9178615
vt 0.7597747 0.9179757
vt 0.38972345 0.95360607
vt 0.7597747 0.9540126
vt 0.38972345 0.98952776
vt 0.7597747 0.98952776
vt 0.38972345 0.87440485
vt 0.7597747 0.89386743
vt 0.7597747 0.87440485
vt 0.38972345 0.8940694
vt 0.7597747 0.9178615
vt 0.38972345 0.9179757
vt 0.7597747 0.95360607
vt 0.38972345 0.9540126
vt 0.7597747 0.98952776
vt 0.38972345 0.98952776
vt 0.45228383 0.87440485
vt 0.38972345 0.87440485
vt 0.38972345 0.98952776
vt 0.45228383 0.98952776
vt 0.5294104 0.87440485
vt 0.5294104 0.98952776
vt 0.6443079 0.87440485
vt 0.6443079 0.98952776
vt 0.7597747 0.87440485
vt 0.7597747 0.98952776
vt 0.86480093 0.87440485
vt 0.86480093 0.98952776
vt 0.8137267 0.98952776
vt 0.8137267 0.87440485
vt 0.5038836 0.87440485
vt 0.38972345 0.87440485
vt 0.38972345 0.98952776
vt 0.5038836 0.98952776
vt 0.6197206 0.87440485
vt 0.6197206 0.98952776
vt 0.69656515 0.87440485
vt 0.69656515 0.98952776
vt 0.7597747 0.87440485
vt 0.7597747 0.98952776
vn 0.6346691 0.5684495 -0.52350765
vn -0.46320784 0.5262742 -0.71307355
vn 0.1199232 0.50744534 -0.85329807
vn 0.13636331 -0.6622458 -0.7367738
vn -0.50859016 -0.66319275 -0.54910046
vn 0.6636454 -0.6822069 -0.30686873
vn 0.12491856 -0.078081734 -0.9890898
vn -0.46320784 0.5262742 -0.71307355
vn -0.50859016 -0.66319275 -0.54910046
vn 0.6346691 0.5684495 -0.52350765
vn 0.12491856 -0.078081734 -0.9890898
vn 0.6636454 -0.6822069 -0.30686873
vn 0.6346692 -0.56844956 -0.52350754
vn 0.11992321 -0.5074454 -0.85329807
vn -0.46320787 -0.5262742 -0.7130736
vn 0.13636334 0.6622459 -0.73677367
vn 0.6636455 0.68220705 -0.30686852
vn -0.5085902 0.6631928 -0.5491004
vn 0.124918565 0.07808175 -0.9890898
vn -0.5085902 0.6631928 -0.5491004
vn -0.46320787 -0.5262742 -0.7130736
vn 0.6346692 -0.56844956 -0.52350754
vn 0.6636455 0.68220705 -0.30686852
vn 0.124918565 0.07808175 -0.9890898
vn -0.6346692 -0.56844956 -0.5235075
vn 0.46320787 -0.5262742 -0.7130736
vn -0.11992321 -0.5074454 -0.85329807
vn -0.13636334 0.6622459 -0.73677367
vn 0.5085902 0.6631928 -0.54910034
vn -0.6636455 0.68220705 -0.30686846
vn -0.124918565 0.078081794 -0.9890898
vn 0.46320787 -0.5262742 -0.7130736
vn 0.5085902 0.6631928 -0.54910034
vn -0.6346692 -0.56844956 -0.5235075
vn -0.124918565 0.078081794 -0.9890898
vn -0.6636455 0.68220705 -0.30686846
vn -0.6346692 0.56844956 -0.5235075
vn -0.11992323 0.5074454 -0.85329807
vn 0.4632079 0.52627426 -0.7130735
vn -0.13636333 -0.6622458 -0.7367737
vn -0.6636455 -0.68220705 -0.30686864
vn 0.50859016 -0.66319275 -0.54910046
vn -0.124918565 -0.07808175 -0.9890898
vn 0.50859016 -0.66319275 -0.54910046
vn 0.4632079 0.52627426 -0.7130735
vn -0.6346692 0.56844956 -0.5235075
vn -0.6636455 -0.68220705 -0.30686864
vn -0.124918565 -0.07808175 -0.9890898
vn -0.5315535 -0.5307595 -0.66011
vn 0.5315535 -0.5307595 -0.66011
vn 0.5315535 0.5307595 -0.66011
vn -0.5315535 0.5307595 -0.66011
vn -0.6212799 -0.62035185 0.4787221
vn -0.6212799 0.62035185 0.4787221
vn 0.6212799 0.62035185 0.4787221
vn 0.6212799 -0.62035185 0.4787221
vn -0.5315535 -0.5307595 -0.66011
vn -0.6212799 -0.62035185 0.4787221
vn 0.6212799 -0.62035185 0.4787221
vn 0.5315535 -0.5307595 -0.66011
vn 0.6212799 0.62035185 0.4787221
vn 0.5315535 0.5307595 -0.66011
vn -0.6212799 0.62035185 0.4787221
vn -0.5315535 0.5307595 -0.66011
vn -0.6212799 -0.62035185 0.4787221
vn -0.5315535 -0.5307595 -0.66011
vn 0.6949242 0.7071068 -0.13069172
vn -0.70710677 0.70710677 0
vn -0.70710677 0.70710677 0
vn 0.6949242 0.7071068 -0.13069168
vn -0.70710677 0.70710677 0
vn 0.7008991 0.7077497 -0.08849067
vn -0.7049105 0.70783937 0.045438267
vn 0.69572663 0.7132752 0.0848698
vn -0.7976207 0.4659158 0.3830453
vn 0.16260606 0.69875836 0.69663185
vn 0.6949241 -0.70710677 -0.13069186
vn -0.70710677 -0.70710677 0
vn -0.70710677 -0.70710677 0
vn 0.6949241 -0.70710677 -0.13069187
vn -0.70710677 -0.70710677 0
vn 0.7008991 -0.7077497 -0.088490926
vn -0.70491046 -0.7078394 0.045438044
vn 0.6957267 -0.7132752 0.08486957
vn -0.7976207 -0.46591583 0.38304517
vn 0.16260618 -0.6987585 0.6966317
vn -0.70710677 -0.70710677 0
vn -0.70710677 0.70710677 0
vn -0.70710677 0.70710677 0
vn -0.70710677 -0.70710677 0
vn -0.70710677 0.70710677 0
vn -0.70710677 -0.70710677 0
vn -0.7049105 0.70783937 0.045438267
vn -0.70491046 -0.7078394 0.045438044
vn -0.7976207 0.4659158 0.3830453
vn -0.7976207 -0.46591583 0.38304517
vn -0.7976207 0.4659158 0.3830453
vn 0.16260606 0.69875836 0.69663185
vn 0.16260618 -0.6987585 0.6966317
vn -0.7976207 -0.46591583 0.38304517
vn 0.16260618 -0.6987585 0.6966317
vn 0.16260606 0.69875836 0.69663185
vn 0.69572663 0.7132752 0.0848698
vn 0.6957267 -0.7132752 0.08486957
vn 0.7008991 0.7077497 -0.08849067
vn 0.7008991 -0.7077497 -0.088490926
vn 0.6949242 0.7071068 -0.13069168
vn 0.6949241 -0.70710677 -0.13069187
vn 0.6949242 0.7071068 -0.13069172
vn 0.6949241 -0.70710677 -0.13069186
vn -0.6949242 0.7071068 -0.13069172
vn 0.70710677 0.70710677 0
vn 0.70710677 0.70710677 0
vn -0.6949242 0.7071068 -0.13069168
vn 0.70710677 0.70710677 0
vn -0.7008991 0.7077497 -0.08849067
vn 0.7049105 0.70783937 0.045438267
vn -0.69572663 0.7132752 0.0848698
vn 0.7976207 0.4659158 0.3830453
vn -0.16260606 0.69875836 0.69663185
vn -0.6949241 -0.70710677 -0.13069186
vn 0.70710677 -0.70710677 0
vn 0.70710677 -0.70710677 0
vn -0.6949241 -0.70710677 -0.13069187
vn 0.70710677 -0.70710677 0
vn -0.7008991 -0.7077497 -0.088490926
vn 0.70491046 -0.7078394 0.045438044
vn -0.6957267 -0.7132752 0.08486957
vn 0.7976207 -0.46591583 0.38304517
vn -0.16260618 -0.6987585 0.6966317
vn 0.70710677 0.70710677 0
vn 0.70710677 0.70710677 0
vn 0.70710677 -0.70710677 0
vn 0.70710677 -0.70710677 0
vn 0.70710677 0.70710677 0
vn 0.70710677 -0.70710677 0
vn 0.7049105 0.70783937 0.045438267
vn 0.70491046 -0.7078394 0.045438044
vn 0.7976207 0.4659158 0.3830453
vn 0.7976207 -0.46591583 0.38304517
vn 0.7976207 0.4659158 0.3830453
vn 0.7976207 -0.46591583 0.38304517
vn -0.16260618 -0.6987585 0.6966317
vn -0.16260606 0.69875836 0.69663185
vn -0.69572663 0.7132752 0.0848698
vn -0.16260606 0.69875836 0.69663185
vn -0.16260618 -0.6987585 0.6966317
vn -0.6957267 -0.7132752 0.08486957
vn -0.7008991 0.7077497 -0.08849067
vn -0.7008991 -0.7077497 -0.088490926
vn -0.6949242 0.7071068 -0.13069168
vn -0.6949241 -0.70710677 -0.13069187
vn -0.6949242 0.7071068 -0.13069172
vn -0.6949241 -0.70710677 -0.13069186
g Box001_0
f 3/3/3 2/2/2 1/1/1
f 6/6/6 5/5/5 4/4/4
f 9/9/9 8/8/8 7/7/7
f 12/12/12 11/11/11 10/10/10
f 15/15/15 14/14/14 13/13/13
f 18/18/18 17/17/17 16/16/16
f 21/21/21 20/20/20 19/19/19
f 24/24/24 23/23/23 22/22/22
f 27/27/27 26/26/26 25/25/25
f 30/30/30 29/29/29 28/28/28
f 33/33/33 32/32/32 31/31/31
f 36/36/36 35/35/35 34/34/34
f 39/39/39 38/38/38 37/37/37
f 42/42/42 41/41/41 40/40/40
f 45/45/45 44/44/44 43/43/43
f 48/48/48 47/47/47 46/46/46
f 51/51/51 50/50/50 49/49/49
f 52/52/52 51/51/51 49/49/49
f 55/55/55 54/54/54 53/53/53
f 56/56/56 55/55/55 53/53/53
f 59/59/59 58/58/58 57/57/57
f 60/60/60 59/59/59 57/57/57
f 61/61/61 59/59/59 60/60/60
f 62/62/62 61/61/61 60/60/60
f 63/63/63 61/61/61 62/62/62
f 64/64/64 63/63/63 62/62/62
f 65/65/65 63/63/63 64/64/64
f 66/66/66 65/65/65 64/64/64
f 69/69/69 68/68/68 67/67/67
f 68/68/68 70/70/70 67/67/67
f 68/68/68 71/71/71 70/70/70
f 71/71/71 72/72/72 70/70/70
f 71/71/71 73/73/73 72/72/72
f 73/73/73 74/74/74 72/72/72
f 73/73/73 75/75/75 74/74/74
f 75/75/75 76/76/76 74/74/74
f 79/79/79 78/78/78 77/77/77
f 80/80/80 79/79/79 77/77/77
f 81/81/81 79/79/79 80/80/80
f 82/82/82 81/81/81 80/80/80
f 83/83/83 81/81/81 82/82/82
f 84/84/84 83/83/83 82/82/82
f 85/85/85 83/83/83 84/84/84
f 86/86/86 85/85/85 84/84/84
f 89/89/89 88/88/88 87/87/87
f 90/90/90 89/89/89 87/87/87
f 91/91/91 89/89/89 90/90/90
f 92/92/92 91/91/91 90/90/90
f 93/93/93 91/91/91 92/92/92
f 94/94/94 93/93/93 92/92/92
f 95/95/95 93/93/93 94/94/94
f 96/96/96 95/95/95 94/94/94
f 99/99/99 98/98/98 97/97/97
f 100/100/100 99/99/99 97/97/97
f 103/103/103 102/102/102 101/101/101
f 104/104/104 103/103/103 101/101/101
f 105/105/105 103/103/103 104/104/104
f 106/106/106 105/105/105 104/104/104
f 107/107/107 105/105/105 106/106/106
f 108/108/108 107/107/107 106/106/106
f 109/109/109 107/107/107 108/108/108
f 110/110/110 109/109/109 108/108/108
f 113/113/113 112/112/112 111/111/111
f 114/114/114 113/113/113 111/111/111
f 115/115/115 113/113/113 114/114/114
f 116/116/116 115/115/115 114/114/114
f 117/117/117 115/115/115 116/116/116
f 118/118/118 117/117/117 116/116/116
f 119/119/119 117/117/117 118/118/118
f 120/120/120 119/119/119 118/118/118
f 123/123/123 122/122/122 121/121/121
f 122/122/122 124/124/124 121/121/121
f 124/124/124 122/122/122 125/125/125
f 126/126/126 124/124/124 125/125/125
f 126/126/126 125/125/125 127/127/127
f 128/128/128 126/126/126 127/127/127
f 128/128/128 127/127/127 129/129/129
f 130/130/130 128/128/128 129/129/129
f 133/133/133 132/132/132 131/131/131
f 134/134/134 133/133/133 131/131/131
f 134/134/134 131/131/131 135/135/135
f 136/136/136 134/134/134 135/135/135
f 136/136/136 135/135/135 137/137/137
f 138/138/138 136/136/136 137/137/137
f 138/138/138 137/137/137 139/139/139
f 140/140/140 138/138/138 139/139/139
f 143/143/143 142/142/142 141/141/141
f 144/144/144 143/143/143 141/141/141
f 147/147/147 146/146/146 145/145/145
f 148/148/148 147/147/147 145/145/145
f 148/148/148 145/145/145 149/149/149
f 150/150/150 148/148/148 149/149/149
f 150/150/150 149/149/149 151/151/151
f 152/152/152 150/150/150 151/151/151
f 152/152/152 151/151/151 153/153/153
f 154/154/154 152/152/152 153/153/153
