g Box042
v 1.841203 -0.7346344 -2.9823518
v 2.6134956 0.026131153 -1.9103637
v 2.6365492 0.11834526 -3.4318953
v 2.6365492 0.11834526 -3.4318953
v 2.6134956 0.026131153 -1.9103637
v 2.0025775 0.94827175 -2.9592984
v 2.0025775 0.94827175 -2.9592984
v 2.6134956 0.026131153 -1.9103637
v 1.2072315 0.095291615 -2.509755
v 1.2072315 0.095291615 -2.509755
v 2.6134956 0.026131153 -1.9103637
v 1.841203 -0.7346344 -2.9823518
v 0.56173325 -4.238768 -3.8007514
v 0.8729558 -4.953427 -1.7259355
v 1.8642566 -3.351208 -2.9016645
v 1.8642566 -3.351208 -2.9016645
v 0.8729558 -4.953427 -1.7259355
v 0.71158123 -2.74029 -1.841203
v 0.71158123 -2.74029 -1.841203
v 0.8729558 -4.953427 -1.7259355
v -0.5909424 -3.62785 -2.74029
v -0.5909424 -3.62785 -2.74029
v 0.8729558 -4.953427 -1.7259355
v 0.56173325 -4.238768 -3.8007514
v -4.0259156 0.6716294 -2.5328083
v -4.3140845 -0.3888321 -0.5963135
v -3.8184333 -1.1380711 -2.6365492
v -3.8184333 -1.1380711 -2.6365492
v -4.3140845 -0.3888321 -0.5963135
v -2.4582767 -1.0343304 -1.656775
v -2.4582767 -1.0343304 -1.656775
v -4.3140845 -0.3888321 -0.5963135
v -2.6657586 0.7753701 -1.5530341
v -2.6657586 0.7753701 -1.5530341
v -4.3140845 -0.3888321 -0.5963135
v -4.0259156 0.6716294 -2.5328083
v 1.7374623 3.1037745 -3.2705207
v 2.2100592 3.2075152 -1.4608202
v 0.56173325 2.9078202 -2.2907465
v 0.56173325 2.9078202 -2.2907465
v 2.2100592 3.2075152 -1.4608202
v 1.1495976 1.7090373 -1.8296764
v 1.1495976 1.7090373 -1.8296764
v 2.2100592 3.2075152 -1.4608202
v 2.3253267 1.9049926 -2.8094504
v 2.3253267 1.9049926 -2.8094504
v 2.2100592 3.2075152 -1.4608202
v 1.7374623 3.1037745 -3.2705207
v -2.262322 -3.3281546 2.711865
v -0.32582712 -2.6596026 6.2966857
v 1.1150174 -3.5702162 2.5274367
v 1.1150174 -3.5702162 2.5274367
v -0.32582712 -2.6596026 6.2966857
v 1.3686061 -0.5386796 3.172935
v 1.3686061 -0.5386796 3.172935
v -0.32582712 -2.6596026 6.2966857
v -2.0087333 -0.28509092 3.3573632
v -2.0087333 -0.28509092 3.3573632
v -0.32582712 -2.6596026 6.2966857
v -2.262322 -3.3281546 2.711865
v -2.711865 2.0202599 1.8012514
v -1.8012514 4.498512 3.9567552
v 0.04302931 2.4121695 1.9972062
v 0.04302931 2.4121695 1.9972062
v -1.8012514 4.498512 3.9567552
v -0.22208595 4.7405744 0.94827175
v -0.22208595 4.7405744 0.94827175
v -1.8012514 4.498512 3.9567552
v -2.9769807 4.3486648 0.75231695
v -2.9769807 4.3486648 0.75231695
v -1.8012514 4.498512 3.9567552
v -2.711865 2.0202599 1.8012514
v 0.50409937 -0.14677 -5.0686946
v 1.841203 -0.7346344 -2.9823518
v 2.6365492 0.11834526 -3.4318953
v 0.89600897 0.27971983 -5.2992296
v 0.89600897 0.27971983 -5.2992296
v 2.6365492 0.11834526 -3.4318953
v 2.0025775 0.94827175 -2.9592984
v 0.5847869 0.6946831 -5.0571675
v 0.5847869 0.6946831 -5.0571675
v 2.0025775 0.94827175 -2.9592984
v 1.2072315 0.095291615 -2.509755
v 0.1928773 0.26819324 -4.8381596
v 0.1928773 0.26819324 -4.8381596
v 1.2072315 0.095291615 -2.509755
v 1.841203 -0.7346344 -2.9823518
v 0.50409937 -0.14677 -5.0686946
v 0.123716354 -0.95364285 -5.4951844
v 0.56173325 -4.238768 -3.8007514
v 1.8642566 -3.351208 -2.9016645
v 0.7807417 -0.50409937 -5.045641
v 0.7807417 -0.50409937 -5.045641
v 1.8642566 -3.351208 -2.9016645
v 0.71158123 -2.74029 -1.841203
v 0.20440388 -0.20440388 -4.5154104
v 0.20440388 -0.20440388 -4.5154104
v 0.71158123 -2.74029 -1.841203
v -0.5909424 -3.62785 -2.74029
v -0.4410944 -0.65394735 -4.9649534
v -0.4410944 -0.65394735 -4.9649534
v -0.5909424 -3.62785 -2.74029
v 0.56173325 -4.238768 -3.8007514
v 0.123716354 -0.95364285 -5.4951844
v -1.5130825 0.64857626 -5.276176
v -4.0259156 0.6716294 -2.5328083
v -3.8184333 -1.1380711 -2.6365492
v -1.4093418 -0.2505107 -5.33381
v -1.4093418 -0.2505107 -5.33381
v -3.8184333 -1.1380711 -2.6365492
v -2.4582767 -1.0343304 -1.656775
v -0.7292633 -0.20440388 -4.8381596
v -0.7292633 -0.20440388 -4.8381596
v -2.4582767 -1.0343304 -1.656775
v -2.6657586 0.7753701 -1.5530341
v -0.833004 0.70620966 -4.7920523
v -0.833004 0.70620966 -4.7920523
v -2.6657586 0.7753701 -1.5530341
v -4.0259156 0.6716294 -2.5328083
v -1.5130825 0.64857626 -5.276176
v 0.054555893 1.1672802 -5.080221
v 1.7374623 3.1037745 -3.2705207
v 0.56173325 2.9078202 -2.2907465
v -0.5333085 1.063539 -4.584571
v -0.5333085 1.063539 -4.584571
v 0.56173325 2.9078202 -2.2907465
v 1.1495976 1.7090373 -1.8296764
v -0.2451396 0.46414804 -4.3540354
v -0.2451396 0.46414804 -4.3540354
v 1.1495976 1.7090373 -1.8296764
v 2.3253267 1.9049926 -2.8094504
v 0.3427248 0.55636215 -4.849686
v 0.3427248 0.55636215 -4.849686
v 2.3253267 1.9049926 -2.8094504
v 1.7374623 3.1037745 -3.2705207
v 0.054555893 1.1672802 -5.080221
v -1.732091 -1.045857 -4.9764805
v -2.262322 -3.3281546 2.711865
v 1.1150174 -3.5702162 2.5274367
v -0.0491848 -1.1726513 -5.0686946
v -0.0491848 -1.1726513 -5.0686946
v 1.1150174 -3.5702162 2.5274367
v 1.3686061 -0.5386796 3.172935
v 0.07760954 0.3488803 -4.7459455
v 0.07760954 0.3488803 -4.7459455
v 1.3686061 -0.5386796 3.172935
v -2.0087333 -0.28509092 3.3573632
v -1.6052966 0.46414804 -4.6537313
v -1.6052966 0.46414804 -4.6537313
v -2.0087333 -0.28509092 3.3573632
v -2.262322 -3.3281546 2.711865
v -1.732091 -1.045857 -4.9764805
v -1.363235 0.0030779839 -4.3655624
v -2.711865 2.0202599 1.8012514
v 0.04302931 2.4121695 1.9972062
v 0.008449078 0.19903278 -4.2618217
v 0.008449078 0.19903278 -4.2618217
v 0.04302931 2.4121695 1.9972062
v -0.22208595 4.7405744 0.94827175
v -0.11834526 1.363235 -4.7920523
v -0.11834526 1.363235 -4.7920523
v -0.22208595 4.7405744 0.94827175
v -2.9769807 4.3486648 0.75231695
v -1.4900293 1.1672802 -4.8842664
v -1.4900293 1.1672802 -4.8842664
v -2.9769807 4.3486648 0.75231695
v -2.711865 2.0202599 1.8012514
v -1.363235 0.0030779839 -4.3655624
vt 0.16720258 0.6920836
vt 0.22163467 0.7504037
vt 0.22163467 0.6843076
vt 0.22163467 0.6843076
vt 0.22163467 0.7504037
vt 0.27217877 0.6920836
vt 0.16720258 0.6920836
vt 0.22163467 0.7504037
vt 0.22163467 0.6843076
vt 0.22163467 0.6843076
vt 0.22163467 0.7504037
vt 0.27217877 0.6920836
vt 0.16720258 0.6920836
vt 0.22163467 0.7504037
vt 0.22163467 0.6843076
vt 0.22163467 0.6843076
vt 0.22163467 0.7504037
vt 0.27217877 0.6920836
vt 0.16720258 0.6920836
vt 0.22163467 0.7504037
vt 0.22163467 0.6843076
vt 0.22163467 0.6843076
vt 0.22163467 0.7504037
vt 0.27217877 0.6920836
vt 0.16720258 0.6920836
vt 0.22163467 0.7504037
vt 0.22163467 0.6843076
vt 0.22163467 0.6843076
vt 0.22163467 0.7504037
vt 0.27217877 0.6920836
vt 0.16720258 0.6920836
vt 0.22163467 0.7504037
vt 0.22163467 0.6843076
vt 0.22163467 0.6843076
vt 0.22163467 0.7504037
vt 0.27217877 0.6920836
vt 0.16720258 0.6920836
vt 0.22163467 0.7504037
vt 0.22163467 0.6843076
vt 0.22163467 0.6843076
vt 0.22163467 0.7504037
vt 0.27217877 0.6920836
vt 0.16720258 0.6920836
vt 0.22163467 0.7504037
vt 0.22163467 0.6843076
vt 0.22163467 0.6843076
vt 0.22163467 0.7504037
vt 0.27217877 0.6920836
vt 0.16720258 0.6920836
vt 0.22163467 0.7504037
vt 0.22163467 0.6843076
vt 0.22163467 0.6843076
vt 0.22163467 0.7504037
vt 0.27217877 0.6920836
vt 0.16720258 0.6920836
vt 0.22163467 0.7504037
vt 0.22163467 0.6843076
vt 0.22163467 0.6843076
vt 0.22163467 0.7504037
vt 0.27217877 0.6920836
vt 0.16720258 0.6920836
vt 0.22163467 0.7504037
vt 0.22163467 0.6843076
vt 0.22163467 0.6843076
vt 0.22163467 0.7504037
vt 0.27217877 0.6920836
vt 0.16720258 0.6920836
vt 0.22163467 0.7504037
vt 0.22163467 0.6843076
vt 0.22163467 0.6843076
vt 0.22163467 0.7504037
vt 0.27217877 0.6920836
vt 0.19441862 0.5754434
vt 0.16720258 0.6920836
vt 0.22163467 0.6843076
vt 0.22163467 0.5715554
vt 0.22163467 0.5715554
vt 0.22163467 0.6843076
vt 0.27217877 0.6920836
vt 0.24496272 0.5754434
vt 0.19441862 0.5754434
vt 0.16720258 0.6920836
vt 0.22163467 0.6843076
vt 0.22163467 0.5715554
vt 0.22163467 0.5715554
vt 0.22163467 0.6843076
vt 0.27217877 0.6920836
vt 0.24496272 0.5754434
vt 0.19441862 0.5754434
vt 0.16720258 0.6920836
vt 0.22163467 0.6843076
vt 0.22163467 0.5715554
vt 0.22163467 0.5715554
vt 0.22163467 0.6843076
vt 0.27217877 0.6920836
vt 0.24496272 0.5754434
vt 0.19441862 0.5754434
vt 0.16720258 0.6920836
vt 0.22163467 0.6843076
vt 0.22163467 0.5715554
vt 0.22163467 0.5715554
vt 0.22163467 0.6843076
vt 0.27217877 0.6920836
vt 0.24496272 0.5754434
vt 0.19441862 0.5754434
vt 0.16720258 0.6920836
vt 0.22163467 0.6843076
vt 0.22163467 0.5715554
vt 0.22163467 0.5715554
vt 0.22163467 0.6843076
vt 0.27217877 0.6920836
vt 0.24496272 0.5754434
vt 0.19441862 0.5754434
vt 0.16720258 0.6920836
vt 0.22163467 0.6843076
vt 0.22163467 0.5715554
vt 0.22163467 0.5715554
vt 0.22163467 0.6843076
vt 0.27217877 0.6920836
vt 0.24496272 0.5754434
vt 0.19441862 0.5754434
vt 0.16720258 0.6920836
vt 0.22163467 0.6843076
vt 0.22163467 0.5715554
vt 0.22163467 0.5715554
vt 0.22163467 0.6843076
vt 0.27217877 0.6920836
vt 0.24496272 0.5754434
vt 0.19441862 0.5754434
vt 0.16720258 0.6920836
vt 0.22163467 0.6843076
vt 0.22163467 0.5715554
vt 0.22163467 0.5715554
vt 0.22163467 0.6843076
vt 0.27217877 0.6920836
vt 0.24496272 0.5754434
vt 0.19441862 0.5754434
vt 0.16720258 0.6920836
vt 0.22163467 0.6843076
vt 0.22163467 0.5715554
vt 0.22163467 0.5715554
vt 0.22163467 0.6843076
vt 0.27217877 0.6920836
vt 0.24496272 0.5754434
vt 0.19441862 0.5754434
vt 0.16720258 0.6920836
vt 0.22163467 0.6843076
vt 0.22163467 0.5715554
vt 0.22163467 0.5715554
vt 0.22163467 0.6843076
vt 0.27217877 0.6920836
vt 0.24496272 0.5754434
vt 0.19441862 0.5754434
vt 0.16720258 0.6920836
vt 0.22163467 0.6843076
vt 0.22163467 0.5715554
vt 0.22163467 0.5715554
vt 0.22163467 0.6843076
vt 0.27217877 0.6920836
vt 0.24496272 0.5754434
vt 0.19441862 0.5754434
vt 0.16720258 0.6920836
vt 0.22163467 0.6843076
vt 0.22163467 0.5715554
vt 0.22163467 0.5715554
vt 0.22163467 0.6843076
vt 0.27217877 0.6920836
vt 0.24496272 0.5754434
vn 0.077141464 -0.99483275 0.06600743
vn 0.5518094 -0.077141464 0.83039486
vn 0.9315437 -0.04549694 -0.36077192
vn 0.9315437 -0.04549694 -0.36077192
vn 0.5518094 -0.077141464 0.83039486
vn 0.1720751 0.9671279 0.18722641
vn 0.1720751 0.9671279 0.18722641
vn 0.5518094 -0.077141464 0.83039486
vn -0.68232715 0.017792106 0.73083043
vn -0.68232715 0.017792106 0.73083043
vn 0.5518094 -0.077141464 0.83039486
vn 0.077141464 -0.99483275 0.06600743
vn 0.0138524175 -0.77332103 -0.63386333
vn 0.14043057 -0.8049656 0.576463
vn 0.9940742 -0.10870304 -0
vn 0.9940742 -0.10870304 -0
vn 0.14043057 -0.8049656 0.576463
vn 0.04549694 0.39752638 0.9164621
vn 0.04549694 0.39752638 0.9164621
vn 0.14043057 -0.8049656 0.576463
vn -0.93548334 -0.26700866 0.23146778
vn -0.93548334 -0.26700866 0.23146778
vn 0.14043057 -0.8049656 0.576463
vn 0.0138524175 -0.77332103 -0.63386333
vn -0.7772608 0.6190381 -0.112505525
vn -0.5873935 -0.10878599 0.80195665
vn -0.6190381 -0.74167657 -0.2582784
vn -0.6190381 -0.74167657 -0.2582784
vn -0.5873935 -0.10878599 0.80195665
vn 0.52016485 -0.6783875 0.5188631
vn 0.52016485 -0.6783875 0.5188631
vn -0.5873935 -0.10878599 0.80195665
vn 0.36194223 0.68232715 0.63515943
vn 0.36194223 0.68232715 0.63515943
vn -0.5873935 -0.10878599 0.80195665
vn -0.7772608 0.6190381 -0.112505525
vn 0.36194223 0.7772608 -0.5146489
vn 0.48852032 0.5241045 0.6976119
vn -0.7139716 0.6190381 0.32716405
vn -0.7139716 0.6190381 0.32716405
vn 0.48852032 0.5241045 0.6976119
vn -0.112725616 -0.5518094 0.8263167
vn -0.112725616 -0.5518094 0.8263167
vn 0.48852032 0.5241045 0.6976119
vn 0.92115444 -0.38919717 -0
vn 0.92115444 -0.38919717 -0
vn 0.48852032 0.5241045 0.6976119
vn 0.36194223 0.7772608 -0.5146489
vn -0.7139716 -0.6783875 0.1733057
vn 0.04549694 -0.20371962 0.97797155
vn 0.6415349 -0.7670938 -0
vn 0.6415349 -0.7670938 -0
vn 0.04549694 -0.20371962 0.97797155
vn 0.74167657 0.5873935 0.32385916
vn 0.74167657 0.5873935 0.32385916
vn 0.04549694 -0.20371962 0.97797155
vn -0.6190381 0.68232715 0.38887212
vn -0.6190381 0.68232715 0.38887212
vn 0.04549694 -0.20371962 0.97797155
vn -0.7139716 -0.6783875 0.1733057
vn -0.6190381 -0.6150985 0.48830903
vn -0.112725616 0.39752638 0.9106403
vn 0.710032 -0.42523128 0.5612779
vn 0.710032 -0.42523128 0.5612779
vn -0.112725616 0.39752638 0.9106403
vn 0.5834539 0.80890524 -0.07248346
vn 0.5834539 0.80890524 -0.07248346
vn -0.112725616 0.39752638 0.9106403
vn -0.7772608 0.6190381 -0.112505525
vn -0.7772608 0.6190381 -0.112505525
vn -0.112725616 0.39752638 0.9106403
vn -0.6190381 -0.6150985 0.48830903
vn -0.1443702 -0.96318823 -0.22677234
vn 0.077141464 -0.99483275 0.06600743
vn 0.9315437 -0.04549694 -0.36077192
vn 0.74167657 -0.0138524175 -0.67061466
vn 0.74167657 -0.0138524175 -0.67061466
vn 0.9315437 -0.04549694 -0.36077192
vn 0.1720751 0.9671279 0.18722641
vn -0.04943657 0.9987724 -0.0031265256
vn -0.04943657 0.9987724 -0.0031265256
vn 0.1720751 0.9671279 0.18722641
vn -0.68232715 0.017792106 0.73083043
vn -0.9038389 0.04943657 0.42500746
vn -0.9038389 0.04943657 0.42500746
vn -0.68232715 0.017792106 0.73083043
vn 0.077141464 -0.99483275 0.06600743
vn -0.1443702 -0.96318823 -0.22677234
vn -0.04943657 -0.4568758 -0.8881557
vn 0.0138524175 -0.77332103 -0.63386333
vn 0.9940742 -0.10870304 -0
vn 0.96318823 0.20765924 -0.17072219
vn 0.96318823 0.20765924 -0.17072219
vn 0.9940742 -0.10870304 -0
vn 0.04549694 0.39752638 0.9164621
vn 0.0138524175 0.7139716 0.7000376
vn 0.0138524175 0.7139716 0.7000376
vn 0.04549694 0.39752638 0.9164621
vn -0.93548334 -0.26700866 0.23146778
vn -0.9987724 0.04943657 -0.0031257062
vn -0.9987724 0.04943657 -0.0031257062
vn -0.93548334 -0.26700866 0.23146778
vn 0.0138524175 -0.77332103 -0.63386333
vn -0.04943657 -0.4568758 -0.8881557
vn -0.55574906 0.68232715 -0.4749449
vn -0.7772608 0.6190381 -0.112505525
vn -0.6190381 -0.74167657 -0.2582784
vn -0.39752638 -0.710032 -0.58122915
vn -0.39752638 -0.710032 -0.58122915
vn -0.6190381 -0.74167657 -0.2582784
vn 0.52016485 -0.6783875 0.5188631
vn 0.74167657 -0.64674294 0.17787483
vn 0.74167657 -0.64674294 0.17787483
vn 0.52016485 -0.6783875 0.5188631
vn 0.36194223 0.68232715 0.63515943
vn 0.5834539 0.7456162 0.32192865
vn 0.5834539 0.7456162 0.32192865
vn 0.36194223 0.68232715 0.63515943
vn -0.7772608 0.6190381 -0.112505525
vn -0.55574906 0.68232715 -0.4749449
vn 0.1720751 0.5873935 -0.79079646
vn 0.36194223 0.7772608 -0.5146489
vn -0.7139716 0.6190381 0.32716405
vn -0.9033365 0.42893243 -0
vn -0.9033365 0.42893243 -0
vn -0.7139716 0.6190381 0.32716405
vn -0.112725616 -0.5518094 0.8263167
vn -0.33423734 -0.77332103 0.5387578
vn -0.33423734 -0.77332103 0.5387578
vn -0.112725616 -0.5518094 0.8263167
vn 0.92115444 -0.38919717 -0
vn 0.74167657 -0.5834539 -0.33090395
vn 0.74167657 -0.5834539 -0.33090395
vn 0.92115444 -0.38919717 -0
vn 0.36194223 0.7772608 -0.5146489
vn 0.1720751 0.5873935 -0.79079646
vn -0.7456162 -0.6150985 -0.25634032
vn -0.7139716 -0.6783875 0.1733057
vn 0.6415349 -0.7670938 -0
vn 0.64674294 -0.710032 -0.2785285
vn 0.64674294 -0.710032 -0.2785285
vn 0.6415349 -0.7670938 -0
vn 0.74167657 0.5873935 0.32385916
vn 0.74167657 0.65068257 -0.16287446
vn 0.74167657 0.65068257 -0.16287446
vn 0.74167657 0.5873935 0.32385916
vn -0.6190381 0.68232715 0.38887212
vn -0.64190924 0.76678073 -0
vn -0.64190924 0.76678073 -0
vn -0.6190381 0.68232715 0.38887212
vn -0.7139716 -0.6783875 0.1733057
vn -0.7456162 -0.6150985 -0.25634032
vn -0.6190381 -0.77332103 0.13699052
vn -0.6190381 -0.6150985 0.48830903
vn 0.710032 -0.42523128 0.5612779
vn 0.77332103 -0.5834539 0.24810502
vn 0.77332103 -0.5834539 0.24810502
vn 0.710032 -0.42523128 0.5612779
vn 0.5834539 0.80890524 -0.07248346
vn 0.64674294 0.68232715 -0.34081262
vn 0.64674294 0.68232715 -0.34081262
vn 0.5834539 0.80890524 -0.07248346
vn -0.7772608 0.6190381 -0.112505525
vn -0.7456162 0.49246 -0.44893166
vn -0.7456162 0.49246 -0.44893166
vn -0.7772608 0.6190381 -0.112505525
vn -0.6190381 -0.6150985 0.48830903
vn -0.6190381 -0.77332103 0.13699052
g Box042_0
f 3/3/3 2/2/2 1/1/1
f 6/6/6 5/5/5 4/4/4
f 9/9/9 8/8/8 7/7/7
f 12/12/12 11/11/11 10/10/10
f 15/15/15 14/14/14 13/13/13
f 18/18/18 17/17/17 16/16/16
f 21/21/21 20/20/20 19/19/19
f 24/24/24 23/23/23 22/22/22
f 27/27/27 26/26/26 25/25/25
f 30/30/30 29/29/29 28/28/28
f 33/33/33 32/32/32 31/31/31
f 36/36/36 35/35/35 34/34/34
f 39/39/39 38/38/38 37/37/37
f 42/42/42 41/41/41 40/40/40
f 45/45/45 44/44/44 43/43/43
f 48/48/48 47/47/47 46/46/46
f 51/51/51 50/50/50 49/49/49
f 54/54/54 53/53/53 52/52/52
f 57/57/57 56/56/56 55/55/55
f 60/60/60 59/59/59 58/58/58
f 63/63/63 62/62/62 61/61/61
f 66/66/66 65/65/65 64/64/64
f 69/69/69 68/68/68 67/67/67
f 72/72/72 71/71/71 70/70/70
f 75/75/75 74/74/74 73/73/73
f 76/76/76 75/75/75 73/73/73
f 79/79/79 78/78/78 77/77/77
f 80/80/80 79/79/79 77/77/77
f 83/83/83 82/82/82 81/81/81
f 84/84/84 83/83/83 81/81/81
f 87/87/87 86/86/86 85/85/85
f 88/88/88 87/87/87 85/85/85
f 91/91/91 90/90/90 89/89/89
f 92/92/92 91/91/91 89/89/89
f 95/95/95 94/94/94 93/93/93
f 96/96/96 95/95/95 93/93/93
f 99/99/99 98/98/98 97/97/97
f 100/100/100 99/99/99 97/97/97
f 103/103/103 102/102/102 101/101/101
f 104/104/104 103/103/103 101/101/101
f 107/107/107 106/106/106 105/105/105
f 108/108/108 107/107/107 105/105/105
f 111/111/111 110/110/110 109/109/109
f 112/112/112 111/111/111 109/109/109
f 115/115/115 114/114/114 113/113/113
f 116/116/116 115/115/115 113/113/113
f 119/119/119 118/118/118 117/117/117
f 120/120/120 119/119/119 117/117/117
f 123/123/123 122/122/122 121/121/121
f 124/124/124 123/123/123 121/121/121
f 127/127/127 126/126/126 125/125/125
f 128/128/128 127/127/127 125/125/125
f 131/131/131 130/130/130 129/129/129
f 132/132/132 131/131/131 129/129/129
f 135/135/135 134/134/134 133/133/133
f 136/136/136 135/135/135 133/133/133
f 139/139/139 138/138/138 137/137/137
f 140/140/140 139/139/139 137/137/137
f 143/143/143 142/142/142 141/141/141
f 144/144/144 143/143/143 141/141/141
f 147/147/147 146/146/146 145/145/145
f 148/148/148 147/147/147 145/145/145
f 151/151/151 150/150/150 149/149/149
f 152/152/152 151/151/151 149/149/149
f 155/155/155 154/154/154 153/153/153
f 156/156/156 155/155/155 153/153/153
f 159/159/159 158/158/158 157/157/157
f 160/160/160 159/159/159 157/157/157
f 163/163/163 162/162/162 161/161/161
f 164/164/164 163/163/163 161/161/161
f 167/167/167 166/166/166 165/165/165
f 168/168/168 167/167/167 165/165/165
