g Box001
v 0.032582875 0.027456855 -0.044620086
v -0.0130094625 0.02758953 -0.0006401324
v -0.054646604 0.055372424 -0.015857343
v -0.054646604 0.051199656 0.009118523
v 0.032582875 0.027456855 -0.044620086
v 0.050272655 0.04376979 -0.09498676
v 0.04435002 0.0036998307 -0.10584519
v 0.023963064 -0.016886331 -0.046954487
v -0.0130094625 0.02758953 -0.0006401324
v -0.00014964104 -0.0014325333 -0.009852687
v -0.008051843 -0.014700431 -0.024706086
v 0.010975341 -0.045764502 -0.07484554
v 0.030916594 -0.01466374 -0.12073873
v -0.00014964104 -0.0014325333 -0.009852687
v -0.008051843 -0.014700431 -0.024706086
v -0.054646604 -0.016647069 -0.014366367
v -0.054646604 -0.001715416 0.010476193
v -0.0130094625 0.02758953 -0.0006401324
v -0.054646604 0.055372424 -0.015857343
v -0.10914357 -0.0014325344 -0.009852686
v -0.101241365 -0.014700432 -0.024706086
v -0.14187609 0.027456855 -0.044620086
v -0.054646604 0.051199656 0.009118523
v -0.054646604 0.055372424 -0.015857343
v -0.09628375 0.02758953 -0.0006401348
v -0.14187609 0.027456855 -0.044620086
v -0.15364324 0.0036998307 -0.10584519
v -0.15956587 0.04376979 -0.09498676
v -0.13325629 -0.016886331 -0.046954487
v -0.09628375 0.02758953 -0.0006401348
v -0.10914357 -0.0014325344 -0.009852686
v -0.101241365 -0.014700432 -0.024706086
v -0.12026855 -0.045764502 -0.07484554
v -0.14020981 -0.01466374 -0.12073873
v -0.054646604 -0.001715416 0.010476193
v -0.10914357 -0.0014325344 -0.009852686
v -0.09628375 0.02758953 -0.0006401348
v -0.054646604 0.055372424 -0.015857343
vt 0.027643207 0.43690154
vt 0.027643207 0.48756805
vt 0.08167094 0.48756805
vt 0.08263481 0.43690154
vt 0.08272004 0.43690154
vt 0.08272004 0.43690154
vt 0.027643207 0.43690154
vt 0.027643207 0.43690154
vt 0.08272004 0.48756805
vt 0.027643207 0.48756805
vt 0.027643207 0.48756805
vt 0.027643207 0.43690154
vt 0.027643207 0.43690154
vt 0.08272004 0.43690154
vt 0.08272004 0.43690154
vt 0.027802534 0.43690154
vt 0.02777949 0.43690154
vt 0.08272004 0.48756805
vt 0.028692294 0.48756805
vt 0.08272004 0.43690154
vt 0.08272004 0.43690154
vt 0.027643207 0.43690154
vt 0.08263481 0.43690154
vt 0.08167094 0.48756805
vt 0.027643207 0.48756805
vt 0.08272004 0.43690154
vt 0.027643207 0.43690154
vt 0.08272004 0.43690154
vt 0.027643207 0.43690154
vt 0.08272004 0.48756805
vt 0.027643207 0.48756805
vt 0.027643207 0.48756805
vt 0.027643207 0.43690154
vt 0.027643207 0.43690154
vt 0.02777949 0.43690154
vt 0.08272004 0.43690154
vt 0.08272004 0.48756805
vt 0.028692294 0.48756805
vn 0.7608029 0.024954107 0.64850295
vn 0.44304866 0.17033283 0.8801673
vn -0 0.2836649 0.95892346
vn -0 0.36014602 0.93289596
vn 0.7608029 0.024954107 0.64850295
vn 0.9438859 -0.20329063 0.26029235
vn 0.91250545 -0.37420925 0.1652305
vn 0.7970455 -0.42580315 0.428264
vn 0.44304866 0.17033283 0.8801673
vn 0.41076094 -0.41827303 0.8101377
vn 0.2647596 -0.7858394 0.5588908
vn 0.6406567 -0.6881745 0.3405509
vn 0.8453232 -0.5304459 0.06368591
vn 0.41076094 -0.41827303 0.8101377
vn 0.2647596 -0.7858394 0.5588908
vn -0 -0.832387 0.5541948
vn -0 -0.3724535 0.9280509
vn 0.44304866 0.17033283 0.8801673
vn -0 0.2836649 0.95892346
vn -0.41076094 -0.41827303 0.8101377
vn -0.26475948 -0.78583944 0.55889076
vn -0.7608029 0.024954079 0.64850295
vn -0 0.36014602 0.93289596
vn -0 0.2836649 0.95892346
vn -0.44304857 0.17033282 0.8801674
vn -0.7608029 0.024954079 0.64850295
vn -0.91250557 -0.37420923 0.16523048
vn -0.94388604 -0.20329057 0.26029238
vn -0.7970455 -0.42580315 0.42826405
vn -0.44304857 0.17033282 0.8801674
vn -0.41076094 -0.41827303 0.8101377
vn -0.26475948 -0.78583944 0.55889076
vn -0.6406567 -0.6881745 0.3405508
vn -0.8453232 -0.5304459 0.06368585
vn -0 -0.3724535 0.9280509
vn -0.41076094 -0.41827303 0.8101377
vn -0.44304857 0.17033282 0.8801674
vn -0 0.2836649 0.95892346
g Box001_0
f 3/3/3 2/2/2 1/1/1
f 4/4/4 3/3/3 1/1/1
f 7/7/7 6/6/6 5/5/5
f 8/8/8 7/7/7 5/5/5
f 5/5/5 9/9/9 8/8/8
f 9/9/9 10/10/10 8/8/8
f 10/10/10 11/11/11 8/8/8
f 11/11/11 12/12/12 8/8/8
f 8/8/8 12/12/12 7/7/7
f 12/12/12 13/13/13 7/7/7
f 16/16/16 15/15/15 14/14/14
f 17/17/17 16/16/16 14/14/14
f 14/14/14 18/18/18 17/17/17
f 18/18/18 19/19/19 17/17/17
f 16/16/16 17/17/17 20/20/20
f 21/21/21 16/16/16 20/20/20
f 24/24/24 23/23/23 22/22/22
f 25/25/25 24/24/24 22/22/22
f 28/28/28 27/27/27 26/26/26
f 27/27/27 29/29/29 26/26/26
f 30/30/30 26/26/26 29/29/29
f 31/31/31 30/30/30 29/29/29
f 32/32/32 31/31/31 29/29/29
f 33/33/33 32/32/32 29/29/29
f 33/33/33 29/29/29 27/27/27
f 34/34/34 33/33/33 27/27/27
f 37/37/37 36/36/36 35/35/35
f 38/38/38 37/37/37 35/35/35
