g Box001
v -0.13208038 0.07409823 0.04823021
v -0.4469925 0.23985033 0.048230194
v -0.5364025 0.37988132 0.048230186
v -0.3207074 0.29167482 0.048230194
v -0.3021486 0.10517203 -2.444759E-08
v -0.4469925 0.23985033 0.048230194
v -0.13208038 0.07409823 0.04823021
v 0.0040186257 -0.008663013 0.016701141
v 0.0040186257 -0.008663013 0.016701141
v -0.13208038 0.07409823 0.04823021
v -0.3207074 0.29167482 0.048230194
v -0.14225158 0.19656268 0.01670113
vt 1 0
vt 0 0
vt 0 1
vt 1 1
vt 0 0
vt 0 1
vt 1 1
vt 1 0
vt 0 0
vt 0 1
vt 1 1
vt 1 0
vn -0 0 1
vn -0 0 1
vn -0 0 1
vn -0 0 1
vn -0.31433776 -0.65736324 0.68488353
vn -0.31433773 -0.65736324 0.68488353
vn -0.31433773 -0.6573633 0.68488353
vn -0.31433773 -0.65736324 0.68488353
vn 0.32947513 0.26097384 0.90738016
vn 0.3294751 0.26097387 0.90738016
vn 0.32947513 0.26097387 0.90738016
vn 0.32947513 0.26097387 0.90738016
g Box001_0
f 3/3/3 2/2/2 1/1/1
f 4/4/4 3/3/3 1/1/1
f 7/7/7 6/6/6 5/5/5
f 8/8/8 7/7/7 5/5/5
f 11/11/11 10/10/10 9/9/9
f 12/12/12 11/11/11 9/9/9
