g Box038
v 1.999718 -0.28559828 -0.93515944
v 3.109385 0.3278761 -0.096143246
v 3.0462332 -0.05103445 -1.5756989
v 3.0462332 -0.05103445 -1.5756989
v 3.109385 0.3278761 -0.096143246
v 2.8928647 1.0766759 -1.4133086
v 2.8928647 1.0766759 -1.4133086
v 3.109385 0.3278761 -0.096143246
v 1.8463495 0.84211206 -0.7727692
v 1.8463495 0.84211206 -0.7727692
v 3.109385 0.3278761 -0.096143246
v 1.999718 -0.28559828 -0.93515944
v 0.88102937 -3.795033 -2.5590625
v 1.1967883 -4.5077457 -0.4750538
v 2.1891735 -2.9018862 -1.6478724
v 2.1891735 -2.9018862 -1.6478724
v 1.1967883 -4.5077457 -0.4750538
v 1.0343981 -2.2884119 -0.59233546
v 1.0343981 -2.2884119 -0.59233546
v 1.1967883 -4.5077457 -0.4750538
v -0.26472425 -3.1815584 -1.4945037
v -0.26472425 -3.1815584 -1.4945037
v 1.1967883 -4.5077457 -0.4750538
v 0.88102937 -3.795033 -2.5590625
v -3.2148142 0.65265656 -1.2870052
v -3.5035086 -0.41190195 0.65265656
v -3.0163374 -1.1607015 -1.3862436
v -3.0163374 -1.1607015 -1.3862436
v -3.5035086 -0.41190195 0.65265656
v -1.6540632 -1.0614631 -0.4028802
v -1.6540632 -1.0614631 -0.4028802
v -3.5035086 -0.41190195 0.65265656
v -1.8615623 0.7428732 -0.3036418
v -1.8615623 0.7428732 -0.3036418
v -3.5035086 -0.41190195 0.65265656
v -3.2148142 0.65265656 -1.2870052
v 0.02396965 4.36959 -1.3321135
v 0.1592946 4.6402407 0.86917686
v -1.013524 3.2148142 -0.3758154
v -1.013524 3.2148142 -0.3758154
v 0.1592946 4.6402407 0.86917686
v 0.36679363 2.5111232 0.26472425
v 0.36679363 2.5111232 0.26472425
v 0.1592946 4.6402407 0.86917686
v 1.4042871 3.6658983 -0.70059586
v 1.4042871 3.6658983 -0.70059586
v 0.1592946 4.6402407 0.86917686
v 0.02396965 4.36959 -1.3321135
v -1.6450415 -1.2058101 1.6901503
v -0.3729844 -0.29462004 4.7214355
v 1.1336365 -1.4313521 1.888627
v 1.1336365 -1.4313521 1.888627
v -0.3729844 -0.29462004 4.7214355
v 1.3230917 1.1217842 2.1322126
v 1.3230917 1.1217842 2.1322126
v -0.3729844 -0.29462004 4.7214355
v -1.4555864 1.3473263 1.9337354
v -1.4555864 1.3473263 1.9337354
v -0.3729844 -0.29462004 4.7214355
v -1.6450415 -1.2058101 1.6901503
v 0.9080944 0.1835289 -3.1905801
v 1.999718 -0.28559828 -0.93515944
v 3.0462332 -0.05103445 -1.5756989
v 1.4313521 0.3008108 -3.506339
v 1.4313521 0.3008108 -3.506339
v 3.0462332 -0.05103445 -1.5756989
v 2.8928647 1.0766759 -1.4133086
v 1.3501568 0.8601551 -3.4251437
v 1.3501568 0.8601551 -3.4251437
v 2.8928647 1.0766759 -1.4133086
v 1.8463495 0.84211206 -0.7727692
v 0.8268993 0.7428732 -3.109385
v 0.8268993 0.7428732 -3.109385
v 1.8463495 0.84211206 -0.7727692
v 1.999718 -0.28559828 -0.93515944
v 0.9080944 0.1835289 -3.1905801
v 0.4479885 -0.51114035 -4.246117
v 0.88102937 -3.795033 -2.5590625
v 2.1891735 -2.9018862 -1.6478724
v 1.1065714 -0.06005621 -3.795033
v 1.1065714 -0.06005621 -3.795033
v 2.1891735 -2.9018862 -1.6478724
v 1.0343981 -2.2884119 -0.59233546
v 0.52918386 0.24668074 -3.2627535
v 0.52918386 0.24668074 -3.2627535
v 1.0343981 -2.2884119 -0.59233546
v -0.26472425 -3.1815584 -1.4945037
v -0.12037754 -0.2044034 -3.7228594
v -0.12037754 -0.2044034 -3.7228594
v -0.26472425 -3.1815584 -1.4945037
v 0.88102937 -3.795033 -2.5590625
v 0.4479885 -0.51114035 -4.246117
v -0.70678663 0.62559175 -4.0295963
v -3.2148142 0.65265656 -1.2870052
v -3.0163374 -1.1607015 -1.3862436
v -0.60754824 -0.27657652 -4.083727
v -0.60754824 -0.27657652 -4.083727
v -3.0163374 -1.1607015 -1.3862436
v -1.6540632 -1.0614631 -0.4028802
v 0.06907797 -0.22244644 -3.5875342
v 0.06907797 -0.22244644 -3.5875342
v -1.6540632 -1.0614631 -0.4028802
v -1.8615623 0.7428732 -0.3036418
v -0.030160427 0.67972183 -3.5424256
v -0.030160427 0.67972183 -3.5424256
v -1.8615623 0.7428732 -0.3036418
v -3.2148142 0.65265656 -1.2870052
v -0.70678663 0.62559175 -4.0295963
v 0.17733812 1.5187383 -3.7228594
v 0.02396965 4.36959 -1.3321135
v -1.013524 3.2148142 -0.3758154
v -0.3459196 0.94135046 -3.2447102
v -0.3459196 0.94135046 -3.2447102
v -1.013524 3.2148142 -0.3758154
v 0.36679363 2.5111232 0.26472425
v 0.3487501 0.5895047 -2.9199295
v 0.3487501 0.5895047 -2.9199295
v 0.36679363 2.5111232 0.26472425
v 1.4042871 3.6658983 -0.70059586
v 0.8629861 1.1668925 -3.398079
v 0.8629861 1.1668925 -3.398079
v 1.4042871 3.6658983 -0.70059586
v 0.02396965 4.36959 -1.3321135
v 0.17733812 1.5187383 -3.7228594
v -0.4722228 -0.123208046 -3.7769895
v -1.6450415 -1.2058101 1.6901503
v 1.1336365 -1.4313521 1.888627
v 0.91711617 -0.2314682 -3.677751
v 0.91711617 -0.2314682 -3.677751
v 1.1336365 -1.4313521 1.888627
v 1.3230917 1.1217842 2.1322126
v 1.007333 1.0405889 -3.5604692
v 1.007333 1.0405889 -3.5604692
v 1.3230917 1.1217842 2.1322126
v -1.4555864 1.3473263 1.9337354
v -0.3729844 1.148849 -3.6597075
v -0.3729844 1.148849 -3.6597075
v -1.4555864 1.3473263 1.9337354
v -1.6450415 -1.2058101 1.6901503
v -0.4722228 -0.123208046 -3.7769895
vt 0.16750212 0.693346
vt 0.22203408 0.7517731
vt 0.22203408 0.6816606
vt 0.22203408 0.6816606
vt 0.22203408 0.7517731
vt 0.2726709 0.693346
vt 0.16750212 0.693346
vt 0.22203408 0.7517731
vt 0.22203408 0.6816606
vt 0.22203408 0.6816606
vt 0.22203408 0.7517731
vt 0.2726709 0.693346
vt 0.16750212 0.693346
vt 0.22203408 0.7517731
vt 0.22203408 0.6816606
vt 0.22203408 0.6816606
vt 0.22203408 0.7517731
vt 0.2726709 0.693346
vt 0.16750212 0.693346
vt 0.22203408 0.7517731
vt 0.22203408 0.6816606
vt 0.22203408 0.6816606
vt 0.22203408 0.7517731
vt 0.2726709 0.693346
vt 0.16750212 0.693346
vt 0.22203408 0.7517731
vt 0.22203408 0.6816606
vt 0.22203408 0.6816606
vt 0.22203408 0.7517731
vt 0.2726709 0.693346
vt 0.16750212 0.693346
vt 0.22203408 0.7517731
vt 0.22203408 0.6816606
vt 0.22203408 0.6816606
vt 0.22203408 0.7517731
vt 0.2726709 0.693346
vt 0.16750212 0.693346
vt 0.22203408 0.7517731
vt 0.22203408 0.6816606
vt 0.22203408 0.6816606
vt 0.22203408 0.7517731
vt 0.2726709 0.693346
vt 0.16750212 0.693346
vt 0.22203408 0.7517731
vt 0.22203408 0.6816606
vt 0.22203408 0.6816606
vt 0.22203408 0.7517731
vt 0.2726709 0.693346
vt 0.16750212 0.693346
vt 0.22203408 0.7517731
vt 0.22203408 0.6816606
vt 0.22203408 0.6816606
vt 0.22203408 0.7517731
vt 0.2726709 0.693346
vt 0.16750212 0.693346
vt 0.22203408 0.7517731
vt 0.22203408 0.6816606
vt 0.22203408 0.6816606
vt 0.22203408 0.7517731
vt 0.2726709 0.693346
vt 0.1947681 0.5764918
vt 0.16750212 0.693346
vt 0.22203408 0.6816606
vt 0.22203408 0.57259667
vt 0.22203408 0.57259667
vt 0.22203408 0.6816606
vt 0.2726709 0.693346
vt 0.24540491 0.5764918
vt 0.1947681 0.5764918
vt 0.16750212 0.693346
vt 0.22203408 0.6816606
vt 0.22203408 0.57259667
vt 0.22203408 0.57259667
vt 0.22203408 0.6816606
vt 0.2726709 0.693346
vt 0.24540491 0.5764918
vt 0.1947681 0.5764918
vt 0.16750212 0.693346
vt 0.22203408 0.6816606
vt 0.22203408 0.57259667
vt 0.22203408 0.57259667
vt 0.22203408 0.6816606
vt 0.2726709 0.693346
vt 0.24540491 0.5764918
vt 0.1947681 0.5764918
vt 0.16750212 0.693346
vt 0.22203408 0.6816606
vt 0.22203408 0.57259667
vt 0.22203408 0.57259667
vt 0.22203408 0.6816606
vt 0.2726709 0.693346
vt 0.24540491 0.5764918
vt 0.1947681 0.5764918
vt 0.16750212 0.693346
vt 0.22203408 0.6816606
vt 0.22203408 0.57259667
vt 0.22203408 0.57259667
vt 0.22203408 0.6816606
vt 0.2726709 0.693346
vt 0.24540491 0.5764918
vt 0.1947681 0.5764918
vt 0.16750212 0.693346
vt 0.22203408 0.6816606
vt 0.22203408 0.57259667
vt 0.22203408 0.57259667
vt 0.22203408 0.6816606
vt 0.2726709 0.693346
vt 0.24540491 0.5764918
vt 0.1947681 0.5764918
vt 0.16750212 0.693346
vt 0.22203408 0.6816606
vt 0.22203408 0.57259667
vt 0.22203408 0.57259667
vt 0.22203408 0.6816606
vt 0.2726709 0.693346
vt 0.24540491 0.5764918
vt 0.1947681 0.5764918
vt 0.16750212 0.693346
vt 0.22203408 0.6816606
vt 0.22203408 0.57259667
vt 0.22203408 0.57259667
vt 0.22203408 0.6816606
vt 0.2726709 0.693346
vt 0.24540491 0.5764918
vt 0.1947681 0.5764918
vt 0.16750212 0.693346
vt 0.22203408 0.6816606
vt 0.22203408 0.57259667
vt 0.22203408 0.57259667
vt 0.22203408 0.6816606
vt 0.2726709 0.693346
vt 0.24540491 0.5764918
vt 0.1947681 0.5764918
vt 0.16750212 0.693346
vt 0.22203408 0.6816606
vt 0.22203408 0.57259667
vt 0.22203408 0.57259667
vt 0.22203408 0.6816606
vt 0.2726709 0.693346
vt 0.24540491 0.5764918
vn -0.36611968 -0.8042882 0.46805647
vn 0.5195944 -0.045104682 0.8532217
vn 0.8042882 -0.55122703 -0.2219668
vn 0.8042882 -0.55122703 -0.2219668
vn 0.5195944 -0.045104682 0.8532217
vn 0.60487735 0.79631865 -0
vn 0.60487735 0.79631865 -0
vn 0.5195944 -0.045104682 0.8532217
vn -0.55591553 0.5242829 0.6450468
vn -0.55591553 0.5242829 0.6450468
vn 0.5195944 -0.045104682 0.8532217
vn -0.36611968 -0.8042882 0.46805647
vn 0.01347208 -0.77265555 -0.63468254
vn 0.14000267 -0.8042882 0.57751167
vn 0.99408406 -0.108370006 -0.007268695
vn 0.99408406 -0.108370006 -0.007268695
vn 0.14000267 -0.8042882 0.57751167
vn 0.045104682 0.39775234 0.91638345
vn 0.045104682 0.39775234 0.91638345
vn 0.14000267 -0.8042882 0.57751167
vn -0.93550724 -0.2665332 0.23191862
vn -0.93550724 -0.2665332 0.23191862
vn 0.14000267 -0.8042882 0.57751167
vn 0.01347208 -0.77265555 -0.63468254
vn -0.77734405 0.61918086 -0.11113629
vn -0.5875482 -0.108370006 0.8018997
vn -0.61918086 -0.7410229 -0.25980785
vn -0.61918086 -0.7410229 -0.25980785
vn -0.5875482 -0.108370006 0.8018997
vn 0.5195944 -0.6777576 0.52025604
vn 0.5195944 -0.6777576 0.52025604
vn -0.5875482 -0.108370006 0.8018997
vn 0.36143118 0.6824462 0.6353225
vn 0.36143118 0.6824462 0.6353225
vn -0.5875482 -0.108370006 0.8018997
vn -0.77734405 0.61918086 -0.11113629
vn -0.17632383 0.87224203 -0.45618394
vn -0.018160641 0.6508135 0.7590204
vn -0.9671399 0.018160641 0.25359535
vn -0.9671399 0.018160641 0.25359535
vn -0.018160641 0.6508135 0.7590204
vn 0.17163527 -0.58285964 0.7942392
vn 0.17163527 -0.58285964 0.7942392
vn -0.018160641 0.6508135 0.7590204
vn 0.9538889 0.30016 -0
vn 0.9538889 0.30016 -0
vn -0.018160641 0.6508135 0.7590204
vn -0.17632383 0.87224203 -0.45618394
vn -0.7457114 -0.64612496 0.16259481
vn -0.081425846 -0.076737344 0.9937209
vn 0.6144923 -0.77265555 0.15938196
vn 0.6144923 -0.77265555 0.15938196
vn -0.081425846 -0.076737344 0.9937209
vn 0.7093903 0.61918086 0.3367202
vn 0.7093903 0.61918086 0.3367202
vn -0.081425846 -0.076737344 0.9937209
vn -0.6508135 0.7140787 0.25794056
vn -0.6508135 0.7140787 0.25794056
vn -0.081425846 -0.076737344 0.9937209
vn -0.7457114 -0.64612496 0.16259481
vn -0.5875482 -0.8042882 0.08892485
vn -0.36611968 -0.8042882 0.46805647
vn 0.8042882 -0.55122703 -0.2219668
vn 0.58285964 -0.55122703 -0.59701204
vn 0.58285964 -0.55122703 -0.59701204
vn 0.8042882 -0.55122703 -0.2219668
vn 0.60487735 0.79631865 -0
vn 0.39306378 0.8406094 -0.37266168
vn 0.39306378 0.8406094 -0.37266168
vn 0.60487735 0.79631865 -0
vn -0.55591553 0.5242829 0.6450468
vn -0.77734405 0.55591553 0.29443866
vn -0.77734405 0.55591553 0.29443866
vn -0.55591553 0.5242829 0.6450468
vn -0.36611968 -0.8042882 0.46805647
vn -0.5875482 -0.8042882 0.08892485
vn -0.049793184 -0.4563291 -0.88841677
vn 0.01347208 -0.77265555 -0.63468254
vn 0.99408406 -0.108370006 -0.007268695
vn 0.9624514 0.2079565 -0.17447467
vn 0.9624514 0.2079565 -0.17447467
vn 0.99408406 -0.108370006 -0.007268695
vn 0.045104682 0.39775234 0.91638345
vn 0.01347208 0.7140787 0.69993573
vn 0.01347208 0.7140787 0.69993573
vn 0.045104682 0.39775234 0.91638345
vn -0.93550724 -0.2665332 0.23191862
vn -0.99875957 0.049792536 -0
vn -0.99875957 0.049792536 -0
vn -0.93550724 -0.2665332 0.23191862
vn 0.01347208 -0.77265555 -0.63468254
vn -0.049793184 -0.4563291 -0.88841677
vn -0.55591553 0.6824462 -0.4745789
vn -0.77734405 0.61918086 -0.11113629
vn -0.61918086 -0.7410229 -0.25980785
vn -0.39775234 -0.7093903 -0.5818578
vn -0.39775234 -0.7093903 -0.5818578
vn -0.61918086 -0.7410229 -0.25980785
vn 0.5195944 -0.6777576 0.52025604
vn 0.7410229 -0.64612496 0.18277745
vn 0.7410229 -0.64612496 0.18277745
vn 0.5195944 -0.6777576 0.52025604
vn 0.36143118 0.6824462 0.6353225
vn 0.58285964 0.7457114 0.32278344
vn 0.58285964 0.7457114 0.32278344
vn 0.36143118 0.6824462 0.6353225
vn -0.77734405 0.61918086 -0.11113629
vn -0.55591553 0.6824462 -0.4745789
vn -0.17632383 0.61918086 -0.765196
vn -0.17632383 0.87224203 -0.45618394
vn -0.9671399 0.018160641 0.25359535
vn -0.96406007 -0.26568443 -0
vn -0.96406007 -0.26568443 -0
vn -0.9671399 0.018160641 0.25359535
vn 0.17163527 -0.58285964 0.7942392
vn 0.17163527 -0.8359208 0.5213231
vn 0.17163527 -0.8359208 0.5213231
vn 0.17163527 -0.58285964 0.7942392
vn 0.9538889 0.30016 -0
vn 0.9624514 0.049793184 -0.26684818
vn 0.9624514 0.049793184 -0.26684818
vn 0.9538889 0.30016 -0
vn -0.17632383 0.87224203 -0.45618394
vn -0.17632383 0.61918086 -0.765196
vn -0.7457114 -0.6144923 -0.25751454
vn -0.7457114 -0.64612496 0.16259481
vn 0.6144923 -0.77265555 0.15938196
vn 0.64612496 -0.7410229 -0.18277737
vn 0.64612496 -0.7410229 -0.18277737
vn 0.6144923 -0.77265555 0.15938196
vn 0.7093903 0.61918086 0.3367202
vn 0.7410229 0.6508135 -0.16530827
vn 0.7410229 0.6508135 -0.16530827
vn 0.7093903 0.61918086 0.3367202
vn -0.6508135 0.7140787 0.25794056
vn -0.61918086 0.77734405 -0.11113629
vn -0.61918086 0.77734405 -0.11113629
vn -0.6508135 0.7140787 0.25794056
vn -0.7457114 -0.64612496 0.16259481
vn -0.7457114 -0.6144923 -0.25751454
g Box038_0
f 3/3/3 2/2/2 1/1/1
f 6/6/6 5/5/5 4/4/4
f 9/9/9 8/8/8 7/7/7
f 12/12/12 11/11/11 10/10/10
f 15/15/15 14/14/14 13/13/13
f 18/18/18 17/17/17 16/16/16
f 21/21/21 20/20/20 19/19/19
f 24/24/24 23/23/23 22/22/22
f 27/27/27 26/26/26 25/25/25
f 30/30/30 29/29/29 28/28/28
f 33/33/33 32/32/32 31/31/31
f 36/36/36 35/35/35 34/34/34
f 39/39/39 38/38/38 37/37/37
f 42/42/42 41/41/41 40/40/40
f 45/45/45 44/44/44 43/43/43
f 48/48/48 47/47/47 46/46/46
f 51/51/51 50/50/50 49/49/49
f 54/54/54 53/53/53 52/52/52
f 57/57/57 56/56/56 55/55/55
f 60/60/60 59/59/59 58/58/58
f 63/63/63 62/62/62 61/61/61
f 64/64/64 63/63/63 61/61/61
f 67/67/67 66/66/66 65/65/65
f 68/68/68 67/67/67 65/65/65
f 71/71/71 70/70/70 69/69/69
f 72/72/72 71/71/71 69/69/69
f 75/75/75 74/74/74 73/73/73
f 76/76/76 75/75/75 73/73/73
f 79/79/79 78/78/78 77/77/77
f 80/80/80 79/79/79 77/77/77
f 83/83/83 82/82/82 81/81/81
f 84/84/84 83/83/83 81/81/81
f 87/87/87 86/86/86 85/85/85
f 88/88/88 87/87/87 85/85/85
f 91/91/91 90/90/90 89/89/89
f 92/92/92 91/91/91 89/89/89
f 95/95/95 94/94/94 93/93/93
f 96/96/96 95/95/95 93/93/93
f 99/99/99 98/98/98 97/97/97
f 100/100/100 99/99/99 97/97/97
f 103/103/103 102/102/102 101/101/101
f 104/104/104 103/103/103 101/101/101
f 107/107/107 106/106/106 105/105/105
f 108/108/108 107/107/107 105/105/105
f 111/111/111 110/110/110 109/109/109
f 112/112/112 111/111/111 109/109/109
f 115/115/115 114/114/114 113/113/113
f 116/116/116 115/115/115 113/113/113
f 119/119/119 118/118/118 117/117/117
f 120/120/120 119/119/119 117/117/117
f 123/123/123 122/122/122 121/121/121
f 124/124/124 123/123/123 121/121/121
f 127/127/127 126/126/126 125/125/125
f 128/128/128 127/127/127 125/125/125
f 131/131/131 130/130/130 129/129/129
f 132/132/132 131/131/131 129/129/129
f 135/135/135 134/134/134 133/133/133
f 136/136/136 135/135/135 133/133/133
f 139/139/139 138/138/138 137/137/137
f 140/140/140 139/139/139 137/137/137
