g Box01
v 0.075102985 0.38923502 0.032009024
v 0.10165548 0.3576405 1.8626451E-08
v 0.10390073 0.28847462 4.0978193E-08
v -0 0.37561125 1.1175871E-08
v -0 0.412197 0.055425752
v 0.05799991 0.3593266 1.8626451E-08
v 0.0905301 0.4310087 -3.7252903E-09
v -0 0.44750798 0.022703063
v 0.031101763 0.46641552 -1.8626451E-08
v -0 0.44750798 -0.022703093
v -0 0.412197 -0.055425752
v 0.10390073 0.28847462 4.0978193E-08
v 0.075102985 0.38923502 -0.03200902
v -0 0.37561125 1.1175871E-08
v 0.18942833 0.44497764 0.017198194
v 0.10165548 0.3576405 1.8626451E-08
v 0.18942833 0.44497764 -0.01719822
v 0.18943477 0.4221462 -3.7252903E-09
v 0.18942279 0.46960592 -1.8626451E-08
v 0.2287572 0.42898512 -3.7252903E-09
v 0.10390073 0.28847462 4.0978193E-08
v 0.10165548 0.3576405 1.8626451E-08
v 0.031101763 0.46641552 -1.8626451E-08
v -0 0.44750798 0.022703063
v -0 0.6965153 0.02194668
v -0 0.6965152 -0.021946888
v -0 0.44750798 -0.022703093
v -0 0.6965153 0.02194668
v 0.021504879 0.6974851 -1.0058284E-07
v -0 1.0103366 0.04132166
v 0.037037432 0.95318174 -2.0489097E-07
v -0.02150485 0.6974851 -1.0058284E-07
v -0.03703749 0.95318174 -2.0489097E-07
v -0 0.6965153 0.02194668
v -0.031101763 0.46641552 -1.8626451E-08
v -0 0.6965153 0.02194668
v -0 0.44750798 0.022703063
v -0 0.44750798 -0.022703093
v -0 0.6965152 -0.021946888
v -0.075103045 0.38923502 0.032009024
v -0.10390067 0.28847462 4.0978193E-08
v -0.10165548 0.3576405 1.8626451E-08
v -0 0.37561125 1.1175871E-08
v -0 0.412197 0.055425752
v -0.05799991 0.3593266 1.8626451E-08
v -0.09053016 0.4310087 -3.7252903E-09
v -0 0.44750798 0.022703063
v -0.031101763 0.46641552 -1.8626451E-08
v -0 0.44750798 -0.022703093
v -0 0.412197 -0.055425752
v -0.10390067 0.28847462 4.0978193E-08
v -0.075103045 0.38923502 -0.03200902
v -0 0.37561125 1.1175871E-08
v -0.18942833 0.44497764 0.017198194
v -0.10165548 0.3576405 1.8626451E-08
v -0.18942833 0.44497764 -0.01719822
v -0.1894347 0.4221462 -3.7252903E-09
v -0.18942279 0.46960592 -1.8626451E-08
v -0.2287572 0.42898512 -3.7252903E-09
v -0.10165548 0.3576405 1.8626451E-08
v -0.10390067 0.28847462 4.0978193E-08
v -0.031101763 0.46641552 -1.8626451E-08
v -0 0.6965152 -0.021946888
v -0.02150485 0.6974851 -1.0058284E-07
v -0 1.0103366 -0.04132211
v -0.03703749 0.95318174 -2.0489097E-07
v -0.03703749 0.95318174 -2.0489097E-07
v -0 1.0103366 0.04132166
v 0.037037432 0.95318174 -2.0489097E-07
v 0.021504879 0.6974851 -1.0058284E-07
v 0.037037432 0.95318174 -2.0489097E-07
v -0 0.6965152 -0.021946888
v 0.031101763 0.46641552 -1.8626451E-08
v 2.3841858E-07 0.2869454 0.018957715
v 2.3841858E-07 0.40840197 0.027371373
v 0.10082787 0.38866067 3.7252903E-09
v 0.08719522 0.31335437 3.3527613E-08
v 0.1359201 0.22504461 6.3329935E-08
v -0.100827396 0.38866067 3.7252903E-09
v -0.0871948 0.31335437 3.3527613E-08
v -0.13591981 0.22504461 6.3329935E-08
v 0.03304726 0.24941623 0.01895779
v 2.3841858E-07 0.1331827 0.016938355
v -0.03304681 0.24941623 0.01895779
v 0.12568825 0.12838602 9.313226E-08
v 2.3841858E-07 0.1331827 -0.016938169
v 0.03304726 0.24941617 -0.01895769
v 2.3841858E-07 0.2869454 -0.018957634
v 0.08719522 0.31335437 3.3527613E-08
v 0.10082787 0.38866067 3.7252903E-09
v 2.3841858E-07 0.40840197 -0.02737137
v -0.100827396 0.38866067 3.7252903E-09
v -0.0871948 0.31335437 3.3527613E-08
v -0.03304681 0.24941617 -0.01895769
v 0.12190348 -0.32025042 2.3469329E-07
v 2.3841858E-07 -0.3205033 0.013664287
v 2.3841858E-07 -0.3205033 -0.013663806
v -0.12190306 -0.32025042 2.3469329E-07
v -0.12568802 0.12838602 9.313226E-08
v 0.12365365 -0.90355575 4.2840838E-07
v 2.3841858E-07 -0.9040147 0.012409668
v 2.3841858E-07 -0.3205033 0.013664287
v 0.12190348 -0.32025042 2.3469329E-07
v -0.12190306 -0.32025042 2.3469329E-07
v 2.3841858E-07 -0.9040147 -0.012408812
v 2.3841858E-07 -0.3205033 -0.013663806
v -0.12365335 -0.90355575 4.2840838E-07
v 2.3841858E-07 -1.0922115 4.8801303E-07
v 2.3841858E-07 0.1331827 -0.016938169
v 0.03304726 0.24941617 -0.01895769
v 0.03304726 0.24941623 0.01895779
v 2.3841858E-07 0.1331827 0.016938355
v 2.3841858E-07 0.2869454 0.018957715
v -0.03304681 0.24941617 -0.01895769
v 2.3841858E-07 0.2869454 -0.018957634
v -0.03304681 0.24941623 0.01895779
vt 0.49060994 0.7983292
vt 0.56341225 0.71376765
vt 0.5184265 0.5794174
vt 0.34258547 0.677291
vt 0.3082289 0.8438322
vt 0.45926395 0.68420863
vt 0.506921 0.9107039
vt 0.29485726 0.9234142
vt 0.35342798 0.9784007
vt 0.29485726 0.9234142
vt 0.3082289 0.8438322
vt 0.5184265 0.5794174
vt 0.49060994 0.7983292
vt 0.34258547 0.677291
vt 0.753079 0.8994347
vt 0.56341225 0.71376765
vt 0.753079 0.8994347
vt 0.764424 0.8377651
vt 0.7418389 0.97812307
vt 0.88165766 0.87264115
vt 0.5184265 0.5794174
vt 0.56341225 0.71376765
vt 0.53239095 0.54410744
vt 0.4622533 0.573413
vt 0.46567878 0.30568707
vt 0.46567878 0.30568707
vt 0.4622533 0.573413
vt 0.46567878 0.30568707
vt 0.5298462 0.30789196
vt 0.4654201 0.025938617
vt 0.5409039 0.08465122
vt 0.5298462 0.30789196
vt 0.5409039 0.08465122
vt 0.46567878 0.30568707
vt 0.53239095 0.54410744
vt 0.46567878 0.30568707
vt 0.4622533 0.573413
vt 0.4622533 0.573413
vt 0.46567878 0.30568707
vt 0.49060994 0.7983292
vt 0.5184265 0.5794174
vt 0.56341225 0.71376765
vt 0.34258547 0.677291
vt 0.3082289 0.8438322
vt 0.45926395 0.68420863
vt 0.506921 0.9107039
vt 0.29485726 0.9234142
vt 0.35342798 0.9784007
vt 0.29485726 0.9234142
vt 0.3082289 0.8438322
vt 0.5184265 0.5794174
vt 0.49060994 0.7983292
vt 0.34258547 0.677291
vt 0.753079 0.8994347
vt 0.56341225 0.71376765
vt 0.753079 0.8994347
vt 0.764424 0.8377651
vt 0.7418389 0.97812307
vt 0.88165766 0.87264115
vt 0.56341225 0.71376765
vt 0.5184265 0.5794174
vt 0.53239095 0.54410744
vt 0.46567878 0.30568707
vt 0.5298462 0.30789196
vt 0.4654201 0.025938617
vt 0.5409039 0.08465122
vt 0.5409039 0.08465122
vt 0.5477446 0.011584269
vt 0.5409039 0.08465122
vt 0.5298462 0.30789196
vt 0.5409039 0.08465122
vt 0.46567878 0.30568707
vt 0.53239095 0.54410744
vt 0.77646726 0.10373999
vt 0.77646726 0.015170271
vt 0.9429514 0.021350265
vt 0.9161538 0.09142158
vt 0.97654694 0.16983482
vt 0.6086923 0.021350265
vt 0.6354898 0.09142158
vt 0.5748285 0.16983482
vt 0.82761973 0.16948089
vt 0.77646726 0.2571455
vt 0.7240239 0.16948089
vt 0.97654384 0.25797048
vt 0.7765373 0.2571455
vt 0.82898074 0.16948089
vt 0.7765373 0.10373999
vt 0.9175148 0.09142158
vt 0.94431233 0.021350265
vt 0.7765373 0.015170271
vt 0.6100532 0.021350265
vt 0.63685083 0.09142158
vt 0.7253849 0.16948089
vt 0.97654027 0.62648845
vt 0.77646965 0.62687135
vt 0.77653486 0.62687135
vt 0.5748349 0.62648845
vt 0.5748313 0.25797048
vt 0.4223113 0.5717857
vt 0.22224225 0.5763564
vt 0.22224535 0.02690864
vt 0.4223159 0.026525643
vt 0.02061053 0.026525643
vt 0.22231357 0.5763564
vt 0.22231053 0.02690864
vt 0.020614885 0.5717857
vt 0.22224693 0.7275628
vt 0.14383966 0.72063214
vt 0.1440916 0.8238692
vt 0.063189626 0.8243928
vt 0.06410092 0.72103494
vt 0.06250507 0.9404579
vt 0.1440916 0.8238692
vt 0.14340657 0.9399344
vt 0.063189626 0.8243928
vn 0.13805701 -0.17308751 0.97518253
vn 0.948134 -0.31787077 0
vn 0.29130968 -0.9566288 0
vn -0 -1 0
vn -0 -0.0147985 0.99989057
vn -0.5445439 -0.8387323 0
vn 0.05424625 0.9985275 0
vn -0 0.4749817 0.87999576
vn 0.84052193 0.54177755 0
vn -0 0.4749812 -0.87999594
vn -0 -0.014798882 -0.99989045
vn 0.29130968 -0.9566288 0
vn 0.13805701 -0.17308801 -0.9751824
vn -0 -1 0
vn 0.2091864 0.16005078 0.96468896
vn 0.948134 -0.31787077 0
vn 0.20918651 0.1600504 -0.9646891
vn 0.42410502 -0.905613 0
vn 0.16030426 0.98706764 0
vn 0.94408226 -0.32971013 0
vn 0.29130968 -0.9566288 0
vn 0.948134 -0.31787077 0
vn 0.84052193 0.54177755 0
vn -0 0.4749817 0.87999576
vn -0 -0.019655723 0.9998068
vn -0 -0.019656373 -0.9998068
vn -0 0.4749812 -0.87999594
vn -0 -0.019655723 0.9998068
vn 0.9997478 -0.022454891 0
vn -0 0.7200458 0.6939266
vn 0.9957632 0.091954686 0
vn -0.9997478 -0.022454951 0
vn -0.9957632 0.09195476 0
vn -0 -0.019655723 0.9998068
vn -0.8405218 0.54177773 0
vn -0 -0.019655723 0.9998068
vn -0 0.4749817 0.87999576
vn -0 0.4749812 -0.87999594
vn -0 -0.019656373 -0.9998068
vn -0.13805725 -0.17308745 0.9751824
vn -0.29130766 -0.95662946 0
vn -0.9481339 -0.31787115 0
vn -0 -1 0
vn -0 -0.0147985 0.99989057
vn 0.5445438 -0.83873236 0
vn -0.054245934 0.99852765 0
vn -0 0.4749817 0.87999576
vn -0.8405218 0.54177773 0
vn -0 0.4749812 -0.87999594
vn -0 -0.014798882 -0.99989045
vn -0.29130766 -0.95662946 0
vn -0.13805722 -0.17308785 -0.9751824
vn -0 -1 0
vn -0.20918636 0.16005063 0.9646891
vn -0.9481339 -0.31787115 0
vn -0.20918643 0.16005026 -0.9646891
vn -0.42410532 -0.9056129 0
vn -0.16030419 0.98706764 0
vn -0.94408214 -0.32971036 0
vn -0.9481339 -0.31787115 0
vn -0.29130766 -0.95662946 0
vn -0.8405218 0.54177773 0
vn -0 -0.019656373 -0.9998068
vn -0.9997478 -0.022454951 0
vn -0 0.72004557 -0.6939268
vn -0.9957632 0.09195476 0
vn -0.9957632 0.09195476 0
vn -0 0.7200458 0.6939266
vn 0.9957632 0.091954686 0
vn 0.9997478 -0.022454891 0
vn 0.9957632 0.091954686 0
vn -0 -0.019656373 -0.9998068
vn 0.84052193 0.54177755 0
vn -0 -0.3772045 0.92613006
vn -0 -0.05987183 0.99820614
vn 0.9720909 -0.23460422 0
vn 0.99222034 0.12449384 0
vn 0.99575716 0.0920194 0
vn -0.972091 -0.23460403 0
vn -0.9922202 0.124494575 0
vn -0.99575716 0.0920198 0
vn -0.4341241 -0.08099997 0.8972041
vn -0 0.13072048 0.9914193
vn 0.43412408 -0.08099992 0.8972042
vn 0.98702615 -0.16055977 0
vn -0 0.13071987 -0.9914193
vn -0.4341244 -0.08100021 -0.8972039
vn -0 -0.37720507 -0.9261297
vn 0.99222034 0.12449384 0
vn 0.9720909 -0.23460422 0
vn -0 -0.05987252 -0.998206
vn -0.972091 -0.23460403 0
vn -0.9922202 0.124494575 0
vn 0.43412435 -0.081000164 -0.897204
vn 0.99975663 -0.02206059 0
vn -0 -0.002527951 0.9999968
vn -0 -0.002528598 -0.9999968
vn -0.99975663 -0.022060676 0
vn -0.98702615 -0.16055983 0
vn 0.97010225 -0.24269643 0
vn -0 -0.03338846 0.9994424
vn -0 -0.002527951 0.9999968
vn 0.99975663 -0.02206059 0
vn -0.99975663 -0.022060676 0
vn -0 -0.0333891 -0.9994424
vn -0 -0.002528598 -0.9999968
vn -0.97010225 -0.2426966 0
vn -0 -1 0
vn -0 0.13071987 -0.9914193
vn -0.4341244 -0.08100021 -0.8972039
vn -0.4341241 -0.08099997 0.8972041
vn -0 0.13072048 0.9914193
vn -0 -0.3772045 0.92613006
vn 0.43412435 -0.081000164 -0.897204
vn -0 -0.37720507 -0.9261297
vn 0.43412408 -0.08099992 0.8972042
g Box01_0
f 3/3/3 2/2/2 1/1/1
f 5/5/5 4/4/4 1/1/1
f 4/4/4 6/6/6 1/1/1
f 7/7/7 5/5/5 1/1/1
f 5/5/5 7/7/7 8/8/8
f 7/7/7 9/9/9 8/8/8
f 10/10/10 9/9/9 7/7/7
f 11/11/11 10/10/10 7/7/7
f 6/6/6 12/12/12 1/1/1
f 12/12/12 6/6/6 13/13/13
f 11/11/11 7/7/7 13/13/13
f 13/13/13 6/6/6 14/14/14
f 11/11/11 13/13/13 14/14/14
f 1/1/1 15/15/15 7/7/7
f 15/15/15 1/1/1 16/16/16
f 16/16/16 13/13/13 17/17/17
f 13/13/13 7/7/7 17/17/17
f 18/18/18 15/15/15 16/16/16
f 18/18/18 16/16/16 17/17/17
f 15/15/15 19/19/19 7/7/7
f 7/7/7 19/19/19 17/17/17
f 18/18/18 20/20/20 15/15/15
f 20/20/20 18/18/18 17/17/17
f 15/15/15 20/20/20 19/19/19
f 20/20/20 17/17/17 19/19/19
f 22/22/22 21/21/21 13/13/13
f 25/25/25 24/24/24 23/23/23
f 23/23/23 27/27/27 26/26/26
f 29/29/29 28/28/28 23/23/23
f 30/30/30 28/28/28 29/29/29
f 31/31/31 30/30/30 29/29/29
f 33/33/33 32/32/32 30/30/30
f 32/32/32 34/34/34 30/30/30
f 32/32/32 35/35/35 34/34/34
f 35/35/35 37/37/37 36/36/36
f 39/39/39 38/38/38 35/35/35
f 42/42/42 41/41/41 40/40/40
f 44/44/44 40/40/40 43/43/43
f 40/40/40 45/45/45 43/43/43
f 44/44/44 46/46/46 40/40/40
f 44/44/44 47/47/47 46/46/46
f 47/47/47 48/48/48 46/46/46
f 46/46/46 48/48/48 49/49/49
f 50/50/50 46/46/46 49/49/49
f 51/51/51 45/45/45 40/40/40
f 45/45/45 51/51/51 52/52/52
f 46/46/46 50/50/50 52/52/52
f 53/53/53 45/45/45 52/52/52
f 50/50/50 53/53/53 52/52/52
f 40/40/40 46/46/46 54/54/54
f 55/55/55 40/40/40 54/54/54
f 56/56/56 52/52/52 55/55/55
f 52/52/52 56/56/56 46/46/46
f 57/57/57 55/55/55 54/54/54
f 57/57/57 56/56/56 55/55/55
f 46/46/46 58/58/58 54/54/54
f 56/56/56 58/58/58 46/46/46
f 59/59/59 57/57/57 54/54/54
f 59/59/59 54/54/54 58/58/58
f 56/56/56 59/59/59 58/58/58
f 57/57/57 59/59/59 56/56/56
f 61/61/61 60/60/60 52/52/52
f 64/64/64 63/63/63 62/62/62
f 65/65/65 63/63/63 64/64/64
f 66/66/66 65/65/65 64/64/64
f 68/68/68 65/65/65 67/67/67
f 68/68/68 69/69/69 65/65/65
f 71/71/71 70/70/70 65/65/65
f 70/70/70 72/72/72 65/65/65
f 70/70/70 73/73/73 72/72/72
f 76/76/76 75/75/75 74/74/74
f 77/77/77 76/76/76 74/74/74
f 78/78/78 77/77/77 74/74/74
f 74/74/74 75/75/75 79/79/79
f 80/80/80 74/74/74 79/79/79
f 80/80/80 81/81/81 74/74/74
f 82/82/82 78/78/78 74/74/74
f 78/78/78 82/82/82 83/83/83
f 81/81/81 84/84/84 74/74/74
f 83/83/83 84/84/84 81/81/81
f 85/85/85 78/78/78 83/83/83
f 85/85/85 86/86/86 78/78/78
f 86/86/86 87/87/87 78/78/78
f 78/78/78 87/87/87 88/88/88
f 89/89/89 78/78/78 88/88/88
f 89/89/89 88/88/88 90/90/90
f 88/88/88 91/91/91 90/90/90
f 92/92/92 91/91/91 88/88/88
f 93/93/93 92/92/92 88/88/88
f 81/81/81 93/93/93 88/88/88
f 94/94/94 81/81/81 88/88/88
f 81/81/81 94/94/94 86/86/86
f 85/85/85 83/83/83 95/95/95
f 85/85/85 95/95/95 86/86/86
f 83/83/83 96/96/96 95/95/95
f 95/95/95 97/97/97 86/86/86
f 98/98/98 96/96/96 83/83/83
f 86/86/86 97/97/97 98/98/98
f 99/99/99 83/83/83 81/81/81
f 99/99/99 98/98/98 83/83/83
f 99/99/99 81/81/81 86/86/86
f 99/99/99 86/86/86 98/98/98
f 102/102/102 101/101/101 100/100/100
f 103/103/103 102/102/102 100/100/100
f 102/102/102 104/104/104 101/101/101
f 103/103/103 100/100/100 105/105/105
f 106/106/106 103/103/103 105/105/105
f 104/104/104 106/106/106 107/107/107
f 104/104/104 107/107/107 101/101/101
f 106/106/106 105/105/105 107/107/107
f 101/101/101 108/108/108 100/100/100
f 108/108/108 101/101/101 107/107/107
f 105/105/105 108/108/108 107/107/107
f 108/108/108 105/105/105 100/100/100
f 111/111/111 110/110/110 109/109/109
f 112/112/112 111/111/111 109/109/109
f 111/111/111 113/113/113 110/110/110
f 112/112/112 109/109/109 114/114/114
f 113/113/113 115/115/115 110/110/110
f 116/116/116 112/112/112 114/114/114
f 116/116/116 114/114/114 115/115/115
f 113/113/113 116/116/116 115/115/115
