g bridge_04a_downside_01
v -1.062155 1.810396 0.184766
v -1.062155 1.117458 0.184766
v -1.062155 1.294068 0.483018
v -1.062155 1.810396 0.483018
v -1.062155 1.810396 0.483018
v -1.062155 1.294068 0.483018
v -1.360406 1.294068 0.483019
v -1.360406 1.810396 0.483019
v -1.360406 1.810396 0.483019
v -1.360406 1.294068 0.483019
v -1.360406 1.117458 0.184766
v -1.360406 1.810396 0.184766
v -1.062155 1.117458 0.184766
v -1.360406 1.117458 0.184766
v -1.360406 1.294068 0.483019
v -1.062155 1.294068 0.483018
v -1.360406 1.810396 0.184766
v -1.062155 1.810396 0.184766
v -1.062155 1.810396 0.483018
v -1.360406 1.810396 0.483019
v -1.386823 1.810396 0.116773
v -1.386823 1.117458 0.116773
v -1.685075 1.294068 0.116773
v -1.685075 1.810396 0.116773
v -1.685075 1.810396 0.116773
v -1.685075 1.294068 0.116773
v -1.685075 1.294068 -0.181478
v -1.685075 1.810396 -0.181478
v -1.685075 1.810396 -0.181478
v -1.685075 1.294068 -0.181478
v -1.386823 1.117458 -0.181478
v -1.386823 1.810396 -0.181478
v -1.386823 1.117458 0.116773
v -1.386823 1.117458 -0.181478
v -1.685075 1.294068 -0.181478
v -1.685075 1.294068 0.116773
v -1.386823 1.810396 -0.181478
v -1.386823 1.810396 0.116773
v -1.685075 1.810396 0.116773
v -1.685075 1.810396 -0.181478
v -1.360409 1.810396 -0.253311
v -1.360409 1.117458 -0.253311
v -1.360409 1.294068 -0.551563
v -1.360409 1.810396 -0.551563
v -1.360409 1.810396 -0.551563
v -1.360409 1.294068 -0.551563
v -1.062158 1.294068 -0.551563
v -1.062158 1.810396 -0.551563
v -1.062158 1.810396 -0.551563
v -1.062158 1.294068 -0.551563
v -1.062158 1.117458 -0.253311
v -1.062158 1.810396 -0.253311
v -1.360409 1.117458 -0.253311
v -1.062158 1.117458 -0.253311
v -1.062158 1.294068 -0.551563
v -1.360409 1.294068 -0.551563
v -1.062158 1.810396 -0.253311
v -1.360409 1.810396 -0.253311
v -1.360409 1.810396 -0.551563
v -1.062158 1.810396 -0.551563
v 1.117634 1.810396 -0.252031
v 1.117634 1.117458 -0.252031
v 1.117634 1.294068 -0.550283
v 1.117634 1.810396 -0.550283
v 1.117634 1.810396 -0.550283
v 1.117634 1.294068 -0.550283
v 1.415885 1.294068 -0.550283
v 1.415885 1.810396 -0.550283
v 1.415885 1.810396 -0.550283
v 1.415885 1.294068 -0.550283
v 1.415885 1.117458 -0.252031
v 1.415885 1.810396 -0.252031
v 1.117634 1.117458 -0.252031
v 1.415885 1.117458 -0.252031
v 1.415885 1.294068 -0.550283
v 1.117634 1.294068 -0.550283
v 1.415885 1.810396 -0.252031
v 1.117634 1.810396 -0.252031
v 1.117634 1.810396 -0.550283
v 1.415885 1.810396 -0.550283
v 1.442302 1.810396 -0.184037
v 1.442302 1.117458 -0.184037
v 1.740554 1.294068 -0.184037
v 1.740554 1.810396 -0.184037
v 1.740554 1.810396 -0.184037
v 1.740554 1.294068 -0.184037
v 1.740554 1.294068 0.114214
v 1.740554 1.810396 0.114214
v 1.740554 1.810396 0.114214
v 1.740554 1.294068 0.114214
v 1.442302 1.117458 0.114214
v 1.442302 1.810396 0.114214
v 1.442302 1.117458 -0.184037
v 1.442302 1.117458 0.114214
v 1.740554 1.294068 0.114214
v 1.740554 1.294068 -0.184037
v 1.442302 1.810396 0.114214
v 1.442302 1.810396 -0.184037
v 1.740554 1.810396 -0.184037
v 1.740554 1.810396 0.114214
v 1.415887 1.810396 0.186046
v 1.415887 1.117458 0.186046
v 1.415887 1.294068 0.484298
v 1.415887 1.810396 0.484298
v 1.415887 1.810396 0.484298
v 1.415887 1.294068 0.484298
v 1.117636 1.294068 0.484298
v 1.117636 1.810396 0.484298
v 1.117636 1.810396 0.484298
v 1.117636 1.294068 0.484298
v 1.117636 1.117458 0.186046
v 1.117636 1.810396 0.186046
v 1.415887 1.117458 0.186046
v 1.117636 1.117458 0.186046
v 1.117636 1.294068 0.484298
v 1.415887 1.294068 0.484298
v 1.117636 1.810396 0.186046
v 1.415887 1.810396 0.186046
v 1.415887 1.810396 0.484298
v 1.117636 1.810396 0.484298
v -0.636813 1.878296 0.132074
v -1.203396 1.033353 0.132074
v -1.215454 1.878296 0.132074
v -0.625172 1.323842 0.132074
v -0.353469 1.878296 0.132073
v -0.343282 1.405508 0.132073
v -0.070125 1.878296 0.132073
v -0.070125 1.432365 0.132073
v -0.353469 1.878296 -0.235683
v -0.070125 1.432365 -0.235684
v -0.070125 1.878296 -0.235684
v -0.343282 1.405508 -0.235683
v -0.636813 1.878296 -0.235683
v -0.625172 1.323842 -0.235683
v -1.215454 1.878296 -0.235683
v -1.203396 1.033353 -0.235683
v -0.343282 1.405508 -0.235683
v -0.070125 1.432365 0.132073
v -0.070125 1.432365 -0.235684
v -0.343282 1.405508 0.132073
v -0.625172 1.323842 -0.235683
v -0.625172 1.323842 0.132074
v -1.203396 1.033353 -0.235683
v -1.203396 1.033353 0.132074
v -0.353469 1.878296 0.132073
v -0.070125 1.878296 -0.235684
v -0.070125 1.878296 0.132073
v -0.353469 1.878296 -0.235683
v -0.636813 1.878296 0.132074
v -0.636813 1.878296 -0.235683
v -1.215454 1.878296 0.132074
v -1.215454 1.878296 -0.235683
v 0.496564 1.878296 0.132073
v 1.075205 1.878296 0.132073
v 1.063147 1.033353 0.132073
v 0.484923 1.323842 0.132073
v 0.213219 1.878296 0.132073
v 0.203032 1.405508 0.132073
v -0.070125 1.878296 0.132073
v -0.070125 1.432365 0.132073
v 0.213219 1.878296 -0.235684
v -0.070125 1.878296 -0.235684
v -0.070125 1.432365 -0.235684
v 0.203032 1.405508 -0.235684
v 0.496564 1.878296 -0.235684
v 0.484923 1.323842 -0.235684
v 1.075205 1.878296 -0.235685
v 1.063147 1.033353 -0.235684
v 0.203032 1.405508 -0.235684
v -0.070125 1.432365 -0.235684
v -0.070125 1.432365 0.132073
v 0.203032 1.405508 0.132073
v 0.484923 1.323842 -0.235684
v 0.484923 1.323842 0.132073
v 1.063147 1.033353 -0.235684
v 1.063147 1.033353 0.132073
v 0.213219 1.878296 0.132073
v -0.070125 1.878296 0.132073
v -0.070125 1.878296 -0.235684
v 0.213219 1.878296 -0.235684
v 0.496564 1.878296 0.132073
v 0.496564 1.878296 -0.235684
v 1.075205 1.878296 0.132073
v 1.075205 1.878296 -0.235685
v -1.54236 1.84216 -0.341856
v -0.892931 1.84216 -0.341856
v -0.892931 1.84216 0.309956
v -1.54236 1.84216 0.309956
v -0.892931 0.133272 -0.341856
v -1.54236 0.133272 -0.341856
v -1.54236 0.133272 0.309956
v -0.892931 0.133272 0.309956
v -1.54236 1.84216 -0.341856
v -1.54236 0.133272 -0.341856
v -0.892931 0.133272 -0.341856
v -0.892931 1.84216 -0.341856
v -1.54236 1.84216 0.309956
v -1.54236 0.133272 0.309956
v -1.54236 0.133272 -0.341856
v -1.54236 1.84216 -0.341856
v -0.892931 1.84216 0.309956
v -0.892931 0.133272 0.309956
v -1.54236 0.133272 0.309956
v -1.54236 1.84216 0.309956
v -0.892931 1.84216 -0.341856
v -0.892931 0.133272 -0.341856
v -0.892931 0.133272 0.309956
v -0.892931 1.84216 0.309956
v -1.612344 0.163628 -0.412095
v -0.822949 0.163628 -0.412095
v -0.822949 0.163628 0.380196
v -1.612344 0.163628 0.380196
v -0.822949 -0.054626 -0.412095
v -1.612344 -0.054626 -0.412095
v -1.612344 -0.054626 0.380196
v -0.822949 -0.054626 0.380196
v -1.612344 0.163628 -0.412095
v -1.612344 -0.054626 -0.412095
v -0.822949 -0.054626 -0.412095
v -0.822949 0.163628 -0.412095
v -1.612344 0.163628 0.380196
v -1.612344 -0.054626 0.380196
v -1.612344 -0.054626 -0.412095
v -1.612344 0.163628 -0.412095
v -0.822949 0.163628 0.380196
v -0.822949 -0.054626 0.380196
v -1.612344 -0.054626 0.380196
v -1.612344 0.163628 0.380196
v -0.822949 0.163628 -0.412095
v -0.822949 -0.054626 -0.412095
v -0.822949 -0.054626 0.380196
v -0.822949 0.163628 0.380196
v 1.637155 0.163628 -0.412095
v 1.637155 -0.054626 -0.412095
v 1.637155 -0.054626 0.380196
v 1.637155 0.163628 0.380196
v 1.637155 0.163628 0.380196
v 1.637155 -0.054626 0.380196
v 0.84776 -0.054626 0.380196
v 0.84776 0.163628 0.380196
v 0.84776 0.163628 0.380196
v 0.84776 -0.054626 0.380196
v 0.84776 -0.054626 -0.412095
v 0.84776 0.163628 -0.412095
v 0.84776 0.163628 -0.412095
v 0.84776 -0.054626 -0.412095
v 1.637155 -0.054626 -0.412095
v 1.637155 0.163628 -0.412095
v 1.637155 -0.054626 -0.412095
v 0.84776 -0.054626 -0.412095
v 0.84776 -0.054626 0.380196
v 1.637155 -0.054626 0.380196
v 0.84776 0.163628 -0.412095
v 1.637155 0.163628 -0.412095
v 1.637155 0.163628 0.380196
v 0.84776 0.163628 0.380196
v 1.567173 1.84216 -0.341856
v 1.567173 0.133272 -0.341856
v 1.567173 0.133272 0.309956
v 1.567173 1.84216 0.309956
v 1.567173 1.84216 0.309956
v 1.567173 0.133272 0.309956
v 0.917744 0.133272 0.309956
v 0.917744 1.84216 0.309956
v 0.917744 1.84216 0.309956
v 0.917744 0.133272 0.309956
v 0.917744 0.133272 -0.341856
v 0.917744 1.84216 -0.341856
v 0.917744 1.84216 -0.341856
v 0.917744 0.133272 -0.341856
v 1.567173 0.133272 -0.341856
v 1.567173 1.84216 -0.341856
v 1.567173 0.133272 -0.341856
v 0.917744 0.133272 -0.341856
v 0.917744 0.133272 0.309956
v 1.567173 0.133272 0.309956
v 0.917744 1.84216 -0.341856
v 1.567173 1.84216 -0.341856
v 1.567173 1.84216 0.309956
v 0.917744 1.84216 0.309956
vt 0.987265 0.655472
vt 0.802113 0.655472
vt 0.802113 0.548968
vt 0.987265 0.548968
vt 0.987265 0.548968
vt 0.802113 0.548968
vt 0.802113 0.442462
vt 0.987265 0.442462
vt 0.987265 0.655472
vt 0.802113 0.655472
vt 0.802113 0.548968
vt 0.987265 0.548968
vt 0.694743 0.566921
vt 0.694743 0.655826
vt 0.783649 0.655826
vt 0.783649 0.566921
vt 0.693381 0.445309
vt 0.693381 0.551878
vt 0.792386 0.551878
vt 0.792386 0.445309
vt 0.987265 0.655472
vt 0.802113 0.655472
vt 0.802113 0.548968
vt 0.987265 0.548968
vt 0.987265 0.548968
vt 0.802113 0.548968
vt 0.802113 0.442462
vt 0.987265 0.442462
vt 0.987265 0.655472
vt 0.802113 0.655472
vt 0.802113 0.548968
vt 0.987265 0.548968
vt 0.694743 0.566921
vt 0.694743 0.655826
vt 0.783649 0.655826
vt 0.783649 0.566921
vt 0.693381 0.445309
vt 0.693381 0.551878
vt 0.792386 0.551878
vt 0.792386 0.445309
vt 0.987265 0.655472
vt 0.802113 0.655472
vt 0.802113 0.548968
vt 0.987265 0.548968
vt 0.987265 0.548968
vt 0.802113 0.548968
vt 0.802113 0.442462
vt 0.987265 0.442462
vt 0.987265 0.655472
vt 0.802113 0.655472
vt 0.802113 0.548968
vt 0.987265 0.548968
vt 0.694743 0.566921
vt 0.694743 0.655826
vt 0.783649 0.655826
vt 0.783649 0.566921
vt 0.693381 0.445309
vt 0.693381 0.551878
vt 0.792386 0.551878
vt 0.792386 0.445309
vt 0.987265 0.655472
vt 0.802113 0.655472
vt 0.802113 0.548968
vt 0.987265 0.548968
vt 0.987265 0.548968
vt 0.802113 0.548968
vt 0.802113 0.442462
vt 0.987265 0.442462
vt 0.987265 0.655472
vt 0.802113 0.655472
vt 0.802113 0.548968
vt 0.987265 0.548968
vt 0.694743 0.566921
vt 0.694743 0.655826
vt 0.783649 0.655826
vt 0.783649 0.566921
vt 0.693381 0.445309
vt 0.693381 0.551878
vt 0.792386 0.551878
vt 0.792386 0.445309
vt 0.987265 0.655472
vt 0.802113 0.655472
vt 0.802113 0.548968
vt 0.987265 0.548968
vt 0.987265 0.548968
vt 0.802113 0.548968
vt 0.802113 0.442462
vt 0.987265 0.442462
vt 0.987265 0.655472
vt 0.802113 0.655472
vt 0.802113 0.548968
vt 0.987265 0.548968
vt 0.694743 0.566921
vt 0.694743 0.655826
vt 0.783649 0.655826
vt 0.783649 0.566921
vt 0.693381 0.445309
vt 0.693381 0.551878
vt 0.792386 0.551878
vt 0.792386 0.445309
vt 0.987265 0.655472
vt 0.802113 0.655472
vt 0.802113 0.548968
vt 0.987265 0.548968
vt 0.987265 0.548968
vt 0.802113 0.548968
vt 0.802113 0.442462
vt 0.987265 0.442462
vt 0.987265 0.655472
vt 0.802113 0.655472
vt 0.802113 0.548968
vt 0.987265 0.548968
vt 0.694743 0.566921
vt 0.694743 0.655826
vt 0.783649 0.655826
vt 0.783649 0.566921
vt 0.693381 0.445309
vt 0.693381 0.551878
vt 0.792386 0.551878
vt 0.792386 0.445309
vt 0.294666 0.822221
vt 0.444576 0.737185
vt 0.444576 0.822221
vt 0.294666 0.737185
vt 0.216942 0.822221
vt 0.216942 0.737185
vt 0.139219 0.822221
vt 0.139219 0.737185
vt 0.216942 0.897707
vt 0.139219 0.983431
vt 0.139219 0.897707
vt 0.216942 0.983431
vt 0.294666 0.897707
vt 0.294666 0.983431
vt 0.444576 0.897707
vt 0.444576 0.983431
vt 0.338854 0.708667
vt 0.39477 0.658549
vt 0.39477 0.708667
vt 0.338854 0.658549
vt 0.282938 0.708667
vt 0.282938 0.658549
vt 0.174634 0.708667
vt 0.174634 0.658549
vt 0.216942 0.822221
vt 0.139219 0.897707
vt 0.139219 0.822221
vt 0.216942 0.897707
vt 0.294666 0.822221
vt 0.294666 0.897707
vt 0.444576 0.822221
vt 0.444576 0.897707
vt 0.294666 0.822221
vt 0.444576 0.822221
vt 0.444576 0.737185
vt 0.294666 0.737185
vt 0.216942 0.822221
vt 0.216942 0.737185
vt 0.139219 0.822221
vt 0.139219 0.737185
vt 0.216942 0.897707
vt 0.139219 0.897707
vt 0.139219 0.983431
vt 0.216942 0.983431
vt 0.294666 0.897707
vt 0.294666 0.983431
vt 0.444576 0.897707
vt 0.444576 0.983431
vt 0.338854 0.708667
vt 0.39477 0.708667
vt 0.39477 0.658549
vt 0.338854 0.658549
vt 0.282938 0.708667
vt 0.282938 0.658549
vt 0.174634 0.708667
vt 0.174634 0.658549
vt 0.216942 0.822221
vt 0.139219 0.822221
vt 0.139219 0.897707
vt 0.216942 0.897707
vt 0.294666 0.822221
vt 0.294666 0.897707
vt 0.444576 0.822221
vt 0.444576 0.897707
vt 0.693381 0.445309
vt 0.693381 0.551878
vt 0.792386 0.551878
vt 0.792386 0.445309
vt 0.694743 0.566921
vt 0.694743 0.655826
vt 0.783649 0.655826
vt 0.783649 0.566921
vt 0.987265 0.548968
vt 0.802113 0.548968
vt 0.802113 0.442462
vt 0.987265 0.442462
vt 0.987265 0.655472
vt 0.802113 0.655472
vt 0.802113 0.548968
vt 0.987265 0.548968
vt 0.987265 0.548968
vt 0.802113 0.548968
vt 0.802113 0.442462
vt 0.987265 0.442462
vt 0.987265 0.655472
vt 0.802113 0.655472
vt 0.802113 0.548968
vt 0.987265 0.548968
vt 0.693381 0.445309
vt 0.693381 0.551878
vt 0.792386 0.551878
vt 0.792386 0.445309
vt 0.694743 0.566921
vt 0.694743 0.655826
vt 0.783649 0.655826
vt 0.783649 0.566921
vt 0.902063 0.548968
vt 0.841908 0.548968
vt 0.841908 0.442462
vt 0.902063 0.442462
vt 0.902063 0.655472
vt 0.841908 0.655472
vt 0.841908 0.548968
vt 0.902063 0.548968
vt 0.902063 0.548968
vt 0.841908 0.548968
vt 0.841908 0.442462
vt 0.902063 0.442462
vt 0.902063 0.655472
vt 0.841908 0.655472
vt 0.841908 0.548968
vt 0.902063 0.548968
vt 0.902063 0.655472
vt 0.841908 0.655472
vt 0.841908 0.548968
vt 0.902063 0.548968
vt 0.902063 0.548968
vt 0.841908 0.548968
vt 0.841908 0.442462
vt 0.902063 0.442462
vt 0.902063 0.655472
vt 0.841908 0.655472
vt 0.841908 0.548968
vt 0.902063 0.548968
vt 0.902063 0.548968
vt 0.841908 0.548968
vt 0.841908 0.442462
vt 0.902063 0.442462
vt 0.694743 0.566921
vt 0.694743 0.655826
vt 0.783649 0.655826
vt 0.783649 0.566921
vt 0.693381 0.445309
vt 0.693381 0.551878
vt 0.792386 0.551878
vt 0.792386 0.445309
vt 0.987265 0.655472
vt 0.802113 0.655472
vt 0.802113 0.548968
vt 0.987265 0.548968
vt 0.987265 0.548968
vt 0.802113 0.548968
vt 0.802113 0.442462
vt 0.987265 0.442462
vt 0.987265 0.655472
vt 0.802113 0.655472
vt 0.802113 0.548968
vt 0.987265 0.548968
vt 0.987265 0.548968
vt 0.802113 0.548968
vt 0.802113 0.442462
vt 0.987265 0.442462
vt 0.694743 0.566921
vt 0.694743 0.655826
vt 0.783649 0.655826
vt 0.783649 0.566921
vt 0.693381 0.445309
vt 0.693381 0.551878
vt 0.792386 0.551878
vt 0.792386 0.445309
vn 1 0 0
vn 1 0 0
vn 1 0 0
vn 1 0 0
vn -0 0 1
vn -0 0 1
vn -0 0 1
vn -0 0 1
vn -1 0 0
vn -1 0 0
vn -1 0 0
vn -1 0 0
vn -0 -0.86045885 0.5095199
vn -0 -0.86045885 0.5095199
vn -0 -0.86045885 0.5095199
vn -0 -0.86045885 0.5095199
vn -0 1 0
vn -0 1 0
vn -0 1 0
vn -0 1 0
vn -0 0 1
vn -0 0 1
vn -0 0 1
vn -0 0 1
vn -1 0 0
vn -1 0 0
vn -1 0 0
vn -1 0 0
vn -0 0 -1
vn -0 0 -1
vn -0 0 -1
vn -0 0 -1
vn -0.5095199 -0.86045885 0
vn -0.5095199 -0.86045885 0
vn -0.5095199 -0.86045885 0
vn -0.5095199 -0.86045885 0
vn -0 1 0
vn -0 1 0
vn -0 1 0
vn -0 1 0
vn -1 0 0
vn -1 0 0
vn -1 0 0
vn -1 0 0
vn -0 0 -1
vn -0 0 -1
vn -0 0 -1
vn -0 0 -1
vn 1 0 0
vn 1 0 0
vn 1 0 0
vn 1 0 0
vn -0 -0.86045885 -0.5095199
vn -0 -0.86045885 -0.5095199
vn -0 -0.86045885 -0.5095199
vn -0 -0.86045885 -0.5095199
vn -0 1 0
vn -0 1 0
vn -0 1 0
vn -0 1 0
vn -1 0 0
vn -1 0 0
vn -1 0 0
vn -1 0 0
vn -0 0 -1
vn -0 0 -1
vn -0 0 -1
vn -0 0 -1
vn 1 0 0
vn 1 0 0
vn 1 0 0
vn 1 0 0
vn -0 -0.86045885 -0.5095199
vn -0 -0.86045885 -0.5095199
vn -0 -0.86045885 -0.5095199
vn -0 -0.86045885 -0.5095199
vn -0 1 0
vn -0 1 0
vn -0 1 0
vn -0 1 0
vn -0 0 -1
vn -0 0 -1
vn -0 0 -1
vn -0 0 -1
vn 1 0 0
vn 1 0 0
vn 1 0 0
vn 1 0 0
vn -0 0 1
vn -0 0 1
vn -0 0 1
vn -0 0 1
vn 0.5095199 -0.86045885 0
vn 0.5095199 -0.86045885 0
vn 0.5095199 -0.86045885 0
vn 0.5095199 -0.86045885 0
vn -0 1 0
vn -0 1 0
vn -0 1 0
vn -0 1 0
vn 1 0 0
vn 1 0 0
vn 1 0 0
vn 1 0 0
vn -0 0 1
vn -0 0 1
vn -0 0 1
vn -0 0 1
vn -1 0 0
vn -1 0 0
vn -1 0 0
vn -1 0 0
vn -0 -0.86045885 0.5095199
vn -0 -0.86045885 0.5095199
vn -0 -0.86045885 0.5095199
vn -0 -0.86045885 0.5095199
vn -0 1 0
vn -0 1 0
vn -0 1 0
vn -0 1 0
vn -0 0 1
vn -0 0 1
vn -0 0 1
vn -0 0 1
vn -0 0 1
vn -0 0 1
vn -0 0 1
vn -0 0 1
vn -0 0 -1
vn -0 0 -1
vn -0 0 -1
vn -0 0 -1
vn -0 0 -1
vn -0 0 -1
vn -0 0 -1
vn -0 0 -1
vn 0.18885498 -0.9820049 0
vn -0 -1 0
vn -0 -1 0
vn 0.18885498 -0.9820049 0
vn 0.36512813 -0.93095726 0
vn 0.36512813 -0.93095726 0
vn 0.44891602 -0.893574 0
vn 0.44891602 -0.893574 0
vn -0 1 0
vn -0 1 0
vn -0 1 0
vn -0 1 0
vn -0 1 0
vn -0 1 0
vn -0 1 0
vn -0 1 0
vn -0 0 1
vn -0 0 1
vn -0 0 1
vn -0 0 1
vn -0 0 1
vn -0 0 1
vn -0 0 1
vn -0 0 1
vn -0 0 -1
vn -0 0 -1
vn -0 0 -1
vn -0 0 -1
vn -0 0 -1
vn -0 0 -1
vn -0 0 -1
vn -0 0 -1
vn -0.18885498 -0.9820049 0
vn -0 -1 0
vn -0 -1 0
vn -0.18885498 -0.9820049 0
vn -0.36512813 -0.93095726 0
vn -0.36512813 -0.93095726 0
vn -0.44891602 -0.893574 0
vn -0.44891602 -0.893574 0
vn -0 1 0
vn -0 1 0
vn -0 1 0
vn -0 1 0
vn -0 1 0
vn -0 1 0
vn -0 1 0
vn -0 1 0
vn -0 1 0
vn -0 1 0
vn -0 1 0
vn -0 1 0
vn -0 -1 0
vn -0 -1 0
vn -0 -1 0
vn -0 -1 0
vn -0 0 -1
vn -0 0 -1
vn -0 0 -1
vn -0 0 -1
vn -1 0 0
vn -1 0 0
vn -1 0 0
vn -1 0 0
vn -0 0 1
vn -0 0 1
vn -0 0 1
vn -0 0 1
vn 1 0 0
vn 1 0 0
vn 1 0 0
vn 1 0 0
vn -0 1 0
vn -0 1 0
vn -0 1 0
vn -0 1 0
vn -0 -1 0
vn -0 -1 0
vn -0 -1 0
vn -0 -1 0
vn -0 0 -1
vn -0 0 -1
vn -0 0 -1
vn -0 0 -1
vn -1 0 0
vn -1 0 0
vn -1 0 0
vn -1 0 0
vn -0 0 1
vn -0 0 1
vn -0 0 1
vn -0 0 1
vn 1 0 0
vn 1 0 0
vn 1 0 0
vn 1 0 0
vn 1 0 0
vn 1 0 0
vn 1 0 0
vn 1 0 0
vn -0 0 1
vn -0 0 1
vn -0 0 1
vn -0 0 1
vn -1 0 0
vn -1 0 0
vn -1 0 0
vn -1 0 0
vn -0 0 -1
vn -0 0 -1
vn -0 0 -1
vn -0 0 -1
vn -0 -1 0
vn -0 -1 0
vn -0 -1 0
vn -0 -1 0
vn -0 1 0
vn -0 1 0
vn -0 1 0
vn -0 1 0
vn 1 0 0
vn 1 0 0
vn 1 0 0
vn 1 0 0
vn -0 0 1
vn -0 0 1
vn -0 0 1
vn -0 0 1
vn -1 0 0
vn -1 0 0
vn -1 0 0
vn -1 0 0
vn -0 0 -1
vn -0 0 -1
vn -0 0 -1
vn -0 0 -1
vn -0 -1 0
vn -0 -1 0
vn -0 -1 0
vn -0 -1 0
vn -0 1 0
vn -0 1 0
vn -0 1 0
vn -0 1 0
g bridge_04a_downside_01_0
f 3/3/3 2/2/2 1/1/1
f 4/4/4 3/3/3 1/1/1
f 7/7/7 6/6/6 5/5/5
f 8/8/8 7/7/7 5/5/5
f 11/11/11 10/10/10 9/9/9
f 12/12/12 11/11/11 9/9/9
f 15/15/15 14/14/14 13/13/13
f 16/16/16 15/15/15 13/13/13
f 19/19/19 18/18/18 17/17/17
f 20/20/20 19/19/19 17/17/17
f 23/23/23 22/22/22 21/21/21
f 24/24/24 23/23/23 21/21/21
f 27/27/27 26/26/26 25/25/25
f 28/28/28 27/27/27 25/25/25
f 31/31/31 30/30/30 29/29/29
f 32/32/32 31/31/31 29/29/29
f 35/35/35 34/34/34 33/33/33
f 36/36/36 35/35/35 33/33/33
f 39/39/39 38/38/38 37/37/37
f 40/40/40 39/39/39 37/37/37
f 43/43/43 42/42/42 41/41/41
f 44/44/44 43/43/43 41/41/41
f 47/47/47 46/46/46 45/45/45
f 48/48/48 47/47/47 45/45/45
f 51/51/51 50/50/50 49/49/49
f 52/52/52 51/51/51 49/49/49
f 55/55/55 54/54/54 53/53/53
f 56/56/56 55/55/55 53/53/53
f 59/59/59 58/58/58 57/57/57
f 60/60/60 59/59/59 57/57/57
f 63/63/63 62/62/62 61/61/61
f 64/64/64 63/63/63 61/61/61
f 67/67/67 66/66/66 65/65/65
f 68/68/68 67/67/67 65/65/65
f 71/71/71 70/70/70 69/69/69
f 72/72/72 71/71/71 69/69/69
f 75/75/75 74/74/74 73/73/73
f 76/76/76 75/75/75 73/73/73
f 79/79/79 78/78/78 77/77/77
f 80/80/80 79/79/79 77/77/77
f 83/83/83 82/82/82 81/81/81
f 84/84/84 83/83/83 81/81/81
f 87/87/87 86/86/86 85/85/85
f 88/88/88 87/87/87 85/85/85
f 91/91/91 90/90/90 89/89/89
f 92/92/92 91/91/91 89/89/89
f 95/95/95 94/94/94 93/93/93
f 96/96/96 95/95/95 93/93/93
f 99/99/99 98/98/98 97/97/97
f 100/100/100 99/99/99 97/97/97
f 103/103/103 102/102/102 101/101/101
f 104/104/104 103/103/103 101/101/101
f 107/107/107 106/106/106 105/105/105
f 108/108/108 107/107/107 105/105/105
f 111/111/111 110/110/110 109/109/109
f 112/112/112 111/111/111 109/109/109
f 115/115/115 114/114/114 113/113/113
f 116/116/116 115/115/115 113/113/113
f 119/119/119 118/118/118 117/117/117
f 120/120/120 119/119/119 117/117/117
f 123/123/123 122/122/122 121/121/121
f 122/122/122 124/124/124 121/121/121
f 121/121/121 124/124/124 125/125/125
f 124/124/124 126/126/126 125/125/125
f 125/125/125 126/126/126 127/127/127
f 126/126/126 128/128/128 127/127/127
f 131/131/131 130/130/130 129/129/129
f 130/130/130 132/132/132 129/129/129
f 129/129/129 132/132/132 133/133/133
f 132/132/132 134/134/134 133/133/133
f 133/133/133 134/134/134 135/135/135
f 134/134/134 136/136/136 135/135/135
f 139/139/139 138/138/138 137/137/137
f 138/138/138 140/140/140 137/137/137
f 137/137/137 140/140/140 141/141/141
f 140/140/140 142/142/142 141/141/141
f 141/141/141 142/142/142 143/143/143
f 142/142/142 144/144/144 143/143/143
f 147/147/147 146/146/146 145/145/145
f 146/146/146 148/148/148 145/145/145
f 145/145/145 148/148/148 149/149/149
f 148/148/148 150/150/150 149/149/149
f 149/149/149 150/150/150 151/151/151
f 150/150/150 152/152/152 151/151/151
f 155/155/155 154/154/154 153/153/153
f 156/156/156 155/155/155 153/153/153
f 156/156/156 153/153/153 157/157/157
f 158/158/158 156/156/156 157/157/157
f 158/158/158 157/157/157 159/159/159
f 160/160/160 158/158/158 159/159/159
f 163/163/163 162/162/162 161/161/161
f 164/164/164 163/163/163 161/161/161
f 164/164/164 161/161/161 165/165/165
f 166/166/166 164/164/164 165/165/165
f 166/166/166 165/165/165 167/167/167
f 168/168/168 166/166/166 167/167/167
f 171/171/171 170/170/170 169/169/169
f 172/172/172 171/171/171 169/169/169
f 172/172/172 169/169/169 173/173/173
f 174/174/174 172/172/172 173/173/173
f 174/174/174 173/173/173 175/175/175
f 176/176/176 174/174/174 175/175/175
f 179/179/179 178/178/178 177/177/177
f 180/180/180 179/179/179 177/177/177
f 180/180/180 177/177/177 181/181/181
f 182/182/182 180/180/180 181/181/181
f 182/182/182 181/181/181 183/183/183
f 184/184/184 182/182/182 183/183/183
f 187/187/187 186/186/186 185/185/185
f 188/188/188 187/187/187 185/185/185
f 191/191/191 190/190/190 189/189/189
f 192/192/192 191/191/191 189/189/189
f 195/195/195 194/194/194 193/193/193
f 196/196/196 195/195/195 193/193/193
f 199/199/199 198/198/198 197/197/197
f 200/200/200 199/199/199 197/197/197
f 203/203/203 202/202/202 201/201/201
f 204/204/204 203/203/203 201/201/201
f 207/207/207 206/206/206 205/205/205
f 208/208/208 207/207/207 205/205/205
f 211/211/211 210/210/210 209/209/209
f 212/212/212 211/211/211 209/209/209
f 215/215/215 214/214/214 213/213/213
f 216/216/216 215/215/215 213/213/213
f 219/219/219 218/218/218 217/217/217
f 220/220/220 219/219/219 217/217/217
f 223/223/223 222/222/222 221/221/221
f 224/224/224 223/223/223 221/221/221
f 227/227/227 226/226/226 225/225/225
f 228/228/228 227/227/227 225/225/225
f 231/231/231 230/230/230 229/229/229
f 232/232/232 231/231/231 229/229/229
f 235/235/235 234/234/234 233/233/233
f 236/236/236 235/235/235 233/233/233
f 239/239/239 238/238/238 237/237/237
f 240/240/240 239/239/239 237/237/237
f 243/243/243 242/242/242 241/241/241
f 244/244/244 243/243/243 241/241/241
f 247/247/247 246/246/246 245/245/245
f 248/248/248 247/247/247 245/245/245
f 251/251/251 250/250/250 249/249/249
f 252/252/252 251/251/251 249/249/249
f 255/255/255 254/254/254 253/253/253
f 256/256/256 255/255/255 253/253/253
f 259/259/259 258/258/258 257/257/257
f 260/260/260 259/259/259 257/257/257
f 263/263/263 262/262/262 261/261/261
f 264/264/264 263/263/263 261/261/261
f 267/267/267 266/266/266 265/265/265
f 268/268/268 267/267/267 265/265/265
f 271/271/271 270/270/270 269/269/269
f 272/272/272 271/271/271 269/269/269
f 275/275/275 274/274/274 273/273/273
f 276/276/276 275/275/275 273/273/273
f 279/279/279 278/278/278 277/277/277
f 280/280/280 279/279/279 277/277/277
