g bush_01
v 0.14121696 1.1226321 -0.71629715
v -0.5595866 0.6246918 -0.5647965
v -0.40442222 1.1216345 -1.0036155
v -0.03845718 0.6519343 -0.18025108
v -0.65422475 0.064297445 -0.3495305
v -0.13256852 0.0014404487 0.03537506
v 0.50678647 -0.0040323255 -0.020377845
v 0.60026604 0.5564302 -0.2359724
v 0.7526441 1.053537 -0.6755815
v 0.4024655 1.16221 0.49588233
v 0.62719196 0.61637735 -0.1472247
v 0.926266 1.1385672 0.17130737
v 0.031852398 0.6609184 0.10532219
v 0.4905043 0.043295935 -0.29632777
v -0.105412334 -0.0022440099 -0.04351034
v -0.3804312 0.0342527 0.54173285
v -0.24287449 0.60734314 0.6899997
v 0.058289718 1.1295546 1.0065204
v -0.6878714 1.2030158 0.0904409
v -0.31097922 0.6254856 0.6256358
v -0.7111267 1.1705037 0.70580816
v -0.18702231 0.67340964 -0.008817367
v -0.14453462 0.042375296 0.58543235
v -0.020479202 0.00022325992 -0.049650267
v -0.35613388 0.065260045 -0.60438204
v -0.5223674 0.64834744 -0.56299114
v -0.9220069 1.1933106 -0.47996336
v -0.55382836 0.6178213 -0.57277393
v 0.14300182 1.1139569 -0.7243937
v -0.4003061 1.1134764 -1.0113939
v -0.036161967 0.64501554 -0.18978325
v -0.6474616 0.059773598 -0.35835063
v -0.12979525 -0.003149662 0.02464008
v 0.5051926 -0.008064385 -0.031567268
v 0.5988258 0.5499833 -0.24599056
v 0.752348 1.0456384 -0.6846106
v 0.6311766 0.61019 -0.13774632
v 0.40856597 1.1539816 0.5021333
v 0.930912 1.1309863 0.17936622
v 0.038929634 0.65452874 0.112608105
v 0.49470294 0.039543685 -0.28573096
v -0.09754401 -0.006235099 -0.035376433
v -0.3699636 0.030565605 0.5462974
v -0.23348995 0.60121185 0.6942819
v 0.06624542 1.1220081 1.0113944
v -0.32141265 0.61992604 0.6235779
v -0.6969221 1.1952732 0.09190155
v -0.720831 1.163484 0.7050657
v -0.1973677 0.66757977 -0.007089615
v -0.15587363 0.039314613 0.5829708
v -0.031828668 -0.0031491993 -0.047696725
v -0.36594978 0.062034607 -0.59827924
v -0.53148884 0.642646 -0.5576721
v -0.9309072 1.1862041 -0.47618407
vt 0.78151965 0.74882066
vt 0.7510534 0.7184447
vt 0.75111 0.74887717
vt 0.781463 0.7183881
vt 0.75099677 0.68801177
vt 0.78140646 0.6879552
vt 0.81181633 0.6878987
vt 0.81187284 0.7183316
vt 0.8119295 0.74876416
vt 0.78151965 0.74882066
vt 0.7510534 0.7184447
vt 0.75111 0.74887717
vt 0.781463 0.7183881
vt 0.75099677 0.68801177
vt 0.78140646 0.6879552
vt 0.81181633 0.6878987
vt 0.81187284 0.7183316
vt 0.8119295 0.74876416
vt 0.78151965 0.74882066
vt 0.7510534 0.7184447
vt 0.75111 0.74887717
vt 0.781463 0.7183881
vt 0.75099677 0.68801177
vt 0.78140646 0.6879552
vt 0.81181633 0.6878987
vt 0.81187284 0.7183316
vt 0.8119295 0.74876416
vt 0.7510534 0.7184447
vt 0.78151965 0.74882066
vt 0.75111 0.74887717
vt 0.781463 0.7183881
vt 0.75099677 0.68801177
vt 0.78140646 0.6879552
vt 0.81181633 0.6878987
vt 0.81187284 0.7183316
vt 0.8119295 0.74876416
vt 0.7510534 0.7184447
vt 0.78151965 0.74882066
vt 0.75111 0.74887717
vt 0.781463 0.7183881
vt 0.75099677 0.68801177
vt 0.78140646 0.6879552
vt 0.81181633 0.6878987
vt 0.81187284 0.7183316
vt 0.8119295 0.74876416
vt 0.7510534 0.7184447
vt 0.78151965 0.74882066
vt 0.75111 0.74887717
vt 0.781463 0.7183881
vt 0.75099677 0.68801177
vt 0.78140646 0.6879552
vt 0.81181633 0.6878987
vt 0.81187284 0.7183316
vt 0.8119295 0.74876416
vn -0.148793 0.72277415 0.67487645
vn -0.4791254 0.5724321 0.66540235
vn -0.342733 0.6796777 0.6485155
vn -0.19417424 0.56548923 0.8015724
vn -0.5475519 0.3555601 0.75747216
vn -0.23503278 0.3362993 0.9119553
vn 0.10772287 0.3190289 0.94160306
vn 0.11906337 0.53722644 0.83499193
vn 0.024253441 0.6580793 0.75255793
vn -0.5084854 0.68554044 -0.5210345
vn -0.33295214 0.5155271 -0.78954077
vn -0.38757968 0.6315788 -0.6714836
vn -0.5939902 0.52250344 -0.61169094
vn -0.37292188 0.29513136 -0.87967414
vn -0.66508996 0.29192242 -0.68734026
vn -0.8679003 0.29027057 -0.403103
vn -0.78168553 0.51086783 -0.35774556
vn -0.6628757 0.62872046 -0.4065789
vn 0.7543772 0.6450513 -0.12175334
vn 0.8696807 0.4632091 0.170566
vn 0.8088428 0.5848038 0.061464347
vn 0.86676437 0.47716162 -0.1450392
vn 0.9523142 0.24070108 0.18751211
vn 0.95524323 0.2462644 -0.1639033
vn 0.83150315 0.25307247 -0.49452683
vn 0.7606582 0.47499993 -0.44246376
vn 0.741958 0.59203726 -0.3146269
vn 0.47985435 -0.57254004 -0.66478395
vn 0.14873783 -0.72293586 -0.67471534
vn 0.3430067 -0.679847 -0.6481932
vn 0.19420093 -0.5653821 -0.80164146
vn 0.5485625 -0.35493895 -0.757032
vn 0.23509333 -0.33571646 -0.91215444
vn -0.108765855 -0.3183032 -0.9417288
vn -0.12001478 -0.5372355 -0.83484995
vn -0.024671726 -0.6582077 -0.7524319
vn 0.33205032 -0.5156135 0.7898641
vn 0.50837463 -0.6857113 0.5209177
vn 0.38716343 -0.63174325 0.671569
vn 0.59403497 -0.5223967 0.6117387
vn 0.37199566 -0.29448697 0.8802821
vn 0.6652094 -0.2913563 0.68746495
vn 0.86853707 -0.28961217 0.4022042
vn 0.7820441 -0.51094115 0.356856
vn 0.6629788 -0.6288794 0.40616468
vn -0.86945266 -0.46329346 -0.17149667
vn -0.7542286 -0.6452307 0.121723495
vn -0.8086919 -0.58497065 -0.061860383
vn -0.86682045 -0.477056 0.1450515
vn -0.9522544 -0.2400577 -0.18863654
vn -0.95538 -0.24571677 0.16392806
vn -0.83106154 -0.25246483 0.49557865
vn -0.7601239 -0.4751175 0.443255
vn -0.74168086 -0.59221786 0.31494033
g bush_01_0
f 3/3/3 2/2/2 1/1/1
f 4/4/4 1/1/1 2/2/2
f 2/2/2 5/5/5 4/4/4
f 6/6/6 4/4/4 5/5/5
f 6/6/6 7/7/7 4/4/4
f 8/8/8 4/4/4 7/7/7
f 4/4/4 8/8/8 1/1/1
f 9/9/9 1/1/1 8/8/8
f 12/12/12 11/11/11 10/10/10
f 13/13/13 10/10/10 11/11/11
f 11/11/11 14/14/14 13/13/13
f 15/15/15 13/13/13 14/14/14
f 15/15/15 16/16/16 13/13/13
f 17/17/17 13/13/13 16/16/16
f 13/13/13 17/17/17 10/10/10
f 18/18/18 10/10/10 17/17/17
f 21/21/21 20/20/20 19/19/19
f 22/22/22 19/19/19 20/20/20
f 20/20/20 23/23/23 22/22/22
f 24/24/24 22/22/22 23/23/23
f 24/24/24 25/25/25 22/22/22
f 26/26/26 22/22/22 25/25/25
f 22/22/22 26/26/26 19/19/19
f 27/27/27 19/19/19 26/26/26
f 30/30/30 29/29/29 28/28/28
f 31/31/31 28/28/28 29/29/29
f 28/28/28 31/31/31 32/32/32
f 33/33/33 32/32/32 31/31/31
f 33/33/33 31/31/31 34/34/34
f 35/35/35 34/34/34 31/31/31
f 31/31/31 29/29/29 35/35/35
f 36/36/36 35/35/35 29/29/29
f 39/39/39 38/38/38 37/37/37
f 40/40/40 37/37/37 38/38/38
f 37/37/37 40/40/40 41/41/41
f 42/42/42 41/41/41 40/40/40
f 42/42/42 40/40/40 43/43/43
f 44/44/44 43/43/43 40/40/40
f 40/40/40 38/38/38 44/44/44
f 45/45/45 44/44/44 38/38/38
f 48/48/48 47/47/47 46/46/46
f 49/49/49 46/46/46 47/47/47
f 46/46/46 49/49/49 50/50/50
f 51/51/51 50/50/50 49/49/49
f 51/51/51 49/49/49 52/52/52
f 53/53/53 52/52/52 49/49/49
f 49/49/49 47/47/47 53/53/53
f 54/54/54 53/53/53 47/47/47
