g CH_S7_arms
v -0.005071861 -0.13897832 -0.0434934
v -1.5004114E-08 -0.13542105 -0.06365035
v 0.0050718286 -0.13897832 -0.043493398
v -0.005071861 -0.1294928 -0.03697198
v 0.0050718286 -0.13897832 -0.043493398
v 0.0050718286 -0.1294928 -0.03697198
v 0.0050718286 -0.13897832 -0.043493398
v -0.005071861 -0.1294928 -0.03697198
v -0.005071861 -0.13897832 -0.0434934
v -0.005071861 -0.1294928 -0.03697198
v 0.0050718286 -0.1294928 -0.03697198
v -1.4862861E-08 -0.118821405 -0.059500407
v -0.011166426 -0.23442748 -0.0012653777
v -2.1630976E-08 -0.34884822 -0.026893528
v -1.8877035E-08 -0.23442748 -0.03163638
v -0.012845134 -0.3480228 -0.0007589419
v -0.012845135 -0.44462183 -0.00032831173
v -2.3571792E-08 -0.44489017 -0.029857809
v -0.015159229 -0.5043306 -6.207129E-05
v -2.3955412E-08 -0.50298953 -0.046457622
v -2.4598808E-08 -0.3470695 0.029427594
v -2.2548386E-08 -0.23442748 0.037134726
v -2.7040292E-08 -0.4442975 0.03535616
v -2.949557E-08 -0.505954 0.056106016
v -0.004462159 -0.52602065 -0.049069032
v -0.015159231 -0.5669342 0.00021695024
v -2.2604262E-08 -0.4846115 -0.064243205
v -2.5202278E-08 -0.56583214 -0.048829097
v -2.8001667E-08 -0.64468145 -0.028672095
v -0.0026612042 -0.528837 0.059128463
v -2.9813123E-08 -0.48283267 0.071520165
v -3.0887726E-08 -0.5682035 0.056698907
v -3.1583802E-08 -0.64349556 0.03891335
v -0.011166441 -0.64416844 0.00056131853
v -3.1579557E-08 -0.7359808 0.00097061036
v -1.4498354E-08 0.09045549 0.019349035
v -1.3193061E-08 0.104686595 0.0007246994
v -1.3762981E-08 0.10527665 0.011641907
v -0.011166416 0.08854967 0.0005625275
v -1.4692441E-08 0.07065295 0.014877551
v -1.2405239E-08 0.08630545 -0.021557827
v -1.261786E-08 0.10409102 -0.010293718
v -0.011166416 0.070951104 0.00038556254
v -1.4858613E-08 0.053698637 0.011049209
v -0.0060214843 0.07132681 -0.017862871
v -0.011166417 0.050252017 0.00017753676
v -1.6070484E-08 -0.002578272 0.010710178
v -1.3800262E-08 0.04647585 -0.011732621
v -0.01116642 -0.00236096 -0.00035134712
v -1.6977861E-08 -0.044715058 0.010456302
v -1.2468601E-08 0.051087167 -0.034789197
v -1.497383E-08 -0.0032084964 -0.0100901835
v -0.009487405 0.06259108 -0.054980855
v -1.01755395E-08 0.07681986 -0.067207545
v -1.17372805E-08 0.045637526 -0.05071924
v -1.0146663E-08 -0.0044010733 -0.10100008
v -0.01116642 -0.05305289 -0.00086094986
v -1.6119328E-08 -0.061680187 -0.012571061
v -0.011166423 -0.13665085 -0.0017012912
v -1.854526E-08 -0.09036463 0.021127764
v -1.6084035E-08 -0.080544755 -0.020955252
v -1.9159549E-08 -0.09095722 0.032391928
v -0.009487406 -0.0032766354 -0.08193819
v -1.2132756E-08 -0.0021525172 -0.062876366
v -1.3049496E-08 -0.07495037 -0.07550737
v -0.009487412 -0.06579999 -0.060598016
v -1.4241401E-08 -0.056649853 -0.045688655
v -1.5944469E-08 -0.10459285 -0.03341479
v -0.009487415 -0.093200915 -0.027512537
v -0.005071861 -0.1294928 -0.03697198
v -1.4862861E-08 -0.118821405 -0.059500407
v -0.005071861 -0.13897832 -0.0434934
v -0.011166426 -0.23442748 -0.0012653777
v -1.8877035E-08 -0.23442748 -0.03163638
v -1.5004114E-08 -0.13542105 -0.06365035
v -0.007849415 -0.1158572 0.046027515
v -2.1703837E-08 -0.14075705 0.059663158
v -2.2548386E-08 -0.23442748 0.037134726
v -2.1104032E-08 -0.09144717 0.06861505
v -0.007849413 -0.07750314 0.06422456
v -1.977627E-08 -0.06131323 0.05608037
v -1.9770606E-08 -0.039648823 0.06484365
v -2.1630976E-08 -0.34884822 -0.026893528
v 0.011166384 -0.23442748 -0.0012653765
v -1.8877035E-08 -0.23442748 -0.03163638
v 0.012845087 -0.3480228 -0.0007589405
v -2.4598808E-08 -0.3470695 0.029427594
v -2.2548386E-08 -0.23442748 0.037134726
v 0.012845089 -0.44462183 -0.00032831036
v -2.3571792E-08 -0.44489017 -0.029857809
v 0.015159177 -0.5043306 -6.2069674E-05
v -2.7040292E-08 -0.4442975 0.03535616
v -2.3955412E-08 -0.50298953 -0.046457622
v -2.949557E-08 -0.505954 0.056106016
v 0.004462111 -0.52602065 -0.049069032
v 0.015159175 -0.5669342 0.00021695188
v -2.2604262E-08 -0.4846115 -0.064243205
v -2.5202278E-08 -0.56583214 -0.048829097
v -2.8001667E-08 -0.64468145 -0.028672095
v 0.0026611444 -0.528837 0.059128463
v -2.9813123E-08 -0.48283267 0.071520165
v -3.0887726E-08 -0.5682035 0.056698907
v -3.1583802E-08 -0.64349556 0.03891335
v 0.011166383 -0.64416844 0.0005613197
v -3.1579557E-08 -0.7359808 0.00097061036
v -1.3193061E-08 0.104686595 0.0007246994
v -1.4498354E-08 0.09045549 0.019349035
v -1.3762981E-08 0.10527665 0.011641907
v 0.01116639 0.08854967 0.00056252873
v -1.4692441E-08 0.07065295 0.014877551
v -1.2405239E-08 0.08630545 -0.021557827
v -1.261786E-08 0.10409102 -0.010293718
v 0.011166389 0.070951104 0.0003855637
v -1.4858613E-08 0.053698637 0.011049209
v 0.006720696 0.07132681 -0.01786287
v 0.011166388 0.050252017 0.00017753795
v -1.6070484E-08 -0.002578272 0.010710178
v -1.3800262E-08 0.04647585 -0.011732621
v 0.011166387 -0.0023609605 -0.0003513459
v -1.6977861E-08 -0.044715058 0.010456302
v -1.2468601E-08 0.051087167 -0.034789197
v -1.497383E-08 -0.0032084964 -0.0100901835
v 0.009487383 0.062591076 -0.054980848
v -1.01755395E-08 0.07681986 -0.067207545
v -1.17372805E-08 0.045637526 -0.05071924
v -1.0146663E-08 -0.0044010733 -0.10100008
v 0.011166387 -0.05305289 -0.0008609487
v -1.6119328E-08 -0.061680187 -0.012571061
v 0.011166384 -0.13665085 -0.0017012898
v -1.854526E-08 -0.09036463 0.021127764
v -1.6084035E-08 -0.080544755 -0.020955252
v -1.9159549E-08 -0.09095722 0.032391928
v 0.009487386 -0.0032766357 -0.08193819
v -1.2132756E-08 -0.0021525172 -0.062876366
v -1.3049496E-08 -0.07495037 -0.07550737
v 0.009487384 -0.065799996 -0.06059801
v -1.4241401E-08 -0.056649853 -0.045688655
v -1.5944469E-08 -0.10459285 -0.03341479
v 0.009487382 -0.093200915 -0.027512534
v 0.0050718286 -0.1294928 -0.03697198
v -1.4862861E-08 -0.118821405 -0.059500407
v 0.0050718286 -0.13897832 -0.043493398
v 0.011166384 -0.23442748 -0.0012653765
v -1.8877035E-08 -0.23442748 -0.03163638
v -1.5004114E-08 -0.13542105 -0.06365035
v 0.007849374 -0.1158572 0.046027515
v -2.1703837E-08 -0.14075705 0.059663158
v -2.2548386E-08 -0.23442748 0.037134726
v -2.1104032E-08 -0.09144717 0.06861505
v 0.007849371 -0.07750314 0.06422456
v -1.977627E-08 -0.06131323 0.05608037
v -1.9770606E-08 -0.039648823 0.06484365
vt 0.61534315 0.25656462
vt 0.62923706 0.23836344
vt 0.61534315 0.22016227
vt 0.6034188 0.2600367
vt 0.61534315 0.22016227
vt 0.6034188 0.21669017
vt 0.61534315 0.22016227
vt 0.6034188 0.2600367
vt 0.61534315 0.25656462
vt 0.6034188 0.2600367
vt 0.6034188 0.21669017
vt 0.5882224 0.23836344
vt 0.25225827 0.018119289
vt 0.32961446 0.23762669
vt 0.34945104 0.01969073
vt 0.25076637 0.23717682
vt 0.25401562 0.425056
vt 0.3535911 0.4239872
vt 0.25108135 0.54142416
vt 0.4049789 0.53959084
vt 0.1505007 0.23644894
vt 0.124951564 0.019868128
vt 0.13057001 0.4237554
vt 0.06782848 0.54439133
vt 0.41032308 0.585167
vt 0.24616224 0.66207266
vt 0.46759003 0.506994
vt 0.40862375 0.6623958
vt 0.34179598 0.8133301
vt 0.055508453 0.58864677
vt 0.013730917 0.5005834
vt 0.060058214 0.66552913
vt 0.11829075 0.8115712
vt 0.24419715 0.81074667
vt 0.24656521 0.98853916
vt 0.7915448 0.9462757
vt 0.73212963 0.98523587
vt 0.76503867 0.9877421
vt 0.7342009 0.93221617
vt 0.7854905 0.88778543
vt 0.6678098 0.92841965
vt 0.699024 0.9811515
vt 0.73516244 0.8856874
vt 0.77889466 0.8385748
vt 0.6755967 0.8856186
vt 0.7358568 0.82839864
vt 0.77911645 0.6790953
vt 0.69154054 0.81641734
vt 0.7369025 0.6792613
vt 0.7786895 0.5593964
vt 0.6291484 0.8249353
vt 0.698729 0.6762542
vt 0.5709406 0.8587099
vt 0.5410694 0.9042851
vt 0.586673 0.8078758
vt 0.4343198 0.6802499
vt 0.734882 0.5348009
vt 0.6911115 0.51039636
vt 0.72967404 0.2967443
vt 0.8038823 0.42946625
vt 0.6679759 0.45659262
vt 0.8372528 0.4262378
vt 0.49323055 0.67689615
vt 0.5515893 0.6763262
vt 0.49642062 0.4740785
vt 0.5484021 0.49806046
vt 0.5990467 0.52417254
vt 0.60976696 0.3755383
vt 0.64124846 0.4140161
vt 0.62557286 0.3031331
vt 0.5554165 0.31062672
vt 0.60691047 0.27989674
vt 0.731179 0.017927473
vt 0.645431 0.01562971
vt 0.5267506 0.27531528
vt 0.87204754 0.34912524
vt 0.9127137 0.27534014
vt 0.843495 0.015372934
vt 0.9418241 0.42566952
vt 0.9260303 0.4672991
vt 0.9162764 0.51095146
vt 0.9842822 0.6179664
vt 0.32961446 0.23762669
vt 0.25225827 0.018119289
vt 0.34945104 0.01969073
vt 0.25076637 0.23717682
vt 0.1505007 0.23644894
vt 0.124951564 0.019868128
vt 0.25401562 0.425056
vt 0.3535911 0.4239872
vt 0.25108135 0.54142416
vt 0.13057001 0.4237554
vt 0.4049789 0.53959084
vt 0.06782848 0.54439133
vt 0.41032308 0.585167
vt 0.24616224 0.66207266
vt 0.46759003 0.506994
vt 0.40862375 0.6623958
vt 0.34179598 0.8133301
vt 0.055508453 0.58864677
vt 0.013730917 0.5005834
vt 0.060058214 0.66552913
vt 0.11829075 0.8115712
vt 0.24419715 0.81074667
vt 0.24656521 0.98853916
vt 0.73212963 0.98523587
vt 0.7915448 0.9462757
vt 0.76503867 0.9877421
vt 0.7342009 0.93221617
vt 0.7854905 0.88778543
vt 0.6678098 0.92841965
vt 0.699024 0.9811515
vt 0.73516244 0.8856874
vt 0.77889466 0.8385748
vt 0.6755967 0.8856186
vt 0.7358568 0.82839864
vt 0.77911645 0.6790953
vt 0.69154054 0.81641734
vt 0.7369025 0.6792613
vt 0.7786895 0.5593964
vt 0.6291484 0.8249353
vt 0.698729 0.6762542
vt 0.5709406 0.8587099
vt 0.5410694 0.9042851
vt 0.586673 0.8078758
vt 0.4343198 0.6802499
vt 0.734882 0.5348009
vt 0.6911115 0.51039636
vt 0.72967404 0.2967443
vt 0.8038823 0.42946625
vt 0.6679759 0.45659262
vt 0.8372528 0.4262378
vt 0.49323055 0.67689615
vt 0.5515893 0.6763262
vt 0.49642062 0.4740785
vt 0.5484021 0.49806046
vt 0.5990467 0.52417254
vt 0.60976696 0.3755383
vt 0.64124846 0.4140161
vt 0.62557286 0.3031331
vt 0.5554165 0.31062672
vt 0.60691047 0.27989674
vt 0.731179 0.017927473
vt 0.645431 0.01562971
vt 0.5267506 0.27531528
vt 0.87204754 0.34912524
vt 0.9127137 0.27534014
vt 0.843495 0.015372934
vt 0.9418241 0.42566952
vt 0.9260303 0.4672991
vt 0.9162764 0.51095146
vt 0.9842822 0.6179664
vn -0 0.9847823 0.17379232
vn -0 0.9847823 0.17379233
vn -0 0.9847823 0.17379233
vn -0 0.5665368 -0.82403636
vn -0 0.5665368 -0.82403636
vn -0 0.5665368 -0.82403636
vn -0 0.56653696 -0.8240363
vn -0 0.56653696 -0.8240363
vn -0 0.56653696 -0.8240363
vn -0 -0.9037372 -0.42808783
vn -0 -0.9037372 -0.42808783
vn -0 -0.9037372 -0.42808783
vn -0.9987766 -0.038807835 -0.030645624
vn -0 0.008876873 -0.99996066
vn -0 -0.16459216 -0.98636174
vn -0.99959856 0.007246179 -0.027391834
vn -0.99913687 0.026482007 -0.032003757
vn -0 0.09564777 -0.9954152
vn -0.9980008 0.061125696 -0.016065944
vn -0 0.86119133 -0.508281
vn -0 0.019296391 0.99981385
vn -0 -0.1599014 0.987133
vn -0 0.13426705 0.9909452
vn -0 0.81322145 0.58195424
vn -0.9354184 -0.008760217 -0.35343385
vn -0.9984549 -0.052450866 -0.018348103
vn -0 0.9060249 -0.4232245
vn -0 -0.28829843 -0.9575406
vn -0 -0.23370016 -0.9723087
vn -0.9357037 -0.02286786 0.35204506
vn -6.398471E-07 0.9422617 0.3348775
vn -0 -0.26090136 0.96536547
vn -0 -0.27185795 0.9623373
vn -0.99555343 -0.085751 -0.0389875
vn -0 -0.999708 -0.024164045
vn -0 0.2925918 0.95623744
vn -0 0.99992454 -0.012286388
vn 1 0 0
vn -0.9568097 0.28469384 0.05886107
vn -0 -0.1682301 0.98574775
vn -0.012966814 0.8191621 -0.5734155
vn 1 0 0
vn -0.9833266 -0.079025224 0.16377948
vn -0 -0.059596766 0.99822253
vn -0.9855424 -0.0081669735 -0.16923225
vn -0.999754 0.0007478929 0.02216818
vn -0 -0.007656813 0.9999707
vn -0.002676678 -0.24127482 -0.9704532
vn -0.9995989 -0.008825898 -0.026909502
vn -0 0.0035415308 0.9999938
vn -0.008301134 -0.96622723 0.25755763
vn -0 -0.007842965 -0.99996924
vn -0.99514765 0.07910431 -0.05851285
vn -0 0.76845545 -0.6399033
vn -0 -0.59220344 0.8057885
vn -0 0.00882364 -0.99996114
vn -0.9999585 0.009046568 0.0011093918
vn -0 0.049330335 -0.9987826
vn -0.9987208 0.045393012 -0.022273265
vn -0 0.624462 0.7810552
vn -0 0.9144038 0.40480313
vn -0 0.8058555 -0.59211224
vn -0.9953752 0.01882285 -0.094201505
vn -0 0.033692002 0.99943227
vn -0 -0.59082603 -0.80679893
vn -0.99561346 -0.06825112 -0.06399585
vn -0 0.5568423 0.83061826
vn -0 -0.0037913502 -0.99999285
vn -0.99470115 0.0934103 0.04294599
vn -0.97348255 0.08823888 -0.21105832
vn -0 0.8778951 -0.47885305
vn -0.97759664 -0.020792492 -0.20945783
vn -0.9987766 -0.038807835 -0.030645624
vn -0 -0.16459216 -0.98636174
vn -0 -0.30766785 -0.9514938
vn -0.9873273 0.035606906 0.15465094
vn -0 -0.26655477 0.96381974
vn -0 -0.1599014 0.987133
vn -0 -0.27336538 0.9619103
vn -0.9132634 0.11463051 0.39090896
vn -0 0.45729315 -0.8893161
vn 3.1760436E-07 0.99390113 0.1102747
vn -0 0.008876873 -0.99996066
vn 0.9987766 -0.03880788 -0.030645492
vn -0 -0.16459216 -0.98636174
vn 0.99959856 0.007246157 -0.027391722
vn -0 0.019296391 0.99981385
vn -0 -0.1599014 0.987133
vn 0.99913687 0.02648194 -0.03200368
vn -0 0.09564777 -0.9954152
vn 0.9980008 0.06112564 -0.016065883
vn -0 0.13426705 0.9909452
vn -0 0.86119133 -0.508281
vn -0 0.81322145 0.58195424
vn 0.93541855 -0.00876026 -0.35343382
vn 0.9984549 -0.05245093 -0.018348036
vn -0 0.9060249 -0.4232245
vn -0 -0.28829843 -0.9575406
vn -0 -0.23370016 -0.9723087
vn 0.9357036 -0.02286791 0.35204515
vn -6.398471E-07 0.9422617 0.3348775
vn -0 -0.26090136 0.96536547
vn -0 -0.27185795 0.9623373
vn 0.99555343 -0.08575104 -0.03898737
vn -0 -0.999708 -0.024164045
vn -0 0.99992454 -0.012286388
vn -0 0.2925918 0.95623744
vn 1 0 0
vn 0.9551265 0.28927112 0.063684046
vn -0 -0.1682301 0.98574775
vn -0.012966814 0.8191621 -0.5734155
vn 1 0 0
vn 0.98044854 -0.08268486 0.17856054
vn -0 -0.059596766 0.99822253
vn 0.98592514 -0.0032856215 -0.16715539
vn 0.999754 0.0007478289 0.02216833
vn -0 -0.007656813 0.9999707
vn -0.002676678 -0.24127482 -0.9704532
vn 0.9995989 -0.008825941 -0.026909383
vn -0 0.0035415308 0.9999938
vn -0.008301134 -0.96622723 0.25755763
vn -0 -0.007842965 -0.99996924
vn 0.9949714 0.07861771 -0.062056795
vn -0 0.76845545 -0.6399033
vn -0 -0.59220344 0.8057885
vn -0 0.00882364 -0.99996114
vn 0.9999585 0.009046523 0.0011095256
vn -0 0.049330335 -0.9987826
vn 0.9987208 0.045392953 -0.022273134
vn -0 0.624462 0.7810552
vn -0 0.9144038 0.40480313
vn -0 0.8058555 -0.59211224
vn 0.9953752 0.018822817 -0.09420137
vn -0 0.033692002 0.99943227
vn -0 -0.59082603 -0.80679893
vn 0.9956136 -0.0682511 -0.063995615
vn -0 0.5568423 0.83061826
vn -0 -0.0037913502 -0.99999285
vn 0.994701 0.09341028 0.04294621
vn 0.97348267 0.0882388 -0.21105812
vn -0 0.8778951 -0.47885305
vn 0.97759664 -0.02079255 -0.20945767
vn 0.9987766 -0.03880788 -0.030645492
vn -0 -0.16459216 -0.98636174
vn -0 -0.30766785 -0.9514938
vn 0.9873273 0.03560687 0.15465105
vn -0 -0.26655477 0.96381974
vn -0 -0.1599014 0.987133
vn -0 -0.27336538 0.9619103
vn 0.9132634 0.114630446 0.39090902
vn -0 0.45729315 -0.8893161
vn 3.1760436E-07 0.99390113 0.1102747
g CH_S7_arms_0
f 3/3/3 2/2/2 1/1/1
f 6/6/6 5/5/5 4/4/4
f 9/9/9 8/8/8 7/7/7
f 12/12/12 11/11/11 10/10/10
f 15/15/15 14/14/14 13/13/13
f 16/16/16 13/13/13 14/14/14
f 16/16/16 14/14/14 17/17/17
f 18/18/18 17/17/17 14/14/14
f 17/17/17 18/18/18 19/19/19
f 20/20/20 19/19/19 18/18/18
f 16/16/16 21/21/21 13/13/13
f 16/16/16 17/17/17 21/21/21
f 22/22/22 13/13/13 21/21/21
f 23/23/23 21/21/21 17/17/17
f 17/17/17 19/19/19 23/23/23
f 24/24/24 23/23/23 19/19/19
f 25/25/25 19/19/19 20/20/20
f 19/19/19 25/25/25 26/26/26
f 27/27/27 25/25/25 20/20/20
f 28/28/28 25/25/25 27/27/27
f 28/28/28 26/26/26 25/25/25
f 28/28/28 29/29/29 26/26/26
f 19/19/19 30/30/30 24/24/24
f 19/19/19 26/26/26 30/30/30
f 24/24/24 30/30/30 31/31/31
f 32/32/32 31/31/31 30/30/30
f 32/32/32 30/30/30 26/26/26
f 32/32/32 26/26/26 33/33/33
f 34/34/34 26/26/26 29/29/29
f 34/34/34 33/33/33 26/26/26
f 35/35/35 34/34/34 29/29/29
f 33/33/33 34/34/34 35/35/35
f 38/38/38 37/37/37 36/36/36
f 39/39/39 36/36/36 37/37/37
f 36/36/36 39/39/39 40/40/40
f 39/39/39 37/37/37 41/41/41
f 42/42/42 41/41/41 37/37/37
f 43/43/43 40/40/40 39/39/39
f 40/40/40 43/43/43 44/44/44
f 41/41/41 45/45/45 39/39/39
f 43/43/43 39/39/39 45/45/45
f 46/46/46 44/44/44 43/43/43
f 44/44/44 46/46/46 47/47/47
f 46/46/46 43/43/43 48/48/48
f 45/45/45 48/48/48 43/43/43
f 49/49/49 47/47/47 46/46/46
f 46/46/46 48/48/48 49/49/49
f 47/47/47 49/49/49 50/50/50
f 48/48/48 45/45/45 51/51/51
f 52/52/52 49/49/49 48/48/48
f 45/45/45 41/41/41 53/53/53
f 53/53/53 51/51/51 45/45/45
f 54/54/54 53/53/53 41/41/41
f 51/51/51 53/53/53 55/55/55
f 54/54/54 56/56/56 53/53/53
f 49/49/49 52/52/52 57/57/57
f 57/57/57 50/50/50 49/49/49
f 58/58/58 57/57/57 52/52/52
f 57/57/57 59/59/59 50/50/50
f 59/59/59 57/57/57 58/58/58
f 60/60/60 50/50/50 59/59/59
f 58/58/58 61/61/61 59/59/59
f 60/60/60 59/59/59 62/62/62
f 53/53/53 63/63/63 55/55/55
f 63/63/63 53/53/53 56/56/56
f 64/64/64 55/55/55 63/63/63
f 56/56/56 65/65/65 63/63/63
f 63/63/63 66/66/66 64/64/64
f 66/66/66 63/63/63 65/65/65
f 67/67/67 64/64/64 66/66/66
f 65/65/65 68/68/68 66/66/66
f 61/61/61 67/67/67 69/69/69
f 66/66/66 69/69/69 67/67/67
f 69/69/69 66/66/66 68/68/68
f 61/61/61 69/69/69 59/59/59
f 68/68/68 70/70/70 69/69/69
f 59/59/59 69/69/69 70/70/70
f 71/71/71 70/70/70 68/68/68
f 72/72/72 59/59/59 70/70/70
f 73/73/73 59/59/59 72/72/72
f 73/73/73 72/72/72 74/74/74
f 75/75/75 74/74/74 72/72/72
f 73/73/73 76/76/76 59/59/59
f 76/76/76 62/62/62 59/59/59
f 76/76/76 73/73/73 77/77/77
f 78/78/78 77/77/77 73/73/73
f 77/77/77 79/79/79 76/76/76
f 76/76/76 80/80/80 62/62/62
f 80/80/80 76/76/76 79/79/79
f 81/81/81 62/62/62 80/80/80
f 82/82/82 80/80/80 79/79/79
f 81/81/81 80/80/80 82/82/82
f 85/85/85 84/84/84 83/83/83
f 86/86/86 83/83/83 84/84/84
f 86/86/86 84/84/84 87/87/87
f 88/88/88 87/87/87 84/84/84
f 86/86/86 89/89/89 83/83/83
f 86/86/86 87/87/87 89/89/89
f 90/90/90 83/83/83 89/89/89
f 89/89/89 91/91/91 90/90/90
f 92/92/92 89/89/89 87/87/87
f 89/89/89 92/92/92 91/91/91
f 93/93/93 90/90/90 91/91/91
f 94/94/94 91/91/91 92/92/92
f 91/91/91 95/95/95 93/93/93
f 91/91/91 96/96/96 95/95/95
f 95/95/95 97/97/97 93/93/93
f 95/95/95 98/98/98 97/97/97
f 98/98/98 95/95/95 96/96/96
f 98/98/98 96/96/96 99/99/99
f 100/100/100 91/91/91 94/94/94
f 91/91/91 100/100/100 96/96/96
f 100/100/100 94/94/94 101/101/101
f 101/101/101 102/102/102 100/100/100
f 102/102/102 96/96/96 100/100/100
f 102/102/102 103/103/103 96/96/96
f 104/104/104 99/99/99 96/96/96
f 104/104/104 96/96/96 103/103/103
f 104/104/104 105/105/105 99/99/99
f 104/104/104 103/103/103 105/105/105
f 108/108/108 107/107/107 106/106/106
f 109/109/109 106/106/106 107/107/107
f 107/107/107 110/110/110 109/109/109
f 109/109/109 111/111/111 106/106/106
f 112/112/112 106/106/106 111/111/111
f 113/113/113 109/109/109 110/110/110
f 110/110/110 114/114/114 113/113/113
f 111/111/111 109/109/109 115/115/115
f 113/113/113 115/115/115 109/109/109
f 116/116/116 113/113/113 114/114/114
f 114/114/114 117/117/117 116/116/116
f 116/116/116 118/118/118 113/113/113
f 115/115/115 113/113/113 118/118/118
f 119/119/119 116/116/116 117/117/117
f 116/116/116 119/119/119 118/118/118
f 117/117/117 120/120/120 119/119/119
f 118/118/118 121/121/121 115/115/115
f 122/122/122 118/118/118 119/119/119
f 115/115/115 123/123/123 111/111/111
f 123/123/123 115/115/115 121/121/121
f 124/124/124 111/111/111 123/123/123
f 123/123/123 121/121/121 125/125/125
f 124/124/124 123/123/123 126/126/126
f 119/119/119 127/127/127 122/122/122
f 127/127/127 119/119/119 120/120/120
f 128/128/128 122/122/122 127/127/127
f 127/127/127 120/120/120 129/129/129
f 127/127/127 129/129/129 128/128/128
f 130/130/130 129/129/129 120/120/120
f 131/131/131 128/128/128 129/129/129
f 130/130/130 132/132/132 129/129/129
f 123/123/123 125/125/125 133/133/133
f 133/133/133 126/126/126 123/123/123
f 134/134/134 133/133/133 125/125/125
f 126/126/126 133/133/133 135/135/135
f 133/133/133 134/134/134 136/136/136
f 136/136/136 135/135/135 133/133/133
f 137/137/137 136/136/136 134/134/134
f 135/135/135 136/136/136 138/138/138
f 131/131/131 139/139/139 137/137/137
f 136/136/136 137/137/137 139/139/139
f 139/139/139 138/138/138 136/136/136
f 139/139/139 131/131/131 129/129/129
f 138/138/138 139/139/139 140/140/140
f 129/129/129 140/140/140 139/139/139
f 140/140/140 141/141/141 138/138/138
f 129/129/129 142/142/142 140/140/140
f 129/129/129 143/143/143 142/142/142
f 143/143/143 144/144/144 142/142/142
f 145/145/145 142/142/142 144/144/144
f 146/146/146 143/143/143 129/129/129
f 146/146/146 129/129/129 132/132/132
f 146/146/146 147/147/147 143/143/143
f 148/148/148 143/143/143 147/147/147
f 147/147/147 146/146/146 149/149/149
f 146/146/146 132/132/132 150/150/150
f 150/150/150 149/149/149 146/146/146
f 151/151/151 150/150/150 132/132/132
f 150/150/150 152/152/152 149/149/149
f 150/150/150 151/151/151 152/152/152
