g CH_S7_arms
v -0.19967957 -5.471587 -1.7123387
v -5.907131E-07 -5.3315377 -2.5059192
v 0.1996783 -5.471587 -1.7123386
v -0.19967957 -5.098142 -1.4555898
v 0.1996783 -5.098142 -1.4555898
v -5.85152E-07 -4.678008 -2.3425357
v -0.19967957 -5.471587 -1.7123387
v -7.4319036E-07 -9.229428 -1.2455268
v -5.907131E-07 -5.3315377 -2.5059192
v 0.1996783 -5.471587 -1.7123386
v -0.4396231 -9.229428 -0.04981802
v 0.43962145 -9.229428 -0.049817972
v -0.43962294 -5.3799543 -0.06697997
v -0.19967957 -5.098142 -1.4555898
v -0.30903208 -4.561307 1.812107
v -7.5431296E-07 -3.580993 1.2752728
v 0.43962145 -5.3799543 -0.066979915
v 0.1996783 -5.098142 -1.4555898
v 0.30903047 -4.561307 1.812107
v -8.5448175E-07 -5.5416164 2.3489432
v -8.8773174E-07 -9.229428 1.461997
v -8.308674E-07 -3.6002822 2.7013798
v -0.30903202 -3.0513046 2.528526
v 0.30903035 -3.0513046 2.528526
v -7.7837035E-07 -1.5609773 2.5528996
v -7.785933E-07 -2.4139068 2.2078886
v -7.3012836E-07 -3.5576625 0.8318018
v -6.684197E-07 -1.7604353 0.41166544
v -0.43962285 -2.0886965 -0.033895664
v 0.43962154 -2.0886965 -0.03389562
v -6.346192E-07 -2.4283538 -0.49492368
v -0.43962282 -0.092951186 -0.013832564
v -5.895209E-07 -0.12631875 -0.3972513
v -6.332297E-07 -3.1710534 -0.8250099
v 0.43962157 -0.0929512 -0.013832516
v -5.433174E-07 1.8297579 -0.4619142
v -0.43962273 1.9784259 0.006989636
v -6.3269624E-07 -0.10150678 0.42166054
v 0.4396216 1.9784259 0.006989683
v -5.849848E-07 2.1141195 0.43500823
v -0.37352026 -3.6693275 -1.0831708
v -6.27735E-07 -4.117829 -1.3155429
v -5.85152E-07 -4.678008 -2.3425357
v -0.4396227 2.7933505 0.015179628
v 0.43962163 2.7933505 0.015179674
v 0.37351897 -3.6693275 -1.0831707
v -5.6068507E-07 -2.2303092 -1.798766
v -5.7844255E-07 2.7816122 0.5857304
v -0.37352017 -2.590551 -2.3857486
v 0.37351906 -2.5905511 -2.3857484
v -4.776676E-07 -0.084744774 -2.4754474
v -5.137597E-07 -2.9508018 -2.972731
v -0.37351996 -0.1290014 -3.225913
v 0.37351912 -0.12900141 -3.225913
v -4.6209766E-07 1.796753 -1.9968204
v -3.994749E-07 -0.17327061 -3.976381
v -0.3735199 2.464216 -2.1646006
v 0.37351903 2.4642158 -2.1646004
v -4.908898E-07 2.0113058 -1.3696535
v -4.006118E-07 3.024404 -2.6459663
v -4.8839524E-07 3.3978524 -0.84873337
v -0.23706631 2.808142 -0.7032626
v 0.26459435 2.808142 -0.70326257
v -0.43962267 3.4862077 0.022146752
v -5.1941186E-07 4.1215196 0.028531473
v 0.43962166 3.4862077 0.0221468
v -5.708013E-07 3.5612397 0.76177305
v -4.967661E-07 4.0980716 -0.40526453
v -5.4184966E-07 4.14475 0.4583428
v -9.68457E-07 -13.664154 1.1585667
v -0.4396231 -9.229428 -0.04981802
v -8.8773174E-07 -9.229428 1.461997
v 0.43962145 -9.229428 -0.049817972
v -0.50571394 -13.701685 -0.029879604
v -8.5161327E-07 -13.734182 -1.0588003
v -7.4319036E-07 -9.229428 -1.2455268
v -0.505714 -17.504797 -0.012925658
v 0.5057121 -13.701685 -0.02987955
v 0.50571215 -17.504797 -0.012925604
v -9.280233E-07 -17.515362 -1.1755043
v -0.59682006 -19.855536 -0.0024437516
v 0.596818 -19.855536 -0.002443688
v -1.0645784E-06 -17.492027 1.3919748
v -9.4312645E-07 -19.802738 -1.8290403
v -1.161243E-06 -19.91945 2.2088983
v -0.17567554 -20.709475 -1.9318517
v -0.5968201 -22.320246 0.008541348
v -0.10477182 -20.820354 2.3278923
v -8.899316E-07 -19.079193 -2.52926
v 0.17567365 -20.709475 -1.9318517
v 0.5968179 -22.320246 0.008541413
v -9.922156E-07 -22.276855 -1.9224054
v 0.10476947 -20.820354 2.3278923
v -1.173745E-06 -19.009161 2.8157547
v -1.2160523E-06 -22.370218 2.2322404
v -1.1024279E-06 -25.381159 -1.1288227
v -1.2434568E-06 -25.33447 1.5320216
v -0.43962368 -25.360962 0.022099154
v 0.43962136 -25.360962 0.0220992
v -1.2432896E-06 -28.975622 0.038213007
vt 0.61534315 0.25656462
vt 0.62923706 0.23836344
vt 0.61534315 0.22016227
vt 0.6034188 0.2600367
vt 0.6034188 0.21669017
vt 0.5882224 0.23836344
vt 0.60691047 0.27989674
vt 0.645431 0.01562971
vt 0.5267506 0.27531528
vt 0.60691047 0.27989674
vt 0.731179 0.017927473
vt 0.731179 0.017927473
vt 0.72967404 0.2967443
vt 0.62557286 0.3031331
vt 0.87204754 0.34912524
vt 0.8372528 0.4262378
vt 0.72967404 0.2967443
vt 0.62557286 0.3031331
vt 0.87204754 0.34912524
vt 0.9127137 0.27534014
vt 0.843495 0.015372934
vt 0.9418241 0.42566952
vt 0.9260303 0.4672991
vt 0.9260303 0.4672991
vt 0.9842822 0.6179664
vt 0.9162764 0.51095146
vt 0.8038823 0.42946625
vt 0.7786895 0.5593964
vt 0.734882 0.5348009
vt 0.734882 0.5348009
vt 0.6911115 0.51039636
vt 0.7369025 0.6792613
vt 0.698729 0.6762542
vt 0.6679759 0.45659262
vt 0.7369025 0.6792613
vt 0.69154054 0.81641734
vt 0.7358568 0.82839864
vt 0.77911645 0.6790953
vt 0.7358568 0.82839864
vt 0.77889466 0.8385748
vt 0.64124846 0.4140161
vt 0.60976696 0.3755383
vt 0.5554165 0.31062672
vt 0.73516244 0.8856874
vt 0.73516244 0.8856874
vt 0.64124846 0.4140161
vt 0.5990467 0.52417254
vt 0.7854905 0.88778543
vt 0.5484021 0.49806046
vt 0.5484021 0.49806046
vt 0.5515893 0.6763262
vt 0.49642062 0.4740785
vt 0.49323055 0.67689615
vt 0.49323055 0.67689615
vt 0.586673 0.8078758
vt 0.4343198 0.6802499
vt 0.5709406 0.8587099
vt 0.5709406 0.8587099
vt 0.6291484 0.8249353
vt 0.5410694 0.9042851
vt 0.6678098 0.92841965
vt 0.6755967 0.8856186
vt 0.6755967 0.8856186
vt 0.7342009 0.93221617
vt 0.73212963 0.98523587
vt 0.7342009 0.93221617
vt 0.7915448 0.9462757
vt 0.699024 0.9811515
vt 0.76503867 0.9877421
vt 0.1505007 0.23644894
vt 0.25225827 0.018119289
vt 0.124951564 0.019868128
vt 0.25225827 0.018119289
vt 0.25076637 0.23717682
vt 0.32961446 0.23762669
vt 0.34945104 0.01969073
vt 0.25401562 0.425056
vt 0.25076637 0.23717682
vt 0.25401562 0.425056
vt 0.3535911 0.4239872
vt 0.25108135 0.54142416
vt 0.25108135 0.54142416
vt 0.13057001 0.4237554
vt 0.4049789 0.53959084
vt 0.06782848 0.54439133
vt 0.41032308 0.585167
vt 0.24616224 0.66207266
vt 0.055508453 0.58864677
vt 0.46759003 0.506994
vt 0.41032308 0.585167
vt 0.24616224 0.66207266
vt 0.40862375 0.6623958
vt 0.055508453 0.58864677
vt 0.013730917 0.5005834
vt 0.060058214 0.66552913
vt 0.34179598 0.8133301
vt 0.11829075 0.8115712
vt 0.24419715 0.81074667
vt 0.24419715 0.81074667
vt 0.24656521 0.98853916
vn -0.87539047 0.33423534 -0.34925365
vn -0 0.9234852 -0.38363415
vn 0.7777046 0.41077432 -0.47585717
vn -0.6810521 0.1405619 -0.71861714
vn 0.77949125 0.025712801 -0.6258852
vn -0 -0.58333504 -0.8122316
vn -0.87539047 0.33423534 -0.34925365
vn -0 -0.19672279 -0.9804592
vn -0 0.9234852 -0.38363415
vn 0.7777046 0.41077432 -0.47585717
vn -0.999432 -0.032274935 0.009683186
vn 0.999432 -0.03227497 0.009683283
vn -0.9944792 0.10398145 0.014102962
vn -0.6810521 0.1405619 -0.71861714
vn -0.98347396 -0.0059915944 0.1809504
vn -0 0.80584955 -0.59212023
vn 0.9944792 0.10398139 0.014103072
vn 0.77949125 0.025712801 -0.6258852
vn 0.98347396 -0.005991629 0.1809505
vn -0 -0.23762532 0.97135687
vn -0 -0.15256822 0.988293
vn -0 -0.14310426 0.9897077
vn -0.99009424 0.1005334 0.09801272
vn 0.99009424 0.10053334 0.09801284
vn -0 0.48840925 0.8726147
vn -0 0.49552986 -0.86859095
vn -0 0.6798014 0.73339623
vn -0 0.022576455 0.9997451
vn -0.97855866 0.008400056 -0.20579705
vn 0.97855866 0.008400017 -0.20579693
vn -0 0.08817883 -0.9961047
vn -0.99985087 -0.0069495053 -0.01580712
vn -0 0.0056418576 -0.99998415
vn -0 0.78983706 0.6133167
vn 0.99985087 -0.00694955 -0.015807007
vn -0.0008406095 -0.22846673 -0.97355133
vn -0.9770448 -0.0013472269 0.21302956
vn -0 -0.0073627336 0.99997294
vn 0.9770448 -0.0013472877 0.21302967
vn -0 -0.07228158 0.99738425
vn -0.98393756 0.1689917 -0.05752149
vn -0 -0.2624401 -0.9649483
vn -0 -0.58333504 -0.8122316
vn -0.98593026 -0.086421706 0.14308317
vn 0.98363924 -0.08976046 0.15619496
vn 0.98393756 0.16899163 -0.057521343
vn -0 0.623432 0.7818776
vn -0 -0.14802024 0.98898435
vn -0.9974654 -0.06951095 0.0151983015
vn 0.9974654 -0.069511004 0.015198467
vn -0 0.13302782 0.9911123
vn -0 -0.52390194 -0.8517786
vn -0.997147 -0.0681782 0.032396674
vn 0.997147 -0.06817826 0.03239683
vn -0 -0.5564631 0.8308723
vn -0 0.15961614 -0.98717916
vn -0.9998091 0.018163782 -0.007209433
vn 0.9996989 0.020384079 -0.013664441
vn -0.005742205 -0.9715091 0.2369326
vn -0 0.7733591 -0.6339681
vn -0.006045018 0.8548615 -0.5188211
vn -0.98617655 -0.06132609 -0.1539314
vn 0.986797 -0.06095616 -0.1500534
vn -0.9716422 0.22518185 0.0721428
vn -0 0.99958557 -0.028789276
vn 0.96957064 0.23170307 0.07903374
vn -0 0.40375558 0.9148669
vn -0 1 0
vn -0 1 0
vn -0 0.013299414 0.99991155
vn -0.999432 -0.032274935 0.009683186
vn -0 -0.15256822 0.988293
vn 0.999432 -0.03227497 0.009683283
vn -0.9995969 0.007263301 -0.027446484
vn -0 0.0045109657 -0.99998987
vn -0 -0.19672279 -0.9804592
vn -0.9993457 0.018862871 -0.030859508
vn 0.9995969 0.0072632744 -0.0274464
vn 0.9993457 0.018862825 -0.030859398
vn -0 0.120202914 -0.99274933
vn -0.9966419 0.079556726 -0.01938387
vn 0.9966419 0.079556674 -0.019383771
vn -0 0.15447357 0.987997
vn -0 0.7370381 -0.6758511
vn -0 0.6546603 0.75592315
vn -0.97039276 0.036278352 -0.23879221
vn -0.9982658 -0.05510977 -0.02069941
vn -0.9740728 0.014755738 0.22575285
vn -0 0.19901508 -0.97999644
vn 0.97039276 0.0362783 -0.2387921
vn 0.9982658 -0.05510983 -0.02069928
vn -0 -0.24637811 -0.9691738
vn 0.9740728 0.014755698 0.22575293
vn -0 0.01667376 0.999861
vn -0 -0.21916725 0.97568727
vn -0 -0.2324408 -0.9726105
vn -0 -0.26421827 0.9644629
vn -0.99549156 -0.08635042 -0.03924664
vn 0.99549156 -0.08635045 -0.039246522
vn -0 -0.9526397 -0.30410126
g CH_S7_arms_0
f 3/3/3 2/2/2 1/1/1
f 1/1/1 4/4/4 3/3/3
f 5/5/5 3/3/3 4/4/4
f 6/6/6 5/5/5 4/4/4
f 9/9/9 8/8/8 7/7/7
f 9/9/9 10/10/10 8/8/8
f 11/11/11 7/7/7 8/8/8
f 12/12/12 8/8/8 10/10/10
f 11/11/11 13/13/13 7/7/7
f 7/7/7 13/13/13 14/14/14
f 11/11/11 15/15/15 13/13/13
f 15/15/15 16/16/16 13/13/13
f 17/17/17 12/12/12 10/10/10
f 17/17/17 10/10/10 18/18/18
f 19/19/19 12/12/12 17/17/17
f 19/19/19 17/17/17 16/16/16
f 15/15/15 11/11/11 20/20/20
f 19/19/19 20/20/20 12/12/12
f 21/21/21 20/20/20 11/11/11
f 21/21/21 12/12/12 20/20/20
f 20/20/20 22/22/22 15/15/15
f 20/20/20 19/19/19 22/22/22
f 15/15/15 23/23/23 16/16/16
f 23/23/23 15/15/15 22/22/22
f 24/24/24 22/22/22 19/19/19
f 19/19/19 16/16/16 24/24/24
f 25/25/25 23/23/23 22/22/22
f 24/24/24 25/25/25 22/22/22
f 26/26/26 23/23/23 25/25/25
f 24/24/24 26/26/26 25/25/25
f 26/26/26 16/16/16 23/23/23
f 26/26/26 24/24/24 16/16/16
f 27/27/27 13/13/13 16/16/16
f 27/27/27 16/16/16 17/17/17
f 27/27/27 28/28/28 13/13/13
f 27/27/27 17/17/17 28/28/28
f 29/29/29 13/13/13 28/28/28
f 30/30/30 28/28/28 17/17/17
f 13/13/13 29/29/29 31/31/31
f 30/30/30 17/17/17 31/31/31
f 29/29/29 28/28/28 32/32/32
f 31/31/31 29/29/29 33/33/33
f 32/32/32 33/33/33 29/29/29
f 31/31/31 33/33/33 30/30/30
f 31/31/31 34/34/34 13/13/13
f 34/34/34 31/31/31 17/17/17
f 30/30/30 35/35/35 28/28/28
f 35/35/35 30/30/30 33/33/33
f 33/33/33 32/32/32 36/36/36
f 33/33/33 36/36/36 35/35/35
f 37/37/37 36/36/36 32/32/32
f 38/38/38 32/32/32 28/28/28
f 38/38/38 28/28/28 35/35/35
f 32/32/32 38/38/38 37/37/37
f 35/35/35 39/39/39 38/38/38
f 39/39/39 35/35/35 36/36/36
f 40/40/40 37/37/37 38/38/38
f 40/40/40 38/38/38 39/39/39
f 34/34/34 41/41/41 13/13/13
f 13/13/13 41/41/41 14/14/14
f 42/42/42 14/14/14 41/41/41
f 43/43/43 14/14/14 42/42/42
f 18/18/18 43/43/43 42/42/42
f 37/37/37 44/44/44 36/36/36
f 37/37/37 40/40/40 44/44/44
f 39/39/39 45/45/45 40/40/40
f 39/39/39 36/36/36 45/45/45
f 42/42/42 46/46/46 18/18/18
f 17/17/17 18/18/18 46/46/46
f 46/46/46 34/34/34 17/17/17
f 34/34/34 47/47/47 41/41/41
f 34/34/34 46/46/46 47/47/47
f 48/48/48 44/44/44 40/40/40
f 48/48/48 40/40/40 45/45/45
f 41/41/41 49/49/49 42/42/42
f 49/49/49 41/41/41 47/47/47
f 50/50/50 47/47/47 46/46/46
f 46/46/46 42/42/42 50/50/50
f 47/47/47 51/51/51 49/49/49
f 47/47/47 50/50/50 51/51/51
f 52/52/52 42/42/42 49/49/49
f 52/52/52 50/50/50 42/42/42
f 53/53/53 49/49/49 51/51/51
f 49/49/49 53/53/53 52/52/52
f 54/54/54 51/51/51 50/50/50
f 50/50/50 52/52/52 54/54/54
f 51/51/51 55/55/55 53/53/53
f 51/51/51 54/54/54 55/55/55
f 56/56/56 52/52/52 53/53/53
f 56/56/56 54/54/54 52/52/52
f 57/57/57 53/53/53 55/55/55
f 53/53/53 57/57/57 56/56/56
f 58/58/58 55/55/55 54/54/54
f 54/54/54 56/56/56 58/58/58
f 59/59/59 57/57/57 55/55/55
f 58/58/58 59/59/59 55/55/55
f 60/60/60 56/56/56 57/57/57
f 60/60/60 58/58/58 56/56/56
f 60/60/60 57/57/57 61/61/61
f 60/60/60 61/61/61 58/58/58
f 62/62/62 61/61/61 57/57/57
f 57/57/57 59/59/59 62/62/62
f 58/58/58 63/63/63 59/59/59
f 63/63/63 58/58/58 61/61/61
f 36/36/36 62/62/62 59/59/59
f 36/36/36 59/59/59 63/63/63
f 62/62/62 36/36/36 44/44/44
f 63/63/63 45/45/45 36/36/36
f 44/44/44 64/64/64 62/62/62
f 61/61/61 62/62/62 64/64/64
f 64/64/64 65/65/65 61/61/61
f 44/44/44 48/48/48 64/64/64
f 45/45/45 63/63/63 66/66/66
f 45/45/45 66/66/66 48/48/48
f 61/61/61 66/66/66 63/63/63
f 66/66/66 61/61/61 65/65/65
f 67/67/67 64/64/64 48/48/48
f 67/67/67 48/48/48 66/66/66
f 64/64/64 67/67/67 65/65/65
f 66/66/66 65/65/65 67/67/67
f 68/68/68 61/61/61 65/65/65
f 68/68/68 65/65/65 61/61/61
f 69/69/69 65/65/65 67/67/67
f 69/69/69 67/67/67 65/65/65
f 72/72/72 71/71/71 70/70/70
f 72/72/72 70/70/70 73/73/73
f 74/74/74 70/70/70 71/71/71
f 74/74/74 71/71/71 75/75/75
f 76/76/76 75/75/75 71/71/71
f 76/76/76 73/73/73 75/75/75
f 74/74/74 77/77/77 70/70/70
f 74/74/74 75/75/75 77/77/77
f 78/78/78 75/75/75 73/73/73
f 78/78/78 73/73/73 70/70/70
f 78/78/78 79/79/79 75/75/75
f 78/78/78 70/70/70 79/79/79
f 80/80/80 77/77/77 75/75/75
f 80/80/80 75/75/75 79/79/79
f 77/77/77 80/80/80 81/81/81
f 79/79/79 82/82/82 80/80/80
f 83/83/83 70/70/70 77/77/77
f 83/83/83 79/79/79 70/70/70
f 77/77/77 81/81/81 83/83/83
f 79/79/79 83/83/83 82/82/82
f 84/84/84 81/81/81 80/80/80
f 84/84/84 80/80/80 82/82/82
f 85/85/85 83/83/83 81/81/81
f 85/85/85 82/82/82 83/83/83
f 86/86/86 81/81/81 84/84/84
f 81/81/81 86/86/86 87/87/87
f 81/81/81 88/88/88 85/85/85
f 81/81/81 87/87/87 88/88/88
f 89/89/89 86/86/86 84/84/84
f 90/90/90 89/89/89 84/84/84
f 82/82/82 90/90/90 84/84/84
f 82/82/82 91/91/91 90/90/90
f 92/92/92 86/86/86 89/89/89
f 90/90/90 92/92/92 89/89/89
f 92/92/92 87/87/87 86/86/86
f 92/92/92 90/90/90 91/91/91
f 93/93/93 82/82/82 85/85/85
f 82/82/82 93/93/93 91/91/91
f 85/85/85 88/88/88 94/94/94
f 93/93/93 85/85/85 94/94/94
f 95/95/95 94/94/94 88/88/88
f 94/94/94 95/95/95 93/93/93
f 95/95/95 88/88/88 87/87/87
f 95/95/95 91/91/91 93/93/93
f 92/92/92 96/96/96 87/87/87
f 92/92/92 91/91/91 96/96/96
f 95/95/95 87/87/87 97/97/97
f 95/95/95 97/97/97 91/91/91
f 98/98/98 87/87/87 96/96/96
f 98/98/98 97/97/97 87/87/87
f 99/99/99 96/96/96 91/91/91
f 99/99/99 91/91/91 97/97/97
f 100/100/100 98/98/98 96/96/96
f 97/97/97 98/98/98 100/100/100
f 99/99/99 100/100/100 96/96/96
f 99/99/99 97/97/97 100/100/100
