g CH_S7_hand
v -6.38128 -1.0000211 11.418886
v -5.992939 -1.0097057 11.30309
v -6.122065 -0.79736423 11.395202
v -6.204843 -1.2096521 11.32479
v -6.302293 -1.2122757 12.467502
v -5.992939 -1.0097057 11.30309
v -5.8169107 -0.8789161 12.317579
v -6.4663334 -1.000751 12.034124
v -7.333934 -0.8833801 12.017119
v -6.122065 -0.79736423 11.395202
v -6.0947347 -0.6783289 11.960942
v -6.950229 -0.18229945 12.01572
v -6.920945 -0.6372603 11.379743
v -6.738325 -0.36938336 13.376753
v -6.2504616 0.03978454 13.157061
v -7.4747853 -0.49786752 10.980959
v -6.2648706 -0.4154389 11.203628
v -6.3365073 -0.31002477 10.901155
v -7.6351795 -0.45221925 12.2874775
v -7.2833853 -0.14499393 13.496488
v -8.053593 0.3176087 12.1356
v -7.402069 0.63139874 13.496488
v -7.3397374 1.0431904 11.043641
v -7.707108 0.9937211 12.272077
v -6.723799 0.81118804 13.53811
v -7.205623 1.1826121 12.120345
v -6.2504616 0.8513242 13.157061
v -6.3300905 0.8553498 11.0100975
v -6.2648706 -0.4154389 11.203628
v -6.258775 0.96079063 11.31257
v -6.8787093 1.1826121 11.481247
v -6.258775 0.96079063 11.31257
v -6.950229 -0.18229945 12.01572
v -6.2504616 0.03978454 13.157061
v -6.920945 -0.6372603 11.379743
v -6.2648706 -0.4154389 11.203628
v -6.0947347 -0.6783289 11.960942
v -5.8169107 -0.8789161 12.317579
v -5.992939 -1.0097057 11.30309
v -6.122065 -0.79736423 11.395202
v -4.8316 0.8445124 15.032016
v -3.8643043 -0.6156923 15.798199
v -3.8643043 1.1330984 15.798199
v -4.8280997 -0.3580809 15.034496
v -5.9552064 0.6561467 13.489266
v -5.829142 -0.947156 15.605633
v -5.334688 -1.4900576 16.69937
v -5.9442387 -0.22562894 13.497085
v -6.0905156 0.6827751 13.060266
v -6.068815 -0.33669987 13.075316
v -6.653748 -0.62797177 13.798126
v -6.8623285 -0.76199925 13.393917
v -7.5123644 -0.16784813 13.689156
v -6.8302727 -0.3318887 16.086727
v -6.8485904 -0.6156923 17.433731
v -7.2909503 -0.1429088 14.092927
v -6.831935 0.8445703 16.085854
v -6.8485904 1.1330984 17.433731
v -5.334658 2.0074658 16.6994
v -7.296172 0.65634924 14.090184
v -7.5123644 0.6827751 13.689156
v -5.818205 1.4337322 15.600965
v -3.8643043 1.1330984 15.798199
v -4.8316 0.8445124 15.032016
v -6.619184 1.0589836 13.783309
v -6.794279 1.1080433 13.378224
v -5.9552064 0.6561467 13.489266
v -6.0905156 0.6827751 13.060266
v -6.8623285 -0.76199925 13.393917
v -6.068815 -0.33669987 13.075316
v -7.5123644 -0.16784813 13.689156
v -6.794279 1.1080433 13.378224
v -7.5123644 0.6827751 13.689156
v -6.0905156 0.6827751 13.060266
v -6.1029305 0.33228034 15.182888
v -6.2504616 0.03978454 13.157061
v -6.738325 -0.36938336 13.376753
v -7.2833853 -0.14499393 13.496488
v -7.402069 0.63139874 13.496488
v -6.723799 0.81118804 13.53811
v -6.2504616 0.8513242 13.157061
v -6.2504616 0.03978454 13.157061
v 5.992938 -1.0097057 11.30309
v 6.38128 -1.0000211 11.418886
v 6.122064 -0.79736423 11.395202
v 6.204843 -1.2096521 11.32479
v 6.302293 -1.2122757 12.467502
v 5.992938 -1.0097057 11.30309
v 5.8169093 -0.8789161 12.317579
v 6.4663334 -1.000751 12.034124
v 7.333933 -0.8833801 12.017119
v 6.122064 -0.79736423 11.395202
v 6.0947337 -0.6783289 11.960942
v 6.950229 -0.18229945 12.01572
v 6.9209437 -0.6372603 11.379743
v 6.738324 -0.36938336 13.376753
v 6.2504616 0.03978454 13.157061
v 7.474784 -0.49786752 10.980959
v 6.2648706 -0.4154389 11.203628
v 6.3365064 -0.31002477 10.901155
v 7.6351786 -0.45221925 12.2874775
v 7.2833853 -0.14499393 13.496488
v 8.053593 0.3176087 12.1356
v 7.402069 0.63139874 13.496488
v 7.3397374 1.0431904 11.043641
v 7.707107 0.9937211 12.272077
v 6.7237983 0.81118804 13.53811
v 7.205623 1.1826121 12.120345
v 6.2504616 0.8513242 13.157061
v 6.3300896 0.8553498 11.0100975
v 6.2648706 -0.4154389 11.203628
v 6.2587743 0.96079063 11.31257
v 6.8787093 1.1826121 11.481247
v 6.2587743 0.96079063 11.31257
v 6.950229 -0.18229945 12.01572
v 6.2504616 0.03978454 13.157061
v 6.9209437 -0.6372603 11.379743
v 6.2648706 -0.4154389 11.203628
v 6.0947337 -0.6783289 11.960942
v 5.8169093 -0.8789161 12.317579
v 5.992938 -1.0097057 11.30309
v 6.122064 -0.79736423 11.395202
v 3.8643038 -0.6156923 15.798199
v 4.831599 0.8445124 15.032016
v 3.8643038 1.1330984 15.798199
v 4.828099 -0.3580809 15.034496
v 5.955205 0.6561467 13.489266
v 5.829142 -0.947156 15.605633
v 5.334687 -1.4900576 16.69937
v 5.9442387 -0.22562894 13.497085
v 6.0905156 0.6827751 13.060266
v 6.0688143 -0.33669987 13.075316
v 6.653748 -0.62797177 13.798126
v 6.8623276 -0.76199925 13.393917
v 7.5123634 -0.16784813 13.689156
v 6.8302727 -0.3318887 16.086727
v 6.8485894 -0.6156923 17.433731
v 7.2909503 -0.1429088 14.092927
v 6.831935 0.8445703 16.085854
v 6.8485894 1.1330984 17.433731
v 5.334658 2.0074658 16.6994
v 7.2961707 0.65634924 14.090184
v 7.5123634 0.6827751 13.689156
v 5.8182034 1.4337322 15.600965
v 3.8643038 1.1330984 15.798199
v 4.831599 0.8445124 15.032016
v 6.619184 1.0589836 13.783309
v 6.794279 1.1080433 13.378224
v 5.955205 0.6561467 13.489266
v 6.0905156 0.6827751 13.060266
v 6.8623276 -0.76199925 13.393917
v 7.5123634 -0.16784813 13.689156
v 6.0688143 -0.33669987 13.075316
v 6.794279 1.1080433 13.378224
v 7.5123634 0.6827751 13.689156
v 6.0905156 0.6827751 13.060266
v 6.1029305 0.33228034 15.182888
v 6.738324 -0.36938336 13.376753
v 6.2504616 0.03978454 13.157061
v 7.2833853 -0.14499393 13.496488
v 7.402069 0.63139874 13.496488
v 6.7237983 0.81118804 13.53811
v 6.2504616 0.8513242 13.157061
v 6.2504616 0.03978454 13.157061
v -5.757564 0.2400647 15.825209
v -6.8485904 -0.6156923 17.433731
v -6.8485904 1.1330984 17.433731
v -5.334658 2.0074658 16.6994
v -5.334688 -1.4900576 16.69937
v -3.8643043 1.1330984 15.798199
v -3.8643043 -0.6156923 15.798199
v 5.757564 0.2400647 15.825209
v 6.8485894 1.1330984 17.433731
v 6.8485894 -0.6156923 17.433731
v 5.334658 2.0074658 16.6994
v 5.334687 -1.4900576 16.69937
v 3.8643038 1.1330984 15.798199
v 3.8643038 -0.6156923 15.798199
vt 0.51822114 0.95960444
vt 0.5072146 0.96408165
vt 0.5137994 0.96820426
vt 0.5104593 0.9561572
vt 0.53594273 0.92704105
vt 0.5021078 0.95060873
vt 0.51757866 0.91852385
vt 0.538363 0.94420296
vt 0.5754911 0.94275016
vt 0.5211754 0.9686132
vt 0.537395 0.96492416
vt 0.5682547 0.9672222
vt 0.5917908 0.96385735
vt 0.5591255 0.89056826
vt 0.53864676 0.8798375
vt 0.6043403 0.9516991
vt 0.6062545 0.98706025
vt 0.6176648 0.98181766
vt 0.58587503 0.92598236
vt 0.57915574 0.8860339
vt 0.60697585 0.92069304
vt 0.60653234 0.8796593
vt 0.6318442 0.9393959
vt 0.6222833 0.91283596
vt 0.6233781 0.86791205
vt 0.6380137 0.91263056
vt 0.64186496 0.86857456
vt 0.649368 0.9574156
vt 0.62224996 0.9920564
vt 0.65923417 0.96275157
vt 0.64546585 0.9330851
vt 0.65687007 0.9508788
vt 0.67984164 0.90344393
vt 0.6662438 0.8643759
vt 0.699673 0.9173145
vt 0.6987965 0.93975127
vt 0.70373976 0.88499546
vt 0.7060066 0.8700921
vt 0.7231691 0.8966724
vt 0.7152669 0.8983526
vt 0.40236455 0.17000777
vt 0.41900644 0.10579428
vt 0.36946565 0.14083293
vt 0.4401686 0.1460369
vt 0.43552294 0.22605033
vt 0.4887386 0.13031656
vt 0.47922015 0.08298395
vt 0.4654896 0.21699573
vt 0.4382814 0.24014847
vt 0.47051564 0.23213625
vt 0.49972054 0.21089739
vt 0.50228465 0.22869004
vt 0.53276366 0.22551432
vt 0.5395414 0.12636483
vt 0.5419909 0.07509199
vt 0.5337672 0.2095031
vt 0.5855854 0.13485518
vt 0.60034204 0.085370615
vt 0.6562914 0.11543515
vt 0.5648497 0.21397771
vt 0.5608681 0.23032682
vt 0.6307287 0.15477413
vt 0.7001541 0.16133106
vt 0.66543484 0.18484052
vt 0.596419 0.22484182
vt 0.59050584 0.24035978
vt 0.6249048 0.23768894
vt 0.6195813 0.25299412
vt 0.7015872 0.11481953
vt 0.69766945 0.10667506
vt 0.6958709 0.121496886
vt 0.6838978 0.11392918
vt 0.6878219 0.12138808
vt 0.6880185 0.10667506
vt 0.9298654 0.65575874
vt 0.97300774 0.7360768
vt 0.98658824 0.71918005
vt 0.98819363 0.6977139
vt 0.99024993 0.6683167
vt 0.98543584 0.64765614
vt 0.9906838 0.62943715
vt 0.99366325 0.6037446
vt 0.5072146 0.96408165
vt 0.51822114 0.95960444
vt 0.5137994 0.96820426
vt 0.5104593 0.9561572
vt 0.53594273 0.92704105
vt 0.5021078 0.95060873
vt 0.51757866 0.91852385
vt 0.538363 0.94420296
vt 0.5754911 0.94275016
vt 0.5211754 0.9686132
vt 0.537395 0.96492416
vt 0.5682547 0.9672222
vt 0.5917908 0.96385735
vt 0.5591255 0.89056826
vt 0.53864676 0.8798375
vt 0.6043403 0.9516991
vt 0.6062545 0.98706025
vt 0.6176648 0.98181766
vt 0.58587503 0.92598236
vt 0.57915574 0.8860339
vt 0.60697585 0.92069304
vt 0.60653234 0.8796593
vt 0.6318442 0.9393959
vt 0.6222833 0.91283596
vt 0.6233781 0.86791205
vt 0.6380137 0.91263056
vt 0.64186496 0.86857456
vt 0.649368 0.9574156
vt 0.62224996 0.9920564
vt 0.65923417 0.96275157
vt 0.64546585 0.9330851
vt 0.65687007 0.9508788
vt 0.67984164 0.90344393
vt 0.6662438 0.8643759
vt 0.699673 0.9173145
vt 0.6987965 0.93975127
vt 0.70373976 0.88499546
vt 0.7060066 0.8700921
vt 0.7231691 0.8966724
vt 0.7152669 0.8983526
vt 0.41900644 0.10579428
vt 0.40236455 0.17000777
vt 0.36946565 0.14083293
vt 0.4401686 0.1460369
vt 0.43552294 0.22605033
vt 0.4887386 0.13031656
vt 0.47922015 0.08298395
vt 0.4654896 0.21699573
vt 0.4382814 0.24014847
vt 0.47051564 0.23213625
vt 0.49972054 0.21089739
vt 0.50228465 0.22869004
vt 0.53276366 0.22551432
vt 0.5395414 0.12636483
vt 0.5419909 0.07509199
vt 0.5337672 0.2095031
vt 0.5855854 0.13485518
vt 0.60034204 0.085370615
vt 0.6562914 0.11543515
vt 0.5648497 0.21397771
vt 0.5608681 0.23032682
vt 0.6307287 0.15477413
vt 0.7001541 0.16133106
vt 0.66543484 0.18484052
vt 0.596419 0.22484182
vt 0.59050584 0.24035978
vt 0.6249048 0.23768894
vt 0.6195813 0.25299412
vt 0.7544554 0.1850026
vt 0.74873906 0.19167995
vt 0.75053763 0.17685813
vt 0.736766 0.18411225
vt 0.7406901 0.19157115
vt 0.7408867 0.17685813
vt 0.9298654 0.65575874
vt 0.98658824 0.71918005
vt 0.97300774 0.7360768
vt 0.98819363 0.6977139
vt 0.99024993 0.6683167
vt 0.98543584 0.64765614
vt 0.9906838 0.62943715
vt 0.99366325 0.6037446
vt 0.35003707 0.71601295
vt 0.32233042 0.7363139
vt 0.35159844 0.7505861
vt 0.37943277 0.73004866
vt 0.32078692 0.70293534
vt 0.37683696 0.6953426
vt 0.34823754 0.6824765
vt 0.35003707 0.71601295
vt 0.35159844 0.7505861
vt 0.32233042 0.7363139
vt 0.37943277 0.73004866
vt 0.32078692 0.70293534
vt 0.37683696 0.6953426
vt 0.34823754 0.6824765
vn -0.77733415 -0.040937554 -0.6277545
vn 0.71906745 0.028414235 -0.6943591
vn -0.26910487 0.84058696 -0.47010225
vn -0.2371931 -0.74997216 -0.61747974
vn -0.045316048 -0.989972 0.13379803
vn 0.71906745 0.028414235 -0.6943591
vn 0.95273244 -0.12157055 0.27842698
vn -0.77359223 -0.120698534 -0.62208277
vn -0.2411296 -0.92102313 -0.30589664
vn -0.26910487 0.84058696 -0.47010225
vn 0.41324392 0.6441189 -0.6436927
vn 0.93184793 0.13239549 -0.33783272
vn 0.6645284 -0.6345381 0.3946686
vn 0.04560877 -0.8315122 0.553631
vn 0.9909758 0.065585606 -0.11689956
vn -0.45479697 -0.6949108 -0.55700856
vn 0.80347574 -0.5838637 -0.11631855
vn 0.35199293 -0.26881403 -0.8965712
vn -0.7322983 -0.64712507 0.21205746
vn -0.69205666 -0.5405704 0.4783736
vn -0.99817884 -0.012335092 0.05904904
vn -0.7355741 0.4618195 0.4956344
vn -0.41684058 0.65786546 -0.6272614
vn -0.5768705 0.80280906 0.15072538
vn -0.11399282 0.9469546 0.3004706
vn 0.21725658 0.9750812 0.044903547
vn 0.7792827 0.58945376 -0.21275051
vn 0.61396986 0.50937766 -0.60297227
vn 0.80347574 -0.5838637 -0.11631855
vn 0.74585915 0.3384798 0.5736945
vn 0.62545305 0.7643398 0.15682228
vn 0.74585915 0.3384798 0.5736945
vn 0.93184793 0.13239549 -0.33783272
vn 0.9909758 0.065585606 -0.11689956
vn 0.6645284 -0.6345381 0.3946686
vn 0.80347574 -0.5838637 -0.11631855
vn 0.41324392 0.6441189 -0.6436927
vn 0.95273244 -0.12157055 0.27842698
vn 0.71906745 0.028414235 -0.6943591
vn -0.26910487 0.84058696 -0.47010225
vn 0.5669554 0.49691898 -0.65698785
vn 0.7991634 -0.5086352 -0.32035616
vn 0.72138643 0.69251674 0.0047253985
vn 0.64450574 -0.39819658 -0.65272653
vn 0.761155 0.5110103 -0.3993889
vn -0.0914031 -0.95876974 -0.26908374
vn -0.06715309 -0.9118961 0.4048901
vn 0.7838328 -0.514885 -0.34713063
vn 0.7354895 0.32608506 -0.5939054
vn 0.21784247 -0.4917991 -0.8430174
vn -0.02901408 -0.98970723 0.14013477
vn -0.21726544 -0.9468348 -0.23727529
vn -0.9034356 -0.35884193 -0.23459898
vn -0.8235592 -0.56696165 -0.01745421
vn -0.7299775 -0.21771693 0.6478673
vn -0.8366479 -0.47831464 0.26689944
vn -0.91261905 0.4084885 0.016236043
vn -0.12722762 0.3150549 0.94050705
vn -0.064503126 0.92144704 0.38311175
vn -0.8064002 0.5101123 0.29917243
vn -0.7634025 0.6447245 0.039331865
vn -0.15758368 0.94766915 -0.27765176
vn 0.72138643 0.69251674 0.0047253985
vn 0.5669554 0.49691898 -0.65698785
vn -0.02200745 0.9989604 -0.03992443
vn -0.17107408 0.6862866 -0.7069259
vn 0.761155 0.5110103 -0.3993889
vn 0.7354895 0.32608506 -0.5939054
vn -0.21726544 -0.9468348 -0.23727529
vn 0.21784247 -0.4917991 -0.8430174
vn -0.9034356 -0.35884193 -0.23459898
vn -0.17107408 0.6862866 -0.7069259
vn -0.7634025 0.6447245 0.039331865
vn 0.7354895 0.32608506 -0.5939054
vn 0.26738963 0.073739454 0.96076286
vn 0.9909758 0.065585606 -0.11689956
vn 0.04560877 -0.8315122 0.553631
vn -0.69205666 -0.5405704 0.4783736
vn -0.7355741 0.4618195 0.4956344
vn -0.11399282 0.9469546 0.3004706
vn 0.7792827 0.58945376 -0.21275051
vn 0.9909758 0.065585606 -0.11689956
vn -0.71906704 0.028414039 -0.69435954
vn 0.7773339 -0.04093695 -0.6277549
vn 0.26910365 0.84058744 -0.47010204
vn 0.23719355 -0.7499723 -0.6174794
vn 0.04531685 -0.9899719 0.13379796
vn -0.71906704 0.028414039 -0.69435954
vn -0.9527323 -0.12157046 0.27842715
vn 0.773592 -0.1206979 -0.6220832
vn 0.24112977 -0.92102313 -0.30589655
vn 0.26910365 0.84058744 -0.47010204
vn -0.4132437 0.64411926 -0.64369255
vn -0.93184805 0.13239592 -0.3378322
vn -0.6645286 -0.6345376 0.39466923
vn -0.04560884 -0.83151215 0.55363107
vn -0.9909758 0.06558626 -0.11689949
vn 0.45479667 -0.694911 -0.55700856
vn -0.8034758 -0.5838638 -0.11631759
vn -0.3519935 -0.26881444 -0.8965709
vn 0.732298 -0.6471255 0.21205714
vn 0.6920564 -0.5405708 0.47837347
vn 0.99817884 -0.012335197 0.059048895
vn 0.73557395 0.46181998 0.4956343
vn 0.41684064 0.6578655 -0.6272613
vn 0.57687026 0.8028091 0.15072541
vn 0.11399269 0.9469546 0.3004705
vn -0.21725643 0.9750812 0.044903606
vn -0.7792827 0.58945376 -0.2127505
vn -0.6139702 0.5093778 -0.6029717
vn -0.8034758 -0.5838638 -0.11631759
vn -0.7458593 0.33847967 0.5736946
vn -0.6254527 0.76433986 0.15682276
vn -0.7458593 0.33847967 0.5736946
vn -0.93184805 0.13239592 -0.3378322
vn -0.9909758 0.06558626 -0.11689949
vn -0.6645286 -0.6345376 0.39466923
vn -0.8034758 -0.5838638 -0.11631759
vn -0.4132437 0.64411926 -0.64369255
vn -0.9527323 -0.12157046 0.27842715
vn -0.71906704 0.028414039 -0.69435954
vn 0.26910365 0.84058744 -0.47010204
vn -0.7991634 -0.5086352 -0.32035607
vn -0.56695545 0.496919 -0.6569877
vn -0.7213865 0.6925165 0.0047256765
vn -0.64450556 -0.39819685 -0.6527265
vn -0.76115465 0.51101 -0.3993898
vn 0.09140315 -0.95876974 -0.26908365
vn 0.06715297 -0.911896 0.4048903
vn -0.78383255 -0.51488537 -0.3471307
vn -0.735489 0.32608473 -0.5939063
vn -0.21784289 -0.49179935 -0.8430171
vn 0.029014174 -0.98970723 0.14013487
vn 0.21726553 -0.9468348 -0.23727515
vn 0.90343565 -0.3588415 -0.23459935
vn 0.8235592 -0.56696177 -0.017453874
vn 0.729977 -0.21771678 0.64786804
vn 0.83664846 -0.4783141 0.26689884
vn 0.91261894 0.40848878 0.016235977
vn 0.1272274 0.3150548 0.9405072
vn 0.064502925 0.9214473 0.38311142
vn 0.8064001 0.5101126 0.29917207
vn 0.76340264 0.6447242 0.039332543
vn 0.15758364 0.94766915 -0.27765197
vn -0.7213865 0.6925165 0.0047256765
vn -0.56695545 0.496919 -0.6569877
vn 0.022007888 0.9989604 -0.039924067
vn 0.17107461 0.68628645 -0.7069259
vn -0.76115465 0.51101 -0.3993898
vn -0.735489 0.32608473 -0.5939063
vn 0.21726553 -0.9468348 -0.23727515
vn 0.90343565 -0.3588415 -0.23459935
vn -0.21784289 -0.49179935 -0.8430171
vn 0.17107461 0.68628645 -0.7069259
vn 0.76340264 0.6447242 0.039332543
vn -0.735489 0.32608473 -0.5939063
vn -0.26739052 0.07373992 0.96076256
vn -0.04560884 -0.83151215 0.55363107
vn -0.9909758 0.06558626 -0.11689949
vn 0.6920564 -0.5405708 0.47837347
vn 0.73557395 0.46181998 0.4956343
vn 0.11399269 0.9469546 0.3004705
vn -0.7792827 0.58945376 -0.2127505
vn -0.9909758 0.06558626 -0.11689949
vn 0.4786516 0.002817732 0.8780004
vn -0.7299775 -0.21771693 0.6478673
vn -0.12722762 0.3150549 0.94050705
vn -0.064503126 0.92144704 0.38311175
vn -0.06715309 -0.9118961 0.4048901
vn 0.72138643 0.69251674 0.0047253985
vn 0.7991634 -0.5086352 -0.32035616
vn -0.4786518 0.0028177842 0.8780003
vn 0.1272274 0.3150548 0.9405072
vn 0.729977 -0.21771678 0.64786804
vn 0.064502925 0.9214473 0.38311142
vn 0.06715297 -0.911896 0.4048903
vn -0.7213865 0.6925165 0.0047256765
vn -0.7991634 -0.5086352 -0.32035607
g CH_S7_hand_0
f 3/3/3 2/2/2 1/1/1
f 4/4/4 1/1/1 2/2/2
f 4/4/4 5/5/5 1/1/1
f 4/4/4 6/6/6 5/5/5
f 7/7/7 5/5/5 6/6/6
f 8/8/8 1/1/1 5/5/5
f 9/9/9 8/8/8 5/5/5
f 1/1/1 8/8/8 10/10/10
f 11/11/11 10/10/10 8/8/8
f 8/8/8 9/9/9 11/11/11
f 12/12/12 11/11/11 9/9/9
f 12/12/12 9/9/9 13/13/13
f 5/5/5 7/7/7 14/14/14
f 9/9/9 5/5/5 14/14/14
f 15/15/15 14/14/14 7/7/7
f 16/16/16 13/13/13 9/9/9
f 13/13/13 16/16/16 17/17/17
f 18/18/18 17/17/17 16/16/16
f 9/9/9 14/14/14 19/19/19
f 16/16/16 9/9/9 19/19/19
f 20/20/20 19/19/19 14/14/14
f 21/21/21 19/19/19 20/20/20
f 19/19/19 21/21/21 16/16/16
f 20/20/20 22/22/22 21/21/21
f 16/16/16 23/23/23 18/18/18
f 23/23/23 16/16/16 21/21/21
f 24/24/24 21/21/21 22/22/22
f 21/21/21 24/24/24 23/23/23
f 22/22/22 25/25/25 24/24/24
f 26/26/26 24/24/24 25/25/25
f 24/24/24 26/26/26 23/23/23
f 27/27/27 26/26/26 25/25/25
f 28/28/28 18/18/18 23/23/23
f 18/18/18 28/28/28 29/29/29
f 30/30/30 29/29/29 28/28/28
f 23/23/23 31/31/31 28/28/28
f 31/31/31 23/23/23 26/26/26
f 32/32/32 28/28/28 31/31/31
f 26/26/26 27/27/27 33/33/33
f 26/26/26 33/33/33 31/31/31
f 34/34/34 33/33/33 27/27/27
f 31/31/31 35/35/35 32/32/32
f 35/35/35 31/31/31 33/33/33
f 36/36/36 32/32/32 35/35/35
f 33/33/33 34/34/34 37/37/37
f 38/38/38 37/37/37 34/34/34
f 38/38/38 39/39/39 37/37/37
f 40/40/40 37/37/37 39/39/39
f 43/43/43 42/42/42 41/41/41
f 44/44/44 41/41/41 42/42/42
f 41/41/41 44/44/44 45/45/45
f 44/44/44 42/42/42 46/46/46
f 47/47/47 46/46/46 42/42/42
f 48/48/48 45/45/45 44/44/44
f 44/44/44 46/46/46 48/48/48
f 45/45/45 48/48/48 49/49/49
f 50/50/50 49/49/49 48/48/48
f 48/48/48 51/51/51 50/50/50
f 51/51/51 48/48/48 46/46/46
f 52/52/52 50/50/50 51/51/51
f 52/52/52 51/51/51 53/53/53
f 46/46/46 47/47/47 54/54/54
f 55/55/55 54/54/54 47/47/47
f 51/51/51 46/46/46 56/56/56
f 56/56/56 53/53/53 51/51/51
f 54/54/54 56/56/56 46/46/46
f 54/54/54 55/55/55 57/57/57
f 54/54/54 57/57/57 56/56/56
f 58/58/58 57/57/57 55/55/55
f 58/58/58 59/59/59 57/57/57
f 56/56/56 60/60/60 53/53/53
f 60/60/60 56/56/56 57/57/57
f 61/61/61 53/53/53 60/60/60
f 62/62/62 57/57/57 59/59/59
f 57/57/57 62/62/62 60/60/60
f 59/59/59 63/63/63 62/62/62
f 64/64/64 62/62/62 63/63/63
f 60/60/60 65/65/65 61/61/61
f 65/65/65 60/60/60 62/62/62
f 62/62/62 64/64/64 65/65/65
f 66/66/66 61/61/61 65/65/65
f 67/67/67 65/65/65 64/64/64
f 65/65/65 67/67/67 66/66/66
f 68/68/68 66/66/66 67/67/67
f 71/71/71 70/70/70 69/69/69
f 72/72/72 70/70/70 71/71/71
f 71/71/71 73/73/73 72/72/72
f 72/72/72 74/74/74 70/70/70
f 77/77/77 76/76/76 75/75/75
f 75/75/75 78/78/78 77/77/77
f 78/78/78 75/75/75 79/79/79
f 80/80/80 79/79/79 75/75/75
f 75/75/75 81/81/81 80/80/80
f 81/81/81 75/75/75 82/82/82
f 85/85/85 84/84/84 83/83/83
f 86/86/86 83/83/83 84/84/84
f 86/86/86 84/84/84 87/87/87
f 86/86/86 87/87/87 88/88/88
f 89/89/89 88/88/88 87/87/87
f 90/90/90 87/87/87 84/84/84
f 90/90/90 91/91/91 87/87/87
f 84/84/84 92/92/92 90/90/90
f 93/93/93 90/90/90 92/92/92
f 90/90/90 93/93/93 91/91/91
f 94/94/94 91/91/91 93/93/93
f 91/91/91 94/94/94 95/95/95
f 87/87/87 96/96/96 89/89/89
f 87/87/87 91/91/91 96/96/96
f 97/97/97 89/89/89 96/96/96
f 95/95/95 98/98/98 91/91/91
f 95/95/95 99/99/99 98/98/98
f 100/100/100 98/98/98 99/99/99
f 91/91/91 101/101/101 96/96/96
f 91/91/91 98/98/98 101/101/101
f 102/102/102 96/96/96 101/101/101
f 101/101/101 103/103/103 102/102/102
f 103/103/103 101/101/101 98/98/98
f 104/104/104 102/102/102 103/103/103
f 98/98/98 100/100/100 105/105/105
f 98/98/98 105/105/105 103/103/103
f 103/103/103 106/106/106 104/104/104
f 106/106/106 103/103/103 105/105/105
f 104/104/104 106/106/106 107/107/107
f 108/108/108 107/107/107 106/106/106
f 106/106/106 105/105/105 108/108/108
f 108/108/108 109/109/109 107/107/107
f 110/110/110 105/105/105 100/100/100
f 100/100/100 111/111/111 110/110/110
f 112/112/112 110/110/110 111/111/111
f 105/105/105 110/110/110 113/113/113
f 113/113/113 108/108/108 105/105/105
f 114/114/114 113/113/113 110/110/110
f 108/108/108 115/115/115 109/109/109
f 108/108/108 113/113/113 115/115/115
f 116/116/116 109/109/109 115/115/115
f 113/113/113 114/114/114 117/117/117
f 117/117/117 115/115/115 113/113/113
f 118/118/118 117/117/117 114/114/114
f 115/115/115 119/119/119 116/116/116
f 120/120/120 116/116/116 119/119/119
f 120/120/120 119/119/119 121/121/121
f 122/122/122 121/121/121 119/119/119
f 125/125/125 124/124/124 123/123/123
f 126/126/126 123/123/123 124/124/124
f 124/124/124 127/127/127 126/126/126
f 126/126/126 128/128/128 123/123/123
f 129/129/129 123/123/123 128/128/128
f 130/130/130 126/126/126 127/127/127
f 126/126/126 130/130/130 128/128/128
f 127/127/127 131/131/131 130/130/130
f 132/132/132 130/130/130 131/131/131
f 130/130/130 132/132/132 133/133/133
f 133/133/133 128/128/128 130/130/130
f 134/134/134 133/133/133 132/132/132
f 134/134/134 135/135/135 133/133/133
f 128/128/128 136/136/136 129/129/129
f 137/137/137 129/129/129 136/136/136
f 133/133/133 138/138/138 128/128/128
f 138/138/138 133/133/133 135/135/135
f 136/136/136 128/128/128 138/138/138
f 136/136/136 139/139/139 137/137/137
f 136/136/136 138/138/138 139/139/139
f 140/140/140 137/137/137 139/139/139
f 140/140/140 139/139/139 141/141/141
f 138/138/138 135/135/135 142/142/142
f 142/142/142 139/139/139 138/138/138
f 143/143/143 142/142/142 135/135/135
f 144/144/144 141/141/141 139/139/139
f 139/139/139 142/142/142 144/144/144
f 141/141/141 144/144/144 145/145/145
f 146/146/146 145/145/145 144/144/144
f 142/142/142 143/143/143 147/147/147
f 147/147/147 144/144/144 142/142/142
f 144/144/144 147/147/147 146/146/146
f 148/148/148 147/147/147 143/143/143
f 149/149/149 146/146/146 147/147/147
f 147/147/147 148/148/148 149/149/149
f 150/150/150 149/149/149 148/148/148
f 153/153/153 152/152/152 151/151/151
f 153/153/153 154/154/154 152/152/152
f 155/155/155 152/152/152 154/154/154
f 156/156/156 154/154/154 153/153/153
f 159/159/159 158/158/158 157/157/157
f 160/160/160 157/157/157 158/158/158
f 157/157/157 160/160/160 161/161/161
f 161/161/161 162/162/162 157/157/157
f 163/163/163 157/157/157 162/162/162
f 157/157/157 163/163/163 164/164/164
f 167/167/167 166/166/166 165/165/165
f 165/165/165 168/168/168 167/167/167
f 166/166/166 169/169/169 165/165/165
f 170/170/170 168/168/168 165/165/165
f 169/169/169 171/171/171 165/165/165
f 171/171/171 170/170/170 165/165/165
f 174/174/174 173/173/173 172/172/172
f 175/175/175 172/172/172 173/173/173
f 176/176/176 174/174/174 172/172/172
f 175/175/175 177/177/177 172/172/172
f 178/178/178 176/176/176 172/172/172
f 177/177/177 178/178/178 172/172/172
