g CH_S7_head
v 2.76119 0.13148169 25.68005
v 3.0489876 -0.11352769 25.496555
v 3.2209258 0.68071216 26.407118
v 2.3055131 -0.51867217 24.435572
v 1.5800035 -0.24478686 24.394564
v 0.80711204 -0.99265075 23.807648
v 2.4026814 -1.4307525 24.662409
v 1.9395978 -2.1649084 24.27564
v 1.5461599 -1.3219558 23.921837
v 0.9740546 -2.0806127 23.596529
v 0.017772082 -1.4875 23.48626
v 2.9236686 -0.86343443 25.586655
v 3.4691646 -0.5131311 26.949642
v 2.4418006 -2.7704353 25.190845
v 2.8091085 -2.563052 26.20697
v 1.8494216 -3.6609302 25.886152
v 3.0272732 -2.383374 26.98654
v 3.504029 -1.5395491 27.797728
v 0.017772082 -2.0634084 23.444946
v -0.9385104 -2.0806127 23.596529
v -0.7715679 -0.99265075 23.807648
v 1.2694789 -2.6044698 23.797642
v 0.3300884 -3.0148618 23.366539
v 1.8786117 -2.9548156 24.490467
v 1.1530901 -3.1213264 24.030722
v 1.5841044 -3.636429 25.12548
v 0.4004589 -3.3990037 23.586143
v 1.1384917 -3.4027958 24.636364
v 0.017772082 -3.0576262 23.32668
v 0.017772082 -3.461333 23.551754
v 0.017772082 -3.583534 24.188274
v -0.29454422 -3.0148618 23.366539
v 0.5051717 -3.4952583 24.19587
v 0.4798218 -3.7420168 24.66524
v 0.49213645 -3.945902 24.90118
v -0.36491475 -3.3990037 23.586143
v -1.2339348 -2.6044698 23.797642
v -1.9040537 -2.1649084 24.27564
v -1.117546 -3.1213264 24.030722
v 0.50150526 -3.9596102 25.40491
v 0.017772082 -4.106303 25.286846
v 0.017772082 -3.873354 24.650768
v -0.46962753 -3.4952583 24.19587
v -0.44427764 -3.7420168 24.66524
v 0.017772082 -4.0810065 24.878262
v -0.4565923 -3.945902 24.90118
v -1.1029476 -3.4027958 24.636364
v -1.8430675 -2.9548156 24.490467
v -1.5485603 -3.636429 25.12548
v -0.4659611 -3.9596102 25.40491
v -1.8138775 -3.6609302 25.886152
v -2.4062564 -2.7704353 25.190845
v -0.32111612 -4.31407 25.72876
v -0.62493205 -3.8481877 25.97704
v 0.017772082 -4.5042953 25.596846
v 0.35666028 -4.31407 25.72876
v 0.017772082 -4.5795584 25.801447
v 0.66047627 -3.8481877 25.97704
v -0.29580432 -4.134584 26.34222
v 0.33134848 -4.134584 26.34222
v 0.017772082 -4.323656 26.430023
v -0.33509052 -4.005697 27.00369
v 0.3706347 -4.005697 27.00369
v 0.017772082 -4.1735673 27.096222
v 0.017772082 -4.6017027 27.749186
v -0.55253106 -3.6881337 26.675323
v -0.84709823 -4.4381394 27.641825
v -0.897475 -3.556069 26.321098
v -0.8325997 -3.7784755 27.27659
v -1.749407 -3.4121687 26.331903
v 0.5880752 -3.6881337 26.675323
v 0.88264245 -4.4381394 27.641825
v 0.93301916 -3.556069 26.321098
v 0.86814386 -3.7784755 27.27659
v 1.7849512 -3.4121687 26.331903
v 0.017772082 -4.7033157 29.102571
v 2.3561869 -3.2290792 26.393112
v 2.7396934 -2.987763 26.918215
v 2.2941334 -3.4652941 27.355091
v 1.7127874 -3.6750977 27.419437
v 1.894696 -4.2770543 27.833372
v 2.9124737 -3.3596241 27.947039
v 1.735732 -4.4050474 29.142433
v 3.1446877 -3.2132716 29.168983
v 3.2821217 -2.7949362 30.39093
v 1.9880143 -4.156201 30.76552
v 0.017772082 -4.484166 30.67202
v -1.7001878 -4.4050474 29.142433
v -1.9524702 -4.156201 30.76552
v -3.1091435 -3.2132716 29.168983
v -3.2465775 -2.7949362 30.39093
v -3.4684849 -1.5395491 27.797728
v -1.8591518 -4.2770543 27.833372
v -2.8769295 -3.3596241 27.947039
v -1.6772432 -3.6750977 27.419437
v -2.2585893 -3.4652941 27.355091
v -2.991729 -2.383374 26.98654
v -3.4336205 -0.5131311 26.949642
v -2.3206427 -3.2290792 26.393112
v -2.7041492 -2.987763 26.918215
v -2.7735643 -2.563052 26.20697
v -2.8881245 -0.86343443 25.586655
v -3.0134435 -0.11352769 25.496555
v -2.3671372 -1.4307525 24.662409
v -2.269969 -0.51867217 24.435572
v -2.7256458 0.13148169 25.68005
v -3.1853817 0.68071216 26.407118
v -1.5444593 -0.24478686 24.394564
v -1.5106157 -1.3219558 23.921837
vt 0.057102576 0.6457957
vt 0.068506666 0.66720647
vt 0.010185361 0.6613845
vt 0.12441972 0.6301384
vt 0.12642734 0.5955344
vt 0.18637596 0.582253
vt 0.15021238 0.6615288
vt 0.19095708 0.6609408
vt 0.1769446 0.6205297
vt 0.22332473 0.6219401
vt 0.23442248 0.5684698
vt 0.09511081 0.69207007
vt 0.044237707 0.7409721
vt 0.17835157 0.71691525
vt 0.1500749 0.75232464
vt 0.2198245 0.75642604
vt 0.12689713 0.7808424
vt 0.07288793 0.8000187
vt 0.25552464 0.5881481
vt 0.22332473 0.6219401
vt 0.18637596 0.582253
vt 0.22884788 0.6502704
vt 0.2751612 0.6315348
vt 0.21029569 0.69390273
vt 0.24605183 0.6701869
vt 0.23571777 0.72617614
vt 0.28213274 0.65026754
vt 0.24326657 0.70123684
vt 0.2883298 0.62433475
vt 0.2993388 0.64418846
vt 0.30532986 0.6758232
vt 0.2751612 0.6315348
vt 0.28105968 0.67886883
vt 0.28455147 0.7044257
vt 0.2870932 0.7194706
vt 0.28213274 0.65026754
vt 0.22884788 0.6502704
vt 0.19095708 0.6609408
vt 0.24605183 0.6701869
vt 0.28835925 0.74545735
vt 0.31437033 0.73792464
vt 0.31021276 0.7025924
vt 0.28105968 0.67886883
vt 0.28455147 0.7044257
vt 0.31346363 0.7175091
vt 0.2870932 0.7194706
vt 0.24326657 0.70123684
vt 0.21029569 0.69390273
vt 0.23571777 0.72617614
vt 0.28835925 0.74545735
vt 0.2198245 0.75642604
vt 0.17835157 0.71691525
vt 0.30928957 0.7689656
vt 0.2733037 0.77277094
vt 0.32848454 0.7662795
vt 0.30928957 0.7689656
vt 0.32844687 0.776819
vt 0.2733037 0.77277094
vt 0.29300037 0.79643935
vt 0.29300037 0.79643935
vt 0.30856818 0.80605614
vt 0.27552226 0.82602173
vt 0.27552226 0.82602173
vt 0.29243794 0.8364911
vt 0.28526428 0.8679833
vt 0.2574745 0.81028044
vt 0.24617207 0.8530443
vt 0.24796243 0.79301715
vt 0.24157077 0.8295394
vt 0.21459131 0.78215474
vt 0.2574745 0.81028044
vt 0.24617207 0.8530443
vt 0.24796243 0.79301715
vt 0.24157077 0.8295394
vt 0.21459131 0.78215474
vt 0.2684456 0.9295914
vt 0.18847519 0.7766799
vt 0.16118251 0.791617
vt 0.18111701 0.82052237
vt 0.20674866 0.8310744
vt 0.19911472 0.8498488
vt 0.15516706 0.83903587
vt 0.20419773 0.9136828
vt 0.12858075 0.88997877
vt 0.10199445 0.9409216
vt 0.18575206 0.97591907
vt 0.25155938 0.99108493
vt 0.20419773 0.9136828
vt 0.18575206 0.97591907
vt 0.12858075 0.88997877
vt 0.10199445 0.9409216
vt 0.07288793 0.8000187
vt 0.19911472 0.8498488
vt 0.15516706 0.83903587
vt 0.20674866 0.8310744
vt 0.18111701 0.82052237
vt 0.12689713 0.7808424
vt 0.044237707 0.7409721
vt 0.18847519 0.7766799
vt 0.16118251 0.791617
vt 0.1500749 0.75232464
vt 0.09511081 0.69207007
vt 0.068506666 0.66720647
vt 0.15021238 0.6615288
vt 0.12441972 0.6301384
vt 0.057102576 0.6457957
vt 0.010185361 0.6613845
vt 0.12642734 0.5955344
vt 0.1769446 0.6205297
vn 0.28284147 0.7661442 -0.57708204
vn 0.7637876 0.25568566 -0.59266627
vn 0.19016974 0.72178054 -0.6654835
vn 0.52735317 0.34054908 -0.7784118
vn 0.28095883 0.63673156 -0.7180773
vn 0.24878402 0.30366182 -0.9197261
vn 0.8367732 -0.13799085 -0.5298766
vn 0.67517537 -0.16726555 -0.71844304
vn 0.43624762 0.103587225 -0.8938443
vn 0.3509481 0.0714675 -0.9336637
vn -0 0.14944543 -0.98877
vn 0.91918117 -0.17722742 -0.3517052
vn 0.9335087 -0.20720747 -0.29262033
vn 0.82778525 -0.39741695 -0.3960192
vn 0.8779452 -0.41023412 -0.24682027
vn 0.44402596 -0.8869954 0.12680817
vn 0.90261763 -0.38830924 -0.18573478
vn 0.9456415 -0.274655 -0.17414582
vn -0 0.10795767 -0.9941554
vn -0.35094807 0.07146749 -0.9336636
vn -0.24878402 0.30366176 -0.9197261
vn 0.57530427 -0.26544136 -0.7736705
vn 0.2731297 -0.20003015 -0.94095063
vn 0.58585125 -0.56435174 -0.581623
vn 0.5247597 -0.67434776 -0.51950216
vn 0.44779304 -0.8181312 -0.36075297
vn 0.3768852 -0.7517218 -0.5411764
vn 0.3660847 -0.763233 -0.53240705
vn -0 -0.1923463 -0.9813271
vn -0 -0.7071273 -0.7070862
vn -0 -0.93857825 -0.3450665
vn -0.27312964 -0.20003015 -0.94095063
vn 0.29551598 -0.89967805 -0.3213248
vn 0.29686308 -0.8073041 -0.51003176
vn 0.29876807 -0.86431783 -0.40458927
vn -0.3768852 -0.7517218 -0.5411764
vn -0.57530427 -0.26544136 -0.7736705
vn -0.67517537 -0.16726558 -0.71844304
vn -0.5247597 -0.67434776 -0.51950216
vn 0.3991207 -0.90574753 -0.14256251
vn -0 -0.9171878 -0.3984553
vn -0 -0.7812955 -0.62416124
vn -0.29551598 -0.89967805 -0.3213248
vn -0.29686308 -0.8073041 -0.5100318
vn -0 -0.9199792 -0.39196712
vn -0.29876807 -0.86431783 -0.40458927
vn -0.3660847 -0.763233 -0.53240705
vn -0.58585125 -0.56435174 -0.5816231
vn -0.4477931 -0.8181312 -0.36075297
vn -0.39912078 -0.90574753 -0.14256252
vn -0.4440259 -0.88699526 0.12680815
vn -0.8277854 -0.397417 -0.3960192
vn -0.6775134 -0.6992302 -0.22815068
vn -0.6380846 -0.74368167 0.19946338
vn -0 -0.8072194 -0.5902515
vn 0.67751336 -0.69923025 -0.22815067
vn -0 -0.99323326 0.11613675
vn 0.6380846 -0.74368167 0.19946337
vn -0.6455471 -0.73708385 0.19994088
vn 0.6455471 -0.7370839 0.19994088
vn -0 -0.9680827 0.25063106
vn -0.50144273 -0.8442483 -0.18920915
vn 0.5014427 -0.8442483 -0.18920915
vn -0 -0.9804115 -0.19695996
vn -0 -0.9064789 -0.42225125
vn -0.6233292 -0.75453997 -0.2052562
vn -0.30049843 -0.84273607 -0.4466504
vn -0.25382146 -0.94900334 0.18699537
vn -0.33856592 -0.77880085 -0.52805525
vn -0.2319076 -0.97236425 0.026957326
vn 0.6233292 -0.75453997 -0.20525622
vn 0.30049843 -0.84273607 -0.44665045
vn 0.25382146 -0.94900334 0.1869954
vn 0.33856592 -0.77880085 -0.52805525
vn 0.23190758 -0.97236425 0.026957316
vn -0 -0.9999893 -0.0046293503
vn 0.5900275 -0.8030061 -0.08395657
vn 0.82026196 -0.56934184 -0.054957822
vn 0.55049556 -0.7658196 -0.33237788
vn 0.2096821 -0.7968121 -0.5666778
vn 0.3722572 -0.7221277 -0.5830575
vn 0.7706109 -0.58598286 -0.250565
vn 0.39057475 -0.92044026 0.015528822
vn 0.8211721 -0.5706159 -0.008593907
vn 0.88455653 -0.46269676 0.058917716
vn 0.5365585 -0.8379585 0.09965246
vn -0 -0.99114066 0.13281694
vn -0.39057475 -0.92044026 0.0155288195
vn -0.5365585 -0.8379585 0.099652454
vn -0.8211721 -0.5706158 -0.00859391
vn -0.88455665 -0.4626968 0.058917724
vn -0.9456415 -0.274655 -0.17414583
vn -0.3722572 -0.72212774 -0.58305746
vn -0.7706109 -0.58598286 -0.250565
vn -0.20968214 -0.79681224 -0.5666778
vn -0.5504955 -0.7658196 -0.3323779
vn -0.9026176 -0.3883092 -0.18573481
vn -0.9335087 -0.20720744 -0.29262027
vn -0.5900275 -0.8030061 -0.08395657
vn -0.82026184 -0.5693418 -0.054957837
vn -0.8779452 -0.41023412 -0.24682026
vn -0.91918117 -0.17722742 -0.35170513
vn -0.7637876 0.25568566 -0.5926662
vn -0.8367732 -0.13799085 -0.5298766
vn -0.5273532 0.34054905 -0.77841175
vn -0.2828415 0.7661442 -0.57708204
vn -0.19016974 0.72178054 -0.6654835
vn -0.28095883 0.63673156 -0.7180773
vn -0.4362476 0.103587225 -0.8938443
g CH_S7_head_0
f 3/3/3 2/2/2 1/1/1
f 2/2/2 4/4/4 1/1/1
f 5/5/5 1/1/1 4/4/4
f 5/5/5 4/4/4 6/6/6
f 4/4/4 2/2/2 7/7/7
f 7/7/7 8/8/8 4/4/4
f 9/9/9 6/6/6 4/4/4
f 9/9/9 4/4/4 8/8/8
f 10/10/10 6/6/6 9/9/9
f 9/9/9 8/8/8 10/10/10
f 6/6/6 10/10/10 11/11/11
f 12/12/12 7/7/7 2/2/2
f 12/12/12 2/2/2 13/13/13
f 7/7/7 12/12/12 14/14/14
f 7/7/7 14/14/14 8/8/8
f 12/12/12 13/13/13 15/15/15
f 15/15/15 14/14/14 12/12/12
f 14/14/14 15/15/15 16/16/16
f 17/17/17 15/15/15 13/13/13
f 18/18/18 17/17/17 13/13/13
f 19/19/19 11/11/11 10/10/10
f 19/19/19 20/20/20 11/11/11
f 21/21/21 11/11/11 20/20/20
f 22/22/22 10/10/10 8/8/8
f 10/10/10 23/23/23 19/19/19
f 22/22/22 23/23/23 10/10/10
f 24/24/24 8/8/8 14/14/14
f 22/22/22 8/8/8 25/25/25
f 24/24/24 25/25/25 8/8/8
f 24/24/24 14/14/14 26/26/26
f 16/16/16 26/26/26 14/14/14
f 23/23/23 22/22/22 27/27/27
f 25/25/25 27/27/27 22/22/22
f 24/24/24 26/26/26 28/28/28
f 28/28/28 25/25/25 24/24/24
f 29/29/29 19/19/19 23/23/23
f 29/29/29 23/23/23 30/30/30
f 27/27/27 30/30/30 23/23/23
f 30/30/30 27/27/27 31/31/31
f 29/29/29 32/32/32 19/19/19
f 29/29/29 30/30/30 32/32/32
f 20/20/20 19/19/19 32/32/32
f 33/33/33 27/27/27 25/25/25
f 33/33/33 31/31/31 27/27/27
f 33/33/33 25/25/25 34/34/34
f 28/28/28 34/34/34 25/25/25
f 33/33/33 34/34/34 31/31/31
f 28/28/28 26/26/26 35/35/35
f 28/28/28 35/35/35 34/34/34
f 36/36/36 32/32/32 30/30/30
f 30/30/30 31/31/31 36/36/36
f 32/32/32 37/37/37 20/20/20
f 32/32/32 36/36/36 37/37/37
f 37/37/37 38/38/38 20/20/20
f 39/39/39 37/37/37 36/36/36
f 37/37/37 39/39/39 38/38/38
f 40/40/40 35/35/35 26/26/26
f 40/40/40 41/41/41 35/35/35
f 26/26/26 16/16/16 40/40/40
f 34/34/34 35/35/35 42/42/42
f 42/42/42 31/31/31 34/34/34
f 43/43/43 36/36/36 31/31/31
f 36/36/36 43/43/43 39/39/39
f 43/43/43 31/31/31 44/44/44
f 42/42/42 44/44/44 31/31/31
f 43/43/43 44/44/44 39/39/39
f 45/45/45 42/42/42 35/35/35
f 45/45/45 35/35/35 41/41/41
f 45/45/45 46/46/46 42/42/42
f 44/44/44 42/42/42 46/46/46
f 45/45/45 41/41/41 46/46/46
f 47/47/47 39/39/39 44/44/44
f 46/46/46 47/47/47 44/44/44
f 39/39/39 47/47/47 48/48/48
f 48/48/48 38/38/38 39/39/39
f 47/47/47 46/46/46 49/49/49
f 49/49/49 48/48/48 47/47/47
f 50/50/50 46/46/46 41/41/41
f 50/50/50 49/49/49 46/46/46
f 49/49/49 50/50/50 51/51/51
f 48/48/48 49/49/49 52/52/52
f 48/48/48 52/52/52 38/38/38
f 51/51/51 52/52/52 49/49/49
f 50/50/50 41/41/41 53/53/53
f 54/54/54 51/51/51 50/50/50
f 50/50/50 53/53/53 54/54/54
f 55/55/55 53/53/53 41/41/41
f 55/55/55 41/41/41 56/56/56
f 40/40/40 56/56/56 41/41/41
f 55/55/55 57/57/57 53/53/53
f 57/57/57 55/55/55 56/56/56
f 40/40/40 58/58/58 56/56/56
f 58/58/58 40/40/40 16/16/16
f 59/59/59 54/54/54 53/53/53
f 53/53/53 57/57/57 59/59/59
f 56/56/56 60/60/60 57/57/57
f 60/60/60 56/56/56 58/58/58
f 61/61/61 59/59/59 57/57/57
f 61/61/61 57/57/57 60/60/60
f 59/59/59 62/62/62 54/54/54
f 59/59/59 61/61/61 62/62/62
f 60/60/60 63/63/63 61/61/61
f 60/60/60 58/58/58 63/63/63
f 64/64/64 62/62/62 61/61/61
f 64/64/64 61/61/61 63/63/63
f 64/64/64 65/65/65 62/62/62
f 64/64/64 63/63/63 65/65/65
f 66/66/66 54/54/54 62/62/62
f 67/67/67 62/62/62 65/65/65
f 62/62/62 67/67/67 66/66/66
f 54/54/54 66/66/66 68/68/68
f 54/54/54 68/68/68 51/51/51
f 66/66/66 69/69/69 68/68/68
f 69/69/69 66/66/66 67/67/67
f 70/70/70 51/51/51 68/68/68
f 68/68/68 69/69/69 70/70/70
f 71/71/71 63/63/63 58/58/58
f 72/72/72 65/65/65 63/63/63
f 63/63/63 71/71/71 72/72/72
f 71/71/71 58/58/58 73/73/73
f 58/58/58 16/16/16 73/73/73
f 74/74/74 71/71/71 73/73/73
f 74/74/74 72/72/72 71/71/71
f 75/75/75 73/73/73 16/16/16
f 73/73/73 75/75/75 74/74/74
f 65/65/65 76/76/76 67/67/67
f 65/65/65 72/72/72 76/76/76
f 75/75/75 16/16/16 77/77/77
f 77/77/77 16/16/16 15/15/15
f 77/77/77 15/15/15 78/78/78
f 17/17/17 78/78/78 15/15/15
f 78/78/78 79/79/79 77/77/77
f 77/77/77 79/79/79 75/75/75
f 78/78/78 17/17/17 79/79/79
f 80/80/80 74/74/74 75/75/75
f 80/80/80 75/75/75 79/79/79
f 80/80/80 81/81/81 74/74/74
f 72/72/72 74/74/74 81/81/81
f 80/80/80 79/79/79 81/81/81
f 82/82/82 79/79/79 17/17/17
f 82/82/82 81/81/81 79/79/79
f 17/17/17 18/18/18 82/82/82
f 83/83/83 72/72/72 81/81/81
f 81/81/81 82/82/82 83/83/83
f 83/83/83 76/76/76 72/72/72
f 84/84/84 82/82/82 18/18/18
f 84/84/84 83/83/83 82/82/82
f 85/85/85 84/84/84 18/18/18
f 85/85/85 86/86/86 84/84/84
f 83/83/83 84/84/84 86/86/86
f 86/86/86 87/87/87 83/83/83
f 76/76/76 83/83/83 87/87/87
f 76/76/76 87/87/87 88/88/88
f 89/89/89 88/88/88 87/87/87
f 88/88/88 67/67/67 76/76/76
f 88/88/88 89/89/89 90/90/90
f 91/91/91 90/90/90 89/89/89
f 90/90/90 91/91/91 92/92/92
f 67/67/67 88/88/88 93/93/93
f 67/67/67 93/93/93 69/69/69
f 90/90/90 94/94/94 88/88/88
f 90/90/90 92/92/92 94/94/94
f 93/93/93 88/88/88 94/94/94
f 95/95/95 69/69/69 93/93/93
f 95/95/95 70/70/70 69/69/69
f 95/95/95 93/93/93 96/96/96
f 94/94/94 96/96/96 93/93/93
f 95/95/95 96/96/96 70/70/70
f 97/97/97 94/94/94 92/92/92
f 94/94/94 97/97/97 96/96/96
f 97/97/97 92/92/92 98/98/98
f 99/99/99 70/70/70 96/96/96
f 51/51/51 70/70/70 99/99/99
f 100/100/100 96/96/96 97/97/97
f 96/96/96 100/100/100 99/99/99
f 99/99/99 101/101/101 51/51/51
f 99/99/99 100/100/100 101/101/101
f 97/97/97 101/101/101 100/100/100
f 97/97/97 98/98/98 101/101/101
f 52/52/52 51/51/51 101/101/101
f 102/102/102 101/101/101 98/98/98
f 101/101/101 102/102/102 52/52/52
f 103/103/103 102/102/102 98/98/98
f 104/104/104 52/52/52 102/102/102
f 102/102/102 103/103/103 104/104/104
f 104/104/104 38/38/38 52/52/52
f 105/105/105 104/104/104 103/103/103
f 104/104/104 105/105/105 38/38/38
f 103/103/103 106/106/106 105/105/105
f 103/103/103 107/107/107 106/106/106
f 108/108/108 105/105/105 106/106/106
f 108/108/108 21/21/21 105/105/105
f 109/109/109 38/38/38 105/105/105
f 109/109/109 105/105/105 21/21/21
f 109/109/109 20/20/20 38/38/38
f 21/21/21 20/20/20 109/109/109
