g Cube_219
v -0.632593 1.067542 0.613138
v -0.632593 0.98320293 0.613138
v -0.679298 0.98320293 0.573202
v -0.114193 0.557421 -0.612532
v -0.114193 0.473083 -0.612532
v -0.067489 0.473083 -0.572596
v -0.762688 1.5368279 -0.598597
v -0.762688 1.4524899 -0.598597
v -0.7159839 1.4524899 -0.55866
v -0.87453 1.521956 -0.617818
v -1.109427 1.5237598 -0.617818
v -1.109427 1.5237598 -0.797444
v -0.87453 1.521956 -0.797444
v 0.24301198 -0.018196 -0.797444
v 0.008144 -0.014062 -0.797444
v 0.008144 -0.014062 -0.617817
v 0.24301198 -0.018196 -0.617817
v 0.24301198 -0.018196 -0.617817
v 0.008144 -0.014062 -0.617817
v -1.109427 1.5237598 -0.617818
v -0.87453 1.521956 -0.617818
v 0.24301198 -0.018196 -0.617817
v -0.87453 1.521956 -0.617818
v -0.87453 1.521956 -0.797444
v 0.24301198 -0.018196 -0.797444
v 0.008144 -0.014062 -0.797444
v -1.109427 1.5237598 -0.797444
v -1.109427 1.5237598 -0.617818
v 0.008144 -0.014062 -0.617817
v 0.008144 -0.014062 -0.797444
v 0.24301198 -0.018196 -0.797444
v -0.87453 1.521956 -0.797444
v -1.109427 1.5237598 -0.797444
v -0.87453 1.521957 0.797442
v -1.109427 1.5237609 0.797443
v -1.109427 1.5237609 0.617816
v -0.87453 1.521957 0.617816
v 0.24301198 -0.018195 0.617817
v 0.008144 -0.014061 0.617817
v 0.008144 -0.014061 0.797443
v 0.24301198 -0.018195 0.797443
v 0.24301198 -0.018195 0.797443
v 0.008144 -0.014061 0.797443
v -1.109427 1.5237609 0.797443
v -0.87453 1.521957 0.797442
v 0.24301198 -0.018195 0.797443
v -0.87453 1.521957 0.797442
v -0.87453 1.521957 0.617816
v 0.24301198 -0.018195 0.617817
v 0.008144 -0.014061 0.617817
v -1.109427 1.5237609 0.617816
v -1.109427 1.5237609 0.797443
v 0.008144 -0.014061 0.797443
v 0.008144 -0.014061 0.617817
v 0.24301198 -0.018195 0.617817
v -0.87453 1.521957 0.617816
v -1.109427 1.5237609 0.617816
v -0.384399 1.067541 -0.640442
v -0.384399 0.983202 -0.640442
v -0.37791696 0.98320293 0.65664
v -0.37791696 1.067542 0.65664
v -0.528354 1.067542 0.596271
v -0.632593 0.98320293 0.613138
v -0.632593 1.067542 0.613138
v -0.528354 0.98320293 0.596271
v -0.37791696 1.067542 0.65664
v -0.37791696 0.98320293 0.65664
v -0.679559 1.067542 0.531464
v -0.685273 0.983202 -0.563866
v -0.685273 1.067541 -0.563866
v -0.679298 0.98320293 0.573202
v -0.632593 1.067542 0.613138
v -0.534835 1.067541 -0.595858
v -0.384399 0.983202 -0.640442
v -0.384399 1.067541 -0.640442
v -0.534835 0.983202 -0.595858
v -0.685273 1.067541 -0.563866
v -0.685273 0.983202 -0.563866
v -0.534835 1.067541 -0.595858
v -0.384399 1.067541 -0.640442
v -0.37791696 1.067542 0.65664
v -0.528354 1.067542 0.596271
v -0.685273 1.067541 -0.563866
v -0.679559 1.067542 0.531464
v -0.632593 1.067542 0.613138
v -0.36239 0.557422 0.64104694
v -0.36239 0.473083 0.64104694
v -0.368869 0.473083 -0.656035
v -0.368869 0.557421 -0.656035
v -0.21843198 0.557421 -0.595666
v -0.114193 0.473083 -0.612532
v -0.114193 0.557421 -0.612532
v -0.21843198 0.473083 -0.595666
v -0.368869 0.557421 -0.656035
v -0.368869 0.473083 -0.656035
v -0.067227 0.557421 -0.530858
v -0.061514996 0.473083 0.564472
v -0.061514996 0.557422 0.564472
v -0.067489 0.473083 -0.572596
v -0.114193 0.557421 -0.612532
v -0.21195298 0.557422 0.596463
v -0.36239 0.473083 0.64104694
v -0.36239 0.557422 0.64104694
v -0.21195298 0.473083 0.596463
v -0.061514996 0.557422 0.564472
v -0.061514996 0.473083 0.564472
v -0.21195298 0.557422 0.596463
v -0.36239 0.557422 0.64104694
v -0.368869 0.557421 -0.656035
v -0.21843198 0.557421 -0.595666
v -0.061514996 0.557422 0.564472
v -0.067227 0.557421 -0.530858
v -0.114193 0.557421 -0.612532
v 0.083203 0.323005 -0.623288
v 0.083203 0.21230598 -0.623287
v 0.124573 0.212307 0.576568
v 0.124573 0.323006 0.576568
v 0.124573 0.323006 0.576568
v 0.124573 0.212307 0.576568
v -0.18201 0.212307 0.589004
v -0.18201 0.323006 0.589004
v -0.18201 0.323006 0.589004
v -0.18201 0.212307 0.589004
v -0.223379 0.21230598 -0.610852
v -0.223379 0.323005 -0.610852
v -0.223379 0.323005 -0.610852
v -0.223379 0.21230598 -0.610852
v 0.083203 0.21230598 -0.623287
v 0.083203 0.323005 -0.623288
v -0.223379 0.323005 -0.610852
v 0.083203 0.323005 -0.623288
v 0.124573 0.323006 0.576568
v -0.18201 0.323006 0.589004
v -0.291888 0.821575 -0.623288
v -0.291888 0.710876 -0.623288
v -0.250518 0.710877 0.576567
v -0.250518 0.821576 0.576567
v -0.250518 0.821576 0.576567
v -0.250518 0.710877 0.576567
v -0.5571 0.710877 0.589003
v -0.5571 0.821576 0.589003
v -0.5571 0.821576 0.589003
v -0.5571 0.710877 0.589003
v -0.59847 0.710876 -0.610852
v -0.59847 0.821575 -0.610852
v -0.59847 0.821575 -0.610852
v -0.59847 0.710876 -0.610852
v -0.291888 0.710876 -0.623288
v -0.291888 0.821575 -0.623288
v -0.59847 0.821575 -0.610852
v -0.291888 0.821575 -0.623288
v -0.250518 0.821576 0.576567
v -0.5571 0.821576 0.589003
v -1.010884 1.5368289 0.654983
v -1.010884 1.4524899 0.654983
v -1.017364 1.4524899 -0.6421
v -1.017364 1.5368279 -0.6421
v -0.866927 1.5368279 -0.58173
v -0.762688 1.4524899 -0.598597
v -0.762688 1.5368279 -0.598597
v -0.866927 1.4524899 -0.58173
v -1.017364 1.5368279 -0.6421
v -1.017364 1.4524899 -0.6421
v -0.715722 1.5368279 -0.516923
v -0.71001 1.4524899 0.578408
v -0.71001 1.5368289 0.578408
v -0.7159839 1.4524899 -0.55866
v -0.762688 1.5368279 -0.598597
v -0.860447 1.5368289 0.610399
v -1.010884 1.4524899 0.654983
v -1.010884 1.5368289 0.654983
v -0.860447 1.4524899 0.610399
v -0.71001 1.5368289 0.578408
v -0.71001 1.4524899 0.578408
v -0.860447 1.5368289 0.610399
v -1.010884 1.5368289 0.654983
v -1.017364 1.5368279 -0.6421
v -0.866927 1.5368279 -0.58173
v -0.71001 1.5368289 0.578408
v -0.715722 1.5368279 -0.516923
v -0.762688 1.5368279 -0.598597
v -0.565292 1.302412 -0.609352
v -0.565292 1.191713 -0.609352
v -0.523922 1.191714 0.590504
v -0.523922 1.302413 0.590503
v -0.523922 1.302413 0.590503
v -0.523922 1.191714 0.590504
v -0.830504 1.191714 0.602939
v -0.830504 1.302413 0.602939
v -0.830504 1.302413 0.602939
v -0.830504 1.191714 0.602939
v -0.871874 1.191713 -0.596916
v -0.871874 1.302412 -0.596916
v -0.871874 1.302412 -0.596916
v -0.871874 1.191713 -0.596916
v -0.565292 1.191713 -0.609352
v -0.565292 1.302412 -0.609352
v -0.871874 1.302412 -0.596916
v -0.565292 1.302412 -0.609352
v -0.523922 1.302413 0.590503
v -0.830504 1.302413 0.602939
vt 0.778328 0.979966
vt 0.778328 0.935425
vt 0.767803 0.935425
vt 0.778328 0.979966
vt 0.778328 0.935425
vt 0.767803 0.935425
vt 0.778328 0.979966
vt 0.778328 0.935425
vt 0.767803 0.935425
vt 0.499267 0.560957
vt 0.339485 0.560957
vt 0.339485 0.631565
vt 0.499267 0.631565
vt 0.499106 0.560957
vt 0.339324 0.560957
vt 0.339324 0.631565
vt 0.499106 0.631565
vt 0.998301 0.432999
vt 0.998301 0.369931
vt 0.559476 0.369931
vt 0.559476 0.432999
vt 0.998892 0.433207
vt 0.560068 0.433207
vt 0.560068 0.497426
vt 0.998892 0.497426
vt 0.998892 0.433207
vt 0.560068 0.433207
vt 0.560068 0.497426
vt 0.998892 0.497426
vt 0.998301 0.432999
vt 0.998301 0.369931
vt 0.559476 0.369931
vt 0.559476 0.432999
vt 0.499267 0.560957
vt 0.339485 0.560957
vt 0.339485 0.631565
vt 0.499267 0.631565
vt 0.499106 0.560957
vt 0.339324 0.560957
vt 0.339324 0.631565
vt 0.499106 0.631565
vt 0.998301 0.432999
vt 0.998301 0.369931
vt 0.559476 0.369931
vt 0.559476 0.432999
vt 0.998892 0.433207
vt 0.560068 0.433207
vt 0.560068 0.497426
vt 0.998892 0.497426
vt 0.998892 0.433207
vt 0.560068 0.433207
vt 0.560068 0.497426
vt 0.998892 0.497426
vt 0.998301 0.432999
vt 0.998301 0.369931
vt 0.559476 0.369931
vt 0.559476 0.432999
vt 0.643829 0.935425
vt 0.643829 0.979966
vt 0.778607 0.979966
vt 0.778607 0.935425
vt 0.429651 0.580433
vt 0.495895 0.631872
vt 0.495895 0.580433
vt 0.429651 0.631872
vt 0.363407 0.580433
vt 0.363407 0.631872
vt 0.762356 0.979966
vt 0.643549 0.935425
vt 0.643549 0.979966
vt 0.767803 0.935425
vt 0.778328 0.979966
vt 0.430153 0.630538
vt 0.363909 0.579099
vt 0.363909 0.630538
vt 0.430153 0.579099
vt 0.496396 0.630538
vt 0.496396 0.579099
vt 0.44018 0.558658
vt 0.478728 0.558658
vt 0.478728 0.3372
vt 0.440179 0.3372
vt 0.401631 0.558658
vt 0.401631 0.363444
vt 0.401631 0.3372
vt 0.643829 0.935425
vt 0.643829 0.979966
vt 0.778607 0.979966
vt 0.778607 0.935425
vt 0.429651 0.580433
vt 0.495895 0.631872
vt 0.495895 0.580433
vt 0.429651 0.631872
vt 0.363407 0.580433
vt 0.363407 0.631872
vt 0.762356 0.979966
vt 0.643549 0.935425
vt 0.643549 0.979966
vt 0.767803 0.935425
vt 0.778328 0.979966
vt 0.430153 0.630538
vt 0.363909 0.579099
vt 0.363909 0.630538
vt 0.430153 0.579099
vt 0.496396 0.630538
vt 0.496396 0.579099
vt 0.44018 0.558658
vt 0.478728 0.558658
vt 0.478728 0.3372
vt 0.440179 0.3372
vt 0.401631 0.558658
vt 0.401631 0.363444
vt 0.401631 0.3372
vt 0.643829 0.935425
vt 0.643829 0.979966
vt 0.778607 0.979966
vt 0.778607 0.935425
vt 0.363407 0.580433
vt 0.363407 0.631872
vt 0.495895 0.631872
vt 0.495895 0.580433
vt 0.778328 0.979966
vt 0.778328 0.935425
vt 0.643549 0.935425
vt 0.643549 0.979966
vt 0.496396 0.630538
vt 0.496396 0.579099
vt 0.363909 0.579099
vt 0.363909 0.630538
vt 0.484254 0.558796
vt 0.553792 0.558796
vt 0.553792 0.335117
vt 0.484254 0.335117
vt 0.643829 0.935425
vt 0.643829 0.979966
vt 0.778607 0.979966
vt 0.778607 0.935425
vt 0.363407 0.580433
vt 0.363407 0.631872
vt 0.495895 0.631872
vt 0.495895 0.580433
vt 0.778328 0.979966
vt 0.778328 0.935425
vt 0.643549 0.935425
vt 0.643549 0.979966
vt 0.496396 0.630538
vt 0.496396 0.579099
vt 0.363909 0.579099
vt 0.363909 0.630538
vt 0.484254 0.558796
vt 0.553792 0.558796
vt 0.553792 0.335117
vt 0.484254 0.335117
vt 0.643829 0.935425
vt 0.643829 0.979966
vt 0.778607 0.979966
vt 0.778607 0.935425
vt 0.429651 0.580433
vt 0.495895 0.631872
vt 0.495895 0.580433
vt 0.429651 0.631872
vt 0.363407 0.580433
vt 0.363407 0.631872
vt 0.762356 0.979966
vt 0.643549 0.935425
vt 0.643549 0.979966
vt 0.767803 0.935425
vt 0.778328 0.979966
vt 0.430153 0.630538
vt 0.363909 0.579099
vt 0.363909 0.630538
vt 0.430153 0.579099
vt 0.496396 0.630538
vt 0.496396 0.579099
vt 0.44018 0.558658
vt 0.478728 0.558658
vt 0.478728 0.3372
vt 0.440179 0.3372
vt 0.401631 0.558658
vt 0.401631 0.363444
vt 0.401631 0.3372
vt 0.643829 0.935425
vt 0.643829 0.979966
vt 0.778607 0.979966
vt 0.778607 0.935425
vt 0.363407 0.580433
vt 0.363407 0.631872
vt 0.495895 0.631872
vt 0.495895 0.580433
vt 0.778328 0.979966
vt 0.778328 0.935425
vt 0.643549 0.935425
vt 0.643549 0.979966
vt 0.496396 0.630538
vt 0.496396 0.579099
vt 0.363909 0.579099
vt 0.363909 0.630538
vt 0.484254 0.558796
vt 0.553792 0.558796
vt 0.553792 0.335117
vt 0.484254 0.335117
vn -0.783492 0.14811812 0.6034909
vn -0.783492 0.14811812 0.6034909
vn -0.9974842 0.0155687295 0.06915771
vn 0.7834959 0.1481129 -0.6034871
vn 0.7834959 0.1481129 -0.6034871
vn 0.99748445 0.015562906 -0.0691563
vn 0.78349906 0.14810869 -0.60348403
vn 0.78349906 0.14810869 -0.60348403
vn 0.99748445 0.015562877 -0.069155484
vn 0.7517966 0.65939516 0
vn 0.0076792883 0.99997056 0
vn 0.0076792883 0.99997056 0
vn 0.75179654 0.65939516 0
vn -0.017598657 -0.99984515 0
vn -0.7517961 -0.6593957 0
vn -0.7517961 -0.6593957 0
vn -0.017598657 -0.99984515 0
vn -4.1537834E-07 6.5043395E-07 1
vn -4.1537834E-07 6.50434E-07 1
vn -4.1537834E-07 6.50434E-07 1
vn -4.1537834E-07 6.504339E-07 1
vn 0.8093777 0.58728844 0
vn 0.7517966 0.65939516 0
vn 0.75179654 0.65939516 0
vn 0.8093777 0.58728844 0
vn -0.7517961 -0.6593957 0
vn -0.8089474 -0.587881 0
vn -0.8089474 -0.587881 0
vn -0.7517961 -0.6593957 0
vn 1.4271974E-07 0 -1
vn 1.4271976E-07 0 -1
vn 1.4271974E-07 0 -1
vn 1.4271974E-07 0 -1
vn 0.75179607 0.6593957 0
vn 0.0076792827 0.99997056 0
vn 0.0076792836 0.99997056 0
vn 0.7517962 0.6593956 0
vn -0.01759865 -0.99984515 0
vn -0.7517966 -0.6593951 0
vn -0.7517966 -0.6593951 0
vn -0.01759865 -0.99984515 0
vn 2.3122725E-06 1.8725794E-06 1
vn 2.3122725E-06 1.8725793E-06 1
vn 2.3122725E-06 1.8725794E-06 1
vn 2.3122727E-06 1.8725796E-06 1
vn 0.8093777 0.58728844 0
vn 0.75179607 0.6593957 0
vn 0.7517962 0.6593956 0
vn 0.8093777 0.58728844 0
vn -0.7517966 -0.6593951 0
vn -0.80894756 -0.5878808 0
vn -0.80894756 -0.5878808 0
vn -0.7517966 -0.6593951 0
vn 1.2993885E-07 -6.754505E-07 -1
vn 1.2993885E-07 -6.7545056E-07 -1
vn 1.2993887E-07 -6.754505E-07 -1
vn 1.2993887E-07 -6.754505E-07 -1
vn 0.9999876 0 -0.004997314
vn 0.9999876 0 -0.004997313
vn 0.9999876 0 -0.004997314
vn 0.9999876 0 -0.004997313
vn -0.16837446 0 0.9857231
vn 0.15973338 0 0.9871602
vn 0.15973338 0 0.9871602
vn -0.16837446 0 0.9857231
vn -0.37242326 0 0.9280631
vn -0.37242326 0 0.9280631
vn -0.9995757 0.005529071 0.028597526
vn -0.9999863 -0.0002522698 0.0052359663
vn -0.9999863 -0.0002522698 0.0052359668
vn -0.9974842 0.0155687295 0.06915771
vn -0.783492 0.14811812 0.6034909
vn -0.24664874 0 -0.9691049
vn -0.28414968 0 -0.95877993
vn -0.28414968 0 -0.95877993
vn -0.24664874 0 -0.9691049
vn -0.20800722 0 -0.97812724
vn -0.20800722 0 -0.97812724
vn -0 1 -8.771921E-07
vn -0 1 -8.47788E-07
vn -0 1 -8.47788E-07
vn -0 1 -8.5729886E-07
vn -0 1 -9.20489E-07
vn -0 1 -8.896634E-07
vn -0 1 2.6235357E-06
vn -0.9999876 0 0.004994992
vn -0.9999876 0 0.0049949926
vn -0.9999876 0 0.0049949926
vn -0.9999876 0 0.004994992
vn 0.16837817 0 -0.9857224
vn -0.15972406 0 -0.9871617
vn -0.15972406 0 -0.9871617
vn 0.16837817 0 -0.9857224
vn 0.37242326 0 -0.928063
vn 0.37242326 0 -0.928063
vn 0.9995758 0.0055231177 -0.02859564
vn 0.9999863 -0.00025808005 -0.005234658
vn 0.9999863 -0.0002580801 -0.0052346583
vn 0.99748445 0.015562906 -0.0691563
vn 0.7834959 0.1481129 -0.6034871
vn 0.2466448 0 0.969106
vn 0.28414702 0 0.95878077
vn 0.28414702 0 0.95878077
vn 0.2466448 0 0.969106
vn 0.2080015 0 0.9781285
vn 0.2080015 0 0.9781285
vn -0 1 -8.0971427E-07
vn -0 1 -7.8257074E-07
vn -0 1 -7.8257085E-07
vn -0 1 -7.964809E-07
vn -0 1 -8.4968224E-07
vn -0 1 -8.308822E-07
vn -0 1 1.3117734E-06
vn 0.9994061 -1.3775353E-07 -0.034458674
vn 0.9994061 -1.3775355E-07 -0.034458682
vn 0.9994061 -1.3775355E-07 -0.034458682
vn 0.9994061 -1.3775355E-07 -0.034458674
vn 0.040529944 0 0.99917835
vn 0.040529944 0 0.99917835
vn 0.040529944 0 0.99917835
vn 0.040529944 0 0.99917835
vn -0.9994061 0 0.03445784
vn -0.9994061 0 0.034457847
vn -0.9994061 0 0.03445784
vn -0.9994061 0 0.034457847
vn -0.040528465 -4.304224E-06 -0.99917835
vn -0.040528465 -4.304224E-06 -0.99917835
vn -0.040528465 -4.304225E-06 -0.99917835
vn -0.04052847 -4.3042246E-06 -0.99917835
vn -0 1 -8.7815766E-07
vn -0 1 -8.7815766E-07
vn -0 1 -8.781577E-07
vn -0 1 -8.7815766E-07
vn 0.9994061 0 -0.034458708
vn 0.9994061 0 -0.034458708
vn 0.9994061 0 -0.034458708
vn 0.9994061 0 -0.034458708
vn 0.04053025 0 0.99917823
vn 0.04053025 0 0.99917823
vn 0.04053025 0 0.99917823
vn 0.04053025 0 0.99917823
vn -0.9994061 0 0.034458663
vn -0.9994061 0 0.03445866
vn -0.9994061 0 0.034458663
vn -0.9994061 0 0.03445866
vn -0.04052989 0 -0.99917835
vn -0.04052989 0 -0.99917835
vn -0.04052989 0 -0.99917835
vn -0.04052989 0 -0.99917835
vn -0 1 -7.9531463E-07
vn -0 1 -7.9531463E-07
vn -0 1 -7.9531463E-07
vn -0 1 -7.9531463E-07
vn -0.9999876 0 0.0049957884
vn -0.9999876 0 0.004995789
vn -0.9999876 0 0.004995789
vn -0.9999876 0 0.004995789
vn 0.16837832 0 -0.9857224
vn -0.15973324 0 -0.9871602
vn -0.15973324 0 -0.9871602
vn 0.16837832 0 -0.9857224
vn 0.37242907 0 -0.9280606
vn 0.37242907 0 -0.9280606
vn 0.9995758 0.005523619 -0.028595889
vn 0.9999863 -0.00025749026 -0.00523466
vn 0.9999863 -0.00025749026 -0.0052346606
vn 0.99748445 0.015562877 -0.069155484
vn 0.78349906 0.14810869 -0.60348403
vn 0.24664567 0 0.96910584
vn 0.28414702 0 0.9587807
vn 0.28414702 0 0.9587807
vn 0.24664567 0 0.96910584
vn 0.20800291 0 0.97812814
vn 0.20800291 0 0.97812814
vn -0 1 -8.097152E-07
vn -0 1 -7.8257085E-07
vn -0 1 -7.825708E-07
vn -0 1 -7.782943E-07
vn -0 1 -8.496848E-07
vn -0 1 -7.96655E-07
vn -0 1 5.247072E-06
vn 0.9994061 0 -0.034458667
vn 0.9994061 0 -0.034458667
vn 0.9994061 0 -0.034458667
vn 0.9994061 0 -0.034458667
vn 0.040528458 4.642952E-06 0.99917835
vn 0.040528458 4.642951E-06 0.99917835
vn 0.04052846 4.6429514E-06 0.99917835
vn 0.04052846 4.6429514E-06 0.99917835
vn -0.9994061 0 0.0344587
vn -0.9994061 0 0.0344587
vn -0.9994061 0 0.0344587
vn -0.9994061 0 0.034458708
vn -0.04053004 0 -0.99917823
vn -0.04053004 0 -0.99917823
vn -0.04053004 0 -0.99917823
vn -0.04053004 0 -0.99917823
vn -0 1 -7.953146E-07
vn -0 1 -7.9531463E-07
vn -0 1 -7.953147E-07
vn -0 1 -7.9531463E-07
g Cube_219_0
f 3/3/3 2/2/2 1/1/1
f 6/6/6 5/5/5 4/4/4
f 9/9/9 8/8/8 7/7/7
f 12/12/12 11/11/11 10/10/10
f 13/13/13 12/12/12 10/10/10
f 16/16/16 15/15/15 14/14/14
f 17/17/17 16/16/16 14/14/14
f 20/20/20 19/19/19 18/18/18
f 21/21/21 20/20/20 18/18/18
f 24/24/24 23/23/23 22/22/22
f 25/25/25 24/24/24 22/22/22
f 28/28/28 27/27/27 26/26/26
f 29/29/29 28/28/28 26/26/26
f 32/32/32 31/31/31 30/30/30
f 33/33/33 32/32/32 30/30/30
f 36/36/36 35/35/35 34/34/34
f 37/37/37 36/36/36 34/34/34
f 40/40/40 39/39/39 38/38/38
f 41/41/41 40/40/40 38/38/38
f 44/44/44 43/43/43 42/42/42
f 45/45/45 44/44/44 42/42/42
f 48/48/48 47/47/47 46/46/46
f 49/49/49 48/48/48 46/46/46
f 52/52/52 51/51/51 50/50/50
f 53/53/53 52/52/52 50/50/50
f 56/56/56 55/55/55 54/54/54
f 57/57/57 56/56/56 54/54/54
f 60/60/60 59/59/59 58/58/58
f 61/61/61 60/60/60 58/58/58
f 64/64/64 63/63/63 62/62/62
f 63/63/63 65/65/65 62/62/62
f 62/62/62 65/65/65 66/66/66
f 65/65/65 67/67/67 66/66/66
f 70/70/70 69/69/69 68/68/68
f 69/69/69 71/71/71 68/68/68
f 68/68/68 71/71/71 72/72/72
f 75/75/75 74/74/74 73/73/73
f 74/74/74 76/76/76 73/73/73
f 73/73/73 76/76/76 77/77/77
f 76/76/76 78/78/78 77/77/77
f 81/81/81 80/80/80 79/79/79
f 82/82/82 81/81/81 79/79/79
f 82/82/82 79/79/79 83/83/83
f 84/84/84 82/82/82 83/83/83
f 85/85/85 82/82/82 84/84/84
f 88/88/88 87/87/87 86/86/86
f 89/89/89 88/88/88 86/86/86
f 92/92/92 91/91/91 90/90/90
f 91/91/91 93/93/93 90/90/90
f 90/90/90 93/93/93 94/94/94
f 93/93/93 95/95/95 94/94/94
f 98/98/98 97/97/97 96/96/96
f 97/97/97 99/99/99 96/96/96
f 96/96/96 99/99/99 100/100/100
f 103/103/103 102/102/102 101/101/101
f 102/102/102 104/104/104 101/101/101
f 101/101/101 104/104/104 105/105/105
f 104/104/104 106/106/106 105/105/105
f 109/109/109 108/108/108 107/107/107
f 110/110/110 109/109/109 107/107/107
f 110/110/110 107/107/107 111/111/111
f 112/112/112 110/110/110 111/111/111
f 113/113/113 110/110/110 112/112/112
f 116/116/116 115/115/115 114/114/114
f 117/117/117 116/116/116 114/114/114
f 120/120/120 119/119/119 118/118/118
f 121/121/121 120/120/120 118/118/118
f 124/124/124 123/123/123 122/122/122
f 125/125/125 124/124/124 122/122/122
f 128/128/128 127/127/127 126/126/126
f 129/129/129 128/128/128 126/126/126
f 132/132/132 131/131/131 130/130/130
f 133/133/133 132/132/132 130/130/130
f 136/136/136 135/135/135 134/134/134
f 137/137/137 136/136/136 134/134/134
f 140/140/140 139/139/139 138/138/138
f 141/141/141 140/140/140 138/138/138
f 144/144/144 143/143/143 142/142/142
f 145/145/145 144/144/144 142/142/142
f 148/148/148 147/147/147 146/146/146
f 149/149/149 148/148/148 146/146/146
f 152/152/152 151/151/151 150/150/150
f 153/153/153 152/152/152 150/150/150
f 156/156/156 155/155/155 154/154/154
f 157/157/157 156/156/156 154/154/154
f 160/160/160 159/159/159 158/158/158
f 159/159/159 161/161/161 158/158/158
f 158/158/158 161/161/161 162/162/162
f 161/161/161 163/163/163 162/162/162
f 166/166/166 165/165/165 164/164/164
f 165/165/165 167/167/167 164/164/164
f 164/164/164 167/167/167 168/168/168
f 171/171/171 170/170/170 169/169/169
f 170/170/170 172/172/172 169/169/169
f 169/169/169 172/172/172 173/173/173
f 172/172/172 174/174/174 173/173/173
f 177/177/177 176/176/176 175/175/175
f 178/178/178 177/177/177 175/175/175
f 178/178/178 175/175/175 179/179/179
f 180/180/180 178/178/178 179/179/179
f 181/181/181 178/178/178 180/180/180
f 184/184/184 183/183/183 182/182/182
f 185/185/185 184/184/184 182/182/182
f 188/188/188 187/187/187 186/186/186
f 189/189/189 188/188/188 186/186/186
f 192/192/192 191/191/191 190/190/190
f 193/193/193 192/192/192 190/190/190
f 196/196/196 195/195/195 194/194/194
f 197/197/197 196/196/196 194/194/194
f 200/200/200 199/199/199 198/198/198
f 201/201/201 200/200/200 198/198/198
