g demon_weapon
v -6.67572E-08 0.040071953 0.014211254
v -0.0046788645 0.04168397 0.0090497015
v -6.67572E-08 0.047188338 0.009287472
v -6.198883E-08 0.027798405 0.008153706
v -6.67572E-08 0.040071953 0.014211254
v 0.0046787453 0.04168397 0.0090497015
v -6.67572E-08 0.047188338 0.009287472
v -0.0037518644 0.02827053 0.0052156257
v -0.004061594 0.048390053 -0.0014302635
v -0.004496684 0.039080095 -0.0042954446
v 0.004061551 0.048390053 -0.0014302635
v -6.198883E-08 0.052023564 0.00040456772
v -6.67572E-08 0.051450156 -0.009345817
v -6.67572E-08 0.044810284 -0.016029587
v 0.004496641 0.039080095 -0.0042954446
v -6.67572E-08 0.03756567 -0.009436397
v -0.0031697273 0.031382818 -0.004923019
v 0.003751831 0.02827053 0.0052156257
v 0.0031696127 0.031382818 -0.004923019
v -0.00381917 -0.012014007 0.0024022101
v 0.003819146 -0.012014007 0.0024022101
v -6.198883E-08 0.0325253 -0.0083761215
v -5.2452087E-08 -0.012747707 -0.011075268
v -0.0029904174 -0.013671941 -0.007696285
v 0.0029903937 -0.013671941 -0.007696285
v -5.2452087E-08 -0.015452766 0.007421398
v -4.7683713E-08 -0.024391469 -0.014398765
v 0.0063144206 -0.020567408 -0.0034258652
v 0.003391285 -0.021267805 0.0046302793
v -4.7683713E-08 -0.029648094 0.016482562
v -0.003391385 -0.021267805 0.0046302793
v -0.0063144444 -0.020567412 -0.0034258652
v 0.0054174326 -0.026967058 -0.013279247
v -4.7683713E-08 -0.024391469 -0.014398765
v 0.008806591 -0.038469914 0.00050844194
v -0.0054175234 -0.026967062 -0.013279247
v -4.7683713E-08 -0.024391469 -0.014398765
v -0.008806605 -0.038469918 0.00050844194
v 0.0040004775 -0.033791482 0.015459918
v -0.004000492 -0.033791482 0.015459918
v 0.008765397 -0.041953366 -0.0065008732
v 0.0047094584 -0.03376607 -0.021061305
v -4.7683713E-08 -0.024391469 -0.014398765
v -0.008765488 -0.041953366 -0.0065008732
v -0.0047094724 -0.033766072 -0.021061305
v -4.7683713E-08 -0.024391469 -0.014398765
v 0.009321499 -0.045483936 0.011525573
v 0.010178313 -0.058212355 -0.0039274595
v 0.004893427 -0.045742787 -0.023608264
v 0.005496168 -0.05663514 -0.019584885
v -4.7683713E-08 -0.03160605 -0.026487064
v -0.004893441 -0.04574279 -0.023608264
v -4.7683713E-08 -0.045593005 -0.029579906
v 0.0028153704 -0.05979636 -0.027986698
v 0.0074449778 -0.06864874 -0.013597965
v -4.2915342E-08 -0.07392097 -0.021035442
v -4.2915342E-08 -0.061124217 -0.032693118
v -0.0028153753 -0.05979636 -0.027986698
v -0.0054961727 -0.05663514 -0.019584885
v -0.010178318 -0.058212355 -0.0039274595
v -0.007445059 -0.06864874 -0.013597965
v -0.009321513 -0.04548394 0.011525573
v 0.008982248 -0.0709022 -0.004221153
v 0.005956912 -0.08499029 -0.010898361
v 0.009072561 -0.06161885 0.0058332253
v -0.0059569837 -0.08499029 -0.010898361
v -0.00898233 -0.070902206 -0.004221153
v -0.0090725655 -0.06161885 0.0058332253
v -3.8146972E-08 -0.09010269 -0.019674473
v -0.0057279444 -0.04560789 0.019899368
v -0.0068843695 -0.057781484 0.019163646
v -0.0033873366 -0.034062266 0.021467114
v -4.7683713E-08 -0.043918308 0.024333514
v -4.2915342E-08 -0.06155711 0.02429676
v -0.007890253 -0.06311434 0.016527882
v -4.2915342E-08 -0.06155711 0.02429676
v -4.7683713E-08 -0.025660586 0.025467338
v -4.7683713E-08 -0.043918308 0.024333514
v 0.003387246 -0.034062266 0.021467114
v 0.0057278536 -0.045607883 0.019899368
v 0.006884365 -0.057781484 0.019163646
v 0.007890171 -0.06311434 0.016527882
v -0.006963105 -0.07369088 0.00689394
v -4.2915342E-08 -0.067282334 0.02012991
v 0.0069631003 -0.07369088 0.00689394
v -0.0056339693 -0.08484098 -0.0029842185
v -0.0041556978 -0.073385105 0.014714069
v 0.004155693 -0.0733851 0.014714069
v 0.0056338976 -0.08484098 -0.0029842185
v -0.004696951 -0.1020979 -0.009536533
v -0.006248598 -0.08371515 0.0041604806
v -4.2915342E-08 -0.075587384 0.01698347
v 0.0062486026 -0.08371515 0.0041604806
v 0.0046969554 -0.1020979 -0.009536533
v -0.0034515285 -0.09353402 0.005491314
v -0.003972187 -0.09225805 0.011317291
v -3.8146972E-08 -0.093640804 0.015060729
v 0.0039721155 -0.09225805 0.011317291
v -3.8146972E-08 -0.09627692 0.010961875
v -3.8146972E-08 -0.093640804 0.015060729
v 0.0034515331 -0.09353402 0.005491314
v -3.8146972E-08 -0.09627692 0.010961875
v -3.8146972E-08 -0.093640804 0.015060729
v 0.004513688 -0.11205228 0.0011532593
v -3.8146972E-08 -0.09627692 0.010961875
v -0.004513755 -0.11205228 0.0011532593
v -3.33786E-08 -0.11581671 0.009848442
v 0.0046142624 -0.1270352 -0.012163543
v 0.0050107287 -0.14097628 0.0017394829
v -3.8146972E-08 -0.10284115 -0.019868258
v -0.004614248 -0.1270352 -0.012163543
v -0.005010705 -0.14097628 0.0017394829
v -3.33786E-08 -0.12452742 -0.022456875
v 0.0051309634 -0.15486257 -0.016068935
v -0.00513102 -0.15486257 -0.016068935
v -2.8610229E-08 -0.1399514 0.012114982
v -2.8610229E-08 -0.16491258 0.018483315
v -2.8610229E-08 -0.15582082 -0.02824415
v 0.005420408 -0.16913988 0.0065094563
v 0.004446006 -0.18554288 0.018191356
v -0.0054203747 -0.16913989 0.0065094563
v -0.0044460488 -0.18554288 0.018191356
v 0.004686475 -0.18039921 -0.017424868
v -0.0046864413 -0.18039921 -0.017424868
v 0.0047749234 -0.19266091 -0.010162029
v -2.3841856E-08 -0.18698089 -0.027000504
v -0.004774971 -0.19266091 -0.010162029
v -1.9073486E-08 -0.20401804 -0.017616749
v -2.3841856E-08 -0.17664932 0.025357684
v 0.0050787446 -0.20068699 0.0013837432
v -0.005078778 -0.20068699 0.0013837432
v -1.9073486E-08 -0.21136135 -0.00032232283
v -1.9073486E-08 -0.2081764 0.017230624
v 0.0049253986 -0.2018013 0.016814575
v -0.004925356 -0.2018013 0.016814575
v -1.9073486E-08 -0.19945827 0.03229128
v 0.0033281993 -0.19583972 0.03124834
v -0.003328247 -0.19583972 0.03124834
v 0.0030109405 -0.18754531 0.032673817
v -2.3841856E-08 -0.18255292 0.0418898
v -0.0030109833 -0.18754531 0.032673817
v -2.3841856E-08 -0.1813234 0.032733575
vt 0.5420731 0.01998226
vt 0.55128753 0.036038414
vt 0.56504667 0.022998314
vt 0.5180392 0.043458566
vt 0.5420731 0.01998226
vt 0.55128753 0.036038414
vt 0.56504667 0.022998314
vt 0.52564234 0.055723503
vt 0.5744561 0.050953496
vt 0.5582928 0.066436484
vt 0.5744561 0.050953496
vt 0.58579427 0.039577406
vt 0.5943876 0.06299594
vt 0.5875512 0.08601485
vt 0.5582928 0.066436484
vt 0.5632615 0.08417138
vt 0.5422148 0.07600488
vt 0.52564234 0.055723503
vt 0.5422148 0.07600488
vt 0.46521872 0.09174735
vt 0.46521872 0.09174735
vt 0.5504141 0.08726938
vt 0.48023993 0.12690438
vt 0.472418 0.11941938
vt 0.472418 0.11941938
vt 0.45307723 0.07991683
vt 0.46243742 0.1483148
vt 0.44931045 0.11270941
vt 0.44162568 0.092397995
vt 0.41456556 0.06798806
vt 0.44162568 0.092397995
vt 0.44931045 0.11270941
vt 0.4450497 0.14111543
vt 0.46243742 0.1483148
vt 0.4058335 0.12055896
vt 0.4450497 0.14111543
vt 0.46243742 0.1483148
vt 0.4058335 0.12055896
vt 0.4032262 0.07954079
vt 0.4032262 0.07954079
vt 0.40427935 0.13878337
vt 0.43625867 0.16487323
vt 0.46243742 0.1483148
vt 0.40427935 0.13878337
vt 0.43625867 0.16487323
vt 0.46243742 0.1483148
vt 0.3805137 0.10381877
vt 0.36619037 0.14768358
vt 0.4120606 0.18105689
vt 0.384391 0.182772
vt 0.4500583 0.17971866
vt 0.4120606 0.18105689
vt 0.42148685 0.20006457
vt 0.3861094 0.20528787
vt 0.3518441 0.17874578
vt 0.3477988 0.21042037
vt 0.38847405 0.21980888
vt 0.3861094 0.20528787
vt 0.384391 0.182772
vt 0.36619037 0.14768358
vt 0.3518441 0.17874578
vt 0.3805137 0.10381877
vt 0.33894077 0.15971206
vt 0.31257105 0.18745813
vt 0.3502563 0.13001704
vt 0.31257105 0.18745813
vt 0.33894077 0.15971206
vt 0.3502563 0.13001704
vt 0.3095998 0.21825574
vt 0.37188122 0.08298153
vt 0.3465915 0.097229406
vt 0.3955122 0.066689946
vt 0.36787334 0.061680168
vt 0.32765776 0.07839376
vt 0.33861828 0.10808459
vt 0.32765776 0.07839376
vt 0.40884197 0.04619185
vt 0.36787334 0.061680168
vt 0.3955122 0.066689946
vt 0.37188122 0.08298153
vt 0.3465915 0.097229406
vt 0.33861828 0.10808459
vt 0.32185656 0.13766013
vt 0.31509927 0.092464484
vt 0.32185656 0.13766013
vt 0.30553883 0.16991232
vt 0.31369564 0.11796479
vt 0.31369564 0.11796479
vt 0.30553883 0.16991232
vt 0.2726943 0.20021352
vt 0.3024358 0.15292981
vt 0.3007776 0.10857296
vt 0.3024358 0.15292981
vt 0.2726943 0.20021352
vt 0.27752215 0.15859397
vt 0.27730387 0.14443067
vt 0.2660645 0.13439898
vt 0.27730387 0.14443067
vt 0.26367646 0.14563958
vt 0.2660645 0.13439898
vt 0.27752215 0.15859397
vt 0.26367646 0.14563958
vt 0.2660645 0.13439898
vt 0.24072924 0.18547101
vt 0.26367646 0.14563958
vt 0.24072924 0.18547101
vt 0.22297113 0.16545857
vt 0.21943101 0.2281025
vt 0.1761332 0.20968105
vt 0.28150296 0.22811498
vt 0.21943101 0.2281025
vt 0.1761332 0.20968105
vt 0.23598137 0.25235775
vt 0.16120982 0.2612138
vt 0.16120982 0.2612138
vt 0.16818832 0.18100506
vt 0.107855685 0.18928981
vt 0.17171727 0.29287145
vt 0.10984815 0.22429363
vt 0.06307666 0.21339272
vt 0.10984815 0.22429363
vt 0.06307666 0.21339272
vt 0.10628231 0.28698525
vt 0.10628231 0.28698525
vt 0.07301821 0.28219125
vt 0.100939944 0.31797215
vt 0.07301821 0.28219125
vt 0.053778406 0.31237808
vt 0.07577617 0.18535668
vt 0.045635864 0.2643377
vt 0.045635864 0.2643377
vt 0.02019187 0.28096455
vt 0.008520668 0.23846042
vt 0.02950839 0.23275761
vt 0.02950839 0.23275761
vt 0.013555816 0.1955035
vt 0.027316289 0.19651341
vt 0.027316289 0.19651341
vt 0.043053433 0.18443814
vt 0.042318128 0.15779476
vt 0.043053433 0.18443814
vt 0.057546686 0.17449962
vn -7.634776E-07 0.005709386 0.9999838
vn -0.8889589 0.16107905 0.4287256
vn -1.998525E-06 0.78112483 0.62437505
vn -5.3304384E-06 -0.21454388 0.9767144
vn -7.634776E-07 0.005709386 0.9999838
vn 0.8889568 0.16107991 0.42872965
vn -1.998525E-06 0.78112483 0.62437505
vn -0.91748065 -0.10971463 0.3823506
vn -0.895054 0.44591802 -0.005967708
vn -0.9579536 -0.064337276 -0.2796171
vn 0.89505225 0.44592142 -0.005967131
vn -4.231156E-06 0.96994096 0.24334024
vn -4.314198E-06 0.8560965 -0.5168161
vn -2.5825661E-06 0.090101995 -0.9959325
vn 0.9579526 -0.06433915 -0.27962
vn -5.1919965E-06 -0.45507523 -0.8904529
vn -0.9119151 -0.06117878 -0.40579292
vn 0.9174795 -0.10971414 0.38235345
vn 0.91191226 -0.061181393 -0.40579906
vn -0.94843835 0.07210632 0.308651
vn 0.94843686 0.07210559 0.30865583
vn -4.159252E-07 -0.10099135 -0.9948873
vn -6.959009E-06 0.16109914 -0.98693824
vn -0.88914996 0.18576936 -0.4182131
vn 0.88914704 0.18577076 -0.4182185
vn -3.2815421E-06 0.22232707 0.97497207
vn -1.2372291E-06 0.58730835 -0.80936325
vn 0.9769701 0.21312876 0.010274523
vn 0.8870441 0.20748502 0.41243514
vn -4.46086E-06 0.9085911 0.41768682
vn -0.8870461 0.20748486 0.41243067
vn -0.97696984 0.2131299 0.010273767
vn 0.8137657 0.36522117 -0.45210484
vn -1.2372291E-06 0.58730835 -0.80936325
vn 0.98317266 0.17600769 0.048916534
vn -0.8137669 0.36522028 -0.45210356
vn -1.2372291E-06 0.58730835 -0.80936325
vn -0.98317266 0.17600697 0.048920147
vn 0.8789581 0.40270784 0.25545844
vn -0.8789607 0.4027056 0.25545293
vn 0.9851445 0.09049643 -0.14594752
vn 0.8580266 0.29647154 -0.41939822
vn -1.2372291E-06 0.58730835 -0.80936325
vn -0.9851452 0.09049534 -0.14594328
vn -0.85802794 0.29646906 -0.41939744
vn -1.2372291E-06 0.58730835 -0.80936325
vn 0.966922 0.139176 0.21375684
vn 0.9954426 -0.015481889 -0.09409718
vn 0.899248 0.05682139 -0.43373308
vn 0.96044433 -0.009046658 -0.2783252
vn -3.7651303E-06 0.55663836 -0.8307549
vn -0.8992491 0.056819823 -0.43373114
vn -4.468222E-06 0.17649111 -0.98430216
vn 0.8862768 -0.11671001 -0.4482101
vn 0.9215224 -0.13937724 -0.36245087
vn -8.489837E-07 -0.41373888 -0.91039556
vn -4.9542227E-06 -0.26801476 -0.96341485
vn -0.88627994 -0.11670794 -0.4482044
vn -0.960444 -0.009045613 -0.27832627
vn -0.99544275 -0.015480479 -0.094096005
vn -0.9215227 -0.13937402 -0.36245108
vn -0.9669225 0.13917542 0.21375424
vn 0.9889653 -0.14657608 -0.021524187
vn 0.95088345 -0.12253724 -0.2842626
vn 0.9894455 -0.091038965 0.112736486
vn -0.95088345 -0.12253938 -0.28426188
vn -0.98896563 -0.14657414 -0.021521304
vn -0.98944575 -0.09103713 0.11273605
vn -1.2040945E-06 -0.11151977 -0.9937622
vn -0.8054426 0.09587098 0.5848684
vn -0.8307329 -0.054614622 0.55398566
vn -0.9012807 0.23230411 0.36568806
vn -6.7448354E-07 0.004733196 0.9999888
vn -1.4653563E-06 -0.29790422 0.9545958
vn -0.8828203 -0.18312293 0.43254396
vn -1.4653563E-06 -0.29790422 0.9545958
vn -1.5579414E-07 0.8475733 0.53067845
vn -6.7448354E-07 0.004733196 0.9999888
vn 0.9012787 0.2323053 0.36569253
vn 0.80543983 0.09587276 0.58487195
vn 0.8307317 -0.054618128 0.5539872
vn 0.8828176 -0.18312876 0.43254712
vn -0.9603496 -0.19496782 0.1992891
vn -1.0952158E-06 -0.47353253 0.88077635
vn 0.9603504 -0.19496652 0.19928679
vn -0.9851419 -0.16565114 0.045334823
vn -0.7544379 -0.267698 0.5993006
vn 0.75443596 -0.26769727 0.59930336
vn 0.9851424 -0.16564897 0.045330606
vn -0.983085 -0.010850807 -0.18282844
vn -0.98857296 -0.13892634 0.05850499
vn -4.0726927E-06 -0.2467284 0.9690847
vn 0.9885732 -0.13892625 0.058501285
vn 0.98308474 -0.0108501585 -0.18282987
vn -0.9612054 -0.2278222 0.15550272
vn -0.85313344 -0.37564516 0.3620137
vn -2.1062738E-07 -0.49906304 0.8665657
vn 0.8531309 -0.37564576 0.36201933
vn -3.2176076E-06 -0.7104977 0.7036996
vn -2.1062738E-07 -0.49906304 0.8665657
vn 0.96120477 -0.22782242 0.15550713
vn -3.2176076E-06 -0.7104977 0.7036996
vn -2.1062738E-07 -0.49906304 0.8665657
vn 0.97255176 0.0033439565 0.23266262
vn -3.2176076E-06 -0.7104977 0.7036996
vn -0.97255254 0.0033441165 0.2326595
vn -7.9580474E-07 0.016423088 0.9998652
vn 0.97813684 0.037232213 -0.20460215
vn 0.9778593 0.042545497 0.20489259
vn -3.3852868E-06 0.062562205 -0.9980411
vn -0.9781374 0.037231855 -0.20459983
vn -0.9778596 0.04254498 0.2048911
vn -2.8366442E-06 0.14815024 -0.9889649
vn 0.977413 0.024350591 -0.2099307
vn -0.9774135 0.024349561 -0.20992875
vn -3.2222035E-06 0.1743328 0.9846868
vn -2.5768907E-06 0.35760748 0.933872
vn -5.10728E-07 0.08133412 -0.9966869
vn 0.98597753 0.048477657 0.1596818
vn 0.9865535 0.10297219 0.12692153
vn -0.9859779 0.048478022 0.15967958
vn -0.9865537 0.10297126 0.12692055
vn 0.9690391 -0.0552083 -0.24065624
vn -0.9690396 -0.05520617 -0.2406543
vn 0.97919786 -0.12561326 -0.15935136
vn -1.8276876E-06 -0.30801377 -0.95138186
vn -0.9791981 -0.12561144 -0.15935147
vn -0 -0.7207173 -0.6932291
vn -0 0.730351 0.68307203
vn 0.9719429 -0.23078501 -0.04544571
vn -0.9719429 -0.23078537 -0.045444563
vn -1.618554E-07 -0.9931238 -0.117068745
vn -2.9154508E-06 -0.96797734 0.2510375
vn 0.9322675 -0.34380624 0.112581804
vn -0.9322678 -0.3438051 0.112582386
vn -2.2062096E-07 -0.74593407 0.6660198
vn 0.87911457 -0.28396824 0.38277894
vn -0.8791147 -0.2839698 0.38277745
vn 0.9664257 0.16296962 0.19865103
vn -3.2742201E-07 0.49859285 0.8668363
vn -0.9664257 0.1629698 0.1986507
vn -2.2005943E-07 0.9212475 0.38897684
g demon_weapon_0
f 3/3/3 2/2/2 1/1/1
f 5/5/5 2/2/2 4/4/4
f 5/5/5 4/4/4 6/6/6
f 6/6/6 7/7/7 5/5/5
f 8/8/8 4/4/4 2/2/2
f 2/2/2 7/7/7 9/9/9
f 8/8/8 2/2/2 10/10/10
f 2/2/2 9/9/9 10/10/10
f 6/6/6 11/11/11 7/7/7
f 12/12/12 9/9/9 7/7/7
f 12/12/12 7/7/7 11/11/11
f 13/13/13 9/9/9 12/12/12
f 11/11/11 13/13/13 12/12/12
f 9/9/9 13/13/13 14/14/14
f 13/13/13 11/11/11 14/14/14
f 9/9/9 14/14/14 10/10/10
f 11/11/11 6/6/6 15/15/15
f 11/11/11 15/15/15 14/14/14
f 16/16/16 10/10/10 14/14/14
f 16/16/16 14/14/14 15/15/15
f 8/8/8 10/10/10 17/17/17
f 10/10/10 16/16/16 17/17/17
f 6/6/6 18/18/18 15/15/15
f 18/18/18 6/6/6 4/4/4
f 15/15/15 19/19/19 16/16/16
f 15/15/15 18/18/18 19/19/19
f 8/8/8 17/17/17 20/20/20
f 8/8/8 20/20/20 4/4/4
f 18/18/18 4/4/4 21/21/21
f 18/18/18 21/21/21 19/19/19
f 22/22/22 16/16/16 19/19/19
f 22/22/22 17/17/17 16/16/16
f 22/22/22 19/19/19 23/23/23
f 22/22/22 23/23/23 17/17/17
f 24/24/24 20/20/20 17/17/17
f 24/24/24 17/17/17 23/23/23
f 25/25/25 23/23/23 19/19/19
f 25/25/25 19/19/19 21/21/21
f 26/26/26 21/21/21 4/4/4
f 26/26/26 4/4/4 20/20/20
f 23/23/23 27/27/27 24/24/24
f 23/23/23 25/25/25 27/27/27
f 25/25/25 21/21/21 28/28/28
f 26/26/26 29/29/29 21/21/21
f 28/28/28 21/21/21 29/29/29
f 26/26/26 30/30/30 29/29/29
f 31/31/31 26/26/26 20/20/20
f 26/26/26 31/31/31 30/30/30
f 20/20/20 24/24/24 32/32/32
f 20/20/20 32/32/32 31/31/31
f 28/28/28 33/33/33 25/25/25
f 33/33/33 34/34/34 25/25/25
f 29/29/29 35/35/35 28/28/28
f 28/28/28 35/35/35 33/33/33
f 36/36/36 32/32/32 24/24/24
f 36/36/36 24/24/24 37/37/37
f 38/38/38 31/31/31 32/32/32
f 32/32/32 36/36/36 38/38/38
f 39/39/39 29/29/29 30/30/30
f 29/29/29 39/39/39 35/35/35
f 40/40/40 30/30/30 31/31/31
f 31/31/31 38/38/38 40/40/40
f 41/41/41 33/33/33 35/35/35
f 33/33/33 41/41/41 42/42/42
f 33/33/33 42/42/42 43/43/43
f 44/44/44 38/38/38 36/36/36
f 44/44/44 36/36/36 45/45/45
f 36/36/36 46/46/46 45/45/45
f 47/47/47 35/35/35 39/39/39
f 35/35/35 48/48/48 41/41/41
f 35/35/35 47/47/47 48/48/48
f 42/42/42 41/41/41 49/49/49
f 48/48/48 50/50/50 41/41/41
f 50/50/50 49/49/49 41/41/41
f 42/42/42 49/49/49 51/51/51
f 51/51/51 27/27/27 42/42/42
f 51/51/51 45/45/45 27/27/27
f 45/45/45 51/51/51 52/52/52
f 45/45/45 52/52/52 44/44/44
f 53/53/53 51/51/51 49/49/49
f 53/53/53 52/52/52 51/51/51
f 54/54/54 49/49/49 50/50/50
f 49/49/49 54/54/54 53/53/53
f 50/50/50 48/48/48 55/55/55
f 50/50/50 55/55/55 54/54/54
f 56/56/56 54/54/54 55/55/55
f 57/57/57 53/53/53 54/54/54
f 54/54/54 56/56/56 57/57/57
f 57/57/57 58/58/58 53/53/53
f 52/52/52 53/53/53 58/58/58
f 56/56/56 58/58/58 57/57/57
f 59/59/59 44/44/44 52/52/52
f 52/52/52 58/58/58 59/59/59
f 59/59/59 60/60/60 44/44/44
f 60/60/60 38/38/38 44/44/44
f 59/59/59 58/58/58 61/61/61
f 56/56/56 61/61/61 58/58/58
f 59/59/59 61/61/61 60/60/60
f 38/38/38 60/60/60 62/62/62
f 62/62/62 40/40/40 38/38/38
f 63/63/63 55/55/55 48/48/48
f 55/55/55 64/64/64 56/56/56
f 55/55/55 63/63/63 64/64/64
f 48/48/48 65/65/65 63/63/63
f 65/65/65 48/48/48 47/47/47
f 61/61/61 56/56/56 66/66/66
f 67/67/67 60/60/60 61/61/61
f 61/61/61 66/66/66 67/67/67
f 68/68/68 62/62/62 60/60/60
f 60/60/60 67/67/67 68/68/68
f 69/69/69 56/56/56 64/64/64
f 69/69/69 66/66/66 56/56/56
f 62/62/62 70/70/70 40/40/40
f 62/62/62 68/68/68 71/71/71
f 71/71/71 70/70/70 62/62/62
f 72/72/72 40/40/40 70/70/70
f 40/40/40 72/72/72 30/30/30
f 70/70/70 73/73/73 72/72/72
f 70/70/70 71/71/71 73/73/73
f 74/74/74 73/73/73 71/71/71
f 75/75/75 71/71/71 68/68/68
f 71/71/71 75/75/75 76/76/76
f 77/77/77 30/30/30 72/72/72
f 77/77/77 72/72/72 78/78/78
f 77/77/77 79/79/79 30/30/30
f 77/77/77 78/78/78 79/79/79
f 39/39/39 30/30/30 79/79/79
f 79/79/79 80/80/80 39/39/39
f 80/80/80 79/79/79 78/78/78
f 47/47/47 39/39/39 80/80/80
f 80/80/80 78/78/78 81/81/81
f 80/80/80 81/81/81 47/47/47
f 76/76/76 81/81/81 78/78/78
f 47/47/47 81/81/81 65/65/65
f 81/81/81 76/76/76 82/82/82
f 82/82/82 65/65/65 81/81/81
f 68/68/68 83/83/83 75/75/75
f 83/83/83 68/68/68 67/67/67
f 84/84/84 76/76/76 75/75/75
f 84/84/84 82/82/82 76/76/76
f 65/65/65 82/82/82 85/85/85
f 85/85/85 63/63/63 65/65/65
f 67/67/67 86/86/86 83/83/83
f 86/86/86 67/67/67 66/66/66
f 87/87/87 75/75/75 83/83/83
f 75/75/75 87/87/87 84/84/84
f 82/82/82 84/84/84 88/88/88
f 88/88/88 85/85/85 82/82/82
f 63/63/63 85/85/85 89/89/89
f 89/89/89 64/64/64 63/63/63
f 66/66/66 90/90/90 86/86/86
f 66/66/66 69/69/69 90/90/90
f 91/91/91 83/83/83 86/86/86
f 83/83/83 91/91/91 87/87/87
f 92/92/92 84/84/84 87/87/87
f 92/92/92 88/88/88 84/84/84
f 85/85/85 88/88/88 93/93/93
f 93/93/93 89/89/89 85/85/85
f 64/64/64 94/94/94 69/69/69
f 64/64/64 89/89/89 94/94/94
f 95/95/95 91/91/91 86/86/86
f 95/95/95 86/86/86 90/90/90
f 96/96/96 87/87/87 91/91/91
f 87/87/87 96/96/96 92/92/92
f 91/91/91 95/95/95 96/96/96
f 97/97/97 92/92/92 96/96/96
f 97/97/97 98/98/98 92/92/92
f 88/88/88 92/92/92 98/98/98
f 98/98/98 93/93/93 88/88/88
f 95/95/95 99/99/99 96/96/96
f 100/100/100 96/96/96 99/99/99
f 93/93/93 101/101/101 89/89/89
f 101/101/101 93/93/93 98/98/98
f 101/101/101 94/94/94 89/89/89
f 101/101/101 98/98/98 102/102/102
f 103/103/103 102/102/102 98/98/98
f 94/94/94 101/101/101 104/104/104
f 101/101/101 105/105/105 104/104/104
f 95/95/95 106/106/106 105/105/105
f 95/95/95 90/90/90 106/106/106
f 107/107/107 104/104/104 105/105/105
f 107/107/107 105/105/105 106/106/106
f 104/104/104 108/108/108 94/94/94
f 104/104/104 107/107/107 109/109/109
f 108/108/108 104/104/104 109/109/109
f 94/94/94 108/108/108 110/110/110
f 110/110/110 69/69/69 94/94/94
f 110/110/110 90/90/90 69/69/69
f 111/111/111 106/106/106 90/90/90
f 90/90/90 110/110/110 111/111/111
f 106/106/106 112/112/112 107/107/107
f 106/106/106 111/111/111 112/112/112
f 113/113/113 110/110/110 108/108/108
f 113/113/113 111/111/111 110/110/110
f 109/109/109 114/114/114 108/108/108
f 108/108/108 114/114/114 113/113/113
f 111/111/111 113/113/113 115/115/115
f 115/115/115 112/112/112 111/111/111
f 116/116/116 109/109/109 107/107/107
f 116/116/116 107/107/107 112/112/112
f 116/116/116 117/117/117 109/109/109
f 116/116/116 112/112/112 117/117/117
f 118/118/118 113/113/113 114/114/114
f 118/118/118 115/115/115 113/113/113
f 109/109/109 119/119/119 114/114/114
f 119/119/119 109/109/109 117/117/117
f 119/119/119 117/117/117 120/120/120
f 112/112/112 115/115/115 121/121/121
f 121/121/121 117/117/117 112/112/112
f 121/121/121 122/122/122 117/117/117
f 123/123/123 114/114/114 119/119/119
f 114/114/114 123/123/123 118/118/118
f 115/115/115 118/118/118 124/124/124
f 124/124/124 121/121/121 115/115/115
f 123/123/123 119/119/119 125/125/125
f 119/119/119 120/120/120 125/125/125
f 126/126/126 118/118/118 123/123/123
f 126/126/126 124/124/124 118/118/118
f 123/123/123 125/125/125 126/126/126
f 121/121/121 124/124/124 127/127/127
f 124/124/124 126/126/126 127/127/127
f 121/121/121 127/127/127 122/122/122
f 128/128/128 126/126/126 125/125/125
f 128/128/128 127/127/127 126/126/126
f 129/129/129 120/120/120 117/117/117
f 129/129/129 117/117/117 122/122/122
f 130/130/130 125/125/125 120/120/120
f 125/125/125 130/130/130 128/128/128
f 127/127/127 128/128/128 131/131/131
f 131/131/131 122/122/122 127/127/127
f 132/132/132 128/128/128 130/130/130
f 132/132/132 131/131/131 128/128/128
f 132/132/132 130/130/130 133/133/133
f 132/132/132 133/133/133 131/131/131
f 130/130/130 120/120/120 134/134/134
f 134/134/134 133/133/133 130/130/130
f 135/135/135 131/131/131 133/133/133
f 122/122/122 131/131/131 135/135/135
f 133/133/133 134/134/134 136/136/136
f 133/133/133 136/136/136 135/135/135
f 134/134/134 120/120/120 137/137/137
f 137/137/137 136/136/136 134/134/134
f 135/135/135 138/138/138 122/122/122
f 138/138/138 135/135/135 136/136/136
f 139/139/139 137/137/137 120/120/120
f 120/120/120 129/129/129 139/139/139
f 137/137/137 140/140/140 136/136/136
f 140/140/140 138/138/138 136/136/136
f 139/139/139 140/140/140 137/137/137
f 141/141/141 122/122/122 138/138/138
f 122/122/122 141/141/141 129/129/129
f 140/140/140 141/141/141 138/138/138
f 142/142/142 140/140/140 139/139/139
f 142/142/142 139/139/139 129/129/129
f 140/140/140 142/142/142 141/141/141
f 142/142/142 129/129/129 141/141/141
