g Eyes
v 0.0025244963 -0.031219529 0.016302498
v 0.0023819297 -0.031310093 0.016638856
v 0.0024184012 -0.031082457 0.016587887
v 0.0025047583 -0.031342726 0.016330082
v 0.0025021154 -0.031350773 0.015996285
v 0.0023271241 -0.031536363 0.016599553
v 0.0025313068 -0.031114351 0.01623026
v 0.0024309852 -0.030888107 0.01645441
v 0.0024750975 -0.031465184 0.016308812
v 0.0022623274 -0.03172682 0.016475962
v 0.0025241529 -0.031043198 0.016124364
v 0.0024177667 -0.030756636 0.016258739
v 0.0024400298 -0.03156826 0.016241925
v 0.0021974042 -0.03185246 0.016286898
v 0.0025041238 -0.031016907 0.016000934
v 0.0023807574 -0.030708052 0.016030667
v 0.0024048935 -0.031636253 0.016139606
v 0.0024742687 -0.031039478 0.015878756
v 0.0023750383 -0.03165883 0.016017428
v 0.002142239 -0.03189417 0.016061146
v 0.0023255923 -0.03074976 0.015804915
v 0.0021052298 -0.031845592 0.015833076
v 0.0024391324 -0.031107476 0.015776437
v 0.0022606694 -0.030875405 0.015615853
v 0.002355009 -0.031632535 0.015893998
v 0.002092011 -0.031714115 0.015637405
v 0.0024040649 -0.03121055 0.01570955
v 0.0021958724 -0.031065863 0.01549226
v 0.0023478551 -0.031561382 0.0157881
v 0.0021045953 -0.03151977 0.015503926
v 0.0023744039 -0.031333007 0.01568828
v 0.0021410666 -0.03129213 0.015452958
v 0.002354666 -0.031456202 0.015715862
v -0.0025244963 -0.031219529 0.016302498
v -0.00238193 -0.031310093 0.016638856
v -0.0025047585 -0.031342726 0.016330082
v -0.0025021154 -0.031350773 0.015996285
v -0.0024184014 -0.031082457 0.016587887
v -0.0023271241 -0.031536363 0.016599553
v -0.0025313068 -0.031114351 0.01623026
v -0.002430985 -0.030888107 0.01645441
v -0.0024750973 -0.031465184 0.016308812
v -0.0022623274 -0.03172682 0.016475962
v -0.0025241529 -0.031043198 0.016124364
v -0.0024177667 -0.030756636 0.016258739
v -0.0024400298 -0.03156826 0.016241925
v -0.0021974044 -0.03185246 0.016286898
v -0.0025041238 -0.031016907 0.016000934
v -0.0023807574 -0.030708052 0.016030667
v -0.0024048935 -0.031636253 0.016139606
v -0.0024742687 -0.031039478 0.015878756
v -0.0023750383 -0.03165883 0.016017428
v -0.0021422391 -0.03189417 0.016061146
v -0.0023255926 -0.03074976 0.015804915
v -0.00210523 -0.031845592 0.015833076
v -0.0024391324 -0.031107476 0.015776437
v -0.0022606694 -0.030875405 0.015615853
v -0.002355009 -0.031632535 0.015893998
v -0.002092011 -0.031714115 0.015637405
v -0.0024040649 -0.03121055 0.01570955
v -0.0021958724 -0.031065863 0.01549226
v -0.0023478551 -0.031561382 0.0157881
v -0.0021045953 -0.03151977 0.015503926
v -0.0023744036 -0.031333007 0.01568828
v -0.0021410666 -0.03129213 0.015452958
v -0.002354666 -0.031456202 0.015715862
vt 0.62905985 0.7769449
vt 0.63242024 0.8043217
vt 0.647288 0.79286283
vt 0.62167114 0.78264046
vt 0.6110508 0.7612178
vt 0.6142984 0.80921775
vt 0.6337082 0.76885617
vt 0.6566399 0.7765869
vt 0.6126644 0.78507304
vt 0.59568244 0.80680716
vt 0.6349061 0.7596042
vt 0.65905076 0.75797164
vt 0.60341316 0.78387535
vt 0.5794057 0.7974554
vt 0.6324727 0.7505982
vt 0.654154 0.7398497
vt 0.5953235 0.7792267
vt 0.6267788 0.7432093
vt 0.5896289 0.7718378
vt 0.5679477 0.78258634
vt 0.64269644 0.72498125
vt 0.5630509 0.76446396
vt 0.61868936 0.7385607
vt 0.6264207 0.71562934
vt 0.5871956 0.7628314
vt 0.56546265 0.7458487
vt 0.60943776 0.73736304
vt 0.6078053 0.7132176
vt 0.5883941 0.75357926
vt 0.5748145 0.72957194
vt 0.6004316 0.7397956
vt 0.5896831 0.7181136
vt 0.59304184 0.7454906
vt 0.62905985 0.7769449
vt 0.63242024 0.8043217
vt 0.62167114 0.78264046
vt 0.6110508 0.7612178
vt 0.647288 0.79286283
vt 0.6142984 0.80921775
vt 0.6337082 0.76885617
vt 0.6566399 0.7765869
vt 0.6126644 0.78507304
vt 0.59568244 0.80680716
vt 0.6349061 0.7596042
vt 0.65905076 0.75797164
vt 0.60341316 0.78387535
vt 0.5794057 0.7974554
vt 0.6324727 0.7505982
vt 0.654154 0.7398497
vt 0.5953235 0.7792267
vt 0.6267788 0.7432093
vt 0.5896289 0.7718378
vt 0.5679477 0.78258634
vt 0.64269644 0.72498125
vt 0.5630509 0.76446396
vt 0.61868936 0.7385607
vt 0.6264207 0.71562934
vt 0.5871956 0.7628314
vt 0.56546265 0.7458487
vt 0.60943776 0.73736304
vt 0.6078053 0.7132176
vt 0.5883941 0.75357926
vt 0.5748145 0.72957194
vt 0.6004316 0.7397956
vt 0.5896831 0.7181136
vt 0.59304184 0.7454906
vn 0.98304695 -0.03566638 0.17985153
vn 0.9087586 -0.17298456 0.37978166
vn 0.9422433 0.036011633 0.33298752
vn 0.9587523 -0.18730304 0.21380281
vn 0.9599736 -0.19813065 -0.19797733
vn 0.8584407 -0.38072538 0.34369695
vn 0.99142975 0.09379563 0.09093628
vn 0.95379704 0.21444544 0.21043837
vn 0.9222443 -0.338029 0.18762167
vn 0.79894996 -0.5555848 0.23022673
vn 0.98262435 0.18137391 -0.039406296
vn 0.9416609 0.33515182 0.030791165
vn 0.87908083 -0.46489787 0.105293624
vn 0.7393434 -0.6709416 0.05664584
vn 0.9579714 0.2137351 -0.19133262
vn 0.90768236 0.37975433 -0.17860422
vn 0.83583343 -0.5485947 -0.020647656
vn 0.92122394 0.18595256 -0.34171358
vn 0.7990859 -0.5763774 -0.17102848
vn 0.68869543 -0.7092336 -0.15061946
vn 0.85703444 0.34146246 -0.3858695
vn 0.6547169 -0.66463137 -0.36001527
vn 0.8779765 0.10225587 -0.4676548
vn 0.79742795 0.22610594 -0.5594505
vn 0.77443284 -0.5440164 -0.32295498
vn 0.64258057 -0.543925 -0.5396626
vn 0.8348131 -0.02461274 -0.5499829
vn 0.73793715 0.05124662 -0.67292094
vn 0.76562744 -0.45643818 -0.45329773
vn 0.65413433 -0.3654912 -0.6622119
vn 0.798305 -0.17533892 -0.5761643
vn 0.68761903 -0.15649472 -0.70900595
vn 0.7740102 -0.32697582 -0.542213
vn -0.98304707 -0.035665937 0.17985125
vn -0.9087587 -0.17298454 0.37978163
vn -0.9587524 -0.18730322 0.21380205
vn -0.95997345 -0.19813083 -0.19797736
vn -0.94224346 0.036011983 0.3329869
vn -0.8584408 -0.38072592 0.34369642
vn -0.99142975 0.093795836 0.090936
vn -0.95379686 0.21444634 0.21043828
vn -0.9222439 -0.33803034 0.18762125
vn -0.79895025 -0.5555845 0.23022683
vn -0.98262435 0.18137395 -0.039406028
vn -0.9416609 0.33515176 0.030791527
vn -0.87908113 -0.4648973 0.10529383
vn -0.7393437 -0.6709412 0.05664588
vn -0.9579714 0.21373503 -0.19133255
vn -0.90768236 0.3797545 -0.17860384
vn -0.8358335 -0.5485946 -0.020648167
vn -0.9212238 0.18595216 -0.3417138
vn -0.79908615 -0.57637733 -0.17102815
vn -0.6886959 -0.7092331 -0.15061967
vn -0.8570349 0.341462 -0.38586912
vn -0.6547171 -0.66463095 -0.36001536
vn -0.8779766 0.10225608 -0.4676546
vn -0.79742783 0.22610553 -0.55945086
vn -0.7744331 -0.54401624 -0.32295468
vn -0.6425806 -0.5439248 -0.5396627
vn -0.8348131 -0.024613561 -0.549983
vn -0.73793703 0.051246483 -0.672921
vn -0.7656273 -0.45643815 -0.45329782
vn -0.6541343 -0.3654914 -0.6622118
vn -0.79830474 -0.17533879 -0.57616466
vn -0.6876194 -0.1564944 -0.70900565
vn -0.77401066 -0.3269753 -0.5422129
g Eyes_0
f 3/3/3 2/2/2 1/1/1
f 4/4/4 1/1/1 2/2/2
f 1/1/1 4/4/4 5/5/5
f 2/2/2 6/6/6 4/4/4
f 1/1/1 7/7/7 3/3/3
f 7/7/7 1/1/1 5/5/5
f 8/8/8 3/3/3 7/7/7
f 9/9/9 4/4/4 6/6/6
f 4/4/4 9/9/9 5/5/5
f 6/6/6 10/10/10 9/9/9
f 7/7/7 11/11/11 8/8/8
f 11/11/11 7/7/7 5/5/5
f 12/12/12 8/8/8 11/11/11
f 13/13/13 9/9/9 10/10/10
f 9/9/9 13/13/13 5/5/5
f 10/10/10 14/14/14 13/13/13
f 11/11/11 15/15/15 12/12/12
f 15/15/15 11/11/11 5/5/5
f 16/16/16 12/12/12 15/15/15
f 17/17/17 13/13/13 14/14/14
f 13/13/13 17/17/17 5/5/5
f 18/18/18 15/15/15 5/5/5
f 15/15/15 18/18/18 16/16/16
f 17/17/17 19/19/19 5/5/5
f 14/14/14 20/20/20 17/17/17
f 19/19/19 17/17/17 20/20/20
f 21/21/21 16/16/16 18/18/18
f 20/20/20 22/22/22 19/19/19
f 18/18/18 23/23/23 21/21/21
f 23/23/23 18/18/18 5/5/5
f 24/24/24 21/21/21 23/23/23
f 25/25/25 19/19/19 22/22/22
f 19/19/19 25/25/25 5/5/5
f 22/22/22 26/26/26 25/25/25
f 23/23/23 27/27/27 24/24/24
f 27/27/27 23/23/23 5/5/5
f 28/28/28 24/24/24 27/27/27
f 29/29/29 25/25/25 26/26/26
f 25/25/25 29/29/29 5/5/5
f 26/26/26 30/30/30 29/29/29
f 27/27/27 31/31/31 28/28/28
f 31/31/31 27/27/27 5/5/5
f 32/32/32 28/28/28 31/31/31
f 33/33/33 29/29/29 30/30/30
f 29/29/29 33/33/33 5/5/5
f 33/33/33 31/31/31 5/5/5
f 30/30/30 32/32/32 33/33/33
f 31/31/31 33/33/33 32/32/32
f 36/36/36 35/35/35 34/34/34
f 36/36/36 34/34/34 37/37/37
f 38/38/38 34/34/34 35/35/35
f 35/35/35 36/36/36 39/39/39
f 34/34/34 38/38/38 40/40/40
f 34/34/34 40/40/40 37/37/37
f 41/41/41 40/40/40 38/38/38
f 42/42/42 39/39/39 36/36/36
f 42/42/42 36/36/36 37/37/37
f 39/39/39 42/42/42 43/43/43
f 40/40/40 41/41/41 44/44/44
f 40/40/40 44/44/44 37/37/37
f 45/45/45 44/44/44 41/41/41
f 46/46/46 43/43/43 42/42/42
f 46/46/46 42/42/42 37/37/37
f 43/43/43 46/46/46 47/47/47
f 44/44/44 45/45/45 48/48/48
f 44/44/44 48/48/48 37/37/37
f 49/49/49 48/48/48 45/45/45
f 50/50/50 47/47/47 46/46/46
f 50/50/50 46/46/46 37/37/37
f 48/48/48 51/51/51 37/37/37
f 48/48/48 49/49/49 51/51/51
f 52/52/52 50/50/50 37/37/37
f 47/47/47 50/50/50 53/53/53
f 52/52/52 53/53/53 50/50/50
f 54/54/54 51/51/51 49/49/49
f 53/53/53 52/52/52 55/55/55
f 51/51/51 54/54/54 56/56/56
f 51/51/51 56/56/56 37/37/37
f 57/57/57 56/56/56 54/54/54
f 58/58/58 55/55/55 52/52/52
f 58/58/58 52/52/52 37/37/37
f 55/55/55 58/58/58 59/59/59
f 56/56/56 57/57/57 60/60/60
f 56/56/56 60/60/60 37/37/37
f 61/61/61 60/60/60 57/57/57
f 62/62/62 59/59/59 58/58/58
f 62/62/62 58/58/58 37/37/37
f 59/59/59 62/62/62 63/63/63
f 60/60/60 61/61/61 64/64/64
f 60/60/60 64/64/64 37/37/37
f 65/65/65 64/64/64 61/61/61
f 63/63/63 66/66/66 65/65/65
f 66/66/66 63/63/63 62/62/62
f 66/66/66 62/62/62 37/37/37
f 64/64/64 65/65/65 66/66/66
f 64/64/64 66/66/66 37/37/37
