g eyes
v 0.062377386 2.0414302 0.5099144
v 0.27090046 2.0350494 0.43365777
v 0.05911431 2.2618349 0.48254865
v 0.26763737 2.2554538 0.40629196
v 0.18171844 2.1545987 0.4887525
v -0.062382624 2.0414302 0.5099144
v -0.27090567 2.0350494 0.43365777
v -0.059119552 2.2618346 0.48254865
v -0.26764262 2.2554538 0.40629196
v -0.18172368 2.1545987 0.4887525
vt 0.5191331 0.7542422
vt 0.6299008 0.7542422
vt 0.5191331 0.8650099
vt 0.6299008 0.8650099
vt 0.57451695 0.809626
vt 0.5191331 0.7542422
vt 0.6299008 0.7542422
vt 0.5191331 0.8650099
vt 0.6299008 0.8650099
vt 0.57451695 0.809626
vn 0.19999549 -0.027761433 0.97940344
vn 0.48868388 -0.037160408 0.87166923
vn 0.1950649 0.277443 0.94073117
vn 0.4839762 0.26862952 0.8328296
vn 0.35020795 0.12319105 0.92853564
vn -0.19999671 -0.027761929 0.9794032
vn -0.48868498 -0.03716048 0.8716686
vn -0.19506584 0.27744383 0.94073075
vn -0.48397714 0.2686308 0.8328287
vn -0.3502091 0.12319147 0.9285352
g eyes_0
f 5/5/5 3/3/3 1/1/1
f 2/2/2 5/5/5 1/1/1
f 4/4/4 3/3/3 5/5/5
f 2/2/2 4/4/4 5/5/5
f 8/8/8 10/10/10 6/6/6
f 10/10/10 7/7/7 6/6/6
f 8/8/8 9/9/9 10/10/10
f 9/9/9 7/7/7 10/10/10
