g Face
v 0.24334282 -0.77489585 12.428913
v 5.9604645E-07 -0.9900283 11.991548
v 2.9802322E-07 -0.803843 12.434211
v 0.23981035 -0.9684993 11.99257
v 0.2366516 -0.91964674 11.722073
v 0.60139567 -0.6443255 12.330105
v -0 -0.9401223 11.647303
v 0.5750075 -0.8565575 11.960928
v 0.7760024 -0.6778842 11.848825
v 0.93651116 -0.25808775 12.02891
v 0.14601618 -0.7747114 11.469532
v 5.9604645E-07 -0.8588451 11.44519
v 5.9604645E-07 -0.84745586 11.269995
v 0.5600065 -0.8203585 11.768579
v 0.93428373 -0.42721486 11.68254
v 0.97533464 -0.057843924 11.538754
v 0.29022187 -0.750443 11.492862
v 0.13226986 -0.76384246 11.279148
v 0.48962623 -0.6861066 11.526871
v 0.32449484 -0.7059305 11.299025
v 0.33947736 -0.67098033 11.134919
v 0.14066309 -0.7332883 11.147957
v 0.15923262 -0.8187509 11.007492
v 2.9802322E-07 -0.9716172 11.000689
v 2.9802322E-07 -0.9011501 10.920501
v 5.9604645E-07 -0.81474125 10.764935
v 0.50724417 -0.6583271 11.318349
v 0.1723373 -0.76792514 10.797533
v 2.9802322E-07 -0.7172909 10.627593
v 0.18398017 -0.67102975 10.662485
v 2.9802322E-07 -0.59759605 10.497409
v 0.6552535 -0.583803 11.346045
v 0.5244714 -0.6129836 11.1612
v 0.6306243 -0.6145916 11.538892
v 0.79429865 -0.4446169 11.4185095
v 0.6772581 -0.5256959 11.21539
v 0.5618733 -0.63609594 11.077288
v 0.36426574 -0.72777843 11.026278
v 0.39147168 -0.70808196 10.861406
v 0.7013926 -0.67078304 11.689327
v 0.74879706 -0.5468259 11.576557
v 0.59209794 -0.61271274 10.94928
v 0.4037121 -0.6070838 10.730824
v 0.91914594 -0.3131917 11.4767475
v 0.8608484 -0.2988205 11.297411
v 0.5948201 -0.52832425 10.840039
v 0.18278956 -0.5462756 10.562736
v 0.406529 -0.49526298 10.642995
v 0.17556548 -0.43148503 10.452027
v 2.9802322E-07 -0.47885522 10.372692
v 0.16606629 -0.20708524 10.545807
v 5.9604645E-07 -0.24319 10.480574
v 5.9604645E-07 0.14227688 10.619231
v 0.8728802 -0.08735806 11.098933
v 0.89009404 0.19288093 11.182332
v 0.39408624 -0.37057108 10.5756235
v 0.7564473 0.13143465 10.935293
v 0.8266181 0.35610363 11.105774
v 0.49049914 0.15269458 10.772076
v 0.5388859 0.5730922 11.023697
v 0.21998435 0.4871823 10.749091
v 2.9802322E-07 0.9200288 11.058198
v 5.9604645E-07 0.4622677 10.771364
v 0.19709319 0.14818773 10.6752405
v 0.4216984 -0.15581094 10.642174
v 0.60026735 -0.2768819 10.697952
v 0.6086999 -0.121889114 10.761126
v 0.75087726 -0.10493532 10.918056
v 0.60106426 -0.43467557 10.755812
v 0.7565054 -0.3644269 10.9037075
v 0.83312243 -0.32526776 11.075218
v 0.75323164 -0.4392822 10.949106
v 0.75681627 -0.49565917 11.053033
v 0.72299033 -0.515064 11.152443
v 0.77270895 -0.402619 11.252255
v 5.9604645E-07 -0.9900283 11.991548
v -0.24334252 -0.77489585 12.428912
v 2.9802322E-07 -0.803843 12.434211
v -0.23980975 -0.9684992 11.99257
v -0.2366513 -0.9196466 11.722073
v -0.6013948 -0.6443256 12.330105
v -0 -0.9401223 11.647303
v -0.5750072 -0.8565575 11.960928
v -0.7760012 -0.6778842 11.848825
v -0.93651056 -0.25808758 12.02891
v -0.14601529 -0.7747114 11.469532
v 5.9604645E-07 -0.8588451 11.44519
v 5.9604645E-07 -0.84745586 11.269995
v -0.5600065 -0.8203585 11.768579
v -0.93428314 -0.42721486 11.68254
v -0.97533405 -0.057843924 11.538754
v -0.29022098 -0.75044304 11.492862
v -0.13226926 -0.76384234 11.279148
v -0.48962533 -0.6861067 11.526871
v -0.32449424 -0.70593035 11.299025
v -0.33947647 -0.67098033 11.134919
v -0.1406622 -0.7332884 11.147957
v -0.15923202 -0.8187511 11.007492
v 2.9802322E-07 -0.9716172 11.000689
v 2.9802322E-07 -0.9011501 10.920501
v 5.9604645E-07 -0.81474125 10.764935
v -0.5072433 -0.6583271 11.318349
v -0.1723373 -0.7679251 10.797533
v 2.9802322E-07 -0.7172909 10.627593
v -0.18397927 -0.6710296 10.662485
v 2.9802322E-07 -0.59759605 10.497409
v -0.65525293 -0.58380294 11.346045
v -0.5244708 -0.61298364 11.1612
v -0.6306237 -0.6145917 11.538892
v -0.79429805 -0.44461682 11.4185095
v -0.6772578 -0.5256959 11.21539
v -0.5618727 -0.63609594 11.077288
v -0.36426544 -0.7277783 11.026278
v -0.3914714 -0.7080818 10.861406
v -0.4037118 -0.60708374 10.730824
v -0.7013917 -0.670783 11.689327
v -0.74879646 -0.54682565 11.576557
v -0.59209764 -0.6127126 10.94928
v -0.18278837 -0.54627585 10.562736
v -0.5948192 -0.52832425 10.840039
v -0.17556548 -0.43148518 10.452027
v 2.9802322E-07 -0.47885522 10.372692
v -0.4065287 -0.4952631 10.642995
v -0.1660657 -0.20708531 10.545807
v 5.9604645E-07 -0.24319 10.480574
v 5.9604645E-07 0.14227688 10.619231
v -0.39408565 -0.37057102 10.5756235
v -0.7568157 -0.4956594 11.053033
v -0.75323105 -0.4392822 10.949106
v -0.72299004 -0.515064 11.152443
v -0.86084783 -0.2988202 11.297411
v -0.77270865 -0.40261918 11.252255
v -0.83312154 -0.32526776 11.075218
v -0.75650513 -0.36442703 10.9037075
v -0.6010634 -0.4346755 10.755812
v -0.60026705 -0.27688205 10.697952
v -0.75087667 -0.10493517 10.918056
v -0.4216975 -0.15581109 10.642174
v -0.91914535 -0.3131917 11.4767475
v -0.8728796 -0.087358356 11.098933
v -0.89009345 0.19288093 11.182332
v -0.7564467 0.13143465 10.935293
v -0.8266175 0.35610378 11.105774
v -0.6086993 -0.12188919 10.761126
v -0.49049854 0.15269458 10.772076
v -0.538885 0.5730922 11.023697
v -0.19709289 0.14818788 10.6752405
v -0.21998405 0.48718244 10.749091
v 2.9802322E-07 0.9200288 11.058198
v 5.9604645E-07 0.4622677 10.771364
vt 0.050217383 0.98992556
vt 0.0073561603 0.93177
vt 0.018303689 0.99376196
vt 0.037347395 0.9309245
vt 0.037804075 0.89596397
vt 0.10127197 0.975012
vt 0.008648629 0.88466
vt 0.08023845 0.9258831
vt 0.11163379 0.9113948
vt 0.16861582 0.93213
vt 0.034272216 0.85744125
vt 0.013153862 0.8549485
vt 0.014836803 0.82951856
vt 0.07967922 0.9027399
vt 0.14596486 0.88883847
vt 0.19018792 0.863879
vt 0.052780785 0.86226785
vt 0.03464584 0.8331691
vt 0.07962857 0.86759764
vt 0.06002676 0.83787245
vt 0.0642865 0.81714946
vt 0.038631912 0.81663483
vt 0.03708635 0.7951041
vt 0.009168353 0.7911302
vt 0.016844809 0.7792175
vt 0.02645627 0.7570469
vt 0.0841438 0.84188783
vt 0.04621003 0.7675847
vt 0.036964647 0.73533016
vt 0.057413023 0.74802893
vt 0.051808387 0.71423
vt 0.10571477 0.84617466
vt 0.088889316 0.82230186
vt 0.100562945 0.86938137
vt 0.13149013 0.85446644
vt 0.11204955 0.8298311
vt 0.09181352 0.81184447
vt 0.06532453 0.801595
vt 0.07183084 0.78213674
vt 0.10431515 0.8910176
vt 0.1183113 0.87447137
vt 0.0971345 0.797118
vt 0.081484675 0.7655496
vt 0.15531051 0.8615067
vt 0.15154827 0.83865726
vt 0.10494307 0.78319615
vt 0.07054037 0.73084015
vt 0.092883915 0.75177866
vt 0.08561994 0.71481353
vt 0.069566354 0.69586545
vt 0.11624783 0.705488
vt 0.103809044 0.6861985
vt 0.15637729 0.6750722
vt 0.17324552 0.808523
vt 0.2102441 0.80627006
vt 0.10671143 0.73968005
vt 0.18986066 0.7746099
vt 0.22508894 0.7833808
vt 0.1782951 0.7359395
vt 0.2400633 0.7370596
vt 0.207378 0.6935954
vt 0.27113682 0.6602854
vt 0.2013218 0.6678064
vt 0.16463685 0.70004165
vt 0.13491707 0.7350437
vt 0.13013327 0.7609939
vt 0.14980713 0.75921136
vt 0.1623263 0.7831633
vt 0.114124134 0.7721613
vt 0.1321942 0.7930722
vt 0.14373471 0.8126184
vt 0.124390066 0.7977892
vt 0.12076405 0.811413
vt 0.11687191 0.82240826
vt 0.1329888 0.8338066
vt 0.0073561603 0.93177
vt 0.050217383 0.98992556
vt 0.018303689 0.99376196
vt 0.037347395 0.9309245
vt 0.037804075 0.89596397
vt 0.10127197 0.975012
vt 0.008648629 0.88466
vt 0.08023845 0.9258831
vt 0.11163379 0.9113948
vt 0.16861582 0.93213
vt 0.034272216 0.85744125
vt 0.013153862 0.8549485
vt 0.014836803 0.82951856
vt 0.07967922 0.9027399
vt 0.14596486 0.88883847
vt 0.19018792 0.863879
vt 0.052780785 0.86226785
vt 0.03464584 0.8331691
vt 0.07962857 0.86759764
vt 0.06002676 0.83787245
vt 0.0642865 0.81714946
vt 0.038631912 0.81663483
vt 0.03708635 0.7951041
vt 0.009168353 0.7911302
vt 0.016844809 0.7792175
vt 0.02645627 0.7570469
vt 0.0841438 0.84188783
vt 0.04621003 0.7675847
vt 0.036964647 0.73533016
vt 0.057413023 0.74802893
vt 0.051808387 0.71423
vt 0.10571477 0.84617466
vt 0.088889316 0.82230186
vt 0.100562945 0.86938137
vt 0.13149013 0.85446644
vt 0.11204955 0.8298311
vt 0.09181352 0.81184447
vt 0.06532453 0.801595
vt 0.07183084 0.78213674
vt 0.081484675 0.7655496
vt 0.10431515 0.8910176
vt 0.1183113 0.87447137
vt 0.0971345 0.797118
vt 0.07054037 0.73084015
vt 0.10494307 0.78319615
vt 0.08561994 0.71481353
vt 0.069566354 0.69586545
vt 0.092883915 0.75177866
vt 0.11624783 0.705488
vt 0.103809044 0.6861985
vt 0.15637729 0.6750722
vt 0.10671143 0.73968005
vt 0.12076405 0.811413
vt 0.124390066 0.7977892
vt 0.11687191 0.82240826
vt 0.15154827 0.83865726
vt 0.1329888 0.8338066
vt 0.14373471 0.8126184
vt 0.1321942 0.7930722
vt 0.114124134 0.7721613
vt 0.13013327 0.7609939
vt 0.1623263 0.7831633
vt 0.13491707 0.7350437
vt 0.15531051 0.8615067
vt 0.17324552 0.808523
vt 0.2102441 0.80627006
vt 0.18986066 0.7746099
vt 0.22508894 0.7833808
vt 0.14980713 0.75921136
vt 0.1782951 0.7359395
vt 0.2400633 0.7370596
vt 0.16463685 0.70004165
vt 0.207378 0.6935954
vt 0.27113682 0.6602854
vt 0.2013218 0.6678064
vn 0.25685385 -0.88684237 0.384105
vn -0 -0.9926559 0.12097271
vn -0 -0.92178375 0.38770452
vn 0.21420069 -0.9681627 0.12953432
vn 0.24077635 -0.9069882 -0.34554154
vn 0.5954381 -0.70934176 0.37721065
vn -0 -0.9336531 -0.35817862
vn 0.50439197 -0.8537304 0.12935647
vn 0.77083915 -0.63702595 -0.00222708
vn 0.91942495 -0.33724603 0.20229413
vn 0.33378965 -0.90077806 -0.277819
vn -0 -0.97581315 -0.2186061
vn -0 -0.9958902 0.09056851
vn 0.4402896 -0.8282668 -0.34658226
vn 0.8950194 -0.432675 -0.10831698
vn 0.97843105 -0.12744308 -0.16257598
vn 0.29321918 -0.8934531 -0.34024113
vn 0.41627252 -0.89822155 -0.14112125
vn 0.3834283 -0.86139554 -0.3331373
vn 0.29034743 -0.9433865 -0.16037539
vn 0.30296853 -0.936646 0.17579637
vn 0.51448625 -0.8330638 0.20324518
vn 0.523675 -0.84757143 0.08594781
vn -0 -0.9919892 -0.12632306
vn -0 -0.8222718 -0.5690951
vn -0 -0.8849775 -0.46563366
vn 0.3723399 -0.9161158 -0.1486432
vn 0.32779098 -0.8638627 -0.3824845
vn -0 -0.780109 -0.6256437
vn 0.36285204 -0.69390404 -0.6219611
vn -0 -0.69720995 -0.716867
vn 0.6091327 -0.78201294 -0.13195921
vn 0.36647147 -0.92582184 0.09248039
vn 0.5324583 -0.78433645 -0.31828347
vn 0.7276461 -0.6392137 -0.24887143
vn 0.64420915 -0.76366657 0.042519473
vn 0.4301552 -0.8866258 0.16988581
vn 0.37398627 -0.90024734 0.22291054
vn 0.44287664 -0.84021354 -0.3128922
vn 0.6023369 -0.6832827 -0.41269258
vn 0.6038896 -0.7059584 -0.37005422
vn 0.57370704 -0.77637774 -0.26095557
vn 0.47731492 -0.63913435 -0.603057
vn 0.8957133 -0.33840373 -0.2884104
vn 0.90681535 -0.38310522 -0.17583033
vn 0.6130775 -0.58647186 -0.52932656
vn 0.40051612 -0.5973718 -0.69479036
vn 0.50766 -0.47484556 -0.71889013
vn 0.43897986 -0.12236636 -0.89012545
vn -0 -0.24029875 -0.970699
vn 0.29589647 0.33187371 -0.8957149
vn -0 0.3857957 -0.92258424
vn -0 0.30736676 -0.95159113
vn 0.9246114 -0.056571864 -0.37668726
vn 0.9126191 0.06771679 -0.4031636
vn 0.4946077 -0.05171987 -0.8675761
vn 0.697829 0.21894817 -0.6819798
vn 0.6812849 0.28930402 -0.672424
vn 0.4458369 0.3090489 -0.8400703
vn 0.48475146 0.4834768 -0.72888017
vn 0.21749002 0.4657955 -0.85774857
vn -0 0.6483296 -0.76135975
vn -0 0.47934982 -0.87762386
vn 0.27783322 0.24925886 -0.92772764
vn 0.3728012 0.27106315 -0.8874368
vn 0.62848765 0.022537436 -0.77749306
vn 0.59600663 0.23261352 -0.76854867
vn 0.8061169 0.032041077 -0.59088814
vn 0.6346064 -0.40941137 -0.65548235
vn 0.8325785 -0.17940202 -0.5240497
vn 0.94368505 -0.21921255 -0.24779916
vn 0.7885929 -0.44269764 -0.4267787
vn 0.7765463 -0.62023443 -0.11083803
vn 0.6562499 -0.7260411 0.20542777
vn 0.7340992 -0.6655733 0.13457495
vn -0 -0.9926559 0.12097271
vn -0.25685415 -0.88684225 0.3841052
vn -0 -0.92178375 0.38770452
vn -0.2142005 -0.9681627 0.1295347
vn -0.24077648 -0.9069882 -0.34554154
vn -0.5954381 -0.70934165 0.37721065
vn -0 -0.9336531 -0.35817862
vn -0.50439256 -0.85373 0.12935686
vn -0.77083945 -0.63702554 -0.0022269879
vn -0.9194248 -0.3372466 0.202294
vn -0.33378938 -0.90077806 -0.27781942
vn -0 -0.97581315 -0.2186061
vn -0 -0.9958902 0.09056851
vn -0.44029042 -0.8282664 -0.34658206
vn -0.89501923 -0.43267554 -0.108316615
vn -0.97843105 -0.12744308 -0.16257596
vn -0.29321888 -0.8934531 -0.34024128
vn -0.41627172 -0.89822197 -0.1411212
vn -0.38342774 -0.8613956 -0.33313787
vn -0.2903473 -0.9433865 -0.1603756
vn -0.30296853 -0.936646 0.17579667
vn -0.5144864 -0.8330634 0.20324618
vn -0.5236749 -0.84757155 0.085948266
vn -0 -0.9919892 -0.12632306
vn -0 -0.8222718 -0.5690951
vn -0 -0.8849775 -0.46563366
vn -0.37233958 -0.91611606 -0.14864299
vn -0.32779068 -0.8638625 -0.38248497
vn -0 -0.780109 -0.6256437
vn -0.36285186 -0.6939035 -0.6219618
vn -0 -0.69720995 -0.716867
vn -0.60913235 -0.7820133 -0.13195875
vn -0.36647093 -0.9258221 0.09248043
vn -0.53245866 -0.78433627 -0.31828353
vn -0.7276464 -0.6392137 -0.24887088
vn -0.6442086 -0.7636669 0.042520173
vn -0.43015486 -0.886626 0.16988583
vn -0.37398645 -0.9002472 0.22291076
vn -0.4428772 -0.8402133 -0.31289217
vn -0.47731516 -0.6391345 -0.60305667
vn -0.6023382 -0.68328184 -0.41269192
vn -0.60388994 -0.7059586 -0.37005326
vn -0.5737072 -0.7763774 -0.26095635
vn -0.40051576 -0.5973732 -0.6947894
vn -0.6130774 -0.58647156 -0.5293272
vn -0.4389797 -0.12236708 -0.89012533
vn -0 -0.24029875 -0.970699
vn -0.5076601 -0.4748458 -0.71888995
vn -0.29589608 0.33187392 -0.8957149
vn -0 0.3857957 -0.92258424
vn -0 0.30736676 -0.95159113
vn -0.49460757 -0.051718384 -0.8675762
vn -0.7765466 -0.620234 -0.11083843
vn -0.788593 -0.44269818 -0.42677796
vn -0.6562501 -0.7260408 0.20542726
vn -0.90681565 -0.38310438 -0.17583054
vn -0.7341014 -0.66557133 0.134573
vn -0.9436852 -0.21921217 -0.24779893
vn -0.8325789 -0.17940311 -0.52404845
vn -0.63460606 -0.4094124 -0.6554819
vn -0.62848765 0.02253724 -0.77749306
vn -0.806117 0.03204128 -0.5908881
vn -0.372801 0.2710633 -0.8874368
vn -0.89571327 -0.33840385 -0.28841066
vn -0.9246114 -0.05657244 -0.3766873
vn -0.91261905 0.067716725 -0.40316364
vn -0.69782907 0.21894805 -0.6819797
vn -0.6812847 0.28930417 -0.672424
vn -0.5960061 0.23261407 -0.7685489
vn -0.44583705 0.30904877 -0.8400703
vn -0.48475167 0.48347703 -0.7288798
vn -0.2778329 0.24925879 -0.9277279
vn -0.21749054 0.46579564 -0.8577483
vn -0 0.6483296 -0.76135975
vn -0 0.47934982 -0.87762386
g Face_0
f 3/3/3 2/2/2 1/1/1
f 4/4/4 1/1/1 2/2/2
f 2/2/2 5/5/5 4/4/4
f 1/1/1 4/4/4 6/6/6
f 2/2/2 7/7/7 5/5/5
f 8/8/8 6/6/6 4/4/4
f 4/4/4 5/5/5 8/8/8
f 9/9/9 6/6/6 8/8/8
f 6/6/6 9/9/9 10/10/10
f 5/5/5 7/7/7 11/11/11
f 12/12/12 11/11/11 7/7/7
f 12/12/12 13/13/13 11/11/11
f 14/14/14 8/8/8 5/5/5
f 14/14/14 9/9/9 8/8/8
f 10/10/10 9/9/9 15/15/15
f 10/10/10 15/15/15 16/16/16
f 5/5/5 11/11/11 17/17/17
f 18/18/18 11/11/11 13/13/13
f 11/11/11 18/18/18 17/17/17
f 17/17/17 19/19/19 5/5/5
f 5/5/5 19/19/19 14/14/14
f 20/20/20 17/17/17 18/18/18
f 17/17/17 20/20/20 19/19/19
f 20/20/20 18/18/18 21/21/21
f 13/13/13 22/22/22 18/18/18
f 22/22/22 21/21/21 18/18/18
f 13/13/13 23/23/23 22/22/22
f 22/22/22 23/23/23 21/21/21
f 23/23/23 13/13/13 24/24/24
f 25/25/25 23/23/23 24/24/24
f 25/25/25 26/26/26 23/23/23
f 27/27/27 19/19/19 20/20/20
f 20/20/20 21/21/21 27/27/27
f 28/28/28 23/23/23 26/26/26
f 26/26/26 29/29/29 28/28/28
f 30/30/30 28/28/28 29/29/29
f 29/29/29 31/31/31 30/30/30
f 27/27/27 32/32/32 19/19/19
f 33/33/33 27/27/27 21/21/21
f 27/27/27 33/33/33 32/32/32
f 34/34/34 19/19/19 32/32/32
f 32/32/32 35/35/35 34/34/34
f 19/19/19 34/34/34 14/14/14
f 36/36/36 32/32/32 33/33/33
f 32/32/32 36/36/36 35/35/35
f 33/33/33 21/21/21 37/37/37
f 33/33/33 37/37/37 36/36/36
f 38/38/38 21/21/21 23/23/23
f 38/38/38 37/37/37 21/21/21
f 28/28/28 39/39/39 23/23/23
f 38/38/38 23/23/23 39/39/39
f 34/34/34 40/40/40 14/14/14
f 40/40/40 9/9/9 14/14/14
f 34/34/34 41/41/41 40/40/40
f 40/40/40 41/41/41 9/9/9
f 41/41/41 34/34/34 35/35/35
f 9/9/9 41/41/41 15/15/15
f 15/15/15 41/41/41 35/35/35
f 37/37/37 38/38/38 42/42/42
f 39/39/39 42/42/42 38/38/38
f 39/39/39 28/28/28 43/43/43
f 30/30/30 43/43/43 28/28/28
f 35/35/35 44/44/44 15/15/15
f 35/35/35 45/45/45 44/44/44
f 16/16/16 15/15/15 44/44/44
f 44/44/44 45/45/45 16/16/16
f 42/42/42 39/39/39 46/46/46
f 43/43/43 46/46/46 39/39/39
f 30/30/30 47/47/47 43/43/43
f 47/47/47 30/30/30 31/31/31
f 48/48/48 43/43/43 47/47/47
f 43/43/43 48/48/48 46/46/46
f 47/47/47 31/31/31 49/49/49
f 47/47/47 49/49/49 48/48/48
f 50/50/50 49/49/49 31/31/31
f 49/49/49 50/50/50 51/51/51
f 52/52/52 51/51/51 50/50/50
f 52/52/52 53/53/53 51/51/51
f 45/45/45 54/54/54 16/16/16
f 55/55/55 16/16/16 54/54/54
f 56/56/56 48/48/48 49/49/49
f 49/49/49 51/51/51 56/56/56
f 55/55/55 54/54/54 57/57/57
f 57/57/57 58/58/58 55/55/55
f 57/57/57 59/59/59 58/58/58
f 60/60/60 58/58/58 59/59/59
f 60/60/60 59/59/59 61/61/61
f 61/61/61 62/62/62 60/60/60
f 63/63/63 62/62/62 61/61/61
f 63/63/63 61/61/61 53/53/53
f 64/64/64 53/53/53 61/61/61
f 64/64/64 51/51/51 53/53/53
f 64/64/64 61/61/61 59/59/59
f 51/51/51 64/64/64 65/65/65
f 65/65/65 56/56/56 51/51/51
f 59/59/59 65/65/65 64/64/64
f 56/56/56 66/66/66 48/48/48
f 56/56/56 65/65/65 66/66/66
f 65/65/65 59/59/59 67/67/67
f 57/57/57 67/67/67 59/59/59
f 67/67/67 66/66/66 65/65/65
f 67/67/67 57/57/57 68/68/68
f 68/68/68 66/66/66 67/67/67
f 68/68/68 57/57/57 54/54/54
f 69/69/69 48/48/48 66/66/66
f 69/69/69 46/46/46 48/48/48
f 69/69/69 66/66/66 70/70/70
f 70/70/70 66/66/66 68/68/68
f 69/69/69 70/70/70 46/46/46
f 54/54/54 71/71/71 68/68/68
f 70/70/70 68/68/68 71/71/71
f 45/45/45 71/71/71 54/54/54
f 72/72/72 46/46/46 70/70/70
f 70/70/70 71/71/71 72/72/72
f 46/46/46 72/72/72 42/42/42
f 73/73/73 72/72/72 71/71/71
f 73/73/73 42/42/42 72/72/72
f 71/71/71 45/45/45 73/73/73
f 42/42/42 73/73/73 37/37/37
f 74/74/74 37/37/37 73/73/73
f 73/73/73 45/45/45 74/74/74
f 74/74/74 36/36/36 37/37/37
f 75/75/75 74/74/74 45/45/45
f 74/74/74 75/75/75 36/36/36
f 45/45/45 35/35/35 75/75/75
f 75/75/75 35/35/35 36/36/36
f 78/78/78 77/77/77 76/76/76
f 79/79/79 76/76/76 77/77/77
f 80/80/80 76/76/76 79/79/79
f 77/77/77 81/81/81 79/79/79
f 82/82/82 76/76/76 80/80/80
f 83/83/83 79/79/79 81/81/81
f 79/79/79 83/83/83 80/80/80
f 81/81/81 84/84/84 83/83/83
f 84/84/84 81/81/81 85/85/85
f 80/80/80 86/86/86 82/82/82
f 87/87/87 82/82/82 86/86/86
f 87/87/87 86/86/86 88/88/88
f 89/89/89 80/80/80 83/83/83
f 84/84/84 89/89/89 83/83/83
f 84/84/84 85/85/85 90/90/90
f 90/90/90 85/85/85 91/91/91
f 86/86/86 80/80/80 92/92/92
f 93/93/93 88/88/88 86/86/86
f 86/86/86 92/92/92 93/93/93
f 94/94/94 92/92/92 80/80/80
f 94/94/94 80/80/80 89/89/89
f 95/95/95 93/93/93 92/92/92
f 92/92/92 94/94/94 95/95/95
f 95/95/95 96/96/96 93/93/93
f 97/97/97 88/88/88 93/93/93
f 97/97/97 93/93/93 96/96/96
f 98/98/98 88/88/88 97/97/97
f 97/97/97 96/96/96 98/98/98
f 88/88/88 98/98/98 99/99/99
f 98/98/98 100/100/100 99/99/99
f 100/100/100 98/98/98 101/101/101
f 102/102/102 95/95/95 94/94/94
f 95/95/95 102/102/102 96/96/96
f 103/103/103 101/101/101 98/98/98
f 101/101/101 103/103/103 104/104/104
f 105/105/105 104/104/104 103/103/103
f 104/104/104 105/105/105 106/106/106
f 102/102/102 94/94/94 107/107/107
f 108/108/108 96/96/96 102/102/102
f 102/102/102 107/107/107 108/108/108
f 109/109/109 107/107/107 94/94/94
f 107/107/107 109/109/109 110/110/110
f 109/109/109 94/94/94 89/89/89
f 111/111/111 108/108/108 107/107/107
f 107/107/107 110/110/110 111/111/111
f 108/108/108 112/112/112 96/96/96
f 108/108/108 111/111/111 112/112/112
f 113/113/113 98/98/98 96/96/96
f 113/113/113 96/96/96 112/112/112
f 103/103/103 98/98/98 114/114/114
f 113/113/113 114/114/114 98/98/98
f 105/105/105 103/103/103 115/115/115
f 114/114/114 115/115/115 103/103/103
f 116/116/116 109/109/109 89/89/89
f 84/84/84 116/116/116 89/89/89
f 117/117/117 109/109/109 116/116/116
f 117/117/117 116/116/116 84/84/84
f 117/117/117 110/110/110 109/109/109
f 117/117/117 84/84/84 90/90/90
f 117/117/117 90/90/90 110/110/110
f 114/114/114 113/113/113 118/118/118
f 112/112/112 118/118/118 113/113/113
f 105/105/105 115/115/115 119/119/119
f 119/119/119 106/106/106 105/105/105
f 115/115/115 114/114/114 120/120/120
f 118/118/118 120/120/120 114/114/114
f 119/119/119 121/121/121 106/106/106
f 122/122/122 106/106/106 121/121/121
f 123/123/123 119/119/119 115/115/115
f 115/115/115 120/120/120 123/123/123
f 119/119/119 123/123/123 121/121/121
f 121/121/121 124/124/124 122/122/122
f 125/125/125 122/122/122 124/124/124
f 125/125/125 124/124/124 126/126/126
f 127/127/127 121/121/121 123/123/123
f 121/121/121 127/127/127 124/124/124
f 118/118/118 112/112/112 128/128/128
f 120/120/120 118/118/118 129/129/129
f 128/128/128 129/129/129 118/118/118
f 130/130/130 128/128/128 112/112/112
f 128/128/128 130/130/130 131/131/131
f 130/130/130 112/112/112 111/111/111
f 132/132/132 130/130/130 111/111/111
f 132/132/132 131/131/131 130/130/130
f 132/132/132 111/111/111 110/110/110
f 110/110/110 131/131/131 132/132/132
f 129/129/129 128/128/128 133/133/133
f 131/131/131 133/133/133 128/128/128
f 129/129/129 134/134/134 120/120/120
f 133/133/133 134/134/134 129/129/129
f 135/135/135 123/123/123 120/120/120
f 135/135/135 120/120/120 134/134/134
f 135/135/135 136/136/136 123/123/123
f 136/136/136 135/135/135 134/134/134
f 127/127/127 123/123/123 136/136/136
f 134/134/134 133/133/133 137/137/137
f 136/136/136 134/134/134 137/137/137
f 127/127/127 136/136/136 138/138/138
f 138/138/138 124/124/124 127/127/127
f 131/131/131 110/110/110 139/139/139
f 139/139/139 110/110/110 90/90/90
f 90/90/90 91/91/91 139/139/139
f 131/131/131 139/139/139 91/91/91
f 133/133/133 131/131/131 140/140/140
f 140/140/140 131/131/131 91/91/91
f 140/140/140 137/137/137 133/133/133
f 91/91/91 141/141/141 140/140/140
f 141/141/141 142/142/142 140/140/140
f 137/137/137 140/140/140 142/142/142
f 143/143/143 142/142/142 141/141/141
f 136/136/136 137/137/137 144/144/144
f 142/142/142 144/144/144 137/137/137
f 144/144/144 138/138/138 136/136/136
f 142/142/142 143/143/143 145/145/145
f 144/144/144 142/142/142 145/145/145
f 145/145/145 138/138/138 144/144/144
f 146/146/146 145/145/145 143/143/143
f 145/145/145 147/147/147 138/138/138
f 124/124/124 138/138/138 147/147/147
f 147/147/147 126/126/126 124/124/124
f 146/146/146 148/148/148 145/145/145
f 147/147/147 145/145/145 148/148/148
f 147/147/147 148/148/148 126/126/126
f 149/149/149 148/148/148 146/146/146
f 150/150/150 126/126/126 148/148/148
f 149/149/149 150/150/150 148/148/148
