g face
v 0.32910004 -1.1611003 8.230941
v 1.2355792E-07 -1.2040638 8.070673
v 4.1312783E-06 -2.6874871 8.919873
v 0.33480003 -1.2126002 8.487802
v 0.66710013 -1.0073003 8.262892
v 4.0852888E-06 -2.7243125 9.024973
v -2.842171E-14 -1.2627002 8.822962
v 0.34119996 -1.1938002 8.822151
v 0.31259996 -1.0830843 7.900731
v 1.2355792E-07 -1.2040638 8.070673
v 0.28479996 -1.0821992 7.6666417
v -9.48039E-08 -1.130424 7.678705
v 0.09029976 -1.1365016 7.6028323
v 0.6706 -1.0625002 8.764551
v 0.7714001 -0.90710026 8.953821
v 0.6803001 -1.0491003 8.492482
v 0.82380015 -0.8964002 8.544591
v 0.5945 -0.95486736 7.6747417
v 0.6127001 -0.9653602 7.9311514
v 0.8099001 -0.87844425 8.268381
v 0.75770026 -0.8390272 7.941141
v 0.7237001 -0.8601283 7.679872
v 0.9827002 -0.67650014 8.651602
v 0.8799002 -0.6344001 7.9647217
v 0.97000015 -0.62870026 8.289171
v 1.086 -0.35530013 8.3048315
v 1.083 -0.43150014 8.7194605
v 0.91900015 -0.5746 9.182781
v 0.94470024 -0.44620013 8.009271
v 0.48090008 -0.74220014 9.351352
v 0.8329001 -0.6387001 7.6704216
v 0.8610001 -0.47210008 7.6458516
v 0.4075001 -1.0533003 9.101781
v 4.689582E-13 -0.8288002 9.424702
v 1.8474111E-13 -1.1294003 9.157942
v -2.842171E-14 -1.2627002 8.822962
v 0.75970006 -0.8577441 7.581952
v 0.81360024 -0.6930002 7.492942
v 0.8341001 -0.4897001 7.4899716
v 0.7372999 -0.6824 7.412548
v 0.74479973 -0.36622608 7.4334006
v 0.6232 -1.0154003 7.5833015
v 0.76740015 -0.8614213 7.472062
v 0.2971998 -1.0778016 7.5772724
v 0.6463 -1.0084664 7.4690924
v 0.29699966 -1.103858 7.485563
v -3.5580126E-07 -1.1627375 7.486253
v 0.61509997 -1.0043663 7.409249
v 0.6514999 -0.68220013 7.370848
v 0.6222998 -0.33424866 7.379789
v 0.7144999 -0.8528212 7.4126687
v 0.66029996 -0.875666 7.3739686
v 0.44840008 -0.7130002 7.325488
v 0.38079968 -0.2994436 7.3432484
v 0.2777997 -1.0928539 7.410689
v 0.56420004 -1.0301005 7.375048
v 0.49820003 -0.94360024 7.326928
v 0.21560003 -0.7484001 7.288168
v 0.11899966 -0.3145436 7.2886486
v -4.847537E-07 -0.33306658 7.2717886
v 1.5387691E-13 -0.7937002 7.263688
v 0.26739997 -1.0181003 7.280428
v 3.5127456E-13 -1.0615003 7.250908
v 0.26899996 -1.1204683 7.344508
v -2.3841858E-07 -1.1007018 7.335929
v -3.2755648E-07 -1.1306069 7.4011292
v -0.09030025 -1.1365018 7.6028323
v -3.5580865E-07 -1.16942 7.553418
v -4.3726084E-07 -1.1471503 7.601631
v -2.3655593E-07 -1.1256016 7.6529627
v -0.28480002 -1.0821992 7.6666417
v 1.2355792E-07 -1.2040638 8.070673
v -0.31260002 -1.0830842 7.900731
v -0.32909998 -1.1611003 8.230941
v -0.6670999 -1.0073003 8.262892
v -0.33479998 -1.2126002 8.487802
v 4.1312783E-06 -2.6874871 8.919873
v 1.2355792E-07 -1.2040638 8.070673
v 4.0852888E-06 -2.7243125 9.024973
v -2.842171E-14 -1.2627002 8.822962
v -0.34120002 -1.1938002 8.822151
v -0.2972002 -1.0778017 7.5772724
v -0.29700032 -1.1038581 7.485563
v -0.2778003 -1.0928535 7.410689
v -3.2755648E-07 -1.1306069 7.4011292
v -2.3841858E-07 -1.1007018 7.335929
v -0.26900017 -1.0771286 7.3445086
v 3.5127456E-13 -1.0615003 7.250908
v -0.26740003 -1.0181005 7.280428
v 1.5387691E-13 -0.7937002 7.263688
v -0.5641999 -1.0301002 7.375048
v -0.6151001 -1.004366 7.409249
v -0.64630014 -0.9651061 7.469093
v -0.6232002 -0.9522177 7.583302
v -0.21560003 -0.7484001 7.288168
v -4.847537E-07 -0.33306658 7.2717886
v -0.11900039 -0.3145436 7.2886486
v -0.38080052 -0.2994436 7.3432484
v -0.4982001 -0.94360024 7.326928
v -0.44840002 -0.71300006 7.325488
v -0.62230027 -0.33424866 7.379789
v -0.6603001 -0.875666 7.3739686
v -0.65150005 -0.68220013 7.370848
v -0.7448002 -0.36622602 7.4334006
v -0.73730004 -0.6824002 7.412548
v -0.8341001 -0.4897001 7.4899716
v -0.7145001 -0.8528212 7.4126687
v -0.76740026 -0.8614212 7.472062
v -0.8136 -0.6930002 7.492942
v -0.8610001 -0.47210008 7.6458516
v -0.7597003 -0.8577442 7.581952
v -0.8329001 -0.6387001 7.6704216
v -0.9447 -0.44620013 8.009271
v -0.5945 -0.95486724 7.6747417
v -0.8799 -0.6344001 7.9647217
v -1.086 -0.35530013 8.3048315
v -0.72369987 -0.8601282 7.679872
v -0.61269987 -0.96536034 7.9311514
v -0.7577 -0.8390273 7.941141
v -0.8099001 -0.87844425 8.268381
v -0.97000015 -0.6287 8.289171
v -0.9827 -0.67650014 8.651602
v -1.083 -0.43150014 8.7194605
v -0.7714001 -0.90710026 8.953821
v -0.91900015 -0.5746 9.182781
v -0.48090002 -0.74220014 9.351352
v -0.82380015 -0.8964001 8.544591
v -0.6802999 -1.0491003 8.492482
v -0.6706 -1.0625002 8.764551
v -0.40750003 -1.0533003 9.101781
v 4.689582E-13 -0.8288002 9.424702
v 1.8474111E-13 -1.1294003 9.157942
vt 0.636454 0.502039
vt 0.5039381 0.385212
vt 0.50395495 0.492778
vt 0.62841 0.588647
vt 0.744611 0.516504
vt 0.50426644 0.587323
vt 0.5040028 0.695337
vt 0.63611 0.697569
vt 0.653107 0.389621
vt 0.5039381 0.385212
vt 0.636792 0.312566
vt 0.5042487 0.308036
vt 0.568748 0.27586
vt 0.73589 0.683388
vt 0.79222 0.742999
vt 0.739171 0.59394
vt 0.802454 0.610623
vt 0.737684 0.319456
vt 0.748941 0.403734
vt 0.805501 0.518048
vt 0.808679 0.406967
vt 0.787926 0.321487
vt 0.884282 0.643149
vt 0.877082 0.412587
vt 0.890693 0.522695
vt 0.977846 0.52484
vt 0.962062 0.663879
vt 0.89829 0.815376
vt 0.938316 0.421197
vt 0.76726 0.876738
vt 0.859829 0.315728
vt 0.909244 0.300596
vt 0.683857 0.785104
vt 0.632822 0.896231
vt 0.564322 0.804434
vt 0.5040028 0.695337
vt 0.782351 0.289184
vt 0.84792 0.258059
vt 0.904512 0.247204
vt 0.839182 0.213272
vt 0.901841 0.199406
vt 0.730661 0.292024
vt 0.784594 0.257736
vt 0.627396 0.280558
vt 0.732893 0.257704
vt 0.622546 0.249578
vt 0.5044107 0.228802
vt 0.729222 0.223008
vt 0.822851 0.188265
vt 0.884751 0.166237
vt 0.777559 0.222574
vt 0.766774 0.201262
vt 0.773261 0.157916
vt 0.841065 0.120246
vt 0.623289 0.210618
vt 0.722528 0.201765
vt 0.72589 0.172049
vt 0.7152 0.127577
vt 0.780994 0.079426
vt 0.745247 0.064673
vt 0.670785 0.07979
vt 0.66021 0.141774
vt 0.602028 0.096764
vt 0.636461 0.175584
vt 0.571952 0.139167
vt 0.553517 0.180552
vt 0.439144 0.27586
vt 0.5038852 0.24749911
vt 0.503946 0.266447
vt 0.5038992 0.2866308
vt 0.3711 0.312566
vt 0.5039381 0.385212
vt 0.354785 0.389621
vt 0.371438 0.502039
vt 0.26328 0.516504
vt 0.379482 0.588647
vt 0.50395495 0.492778
vt 0.5039381 0.385212
vt 0.50426644 0.587323
vt 0.5040028 0.695337
vt 0.371782 0.697569
vt 0.380496 0.280558
vt 0.385346 0.249578
vt 0.384603 0.210618
vt 0.454948 0.180404
vt 0.435939 0.139167
vt 0.37143 0.175584
vt 0.405864 0.096764
vt 0.347682 0.141774
vt 0.337106 0.07979
vt 0.285364 0.201765
vt 0.27867 0.223008
vt 0.274999 0.257704
vt 0.277231 0.292024
vt 0.292691 0.127577
vt 0.262645 0.064673
vt 0.226898 0.079426
vt 0.166827 0.120246
vt 0.282002 0.172049
vt 0.234631 0.157916
vt 0.123141 0.166237
vt 0.241118 0.201262
vt 0.185041 0.188265
vt 0.106051 0.199406
vt 0.16871 0.213272
vt 0.10338 0.247204
vt 0.230333 0.222574
vt 0.223298 0.257736
vt 0.159972 0.258059
vt 0.098647 0.300596
vt 0.225541 0.289184
vt 0.148063 0.315728
vt 0.069575 0.421197
vt 0.270208 0.319456
vt 0.13081 0.412587
vt 0.030046 0.52484
vt 0.219966 0.321487
vt 0.258951 0.403734
vt 0.199213 0.406967
vt 0.202391 0.518048
vt 0.117199 0.522695
vt 0.123609 0.643149
vt 0.04583 0.663879
vt 0.215672 0.742999
vt 0.109602 0.815376
vt 0.240632 0.876738
vt 0.205438 0.610623
vt 0.268721 0.59394
vt 0.272002 0.683388
vt 0.324035 0.785104
vt 0.37507 0.896231
vt 0.44357 0.804434
vn 0.5223077 -0.7772161 -0.3508986
vn -0 -0.86371124 -0.5039871
vn -0 -0.8757652 -0.48273748
vn 0.72658247 -0.68355006 0.06955104
vn 0.55872923 -0.8103727 -0.17640242
vn -0 -0.83570015 0.549186
vn -0 -0.72790736 0.6856755
vn 0.30070704 -0.9280339 0.2198373
vn 0.34884766 -0.9295966 -0.11897714
vn -0 -0.86371124 -0.5039871
vn 0.27334422 -0.9619138 -0.002180525
vn -0 -0.9963031 -0.085907735
vn 0.18603326 -0.96457434 0.1870509
vn 0.56387234 -0.8064676 0.1779271
vn 0.66461605 -0.65835357 0.35334975
vn 0.595136 -0.79701024 -0.102896854
vn 0.778476 -0.62716556 -0.025268437
vn 0.5043979 -0.8259937 0.25162873
vn 0.5142594 -0.8487131 -0.12338335
vn 0.7603397 -0.63295877 -0.14576305
vn 0.7722605 -0.62283427 -0.12526451
vn 0.74531645 -0.66154146 0.082863465
vn 0.87502563 -0.47883052 0.071073756
vn 0.8990433 -0.3960003 -0.18682839
vn 0.8799975 -0.44640842 -0.16224618
vn 0.92009187 -0.3555018 -0.16446748
vn 0.90646213 -0.41589835 0.07317823
vn 0.7199494 -0.5809998 0.37962097
vn 0.92562234 -0.2375292 -0.2946239
vn 0.3787515 -0.6366274 0.6717537
vn 0.95207435 -0.29502183 -0.080725335
vn 0.9737632 -0.16385546 -0.15791279
vn 0.35553193 -0.7652787 0.5366056
vn -0 -0.6613083 0.7501142
vn -0 -0.81315696 0.58204436
vn -0 -0.72790736 0.6856755
vn 0.83931166 -0.51247627 0.18144977
vn 0.91155356 -0.18409842 -0.3676654
vn 0.821126 -0.03650946 -0.569578
vn 0.5855621 -0.02874566 -0.8101177
vn 0.46607643 0.051789667 -0.88322735
vn 0.48023516 -0.82802033 0.28940704
vn 0.865976 -0.39393514 -0.3080596
vn 0.25199366 -0.9608257 0.11538239
vn 0.5646974 -0.8141653 -0.13509904
vn 0.2499198 -0.9680444 0.02074241
vn -0 -0.9865211 -0.16363403
vn 0.5475979 -0.722206 -0.42255774
vn 0.3275179 0.024682008 -0.94452256
vn 0.27539536 0.060141265 -0.959448
vn 0.66564685 -0.2286834 -0.7103648
vn 0.48679492 -0.1871623 -0.8532297
vn 0.18236975 0.041837662 -0.98233956
vn 0.1736105 0.059275515 -0.9830289
vn 0.17113122 -0.98398614 0.049852617
vn 0.43628138 -0.7983652 -0.4150563
vn 0.26475677 -0.11603648 -0.95730835
vn 0.1378048 0.043333065 -0.98951095
vn 0.16612177 0.038079515 -0.9853697
vn -0 0.027640652 -0.99961793
vn -0 0.034874313 -0.9993917
vn 0.18695019 -0.23948629 -0.95273083
vn -0.032093246 -0.4978107 -0.86669165
vn 0.15399097 -0.9524253 -0.26300734
vn -0.0437215 -0.92237777 -0.38380668
vn -0 -0.92298377 -0.384839
vn -0.18603285 -0.96457416 0.18705212
vn -0 -0.9964412 0.08428992
vn -0 -0.9148148 0.40387374
vn -0 -0.9998971 0.014347813
vn -0.3061014 -0.9516925 -0.024150535
vn -0 -0.86371124 -0.5039871
vn -0.34884772 -0.9295965 -0.11897698
vn -0.52230704 -0.7772168 -0.35089797
vn -0.558729 -0.81037277 -0.17640235
vn -0.7265805 -0.68355215 0.069550134
vn -0 -0.8757652 -0.48273748
vn -0 -0.86371124 -0.5039871
vn -0 -0.83570015 0.549186
vn -0 -0.72790736 0.6856755
vn -0.3007071 -0.9280339 0.21983731
vn -0.3287095 -0.9353248 0.13083404
vn -0.27927053 -0.9595684 0.03516523
vn -0.17848195 -0.95783997 -0.22513741
vn -0 -0.92298377 -0.384839
vn -0.0437215 -0.92237777 -0.38380668
vn -0.15858655 -0.87406653 -0.4591927
vn -0.032093246 -0.4978107 -0.86669165
vn -0.1857087 -0.3534549 -0.91683257
vn -0 0.034874313 -0.9993917
vn -0.42425227 -0.8034396 -0.41772562
vn -0.60142595 -0.7812287 -0.16723815
vn -0.526676 -0.8256097 0.20243804
vn -0.4696366 -0.86897874 0.15594083
vn -0.13780485 0.04333292 -0.98951095
vn -0 0.027640652 -0.99961793
vn -0.16612196 0.038079273 -0.9853697
vn -0.17361054 0.059275214 -0.9830289
vn -0.26475692 -0.11603684 -0.9573083
vn -0.18236974 0.041837566 -0.98233956
vn -0.2753955 0.060140908 -0.959448
vn -0.48679438 -0.1871626 -0.85322994
vn -0.32751778 0.024681821 -0.94452256
vn -0.4660768 0.05178912 -0.8832272
vn -0.58556306 -0.028745914 -0.81011707
vn -0.82112646 -0.0365104 -0.56957734
vn -0.6656469 -0.22868374 -0.71036464
vn -0.8469836 -0.44784734 -0.2864461
vn -0.91155386 -0.18409784 -0.36766508
vn -0.9737632 -0.16385578 -0.15791276
vn -0.80300957 -0.5752376 0.15581192
vn -0.95207435 -0.29502186 -0.08072526
vn -0.9256222 -0.23752911 -0.2946241
vn -0.47337216 -0.88036627 0.029562898
vn -0.8990433 -0.39600036 -0.18682833
vn -0.9200916 -0.35550213 -0.1644676
vn -0.7453162 -0.6615414 0.082865715
vn -0.51425934 -0.8487131 -0.123383395
vn -0.7722605 -0.62283415 -0.12526475
vn -0.76033956 -0.63295895 -0.14576311
vn -0.8799975 -0.44640842 -0.16224621
vn -0.87502563 -0.47883072 0.07107344
vn -0.9064619 -0.41589877 0.07317788
vn -0.66461617 -0.65835357 0.3533497
vn -0.71994936 -0.5809998 0.37962097
vn -0.3787515 -0.6366274 0.6717537
vn -0.7784761 -0.62716544 -0.025268506
vn -0.5951359 -0.79701024 -0.102897115
vn -0.5638725 -0.8064676 0.1779269
vn -0.3555319 -0.7652787 0.53660566
vn -0 -0.6613083 0.7501142
vn -0 -0.81315696 0.58204436
g face_0
f 3/3/3 2/2/2 1/1/1
f 1/1/1 4/4/4 3/3/3
f 1/1/1 5/5/5 4/4/4
f 6/6/6 3/3/3 4/4/4
f 6/6/6 4/4/4 7/7/7
f 8/8/8 7/7/7 4/4/4
f 1/1/1 9/9/9 5/5/5
f 9/9/9 1/1/1 10/10/10
f 9/9/9 10/10/10 11/11/11
f 12/12/12 11/11/11 10/10/10
f 11/11/11 12/12/12 13/13/13
f 8/8/8 4/4/4 14/14/14
f 14/14/14 15/15/15 8/8/8
f 16/16/16 14/14/14 4/4/4
f 16/16/16 4/4/4 5/5/5
f 16/16/16 17/17/17 14/14/14
f 14/14/14 17/17/17 15/15/15
f 16/16/16 5/5/5 17/17/17
f 11/11/11 18/18/18 9/9/9
f 19/19/19 5/5/5 9/9/9
f 19/19/19 9/9/9 18/18/18
f 20/20/20 17/17/17 5/5/5
f 19/19/19 21/21/21 5/5/5
f 20/20/20 5/5/5 21/21/21
f 21/21/21 19/19/19 22/22/22
f 18/18/18 22/22/22 19/19/19
f 23/23/23 15/15/15 17/17/17
f 17/17/17 20/20/20 23/23/23
f 21/21/21 24/24/24 20/20/20
f 21/21/21 22/22/22 24/24/24
f 25/25/25 23/23/23 20/20/20
f 25/25/25 20/20/20 24/24/24
f 25/25/25 26/26/26 23/23/23
f 25/25/25 24/24/24 26/26/26
f 27/27/27 23/23/23 26/26/26
f 23/23/23 27/27/27 15/15/15
f 28/28/28 15/15/15 27/27/27
f 29/29/29 26/26/26 24/24/24
f 28/28/28 30/30/30 15/15/15
f 24/24/24 31/31/31 29/29/29
f 31/31/31 24/24/24 22/22/22
f 32/32/32 29/29/29 31/31/31
f 33/33/33 15/15/15 30/30/30
f 30/30/30 34/34/34 33/33/33
f 33/33/33 8/8/8 15/15/15
f 35/35/35 33/33/33 34/34/34
f 33/33/33 35/35/35 8/8/8
f 36/36/36 8/8/8 35/35/35
f 37/37/37 31/31/31 22/22/22
f 22/22/22 18/18/18 37/37/37
f 31/31/31 38/38/38 32/32/32
f 38/38/38 31/31/31 37/37/37
f 39/39/39 32/32/32 38/38/38
f 38/38/38 40/40/40 39/39/39
f 41/41/41 39/39/39 40/40/40
f 42/42/42 37/37/37 18/18/18
f 18/18/18 11/11/11 42/42/42
f 43/43/43 38/38/38 37/37/37
f 38/38/38 43/43/43 40/40/40
f 44/44/44 42/42/42 11/11/11
f 11/11/11 13/13/13 44/44/44
f 42/42/42 45/45/45 37/37/37
f 42/42/42 44/44/44 45/45/45
f 43/43/43 37/37/37 45/45/45
f 46/46/46 45/45/45 44/44/44
f 13/13/13 46/46/46 44/44/44
f 46/46/46 13/13/13 47/47/47
f 45/45/45 48/48/48 43/43/43
f 45/45/45 46/46/46 48/48/48
f 40/40/40 49/49/49 41/41/41
f 50/50/50 41/41/41 49/49/49
f 51/51/51 40/40/40 43/43/43
f 51/51/51 43/43/43 48/48/48
f 51/51/51 52/52/52 40/40/40
f 49/49/49 40/40/40 52/52/52
f 51/51/51 48/48/48 52/52/52
f 49/49/49 53/53/53 50/50/50
f 49/49/49 52/52/52 53/53/53
f 54/54/54 50/50/50 53/53/53
f 55/55/55 48/48/48 46/46/46
f 46/46/46 47/47/47 55/55/55
f 56/56/56 52/52/52 48/48/48
f 48/48/48 55/55/55 56/56/56
f 57/57/57 53/53/53 52/52/52
f 57/57/57 52/52/52 56/56/56
f 53/53/53 58/58/58 54/54/54
f 53/53/53 57/57/57 58/58/58
f 59/59/59 54/54/54 58/58/58
f 59/59/59 58/58/58 60/60/60
f 61/61/61 60/60/60 58/58/58
f 62/62/62 58/58/58 57/57/57
f 58/58/58 62/62/62 61/61/61
f 57/57/57 56/56/56 62/62/62
f 63/63/63 61/61/61 62/62/62
f 64/64/64 62/62/62 56/56/56
f 62/62/62 64/64/64 63/63/63
f 64/64/64 56/56/56 55/55/55
f 65/65/65 63/63/63 64/64/64
f 64/64/64 55/55/55 65/65/65
f 66/66/66 65/65/65 55/55/55
f 66/66/66 55/55/55 47/47/47
f 68/68/68 67/67/67 47/47/47
f 68/68/68 47/47/47 13/13/13
f 69/69/69 68/68/68 13/13/13
f 68/68/68 69/69/69 67/67/67
f 13/13/13 70/70/70 69/69/69
f 70/70/70 67/67/67 69/69/69
f 70/70/70 13/13/13 12/12/12
f 70/70/70 12/12/12 67/67/67
f 71/71/71 67/67/67 12/12/12
f 12/12/12 72/72/72 71/71/71
f 73/73/73 71/71/71 72/72/72
f 73/73/73 72/72/72 74/74/74
f 74/74/74 75/75/75 73/73/73
f 74/74/74 76/76/76 75/75/75
f 74/74/74 77/77/77 76/76/76
f 77/77/77 74/74/74 78/78/78
f 79/79/79 76/76/76 77/77/77
f 79/79/79 80/80/80 76/76/76
f 81/81/81 76/76/76 80/80/80
f 67/67/67 71/71/71 82/82/82
f 83/83/83 67/67/67 82/82/82
f 83/83/83 47/47/47 67/67/67
f 83/83/83 84/84/84 47/47/47
f 85/85/85 47/47/47 84/84/84
f 85/85/85 84/84/84 86/86/86
f 87/87/87 86/86/86 84/84/84
f 86/86/86 87/87/87 88/88/88
f 89/89/89 88/88/88 87/87/87
f 88/88/88 89/89/89 90/90/90
f 87/87/87 84/84/84 91/91/91
f 87/87/87 91/91/91 89/89/89
f 84/84/84 83/83/83 92/92/92
f 92/92/92 91/91/91 84/84/84
f 83/83/83 82/82/82 93/93/93
f 93/93/93 92/92/92 83/83/83
f 82/82/82 71/71/71 94/94/94
f 94/94/94 93/93/93 82/82/82
f 95/95/95 90/90/90 89/89/89
f 90/90/90 95/95/95 96/96/96
f 97/97/97 96/96/96 95/95/95
f 97/97/97 95/95/95 98/98/98
f 99/99/99 89/89/89 91/91/91
f 89/89/89 99/99/99 95/95/95
f 100/100/100 98/98/98 95/95/95
f 100/100/100 95/95/95 99/99/99
f 98/98/98 100/100/100 101/101/101
f 102/102/102 99/99/99 91/91/91
f 99/99/99 102/102/102 100/100/100
f 91/91/91 92/92/92 102/102/102
f 103/103/103 101/101/101 100/100/100
f 103/103/103 100/100/100 102/102/102
f 101/101/101 103/103/103 104/104/104
f 105/105/105 104/104/104 103/103/103
f 103/103/103 102/102/102 105/105/105
f 104/104/104 105/105/105 106/106/106
f 107/107/107 102/102/102 92/92/92
f 107/107/107 105/105/105 102/102/102
f 107/107/107 92/92/92 108/108/108
f 107/107/107 108/108/108 105/105/105
f 93/93/93 108/108/108 92/92/92
f 109/109/109 106/106/106 105/105/105
f 109/109/109 105/105/105 108/108/108
f 106/106/106 109/109/109 110/110/110
f 108/108/108 93/93/93 111/111/111
f 109/109/109 108/108/108 111/111/111
f 94/94/94 111/111/111 93/93/93
f 112/112/112 110/110/110 109/109/109
f 112/112/112 109/109/109 111/111/111
f 110/110/110 112/112/112 113/113/113
f 94/94/94 114/114/114 111/111/111
f 114/114/114 94/94/94 71/71/71
f 71/71/71 73/73/73 114/114/114
f 115/115/115 113/113/113 112/112/112
f 113/113/113 115/115/115 116/116/116
f 112/112/112 111/111/111 117/117/117
f 117/117/117 111/111/111 114/114/114
f 112/112/112 117/117/117 115/115/115
f 118/118/118 114/114/114 73/73/73
f 114/114/114 118/118/118 117/117/117
f 118/118/118 73/73/73 75/75/75
f 119/119/119 117/117/117 118/118/118
f 119/119/119 115/115/115 117/117/117
f 118/118/118 75/75/75 119/119/119
f 119/119/119 120/120/120 115/115/115
f 120/120/120 119/119/119 75/75/75
f 121/121/121 116/116/116 115/115/115
f 121/121/121 115/115/115 120/120/120
f 121/121/121 122/122/122 116/116/116
f 121/121/121 120/120/120 122/122/122
f 123/123/123 116/116/116 122/122/122
f 122/122/122 124/124/124 123/123/123
f 125/125/125 123/123/123 124/124/124
f 125/125/125 124/124/124 126/126/126
f 127/127/127 122/122/122 120/120/120
f 120/120/120 75/75/75 127/127/127
f 122/122/122 127/127/127 124/124/124
f 128/128/128 127/127/127 75/75/75
f 128/128/128 75/75/75 76/76/76
f 127/127/127 128/128/128 129/129/129
f 128/128/128 76/76/76 129/129/129
f 129/129/129 124/124/124 127/127/127
f 81/81/81 129/129/129 76/76/76
f 129/129/129 81/81/81 124/124/124
f 130/130/130 126/126/126 124/124/124
f 130/130/130 124/124/124 81/81/81
f 126/126/126 130/130/130 131/131/131
f 132/132/132 131/131/131 130/130/130
f 130/130/130 81/81/81 132/132/132
f 36/36/36 132/132/132 81/81/81
