g Face
v -0.14380185 0.8315419 0.06425672
v -0.14746785 0.79587406 0.021967433
v -0.15085001 0.8416461 0.012693635
v -0.15471992 0.87655175 0.0025199547
v -0.14675628 0.8872052 0.052768573
v -0.123821475 0.8535888 0.10341279
v -0.121156245 0.90083605 0.09593494
v -0.07560352 0.8623671 0.13799143
v -0.070393935 0.91123545 0.1254909
v -0.029857406 0.90942913 0.13707475
v -0.10188608 0.8262233 0.123416975
v -0.03540599 0.8625387 0.14860071
v -4.8999997E-08 0.9120848 0.14098346
v -0.14117111 0.7914763 0.060013518
v -0.12632133 0.8076115 0.09823538
v -0.140797 0.7632232 0.059189335
v -0.14329827 0.77193993 0.024806572
v -0.12437448 0.7799236 0.088264
v -0.13358437 0.7250956 0.06147568
v -0.13305749 0.7268542 0.030589048
v -0.12368929 0.7024548 0.07485499
v -0.11271573 0.68822145 0.047738682
v -0.09091959 0.67019075 0.07274384
v -0.12554786 0.7317105 0.09744482
v -0.10383422 0.68987745 0.09572844
v -0.065576635 0.6633076 0.097591706
v -0.11896949 0.75441223 0.09366969
v -0.10643096 0.7828263 0.1092437
v -0.075037435 0.6811864 0.11808566
v -0.10276173 0.71313536 0.12053002
v -0.114741415 0.7382388 0.107777305
v -0.098168775 0.73734546 0.1110128
v -0.10288847 0.72824377 0.11942438
v -0.031165777 0.665888 0.12271916
v -0.022137772 0.654759 0.10462706
v -0.07636021 0.705547 0.13533609
v -0.036854155 0.6838247 0.13541168
v -0.112237625 0.79651755 0.108908765
v -0.08314715 0.789106 0.12686525
v -0.09153352 0.8083511 0.12864754
v -0.075710826 0.7321774 0.122447625
v -0.076410525 0.72474617 0.12990157
v -0.05777452 0.79171115 0.13719027
v -0.06275989 0.8127976 0.1439005
v -0.05033693 0.73479307 0.13166824
v -0.04585336 0.70816135 0.14754353
v -0.050429467 0.72691864 0.13273005
v -0.024824314 0.79195195 0.14784202
v -0.07290362 0.8356634 0.1427873
v -0.022648063 0.7178079 0.15380418
v -0.02132137 0.7483505 0.13887487
v -0.023905234 0.8135486 0.15416579
v -4.8999997E-08 0.81256557 0.15521047
v -0.03555914 0.8387323 0.15300713
v -4.8999997E-08 0.8404896 0.15531856
v -0.020111216 0.6941028 0.14407901
v -0.025344504 0.73793036 0.14037518
v -4.8999997E-08 0.749229 0.14457731
v -4.8999997E-08 0.7900096 0.15000866
v -4.8999997E-08 0.8648791 0.15247872
v 0.035406087 0.8625387 0.14860071
v 0.029857509 0.90942913 0.13707475
v 0.07560363 0.8623671 0.13799143
v 0.07039403 0.91123545 0.1254909
v 0.12115634 0.90083605 0.09593494
v 0.035559237 0.8387323 0.15300713
v -5.0999997E-08 0.7624391 0.14264293
v 0.021321567 0.7483505 0.13887487
v 0.024824414 0.79195195 0.14784202
v 0.023905333 0.8135486 0.15416579
v 0.07290377 0.83566356 0.14278726
v 0.12382159 0.8535888 0.10341279
v 0.1467564 0.8872052 0.052768573
v 0.14380196 0.8315419 0.06425672
v 0.15472001 0.87655175 0.0025199547
v 0.1508501 0.8416461 0.012693635
v 0.14746797 0.79587406 0.021967433
v 0.10188617 0.8262233 0.12341699
v 0.06275999 0.8127976 0.1439005
v 0.1411712 0.7914763 0.060013518
v 0.12632143 0.8076115 0.09823538
v 0.0915336 0.8083511 0.12864752
v 0.057774637 0.7917112 0.13719027
v 0.14079711 0.7632232 0.059189335
v 0.14329836 0.77193993 0.024806572
v 0.124374576 0.7799236 0.088264
v 0.05033703 0.73479307 0.13166824
v 0.13358447 0.7250956 0.06147568
v 0.13305758 0.7268542 0.030589048
v 0.12368938 0.7024548 0.07485499
v 0.11271582 0.68822145 0.047738682
v 0.09091969 0.67019075 0.07274384
v 0.12554795 0.7317105 0.09744482
v 0.1038343 0.68987745 0.09572844
v 0.06557673 0.6633076 0.097591706
v 0.118969575 0.75441223 0.09366969
v 0.10643104 0.78282624 0.10924368
v 0.11223774 0.79651755 0.108908765
v 0.08314723 0.789106 0.12686525
v 0.098168865 0.73734546 0.11101281
v 0.07571093 0.7321774 0.122447625
v 0.114741534 0.7382388 0.107777305
v 0.10276185 0.71313345 0.12053002
v 0.10288854 0.7282442 0.11942442
v 0.07641091 0.7247458 0.12990195
v 0.07503753 0.6811864 0.11808566
v 0.07636031 0.705547 0.13533609
v 0.05042936 0.72691864 0.13273005
v 0.031165877 0.665888 0.12271916
v 0.022137873 0.654759 0.10462706
v 0.04585346 0.70816135 0.14754353
v 0.036854256 0.6838247 0.13541168
v 0.025344603 0.73793036 0.14037518
v 0.022648161 0.7178079 0.15380418
v 0.020111317 0.6941028 0.14407901
v -4.8999997E-08 0.73042 0.15951437
v 0.015844408 0.66476476 0.1256599
v -4.8999997E-08 0.7002229 0.1489781
v -4.8999997E-08 0.66508734 0.12680568
v -4.8999997E-08 0.6538872 0.106724724
v -0.015844308 0.66476476 0.1256599
vt 0.16107163 0.57878494
vt 0.10304171 0.471716
vt 0.060145646 0.5718355
vt 0.030341148 0.6523259
vt 0.13497368 0.6982762
vt 0.24075553 0.6399721
vt 0.2375468 0.73216426
vt 0.3534008 0.66998196
vt 0.3567296 0.7611792
vt 0.44075444 0.7632724
vt 0.29835644 0.5972301
vt 0.43243262 0.6758159
vt 0.50001955 0.7664298
vt 0.17321983 0.49223763
vt 0.2382161 0.5478137
vt 0.18823335 0.4347053
vt 0.12533048 0.4203093
vt 0.23715204 0.490659
vt 0.22349396 0.3635149
vt 0.17979148 0.3320462
vt 0.26805457 0.33760554
vt 0.26294133 0.27942118
vt 0.3298079 0.27408502
vt 0.27236143 0.4052271
vt 0.31954703 0.33326447
vt 0.38794062 0.28625032
vt 0.26246098 0.44925547
vt 0.2861912 0.51160955
vt 0.37908706 0.33683342
vt 0.3308374 0.39100254
vt 0.29212788 0.4244616
vt 0.31750533 0.43853158
vt 0.32273862 0.41625997
vt 0.45067212 0.31241697
vt 0.46264866 0.2726608
vt 0.3792242 0.38926977
vt 0.44229868 0.35179555
vt 0.27373406 0.53513366
vt 0.33840427 0.53532237
vt 0.32260135 0.56857556
vt 0.36235747 0.43966395
vt 0.36911783 0.42276293
vt 0.38886723 0.54659545
vt 0.3820211 0.58468735
vt 0.40865102 0.45076555
vt 0.42860618 0.40018243
vt 0.41016075 0.4374334
vt 0.45328024 0.55261815
vt 0.36247757 0.622882
vt 0.4642788 0.41855913
vt 0.46055534 0.47710383
vt 0.45595673 0.59108746
vt 0.50001955 0.5900407
vt 0.4339082 0.6335888
vt 0.50001955 0.6380329
vt 0.46837965 0.37362114
vt 0.4546527 0.45833236
vt 0.50001967 0.47929996
vt 0.50001955 0.55059326
vt 0.50001967 0.68036276
vt 0.567624 0.67583287
vt 0.55928504 0.7633068
vt 0.6466557 0.6700335
vt 0.64330983 0.7612306
vt 0.76252687 0.7323017
vt 0.5661485 0.63360596
vt 0.50001955 0.5020695
vt 0.5395013 0.4771039
vt 0.54677653 0.55261815
vt 0.5440826 0.5910876
vt 0.63759637 0.6229334
vt 0.7593525 0.6401092
vt 0.86511725 0.6985164
vt 0.8391052 0.57900774
vt 0.9698012 0.65270346
vt 0.9400827 0.5722132
vt 0.89730656 0.47205907
vt 0.7017515 0.5973159
vt 0.6180527 0.58472157
vt 0.8270426 0.4924606
vt 0.7619607 0.5479511
vt 0.6775068 0.568627
vt 0.61124074 0.54661274
vt 0.81208044 0.434894
vt 0.8750691 0.42061812
vt 0.76307595 0.49077904
vt 0.5914743 0.45078272
vt 0.77688855 0.3636521
vt 0.8207455 0.33226916
vt 0.7322593 0.33765703
vt 0.7374756 0.2795243
vt 0.6704204 0.27406788
vt 0.7279011 0.40529573
vt 0.6806983 0.3332817
vt 0.6122017 0.2862159
vt 0.7377842 0.44935864
vt 0.7139684 0.5116952
vt 0.7264427 0.5352368
vt 0.661721 0.5353739
vt 0.6826887 0.43858296
vt 0.6378021 0.43968117
vt 0.7081002 0.42451313
vt 0.66935647 0.39101982
vt 0.6774725 0.41629422
vt 0.6310419 0.42276293
vt 0.62107265 0.3368162
vt 0.6209352 0.38926977
vt 0.5899643 0.4374506
vt 0.54940164 0.31241697
vt 0.537408 0.27267796
vt 0.5714847 0.40018243
vt 0.55779207 0.35179564
vt 0.545421 0.45833236
vt 0.535778 0.41855913
vt 0.5316944 0.37363827
vt 0.50001955 0.437605
vt 0.5250712 0.31281155
vt 0.50001955 0.3850658
vt 0.50001967 0.3132406
vt 0.50001955 0.27276376
vt 0.47498557 0.31281155
vn -0.94582564 -0.022317989 0.32390693
vn -0.989377 -0.06656277 0.12923822
vn -0.9885998 -0.046493124 0.1432097
vn -0.98849815 -0.03957206 0.14596389
vn -0.94836116 0.025486654 0.31616697
vn -0.7598884 0.10356376 0.64175075
vn -0.71923697 0.1620517 0.6756016
vn -0.45157745 0.20070036 0.869366
vn -0.43146122 0.23736484 0.8703443
vn -0.19723642 0.25372237 0.9469544
vn -0.66081274 0.0006630992 0.7505505
vn -0.1979275 0.22006318 0.9551947
vn -0 0.24511938 0.9694929
vn -0.9581787 -0.09025323 0.27156568
vn -0.8290677 -0.09749334 0.5505831
vn -0.96904325 -0.12352945 0.21376517
vn -0.9885684 -0.14052576 0.054635506
vn -0.83538777 -0.1106486 0.5384088
vn -0.9525862 -0.29261544 0.08340198
vn -0.9530418 -0.30152512 -0.028177058
vn -0.849049 -0.4888771 0.20028728
vn -0.796402 -0.6032738 0.04248141
vn -0.6213546 -0.7378966 0.26349023
vn -0.8799949 -0.14504912 0.45229378
vn -0.6772595 -0.6176185 0.39983368
vn -0.4295224 -0.7616448 0.48518836
vn -0.7645253 0.0853103 0.6389234
vn -0.6152442 -0.14709297 0.7744922
vn -0.45073798 -0.6563519 0.6050102
vn -0.6640725 -0.3465345 0.6625115
vn -0.5825774 0.35844353 0.72946674
vn -0.5127231 0.09087731 0.8537308
vn -0.44907323 0.3257633 0.83199245
vn -0.24636652 -0.7630171 0.5975855
vn -0.16781443 -0.88118285 0.44198984
vn -0.43474048 -0.30326632 0.8479566
vn -0.24734831 -0.5930154 0.7662581
vn -0.64999706 -0.22154398 0.72692645
vn -0.4379087 -0.17271599 0.88227266
vn -0.51923245 -0.19238503 0.8326978
vn -0.40513355 0.021804152 0.9139974
vn -0.30027813 0.40022227 0.86582625
vn -0.29908636 -0.19926892 0.93318766
vn -0.32979465 -0.18192315 0.9263582
vn -0.30292746 -0.07325118 0.9501943
vn -0.32171583 -0.13945168 0.9365107
vn -0.33169678 0.43373662 0.83776474
vn -0.1880691 -0.22246926 0.95662814
vn -0.43188193 0.04414357 0.9008492
vn -0.28962672 0.06107893 0.9551889
vn -0.21796761 -0.11672001 0.9689512
vn -0.16050857 -0.1375446 0.977404
vn -0 -0.10298148 0.9946833
vn -0.1900533 0.058902357 0.98000515
vn -0 0.08354369 0.9965042
vn -0.08771111 -0.46880347 0.8789369
vn -0.39779064 0.42421448 0.8135138
vn -0 0.43022767 0.9027204
vn -0 -0.23594014 0.9717676
vn -0 0.21256022 0.97714794
vn 0.19792698 0.22006336 0.9551947
vn 0.19723599 0.25372258 0.94695455
vn 0.4515774 0.20070049 0.8693659
vn 0.4314611 0.23736481 0.8703443
vn 0.719237 0.16205162 0.6756015
vn 0.19005282 0.058902282 0.98000526
vn -0 -0.17706794 0.9841986
vn 0.21796702 -0.11672008 0.96895146
vn 0.1880688 -0.22246929 0.95662826
vn 0.16050826 -0.13754451 0.977404
vn 0.4318822 0.044143856 0.9008491
vn 0.75988877 0.103563756 0.64175045
vn 0.94836134 0.025486402 0.31616634
vn 0.9458259 -0.022318011 0.3239066
vn 0.98849815 -0.03957238 0.14596364
vn 0.9885998 -0.046493247 0.1432097
vn 0.989377 -0.06656266 0.12923856
vn 0.66081274 0.0006629884 0.7505505
vn 0.32979482 -0.18192293 0.9263581
vn 0.9581787 -0.09025331 0.2715657
vn 0.82906795 -0.09749332 0.55058295
vn 0.5192325 -0.19238509 0.83269775
vn 0.2990866 -0.1992691 0.9331876
vn 0.96904325 -0.123529926 0.21376494
vn 0.9885683 -0.14052622 0.054635305
vn 0.83538806 -0.11064908 0.53840834
vn 0.30292732 -0.07324924 0.95019454
vn 0.9525862 -0.29261556 0.08340201
vn 0.9530417 -0.30152544 -0.0281773
vn 0.84904975 -0.48887753 0.20028281
vn 0.7964019 -0.60327387 0.042481124
vn 0.6213545 -0.7378968 0.26348972
vn 0.87999666 -0.14504533 0.4522917
vn 0.6772598 -0.61762327 0.39982587
vn 0.42952245 -0.7616447 0.48518845
vn 0.7645255 0.08531075 0.6389233
vn 0.6152445 -0.14709292 0.7744919
vn 0.6499963 -0.22154407 0.7269271
vn 0.43790883 -0.1727158 0.88227266
vn 0.51272297 0.0908803 0.85373056
vn 0.40513223 0.021807786 0.9139979
vn 0.58258444 0.35843322 0.7294663
vn 0.664072 -0.346546 0.6625061
vn 0.44908348 0.32575318 0.8319909
vn 0.3002833 0.40021226 0.8658291
vn 0.45073217 -0.65635765 0.6050083
vn 0.4347326 -0.30326498 0.847961
vn 0.33169565 0.43373638 0.83776534
vn 0.24636646 -0.763017 0.5975857
vn 0.16781393 -0.881183 0.4419898
vn 0.32171544 -0.13945316 0.93651056
vn 0.24734841 -0.5930154 0.76625824
vn 0.3977901 0.42421383 0.81351435
vn 0.28962618 0.061078515 0.95518905
vn 0.08771067 -0.4688033 0.87893707
vn -0 0.2463148 0.9691899
vn 0.10794829 -0.72593546 0.67923856
vn -0 -0.43061838 0.9025341
vn -0 -0.6848364 0.7286968
vn -0 -0.88544935 0.46473593
vn -0.107948855 -0.7259358 0.67923796
g Face_0
f 3/3/3 2/2/2 1/1/1
f 4/4/4 3/3/3 1/1/1
f 5/5/5 4/4/4 1/1/1
f 1/1/1 6/6/6 5/5/5
f 6/6/6 7/7/7 5/5/5
f 6/6/6 8/8/8 7/7/7
f 8/8/8 9/9/9 7/7/7
f 9/9/9 8/8/8 10/10/10
f 6/6/6 1/1/1 11/11/11
f 8/8/8 6/6/6 11/11/11
f 8/8/8 12/12/12 10/10/10
f 10/10/10 12/12/12 13/13/13
f 2/2/2 14/14/14 1/1/1
f 1/1/1 15/15/15 11/11/11
f 15/15/15 1/1/1 14/14/14
f 14/14/14 2/2/2 16/16/16
f 2/2/2 17/17/17 16/16/16
f 18/18/18 15/15/15 14/14/14
f 14/14/14 16/16/16 18/18/18
f 16/16/16 17/17/17 19/19/19
f 17/17/17 20/20/20 19/19/19
f 19/19/19 20/20/20 21/21/21
f 20/20/20 22/22/22 21/21/21
f 21/21/21 22/22/22 23/23/23
f 16/16/16 19/19/19 24/24/24
f 19/19/19 21/21/21 24/24/24
f 25/25/25 21/21/21 23/23/23
f 24/24/24 21/21/21 25/25/25
f 25/25/25 23/23/23 26/26/26
f 16/16/16 27/27/27 18/18/18
f 16/16/16 24/24/24 27/27/27
f 18/18/18 28/28/28 15/15/15
f 18/18/18 27/27/27 28/28/28
f 29/29/29 25/25/25 26/26/26
f 30/30/30 24/24/24 25/25/25
f 30/30/30 25/25/25 29/29/29
f 24/24/24 31/31/31 27/27/27
f 24/24/24 30/30/30 31/31/31
f 27/27/27 31/31/31 32/32/32
f 27/27/27 32/32/32 28/28/28
f 30/30/30 33/33/33 31/31/31
f 31/31/31 33/33/33 32/32/32
f 29/29/29 26/26/26 34/34/34
f 34/34/34 26/26/26 35/35/35
f 36/36/36 30/30/30 29/29/29
f 30/30/30 36/36/36 33/33/33
f 37/37/37 29/29/29 34/34/34
f 36/36/36 29/29/29 37/37/37
f 28/28/28 38/38/38 15/15/15
f 39/39/39 28/28/28 32/32/32
f 38/38/38 28/28/28 39/39/39
f 38/38/38 40/40/40 15/15/15
f 40/40/40 38/38/38 39/39/39
f 40/40/40 11/11/11 15/15/15
f 32/32/32 33/33/33 41/41/41
f 41/41/41 39/39/39 32/32/32
f 36/36/36 42/42/42 33/33/33
f 33/33/33 42/42/42 41/41/41
f 39/39/39 43/43/43 40/40/40
f 39/39/39 41/41/41 43/43/43
f 40/40/40 44/44/44 11/11/11
f 43/43/43 44/44/44 40/40/40
f 41/41/41 45/45/45 43/43/43
f 41/41/41 42/42/42 45/45/45
f 42/42/42 36/36/36 46/46/46
f 46/46/46 36/36/36 37/37/37
f 47/47/47 42/42/42 46/46/46
f 42/42/42 47/47/47 45/45/45
f 43/43/43 45/45/45 48/48/48
f 44/44/44 43/43/43 48/48/48
f 44/44/44 49/49/49 11/11/11
f 49/49/49 8/8/8 11/11/11
f 46/46/46 37/37/37 50/50/50
f 47/47/47 46/46/46 50/50/50
f 51/51/51 45/45/45 47/47/47
f 45/45/45 51/51/51 48/48/48
f 44/44/44 52/52/52 49/49/49
f 52/52/52 44/44/44 48/48/48
f 53/53/53 52/52/52 48/48/48
f 49/49/49 54/54/54 8/8/8
f 52/52/52 54/54/54 49/49/49
f 54/54/54 52/52/52 53/53/53
f 54/54/54 12/12/12 8/8/8
f 12/12/12 54/54/54 55/55/55
f 55/55/55 54/54/54 53/53/53
f 37/37/37 56/56/56 50/50/50
f 56/56/56 37/37/37 34/34/34
f 57/57/57 47/47/47 50/50/50
f 58/58/58 57/57/57 50/50/50
f 57/57/57 51/51/51 47/47/47
f 51/51/51 57/57/57 58/58/58
f 59/59/59 48/48/48 51/51/51
f 59/59/59 53/53/53 48/48/48
f 60/60/60 12/12/12 55/55/55
f 12/12/12 60/60/60 13/13/13
f 60/60/60 61/61/61 13/13/13
f 61/61/61 60/60/60 55/55/55
f 61/61/61 62/62/62 13/13/13
f 61/61/61 63/63/63 62/62/62
f 63/63/63 64/64/64 62/62/62
f 64/64/64 63/63/63 65/65/65
f 66/66/66 61/61/61 55/55/55
f 66/66/66 55/55/55 53/53/53
f 61/61/61 66/66/66 63/63/63
f 67/67/67 51/51/51 58/58/58
f 67/67/67 59/59/59 51/51/51
f 59/59/59 67/67/67 68/68/68
f 68/68/68 67/67/67 58/58/58
f 53/53/53 59/59/59 69/69/69
f 69/69/69 59/59/59 68/68/68
f 70/70/70 66/66/66 53/53/53
f 70/70/70 53/53/53 69/69/69
f 66/66/66 70/70/70 71/71/71
f 66/66/66 71/71/71 63/63/63
f 63/63/63 72/72/72 65/65/65
f 65/65/65 72/72/72 73/73/73
f 72/72/72 74/74/74 73/73/73
f 75/75/75 73/73/73 74/74/74
f 76/76/76 75/75/75 74/74/74
f 77/77/77 76/76/76 74/74/74
f 72/72/72 63/63/63 78/78/78
f 63/63/63 71/71/71 78/78/78
f 74/74/74 72/72/72 78/78/78
f 70/70/70 79/79/79 71/71/71
f 79/79/79 70/70/70 69/69/69
f 71/71/71 79/79/79 78/78/78
f 80/80/80 77/77/77 74/74/74
f 81/81/81 74/74/74 78/78/78
f 74/74/74 81/81/81 80/80/80
f 79/79/79 82/82/82 78/78/78
f 78/78/78 82/82/82 81/81/81
f 83/83/83 79/79/79 69/69/69
f 79/79/79 83/83/83 82/82/82
f 77/77/77 80/80/80 84/84/84
f 85/85/85 77/77/77 84/84/84
f 81/81/81 86/86/86 80/80/80
f 84/84/84 80/80/80 86/86/86
f 87/87/87 83/83/83 69/69/69
f 68/68/68 87/87/87 69/69/69
f 85/85/85 84/84/84 88/88/88
f 89/89/89 85/85/85 88/88/88
f 89/89/89 88/88/88 90/90/90
f 91/91/91 89/89/89 90/90/90
f 91/91/91 90/90/90 92/92/92
f 88/88/88 84/84/84 93/93/93
f 90/90/90 88/88/88 93/93/93
f 90/90/90 94/94/94 92/92/92
f 90/90/90 93/93/93 94/94/94
f 92/92/92 94/94/94 95/95/95
f 96/96/96 84/84/84 86/86/86
f 93/93/93 84/84/84 96/96/96
f 96/96/96 86/86/86 97/97/97
f 97/97/97 86/86/86 81/81/81
f 98/98/98 97/97/97 81/81/81
f 82/82/82 98/98/98 81/81/81
f 98/98/98 82/82/82 99/99/99
f 97/97/97 98/98/98 99/99/99
f 83/83/83 99/99/99 82/82/82
f 100/100/100 96/96/96 97/97/97
f 97/97/97 99/99/99 100/100/100
f 101/101/101 99/99/99 83/83/83
f 99/99/99 101/101/101 100/100/100
f 87/87/87 101/101/101 83/83/83
f 102/102/102 93/93/93 96/96/96
f 102/102/102 96/96/96 100/100/100
f 93/93/93 103/103/103 94/94/94
f 103/103/103 93/93/93 102/102/102
f 104/104/104 102/102/102 100/100/100
f 104/104/104 100/100/100 101/101/101
f 104/104/104 103/103/103 102/102/102
f 105/105/105 101/101/101 87/87/87
f 105/105/105 104/104/104 101/101/101
f 94/94/94 103/103/103 106/106/106
f 94/94/94 106/106/106 95/95/95
f 107/107/107 103/103/103 104/104/104
f 105/105/105 107/107/107 104/104/104
f 103/103/103 107/107/107 106/106/106
f 108/108/108 105/105/105 87/87/87
f 87/87/87 68/68/68 108/108/108
f 95/95/95 106/106/106 109/109/109
f 95/95/95 109/109/109 110/110/110
f 107/107/107 105/105/105 111/111/111
f 105/105/105 108/108/108 111/111/111
f 106/106/106 107/107/107 112/112/112
f 107/107/107 111/111/111 112/112/112
f 106/106/106 112/112/112 109/109/109
f 68/68/68 113/113/113 108/108/108
f 113/113/113 68/68/68 58/58/58
f 111/111/111 108/108/108 114/114/114
f 108/108/108 113/113/113 114/114/114
f 112/112/112 111/111/111 114/114/114
f 113/113/113 58/58/58 114/114/114
f 112/112/112 115/115/115 109/109/109
f 115/115/115 112/112/112 114/114/114
f 58/58/58 116/116/116 114/114/114
f 114/114/114 116/116/116 115/115/115
f 116/116/116 58/58/58 50/50/50
f 116/116/116 50/50/50 56/56/56
f 115/115/115 117/117/117 109/109/109
f 109/109/109 117/117/117 110/110/110
f 116/116/116 118/118/118 115/115/115
f 118/118/118 116/116/116 56/56/56
f 115/115/115 118/118/118 117/117/117
f 110/110/110 117/117/117 119/119/119
f 118/118/118 119/119/119 117/117/117
f 120/120/120 110/110/110 119/119/119
f 35/35/35 120/120/120 119/119/119
f 118/118/118 56/56/56 121/121/121
f 119/119/119 118/118/118 121/121/121
f 121/121/121 35/35/35 119/119/119
f 121/121/121 56/56/56 34/34/34
f 121/121/121 34/34/34 35/35/35
