g fin
v 0.0066308063 -0.0008288819 0.006231991
v 0.0071581774 -0.0032083064 0.0060227355
v 0.0056766444 -0.0016614076 0.006882261
v -0.0066308063 -0.0008288819 0.006231991
v -0.0056766444 -0.0016614076 0.006882261
v -0.0071581774 -0.0032083064 0.0060227355
vt 0.95665914 0.5362732
vt 0.954472 0.39328563
vt 0.8793829 0.50538635
vt 0.95665914 0.5362732
vt 0.8793829 0.50538635
vt 0.954472 0.39328563
vn 0.53574586 0.04458749 0.8432013
vn 0.53574586 0.04458749 0.8432013
vn 0.53574586 0.04458749 0.8432013
vn -0.53574586 0.04458749 0.8432013
vn -0.53574586 0.04458749 0.8432013
vn -0.53574586 0.04458749 0.8432013
g fin_0
f 3/3/3 2/2/2 1/1/1
f 6/6/6 5/5/5 4/4/4
