g Floor
v 4 1.3770718E-07 -1.5258789E-07
v 4 2.7585494E-07 4
v -1.5258789E-07 9.6743E-08 4
v -1.5258789E-07 -4.140477E-08 0
v -1.5258789E-07 9.6743E-08 4
v -1.5258789E-07 -0.1916056 4
v -1.5258789E-07 -0.19160576 0
v -1.5258789E-07 -4.140477E-08 0
v -1.5258789E-07 -4.140477E-08 0
v -1.5258789E-07 -0.19160576 0
v 4 -0.19160557 -1.5258789E-07
v 4 1.3770718E-07 -1.5258789E-07
v 4 1.3770718E-07 -1.5258789E-07
v 4 -0.19160557 -1.5258789E-07
v 4 -0.1916054 4
v 4 2.7585494E-07 4
v 4 2.7585494E-07 4
v 4 -0.1916054 4
v -1.5258789E-07 -0.1916056 4
v -1.5258789E-07 9.6743E-08 4
vt 0.20990846 0.99084383
vt 0.20990846 0.7903281
vt 0.009392681 0.7903281
vt 0.009392681 0.99084383
vt 0.009392681 0.7903281
vt 0.009392681 0.7903281
vt 0.009392681 0.99084383
vt 0.009392681 0.99084383
vt 0.009392681 0.99084383
vt 0.009392681 0.99084383
vt 0.20990846 0.99084383
vt 0.20990846 0.99084383
vt 0.20990846 0.99084383
vt 0.20990846 0.99084383
vt 0.20990846 0.7903281
vt 0.20990846 0.7903281
vt 0.20990846 0.7903281
vt 0.20990846 0.7903281
vt 0.009392681 0.7903281
vt 0.009392681 0.7903281
vn -0 1 0
vn -0 1 0
vn -0 1 0
vn -0 1 0
vn -1 0 0
vn -1 0 0
vn -1 0 0
vn -1 0 0
vn -0 0 -1
vn -0 0 -1
vn -0 0 -1
vn -0 0 -1
vn 1 0 0
vn 1 0 0
vn 1 0 0
vn 1 0 0
vn -0 0 1
vn -0 0 1
vn -0 0 1
vn -0 0 1
g Floor_0
f 3/3/3 2/2/2 1/1/1
f 4/4/4 3/3/3 1/1/1
f 7/7/7 6/6/6 5/5/5
f 8/8/8 7/7/7 5/5/5
f 11/11/11 10/10/10 9/9/9
f 12/12/12 11/11/11 9/9/9
f 15/15/15 14/14/14 13/13/13
f 16/16/16 15/15/15 13/13/13
f 19/19/19 18/18/18 17/17/17
f 20/20/20 19/19/19 17/17/17
