g Geco Armor
v -0.06615938 -0.27291557 1.121396
v -0.13613288 -0.23798645 1.0736226
v -0.1344498 -0.24218765 1.1108577
v 0.0014139938 -0.2909254 1.0737125
v 0.0014139938 -0.2633272 1.138818
v 0.06898737 -0.27291557 1.121396
v -0.15299138 -0.25110856 1.0113738
v -0.22288644 -0.1697042 1.0013627
v -0.24922529 -0.1823459 0.93544525
v -0.23804025 -0.16355869 0.9690499
v -0.23170364 -0.22616 0.8175839
v -0.1518809 -0.3029836 0.8615751
v -0.17941411 -0.28230864 0.68714094
v 0.0014139938 -0.36191562 0.735762
v -0.07328724 -0.35896504 0.56758296
v 0.0014139938 -0.35357776 0.53543586
v 0.07611523 -0.35896504 0.56758296
v 0.18224211 -0.28230864 0.68714094
v 0.0014139938 -0.34624657 0.9027131
v 0.15475006 -0.30304056 0.8615834
v 0.23453163 -0.22616 0.8175839
v 0.15581937 -0.25110856 1.0113738
v 0.25205326 -0.1823459 0.93544525
v 0.22571443 -0.16970418 1.0013627
v 0.24086824 -0.16355869 0.9690498
v 0.13896087 -0.23798645 1.0736226
v 0.13727777 -0.24218765 1.1108577
v -0.11338352 -0.20781757 1.0687981
v 0.0014139938 -0.22915946 1.1265501
v -0.12004588 -0.20911981 1.1139376
v 0.0014139938 -0.25683197 1.061051
v 0.116211504 -0.20781757 1.0687981
v 0.12287387 -0.20911981 1.1139376
v -0.20608898 -0.20074987 0.81342125
v -0.21750532 -0.16418484 0.92395186
v -0.19147617 -0.1552372 0.9876115
v -0.20528953 -0.15760826 0.95482236
v 0.0014139938 -0.31061232 0.894137
v -0.15674491 -0.25384462 0.6863197
v 0.20891696 -0.20074987 0.81342125
v 0.22033331 -0.16418484 0.92395186
v 0.19430415 -0.1552372 0.9876115
v 0.2081175 -0.15760827 0.95482236
v 0.1595729 -0.25384462 0.6863197
v 0.0014139938 -0.32564822 0.73449904
v -0.06170145 -0.32212475 0.5692877
v 0.064529434 -0.32212475 0.5692877
v 0.0014139938 -0.31735653 0.53695065
v 0.0014139938 -0.22915946 1.1265501
v -0.1344498 -0.24218765 1.1108577
v -0.12004588 -0.20911981 1.1139376
v -0.06615938 -0.27291557 1.121396
v 0.0014139938 -0.2633272 1.138818
v 0.06898737 -0.27291557 1.121396
v 0.12287387 -0.20911981 1.1139376
v 0.13727777 -0.24218765 1.1108577
v -0.13613288 -0.23798645 1.0736226
v -0.12004588 -0.20911981 1.1139376
v -0.1344498 -0.24218765 1.1108577
v -0.11338352 -0.20781757 1.0687981
v -0.22288644 -0.1697042 1.0013627
v -0.19147617 -0.1552372 0.9876115
v -0.23804025 -0.16355869 0.9690499
v -0.20528953 -0.15760826 0.95482236
v -0.24922529 -0.1823459 0.93544525
v -0.21750532 -0.16418484 0.92395186
v -0.23170364 -0.22616 0.8175839
v -0.20608898 -0.20074987 0.81342125
v -0.17941411 -0.28230864 0.68714094
v -0.15674491 -0.25384462 0.6863197
v -0.07328724 -0.35896504 0.56758296
v -0.15674491 -0.25384462 0.6863197
v -0.17941411 -0.28230864 0.68714094
v -0.06170145 -0.32212475 0.5692877
v 0.0014139938 -0.35357776 0.53543586
v 0.0014139938 -0.31735653 0.53695065
v 0.07611523 -0.35896504 0.56758296
v 0.064529434 -0.32212475 0.5692877
v 0.18224211 -0.28230864 0.68714094
v 0.1595729 -0.25384462 0.6863197
v 0.23453163 -0.22616 0.8175839
v 0.20891696 -0.20074987 0.81342125
v 0.25205326 -0.1823459 0.93544525
v 0.22033331 -0.16418484 0.92395186
v 0.24086824 -0.16355869 0.9690498
v 0.2081175 -0.15760827 0.95482236
v 0.22571443 -0.16970418 1.0013627
v 0.19430415 -0.1552372 0.9876115
v 0.13896087 -0.23798645 1.0736226
v 0.116211504 -0.20781757 1.0687981
v 0.13727777 -0.24218765 1.1108577
v 0.12287387 -0.20911981 1.1139376
v -0.13613288 0.23647536 1.0736226
v -0.06615938 0.2714045 1.121396
v -0.1344498 0.24067657 1.1108577
v 0.0014139938 0.28941435 1.0737125
v 0.0014139938 0.26181614 1.138818
v 0.06898737 0.2714045 1.121396
v -0.15299138 0.24959747 1.0113738
v -0.22288644 0.16819313 1.0013627
v -0.24922529 0.18083483 0.93544525
v -0.23804025 0.16204761 0.9690499
v -0.23170364 0.22464892 0.8175839
v -0.1518809 0.30147254 0.8615751
v -0.17941411 0.28079757 0.68714094
v 0.0014139938 0.36040455 0.735762
v -0.07328724 0.35745394 0.56758296
v 0.0014139938 0.35206667 0.53543586
v 0.07611523 0.35745394 0.56758296
v 0.18224211 0.28079757 0.68714094
v 0.0014139938 0.34473553 0.9027131
v 0.15475006 0.30152947 0.8615834
v 0.23453163 0.22464892 0.8175839
v 0.15581937 0.24959747 1.0113738
v 0.25205326 0.18083483 0.93544525
v 0.22571443 0.1681931 1.0013627
v 0.24086824 0.16204761 0.9690498
v 0.13896087 0.23647536 1.0736226
v 0.13727777 0.24067657 1.1108577
v 0.0014139938 0.22764839 1.1265501
v -0.11338352 0.20630649 1.0687981
v -0.12004588 0.20760873 1.1139376
v 0.0014139938 0.25532088 1.061051
v 0.116211504 0.20630649 1.0687981
v 0.12287387 0.20760873 1.1139376
v -0.20608898 0.19923879 0.81342125
v -0.21750532 0.16267376 0.92395186
v -0.19147617 0.15372612 0.9876115
v -0.20528953 0.15609717 0.95482236
v 0.0014139938 0.30910125 0.894137
v -0.15674491 0.25233355 0.6863197
v 0.20891696 0.19923879 0.81342125
v 0.22033331 0.16267376 0.92395186
v 0.19430415 0.15372612 0.9876115
v 0.2081175 0.15609717 0.95482236
v 0.1595729 0.25233355 0.6863197
v 0.0014139938 0.32413715 0.73449904
v -0.06170145 0.32061365 0.5692877
v 0.064529434 0.32061365 0.5692877
v 0.0014139938 0.31584543 0.53695065
v -0.1344498 0.24067657 1.1108577
v 0.0014139938 0.22764839 1.1265501
v -0.12004588 0.20760873 1.1139376
v -0.06615938 0.2714045 1.121396
v 0.0014139938 0.26181614 1.138818
v 0.06898737 0.2714045 1.121396
v 0.12287387 0.20760873 1.1139376
v 0.13727777 0.24067657 1.1108577
v -0.12004588 0.20760873 1.1139376
v -0.13613288 0.23647536 1.0736226
v -0.1344498 0.24067657 1.1108577
v -0.11338352 0.20630649 1.0687981
v -0.22288644 0.16819313 1.0013627
v -0.19147617 0.15372612 0.9876115
v -0.23804025 0.16204761 0.9690499
v -0.20528953 0.15609717 0.95482236
v -0.24922529 0.18083483 0.93544525
v -0.21750532 0.16267376 0.92395186
v -0.23170364 0.22464892 0.8175839
v -0.20608898 0.19923879 0.81342125
v -0.17941411 0.28079757 0.68714094
v -0.15674491 0.25233355 0.6863197
v -0.15674491 0.25233355 0.6863197
v -0.07328724 0.35745394 0.56758296
v -0.17941411 0.28079757 0.68714094
v -0.06170145 0.32061365 0.5692877
v 0.0014139938 0.35206667 0.53543586
v 0.0014139938 0.31584543 0.53695065
v 0.07611523 0.35745394 0.56758296
v 0.064529434 0.32061365 0.5692877
v 0.18224211 0.28079757 0.68714094
v 0.1595729 0.25233355 0.6863197
v 0.23453163 0.22464892 0.8175839
v 0.20891696 0.19923879 0.81342125
v 0.25205326 0.18083483 0.93544525
v 0.22033331 0.16267376 0.92395186
v 0.24086824 0.16204761 0.9690498
v 0.2081175 0.15609717 0.95482236
v 0.22571443 0.1681931 1.0013627
v 0.19430415 0.15372612 0.9876115
v 0.13896087 0.23647536 1.0736226
v 0.116211504 0.20630649 1.0687981
v 0.13727777 0.24067657 1.1108577
v 0.12287387 0.20760873 1.1139376
vt 0.47204098 0.7257301
vt 0.45219406 0.7121349
vt 0.45331106 0.72230095
vt 0.49082837 0.7102625
vt 0.49120638 0.728518
vt 0.5099023 0.7224177
vt 0.4463949 0.6936559
vt 0.42489883 0.7039629
vt 0.4192519 0.6859524
vt 0.41907367 0.69677776
vt 0.42003557 0.64958376
vt 0.44653693 0.6525647
vt 0.43532684 0.6041247
vt 0.48659906 0.61531883
vt 0.46306232 0.56872696
vt 0.48406973 0.55877405
vt 0.5054285 0.5669691
vt 0.53670913 0.5987356
vt 0.48868832 0.6587721
vt 0.5305733 0.64980084
vt 0.5586136 0.6390533
vt 0.53411156 0.69156307
vt 0.56890005 0.6738708
vt 0.56527984 0.69221294
vt 0.57042295 0.68459
vt 0.5319098 0.70838374
vt 0.5285402 0.7190025
vt 0.5717253 0.7396369
vt 0.56783086 0.72310144
vt 0.5656317 0.7392695
vt 0.5763347 0.7251705
vt 0.5789666 0.7102889
vt 0.57330483 0.70773035
vt 0.6019305 0.7599331
vt 0.58802176 0.7588907
vt 0.5773104 0.75402063
vt 0.5826076 0.7568748
vt 0.59800565 0.7304427
vt 0.6199911 0.75754136
vt 0.61503965 0.7060518
vt 0.6010497 0.7010781
vt 0.59098285 0.7002923
vt 0.59642905 0.70062816
vt 0.6299829 0.716473
vt 0.6187318 0.7354855
vt 0.6381878 0.7488984
vt 0.64217514 0.73250955
vt 0.6443799 0.7417255
vt 0.492044 0.73809004
vt 0.45331106 0.72230095
vt 0.4491652 0.73184496
vt 0.47204098 0.7257301
vt 0.49120638 0.728518
vt 0.5099023 0.7224177
vt 0.5324902 0.7267651
vt 0.5285402 0.7190025
vt 0.45219406 0.7121349
vt 0.44892934 0.731468
vt 0.4534429 0.7227354
vt 0.4446285 0.7196558
vt 0.42489883 0.7039629
vt 0.42012367 0.7095751
vt 0.41907367 0.69677776
vt 0.40939066 0.6996245
vt 0.4192519 0.6859524
vt 0.40996775 0.6854771
vt 0.42003557 0.64958376
vt 0.40987763 0.64904314
vt 0.43532684 0.6041247
vt 0.42651197 0.60112685
vt 0.46306232 0.56872696
vt 0.42588094 0.59998727
vt 0.43532684 0.6041247
vt 0.46104673 0.55977297
vt 0.48406973 0.55877405
vt 0.48406973 0.5485881
vt 0.5054285 0.5669691
vt 0.51025665 0.5555541
vt 0.53670913 0.5987356
vt 0.54606473 0.59562254
vt 0.5586136 0.6390533
vt 0.5680692 0.63677377
vt 0.56890005 0.6738708
vt 0.5791355 0.67086726
vt 0.57042295 0.68459
vt 0.5802232 0.6851014
vt 0.56527984 0.69221294
vt 0.56843585 0.6990991
vt 0.5319098 0.70838374
vt 0.5377097 0.717287
vt 0.5285402 0.7190025
vt 0.5324902 0.7267651
vt 0.45219406 0.7121349
vt 0.47204098 0.7257301
vt 0.45331106 0.72230095
vt 0.49082837 0.7102625
vt 0.49120638 0.728518
vt 0.5099023 0.7224177
vt 0.4463949 0.6936559
vt 0.42489883 0.7039629
vt 0.4192519 0.6859524
vt 0.41907367 0.69677776
vt 0.42003557 0.64958376
vt 0.44653693 0.6525647
vt 0.43532684 0.6041247
vt 0.48659906 0.61531883
vt 0.46306232 0.56872696
vt 0.48406973 0.55877405
vt 0.5054285 0.5669691
vt 0.53670913 0.5987356
vt 0.48868832 0.6587721
vt 0.5305733 0.64980084
vt 0.5586136 0.6390533
vt 0.53411156 0.69156307
vt 0.56890005 0.6738708
vt 0.56527984 0.69221294
vt 0.57042295 0.68459
vt 0.5319098 0.70838374
vt 0.5285402 0.7190025
vt 0.56783086 0.72310144
vt 0.5717253 0.7396369
vt 0.5656317 0.7392695
vt 0.5763347 0.7251705
vt 0.5789666 0.7102889
vt 0.57330483 0.70773035
vt 0.6019305 0.7599331
vt 0.58802176 0.7588907
vt 0.5773104 0.75402063
vt 0.5826076 0.7568748
vt 0.59800565 0.7304427
vt 0.6199911 0.75754136
vt 0.61503965 0.7060518
vt 0.6010497 0.7010781
vt 0.59098285 0.7002923
vt 0.59642905 0.70062816
vt 0.6299829 0.716473
vt 0.6187318 0.7354855
vt 0.6381878 0.7488984
vt 0.64217514 0.73250955
vt 0.6443799 0.7417255
vt 0.45331106 0.72230095
vt 0.492044 0.73809004
vt 0.4491652 0.73184496
vt 0.47204098 0.7257301
vt 0.49120638 0.728518
vt 0.5099023 0.7224177
vt 0.5324902 0.7267651
vt 0.5285402 0.7190025
vt 0.44892934 0.731468
vt 0.45219406 0.7121349
vt 0.4534429 0.7227354
vt 0.4446285 0.7196558
vt 0.42489883 0.7039629
vt 0.42012367 0.7095751
vt 0.41907367 0.69677776
vt 0.40939066 0.6996245
vt 0.4192519 0.6859524
vt 0.40996775 0.6854771
vt 0.42003557 0.64958376
vt 0.40987763 0.64904314
vt 0.43532684 0.6041247
vt 0.42651197 0.60112685
vt 0.42588094 0.59998727
vt 0.46306232 0.56872696
vt 0.43532684 0.6041247
vt 0.46104673 0.55977297
vt 0.48406973 0.55877405
vt 0.48406973 0.5485881
vt 0.5054285 0.5669691
vt 0.51025665 0.5555541
vt 0.53670913 0.5987356
vt 0.54606473 0.59562254
vt 0.5586136 0.6390533
vt 0.5680692 0.63677377
vt 0.56890005 0.6738708
vt 0.5791355 0.67086726
vt 0.57042295 0.68459
vt 0.5802232 0.6851014
vt 0.56527984 0.69221294
vt 0.56843585 0.6990991
vt 0.5319098 0.70838374
vt 0.5377097 0.717287
vt 0.5285402 0.7190025
vt 0.5324902 0.7267651
vn -0.2643093 -0.96441245 0.007016583
vn -0.46633533 -0.87035763 0.15814245
vn -0.39789805 -0.913476 -0.08508112
vn -3.155406E-05 -0.96753347 0.25274292
vn -0 -0.9206951 0.39028257
vn 0.26430932 -0.96441245 0.0070166206
vn -0.5679285 -0.76597524 0.30122933
vn -0.7572183 -0.5263091 0.38680652
vn -0.7202281 -0.64017636 0.26729357
vn -0.9047168 -0.1643758 0.39302444
vn -0.7043899 -0.700297 0.115839444
vn -0.5294927 -0.8361797 0.14297199
vn -0.49353656 -0.8682305 0.050963845
vn -7.3128096E-05 -0.9979311 0.064292096
vn -0.16488282 -0.9847244 0.05596077
vn -0 -0.99913496 -0.04158542
vn 0.16488278 -0.9847244 0.055960763
vn 0.49361947 -0.86819774 0.050720602
vn -0.00020424009 -0.9767055 0.21458417
vn 0.52963746 -0.83608544 0.14298728
vn 0.7047148 -0.69998103 0.11577416
vn 0.56800264 -0.76586515 0.30136964
vn 0.72022814 -0.6401762 0.26729357
vn 0.7572183 -0.5263089 0.38680658
vn 0.90471685 -0.16437541 0.3930244
vn 0.46633533 -0.8703576 0.15814246
vn 0.39789808 -0.913476 -0.08508103
vn 0.3607033 0.9244123 -0.12391551
vn -0 0.9569259 -0.29033205
vn 0.15734562 0.9861907 0.051674236
vn -0 0.95684713 -0.2905917
vn -0.36070326 0.9244123 -0.12391552
vn -0.15734558 0.9861907 0.05167426
vn 0.51558375 0.8379778 -0.17879194
vn 0.63907003 0.73286 -0.23346461
vn 0.7611763 0.5221823 -0.384625
vn 0.9047152 0.1643829 -0.39302504
vn -0 0.9727966 -0.2316609
vn 0.469535 0.87190366 -0.13899916
vn -0.51558375 0.8379778 -0.17879194
vn -0.6390703 0.73285973 -0.23346469
vn -0.76117635 0.52218205 -0.384625
vn -0.90471715 0.16437374 -0.39302436
vn -0.46953505 0.8719038 -0.13899918
vn -0 0.9950322 -0.099553525
vn 0.15037702 0.98795927 -0.036378
vn -0.15037702 0.98795927 -0.03637799
vn -0 0.9991203 0.04193601
vn -0.004225787 0.21254618 0.9771419
vn -0.114088446 -0.0068407864 0.993447
vn -0.110424966 -0.044378135 0.99289316
vn -0.1503684 0.11657699 0.9817328
vn -0 0.33792695 0.94117236
vn 0.14240855 0.07693666 0.9868133
vn 0.13731298 -0.00018098198 0.99052775
vn 0.16186725 -0.02138272 0.98658085
vn -0.7314214 0.534228 0.4238196
vn -0.8691697 0.49446133 -0.0072205244
vn -0.9163316 0.39117336 0.085555695
vn -0.6330404 0.6196447 0.46400458
vn -0.22718138 0.8415492 0.49008527
vn -0.16876994 0.8994032 0.4032251
vn -0.28997365 0.95041585 -0.11236121
vn -0.30025077 0.9488839 -0.0973076
vn -0.48923832 0.82589835 -0.280246
vn -0.5505178 0.8155375 -0.17840657
vn -0.66421485 0.6278676 -0.40571034
vn -0.6801541 0.6141713 -0.40022978
vn -0.61755794 0.4793422 -0.62358105
vn -0.6308059 0.46649715 -0.6200518
vn -0.5398912 0.22389503 -0.8114114
vn -0.6308059 0.46649715 -0.6200518
vn -0.61755794 0.4793422 -0.62358105
vn -0.55296355 0.19193742 -0.8107968
vn -0.024425475 0.063215815 -0.997701
vn -0.023532419 0.06426692 -0.9976553
vn 0.5510827 0.18995635 -0.8125419
vn 0.55115825 0.22320108 -0.8039937
vn 0.6356561 0.46982595 -0.6125397
vn 0.6263847 0.48655534 -0.60902065
vn 0.6759968 0.606856 -0.41803616
vn 0.66200835 0.6224029 -0.41756406
vn 0.56723183 0.7707797 -0.2900806
vn 0.48462147 0.8359282 -0.25761616
vn 0.25294858 0.96740144 0.0123075405
vn 0.23387417 0.9720181 0.02198898
vn 0.13848276 0.8858817 0.44275966
vn 0.25127402 0.85530823 0.4531107
vn 0.6539317 0.6181073 0.43625307
vn 0.7095769 0.5423131 0.44988585
vn 0.86492664 0.50134665 -0.023524933
vn 0.9057455 0.40589094 -0.12197377
vn -0.46633533 0.87035763 0.15814245
vn -0.26430932 0.96441245 0.007016593
vn -0.39789805 0.913476 -0.08508112
vn -3.152683E-05 0.96753347 0.252743
vn -0 0.9206951 0.39028257
vn 0.2643093 0.96441245 0.0070166206
vn -0.5679285 0.76597524 0.30122933
vn -0.75721824 0.52630913 0.3868065
vn -0.72022814 0.64017624 0.2672935
vn -0.9047168 0.16437568 0.3930244
vn -0.70439005 0.70029694 0.11583946
vn -0.5294928 0.8361797 0.14297196
vn -0.49353653 0.8682306 0.050963793
vn -7.310262E-05 0.9979311 0.06429207
vn -0.16488278 0.9847244 0.055960763
vn -0 0.99913496 -0.04158542
vn 0.16488282 0.9847244 0.05596077
vn 0.49361947 0.86819774 0.05072065
vn -0.00020413217 0.9767055 0.21458419
vn 0.52963746 0.83608544 0.1429873
vn 0.7047147 0.69998115 0.11577418
vn 0.5680025 0.76586515 0.30136964
vn 0.7202281 0.64017624 0.26729357
vn 0.7572183 0.5263091 0.3868066
vn 0.9047168 0.16437553 0.39302436
vn 0.46633533 0.8703576 0.15814249
vn 0.39789808 0.913476 -0.08508103
vn -0 -0.9569259 -0.29033205
vn 0.3607033 -0.9244123 -0.12391552
vn 0.15734562 -0.9861907 0.051674236
vn -0 -0.95684713 -0.2905917
vn -0.36070326 -0.9244123 -0.12391552
vn -0.15734558 -0.9861907 0.05167426
vn 0.51558375 -0.8379778 -0.17879194
vn 0.6390699 -0.7328602 -0.23346455
vn 0.7611763 -0.5221823 -0.38462508
vn 0.9047151 -0.16438319 -0.39302507
vn -0 -0.9727966 -0.23166087
vn 0.46953505 -0.8719038 -0.13899916
vn -0.51558375 -0.8379778 -0.17879194
vn -0.6390703 -0.73285973 -0.23346469
vn -0.76117635 -0.522182 -0.38462508
vn -0.90471727 -0.1643734 -0.39302444
vn -0.46953505 -0.8719038 -0.13899918
vn -0 -0.9950322 -0.09955351
vn 0.15037687 -0.98795927 -0.036377925
vn -0.15037687 -0.98795927 -0.036377925
vn -0 -0.9991203 0.041936107
vn -0.114088446 0.0068407864 0.993447
vn -0.004225787 -0.21254618 0.9771419
vn -0.110424966 0.044378135 0.99289316
vn -0.1503684 -0.11657699 0.9817328
vn -0 -0.33792695 0.94117236
vn 0.14240855 -0.07693666 0.9868133
vn 0.13731298 0.00018098198 0.99052775
vn 0.16186725 0.02138272 0.98658085
vn -0.8691697 -0.49446133 -0.0072205244
vn -0.7314214 -0.534228 0.4238196
vn -0.9163316 -0.39117336 0.085555695
vn -0.6330405 -0.6196446 0.46400458
vn -0.22718161 -0.84154886 0.49008557
vn -0.16877022 -0.89940315 0.40322533
vn -0.28997377 -0.95041573 -0.11236114
vn -0.30025083 -0.9488839 -0.09730772
vn -0.48923832 -0.82589835 -0.280246
vn -0.5505178 -0.8155375 -0.17840657
vn -0.66421485 -0.6278676 -0.40571034
vn -0.68015414 -0.61417127 -0.4002298
vn -0.61755794 -0.4793422 -0.62358105
vn -0.6308059 -0.46649715 -0.6200518
vn -0.6308059 -0.46649715 -0.6200518
vn -0.5398912 -0.22389504 -0.8114115
vn -0.61755794 -0.4793422 -0.62358105
vn -0.55296355 -0.19193742 -0.8107968
vn -0.024425453 -0.06321579 -0.997701
vn -0.023532456 -0.0642669 -0.9976553
vn 0.5510827 -0.18995635 -0.8125419
vn 0.55115825 -0.22320102 -0.8039936
vn 0.6356562 -0.4698259 -0.61253965
vn 0.6263847 -0.48655534 -0.60902065
vn 0.67599684 -0.6068558 -0.4180361
vn 0.66200835 -0.6224029 -0.41756406
vn 0.5672318 -0.7707797 -0.29008046
vn 0.48462155 -0.83592814 -0.2576161
vn 0.25294897 -0.9674013 0.01230756
vn 0.23387466 -0.97201806 0.021988971
vn 0.13848303 -0.8858816 0.4427597
vn 0.25127423 -0.8553081 0.45311078
vn 0.6539317 -0.61810726 0.43625307
vn 0.7095769 -0.5423131 0.44988585
vn 0.86492664 -0.50134665 -0.023524933
vn 0.9057455 -0.40589094 -0.12197377
g Geco Armor_0
f 3/3/3 2/2/2 1/1/1
f 4/4/4 1/1/1 2/2/2
f 5/5/5 1/1/1 4/4/4
f 5/5/5 4/4/4 6/6/6
f 2/2/2 7/7/7 4/4/4
f 2/2/2 8/8/8 7/7/7
f 9/9/9 7/7/7 8/8/8
f 10/10/10 9/9/9 8/8/8
f 9/9/9 11/11/11 7/7/7
f 12/12/12 7/7/7 11/11/11
f 7/7/7 12/12/12 4/4/4
f 11/11/11 13/13/13 12/12/12
f 13/13/13 14/14/14 12/12/12
f 13/13/13 15/15/15 14/14/14
f 15/15/15 16/16/16 14/14/14
f 16/16/16 17/17/17 14/14/14
f 17/17/17 18/18/18 14/14/14
f 12/12/12 14/14/14 19/19/19
f 19/19/19 4/4/4 12/12/12
f 18/18/18 20/20/20 14/14/14
f 14/14/14 20/20/20 19/19/19
f 19/19/19 20/20/20 4/4/4
f 18/18/18 21/21/21 20/20/20
f 20/20/20 21/21/21 22/22/22
f 22/22/22 4/4/4 20/20/20
f 23/23/23 22/22/22 21/21/21
f 22/22/22 23/23/23 24/24/24
f 23/23/23 25/25/25 24/24/24
f 24/24/24 26/26/26 22/22/22
f 22/22/22 26/26/26 4/4/4
f 4/4/4 26/26/26 6/6/6
f 27/27/27 6/6/6 26/26/26
f 30/30/30 29/29/29 28/28/28
f 31/31/31 28/28/28 29/29/29
f 31/31/31 29/29/29 32/32/32
f 33/33/33 32/32/32 29/29/29
f 28/28/28 31/31/31 34/34/34
f 28/28/28 34/34/34 35/35/35
f 28/28/28 35/35/35 36/36/36
f 37/37/37 36/36/36 35/35/35
f 38/38/38 34/34/34 31/31/31
f 34/34/34 38/38/38 39/39/39
f 32/32/32 40/40/40 31/31/31
f 38/38/38 31/31/31 40/40/40
f 32/32/32 41/41/41 40/40/40
f 32/32/32 42/42/42 41/41/41
f 43/43/43 41/41/41 42/42/42
f 40/40/40 44/44/44 38/38/38
f 45/45/45 39/39/39 38/38/38
f 45/45/45 38/38/38 44/44/44
f 39/39/39 45/45/45 46/46/46
f 47/47/47 45/45/45 44/44/44
f 45/45/45 48/48/48 46/46/46
f 48/48/48 45/45/45 47/47/47
f 51/51/51 50/50/50 49/49/49
f 52/52/52 49/49/49 50/50/50
f 53/53/53 49/49/49 52/52/52
f 54/54/54 49/49/49 53/53/53
f 49/49/49 54/54/54 55/55/55
f 56/56/56 55/55/55 54/54/54
f 59/59/59 58/58/58 57/57/57
f 60/60/60 57/57/57 58/58/58
f 57/57/57 60/60/60 61/61/61
f 62/62/62 61/61/61 60/60/60
f 61/61/61 62/62/62 63/63/63
f 64/64/64 63/63/63 62/62/62
f 63/63/63 64/64/64 65/65/65
f 66/66/66 65/65/65 64/64/64
f 65/65/65 66/66/66 67/67/67
f 68/68/68 67/67/67 66/66/66
f 67/67/67 68/68/68 69/69/69
f 70/70/70 69/69/69 68/68/68
f 73/73/73 72/72/72 71/71/71
f 74/74/74 71/71/71 72/72/72
f 71/71/71 74/74/74 75/75/75
f 76/76/76 75/75/75 74/74/74
f 75/75/75 76/76/76 77/77/77
f 78/78/78 77/77/77 76/76/76
f 77/77/77 78/78/78 79/79/79
f 80/80/80 79/79/79 78/78/78
f 79/79/79 80/80/80 81/81/81
f 82/82/82 81/81/81 80/80/80
f 81/81/81 82/82/82 83/83/83
f 84/84/84 83/83/83 82/82/82
f 83/83/83 84/84/84 85/85/85
f 86/86/86 85/85/85 84/84/84
f 85/85/85 86/86/86 87/87/87
f 88/88/88 87/87/87 86/86/86
f 87/87/87 88/88/88 89/89/89
f 90/90/90 89/89/89 88/88/88
f 89/89/89 90/90/90 91/91/91
f 92/92/92 91/91/91 90/90/90
f 95/95/95 94/94/94 93/93/93
f 96/96/96 93/93/93 94/94/94
f 94/94/94 97/97/97 96/96/96
f 96/96/96 97/97/97 98/98/98
f 99/99/99 93/93/93 96/96/96
f 100/100/100 93/93/93 99/99/99
f 99/99/99 101/101/101 100/100/100
f 101/101/101 102/102/102 100/100/100
f 101/101/101 99/99/99 103/103/103
f 104/104/104 103/103/103 99/99/99
f 99/99/99 96/96/96 104/104/104
f 105/105/105 103/103/103 104/104/104
f 106/106/106 105/105/105 104/104/104
f 107/107/107 105/105/105 106/106/106
f 108/108/108 107/107/107 106/106/106
f 109/109/109 108/108/108 106/106/106
f 110/110/110 109/109/109 106/106/106
f 106/106/106 104/104/104 111/111/111
f 111/111/111 104/104/104 96/96/96
f 112/112/112 110/110/110 106/106/106
f 112/112/112 106/106/106 111/111/111
f 111/111/111 96/96/96 112/112/112
f 113/113/113 110/110/110 112/112/112
f 112/112/112 114/114/114 113/113/113
f 114/114/114 112/112/112 96/96/96
f 115/115/115 113/113/113 114/114/114
f 115/115/115 114/114/114 116/116/116
f 117/117/117 115/115/115 116/116/116
f 118/118/118 116/116/116 114/114/114
f 118/118/118 114/114/114 96/96/96
f 96/96/96 98/98/98 118/118/118
f 119/119/119 118/118/118 98/98/98
f 122/122/122 121/121/121 120/120/120
f 123/123/123 120/120/120 121/121/121
f 123/123/123 124/124/124 120/120/120
f 125/125/125 120/120/120 124/124/124
f 121/121/121 126/126/126 123/123/123
f 126/126/126 121/121/121 127/127/127
f 121/121/121 128/128/128 127/127/127
f 129/129/129 127/127/127 128/128/128
f 130/130/130 123/123/123 126/126/126
f 126/126/126 131/131/131 130/130/130
f 124/124/124 123/123/123 132/132/132
f 130/130/130 132/132/132 123/123/123
f 133/133/133 124/124/124 132/132/132
f 124/124/124 133/133/133 134/134/134
f 135/135/135 134/134/134 133/133/133
f 132/132/132 130/130/130 136/136/136
f 137/137/137 130/130/130 131/131/131
f 137/137/137 136/136/136 130/130/130
f 137/137/137 131/131/131 138/138/138
f 137/137/137 139/139/139 136/136/136
f 140/140/140 137/137/137 138/138/138
f 137/137/137 140/140/140 139/139/139
f 143/143/143 142/142/142 141/141/141
f 144/144/144 141/141/141 142/142/142
f 142/142/142 145/145/145 144/144/144
f 142/142/142 146/146/146 145/145/145
f 142/142/142 147/147/147 146/146/146
f 148/148/148 146/146/146 147/147/147
f 151/151/151 150/150/150 149/149/149
f 152/152/152 149/149/149 150/150/150
f 150/150/150 153/153/153 152/152/152
f 154/154/154 152/152/152 153/153/153
f 153/153/153 155/155/155 154/154/154
f 156/156/156 154/154/154 155/155/155
f 155/155/155 157/157/157 156/156/156
f 158/158/158 156/156/156 157/157/157
f 157/157/157 159/159/159 158/158/158
f 160/160/160 158/158/158 159/159/159
f 159/159/159 161/161/161 160/160/160
f 162/162/162 160/160/160 161/161/161
f 165/165/165 164/164/164 163/163/163
f 166/166/166 163/163/163 164/164/164
f 164/164/164 167/167/167 166/166/166
f 168/168/168 166/166/166 167/167/167
f 167/167/167 169/169/169 168/168/168
f 170/170/170 168/168/168 169/169/169
f 169/169/169 171/171/171 170/170/170
f 172/172/172 170/170/170 171/171/171
f 171/171/171 173/173/173 172/172/172
f 174/174/174 172/172/172 173/173/173
f 173/173/173 175/175/175 174/174/174
f 176/176/176 174/174/174 175/175/175
f 175/175/175 177/177/177 176/176/176
f 178/178/178 176/176/176 177/177/177
f 177/177/177 179/179/179 178/178/178
f 180/180/180 178/178/178 179/179/179
f 179/179/179 181/181/181 180/180/180
f 182/182/182 180/180/180 181/181/181
f 181/181/181 183/183/183 182/182/182
f 184/184/184 182/182/182 183/183/183
