g Geo_Chopstick
v -0.008446655 -0.0049290895 -0.171464
v -0.0043832394 -0.0016784 0.17427917
v 0.00438385 -0.0016784 0.17427917
v 0.008446961 -0.0049290895 -0.171464
v -0.0043832394 -0.0016784 0.17427917
v -0.0043832394 0.0053352285 0.17427917
v 0.00438385 0.0053352285 0.17427917
v 0.00438385 -0.0016784 0.17427917
v -0.0043832394 0.0053352285 0.17427917
v -0.008446655 0.008585921 -0.171464
v 0.008446961 0.008585921 -0.171464
v 0.00438385 0.0053352285 0.17427917
v -0.008446655 0.008585921 -0.171464
v -0.008446655 -0.0049290895 -0.171464
v 0.008446961 -0.0049290895 -0.171464
v 0.008446961 0.008585921 -0.171464
v 0.008446961 -0.0049290895 -0.171464
v 0.00438385 -0.0016784 0.17427917
v 0.00438385 0.0053352285 0.17427917
v 0.008446961 0.008585921 -0.171464
v -0.008446655 0.008585921 -0.171464
v -0.0043832394 0.0053352285 0.17427917
v -0.0043832394 -0.0016784 0.17427917
v -0.008446655 -0.0049290895 -0.171464
vt 0.25997216 0.51028705
vt 0.43043572 0.50619805
vt 0.43038285 0.50187516
vt 0.2598703 0.50195694
vt 0.4340046 0.5094662
vt 0.4305512 0.50965464
vt 0.43078682 0.5139714
vt 0.43424025 0.51378286
vt 0.4305512 0.50965464
vt 0.26019463 0.51694787
vt 0.26064873 0.5252661
vt 0.43078682 0.5139714
vt 0.26019463 0.51694787
vt 0.25353998 0.5173111
vt 0.2539941 0.5256294
vt 0.26064873 0.5252661
vt 0.26115268 0.53191155
vt 0.43104833 0.51742005
vt 0.43078682 0.5139714
vt 0.26064873 0.5252661
vt 0.26019463 0.51694787
vt 0.4305512 0.50965464
vt 0.43043572 0.50619805
vt 0.25997216 0.51028705
vn -0 -0.9999558 0.009401622
vn -0 -0.9999558 0.009401621
vn -0 -0.9999558 0.00940162
vn -0 -0.9999558 0.009401621
vn -0 0 1
vn -0 0 1
vn -0 0 1
vn -0 0 1
vn -0 0.9999558 0.009401627
vn -0 0.9999558 0.009401627
vn -0 0.9999558 0.009401627
vn -0 0.9999558 0.009401626
vn -0 0 -1
vn -0 0 -1
vn -0 0 -1
vn -0 0 -1
vn 0.999931 0 0.011751004
vn 0.999931 0 0.011751005
vn 0.999931 0 0.011751005
vn 0.999931 0 0.011751004
vn -0.999931 0 0.011751888
vn -0.999931 0 0.011751888
vn -0.999931 0 0.011751888
vn -0.999931 0 0.011751888
g Geo_Chopstick_0
f 3/3/3 2/2/2 1/1/1
f 4/4/4 3/3/3 1/1/1
f 7/7/7 6/6/6 5/5/5
f 8/8/8 7/7/7 5/5/5
f 11/11/11 10/10/10 9/9/9
f 12/12/12 11/11/11 9/9/9
f 15/15/15 14/14/14 13/13/13
f 16/16/16 15/15/15 13/13/13
f 19/19/19 18/18/18 17/17/17
f 20/20/20 19/19/19 17/17/17
f 23/23/23 22/22/22 21/21/21
f 24/24/24 23/23/23 21/21/21
