g IW1_NoviceBlade
v 0.051268782 7.804546E-08 -0.50596285
v -2.0582577E-06 0.07970052 -0.47844902
v -0.051272888 6.623241E-08 -0.50596285
v 0.051268782 7.804546E-08 -0.50596285
v -2.0398948E-06 -0.07970038 -0.47844902
v -2.0056232E-06 -0.13219002 -0.36712706
v 0.051268782 7.804546E-08 -0.50596285
v -2.0398948E-06 -0.07970038 -0.47844902
v -1.9357853E-06 -0.104185 0.17284143
v 0.059701554 6.077726E-08 -0.3741196
v 0.051268857 -1.4005447E-08 0.17284144
v -1.95979E-06 0.104184955 0.17284147
v 0.051268782 7.804546E-08 -0.50596285
v -2.036081E-06 0.13219014 -0.36712703
v -2.0582577E-06 0.07970052 -0.47844902
v -0.051272888 6.623241E-08 -0.50596285
v -2.0582577E-06 0.07970052 -0.47844902
v -2.036081E-06 0.13219014 -0.36712703
v -0.059705637 4.702128E-08 -0.3741196
v -1.95979E-06 0.104184955 0.17284147
v -0.05127279 -2.5818485E-08 0.17284144
v -1.9357853E-06 -0.104185 0.17284143
v -2.0056232E-06 -0.13219002 -0.36712706
v -2.0398948E-06 -0.07970038 -0.47844902
v -0.06797973 0.25152966 0.16630486
v 0.067965776 0.25152972 0.16630483
v 0.0679658 0.30945075 0.2616245
v -0.067979716 0.30945075 0.26162446
v -0.06797971 0.2515297 0.35694414
v 0.0679658 0.25152972 0.35694408
v 0.0679658 0.25152972 0.35694408
v -0.067973144 -4.8951136E-08 0.35694125
v -0.06797971 0.2515297 0.35694414
v 0.067972556 -3.3289876E-08 0.35694125
v 0.06796586 -0.2515298 0.35694402
v -0.067979656 -0.25152978 0.3569441
v 0.067972556 -3.3289876E-08 0.35694125
v 0.0679658 0.25152972 0.35694408
v 0.0679658 0.30945075 0.2616245
v 0.06797253 -1.1328104E-08 0.16630474
v 0.067965776 0.25152972 0.16630483
v 0.067965865 -0.30945083 0.26162443
v 0.06796586 -0.2515298 0.35694402
v 0.06796583 -0.25152975 0.16630478
v -0.06797319 -2.6989369E-08 0.16630478
v -0.06797973 0.25152966 0.16630486
v -0.067979716 0.30945075 0.26162446
v -0.067973144 -4.8951136E-08 0.35694125
v -0.06797971 0.2515297 0.35694414
v -0.06797965 -0.3094508 0.2616244
v -0.06797967 -0.2515297 0.1663048
v -0.067979656 -0.25152978 0.3569441
v 0.06797253 -1.1328104E-08 0.16630474
v 0.067965776 0.25152972 0.16630483
v -0.06797973 0.25152966 0.16630486
v -0.06797319 -2.6989369E-08 0.16630478
v -0.06797967 -0.2515297 0.1663048
v 0.06796583 -0.25152975 0.16630478
v 0.067965865 -0.30945083 0.26162443
v 0.06796583 -0.25152975 0.16630478
v -0.06797967 -0.2515297 0.1663048
v -0.06797965 -0.3094508 0.2616244
v -0.067979656 -0.25152978 0.3569441
v 0.06796586 -0.2515298 0.35694402
v 0.055457518 -9.5395116E-08 0.34712192
v 2.3608083E-08 0.17252989 0.46499527
v 1.7550459E-08 0.12925826 0.34712183
v 0.055457547 -1.1934263E-07 0.46499532
v 6.536022E-08 0.1282679 1.1229478
v 3.31937E-08 -0.17253013 0.46499518
v 2.4731934E-08 -0.12925842 0.34712183
v 7.248668E-08 -0.1282684 1.1229478
v 0.055457644 -2.5278771E-07 1.1229478
v 0.05545771 -3.877397E-07 1.790381
v 1.0608971E-07 0.14183758 1.790381
v 1.1397012E-07 -0.14183837 1.790381
v 1.2851542E-07 0.102109775 2.1365817
v 1.3418858E-07 -0.10211069 2.1365817
v 0.045559254 -4.5820894E-07 2.1365817
v 1.5100196E-07 -5.2426714E-07 2.4556322
v -0.055457477 -9.8634004E-08 0.34712192
v 1.7550459E-08 0.12925826 0.34712183
v 2.3608083E-08 0.17252989 0.46499527
v -0.05545748 -1.2216681E-07 0.46499532
v 6.536022E-08 0.1282679 1.1229478
v 3.31937E-08 -0.17253013 0.46499518
v 2.4731934E-08 -0.12925842 0.34712183
v 7.248668E-08 -0.1282684 1.1229478
v -0.05545751 -2.5561187E-07 1.1229478
v -0.05545749 -3.9097858E-07 1.790381
v 1.0608971E-07 0.14183758 1.790381
v 1.1397012E-07 -0.14183837 1.790381
v 1.2851542E-07 0.102109775 2.1365817
v 1.3418858E-07 -0.10211069 2.1365817
v -0.045558985 -4.608261E-07 2.1365817
v 1.5100196E-07 -5.2426714E-07 2.4556322
v -5.3971885E-08 -0.0027959966 -0.4039872
v -1.0526263E-07 -0.15344843 -0.38957438
v 0.1007227 -0.0027963584 -0.38957426
v -0.100722775 -0.0027962588 -0.38957426
v -3.3551555E-09 0.14539701 -0.4005937
v 1.0720157E-08 0.16252792 -0.34597072
v 0.10622236 -0.002796253 -0.23488463
v -1.0526263E-07 -0.15344843 -0.38957438
v -0.10622243 -0.0027961496 -0.23488466
v -7.9140015E-08 -0.14059028 -0.25088972
v 1.8642725E-08 0.14161219 -0.25088957
v -2.3603592E-08 -0.0027959517 -0.20691119
v -7.9140015E-08 -0.14059028 -0.25088972
vt 0.6430123 0.8903841
vt 0.67642087 0.8978938
vt 0.66771686 0.8647763
vt 0.6430123 0.8903841
vt 0.63430834 0.8572664
vt 0.5955502 0.8465663
vt 0.6430123 0.8903841
vt 0.63430834 0.8572664
vt 0.3864311 0.8498757
vt 0.5964808 0.89038396
vt 0.38658595 0.8903831
vt 0.3864308 0.9308907
vt 0.6430123 0.8903841
vt 0.5955498 0.9342016
vt 0.63430816 0.9235016
vt 0.6430123 0.8903841
vt 0.63430816 0.9235016
vt 0.5955498 0.9342016
vt 0.5964808 0.89038396
vt 0.3864308 0.9308907
vt 0.38658595 0.8903831
vt 0.3864311 0.8498757
vt 0.5955502 0.8465663
vt 0.63430834 0.8572664
vt 0.9914713 0.9894806
vt 0.99147046 0.9416281
vt 0.9522096 0.9416286
vt 0.95221007 0.9894811
vt 0.912949 0.98948157
vt 0.9129483 0.94162893
vt 0.9129483 0.94162893
vt 0.82441056 0.989481
vt 0.912949 0.98948157
vt 0.82441056 0.9416281
vt 0.73587257 0.94162905
vt 0.735872 0.98948145
vt 0.82441056 0.9416281
vt 0.9129483 0.94162893
vt 0.9333366 0.9080768
vt 0.82441056 0.8745251
vt 0.9129485 0.87452394
vt 0.71548444 0.9080768
vt 0.73587257 0.94162905
vt 0.73587257 0.87452394
vt 0.82441056 0.8745251
vt 0.9129485 0.87452394
vt 0.9333366 0.9080768
vt 0.82441056 0.9416281
vt 0.9129483 0.94162893
vt 0.71548444 0.9080768
vt 0.73587257 0.87452394
vt 0.73587257 0.94162905
vt 0.82441056 0.8745251
vt 0.9129485 0.87452394
vt 0.9129485 0.8266708
vt 0.82441056 0.82667315
vt 0.73587257 0.8266708
vt 0.73587257 0.87452394
vt 0.6966115 0.9416286
vt 0.6573506 0.9416282
vt 0.65735 0.9894806
vt 0.696611 0.9894811
vt 0.735872 0.98948145
vt 0.73587257 0.94162905
vt 0.060448002 0.0055866195
vt 0.11390874 0.040335685
vt 0.101931065 0.0052921725
vt 0.06044813 0.040357567
vt 0.10165714 0.23444954
vt 0.00698754 0.040336058
vt 0.018964991 0.0052923886
vt 0.019240996 0.23444998
vt 0.060449027 0.23444867
vt 0.060450267 0.43104005
vt 0.10533026 0.43127078
vt 0.015570328 0.43127114
vt 0.09339985 0.5335301
vt 0.027501844 0.5335303
vt 0.060450826 0.53240985
vt 0.060451012 0.62721646
vt 0.060448002 0.0055866195
vt 0.101931065 0.0052921725
vt 0.11390874 0.040335685
vt 0.06044813 0.040357567
vt 0.10165714 0.23444954
vt 0.00698754 0.040336058
vt 0.018964991 0.0052923886
vt 0.019240996 0.23444998
vt 0.060449027 0.23444867
vt 0.060450267 0.43104005
vt 0.10533026 0.43127078
vt 0.015570328 0.43127114
vt 0.09339985 0.5335301
vt 0.027501844 0.5335303
vt 0.060450826 0.53240985
vt 0.060451012 0.62721646
vt 0.23876922 0.4092933
vt 0.19280803 0.37280816
vt 0.20514607 0.45098013
vt 0.20514607 0.45098013
vt 0.2815435 0.44393116
vt 0.2870608 0.4629681
vt 0.20543787 0.5119231
vt 0.12603617 0.44881085
vt 0.20543787 0.5119231
vt 0.12792602 0.5043821
vt 0.28290915 0.5039746
vt 0.24932635 0.5483742
vt 0.21184596 0.5895368
vn -0 0 -1
vn -0 0.32631847 -0.9452598
vn -0 0 -1
vn -0 0 -1
vn -0 -0.3263185 -0.9452598
vn 0.89302397 -0.44773751 -0.045160357
vn 0.9884801 1.281118E-07 -0.15135117
vn 0.8689143 -0.4767466 -0.13304392
vn 0.90526164 -0.42447472 0.017959883
vn 0.99776375 1.1866328E-07 -0.06683957
vn 0.99980325 1.2518262E-07 0.019835602
vn 0.9052616 0.42447495 0.017960005
vn 0.9884801 1.281118E-07 -0.15135117
vn 0.8930238 0.4477377 -0.04516024
vn 0.8689142 0.47674674 -0.13304378
vn -0.9884801 0 -0.1513509
vn -0.8689143 0.47674665 -0.13304351
vn -0.89302385 0.44773766 -0.04515997
vn -0.99776375 -1.07875735E-07 -0.0668393
vn -0.9052616 0.42447495 0.017960252
vn -0.99980325 -1.04318865E-07 0.01983588
vn -0.90526146 -0.42447516 0.017960135
vn -0.8930238 -0.4477379 -0.04516011
vn -0.8689141 -0.47674686 -0.13304368
vn -2.4214413E-07 0.85459495 -0.5192952
vn -2.4214413E-07 0.85459495 -0.5192952
vn -1.4903142E-07 1 0
vn -1.4903146E-07 1 -1.7760694E-07
vn -0 0.854595 0.51929504
vn -0 0.854595 0.5192951
vn 2.8060614E-07 -1.13744845E-05 1
vn 2.8060538E-07 0 1
vn 2.8060612E-07 -1.1374484E-05 1
vn 2.8060538E-07 0 1
vn 2.806046E-07 1.1222823E-05 1
vn 2.806046E-07 1.1222823E-05 1
vn 1 1.08981936E-07 2.98846E-06
vn 1 2.6843618E-05 1.6261522E-05
vn 1 2.5378687E-05 -1.4683145E-07
vn 1 1.0898101E-07 -3.2503096E-06
vn 1 2.6862766E-05 -1.6573298E-05
vn 1 -2.515463E-05 -1.468356E-07
vn 1 -2.6616128E-05 1.6223334E-05
vn 1 -2.663527E-05 -1.653512E-05
vn -1 -1.08981006E-07 3.2136907E-06
vn -1 -2.600968E-05 1.5954889E-05
vn -1 -2.463042E-05 1.160917E-07
vn -1 -1.08980174E-07 -2.8219813E-06
vn -1 -2.6104273E-05 -1.5812246E-05
vn -1 2.4406358E-05 1.160989E-07
vn -1 2.5782187E-05 1.591671E-05
vn -1 2.5876792E-05 -1.5774056E-05
vn -2.1045356E-07 1.137449E-07 -1
vn -2.104536E-07 3.412292E-07 -1
vn -2.1045362E-07 3.4122922E-07 -1
vn -2.1045355E-07 1.1374491E-07 -1
vn -2.1045352E-07 -1.13739425E-07 -1
vn -2.1045352E-07 -1.13739425E-07 -1
vn -1.4351171E-07 -1 -2.2200871E-07
vn -2.358546E-07 -0.8545948 -0.5192955
vn -2.358546E-07 -0.8545948 -0.5192955
vn -1.4351177E-07 -1 -3.7741475E-07
vn -0 -0.854595 0.51929504
vn -0 -0.854595 0.51929504
vn 0.9984029 0 -0.056495357
vn 0.9366191 0.3491999 -0.028357942
vn 0.9095098 0.3902195 -0.14325055
vn 0.99998105 0 0.0061557093
vn 0.9318809 0.36274254 0.0039914856
vn 0.9366191 -0.3491998 -0.02835813
vn 0.9095097 -0.39021948 -0.14325094
vn 0.9318809 -0.3627425 0.003991335
vn 0.9999913 0 0.0041725636
vn 0.999858 0 0.016848393
vn 0.92439485 0.38113868 0.015075878
vn 0.92439497 -0.38113865 0.015075732
vn 0.9167008 0.39224592 0.07617583
vn 0.9167008 -0.3922459 0.07617569
vn 0.9960853 0 0.088396944
vn 0.989958 0 0.14136198
vn -0.9984029 0 -0.056495197
vn -0.9095098 0.39021945 -0.14325048
vn -0.9366191 0.3491998 -0.028357832
vn -0.99998105 0 0.006155866
vn -0.9318809 0.36274248 0.003991594
vn -0.9366191 -0.34919983 -0.028358001
vn -0.9095097 -0.39021948 -0.14325082
vn -0.9318809 -0.36274257 0.003991445
vn -0.9999913 0 0.0041726814
vn -0.999858 0 0.016848518
vn -0.92439485 0.38113868 0.015075999
vn -0.92439485 -0.38113868 0.0150758475
vn -0.9167008 0.3922459 0.07617595
vn -0.9167008 -0.3922459 0.0761758
vn -0.9960853 0 0.08839707
vn -0.989958 0 0.14136209
vn -0 -0.03604241 -0.99935025
vn -3.8285353E-07 -0.8511814 -0.5248717
vn 0.827533 -0.034311853 -0.56036747
vn -0.8275331 -0.034311205 -0.5603675
vn 1.9698572E-07 0.73521626 -0.67783266
vn 2.9584157E-07 0.9980678 -0.062134806
vn 0.840759 -0.015926097 0.5411753
vn -3.8285353E-07 -0.8511814 -0.5248717
vn -0.840759 -0.015925452 0.54117537
vn -3.0398684E-07 -0.88312155 0.46914423
vn 3.4965163E-07 0.833525 0.5524817
vn -0 -0.0063605905 0.99997985
vn -3.0398684E-07 -0.88312155 0.46914423
g IW1_NoviceBlade_0
f 3/3/3 2/2/2 1/1/1
f 5/5/5 3/3/3 4/4/4
f 8/8/8 7/7/7 6/6/6
f 6/6/6 10/10/10 9/9/9
f 10/10/10 11/11/11 9/9/9
f 12/12/12 11/11/11 10/10/10
f 13/13/13 10/10/10 6/6/6
f 14/14/14 12/12/12 10/10/10
f 10/10/10 13/13/13 14/14/14
f 13/13/13 15/15/15 14/14/14
f 18/18/18 17/17/17 16/16/16
f 19/19/19 18/18/18 16/16/16
f 20/20/20 18/18/18 19/19/19
f 21/21/21 20/20/20 19/19/19
f 21/21/21 19/19/19 22/22/22
f 19/19/19 23/23/23 22/22/22
f 23/23/23 19/19/19 16/16/16
f 24/24/24 23/23/23 16/16/16
f 27/27/27 26/26/26 25/25/25
f 28/28/28 27/27/27 25/25/25
f 27/27/27 28/28/28 29/29/29
f 30/30/30 27/27/27 29/29/29
f 33/33/33 32/32/32 31/31/31
f 32/32/32 34/34/34 31/31/31
f 34/34/34 32/32/32 35/35/35
f 32/32/32 36/36/36 35/35/35
f 39/39/39 38/38/38 37/37/37
f 40/40/40 39/39/39 37/37/37
f 41/41/41 39/39/39 40/40/40
f 42/42/42 40/40/40 37/37/37
f 43/43/43 42/42/42 37/37/37
f 42/42/42 44/44/44 40/40/40
f 47/47/47 46/46/46 45/45/45
f 48/48/48 47/47/47 45/45/45
f 49/49/49 47/47/47 48/48/48
f 50/50/50 48/48/48 45/45/45
f 51/51/51 50/50/50 45/45/45
f 50/50/50 52/52/52 48/48/48
f 55/55/55 54/54/54 53/53/53
f 56/56/56 55/55/55 53/53/53
f 57/57/57 56/56/56 53/53/53
f 58/58/58 57/57/57 53/53/53
f 61/61/61 60/60/60 59/59/59
f 62/62/62 61/61/61 59/59/59
f 63/63/63 62/62/62 59/59/59
f 64/64/64 63/63/63 59/59/59
f 67/67/67 66/66/66 65/65/65
f 66/66/66 68/68/68 65/65/65
f 66/66/66 69/69/69 68/68/68
f 68/68/68 70/70/70 65/65/65
f 70/70/70 71/71/71 65/65/65
f 72/72/72 70/70/70 68/68/68
f 69/69/69 73/73/73 68/68/68
f 73/73/73 72/72/72 68/68/68
f 74/74/74 73/73/73 69/69/69
f 72/72/72 73/73/73 74/74/74
f 75/75/75 74/74/74 69/69/69
f 76/76/76 72/72/72 74/74/74
f 75/75/75 77/77/77 74/74/74
f 78/78/78 76/76/76 74/74/74
f 77/77/77 79/79/79 74/74/74
f 79/79/79 78/78/78 74/74/74
f 79/79/79 77/77/77 80/80/80
f 78/78/78 79/79/79 80/80/80
f 83/83/83 82/82/82 81/81/81
f 84/84/84 83/83/83 81/81/81
f 85/85/85 83/83/83 84/84/84
f 86/86/86 84/84/84 81/81/81
f 87/87/87 86/86/86 81/81/81
f 86/86/86 88/88/88 84/84/84
f 89/89/89 85/85/85 84/84/84
f 88/88/88 89/89/89 84/84/84
f 85/85/85 89/89/89 90/90/90
f 90/90/90 89/89/89 88/88/88
f 91/91/91 85/85/85 90/90/90
f 92/92/92 90/90/90 88/88/88
f 93/93/93 91/91/91 90/90/90
f 92/92/92 94/94/94 90/90/90
f 95/95/95 93/93/93 90/90/90
f 94/94/94 95/95/95 90/90/90
f 93/93/93 95/95/95 96/96/96
f 95/95/95 94/94/94 96/96/96
f 99/99/99 98/98/98 97/97/97
f 98/98/98 100/100/100 97/97/97
f 99/99/99 97/97/97 101/101/101
f 97/97/97 100/100/100 101/101/101
f 102/102/102 99/99/99 101/101/101
f 100/100/100 102/102/102 101/101/101
f 103/103/103 99/99/99 102/102/102
f 99/99/99 103/103/103 104/104/104
f 105/105/105 100/100/100 104/104/104
f 100/100/100 105/105/105 102/102/102
f 103/103/103 106/106/106 104/104/104
f 106/106/106 105/105/105 104/104/104
f 107/107/107 103/103/103 102/102/102
f 105/105/105 107/107/107 102/102/102
f 103/103/103 107/107/107 108/108/108
f 107/107/107 105/105/105 108/108/108
f 103/103/103 108/108/108 109/109/109
f 108/108/108 105/105/105 109/109/109
