g knight01_sword
v -0.12954551 -9.642633E-10 0.13675621
v 0.12954544 -9.642633E-10 0.13675621
v -0 0.07096584 0.13675621
v -0 -0.07096585 0.13675621
v -0.12954551 -9.642599E-10 0.20513625
v 0.12954544 -9.642599E-10 0.20513625
v -0 -0.07096584 0.20513625
v -0 0.07096585 0.20513625
v 0.12954544 -9.642599E-10 0.20513625
v -0 -0.07096585 0.13675621
v -0 -0.07096584 0.20513625
v 0.12954544 -9.642633E-10 0.13675621
v -0 0.07096584 0.13675621
v -0 0.07096585 0.20513625
v -0 -0.07096585 0.13675621
v -0.12954551 -9.642599E-10 0.20513625
v -0 -0.07096584 0.20513625
v -0.12954551 -9.642633E-10 0.13675621
v -0 0.07096584 0.13675621
v -0 0.07096585 0.20513625
v -0 -0.012665358 0.14512825
v 0.0237014 -9.642668E-10 -0.1264878
v -0 -0.012665341 -0.12648788
v 0.0237014 -9.642633E-10 0.14512832
v -0.023701476 -9.642633E-10 0.14512832
v -0 -0.012665341 -0.12648788
v -0.023701476 -9.642668E-10 -0.1264878
v -0 -0.012665358 0.14512825
v -0 0.0126653565 0.14512825
v 0.0237014 -9.642668E-10 -0.1264878
v 0.0237014 -9.642633E-10 0.14512832
v -0 0.012665338 -0.12648788
v -0.023701476 -9.642633E-10 0.14512832
v -0 0.012665338 -0.12648788
v -0 0.0126653565 0.14512825
v -0.023701476 -9.642668E-10 -0.1264878
v -0 -0.012665341 -0.12648788
v -0 0.012665338 -0.12648788
v -0.023701476 -9.642668E-10 -0.1264878
v 0.0237014 -9.642668E-10 -0.1264878
v -0.023701476 -9.642633E-10 0.14512832
v -0 -0.03131903 0.2998967
v -0 -0.012665358 0.14512825
v 0.0237014 -9.642633E-10 0.14512832
v -0.107617185 -9.642668E-10 0.29989678
v -0 0.03131902 0.2998967
v -0 0.0126653565 0.14512825
v 0.10761711 -9.642668E-10 0.29989678
v -0 -0.052160874 0.86456114
v -0 0.052160867 0.86456114
v -0.13302872 -9.64269E-10 0.8645613
v 0.13302864 -9.64269E-10 0.8645613
v -0 -9.642622E-10 1.0934356
vt 0.44643447 0.038848784
vt 0.557742 0.038848784
vt 0.5020889 0.008361664
vt 0.5020889 0.06933596
vt 0.57396317 0.038262796
vt 0.68527067 0.038262796
vt 0.62961626 0.0077756145
vt 0.62961626 0.06874985
vt 0.77067906 0.042931765
vt 0.70722085 0.013553724
vt 0.70722085 0.042931765
vt 0.77067906 0.013553724
vt 0.70722085 0.013553724
vt 0.70722085 0.042931765
vt 0.70722085 0.013553724
vt 0.77067906 0.042931765
vt 0.70722085 0.042931765
vt 0.77067906 0.013553724
vt 0.70722085 0.013553724
vt 0.70722085 0.042931765
vt 0.92491275 0.55048126
vt 0.93730235 0.4249713
vt 0.9249231 0.42497435
vt 0.93733305 0.55012697
vt 0.9124915 0.55012697
vt 0.9249231 0.42497435
vt 0.9125441 0.42497
vt 0.92491275 0.55048126
vt 0.92491275 0.55048126
vt 0.93730235 0.4249713
vt 0.93733305 0.55012697
vt 0.9249231 0.42497435
vt 0.9124915 0.55012697
vt 0.9249231 0.42497435
vt 0.92491275 0.55048126
vt 0.9125441 0.42497
vt 0.9249231 0.42497435
vt 0.9249231 0.42497435
vt 0.9125441 0.42497
vt 0.93730235 0.4249713
vt 0.9124915 0.55012697
vt 0.92491734 0.6223683
vt 0.92491275 0.55048126
vt 0.93733305 0.55012697
vt 0.8732508 0.6214275
vt 0.92491734 0.6223683
vt 0.92491275 0.55048126
vt 0.9765836 0.62142164
vt 0.92493206 0.8815838
vt 0.92493206 0.8815838
vt 0.85970855 0.88339984
vt 0.9901539 0.88339394
vt 0.92493623 0.9886332
vn -0 0 -1
vn -0 0 -1
vn -0 0 -1
vn -0 0 -1
vn -0 0 1
vn -0 0 1
vn -0 0 1
vn -0 0 1
vn 1 0 0
vn 1.5683945E-07 -1 1.0097229E-07
vn 1.2979815E-07 -1 1.3946676E-07
vn 1 0 0
vn 1.9469722E-07 1 -1.0097227E-07
vn 1.514312E-07 1 -1.3946676E-07
vn 1.5683945E-07 -1 1.0097229E-07
vn -1 0 0
vn 1.2979815E-07 -1 1.3946676E-07
vn -1 0 0
vn 1.9469722E-07 1 -1.0097227E-07
vn 1.514312E-07 1 -1.3946676E-07
vn 0.47130057 -0.8819727 0
vn 0.47130057 -0.8819727 0
vn 0.47130057 -0.8819727 0
vn 0.471301 -0.88197243 0
vn -0.47129935 -0.8819733 0
vn -0.4712994 -0.8819733 0
vn -0.4712994 -0.8819733 0
vn -0.47129986 -0.88197297 0
vn 0.47130108 0.88197243 0
vn 0.471301 0.88197243 0
vn 0.471301 0.88197243 0
vn 0.47130057 0.8819727 0
vn -0.47129986 0.88197297 0
vn -0.47129986 0.88197297 0
vn -0.47129986 0.88197297 0
vn -0.4712994 0.8819733 0
vn -3.2189532E-06 0 -1
vn -3.2189532E-06 0 -1
vn -3.2189535E-06 0 -1
vn 3.2189637E-06 0 -1
vn -0.95842135 0 -0.2853569
vn -0 -0.99559814 -0.09372446
vn 6.6344836E-07 -0.9928149 -0.11966033
vn 0.95842147 0 -0.28535625
vn -0.96311665 0 -0.26908442
vn 1.4996138E-07 0.99559814 -0.09372443
vn 6.6344836E-07 0.9928149 -0.11966026
vn 0.96311665 0 -0.2690843
vn 1.07415374E-07 -0.995086 0.099014334
vn -0 0.995086 0.09901432
vn -0.9783633 0 0.20689458
vn 0.9783633 0 0.20689447
vn -0 1.2638854E-07 1
g knight01_sword_0
f 3/3/3 2/2/2 1/1/1
f 4/4/4 1/1/1 2/2/2
f 7/7/7 6/6/6 5/5/5
f 8/8/8 5/5/5 6/6/6
f 11/11/11 10/10/10 9/9/9
f 12/12/12 9/9/9 10/10/10
f 12/12/12 13/13/13 9/9/9
f 14/14/14 9/9/9 13/13/13
f 17/17/17 16/16/16 15/15/15
f 18/18/18 15/15/15 16/16/16
f 18/18/18 16/16/16 19/19/19
f 20/20/20 19/19/19 16/16/16
f 23/23/23 22/22/22 21/21/21
f 24/24/24 21/21/21 22/22/22
f 27/27/27 26/26/26 25/25/25
f 28/28/28 25/25/25 26/26/26
f 31/31/31 30/30/30 29/29/29
f 32/32/32 29/29/29 30/30/30
f 35/35/35 34/34/34 33/33/33
f 36/36/36 33/33/33 34/34/34
f 39/39/39 38/38/38 37/37/37
f 40/40/40 37/37/37 38/38/38
f 43/43/43 42/42/42 41/41/41
f 43/43/43 44/44/44 42/42/42
f 45/45/45 41/41/41 42/42/42
f 45/45/45 46/46/46 41/41/41
f 47/47/47 41/41/41 46/46/46
f 47/47/47 46/46/46 44/44/44
f 48/48/48 42/42/42 44/44/44
f 48/48/48 44/44/44 46/46/46
f 42/42/42 49/49/49 45/45/45
f 42/42/42 48/48/48 49/49/49
f 46/46/46 45/45/45 50/50/50
f 46/46/46 50/50/50 48/48/48
f 51/51/51 45/45/45 49/49/49
f 51/51/51 50/50/50 45/45/45
f 52/52/52 49/49/49 48/48/48
f 52/52/52 48/48/48 50/50/50
f 51/51/51 49/49/49 53/53/53
f 50/50/50 51/51/51 53/53/53
f 53/53/53 49/49/49 52/52/52
f 50/50/50 53/53/53 52/52/52
