g mask
v -0.44426328 0.3030541 -0.06554755
v -0.32628042 0.28717038 0.026432889
v -0.41567817 0.011729062 -0.2521621
v -0.32520983 0.022245621 0.09365021
v -0.25257704 -0.21045719 -0.19824423
v 1.655857E-08 0.0063684224 0.23202679
v 1.655857E-08 0.3765744 0.09282021
v 1.655857E-08 0.0063684224 0.23202679
v 1.7615065E-08 -0.1349579 0.11848781
v 1.655857E-08 0.0063684224 0.23202679
v 0.25257707 -0.21045719 -0.19824418
v 0.32520983 0.022245621 0.09365021
v 1.655857E-08 0.0063684224 0.23202679
v 0.41567817 0.011729062 -0.2521621
v 0.32628042 0.28717038 0.026432889
v 1.655857E-08 0.3765744 0.09282021
v 0.44426328 0.3030541 -0.06554755
v -0.41567817 0.011729062 -0.2521621
v -0.54544735 0.05872899 -0.48471475
v -0.58740115 0.25605538 -0.34373602
v -0.44426328 0.3030541 -0.06554755
v 0.44426328 0.3030541 -0.06554755
v 0.58740115 0.25605538 -0.34373602
v 0.54544735 0.05872899 -0.48471475
v 0.41567817 0.011729062 -0.2521621
vt 0.6404387 0.5257068
vt 0.6154661 0.5257068
vt 0.66876924 0.42607635
vt 0.61872613 0.42607635
vt 0.62094915 0.34291083
vt 0.5358187 0.42607635
vt 0.5358187 0.5257068
vt 0.5358187 0.42607635
vt 0.5358187 0.34291083
vt 0.5358187 0.42607635
vt 0.62094915 0.34291083
vt 0.61872613 0.42607635
vt 0.5358187 0.42607635
vt 0.66876924 0.42607635
vt 0.6154661 0.5257068
vt 0.5358187 0.5257068
vt 0.6404387 0.5257068
vt 0.66876924 0.42607635
vt 0.66876924 0.42607635
vt 0.6404387 0.5257068
vt 0.6404387 0.5257068
vt 0.6404387 0.5257068
vt 0.6404387 0.5257068
vt 0.66876924 0.42607635
vt 0.66876924 0.42607635
vn -0.57882434 -0.47936442 0.6596759
vn -0.65122145 0.025607169 0.75845563
vn -0.87239426 -0.36670128 0.32320055
vn -0.68382424 -0.2828386 0.67259705
vn -0.6385742 -0.651046 0.41031975
vn -0 -0.23907349 0.9710015
vn -0 0.35196415 0.93601346
vn -0 -0.23907349 0.9710015
vn -0 -0.62630117 0.7795812
vn -0 -0.23907349 0.9710015
vn 0.6385742 -0.651046 0.41031975
vn 0.68382424 -0.28283864 0.67259705
vn -0 -0.23907349 0.9710015
vn 0.87239426 -0.3667012 0.3232005
vn 0.65122145 0.025607163 0.75845563
vn -0 0.35196415 0.93601346
vn 0.5788243 -0.47936445 0.65967584
vn -0.8063224 -0.40523607 0.43084556
vn -0.8063224 -0.40523612 0.43084556
vn -0.8063224 -0.40523607 0.43084556
vn -0.8063224 -0.40523612 0.43084562
vn 0.80632246 -0.40523604 0.43084556
vn 0.80632246 -0.40523604 0.43084556
vn 0.80632246 -0.40523604 0.4308456
vn 0.80632246 -0.40523604 0.4308456
g mask_0
f 3/3/3 2/2/2 1/1/1
f 3/3/3 4/4/4 2/2/2
f 3/3/3 5/5/5 4/4/4
f 6/6/6 2/2/2 4/4/4
f 6/6/6 4/4/4 5/5/5
f 2/2/2 6/6/6 7/7/7
f 5/5/5 9/9/9 8/8/8
f 11/11/11 10/10/10 9/9/9
f 13/13/13 11/11/11 12/12/12
f 14/14/14 12/12/12 11/11/11
f 13/13/13 12/12/12 15/15/15
f 14/14/14 15/15/15 12/12/12
f 15/15/15 16/16/16 13/13/13
f 14/14/14 17/17/17 15/15/15
f 20/20/20 19/19/19 18/18/18
f 21/21/21 20/20/20 18/18/18
f 24/24/24 23/23/23 22/22/22
f 25/25/25 24/24/24 22/22/22
