g Meat
v 0.051801063 0.52370065 0.2678224
v 0.047520723 0.45846266 0.17710459
v -0.018650893 0.44868335 0.24232285
v -0.059956793 0.50364965 0.28090316
v -0.018650893 0.44868335 0.24232285
v -0.045974948 0.52163637 0.17052951
v -0.043549832 0.61087036 0.26173866
v -0.03683279 0.6136563 0.15126526
v -0.034291178 0.6738215 0.25159928
v -0.040767007 0.69341046 0.16744065
v -0.059670825 0.7584058 0.21320191
v -0.05529551 0.76403844 0.2722268
v -0.07677852 0.8272748 0.24128515
v -0.081391394 0.8561432 0.29695308
v -0.04188095 1.0091176 0.22092798
v -0.03299526 1.0102441 0.24488878
v -0.044727944 1.0480338 0.25507048
v -0.05715989 1.042218 0.19822338
v -0.059956793 0.50364965 0.28090316
v 0.051801063 0.52370065 0.2678224
v -0.018650893 0.44868335 0.24232285
v -0.043549832 0.61087036 0.26173866
v 0.06904183 0.6158916 0.2566168
v -0.034291178 0.6738215 0.25159928
v 0.051368147 0.6953557 0.25912055
v 0.0051077306 0.7597734 0.27766043
v -0.05529551 0.76403844 0.2722268
v -0.024145298 0.82838607 0.2936583
v -0.081391394 0.8561432 0.29695308
v -0.008282417 1.009827 0.25436053
v -0.03299526 1.0102441 0.24488878
v 0.013709471 1.0437143 0.2687426
v -0.044727944 1.0480338 0.25507048
v 0.047520723 0.45846266 0.17710459
v -0.045974948 0.52163637 0.17052951
v -0.018650893 0.44868335 0.24232285
v 0.06833781 0.5005681 0.15580261
v -0.03683279 0.6136563 0.15126526
v 0.08307173 0.6310005 0.13846275
v 0.044892304 0.7149446 0.17496192
v -0.040767007 0.69341046 0.16744065
v -0.0074819955 0.76560396 0.2266852
v -0.059670825 0.7584058 0.21320191
v -0.033397622 0.8200354 0.25155076
v -0.07677852 0.8272748 0.24128515
v -0.017168099 1.0087005 0.2303997
v -0.04188095 1.0091176 0.22092798
v -0.05715989 1.042218 0.19822338
v 0.0012775636 1.0378984 0.2118955
v 0.047520723 0.45846266 0.17710459
v 0.051801063 0.52370065 0.2678224
v 0.06833781 0.5005681 0.15580261
v 0.06904183 0.6158916 0.2566168
v 0.08307173 0.6310005 0.13846275
v 0.044892304 0.7149446 0.17496192
v 0.051368147 0.6953557 0.25912055
v -0.0074819955 0.76560396 0.2266852
v 0.0051077306 0.7597734 0.27766043
v -0.033397622 0.8200354 0.25155076
v -0.024145298 0.82838607 0.2936583
v -0.017168099 1.0087005 0.2303997
v -0.008282417 1.009827 0.25436053
v 0.0012775636 1.0378984 0.2118955
v 0.013709471 1.0437143 0.2687426
v -0.044727944 1.0480338 0.25507048
v 0.0012775636 1.0378984 0.2118955
v 0.013709471 1.0437143 0.2687426
v -0.05715989 1.042218 0.19822338
v -0.28896683 0.503424 0.24963784
v -0.23218985 0.44873628 0.2506292
v -0.20087682 0.5228506 0.2103954
v -0.26437902 0.61079365 0.24952158
v -0.18125528 0.61506885 0.2070783
v -0.25099623 0.6738191 0.24975292
v -0.19593355 0.6946144 0.2127209
v -0.24207756 0.75908774 0.22411296
v -0.2809168 0.7638732 0.25017557
v -0.27443022 0.82766825 0.22904275
v -0.31734362 0.8557904 0.2501666
v -0.23636748 1.0095501 0.23677684
v -0.24711885 1.0102875 0.25031713
v -0.26281327 1.0480062 0.24989998
v -0.23119487 1.0430588 0.22136284
v -0.28896683 0.503424 0.24963784
v -0.20105252 0.5229425 0.2911271
v -0.23218985 0.44873628 0.2506292
v -0.26437902 0.61079365 0.24952158
v -0.18144554 0.61516833 0.2944968
v -0.25099623 0.6738191 0.24975292
v -0.19609912 0.6947011 0.28879502
v -0.24219398 0.7591487 0.2775993
v -0.2809168 0.7638732 0.25017557
v -0.27452475 0.82771766 0.2725009
v -0.31734362 0.8557904 0.2501666
v -0.23642786 1.0095817 0.2645185
v -0.24711885 1.0102875 0.25031713
v -0.23132226 1.0431255 0.2798782
v -0.26281327 1.0480062 0.24989998
v -0.13933437 0.45899767 0.25162506
v -0.20087682 0.5228506 0.2103954
v -0.23218985 0.44873628 0.2506292
v -0.10977432 0.5012611 0.25193843
v -0.18125528 0.61506885 0.2070783
v -0.08778432 0.6318252 0.25206235
v -0.14103644 0.71549636 0.251763
v -0.19593355 0.6946144 0.2127209
v -0.21491648 0.7657657 0.25149855
v -0.24207756 0.75908774 0.22411296
v -0.25111383 0.82001096 0.25131142
v -0.27443022 0.82766825 0.22904275
v -0.22567646 1.0088443 0.25097823
v -0.23636748 1.0095501 0.23677684
v -0.23119487 1.0430588 0.22136284
v -0.19970387 1.0381781 0.25134113
v -0.20105252 0.5229425 0.2911271
v -0.13933437 0.45899767 0.25162506
v -0.23218985 0.44873628 0.2506292
v -0.10977432 0.5012611 0.25193843
v -0.18144554 0.61516833 0.2944968
v -0.08778432 0.6318252 0.25206235
v -0.14103644 0.71549636 0.251763
v -0.19609912 0.6947011 0.28879502
v -0.21491648 0.7657657 0.25149855
v -0.24219398 0.7591487 0.2775993
v -0.25111383 0.82001096 0.25131142
v -0.27452475 0.82771766 0.2725009
v -0.22567646 1.0088443 0.25097823
v -0.23642786 1.0095817 0.2645185
v -0.19970387 1.0381781 0.25134113
v -0.23132226 1.0431255 0.2798782
v -0.26281327 1.0480062 0.24989998
v -0.19970387 1.0381781 0.25134113
v -0.23132226 1.0431255 0.2798782
v -0.23119487 1.0430588 0.22136284
vt 0.0877363 0.4018314
vt 0.09780535 0.41308975
vt 0.09942215 0.39612737
vt 0.09080454 0.38575545
vt 0.09942215 0.39612737
vt 0.0877363 0.4018314
vt 0.07388572 0.39024687
vt 0.0732044 0.40541434
vt 0.06395447 0.39269164
vt 0.06067099 0.40273538
vt 0.050513618 0.39431065
vt 0.04976426 0.38722625
vt 0.039707944 0.3884028
vt 0.035280377 0.3805721
vt 0.011049212 0.39535883
vt 0.010935428 0.39340028
vt 0.0049918294 0.39053315
vt 0.005766294 0.3962976
vt 0.09080454 0.38575545
vt 0.0877363 0.4018314
vt 0.09942215 0.39612737
vt 0.07388572 0.39024687
vt 0.07320441 0.40541434
vt 0.06395447 0.39269164
vt 0.06067099 0.40273538
vt 0.05051363 0.39431065
vt 0.04976426 0.38722625
vt 0.039707944 0.3884028
vt 0.035280377 0.3805721
vt 0.011049212 0.39535883
vt 0.010935428 0.39340028
vt 0.005766276 0.39629757
vt 0.0049918294 0.39053315
vt 0.09780535 0.41308975
vt 0.0877363 0.4018314
vt 0.09942215 0.39612737
vt 0.0911457 0.4184897
vt 0.0732044 0.40541434
vt 0.070572086 0.42250672
vt 0.05738751 0.41277897
vt 0.06067099 0.40273538
vt 0.049466245 0.3992831
vt 0.050513618 0.39431065
vt 0.040918514 0.39267087
vt 0.039707944 0.3884028
vt 0.011162987 0.39731744
vt 0.011049212 0.39535883
vt 0.005766294 0.3962976
vt 0.006540746 0.40206203
vt 0.09780535 0.41308975
vt 0.0877363 0.4018314
vt 0.0911457 0.4184897
vt 0.07320441 0.40541434
vt 0.070572086 0.42250672
vt 0.05738751 0.41277897
vt 0.06067099 0.40273538
vt 0.049466245 0.3992831
vt 0.05051363 0.39431065
vt 0.040918514 0.39267087
vt 0.039707944 0.3884028
vt 0.011162987 0.39731744
vt 0.011049212 0.39535883
vt 0.006540746 0.40206203
vt 0.005766276 0.39629757
vt 0.035753824 0.19715163
vt 0.01973788 0.1482072
vt 0.003151747 0.18035185
vt 0.05233998 0.16500701
vt 0.09080454 0.38575545
vt 0.09942215 0.39612737
vt 0.0877363 0.4018314
vt 0.07388572 0.39024687
vt 0.0732044 0.40541434
vt 0.06395447 0.39269164
vt 0.06067099 0.40273538
vt 0.050513618 0.39431065
vt 0.04976426 0.38722625
vt 0.039707944 0.3884028
vt 0.035280377 0.3805721
vt 0.011049212 0.39535883
vt 0.010935428 0.39340028
vt 0.0049918294 0.39053315
vt 0.005766294 0.3962976
vt 0.09080454 0.38575545
vt 0.0877363 0.4018314
vt 0.09942215 0.39612737
vt 0.07388572 0.39024687
vt 0.07320441 0.40541434
vt 0.06395447 0.39269164
vt 0.06067099 0.40273538
vt 0.05051363 0.39431065
vt 0.04976426 0.38722625
vt 0.039707944 0.3884028
vt 0.035280377 0.3805721
vt 0.011049212 0.39535883
vt 0.010935428 0.39340028
vt 0.005766276 0.39629757
vt 0.0049918294 0.39053315
vt 0.09780535 0.41308975
vt 0.0877363 0.4018314
vt 0.09942215 0.39612737
vt 0.0911457 0.4184897
vt 0.0732044 0.40541434
vt 0.070572086 0.42250672
vt 0.05738751 0.41277897
vt 0.06067099 0.40273538
vt 0.049466245 0.3992831
vt 0.050513618 0.39431065
vt 0.040918514 0.39267087
vt 0.039707944 0.3884028
vt 0.011162987 0.39731744
vt 0.011049212 0.39535883
vt 0.005766294 0.3962976
vt 0.006540746 0.40206203
vt 0.0877363 0.4018314
vt 0.09780535 0.41308975
vt 0.09942215 0.39612737
vt 0.0911457 0.4184897
vt 0.07320441 0.40541434
vt 0.070572086 0.42250672
vt 0.05738751 0.41277897
vt 0.06067099 0.40273538
vt 0.049466245 0.3992831
vt 0.05051363 0.39431065
vt 0.040918514 0.39267087
vt 0.039707944 0.3884028
vt 0.011162987 0.39731744
vt 0.011049212 0.39535883
vt 0.006540746 0.40206203
vt 0.005766276 0.39629757
vt 0.035753824 0.19715163
vt 0.01973788 0.1482072
vt 0.003151747 0.18035185
vt 0.05233998 0.16500701
vn 0.6152187 -0.24621975 0.74892044
vn 0.39168373 -0.8434056 -0.3677647
vn -0.22776318 -0.94103837 0.25014117
vn -0.68354 -0.26791325 0.67896646
vn -0.22776318 -0.94103837 0.25014117
vn -0.7337836 -0.27976725 -0.6191058
vn -0.70151544 0.2009394 0.6837394
vn -0.6765333 0.061266426 -0.733859
vn -0.708396 -0.11379075 0.69658214
vn -0.6666733 0.22790359 -0.7096525
vn -0.7323684 0.20625792 -0.64891773
vn -0.6679702 -0.33398902 0.6650317
vn -0.7272582 -0.038766462 -0.6852683
vn -0.71020263 0.061702102 0.7012882
vn -0.6195374 -0.38279122 -0.685306
vn -0.69298184 0.037012354 0.72000444
vn -0.5937587 0.5429404 0.5938573
vn -0.62655544 0.2862941 -0.724889
vn -0.68354 -0.26791325 0.67896646
vn 0.6152187 -0.24621975 0.74892044
vn -0.22776318 -0.94103837 0.25014117
vn -0.70151544 0.2009394 0.6837394
vn 0.72240293 0.08960169 0.68564236
vn -0.708396 -0.11379075 0.69658214
vn 0.6992839 0.24467613 0.6716663
vn 0.64081067 0.21699107 0.73639435
vn -0.6679702 -0.33398902 0.6650317
vn 0.6762341 -0.012535334 0.7365801
vn -0.71020263 0.061702102 0.7012882
vn 0.6151948 -0.34350592 0.7096048
vn -0.69298184 0.037012354 0.72000444
vn 0.6905597 0.32436928 0.646461
vn -0.5937587 0.5429404 0.5938573
vn 0.39168373 -0.8434056 -0.3677647
vn -0.7337836 -0.27976725 -0.6191058
vn -0.22776318 -0.94103837 0.25014117
vn 0.65988684 -0.39140484 -0.641367
vn -0.6765333 0.061266426 -0.733859
vn 0.69674796 0.1902507 -0.69162625
vn 0.548059 0.6289758 -0.5513809
vn -0.6666733 0.22790359 -0.7096525
vn 0.521734 0.6724298 -0.5250065
vn -0.7323684 0.20625792 -0.64891773
vn 0.6865293 0.25368562 -0.6814111
vn -0.7272582 -0.038766462 -0.6852683
vn 0.6184168 -0.43928576 -0.65160483
vn -0.6195374 -0.38279122 -0.685306
vn -0.62655544 0.2862941 -0.724889
vn 0.67276233 0.24525604 -0.69802594
vn 0.39168373 -0.8434056 -0.3677647
vn 0.6152187 -0.24621975 0.74892044
vn 0.65988684 -0.39140484 -0.641367
vn 0.72240293 0.08960169 0.68564236
vn 0.69674796 0.1902507 -0.69162625
vn 0.548059 0.6289758 -0.5513809
vn 0.6992839 0.24467613 0.6716663
vn 0.521734 0.6724298 -0.5250065
vn 0.64081067 0.21699107 0.73639435
vn 0.6865293 0.25368562 -0.6814111
vn 0.6762341 -0.012535334 0.7365801
vn 0.6184168 -0.43928576 -0.65160483
vn 0.6151948 -0.34350592 0.7096048
vn 0.67276233 0.24525604 -0.69802594
vn 0.6905597 0.32436928 0.646461
vn -0.5937587 0.5429404 0.5938573
vn 0.67276233 0.24525604 -0.69802594
vn 0.6905597 0.32436928 0.646461
vn -0.62655544 0.2862941 -0.724889
vn -0.962358 -0.2715775 -0.010617624
vn -0.3342981 -0.9424674 -0.00013947517
vn -0.04808133 -0.17644463 -0.9831355
vn -0.98109114 0.19307396 -0.01351556
vn 0.030583594 0.04931441 -0.998315
vn -0.99146855 -0.12950061 -0.014824893
vn 0.041548666 0.16440551 -0.98551744
vn -0.00011891394 0.1485114 -0.9889107
vn -0.94072133 -0.3389439 -0.012665505
vn 0.0073371446 -0.027923614 -0.9995832
vn -0.9978219 0.065196656 -0.010041033
vn 0.05923286 -0.22417645 -0.97274685
vn -0.9992107 0.036963034 0.0145496745
vn -0.8560444 0.51690215 -0.00014077063
vn 0.09183236 0.40117785 -0.9113853
vn -0.962358 -0.2715775 -0.010617624
vn -0.07004666 -0.17146434 0.98269695
vn -0.3342981 -0.9424674 -0.00013947517
vn -0.98109114 0.19307396 -0.01351556
vn 0.006784578 0.04918005 0.9987669
vn -0.99146855 -0.12950061 -0.014824893
vn 0.019167816 0.1547853 0.9877622
vn -0.022781651 0.1348976 0.99059755
vn -0.94072133 -0.3389439 -0.012665505
vn -0.017763916 -0.030676624 0.9993716
vn -0.9978219 0.065196656 -0.010041033
vn -0.03997106 -0.21362863 0.9760969
vn -0.9992107 0.036963034 0.0145496745
vn 0.03781565 0.41329977 0.90980947
vn -0.8560444 0.51690215 -0.00014077063
vn 0.54502237 -0.8383934 0.0068676416
vn -0.04808133 -0.17644463 -0.9831355
vn -0.3342981 -0.9424674 -0.00013947517
vn 0.92198634 -0.38706848 0.010914235
vn 0.030583594 0.04931441 -0.998315
vn 0.9807483 0.19499595 0.010452602
vn 0.7835346 0.6212596 0.010493155
vn 0.041548666 0.16440551 -0.98551744
vn 0.7417293 0.67057884 0.012711021
vn -0.00011891394 0.1485114 -0.9889107
vn 0.95970315 0.2806567 0.014198202
vn 0.0073371446 -0.027923614 -0.9995832
vn 0.8978941 -0.43915713 -0.03045015
vn 0.05923286 -0.22417645 -0.97274685
vn 0.09183236 0.40117785 -0.9113853
vn 0.973955 0.2266981 -0.0044232556
vn -0.07004666 -0.17146434 0.98269695
vn 0.54502237 -0.8383934 0.0068676416
vn -0.3342981 -0.9424674 -0.00013947517
vn 0.92198634 -0.38706848 0.010914235
vn 0.006784578 0.04918005 0.9987669
vn 0.9807483 0.19499595 0.010452602
vn 0.7835346 0.6212596 0.010493155
vn 0.019167816 0.1547853 0.9877622
vn 0.7417293 0.67057884 0.012711021
vn -0.022781651 0.1348976 0.99059755
vn 0.95970315 0.2806567 0.014198202
vn -0.017763916 -0.030676624 0.9993716
vn 0.8978941 -0.43915713 -0.03045015
vn -0.03997106 -0.21362863 0.9760969
vn 0.973955 0.2266981 -0.0044232556
vn 0.03781565 0.41329977 0.90980947
vn -0.8560444 0.51690215 -0.00014077063
vn 0.973955 0.2266981 -0.0044232556
vn 0.03781565 0.41329977 0.90980947
vn 0.09183236 0.40117785 -0.9113853
g Meat_0
f 3/3/3 2/2/2 1/1/1
f 6/6/6 5/5/5 4/4/4
f 4/4/4 7/7/7 6/6/6
f 8/8/8 6/6/6 7/7/7
f 7/7/7 9/9/9 8/8/8
f 10/10/10 8/8/8 9/9/9
f 10/10/10 9/9/9 11/11/11
f 12/12/12 11/11/11 9/9/9
f 11/11/11 12/12/12 13/13/13
f 14/14/14 13/13/13 12/12/12
f 13/13/13 14/14/14 15/15/15
f 16/16/16 15/15/15 14/14/14
f 16/16/16 17/17/17 15/15/15
f 18/18/18 15/15/15 17/17/17
f 21/21/21 20/20/20 19/19/19
f 19/19/19 20/20/20 22/22/22
f 23/23/23 22/22/22 20/20/20
f 22/22/22 23/23/23 24/24/24
f 25/25/25 24/24/24 23/23/23
f 25/25/25 26/26/26 24/24/24
f 27/27/27 24/24/24 26/26/26
f 26/26/26 28/28/28 27/27/27
f 29/29/29 27/27/27 28/28/28
f 28/28/28 30/30/30 29/29/29
f 31/31/31 29/29/29 30/30/30
f 30/30/30 32/32/32 31/31/31
f 33/33/33 31/31/31 32/32/32
f 36/36/36 35/35/35 34/34/34
f 37/37/37 34/34/34 35/35/35
f 35/35/35 38/38/38 37/37/37
f 39/39/39 37/37/37 38/38/38
f 39/39/39 38/38/38 40/40/40
f 41/41/41 40/40/40 38/38/38
f 40/40/40 41/41/41 42/42/42
f 43/43/43 42/42/42 41/41/41
f 42/42/42 43/43/43 44/44/44
f 45/45/45 44/44/44 43/43/43
f 44/44/44 45/45/45 46/46/46
f 47/47/47 46/46/46 45/45/45
f 47/47/47 48/48/48 46/46/46
f 49/49/49 46/46/46 48/48/48
f 52/52/52 51/51/51 50/50/50
f 51/51/51 52/52/52 53/53/53
f 54/54/54 53/53/53 52/52/52
f 54/54/54 55/55/55 53/53/53
f 56/56/56 53/53/53 55/55/55
f 55/55/55 57/57/57 56/56/56
f 58/58/58 56/56/56 57/57/57
f 57/57/57 59/59/59 58/58/58
f 60/60/60 58/58/58 59/59/59
f 59/59/59 61/61/61 60/60/60
f 62/62/62 60/60/60 61/61/61
f 61/61/61 63/63/63 62/62/62
f 64/64/64 62/62/62 63/63/63
f 67/67/67 66/66/66 65/65/65
f 68/68/68 65/65/65 66/66/66
f 71/71/71 70/70/70 69/69/69
f 69/69/69 72/72/72 71/71/71
f 73/73/73 71/71/71 72/72/72
f 72/72/72 74/74/74 73/73/73
f 75/75/75 73/73/73 74/74/74
f 75/75/75 74/74/74 76/76/76
f 77/77/77 76/76/76 74/74/74
f 76/76/76 77/77/77 78/78/78
f 79/79/79 78/78/78 77/77/77
f 78/78/78 79/79/79 80/80/80
f 81/81/81 80/80/80 79/79/79
f 81/81/81 82/82/82 80/80/80
f 83/83/83 80/80/80 82/82/82
f 86/86/86 85/85/85 84/84/84
f 84/84/84 85/85/85 87/87/87
f 88/88/88 87/87/87 85/85/85
f 87/87/87 88/88/88 89/89/89
f 90/90/90 89/89/89 88/88/88
f 90/90/90 91/91/91 89/89/89
f 92/92/92 89/89/89 91/91/91
f 91/91/91 93/93/93 92/92/92
f 94/94/94 92/92/92 93/93/93
f 93/93/93 95/95/95 94/94/94
f 96/96/96 94/94/94 95/95/95
f 95/95/95 97/97/97 96/96/96
f 98/98/98 96/96/96 97/97/97
f 101/101/101 100/100/100 99/99/99
f 102/102/102 99/99/99 100/100/100
f 100/100/100 103/103/103 102/102/102
f 104/104/104 102/102/102 103/103/103
f 104/104/104 103/103/103 105/105/105
f 106/106/106 105/105/105 103/103/103
f 105/105/105 106/106/106 107/107/107
f 108/108/108 107/107/107 106/106/106
f 107/107/107 108/108/108 109/109/109
f 110/110/110 109/109/109 108/108/108
f 109/109/109 110/110/110 111/111/111
f 112/112/112 111/111/111 110/110/110
f 112/112/112 113/113/113 111/111/111
f 114/114/114 111/111/111 113/113/113
f 117/117/117 116/116/116 115/115/115
f 118/118/118 115/115/115 116/116/116
f 115/115/115 118/118/118 119/119/119
f 120/120/120 119/119/119 118/118/118
f 120/120/120 121/121/121 119/119/119
f 122/122/122 119/119/119 121/121/121
f 121/121/121 123/123/123 122/122/122
f 124/124/124 122/122/122 123/123/123
f 123/123/123 125/125/125 124/124/124
f 126/126/126 124/124/124 125/125/125
f 125/125/125 127/127/127 126/126/126
f 128/128/128 126/126/126 127/127/127
f 127/127/127 129/129/129 128/128/128
f 130/130/130 128/128/128 129/129/129
f 133/133/133 132/132/132 131/131/131
f 134/134/134 131/131/131 132/132/132
