g mobile_wood_chump_04
v 0.12942265 0.116560936 -0.44331637
v 0.072697625 0.2616851 0.4599806
v 0.07551913 0.23725796 -0.44478896
v 0.14995785 0.13417274 0.47735122
v 0.07551913 0.23725796 -0.44478896
v -0.07725622 0.25838873 0.45422617
v -0.053900875 0.25157416 -0.46761462
v 0.072697625 0.2616851 0.4599806
v -0.053900875 0.25157416 -0.46761462
v -0.14995095 0.1275803 0.46584204
v -0.12941772 0.14519356 -0.48896778
v -0.07725622 0.25838873 0.45422617
v -0.12941772 0.14519356 -0.48896778
v -0.07269125 6.7482E-05 0.4832129
v -0.07551371 0.024496192 -0.48749492
v -0.14995095 0.1275803 0.46584204
v -0.07551371 0.024496192 -0.48749492
v 0.07726373 0.0033637236 0.48896757
v 0.053906277 0.010179939 -0.46466926
v -0.07269125 6.7482E-05 0.4832129
v 0.053906277 0.010179939 -0.46466926
v 0.14995785 0.13417274 0.47735122
v 0.12942265 0.116560936 -0.44331637
v 0.07726373 0.0033637236 0.48896757
v 0.072697625 0.2616851 0.4599806
v -0.14995095 0.1275803 0.46584204
v -0.07725622 0.25838873 0.45422617
v 0.07726373 0.0033637236 0.48896757
v 0.14995785 0.13417274 0.47735122
v -0.07269125 6.7482E-05 0.4832129
v 0.053906277 0.010179939 -0.46466926
v -0.12941772 0.14519356 -0.48896778
v -0.07551371 0.024496192 -0.48749492
v 0.07551913 0.23725796 -0.44478896
v 0.12942265 0.116560936 -0.44331637
v -0.053900875 0.25157416 -0.46761462
vt 0.8965104 0.3235889
vt 0.8864427 0.37392715
vt 0.8864427 0.3235889
vt 0.89651036 0.37392715
vt 0.8864427 0.3235889
vt 0.8763751 0.37392715
vt 0.87637514 0.3235889
vt 0.8864427 0.37392715
vt 0.93678105 0.3235889
vt 0.9267134 0.37392715
vt 0.9267134 0.3235889
vt 0.93678105 0.37392715
vt 0.9267134 0.3235889
vt 0.9166457 0.37392715
vt 0.91664577 0.3235889
vt 0.9267134 0.37392715
vt 0.91664577 0.3235889
vt 0.906578 0.37392715
vt 0.90657806 0.3235889
vt 0.9166457 0.37392715
vt 0.90657806 0.3235889
vt 0.89651036 0.37392715
vt 0.8965104 0.3235889
vt 0.906578 0.37392715
vt 0.95401704 0.2509328
vt 0.97127485 0.26089662
vt 0.96552217 0.2509328
vt 0.95401704 0.27086043
vt 0.9482643 0.26089662
vt 0.96552217 0.27086043
vt 0.97855073 0.25131434
vt 0.9950083 0.26081622
vt 0.9895225 0.25131434
vt 0.97855073 0.27031812
vt 0.9730647 0.26081622
vt 0.9895225 0.27031812
vn 0.99222434 -0.12406167 -0.00998411
vn 0.5077334 0.8609412 -0.031416357
vn 0.56294745 0.82644856 -0.008540116
vn 0.9993643 -0.019037358 -0.030142903
vn 0.56294745 0.82644856 -0.008540116
vn -0.5223644 0.8522157 -0.029391505
vn -0.4642231 0.8856836 -0.0078411335
vn 0.5077334 0.8609412 -0.031416357
vn -0.4642231 0.8856836 -0.0078411335
vn -0.9978715 -0.05776682 -0.030257095
vn -0.99747133 0.0704249 -0.009558344
vn -0.5223644 0.8522157 -0.029391505
vn -0.99747133 0.0704249 -0.009558344
vn -0.45396566 -0.8905258 -0.029647995
vn -0.6166316 -0.78720784 -0.008317259
vn -0.9978715 -0.05776682 -0.030257095
vn -0.6166316 -0.78720784 -0.008317259
vn 0.5094317 -0.8600587 -0.027897052
vn 0.35155055 -0.9361383 -0.0075660446
vn -0.45396566 -0.8905258 -0.029647995
vn 0.35155055 -0.9361383 -0.0075660446
vn 0.9993643 -0.019037358 -0.030142903
vn 0.99222434 -0.12406167 -0.00998411
vn 0.5094317 -0.8600587 -0.027897052
vn -0.04054116 0.110712945 0.9930252
vn -0.040541794 0.11071295 0.9930252
vn -0.04054091 0.110711455 0.9930254
vn -0.040541448 0.110713445 0.99302506
vn -0.04053952 0.11071349 0.9930252
vn -0.040542062 0.11071349 0.99302506
vn 0.18064341 0.06870318 -0.9811462
vn 0.1806434 0.06870318 -0.9811462
vn 0.18064342 0.06870319 -0.9811462
vn 0.18064356 0.068705425 -0.981146
vn 0.18064241 0.06870439 -0.9811462
vn 0.18064356 0.068705425 -0.981146
g mobile_wood_chump_04_0
f 3/3/3 2/2/2 1/1/1
f 4/4/4 1/1/1 2/2/2
f 7/7/7 6/6/6 5/5/5
f 8/8/8 5/5/5 6/6/6
f 11/11/11 10/10/10 9/9/9
f 12/12/12 9/9/9 10/10/10
f 15/15/15 14/14/14 13/13/13
f 16/16/16 13/13/13 14/14/14
f 19/19/19 18/18/18 17/17/17
f 20/20/20 17/17/17 18/18/18
f 23/23/23 22/22/22 21/21/21
f 24/24/24 21/21/21 22/22/22
f 27/27/27 26/26/26 25/25/25
f 26/26/26 28/28/28 25/25/25
f 25/25/25 28/28/28 29/29/29
f 30/30/30 28/28/28 26/26/26
f 33/33/33 32/32/32 31/31/31
f 32/32/32 34/34/34 31/31/31
f 31/31/31 34/34/34 35/35/35
f 36/36/36 34/34/34 32/32/32
