g mobile_tree_01_leaf
v 1.721851 0.49166992 -0.11163114
v 0.08994856 -0.1819068 1.6397042
v -0.11904599 0.92091733 0.103608444
v -0.11904599 0.92091733 0.103608444
v 0.08994856 -0.1819068 1.6397042
v -1.7525544 -0.04585388 -0.02482498
v -0.12065242 0.62772286 -1.7761593
v 1.721851 0.49166992 -0.11163114
v -0.12065242 0.62772286 -1.7761593
v -1.7525544 -0.04585388 -0.02482498
v 0.08994856 -0.1819068 1.6397042
v 1.721851 0.49166992 -0.11163114
vt 0.49950877 0.47405577
vt 0.34430084 0.47405577
vt 0.41735378 0.5787035
vt 0.41735378 0.5787035
vt 0.34430084 0.47405577
vt 0.34430084 0.6745683
vt 0.49950877 0.6745683
vt 0.49950877 0.47405577
vt 0.49950877 0.6745683
vt 0.34430084 0.6745683
vt 0.34430084 0.47405577
vt 0.49950877 0.47405577
vn 0.24519289 0.9466225 0.20925182
vn -0.10909995 0.80038655 0.58947307
vn -0.14277388 0.9610614 0.23659389
vn -0.14277388 0.9610614 0.23659389
vn -0.10909995 0.80038655 0.58947307
vn -0.50911427 0.829924 0.22809784
vn -0.15482219 0.97616017 -0.15212333
vn 0.24519289 0.9466225 0.20925182
vn 0.14277421 -0.9610614 -0.23659378
vn 0.14277422 -0.9610614 -0.2365938
vn 0.14277421 -0.9610614 -0.2365938
vn 0.14277422 -0.9610614 -0.2365938
g mobile_tree_01_leaf_0
f 3/3/3 2/2/2 1/1/1
f 6/6/6 5/5/5 4/4/4
f 4/4/4 7/7/7 6/6/6
f 4/4/4 8/8/8 7/7/7
f 11/11/11 10/10/10 9/9/9
f 12/12/12 11/11/11 9/9/9
