g mobile_wood_plank_01
v 0.716992 0.050000343 0.17098351
v 0.75 3.4332274E-07 -0.1290165
v 0.716992 3.4332274E-07 0.17098351
v 0.75 0.050000343 -0.12901649
v -0.7463736 0.050000343 -0.12901664
v -0.75 3.4332274E-07 0.17098334
v -0.7463736 3.4332274E-07 -0.12901664
v -0.75 0.050000343 0.17098334
v -9.536743E-09 0.050000343 0.0904519
v 0.75 0.050000343 -0.12901649
v 0.716992 0.050000343 0.17098351
v 1.9073486E-08 0.050000343 -0.1709834
v -0.75 0.050000343 0.17098334
v -0.7463736 0.050000343 -0.12901664
v 1.9073486E-08 3.4332274E-07 -0.1709834
v 0.716992 3.4332274E-07 0.17098351
v 0.75 3.4332274E-07 -0.1290165
v -9.536743E-09 3.4332274E-07 0.0904519
v -0.7463736 3.4332274E-07 -0.12901664
v -0.75 3.4332274E-07 0.17098334
v -9.536743E-09 3.4332274E-07 0.0904519
v 0.716992 0.050000343 0.17098351
v 0.716992 3.4332274E-07 0.17098351
v -9.536743E-09 0.050000343 0.0904519
v -0.75 3.4332274E-07 0.17098334
v -0.75 0.050000343 0.17098334
v 1.9073486E-08 3.4332274E-07 -0.1709834
v -0.7463736 0.050000343 -0.12901664
v -0.7463736 3.4332274E-07 -0.12901664
v 1.9073486E-08 0.050000343 -0.1709834
v 0.75 3.4332274E-07 -0.1290165
v 0.75 0.050000343 -0.12901649
vt 0.75151855 0.33894414
vt 0.7553326 0.3160593
vt 0.7553327 0.33894414
vt 0.75151855 0.3160593
vt 0.87357086 0.3160593
vt 0.8697567 0.33894414
vt 0.8697567 0.3160593
vt 0.87357086 0.33894414
vt 0.8125447 0.34275827
vt 0.7553327 0.36564305
vt 0.7553327 0.34275827
vt 0.8125447 0.36564305
vt 0.8697567 0.34275827
vt 0.8697567 0.36564305
vt 0.81254464 0.3160593
vt 0.7553327 0.33894414
vt 0.7553326 0.3160593
vt 0.8125447 0.33894414
vt 0.8697567 0.3160593
vt 0.8697567 0.33894414
vt 0.8125447 0.33894414
vt 0.7553327 0.34275827
vt 0.7553327 0.33894414
vt 0.8125447 0.34275827
vt 0.8697567 0.33894414
vt 0.8697567 0.34275827
vt 0.81254464 0.3160593
vt 0.8697567 0.31224513
vt 0.8697567 0.3160593
vt 0.81254464 0.31224513
vt 0.7553326 0.3160593
vt 0.7553326 0.31224516
vn 0.99400145 0 0.109366536
vn 0.99400145 0 0.109366536
vn 0.99400145 0 0.10936655
vn 0.99400145 0 0.10936655
vn -0.9999269 0 -0.012087129
vn -0.9999269 0 -0.012087129
vn -0.9999269 0 -0.01208713
vn -0.9999269 0 -0.01208713
vn -0 1 0
vn -0 1 0
vn -0 1 0
vn -0 1 0
vn -0 1 0
vn -0 1 0
vn -0 -1 0
vn -0 -1 0
vn -0 -1 0
vn -0 -1 0
vn -0 -1 0
vn -0 -1 0
vn -0.0024422363 0 0.999997
vn -0.11161684 0 0.99375135
vn -0.11161685 0 0.99375135
vn -0.0024422833 0 0.999997
vn 0.106761575 0 0.9942847
vn 0.106761575 0 0.9942847
vn -0.00013541235 0 -1
vn -0.056138895 0 -0.998423
vn -0.056138895 0 -0.998423
vn -0.0001354295 0 -1
vn 0.055868488 0 -0.9984382
vn 0.055868484 0 -0.9984382
g mobile_wood_plank_01_0
f 3/3/3 2/2/2 1/1/1
f 4/4/4 1/1/1 2/2/2
f 7/7/7 6/6/6 5/5/5
f 8/8/8 5/5/5 6/6/6
f 11/11/11 10/10/10 9/9/9
f 12/12/12 9/9/9 10/10/10
f 9/9/9 12/12/12 13/13/13
f 14/14/14 13/13/13 12/12/12
f 17/17/17 16/16/16 15/15/15
f 18/18/18 15/15/15 16/16/16
f 15/15/15 18/18/18 19/19/19
f 20/20/20 19/19/19 18/18/18
f 23/23/23 22/22/22 21/21/21
f 24/24/24 21/21/21 22/22/22
f 21/21/21 24/24/24 25/25/25
f 26/26/26 25/25/25 24/24/24
f 29/29/29 28/28/28 27/27/27
f 30/30/30 27/27/27 28/28/28
f 27/27/27 30/30/30 31/31/31
f 32/32/32 31/31/31 30/30/30
