g Object006
v -0.012542953 -0.09977172 0.16665329
v -0.17506568 -0.20574394 0.14852852
v -0.14478339 -0.107966036 0.18166366
v -0.17506568 -0.20574394 0.14852852
v 0.018953932 -0.2051397 0.17489414
v 0.13243705 -0.064259715 0.03154743
v -0.14478339 -0.107966036 0.18166366
v 0.09960945 -0.0044972417 0.1085873
v 0.13243705 -0.064259715 0.03154743
v 0.14233269 0.13767155 -0.05601946
v 0.17506568 0.103706814 -0.122288644
v 0.04047752 0.19531696 -0.072597735
v 0.0048076627 0.20574409 -0.13085182
v -0.13147423 0.048921544 0.041223068
v -0.097239606 0.045738447 0.0927203
v -0.14478339 -0.107966036 0.18166366
v -0.17506568 -0.20574394 0.14852852
v 0.14206001 0.0127405925 -0.15334289
v 0.17506568 0.103706814 -0.122288644
v 0.09859657 -0.10193918 -0.08668022
v -0.012573623 -0.17852594 0.03863243
v 0.018953932 -0.2051397 0.17489414
v -0.17506568 -0.20574394 0.14852852
v -0.14483924 -0.19078352 0.03754318
v 0.039337385 0.07625481 -0.1816637
v 0.17506568 0.103706814 -0.122288644
v 0.0048076627 0.20574409 -0.13085182
v -0.13147423 0.048921544 0.041223068
v -0.09921791 -0.02620617 -0.0865859
v -0.14483924 -0.19078352 0.03754318
v -0.14483924 -0.19078352 0.03754318
v -0.17506568 -0.20574394 0.14852852
vt 0.93522316 0.24105482
vt 0.9710536 0.2832086
vt 0.96602905 0.25633484
vt 0.9710536 0.2832086
vt 0.9052874 0.26226446
vt 0.9071602 0.19580723
vt 0.96602905 0.25633484
vt 0.92611474 0.19919012
vt 0.9071602 0.19580723
vt 0.9237322 0.13982126
vt 0.9041106 0.12692861
vt 0.9553176 0.13418002
vt 0.96693444 0.12032236
vt 0.99172664 0.19966036
vt 0.9774775 0.20526728
vt 0.96602905 0.25633484
vt 0.9710536 0.2832086
vt 0.88885456 0.14886314
vt 0.9041106 0.12692861
vt 0.8839252 0.18341866
vt 0.8738002 0.23117654
vt 0.9052874 0.26226446
vt 0.83314604 0.27048898
vt 0.841111 0.24201769
vt 0.8594218 0.13955383
vt 0.9041106 0.12692861
vt 0.83858305 0.108853236
vt 0.79368085 0.18658713
vt 0.8320802 0.1847653
vt 0.841111 0.24201769
vt 0.841111 0.24201769
vt 0.83314604 0.27048898
vn 0.24694027 0.19798467 0.9485898
vn -0.6853835 -0.62148887 0.3794746
vn -0.49027726 0.1428107 0.8597868
vn -0.6853835 -0.62148887 0.3794746
vn 0.43605706 -0.6456511 0.6268883
vn 0.89661664 -0.37432757 0.23655339
vn -0.49027726 0.1428107 0.8597868
vn 0.6005607 0.21321423 0.7706274
vn 0.89661664 -0.37432757 0.23655339
vn 0.6869166 0.6499595 0.3251128
vn 0.87399894 0.3224737 -0.36350578
vn 0.13762438 0.93950397 0.31367487
vn -0.3222162 0.82091445 -0.47146174
vn -0.8539148 0.5194762 0.031208977
vn -0.3104182 0.6691761 0.67516214
vn -0.49027726 0.1428107 0.8597868
vn -0.6853835 -0.62148887 0.3794746
vn 0.59931844 -0.33190233 -0.728463
vn 0.87399894 0.3224737 -0.36350578
vn 0.43477237 -0.732939 -0.52323365
vn 0.2730213 -0.9172016 -0.2901735
vn 0.43605706 -0.6456511 0.6268883
vn -0.6853835 -0.62148887 0.3794746
vn -0.5850097 -0.6752591 -0.44920897
vn -0.19976978 0.035881527 -0.97918564
vn 0.87399894 0.3224737 -0.36350578
vn -0.3222162 0.82091445 -0.47146174
vn -0.8539148 0.5194762 0.031208977
vn -0.6851685 -0.070298724 -0.7249843
vn -0.5850097 -0.6752591 -0.44920897
vn -0.5850097 -0.6752591 -0.44920897
vn -0.6853835 -0.62148887 0.3794746
g Object006_0
f 3/3/3 2/2/2 1/1/1
f 5/5/5 1/1/1 4/4/4
f 6/6/6 1/1/1 5/5/5
f 1/1/1 8/8/8 7/7/7
f 8/8/8 1/1/1 9/9/9
f 8/8/8 6/6/6 10/10/10
f 11/11/11 10/10/10 6/6/6
f 10/10/10 11/11/11 12/12/12
f 10/10/10 12/12/12 8/8/8
f 13/13/13 12/12/12 11/11/11
f 13/13/13 14/14/14 12/12/12
f 15/15/15 7/7/7 8/8/8
f 15/15/15 8/8/8 12/12/12
f 15/15/15 12/12/12 14/14/14
f 15/15/15 14/14/14 7/7/7
f 17/17/17 16/16/16 14/14/14
f 19/19/19 9/9/9 18/18/18
f 20/20/20 18/18/18 9/9/9
f 20/20/20 9/9/9 21/21/21
f 21/21/21 9/9/9 22/22/22
f 22/22/22 23/23/23 21/21/21
f 24/24/24 21/21/21 23/23/23
f 21/21/21 24/24/24 20/20/20
f 18/18/18 20/20/20 25/25/25
f 18/18/18 25/25/25 26/26/26
f 27/27/27 26/26/26 25/25/25
f 27/27/27 25/25/25 28/28/28
f 29/29/29 25/25/25 20/20/20
f 29/29/29 28/28/28 25/25/25
f 29/29/29 20/20/20 30/30/30
f 29/29/29 31/31/31 28/28/28
f 32/32/32 28/28/28 31/31/31
