g Object014
v -0.13604416 0.18581338 0.0016170258
v -0.24380606 0.11380129 0.09294827
v -0.28667837 0.16441348 0.0013403647
v 0.059700012 0.17549743 0.0015036376
v -0.10291313 0.12201284 0.11636081
v 0.073455885 0.15503144 0.1073496
v -0.25139236 0.11594259 0.09722348
v -0.16385345 0.035955656 0.16009521
v -0.24111694 0.02086773 0.0013403647
v -0.15683852 -0.04687233 0.0013026592
v -0.05487991 -0.14561689 0.13111076
v -0.100149535 -0.13617414 0.0012926919
v -0.014585419 -0.21613619 0.0012839438
v 0.1054554 0.045442753 0.16606061
v 0.10846642 -0.14159395 0.11721582
v 0.10740997 -0.20905259 0.0012894189
v 0.23837486 0.0589929 0.10145805
v 0.28667837 0.07766374 0.0013403647
v 0.23306571 0.16544724 0.08791587
v 0.24794868 0.21613625 0.0013403648
v 0.24794868 0.21613625 0.0013403648
v -0.24380606 0.11380129 0.09294827
v -0.25139236 0.11594259 0.09722348
v -0.24380606 0.11380129 0.09294827
v -0.28667837 0.16441348 0.0013403647
v 0.23331305 0.16527472 -0.08513311
v 0.24794868 0.21613625 0.0013403648
v 0.07380554 0.15748473 -0.13285062
v -0.103089824 0.12427157 -0.14190675
v -0.1639048 0.040682696 -0.16002433
v -0.25085968 0.110194795 -0.093732774
v -0.24380606 0.11380129 -0.090267554
v -0.28667837 0.16441348 0.0013403647
v -0.24111694 0.02086773 0.0013403647
v -0.28667837 0.16441348 0.0013403647
v -0.15683852 -0.04687233 0.0013026592
v 0.10562904 0.050188083 -0.1660606
v -0.054862745 -0.1404926 -0.13116993
v -0.100149535 -0.13617414 0.0012926919
v -0.014585419 -0.21613619 0.0012839438
v 0.10844643 -0.13647173 -0.1172776
v 0.10740997 -0.20905259 0.0012894189
v 0.23840445 0.058964442 -0.09873691
v 0.28667837 0.07766374 0.0013403647
v 0.24794868 0.21613625 0.0013403648
v -0.13604416 0.18581338 0.0016170258
v -0.24380606 0.11380129 0.09294827
v -0.24380606 0.11380129 -0.090267554
v -0.24111694 0.02086773 0.0013403647
v -0.25085968 0.110194795 -0.093732774
vt 0.84824014 0.7511741
vt 0.8760394 0.72251886
vt 0.84723353 0.70664406
vt 0.84873176 0.80683917
vt 0.8793561 0.760086
vt 0.8732343 0.8083913
vt 0.8746774 0.7212041
vt 0.9005939 0.74098
vt 0.89624053 0.6935418
vt 0.93448687 0.7090495
vt 0.9487936 0.7657057
vt 0.967326 0.7346222
vt 0.9880811 0.77192926
vt 0.90323967 0.811298
vt 0.95187134 0.80864084
vt 0.9842367 0.81734854
vt 0.89987487 0.84765327
vt 0.8990269 0.8759855
vt 0.87152195 0.85087687
vt 0.847188 0.8656252
vt 0.847188 0.8656252
vt 0.8760394 0.72251886
vt 0.8746774 0.7212041
vt 0.8760394 0.72251886
vt 0.84723353 0.70664406
vt 0.8229085 0.8508009
vt 0.847188 0.8656252
vt 0.8171665 0.8078838
vt 0.81094265 0.7608579
vt 0.7941233 0.7413791
vt 0.8186909 0.72121507
vt 0.81876606 0.7229331
vt 0.84723353 0.70664406
vt 0.79825854 0.6937727
vt 0.84723353 0.70664406
vt 0.75963795 0.7089075
vt 0.7913387 0.81164896
vt 0.746032 0.76579297
vt 0.72642016 0.7345464
vt 0.7054622 0.7720692
vt 0.74308693 0.8089005
vt 0.7094616 0.81776637
vt 0.7941151 0.8478139
vt 0.795148 0.87602025
vt 0.847188 0.8656252
vt 0.84824014 0.7511741
vt 0.8760394 0.72251886
vt 0.81876606 0.7229331
vt 0.79825854 0.6937727
vt 0.8186909 0.72121507
vn -0.07306555 0.99682 0.03180323
vn -0.7275419 0.3449212 -0.5930532
vn -0.8121748 0.58341426 -0.00036243917
vn -0.08470723 0.996042 0.02692487
vn -0.06704638 0.71025234 0.70074695
vn -0.049864095 0.80215895 0.5950249
vn -0.86445445 0.4471673 0.22969532
vn -0.4707544 -0.10457173 0.87604517
vn -0.8085529 -0.5884215 -0.0015489626
vn -0.77008843 -0.63789856 -0.0070131817
vn -0.35419908 -0.6272843 0.693583
vn -0.7819868 -0.6232325 -0.00883194
vn -0.24884519 -0.9684817 -0.010921101
vn 0.18165547 0.094877236 0.97877455
vn 0.42356554 -0.58652496 0.69034827
vn 0.45180452 -0.89207155 -0.009005437
vn 0.73671716 -0.16282889 0.65630364
vn 0.9911839 -0.13249287 0.00031367762
vn 0.4840524 0.576331 0.65843445
vn 0.4780197 0.8783489 -0.0005214581
vn 0.4780197 0.8783489 -0.0005214581
vn -0.7275419 0.3449212 -0.5930532
vn -0.86445445 0.4471673 0.22969532
vn -0.7275419 0.3449212 -0.5930532
vn -0.8121748 0.58341426 -0.00036243917
vn 0.51068944 0.5766991 -0.63766336
vn 0.4780197 0.8783489 -0.0005214581
vn 0.007823061 0.757723 -0.6525294
vn -0.1095523 0.63806766 -0.7621469
vn -0.483461 -0.160536 -0.8605194
vn -0.88131857 0.38883725 -0.26848292
vn -0.6921033 -0.514804 0.50593466
vn -0.8121748 0.58341426 -0.00036243917
vn -0.8085529 -0.5884215 -0.0015489626
vn -0.8121748 0.58341426 -0.00036243917
vn -0.77008843 -0.63789856 -0.0070131817
vn 0.21373715 0.03263414 -0.97634596
vn -0.35133594 -0.6195999 -0.7018967
vn -0.7819868 -0.6232325 -0.00883194
vn -0.24884519 -0.9684817 -0.010921101
vn 0.41957667 -0.57925856 -0.69886684
vn 0.45180452 -0.89207155 -0.009005437
vn 0.7416316 -0.1656773 -0.65002584
vn 0.9911839 -0.13249287 0.00031367762
vn 0.4780197 0.8783489 -0.0005214581
vn -0.07306555 0.99682 0.03180323
vn -0.7275419 0.3449212 -0.5930532
vn -0.6921033 -0.514804 0.50593466
vn -0.8085529 -0.5884215 -0.0015489626
vn -0.88131857 0.38883725 -0.26848292
g Object014_0
f 3/3/3 2/2/2 1/1/1
f 1/1/1 5/5/5 4/4/4
f 6/6/6 4/4/4 5/5/5
f 7/7/7 5/5/5 1/1/1
f 5/5/5 7/7/7 8/8/8
f 5/5/5 8/8/8 6/6/6
f 7/7/7 9/9/9 8/8/8
f 10/10/10 8/8/8 9/9/9
f 8/8/8 10/10/10 11/11/11
f 12/12/12 11/11/11 10/10/10
f 13/13/13 11/11/11 12/12/12
f 14/14/14 6/6/6 8/8/8
f 8/8/8 11/11/11 14/14/14
f 11/11/11 13/13/13 15/15/15
f 15/15/15 14/14/14 11/11/11
f 16/16/16 15/15/15 13/13/13
f 15/15/15 16/16/16 17/17/17
f 14/14/14 15/15/15 17/17/17
f 18/18/18 17/17/17 16/16/16
f 6/6/6 14/14/14 19/19/19
f 14/14/14 17/17/17 19/19/19
f 17/17/17 18/18/18 19/19/19
f 20/20/20 19/19/19 18/18/18
f 6/6/6 19/19/19 4/4/4
f 21/21/21 4/4/4 19/19/19
f 23/23/23 22/22/22 9/9/9
f 25/25/25 9/9/9 24/24/24
f 27/27/27 26/26/26 4/4/4
f 28/28/28 4/4/4 26/26/26
f 28/28/28 29/29/29 4/4/4
f 1/1/1 4/4/4 29/29/29
f 29/29/29 28/28/28 30/30/30
f 29/29/29 31/31/31 1/1/1
f 31/31/31 29/29/29 30/30/30
f 31/31/31 32/32/32 1/1/1
f 32/32/32 33/33/33 1/1/1
f 31/31/31 30/30/30 34/34/34
f 35/35/35 32/32/32 34/34/34
f 36/36/36 34/34/34 30/30/30
f 37/37/37 30/30/30 28/28/28
f 37/37/37 28/28/28 26/26/26
f 30/30/30 38/38/38 36/36/36
f 30/30/30 37/37/37 38/38/38
f 39/39/39 36/36/36 38/38/38
f 38/38/38 40/40/40 39/39/39
f 38/38/38 41/41/41 40/40/40
f 41/41/41 38/38/38 37/37/37
f 42/42/42 40/40/40 41/41/41
f 41/41/41 37/37/37 43/43/43
f 41/41/41 43/43/43 42/42/42
f 43/43/43 37/37/37 26/26/26
f 44/44/44 42/42/42 43/43/43
f 43/43/43 26/26/26 44/44/44
f 45/45/45 44/44/44 26/26/26
f 47/47/47 7/7/7 46/46/46
f 50/50/50 49/49/49 48/48/48
