g Object015
v -0.11498962 -0.40475798 -0.015203895
v -0.10570114 -0.64317596 0.17294045
v -0.023882598 -0.5313696 0.030567436
v -0.12959243 -0.21131638 0.12835243
v -0.1735968 -0.37859312 0.16504775
v -0.115081325 -0.20657608 0.04152908
v -0.23178054 0.1543768 0.04482948
v -0.14847 -0.6330096 0.17206222
v -0.18002044 -0.6458068 0.21211052
v -0.10570114 -0.64317596 0.17294045
v -0.08342514 -0.67106205 0.21446952
v -0.03187027 -0.25019476 -0.07287262
v -0.023882598 -0.5313696 0.030567436
v -0.19662307 0.1092007 -0.14507453
v -0.18162383 0.18941398 -0.14517242
v -0.22756897 0.24637717 0.035579033
v -0.031901244 0.10336376 -0.2645604
v 0.08175933 -0.2506067 -0.07228119
v -0.2639035 0.44549614 -0.22015807
v -0.32230207 0.5275328 -0.057983436
v -0.16992415 0.5812926 -0.068988375
v -0.06907211 0.32829762 -0.32597396
v -0.1695874 0.4923885 -0.23739406
v -0.09398025 0.48106202 -0.23502511
v -0.08643097 0.57023853 -0.072311245
v 0.13568924 0.39277992 -0.33944646
v 0.11983764 0.61392415 -0.30236137
v 0.13448837 0.6710622 -0.19789836
v 0.2600177 0.56384367 -0.2979001
v 0.2906035 0.65502423 -0.15560424
v 0.14878327 0.10103157 -0.2771359
v 0.2859744 0.35098702 -0.16882958
v 0.26830184 0.12108955 -0.12616764
v 0.30209562 0.16572015 0.042962227
v 0.32230207 0.4252198 -0.006632156
v 0.2906035 0.65502423 -0.15560424
v 0.26058182 0.65484565 0.029472427
v 0.1405783 -0.29956353 0.062033307
v 0.17609604 -0.31152916 0.13615699
v 0.2835861 0.4300507 0.1416288
v 0.17121291 -0.2834036 0.23878783
v -0.024811553 -0.45418012 0.29330572
v 0.2701979 0.17962153 0.2061077
v 0.14818634 0.2000419 0.29870787
v 0.13515519 0.47859976 0.24453239
v -0.031783294 0.19987321 0.28580177
v 0.10801834 -0.2001818 0.33944649
v -0.024811553 -0.45418012 0.29330572
v 0.009294586 -0.4925427 0.1868595
v -0.023882598 -0.5313696 0.030567436
v -0.08342514 -0.67106205 0.21446952
v 0.12505096 0.6579776 0.107564844
v 0.2906035 0.65502423 -0.15560424
v -0.032431334 -0.19560562 0.31254026
v -0.10527832 -0.62363404 0.2632791
v -0.08342514 -0.67106205 0.21446952
v -0.1156195 -0.3508849 0.2510002
v -0.09498566 -0.1876139 0.23853241
v -0.09333969 0.5700903 0.11908706
v -0.068494566 0.41373008 0.25815436
v -0.08643097 0.57023853 -0.072311245
v 0.2906035 0.65502423 -0.15560424
v 0.13448837 0.6710622 -0.19789836
v -0.16992415 0.5812926 -0.068988375
v -0.16951568 0.5792307 0.08138233
v -0.26415068 0.5298762 0.08360474
v -0.32230207 0.5275328 -0.057983436
v -0.22756897 0.24637717 0.035579033
v -0.20753585 0.24534269 0.17586403
v -0.23178054 0.1543768 0.04482948
v -0.16618514 0.16734363 0.19167824
v -0.12959243 -0.21131638 0.12835243
v -0.1735968 -0.37859312 0.16504775
v -0.14893554 -0.6127953 0.26232955
v -0.18002044 -0.6458068 0.21211052
v -0.08342514 -0.67106205 0.21446952
vt 0.3108097 0.09475377
vt 0.25133508 0.027332224
vt 0.2714665 0.07362044
vt 0.37534583 0.11363236
vt 0.3434435 0.059568502
vt 0.35754043 0.13177308
vt 0.43610334 0.21606576
vt 0.26618084 0.024288341
vt 0.269803 0.01152628
vt 0.25133508 0.027332224
vt 0.23304228 0.018802434
vt 0.31800506 0.1466198
vt 0.2714665 0.07362044
vt 0.38778538 0.23621686
vt 0.39603388 0.26118937
vt 0.449383 0.25196332
vt 0.34129158 0.2568967
vt 0.28838116 0.15758178
vt 0.41049463 0.33696365
vt 0.4580948 0.3508706
vt 0.4224822 0.39702693
vt 0.35538074 0.31836343
vt 0.39147276 0.35622463
vt 0.3708685 0.36583492
vt 0.39053977 0.41396
vt 0.30758232 0.3440642
vt 0.3060187 0.39967823
vt 0.30028954 0.4404358
vt 0.27335265 0.38855296
vt 0.2313125 0.41584712
vt 0.300791 0.26670876
vt 0.25374302 0.3298192
vt 0.2583332 0.26897946
vt 0.21967521 0.27040416
vt 0.21286348 0.33939856
vt 0.2313125 0.41584712
vt 0.18970478 0.3878617
vt 0.2512868 0.14216445
vt 0.23553133 0.1380066
vt 0.1836645 0.3250473
vt 0.21333724 0.1390971
vt 0.19065484 0.07501334
vt 0.18492934 0.26022825
vt 0.1524336 0.2524823
vt 0.14381425 0.32412854
vt 0.110766724 0.24322943
vt 0.1798069 0.15019089
vt 0.19065484 0.07501334
vt 0.22620994 0.073578455
vt 0.2714665 0.07362044
vt 0.23304228 0.018802434
vt 0.15312684 0.37874243
vt 0.2313125 0.41584712
vt 0.14663641 0.13788584
vt 0.20995922 0.02929236
vt 0.23304228 0.018802434
vt 0.14801046 0.08552467
vt 0.122214995 0.13263701
vt 0.09416865 0.36416075
vt 0.099654004 0.3024401
vt 0.10205162 0.4234769
vt 0.2313125 0.41584712
vt 0.18487535 0.44253176
vt 0.059506282 0.4039262
vt 0.07353957 0.36552033
vt 0.050170958 0.3463031
vt 0.014106937 0.36258304
vt 0.021462847 0.260054
vt 0.05725063 0.2593438
vt 0.029825937 0.21905324
vt 0.07128867 0.230006
vt 0.095162705 0.11611978
vt 0.1290226 0.06486978
vt 0.1978994 0.027052537
vt 0.19517381 0.010128706
vt 0.23304228 0.018802434
vn -0.6235252 -0.20482518 -0.7544952
vn 0.16706562 -0.7628817 -0.6245803
vn 0.2908807 -0.7270378 -0.621936
vn -0.9972882 -0.027696472 0.06818495
vn -0.98697484 0.13341182 0.0899001
vn -0.93551815 -0.1716617 -0.30876863
vn -0.9915038 -0.11768776 0.05540591
vn -0.4917862 -0.5747112 -0.65410495
vn -0.8000837 -0.5985963 0.039352756
vn 0.16706562 -0.7628817 -0.6245803
vn 0.42862687 -0.9002405 0.076459765
vn -0.38613087 -0.3378684 -0.85834014
vn 0.2908807 -0.7270378 -0.621936
vn -0.84427154 -0.1320179 -0.5194004
vn -0.857941 -0.1328007 -0.49628738
vn -0.99255157 -0.121751025 0.0042480547
vn -0.3309705 -0.3442982 -0.8785882
vn 0.43506035 -0.48497862 -0.75862926
vn -0.77151984 0.15581584 -0.6168294
vn -0.8906474 0.44595227 -0.08873428
vn -0.13342938 0.9641657 -0.2293059
vn -0.3211228 -0.029277531 -0.9465849
vn -0.1781846 0.68764275 -0.7038449
vn -0.1630343 0.6583142 -0.7348757
vn -0.16636495 0.96442163 -0.20545943
vn 0.21723689 -0.041954298 -0.97521687
vn -0.16396269 0.6222604 -0.76544636
vn -0.11988366 0.9903155 -0.070021875
vn 0.63924676 0.26691863 -0.7211921
vn 0.66137725 0.7298043 -0.17310634
vn 0.3933464 -0.3522501 -0.8492341
vn 0.903305 -0.12581614 -0.4101346
vn 0.8884592 -0.27553347 -0.3670444
vn 0.9871968 -0.1577302 0.02374112
vn 0.9980179 0.044681765 0.044314753
vn 0.66137725 0.7298043 -0.17310634
vn 0.5916869 0.74664134 0.30402863
vn 0.7894303 -0.420285 -0.44739273
vn 0.8732739 -0.47922066 -0.08797792
vn 0.82945675 0.19472523 0.5235298
vn 0.81366265 -0.39913142 0.42266673
vn 0.21808949 -0.34809858 0.911737
vn 0.84353226 -0.025280254 0.5364832
vn 0.31195483 0.10801623 0.9439368
vn 0.23770784 0.41309422 0.8791179
vn -0.31436533 0.06943951 0.9467589
vn 0.37892056 -0.10077837 0.9199256
vn 0.21808949 -0.34809858 0.911737
vn 0.78705794 -0.5798026 0.21063922
vn 0.2908807 -0.7270378 -0.621936
vn 0.42862687 -0.9002405 0.076459765
vn -0.02043148 0.9024086 0.43039674
vn 0.66137725 0.7298043 -0.17310634
vn -0.4704734 0.02770942 0.881979
vn 0.2076152 -0.44692162 0.87014776
vn 0.42862687 -0.9002405 0.076459765
vn -0.71662533 0.100823745 0.6901324
vn -0.8539446 0.03380684 0.5192646
vn -0.22925515 0.8380295 0.4951249
vn -0.29575446 0.3087276 0.90400034
vn -0.16636495 0.96442163 -0.20545943
vn 0.66137725 0.7298043 -0.17310634
vn -0.11988366 0.9903155 -0.070021875
vn -0.13342938 0.9641657 -0.2293059
vn -0.22748072 0.9129944 0.33866474
vn -0.7328619 0.48086852 0.48133045
vn -0.8906474 0.44595227 -0.08873428
vn -0.99255157 -0.121751025 0.0042480547
vn -0.814555 -0.099623464 0.5714678
vn -0.9915038 -0.11768776 0.05540591
vn -0.7372627 -0.15068044 0.6585886
vn -0.9972882 -0.027696472 0.06818495
vn -0.98697484 0.13341182 0.0899001
vn -0.48155257 -0.24759461 0.8407164
vn -0.8000837 -0.5985963 0.039352756
vn 0.42862687 -0.9002405 0.076459765
g Object015_0
f 3/3/3 2/2/2 1/1/1
f 5/5/5 4/4/4 1/1/1
f 6/6/6 1/1/1 4/4/4
f 4/4/4 7/7/7 6/6/6
f 1/1/1 8/8/8 5/5/5
f 9/9/9 5/5/5 8/8/8
f 8/8/8 10/10/10 9/9/9
f 8/8/8 1/1/1 10/10/10
f 11/11/11 9/9/9 10/10/10
f 12/12/12 1/1/1 6/6/6
f 1/1/1 12/12/12 13/13/13
f 14/14/14 6/6/6 7/7/7
f 12/12/12 6/6/6 14/14/14
f 14/14/14 7/7/7 15/15/15
f 16/16/16 15/15/15 7/7/7
f 17/17/17 12/12/12 14/14/14
f 14/14/14 15/15/15 17/17/17
f 18/18/18 13/13/13 12/12/12
f 12/12/12 17/17/17 18/18/18
f 15/15/15 16/16/16 19/19/19
f 20/20/20 19/19/19 16/16/16
f 20/20/20 21/21/21 19/19/19
f 15/15/15 19/19/19 22/22/22
f 22/22/22 17/17/17 15/15/15
f 23/23/23 19/19/19 21/21/21
f 23/23/23 22/22/22 19/19/19
f 23/23/23 21/21/21 24/24/24
f 22/22/22 23/23/23 24/24/24
f 25/25/25 24/24/24 21/21/21
f 22/22/22 26/26/26 17/17/17
f 22/22/22 24/24/24 26/26/26
f 24/24/24 25/25/25 27/27/27
f 27/27/27 26/26/26 24/24/24
f 28/28/28 27/27/27 25/25/25
f 27/27/27 28/28/28 29/29/29
f 27/27/27 29/29/29 26/26/26
f 30/30/30 29/29/29 28/28/28
f 31/31/31 17/17/17 26/26/26
f 31/31/31 18/18/18 17/17/17
f 32/32/32 26/26/26 29/29/29
f 26/26/26 32/32/32 31/31/31
f 31/31/31 33/33/33 18/18/18
f 33/33/33 31/31/31 32/32/32
f 33/33/33 32/32/32 34/34/34
f 32/32/32 29/29/29 35/35/35
f 35/35/35 34/34/34 32/32/32
f 36/36/36 35/35/35 29/29/29
f 36/36/36 37/37/37 35/35/35
f 33/33/33 38/38/38 18/18/18
f 33/33/33 34/34/34 38/38/38
f 18/18/18 38/38/38 13/13/13
f 38/38/38 39/39/39 13/13/13
f 39/39/39 38/38/38 34/34/34
f 35/35/35 40/40/40 34/34/34
f 40/40/40 35/35/35 37/37/37
f 39/39/39 34/34/34 41/41/41
f 41/41/41 42/42/42 39/39/39
f 43/43/43 34/34/34 40/40/40
f 43/43/43 41/41/41 34/34/34
f 43/43/43 40/40/40 44/44/44
f 43/43/43 44/44/44 41/41/41
f 40/40/40 37/37/37 45/45/45
f 45/45/45 44/44/44 40/40/40
f 44/44/44 45/45/45 46/46/46
f 47/47/47 41/41/41 44/44/44
f 44/44/44 46/46/46 47/47/47
f 41/41/41 47/47/47 48/48/48
f 49/49/49 39/39/39 48/48/48
f 49/49/49 50/50/50 39/39/39
f 50/50/50 49/49/49 10/10/10
f 51/51/51 10/10/10 49/49/49
f 52/52/52 45/45/45 37/37/37
f 52/52/52 37/37/37 53/53/53
f 54/54/54 47/47/47 46/46/46
f 47/47/47 54/54/54 48/48/48
f 48/48/48 55/55/55 49/49/49
f 56/56/56 49/49/49 55/55/55
f 57/57/57 48/48/48 54/54/54
f 48/48/48 57/57/57 55/55/55
f 54/54/54 46/46/46 58/58/58
f 57/57/57 54/54/54 58/58/58
f 52/52/52 59/59/59 45/45/45
f 60/60/60 46/46/46 45/45/45
f 60/60/60 45/45/45 59/59/59
f 59/59/59 52/52/52 61/61/61
f 61/61/61 52/52/52 62/62/62
f 63/63/63 61/61/61 62/62/62
f 61/61/61 64/64/64 59/59/59
f 65/65/65 59/59/59 64/64/64
f 65/65/65 60/60/60 59/59/59
f 65/65/65 64/64/64 66/66/66
f 65/65/65 66/66/66 60/60/60
f 67/67/67 66/66/66 64/64/64
f 67/67/67 68/68/68 66/66/66
f 69/69/69 60/60/60 66/66/66
f 69/69/69 66/66/66 68/68/68
f 60/60/60 69/69/69 46/46/46
f 68/68/68 70/70/70 69/69/69
f 71/71/71 46/46/46 69/69/69
f 71/71/71 69/69/69 70/70/70
f 71/71/71 58/58/58 46/46/46
f 71/71/71 70/70/70 58/58/58
f 72/72/72 58/58/58 70/70/70
f 58/58/58 72/72/72 57/57/57
f 73/73/73 57/57/57 72/72/72
f 57/57/57 73/73/73 74/74/74
f 74/74/74 55/55/55 57/57/57
f 75/75/75 74/74/74 73/73/73
f 74/74/74 75/75/75 55/55/55
f 76/76/76 55/55/55 75/75/75
