g Object005
v 0.10133895 -0.23850074 0.15393604
v 0.11945266 -0.121247075 0.17853935
v 0.17305008 -0.17120224 0.14616084
v 0.07954086 -0.18050575 0.17708832
v 0.027404938 -0.15151964 0.16797873
v -0.0017127991 -0.2188626 0.1300962
v -0.08040542 -0.10047771 0.017616043
v -0.03910019 -0.024831314 0.07415405
v -0.108421475 0.10730148 -0.02136856
v -0.15300155 0.0479245 -0.06865843
v 0.048425443 0.052960012 0.07048443
v -0.15441452 0.19180565 -0.08940784
v -0.17305008 0.16905335 -0.12197056
v -0.058639374 0.24531208 -0.14646755
v -0.08365463 0.2433862 -0.10641098
v -0.0017811584 0.16120522 -0.033988647
v 0.027891388 0.14067799 -0.08836754
v -0.058639374 0.24531208 -0.14646755
v -0.035222016 0.18013695 -0.1785393
v 0.11124832 0.01263462 0.0051382827
v 0.17305008 -0.17120224 0.14616084
v 0.14637099 -0.19984134 0.059312973
v 0.08756485 -0.031193618 -0.06167152
v 0.008740692 0.09085968 -0.13169032
v -0.11918441 0.12887576 -0.16137397
v -0.058639374 0.24531208 -0.14646755
v -0.17305008 0.16905335 -0.12197056
v -0.15300155 0.0479245 -0.06865843
v -0.116615444 0.011677207 -0.117706865
v -0.08040542 -0.10047771 0.017616043
v -0.015438995 -0.14232303 -0.047951963
v 0.0333284 -0.23114568 0.049097747
v -0.0017127991 -0.2188626 0.1300962
v 0.10133895 -0.23850074 0.15393604
v 0.17305008 -0.17120224 0.14616084
v 0.09577926 -0.24531204 0.09799213
vt 0.010196886 0.9449058
vt 0.037970744 0.92972165
vt 0.022651758 0.91266686
vt 0.028034855 0.94442505
vt 0.040761612 0.9554774
vt 0.030138683 0.97416675
vt 0.08386575 0.9910144
vt 0.08778724 0.9638732
vt 0.13747539 0.9594383
vt 0.14055377 0.98304963
vt 0.095117494 0.9357659
vt 0.16885875 0.95213526
vt 0.17570087 0.96032465
vt 0.17873828 0.9160544
vt 0.17187633 0.9282635
vt 0.13618796 0.9275872
vt 0.13737021 0.91194534
vt 0.17873828 0.9160544
vt 0.16331092 0.90273434
vt 0.08996953 0.91335
vt 0.022651758 0.91266686
vt 0.03845815 0.8922986
vt 0.09436664 0.89511454
vt 0.13627933 0.89581
vt 0.16385555 0.87664086
vt 0.17873828 0.9160544
vt 0.18237287 0.8679761
vt 0.14635935 0.84195346
vt 0.13566491 0.85659236
vt 0.087321684 0.8333493
vt 0.08203629 0.85886157
vt 0.04498789 0.8621021
vt 0.030615661 0.84439766
vt 0.013494033 0.8772611
vt 0.022651758 0.91266686
vt 0.02824479 0.87603843
vn 0.20714244 -0.7968212 0.5675985
vn 0.33814666 0.33359662 0.879983
vn 0.90473855 -0.14691433 0.39983055
vn -0.07603696 -0.26161158 0.9621735
vn -0.47039834 0.05893554 0.8804839
vn -0.6475433 -0.6275182 0.4323292
vn -0.90575945 -0.3907695 0.16400929
vn -0.6034467 0.22809228 0.764085
vn -0.5380407 0.3266868 0.777038
vn -0.9708346 -0.20615453 0.12239515
vn 0.25297657 0.6520297 0.71474487
vn -0.67900157 0.6014968 0.4209021
vn -0.91977143 0.22890943 -0.31878027
vn 0.17937192 0.8882147 -0.42296603
vn -0.15123829 0.94662786 0.28464484
vn 0.36780608 0.75790066 0.5387998
vn 0.8549372 0.48477066 -0.18460697
vn 0.17937192 0.8882147 -0.42296603
vn 0.3456501 0.19284956 -0.91833276
vn 0.91352105 0.40426555 -0.045260616
vn 0.90473855 -0.14691433 0.39983055
vn 0.73979986 -0.49527487 -0.45541087
vn 0.6604341 -0.1285802 -0.7397932
vn 0.5274284 -0.14163741 -0.83771
vn -0.38368863 -0.15640812 -0.9101207
vn 0.17937192 0.8882147 -0.42296603
vn -0.91977143 0.22890943 -0.31878027
vn -0.9708346 -0.20615453 0.12239515
vn -0.48129958 -0.47603688 -0.73602974
vn -0.90575945 -0.3907695 0.16400929
vn -0.21843117 -0.6525057 -0.72561985
vn -0.220147 -0.8843042 -0.41175398
vn -0.6475433 -0.6275182 0.4323292
vn 0.20714244 -0.7968212 0.5675985
vn 0.90473855 -0.14691433 0.39983055
vn 0.20247947 -0.97260904 -0.11416589
g Object005_0
f 3/3/3 2/2/2 1/1/1
f 4/4/4 1/1/1 2/2/2
f 4/4/4 5/5/5 1/1/1
f 4/4/4 2/2/2 5/5/5
f 6/6/6 1/1/1 5/5/5
f 6/6/6 5/5/5 7/7/7
f 8/8/8 7/7/7 5/5/5
f 5/5/5 2/2/2 8/8/8
f 8/8/8 9/9/9 7/7/7
f 10/10/10 7/7/7 9/9/9
f 11/11/11 8/8/8 2/2/2
f 8/8/8 11/11/11 9/9/9
f 9/9/9 12/12/12 10/10/10
f 13/13/13 10/10/10 12/12/12
f 13/13/13 12/12/12 14/14/14
f 15/15/15 14/14/14 12/12/12
f 9/9/9 16/16/16 12/12/12
f 15/15/15 12/12/12 16/16/16
f 16/16/16 9/9/9 11/11/11
f 16/16/16 17/17/17 15/15/15
f 16/16/16 11/11/11 17/17/17
f 18/18/18 15/15/15 17/17/17
f 18/18/18 17/17/17 19/19/19
f 11/11/11 2/2/2 20/20/20
f 20/20/20 17/17/17 11/11/11
f 21/21/21 20/20/20 2/2/2
f 21/21/21 22/22/22 20/20/20
f 20/20/20 23/23/23 17/17/17
f 23/23/23 20/20/20 22/22/22
f 24/24/24 19/19/19 17/17/17
f 24/24/24 17/17/17 23/23/23
f 19/19/19 24/24/24 25/25/25
f 19/19/19 25/25/25 26/26/26
f 27/27/27 26/26/26 25/25/25
f 27/27/27 25/25/25 28/28/28
f 29/29/29 25/25/25 24/24/24
f 29/29/29 28/28/28 25/25/25
f 24/24/24 23/23/23 29/29/29
f 28/28/28 29/29/29 30/30/30
f 31/31/31 29/29/29 23/23/23
f 31/31/31 30/30/30 29/29/29
f 23/23/23 22/22/22 31/31/31
f 31/31/31 32/32/32 30/30/30
f 32/32/32 31/31/31 22/22/22
f 33/33/33 30/30/30 32/32/32
f 33/33/33 32/32/32 34/34/34
f 35/35/35 34/34/34 22/22/22
f 36/36/36 34/34/34 32/32/32
f 36/36/36 22/22/22 34/34/34
f 36/36/36 32/32/32 22/22/22
