g Object013
v -0.113389276 -0.043504972 -0.0023082064
v -0.05792923 -0.04636487 0.049459152
v -0.08160827 -0.08089074 -0.005886283
v -0.07126801 -0.019627161 0.051631268
v -0.06744705 0.063650884 0.007922573
v -0.021708831 0.03345885 0.07283039
v 0.04296707 0.038099926 0.062416904
v 0.09947128 0.080890685 0.009581546
v 0.11338943 -0.023702212 -0.00042384147
v 0.020891419 -0.040937297 0.06565611
v 0.035987243 -0.059661224 -0.0038898753
v -0.08160827 -0.08089074 -0.005886283
v -0.057968747 -0.036195267 -0.057915907
v 0.055470124 -0.014954538 0.057234515
v 0.11338943 -0.023702212 -0.00042384147
v 0.11338943 -0.023702212 -0.00042384147
v 0.05556564 -0.0038377666 -0.059594974
v 0.02090927 -0.027725305 -0.07283038
v 0.043021698 0.049396962 -0.054608412
v 0.11338943 -0.023702212 -0.00042384147
v -0.021746214 0.046763048 -0.06575237
v -0.07134598 -0.00942666 -0.05497754
v -0.113389276 -0.043504972 -0.0023082064
v -0.08160827 -0.08089074 -0.005886283
v -0.06744705 0.063650884 0.007922573
v 0.09947128 0.080890685 0.009581546
v 0.11338943 -0.023702212 -0.00042384147
vt 0.4621626 0.8513743
vt 0.4418243 0.85693234
vt 0.45518675 0.87303275
vt 0.4426367 0.8492958
vt 0.43574855 0.8209636
vt 0.4252054 0.8393034
vt 0.40866858 0.8438615
vt 0.38564166 0.83677375
vt 0.39196908 0.8727267
vt 0.42059183 0.8583622
vt 0.41841546 0.8725569
vt 0.45518675 0.87303275
vt 0.44139564 0.88955057
vt 0.41004735 0.85743964
vt 0.39196908 0.8727267
vt 0.39196908 0.8727267
vt 0.41023043 0.8886056
vt 0.42048723 0.88778573
vt 0.40865955 0.90201354
vt 0.39196908 0.8727267
vt 0.42486012 0.90673095
vt 0.44212043 0.8970412
vt 0.46234986 0.8953495
vt 0.45518675 0.87303275
vt 0.43527672 0.92594016
vt 0.3850283 0.9091313
vt 0.39196908 0.8727267
vn -0.9790014 -0.20383891 -0.002436452
vn -0.2605118 -0.6006193 0.7559035
vn -0.36660278 -0.92760515 -0.07177087
vn -0.6111091 -0.013068878 0.79143846
vn -0.6021229 0.79331183 0.09002369
vn -0.19856326 0.44216394 0.87467915
vn 0.28611523 0.42439288 0.859086
vn 0.6737237 0.7341302 0.08455282
vn 0.90524495 -0.42411593 -0.025636489
vn 0.21426962 -0.61392283 0.7597284
vn 0.31851044 -0.94473 -0.07769355
vn -0.36660278 -0.92760515 -0.07177087
vn -0.27107394 -0.46358413 -0.84356904
vn 0.557552 -0.30306533 0.77284366
vn 0.90524495 -0.42411593 -0.025636489
vn 0.90524495 -0.42411593 -0.025636489
vn 0.5744406 -0.15700248 -0.80334806
vn 0.21731 -0.46671236 -0.85729575
vn 0.2992279 0.5906915 -0.74936396
vn 0.90524495 -0.42411593 -0.025636489
vn -0.20551923 0.60678524 -0.76783687
vn -0.62670416 0.13607554 -0.7672844
vn -0.9790014 -0.20383891 -0.002436452
vn -0.36660278 -0.92760515 -0.07177087
vn -0.6021229 0.79331183 0.09002369
vn 0.6737237 0.7341302 0.08455282
vn 0.90524495 -0.42411593 -0.025636489
g Object013_0
f 3/3/3 2/2/2 1/1/1
f 4/4/4 1/1/1 2/2/2
f 1/1/1 4/4/4 5/5/5
f 6/6/6 5/5/5 4/4/4
f 4/4/4 2/2/2 6/6/6
f 6/6/6 7/7/7 5/5/5
f 8/8/8 5/5/5 7/7/7
f 8/8/8 7/7/7 9/9/9
f 10/10/10 6/6/6 2/2/2
f 6/6/6 10/10/10 7/7/7
f 10/10/10 2/2/2 11/11/11
f 12/12/12 11/11/11 2/2/2
f 12/12/12 13/13/13 11/11/11
f 14/14/14 7/7/7 10/10/10
f 10/10/10 11/11/11 14/14/14
f 14/14/14 15/15/15 7/7/7
f 16/16/16 14/14/14 11/11/11
f 16/16/16 11/11/11 17/17/17
f 18/18/18 17/17/17 11/11/11
f 18/18/18 11/11/11 13/13/13
f 17/17/17 18/18/18 19/19/19
f 17/17/17 19/19/19 20/20/20
f 18/18/18 13/13/13 21/21/21
f 21/21/21 19/19/19 18/18/18
f 22/22/22 21/21/21 13/13/13
f 22/22/22 13/13/13 23/23/23
f 24/24/24 23/23/23 13/13/13
f 23/23/23 25/25/25 22/22/22
f 21/21/21 22/22/22 25/25/25
f 21/21/21 25/25/25 19/19/19
f 26/26/26 19/19/19 25/25/25
f 26/26/26 27/27/27 19/19/19
