g Object007
v 0.25248778 0.14449893 -0.11984295
v 0.3295535 0.14920352 0.015725289
v 0.22850142 0.26322275 -0.042097814
v 0.3295535 0.14920352 0.015725289
v 0.30464765 0.090890765 -0.05496807
v 0.21772125 -0.0009822464 -0.0639452
v 0.21413772 0.02826397 0.04832981
v 0.3295535 0.14920352 0.015725289
v 0.026673278 -0.12794155 0.06774158
v 0.11926361 0.08158817 -0.1389571
v 0.057444 -0.122196004 -0.05667423
v 0.060624234 0.1803416 -0.026750831
v 0.22850142 0.26322275 -0.042097814
v -0.16805634 -0.23904178 -0.059892233
v -0.2633151 -0.2632229 0.040564995
v -0.3295535 -0.22441334 -0.030957451
v -0.23972167 -0.20021114 -0.10019672
v -0.061555326 -0.03197849 -0.12313388
v -0.17993698 0.061789513 -0.01961933
v -0.31285858 -0.087660104 -0.02146389
v -0.3295535 -0.22441334 -0.030957451
v -0.32066038 -0.12174076 0.04718807
v -0.3295535 -0.22441334 -0.030957451
v 0.054911803 0.14375927 0.037097357
v 0.22021377 0.22723423 0.015721474
v 0.22850142 0.26322275 -0.042097814
v 0.15164916 0.07551105 0.11786899
v 0.2745152 0.17996876 0.06750416
v 0.3295535 0.14920352 0.015725289
v 0.22850142 0.26322275 -0.042097814
v 0.21413772 0.02826397 0.04832981
v -0.02842102 -0.077206835 0.1389571
v 0.026673278 -0.12794155 0.06774158
v -0.14274979 -0.005458412 0.051168706
v -0.17993698 0.061789513 -0.01961933
v -0.23221831 -0.18810742 0.06877491
v -0.3295535 -0.22441334 -0.030957451
v -0.2633151 -0.2632229 0.040564995
v -0.3295535 -0.22441334 -0.030957451
vt 0.85260946 0.47381416
vt 0.8242678 0.5038663
vt 0.8856316 0.49816
vt 0.8242678 0.5038663
vt 0.8289764 0.47985065
vt 0.82013303 0.44588298
vt 0.7912548 0.45494318
vt 0.8242678 0.5038663
vt 0.7873689 0.37531123
vt 0.8571023 0.43793547
vt 0.81840223 0.3892414
vt 0.8982389 0.44414586
vt 0.8856316 0.49816
vt 0.8411944 0.32070678
vt 0.834864 0.2835309
vt 0.88350874 0.28701007
vt 0.8611121 0.31460512
vt 0.85950786 0.38207877
vt 0.9036351 0.37273258
vt 0.8965212 0.32233745
vt 0.88350874 0.28701007
vt 0.90530723 0.3149473
vt 0.88350874 0.28701007
vt 0.9149174 0.43653256
vt 0.9074231 0.48769134
vt 0.8856316 0.49816
vt 0.950808 0.44657806
vt 0.9319676 0.49029636
vt 0.94135916 0.50872654
vt 0.8856316 0.49816
vt 0.9746307 0.4601737
vt 0.96093804 0.3788807
vt 0.9853651 0.37819177
vt 0.9239446 0.36875123
vt 0.9036351 0.37273258
vt 0.9309381 0.31442568
vt 0.88350874 0.28701007
vt 0.93030477 0.2905744
vt 0.88350874 0.28701007
vn 0.39587197 0.21742888 -0.8921939
vn 0.9665804 0.10195462 0.23521821
vn 0.1531727 0.9630012 -0.2217361
vn 0.9665804 0.10195462 0.23521821
vn 0.86963546 -0.36860988 -0.32842198
vn 0.60732776 -0.6892115 -0.39514622
vn 0.638749 -0.5728444 0.51366234
vn 0.9665804 0.10195462 0.23521821
vn 0.46206972 -0.76163805 0.45431173
vn -0.012306957 0.14002596 -0.9900713
vn 0.46988034 -0.75554115 -0.45647562
vn -0.41840062 0.8904691 -0.1789012
vn 0.1531727 0.9630012 -0.2217361
vn 0.25309145 -0.8675352 -0.42816746
vn -0.33894417 -0.7942162 0.5043188
vn -0.83477783 -0.5057034 -0.2177386
vn -0.2722316 -0.31694388 -0.90853536
vn -0.124706216 0.03890098 -0.9914308
vn -0.61381274 0.7842924 -0.09010751
vn -0.806554 0.45823014 -0.37349123
vn -0.83477783 -0.5057034 -0.2177386
vn -0.7850317 0.1344293 0.6046933
vn -0.83477783 -0.5057034 -0.2177386
vn -0.33601272 0.68521696 0.6461989
vn 0.027221866 0.8075542 0.5891649
vn 0.1531727 0.9630012 -0.2217361
vn 0.16531487 0.09557606 0.9815988
vn 0.46419328 0.45187584 0.76179576
vn 0.9665804 0.10195462 0.23521821
vn 0.1531727 0.9630012 -0.2217361
vn 0.638749 -0.5728444 0.51366234
vn 0.016581737 -0.15156363 0.9883083
vn 0.46206972 -0.76163805 0.45431173
vn -0.35083085 0.52239794 0.77718604
vn -0.61381274 0.7842924 -0.09010751
vn -0.24550237 -0.29372555 0.9238257
vn -0.83477783 -0.5057034 -0.2177386
vn -0.33894417 -0.7942162 0.5043188
vn -0.83477783 -0.5057034 -0.2177386
g Object007_0
f 3/3/3 2/2/2 1/1/1
f 5/5/5 1/1/1 4/4/4
f 5/5/5 6/6/6 1/1/1
f 6/6/6 5/5/5 7/7/7
f 8/8/8 7/7/7 5/5/5
f 7/7/7 9/9/9 6/6/6
f 10/10/10 1/1/1 6/6/6
f 11/11/11 6/6/6 9/9/9
f 6/6/6 11/11/11 10/10/10
f 10/10/10 12/12/12 1/1/1
f 13/13/13 1/1/1 12/12/12
f 11/11/11 9/9/9 14/14/14
f 15/15/15 14/14/14 9/9/9
f 15/15/15 16/16/16 14/14/14
f 17/17/17 14/14/14 16/16/16
f 14/14/14 17/17/17 11/11/11
f 18/18/18 10/10/10 11/11/11
f 18/18/18 11/11/11 17/17/17
f 18/18/18 19/19/19 10/10/10
f 18/18/18 17/17/17 19/19/19
f 12/12/12 10/10/10 19/19/19
f 20/20/20 19/19/19 17/17/17
f 21/21/21 20/20/20 17/17/17
f 20/20/20 22/22/22 19/19/19
f 23/23/23 22/22/22 20/20/20
f 12/12/12 19/19/19 24/24/24
f 24/24/24 25/25/25 12/12/12
f 26/26/26 12/12/12 25/25/25
f 24/24/24 27/27/27 25/25/25
f 28/28/28 25/25/25 27/27/27
f 28/28/28 29/29/29 25/25/25
f 30/30/30 25/25/25 29/29/29
f 29/29/29 28/28/28 31/31/31
f 27/27/27 31/31/31 28/28/28
f 27/27/27 32/32/32 31/31/31
f 27/27/27 24/24/24 32/32/32
f 33/33/33 31/31/31 32/32/32
f 34/34/34 32/32/32 24/24/24
f 34/34/34 22/22/22 32/32/32
f 34/34/34 24/24/24 35/35/35
f 34/34/34 35/35/35 22/22/22
f 32/32/32 36/36/36 33/33/33
f 36/36/36 32/32/32 22/22/22
f 22/22/22 37/37/37 36/36/36
f 38/38/38 33/33/33 36/36/36
f 38/38/38 36/36/36 39/39/39
