g Object003
v 0.026486969 -0.25344142 -0.07814631
v 0.11566818 -0.17081723 0.015582938
v 0.09026825 -0.25208354 -0.0777812
v 0.07032776 -0.17473598 0.015551276
v -0.0017359924 -0.17462566 -0.060809158
v 0.022056274 -0.17098948 0.025228934
v -0.07088363 -0.10600841 0.05210218
v -0.09638267 -0.11057705 -0.044102997
v 0.008531494 -0.06770611 0.06535886
v -0.14754699 -0.05542263 0.07363073
v -0.19416946 -0.04143169 -0.030208306
v -0.07868362 -0.002706871 0.09307936
v -0.10437904 0.10936374 0.1230438
v -0.12953041 0.14699711 0.04584234
v 0.09669205 0.2498418 0.08186887
v 0.08588089 0.21358126 0.1545571
v 0.07370026 -0.14973369 0.07713109
v 0.035988465 -0.06968486 0.14539136
v -0.040377196 0.07581867 0.14384672
v 0.08588089 0.21358126 0.1545571
v 0.10219787 -0.13624355 0.085343376
v -0.041068114 -0.004939995 0.1831226
v 0.094225764 0.107263066 0.22197911
v 0.071359254 0.14085743 0.16514257
v 0.1548503 0.14450932 0.14640783
v 0.094225764 0.107263066 0.22197911
v 0.12407638 0.002854042 0.17114164
v 0.14776397 -0.12836178 0.04165212
v 0.15697692 -0.10758999 -0.05332888
v 0.16388763 0.020858955 0.098729454
v 0.094225764 0.107263066 0.22197911
v 0.19416931 0.050260503 0.012460532
v 0.15939896 0.19918033 0.058158543
v 0.14234573 0.1944083 -0.035473045
v 0.13540481 -0.16220012 -0.070306346
v 0.11610992 -0.15280071 -0.15968615
v 0.09026825 -0.25208354 -0.0777812
v 0.17427276 0.075170934 -0.09516962
v 0.14005676 -0.07878948 -0.13851918
v 0.09660629 0.09183414 -0.20464823
v 0.09551483 0.19394244 -0.1514219
v 0.10323928 -0.05866024 -0.2065928
v 0.013530884 0.03168934 -0.22197911
v -0.04051155 0.08364063 -0.19092229
v 0.0750769 -0.07424221 -0.2093406
v 0.020372467 -0.148139 -0.16674837
v 0.026486969 -0.25344142 -0.07814631
v 0.09026825 -0.25208354 -0.0777812
v -0.0017359924 -0.17462566 -0.060809158
v -0.072403714 -0.056465108 -0.13235323
v -0.09638267 -0.11057705 -0.044102997
v -0.14839965 -0.004629936 -0.11222765
v -0.19416946 -0.04143169 -0.030208306
v -0.1047731 0.15251637 -0.038904786
v -0.12953041 0.14699711 0.04584234
v 0.09669205 0.2498418 0.08186887
v -0.04044037 0.15869327 -0.12753618
v 0.08619613 0.2534415 0.0012913274
v 0.15939896 0.19918033 0.058158543
v 0.072480775 0.22261341 -0.10377153
v 0.15939896 0.19918033 0.058158543
v 0.08588089 0.21358126 0.1545571
v 0.09669205 0.2498418 0.08186887
vt 0.5708245 0.8059783
vt 0.57436395 0.84949577
vt 0.5986933 0.8171299
vt 0.5609304 0.8426969
vt 0.53985876 0.81831145
vt 0.5472137 0.84243596
vt 0.5146302 0.85787225
vt 0.49952352 0.8340006
vt 0.5340191 0.87131155
vt 0.4922642 0.87475896
vt 0.46427226 0.8640586
vt 0.50770366 0.8912666
vt 0.50052035 0.92556477
vt 0.4800675 0.93662727
vt 0.5513284 0.9879042
vt 0.54880095 0.9692626
vt 0.55685425 0.86104786
vt 0.5463048 0.88926756
vt 0.5166898 0.92183983
vt 0.54880095 0.9692626
vt 0.56026787 0.86756504
vt 0.5259334 0.9037117
vt 0.5496793 0.9427407
vt 0.54401624 0.952363
vt 0.57051206 0.9543127
vt 0.5496793 0.9427407
vt 0.5622348 0.9152688
vt 0.57441187 0.86798537
vt 0.5979122 0.8667644
vt 0.5772822 0.9164729
vt 0.5496793 0.9427407
vt 0.5942879 0.92012525
vt 0.5948186 0.97353756
vt 0.61771846 0.9570044
vt 0.5989196 0.84827864
vt 0.6227131 0.84635395
vt 0.5986933 0.8171299
vt 0.61588776 0.9171158
vt 0.61972886 0.8689691
vt 0.6444582 0.91056895
vt 0.64420426 0.9386225
vt 0.63834155 0.8698193
vt 0.65788066 0.88933945
vt 0.6700187 0.89726436
vt 0.6414379 0.86471486
vt 0.6493567 0.8395868
vt 0.6304122 0.80380726
vt 0.5986933 0.8171299
vt 0.6658677 0.81410223
vt 0.68638825 0.8599818
vt 0.7050518 0.8374014
vt 0.7078104 0.8803122
vt 0.7332072 0.87601054
vt 0.6966676 0.93401587
vt 0.7136493 0.94888127
vt 0.6363899 0.9918587
vt 0.67232233 0.9217385
vt 0.6401933 0.97231936
vt 0.5948186 0.97353756
vt 0.6451139 0.9468535
vt 0.5948186 0.97353756
vt 0.54880095 0.9692626
vt 0.5513284 0.9879042
vn -0.48910996 -0.871562 -0.033930294
vn 0.5460547 -0.7595538 0.3534149
vn 0.40495735 -0.91132575 -0.07412796
vn -0.13666801 -0.8194167 0.556667
vn -0.7485769 -0.6625735 0.025078611
vn -0.1334367 -0.79967785 0.58541435
vn -0.28996703 -0.7016548 0.6508453
vn -0.5777891 -0.79078805 -0.20202465
vn -0.41787186 -0.6456319 0.63917327
vn -0.60094875 -0.44429332 0.6644276
vn -0.9475445 -0.29510912 -0.12276008
vn -0.35799468 -0.42146137 0.83319265
vn -0.6064173 0.25694194 0.7524884
vn -0.7612625 0.62409556 0.17602316
vn 0.14700043 0.95377177 0.2621262
vn 0.055399623 0.6586632 0.7503958
vn -0.27984035 -0.8052663 0.5227193
vn -0.24024376 -0.6948714 0.67781764
vn -0.520502 0.15208113 0.84020776
vn 0.055399623 0.6586632 0.7503958
vn 0.3788867 -0.6580322 0.65072155
vn -0.59323996 -0.31053224 0.7427221
vn 0.18039195 0.30637208 0.934663
vn -0.18778571 0.49406493 0.84890306
vn 0.7756122 0.2780227 0.5666825
vn 0.18039195 0.30637208 0.934663
vn 0.5823381 -0.31054676 0.7512943
vn 0.83997554 -0.4692422 0.27249375
vn 0.95784795 -0.27780467 -0.07315624
vn 0.9193224 -0.16125144 0.35894907
vn 0.18039195 0.30637208 0.934663
vn 0.9989548 -0.023751425 0.039055314
vn 0.84614474 0.52637315 0.08348799
vn 0.79951215 0.55223805 -0.23624854
vn 0.9166207 -0.3967091 -0.049278542
vn 0.5812569 -0.48605493 -0.6526032
vn 0.40495735 -0.91132575 -0.07412796
vn 0.92882645 0.12860051 -0.34748125
vn 0.91449386 -0.1225503 -0.38559386
vn 0.42860773 0.26929703 -0.86242366
vn 0.34258306 0.675216 -0.6532382
vn 0.56452507 -0.10740751 -0.8183979
vn -0.24337941 0.021614708 -0.96969026
vn -0.50140274 0.29240063 -0.8143078
vn 0.013789021 -0.30284157 -0.9529411
vn -0.4147271 -0.5449592 -0.7287118
vn -0.48910996 -0.871562 -0.033930294
vn 0.40495735 -0.91132575 -0.07412796
vn -0.7485769 -0.6625735 0.025078611
vn -0.57438153 -0.45390135 -0.68121904
vn -0.5777891 -0.79078805 -0.20202465
vn -0.76229006 -0.07860497 -0.6424446
vn -0.9475445 -0.29510912 -0.12276008
vn -0.67877525 0.6836777 -0.26804665
vn -0.7612625 0.62409556 0.17602316
vn 0.14700043 0.95377177 0.2621262
vn -0.5155425 0.68555176 -0.51403767
vn 0.09037127 0.98902714 -0.11686824
vn 0.84614474 0.52637315 0.08348799
vn 0.016644431 0.9300701 -0.36700502
vn 0.84614474 0.52637315 0.08348799
vn 0.055399623 0.6586632 0.7503958
vn 0.14700043 0.95377177 0.2621262
g Object003_0
f 3/3/3 2/2/2 1/1/1
f 4/4/4 1/1/1 2/2/2
f 1/1/1 4/4/4 5/5/5
f 6/6/6 5/5/5 4/4/4
f 6/6/6 7/7/7 5/5/5
f 8/8/8 5/5/5 7/7/7
f 4/4/4 9/9/9 6/6/6
f 7/7/7 6/6/6 9/9/9
f 7/7/7 10/10/10 8/8/8
f 11/11/11 8/8/8 10/10/10
f 10/10/10 7/7/7 12/12/12
f 9/9/9 12/12/12 7/7/7
f 10/10/10 13/13/13 11/11/11
f 12/12/12 13/13/13 10/10/10
f 14/14/14 11/11/11 13/13/13
f 14/14/14 13/13/13 15/15/15
f 16/16/16 15/15/15 13/13/13
f 4/4/4 17/17/17 9/9/9
f 2/2/2 17/17/17 4/4/4
f 18/18/18 9/9/9 17/17/17
f 9/9/9 18/18/18 12/12/12
f 12/12/12 19/19/19 13/13/13
f 13/13/13 19/19/19 20/20/20
f 21/21/21 17/17/17 2/2/2
f 17/17/17 21/21/21 18/18/18
f 22/22/22 12/12/12 18/18/18
f 22/22/22 19/19/19 12/12/12
f 22/22/22 23/23/23 19/19/19
f 24/24/24 19/19/19 23/23/23
f 24/24/24 20/20/20 19/19/19
f 20/20/20 24/24/24 25/25/25
f 24/24/24 26/26/26 25/25/25
f 26/26/26 22/22/22 27/27/27
f 18/18/18 27/27/27 22/22/22
f 27/27/27 18/18/18 21/21/21
f 21/21/21 28/28/28 27/27/27
f 28/28/28 21/21/21 2/2/2
f 28/28/28 2/2/2 29/29/29
f 30/30/30 27/27/27 28/28/28
f 28/28/28 29/29/29 30/30/30
f 27/27/27 30/30/30 31/31/31
f 25/25/25 31/31/31 30/30/30
f 30/30/30 32/32/32 25/25/25
f 32/32/32 30/30/30 29/29/29
f 33/33/33 25/25/25 32/32/32
f 33/33/33 32/32/32 34/34/34
f 35/35/35 29/29/29 2/2/2
f 35/35/35 36/36/36 29/29/29
f 35/35/35 2/2/2 37/37/37
f 36/36/36 35/35/35 37/37/37
f 32/32/32 29/29/29 38/38/38
f 38/38/38 34/34/34 32/32/32
f 39/39/39 29/29/29 36/36/36
f 39/39/39 38/38/38 29/29/29
f 38/38/38 39/39/39 40/40/40
f 34/34/34 38/38/38 41/41/41
f 40/40/40 41/41/41 38/38/38
f 42/42/42 39/39/39 36/36/36
f 42/42/42 40/40/40 39/39/39
f 40/40/40 42/42/42 43/43/43
f 41/41/41 40/40/40 44/44/44
f 43/43/43 44/44/44 40/40/40
f 45/45/45 42/42/42 36/36/36
f 45/45/45 43/43/43 42/42/42
f 45/45/45 36/36/36 46/46/46
f 45/45/45 46/46/46 43/43/43
f 46/46/46 36/36/36 47/47/47
f 48/48/48 47/47/47 36/36/36
f 46/46/46 47/47/47 49/49/49
f 50/50/50 43/43/43 46/46/46
f 46/46/46 49/49/49 50/50/50
f 43/43/43 50/50/50 44/44/44
f 51/51/51 50/50/50 49/49/49
f 50/50/50 51/51/51 52/52/52
f 52/52/52 44/44/44 50/50/50
f 53/53/53 52/52/52 51/51/51
f 52/52/52 53/53/53 54/54/54
f 52/52/52 54/54/54 44/44/44
f 55/55/55 54/54/54 53/53/53
f 55/55/55 56/56/56 54/54/54
f 57/57/57 44/44/44 54/54/54
f 44/44/44 57/57/57 41/41/41
f 58/58/58 54/54/54 56/56/56
f 54/54/54 58/58/58 57/57/57
f 56/56/56 59/59/59 58/58/58
f 34/34/34 58/58/58 59/59/59
f 60/60/60 41/41/41 57/57/57
f 60/60/60 57/57/57 58/58/58
f 41/41/41 60/60/60 34/34/34
f 60/60/60 58/58/58 34/34/34
f 63/63/63 62/62/62 61/61/61
f 25/25/25 61/61/61 62/62/62
