g Object003
v -0.19950594 -0.20072685 -0.42331794
v -0.114653684 -0.17381 -0.3129391
v -0.124929555 -0.24512058 -0.39308426
v -0.18923004 -0.1294163 -0.34317285
v -0.2996521 -0.10336356 -0.32664388
v -0.309928 -0.1746742 -0.40678895
v -0.39174807 -0.07305908 -0.36188745
v -0.40202406 -0.14436959 -0.4420326
v -0.47707698 -0.115585834 -0.497884
v -0.46680123 -0.044275332 -0.41773885
v 0.11465386 -0.17380998 -0.31293923
v 0.19950613 -0.20072685 -0.42331815
v 0.12492974 -0.2451205 -0.3930844
v 0.18923026 -0.12941627 -0.343173
v 0.29965225 -0.10336362 -0.32664406
v 0.30992818 -0.17467421 -0.40678915
v 0.39174825 -0.073059134 -0.36188766
v 0.40202424 -0.14436965 -0.44203284
v 0.47707725 -0.115585916 -0.4978843
v 0.46680146 -0.044275455 -0.41773903
vt 0.99383026 0.63867825
vt 0.87037283 0.53339255
vt 0.99383026 0.53339255
vt 0.87037283 0.63867825
vt 0.87037283 0.76019573
vt 0.99383026 0.76019573
vt 0.87037283 0.88465244
vt 0.99383026 0.88465244
vt 0.99383026 0.9889479
vt 0.87037283 0.9889479
vt 0.87037283 0.53339255
vt 0.99383026 0.63867825
vt 0.99383026 0.53339255
vt 0.87037283 0.63867825
vt 0.87037283 0.76019573
vt 0.99383026 0.76019573
vt 0.87037283 0.88465244
vt 0.99383026 0.88465244
vt 0.99383026 0.9889479
vt 0.87037283 0.9889479
vn -0.3525098 -0.6762256 0.64688146
vn -0.57690656 -0.5720934 0.58299905
vn -0.5769064 -0.57209355 0.58299905
vn -0.32520428 -0.6853843 0.65152943
vn -0.26851803 -0.70229185 0.6593058
vn -0.2659162 -0.7030016 0.65960395
vn -0.5269143 -0.60028875 0.6016766
vn -0.55257136 -0.5862271 0.59245473
vn -0.6256444 -0.5412471 0.5618014
vn -0.62564355 -0.5412482 0.5618012
vn 0.57690644 -0.5720938 0.58299893
vn 0.3525096 -0.6762259 0.64688134
vn 0.5769062 -0.5720941 0.5829988
vn 0.32520404 -0.68538445 0.6515293
vn 0.26851776 -0.702292 0.65930575
vn 0.2659163 -0.70300174 0.6596038
vn 0.526914 -0.6002892 0.6016764
vn 0.5525714 -0.58622724 0.5924547
vn 0.6256439 -0.5412478 0.5618012
vn 0.6256428 -0.54124933 0.561801
g Object003_0
f 3/3/3 2/2/2 1/1/1
f 4/4/4 1/1/1 2/2/2
f 4/4/4 5/5/5 1/1/1
f 6/6/6 1/1/1 5/5/5
f 5/5/5 7/7/7 6/6/6
f 8/8/8 6/6/6 7/7/7
f 8/8/8 7/7/7 9/9/9
f 10/10/10 9/9/9 7/7/7
f 13/13/13 12/12/12 11/11/11
f 14/14/14 11/11/11 12/12/12
f 14/14/14 12/12/12 15/15/15
f 16/16/16 15/15/15 12/12/12
f 15/15/15 16/16/16 17/17/17
f 18/18/18 17/17/17 16/16/16
f 18/18/18 19/19/19 17/17/17
f 20/20/20 17/17/17 19/19/19
