g Object001
v -0.17248018 -0.4705281 -0.5302114
v -0.13680136 -0.46744272 -0.43696982
v -0.13458371 -0.5121686 -0.49826375
v -0.17469782 -0.4258022 -0.46891737
v -0.24835314 -0.3940132 -0.478202
v -0.24613553 -0.4387391 -0.53949594
v -0.29836878 -0.35961533 -0.5181433
v -0.2961512 -0.40434113 -0.5794372
v -0.33066878 -0.37240058 -0.629854
v -0.33288643 -0.3276747 -0.56855994
v 0.13680148 -0.4674426 -0.43696994
v 0.17248039 -0.47052798 -0.53021157
v 0.13458383 -0.51216847 -0.49826393
v 0.17469802 -0.4258021 -0.46891758
v 0.2483533 -0.3940131 -0.4782021
v 0.24613574 -0.4387389 -0.5394961
v 0.29836896 -0.35961527 -0.5181435
v 0.29615137 -0.40434107 -0.5794375
v 0.33066902 -0.37240046 -0.6298542
v 0.33288667 -0.32767463 -0.5685601
vt 0.99383026 0.63867825
vt 0.87037283 0.53339255
vt 0.99383026 0.53339255
vt 0.87037283 0.63867825
vt 0.87037283 0.76019573
vt 0.99383026 0.76019573
vt 0.87037283 0.88465244
vt 0.99383026 0.88465244
vt 0.99383026 0.9889479
vt 0.87037283 0.9889479
vt 0.87037283 0.53339255
vt 0.99383026 0.63867825
vt 0.99383026 0.53339255
vt 0.87037283 0.63867825
vt 0.87037283 0.76019573
vt 0.99383026 0.76019573
vt 0.87037283 0.88465244
vt 0.99383026 0.88465244
vt 0.99383026 0.9889479
vt 0.87037283 0.9889479
vn -0.63536096 -0.63456434 0.44005063
vn -0.810165 -0.4871073 0.32612747
vn -0.810165 -0.48710725 0.3261275
vn -0.6125809 -0.64888465 0.45132408
vn -0.56438583 -0.6764413 0.47317636
vn -0.5621453 -0.6776377 0.47413054
vn -0.77336735 -0.52511185 0.3551908
vn -0.79242796 -0.5060291 0.34057677
vn -0.8445958 -0.4465926 0.29531842
vn -0.84459543 -0.44659337 0.29531842
vn 0.81016445 -0.48710808 0.32612786
vn 0.63536066 -0.6345647 0.44005045
vn 0.81016445 -0.4871079 0.32612792
vn 0.6125804 -0.6488851 0.45132405
vn 0.56438565 -0.6764417 0.47317585
vn 0.5621457 -0.677638 0.47412974
vn 0.773367 -0.52511245 0.35519078
vn 0.79242754 -0.50602967 0.3405768
vn 0.8445954 -0.4465934 0.29531857
vn 0.8445949 -0.4465941 0.29531857
g Object001_0
f 3/3/3 2/2/2 1/1/1
f 4/4/4 1/1/1 2/2/2
f 4/4/4 5/5/5 1/1/1
f 6/6/6 1/1/1 5/5/5
f 5/5/5 7/7/7 6/6/6
f 8/8/8 6/6/6 7/7/7
f 8/8/8 7/7/7 9/9/9
f 10/10/10 9/9/9 7/7/7
f 13/13/13 12/12/12 11/11/11
f 14/14/14 11/11/11 12/12/12
f 14/14/14 12/12/12 15/15/15
f 16/16/16 15/15/15 12/12/12
f 15/15/15 16/16/16 17/17/17
f 18/18/18 17/17/17 16/16/16
f 18/18/18 19/19/19 17/17/17
f 20/20/20 17/17/17 19/19/19
