g Object017
v 0.004841919 0.0769288 0.026919613
v -0.078137204 0.016224384 0.08224733
v -0.115664825 0.044110887 0.015598392
v 0.07976806 -0.019155558 0.07625387
v 0.11566467 0.0030041693 0.0012510872
v 0.013903045 0.020377064 0.10212912
v -0.078137204 0.016224384 0.08224733
v -0.07073379 -0.02901121 0.06674494
v 0.00082855223 -0.05089903 0.07773264
v -0.02031967 -0.072783485 -0.02498064
v 0.07976806 -0.019155558 0.07625387
v 0.04847748 -0.04980879 0.06591573
v 0.06475784 -0.07692884 -0.026467647
v -0.10370544 -0.035733774 -0.012038708
v -0.115664825 0.044110887 0.015598392
v -0.078137204 0.016224384 0.08224733
v 0.07976806 -0.019155558 0.07625387
v 0.06475784 -0.07692884 -0.026467647
v 0.11566467 0.0030041693 0.0012510872
v -0.07078918 0.0051031685 -0.07978586
v -0.10370544 -0.035733774 -0.012038708
v 0.0007814026 -0.0049375724 -0.10212912
v 0.048507538 -0.011589336 -0.09212938
v 0.06475784 -0.07692884 -0.026467647
v 0.0798201 0.01879076 -0.0813112
v 0.013853454 0.06611498 -0.07688322
v -0.0782431 0.05020876 -0.064088
v -0.115664825 0.044110887 0.015598392
v -0.10370544 -0.035733774 -0.012038708
v 0.004841919 0.0769288 0.026919613
v 0.0798201 0.01879076 -0.0813112
v 0.11566467 0.0030041693 0.0012510872
v 0.06475784 -0.07692884 -0.026467647
v 0.0798201 0.01879076 -0.0813112
v 0.11566467 0.0030041693 0.0012510872
vt 0.73053056 0.9155633
vt 0.7615941 0.8977678
vt 0.7581411 0.87738925
vt 0.76028156 0.93775237
vt 0.7537945 0.9585682
vt 0.75267017 0.9196523
vt 0.7615941 0.8977678
vt 0.7722807 0.9018722
vt 0.769243 0.92118174
vt 0.7928767 0.92041713
vt 0.76028156 0.93775237
vt 0.768752 0.9329815
vt 0.79218084 0.9499244
vt 0.7939109 0.88841045
vt 0.7581411 0.87738925
vt 0.7615941 0.8977678
vt 0.76028156 0.93775237
vt 0.79218084 0.9499244
vt 0.7537945 0.9585682
vt 0.81312174 0.90447456
vt 0.7939109 0.88841045
vt 0.815603 0.9231665
vt 0.8148277 0.93429464
vt 0.79218084 0.9499244
vt 0.82238185 0.93983716
vt 0.83204716 0.9227048
vt 0.82361627 0.90043914
vt 0.8305006 0.8788219
vt 0.7939109 0.88841045
vt 0.8571859 0.91953003
vt 0.82238185 0.93983716
vt 0.82985353 0.9616567
vt 0.79218084 0.9499244
vt 0.82238185 0.93983716
vt 0.82985353 0.9616567
vn 0.15886289 0.9522077 0.26088896
vn -0.5628023 0.19774553 0.8025898
vn -0.861249 0.4867235 0.14611758
vn 0.7077459 -0.091154195 0.7005616
vn 0.98132485 0.18250471 0.060776018
vn 0.1620906 0.34096432 0.9259967
vn -0.5628023 0.19774553 0.8025898
vn -0.5418655 -0.5904475 0.598125
vn -0.07896395 -0.7359061 0.67246336
vn -0.22178729 -0.94422424 -0.24341531
vn 0.7077459 -0.091154195 0.7005616
vn 0.30145904 -0.79421246 0.52758795
vn 0.42646867 -0.87481225 -0.22984326
vn -0.8041573 -0.57731533 -0.14155558
vn -0.861249 0.4867235 0.14611758
vn -0.5628023 0.19774553 0.8025898
vn 0.7077459 -0.091154195 0.7005616
vn 0.42646867 -0.87481225 -0.22984326
vn 0.98132485 0.18250471 0.060776018
vn -0.55707294 -0.16867316 -0.81315374
vn -0.8041573 -0.57731533 -0.14155558
vn -0.089253254 -0.22588044 -0.9700577
vn 0.30996814 -0.378337 -0.8722275
vn 0.42646867 -0.87481225 -0.22984326
vn 0.7147311 0.2919202 -0.6355644
vn 0.15327951 0.8107538 -0.56496334
vn -0.57492834 0.5946894 -0.5619624
vn -0.861249 0.4867235 0.14611758
vn -0.8041573 -0.57731533 -0.14155558
vn 0.15886289 0.9522077 0.26088896
vn 0.7147311 0.2919202 -0.6355644
vn 0.98132485 0.18250471 0.060776018
vn 0.42646867 -0.87481225 -0.22984326
vn 0.7147311 0.2919202 -0.6355644
vn 0.98132485 0.18250471 0.060776018
g Object017_0
f 3/3/3 2/2/2 1/1/1
f 5/5/5 1/1/1 4/4/4
f 6/6/6 4/4/4 1/1/1
f 6/6/6 1/1/1 7/7/7
f 7/7/7 8/8/8 6/6/6
f 9/9/9 6/6/6 8/8/8
f 9/9/9 8/8/8 10/10/10
f 6/6/6 9/9/9 11/11/11
f 12/12/12 11/11/11 9/9/9
f 9/9/9 10/10/10 12/12/12
f 13/13/13 12/12/12 10/10/10
f 14/14/14 10/10/10 8/8/8
f 14/14/14 8/8/8 15/15/15
f 16/16/16 15/15/15 8/8/8
f 12/12/12 18/18/18 17/17/17
f 19/19/19 17/17/17 18/18/18
f 21/21/21 20/20/20 10/10/10
f 22/22/22 10/10/10 20/20/20
f 22/22/22 23/23/23 10/10/10
f 24/24/24 10/10/10 23/23/23
f 23/23/23 22/22/22 25/25/25
f 26/26/26 25/25/25 22/22/22
f 22/22/22 20/20/20 26/26/26
f 27/27/27 26/26/26 20/20/20
f 27/27/27 20/20/20 28/28/28
f 29/29/29 28/28/28 20/20/20
f 28/28/28 30/30/30 27/27/27
f 26/26/26 27/27/27 30/30/30
f 26/26/26 30/30/30 31/31/31
f 32/32/32 31/31/31 30/30/30
f 23/23/23 34/34/34 33/33/33
f 35/35/35 33/33/33 34/34/34
