g Pan_LOD1
v 3.0517577E-07 -0.22860779 0.72473013
v 0.08332855 -0.2286077 0.23865448
v 3.0517577E-07 -0.2286077 0.21780533
v 3.0517577E-07 -0.048445087 0.1940301
v 0.05349899 -0.035797443 0.20304291
v 3.0517577E-07 -0.045455903 -0.15183015
v 0.050201416 -0.033783253 -0.15119801
v 3.0517577E-07 -0.032172203 -0.16858056
v 0.048940886 -0.01019845 -0.1515697
v 3.0517577E-07 -0.01019844 -0.16697474
v 3.0517577E-07 -0.010198497 0.2163287
v 0.046649322 -0.010198507 0.209059
v 0.111153565 -0.010198517 0.25283465
v 1.5258789E-07 -0.055836476 0.47040313
v 0.17565918 -0.010198535 0.29661033
v 0.17364348 -0.2286077 0.29505554
v 0.09248077 -0.22860779 0.70189315
v 0.08897857 -0.010198584 0.6965727
v 3.0517577E-07 -0.010198584 0.7154382
v 0.18283446 -0.010198574 0.633385
v 0.18934952 -0.22860774 0.6338365
v 0.21654433 -0.2286077 0.3666095
v 0.2202562 -0.010198555 0.55104864
v 0.21468718 -0.010198526 0.3658798
v 0.22676131 -0.22860774 0.55297834
v 0.24481757 -0.010198535 0.4548039
v 0.2517395 -0.22860774 0.45725515
v -0.048940122 -0.01019845 -0.15156972
v 3.0517577E-07 -0.01019844 -0.16697474
v 3.0517577E-07 -0.010198497 0.2163287
v 3.0517577E-07 -0.032172203 -0.16858056
v -0.050201263 -0.033783253 -0.15119801
v 3.0517577E-07 -0.045455903 -0.15183015
v -0.053498533 -0.035797443 0.20304291
v 3.0517577E-07 -0.048445087 0.1940301
v -0.046648864 -0.010198507 0.209059
v -0.1111528 -0.010198517 0.25283465
v 1.5258789E-07 -0.055836476 0.47040313
v -0.083327636 -0.22860768 0.23865448
v 3.0517577E-07 -0.2286077 0.21780533
v 3.0517577E-07 -0.22860779 0.72473013
v -0.17565826 -0.010198517 0.29661033
v -0.17364272 -0.2286077 0.29505554
v -0.09248001 -0.22860776 0.70189315
v -0.08897796 -0.010198584 0.6965727
v 3.0517577E-07 -0.010198584 0.7154382
v -0.18283387 -0.010198574 0.633385
v -0.1893492 -0.22860774 0.6338365
v -0.21654373 -0.2286077 0.36660957
v -0.22025543 -0.010198555 0.55104864
v -0.21468674 -0.010198526 0.3658798
v -0.22676086 -0.22860774 0.55297834
v -0.24481705 -0.010198535 0.45480394
v -0.25173935 -0.22860773 0.4572552
vt 0.35289907 0.25702155
vt 0.20886903 0.26480645
vt 0.19538057 0.25224966
vt 0.18649665 0.3122239
vt 0.19133386 0.3242444
vt 0.09784626 0.30571073
vt 0.105419144 0.31100702
vt 0.09221223 0.30988526
vt 0.104118325 0.31602553
vt 0.091877446 0.31630817
vt 0.18816152 0.34776384
vt 0.19198032 0.33208132
vt 0.20997375 0.32953718
vt 0.27350065 0.34301844
vt 0.2269299 0.32288203
vt 0.22741441 0.27124238
vt 0.33739394 0.2679507
vt 0.33698478 0.328427
vt 0.35586154 0.33759207
vt 0.31244653 0.32318056
vt 0.3138752 0.27059746
vt 0.2458346 0.27736312
vt 0.29209688 0.31883094
vt 0.24505769 0.3181198
vt 0.29342225 0.27590796
vt 0.26754153 0.31461218
vt 0.27019483 0.28209913
vt 0.104118325 0.31602553
vt 0.091877446 0.31630817
vt 0.18782203 0.3466617
vt 0.09221223 0.30988526
vt 0.105419144 0.31100702
vt 0.09784626 0.30571073
vt 0.19133386 0.3242444
vt 0.18649665 0.3122239
vt 0.19198032 0.33208132
vt 0.20997375 0.32953718
vt 0.27350065 0.34301844
vt 0.20886903 0.26480645
vt 0.19538057 0.25224966
vt 0.35289907 0.25702155
vt 0.2269299 0.32288203
vt 0.22741441 0.27124238
vt 0.33739394 0.2679507
vt 0.33698478 0.328427
vt 0.35586154 0.33759207
vt 0.31244653 0.32318056
vt 0.3138752 0.27059746
vt 0.2458346 0.27736312
vt 0.29209688 0.31883094
vt 0.24505769 0.3181198
vt 0.29342225 0.27590796
vt 0.26754153 0.31461218
vt 0.27019483 0.28209913
vn -0 -0.64266086 0.7661507
vn 0.2527835 -0.71310955 -0.65389234
vn -3.4308158E-07 -0.704124 -0.71007705
vn 5.734849E-07 -0.75247973 -0.65861535
vn 0.74777174 -0.14108448 -0.64879316
vn 7.413199E-07 -0.94699025 -0.32126245
vn 0.73551977 -0.46101302 -0.49646512
vn 7.176287E-07 -0.38056278 -0.9247551
vn 0.6081478 0.64759606 -0.4591031
vn 4.900807E-07 0.65808886 -0.75294024
vn -0 0.9959805 0.08956958
vn 0.37930182 0.9133839 -0.14785153
vn 0.39340279 0.7836967 -0.48068056
vn 1.4369E-07 0.9999925 -0.0038925365
vn 0.52468383 0.71777093 -0.45772463
vn 0.52321696 -0.6719453 -0.52415025
vn 0.30382776 -0.65713376 0.6898289
vn 0.27424836 0.7355747 0.61944956
vn -0 0.7346871 0.6784061
vn 0.53276956 0.71675307 0.44991288
vn 0.58755916 -0.6432375 0.49093762
vn 0.6594872 -0.68549967 -0.3084912
vn 0.6112522 0.76095754 0.21751855
vn 0.59644604 0.75142384 -0.28216013
vn 0.6941384 -0.676341 0.24644403
vn 0.69810605 0.715066 -0.03644906
vn 0.7730833 -0.63331515 -0.03541345
vn -0.6081431 0.6475982 -0.45910636
vn 4.900807E-07 0.65808886 -0.75294024
vn -0 0.9959805 0.08956958
vn 7.176287E-07 -0.38056278 -0.9247551
vn -0.7355231 -0.46101016 -0.49646285
vn 7.413199E-07 -0.94699025 -0.32126245
vn -0.74777204 -0.14108154 -0.6487934
vn 5.734849E-07 -0.75247973 -0.65861535
vn -0.37930092 0.91338426 -0.14785093
vn -0.39340347 0.78369695 -0.48067957
vn 1.4369E-07 0.9999925 -0.0038925365
vn -0.2527832 -0.71310997 -0.653892
vn -3.4308158E-07 -0.704124 -0.71007705
vn -0 -0.64266086 0.7661507
vn -0.52468276 0.7177718 -0.45772436
vn -0.5232162 -0.6719453 -0.52415097
vn -0.3038273 -0.6571342 0.6898288
vn -0.27424803 0.7355746 0.61944985
vn -0 0.7346871 0.6784061
vn -0.5327694 0.7167533 0.4499128
vn -0.5875599 -0.6432368 0.49093774
vn -0.6594861 -0.68549985 -0.3084928
vn -0.61125094 0.76095855 0.21751852
vn -0.59644604 0.7514232 -0.282162
vn -0.6941383 -0.67634106 0.24644445
vn -0.6981056 0.7150665 -0.036448933
vn -0.77308434 -0.633314 -0.035413176
g Pan_LOD1_0
f 3/3/3 2/2/2 1/1/1
f 3/3/3 4/4/4 2/2/2
f 4/4/4 5/5/5 2/2/2
f 4/4/4 6/6/6 5/5/5
f 6/6/6 7/7/7 5/5/5
f 7/7/7 6/6/6 8/8/8
f 9/9/9 7/7/7 8/8/8
f 10/10/10 9/9/9 8/8/8
f 10/10/10 11/11/11 9/9/9
f 7/7/7 9/9/9 12/12/12
f 11/11/11 12/12/12 9/9/9
f 5/5/5 7/7/7 12/12/12
f 12/12/12 11/11/11 13/13/13
f 12/12/12 13/13/13 5/5/5
f 11/11/11 14/14/14 13/13/13
f 13/13/13 15/15/15 5/5/5
f 15/15/15 13/13/13 14/14/14
f 5/5/5 16/16/16 2/2/2
f 15/15/15 16/16/16 5/5/5
f 2/2/2 17/17/17 1/1/1
f 17/17/17 2/2/2 16/16/16
f 1/1/1 17/17/17 18/18/18
f 19/19/19 1/1/1 18/18/18
f 18/18/18 14/14/14 19/19/19
f 18/18/18 17/17/17 20/20/20
f 18/18/18 20/20/20 14/14/14
f 21/21/21 17/17/17 16/16/16
f 17/17/17 21/21/21 20/20/20
f 16/16/16 15/15/15 22/22/22
f 21/21/21 16/16/16 22/22/22
f 23/23/23 20/20/20 21/21/21
f 20/20/20 23/23/23 14/14/14
f 24/24/24 15/15/15 14/14/14
f 15/15/15 24/24/24 22/22/22
f 25/25/25 23/23/23 21/21/21
f 25/25/25 21/21/21 22/22/22
f 23/23/23 26/26/26 14/14/14
f 26/26/26 24/24/24 14/14/14
f 26/26/26 23/23/23 25/25/25
f 22/22/22 24/24/24 27/27/27
f 22/22/22 27/27/27 25/25/25
f 27/27/27 26/26/26 25/25/25
f 24/24/24 26/26/26 27/27/27
f 30/30/30 29/29/29 28/28/28
f 28/28/28 29/29/29 31/31/31
f 32/32/32 28/28/28 31/31/31
f 32/32/32 31/31/31 33/33/33
f 32/32/32 33/33/33 34/34/34
f 33/33/33 35/35/35 34/34/34
f 28/28/28 32/32/32 36/36/36
f 36/36/36 30/30/30 28/28/28
f 32/32/32 34/34/34 36/36/36
f 36/36/36 37/37/37 30/30/30
f 37/37/37 36/36/36 34/34/34
f 37/37/37 38/38/38 30/30/30
f 34/34/34 35/35/35 39/39/39
f 35/35/35 40/40/40 39/39/39
f 39/39/39 40/40/40 41/41/41
f 42/42/42 37/37/37 34/34/34
f 42/42/42 38/38/38 37/37/37
f 43/43/43 34/34/34 39/39/39
f 43/43/43 42/42/42 34/34/34
f 44/44/44 39/39/39 41/41/41
f 39/39/39 44/44/44 43/43/43
f 44/44/44 41/41/41 45/45/45
f 41/41/41 46/46/46 45/45/45
f 45/45/45 46/46/46 38/38/38
f 44/44/44 45/45/45 47/47/47
f 45/45/45 38/38/38 47/47/47
f 44/44/44 48/48/48 43/43/43
f 48/48/48 44/44/44 47/47/47
f 42/42/42 43/43/43 49/49/49
f 43/43/43 48/48/48 49/49/49
f 47/47/47 50/50/50 48/48/48
f 47/47/47 38/38/38 50/50/50
f 51/51/51 38/38/38 42/42/42
f 51/51/51 42/42/42 49/49/49
f 50/50/50 52/52/52 48/48/48
f 48/48/48 52/52/52 49/49/49
f 50/50/50 38/38/38 53/53/53
f 53/53/53 38/38/38 51/51/51
f 50/50/50 53/53/53 52/52/52
f 51/51/51 49/49/49 54/54/54
f 54/54/54 49/49/49 52/52/52
f 53/53/53 54/54/54 52/52/52
f 53/53/53 51/51/51 54/54/54
