g Pan_LOD0
v 3.0517577E-07 -0.22860779 0.72473013
v 0.08332855 -0.2286077 0.23865448
v 3.0517577E-07 -0.2286077 0.21780533
v 3.0517577E-07 -0.050748456 0.19084331
v 0.09248077 -0.22860779 0.70189315
v 0.08897857 -0.010198584 0.6965727
v 3.0517577E-07 -0.010198584 0.7154382
v 3.0517577E-07 -0.020438299 0.6950613
v 0.024843901 -0.047293406 0.1956235
v 0.05349899 -0.035797443 0.20304291
v 0.031764526 -0.04488922 -0.1513865
v 3.0517577E-07 -0.046589255 -0.15271746
v 0.050201416 -0.033783253 -0.15119801
v 3.0517577E-07 -0.032172203 -0.16858056
v 0.048940886 -0.01019845 -0.1515697
v 3.0517577E-07 -0.01019844 -0.16697474
v 3.0517577E-07 -0.010198497 0.2465031
v 0.046649322 -0.010198507 0.209059
v 0.111153565 -0.010198517 0.25283465
v 0.17364348 -0.2286077 0.29505554
v 0.079053804 -0.010198546 0.28012234
v -0.010169067 -0.18912628 0.27742296
v 0.17565918 -0.010198535 0.29661033
v 0.19224913 -0.22860774 0.6338365
v 0.21654433 -0.2286077 0.3666095
v 0.185643 -0.010198564 0.633385
v 0.061093748 -0.19358315 0.30780244
v 0.15810715 -0.010198584 0.31374156
v 0.21468718 -0.010198526 0.3658798
v 0.070776366 -0.17598447 0.6589528
v -0.010169067 -0.18229468 0.68049115
v 0.082685694 -0.017175721 0.6797826
v 0.15298995 -0.1697702 0.61757535
v 0.17377228 -0.010198621 0.6231494
v 0.1323564 -0.19804001 0.3381819
v 0.18689087 -0.17785437 0.5396652
v 0.20465995 -0.010198602 0.54751384
v 0.19604065 -0.010198593 0.37741423
v 0.17650925 -0.19196945 0.40006936
v 0.19480255 -0.18557693 0.46523967
v 0.22864464 -0.010198584 0.45774862
v 0.2202562 -0.010198555 0.55104864
v 0.24481757 -0.010198535 0.4548039
v 0.22676131 -0.22860774 0.55297834
v 0.2517395 -0.22860774 0.45725515
v -0.048940122 -0.01019845 -0.15156972
v 3.0517577E-07 -0.01019844 -0.16697474
v 3.0517577E-07 -0.010198497 0.2465031
v 3.0517577E-07 -0.032172203 -0.16858056
v -0.050201263 -0.033783253 -0.15119801
v 3.0517577E-07 -0.046589255 -0.15271746
v -0.046648864 -0.010198507 0.209059
v -0.053498533 -0.035797443 0.20304291
v -0.03176361 -0.04488922 -0.1513865
v 3.0517577E-07 -0.050748456 0.19084331
v -0.1111528 -0.010198517 0.25283465
v -0.02484314 -0.04729341 0.1956235
v -0.083327636 -0.22860768 0.23865448
v 3.0517577E-07 -0.2286077 0.21780533
v 3.0517577E-07 -0.22860779 0.72473013
v -0.07905304 -0.010198546 0.28012234
v -0.010169067 -0.18912628 0.27742296
v -0.17565826 -0.010198517 0.29661033
v -0.17364272 -0.2286077 0.29505554
v -0.09248001 -0.22860776 0.70189315
v -0.08897796 -0.010198584 0.6965727
v 3.0517577E-07 -0.010198584 0.7154382
v 3.0517577E-07 -0.020438299 0.6950613
v -0.08143204 -0.19358318 0.3078024
v -0.15810622 -0.010198584 0.31374156
v -0.09111511 -0.17598449 0.6589528
v -0.010169067 -0.18229468 0.68049115
v -0.082685545 -0.017175721 0.6797826
v -0.17082931 -0.16977012 0.61757535
v -0.171127 -0.010198612 0.6231494
v -0.18283387 -0.010198574 0.633385
v -0.1526947 -0.19803995 0.3381819
v -0.20973052 -0.17785425 0.5396652
v -0.1893492 -0.22860774 0.6338365
v -0.2072673 -0.010198602 0.54751384
v -0.21654373 -0.2286077 0.36660957
v -0.21468674 -0.010198526 0.3658798
v -0.19604035 -0.010198574 0.37741423
v -0.22308105 -0.010198564 0.55104864
v -0.19684784 -0.19196945 0.40006936
v -0.22967742 -0.22860774 0.55297834
v -0.25173935 -0.22860773 0.4572552
v -0.24481705 -0.010198535 0.45480394
v -0.22864425 -0.010198584 0.45774862
v -0.21514083 -0.18557687 0.4652397
vt 0.35289907 0.25702155
vt 0.20886903 0.26480645
vt 0.19538057 0.25224966
vt 0.18479645 0.30908385
vt 0.33739394 0.2679507
vt 0.33698478 0.328427
vt 0.35586154 0.33759207
vt 0.35299438 0.34328932
vt 0.18819685 0.31536397
vt 0.19133386 0.3242444
vt 0.10131937 0.30740672
vt 0.09437315 0.30401474
vt 0.105419144 0.31100702
vt 0.09221223 0.30988526
vt 0.104118325 0.31602553
vt 0.091877446 0.31630817
vt 0.19713037 0.3490765
vt 0.19198032 0.33208132
vt 0.20997375 0.32953718
vt 0.22741441 0.27124238
vt 0.21201256 0.34047505
vt 0.20724967 0.36361462
vt 0.2269299 0.32288203
vt 0.3138752 0.27059746
vt 0.2458346 0.27736312
vt 0.31244653 0.32318056
vt 0.22264014 0.35336262
vt 0.22908862 0.32878345
vt 0.24505769 0.3181198
vt 0.32946748 0.34205902
vt 0.3469398 0.35267177
vt 0.33543542 0.3332563
vt 0.30913365 0.33547822
vt 0.3113461 0.32707658
vt 0.23642828 0.34322762
vt 0.28777027 0.3318963
vt 0.29163045 0.3227709
vt 0.24672063 0.32324895
vt 0.25281933 0.33458847
vt 0.26905718 0.33026746
vt 0.26858506 0.31843695
vt 0.29209688 0.31883094
vt 0.26754153 0.31461218
vt 0.29342225 0.27590796
vt 0.27019483 0.28209913
vt 0.104118325 0.31602553
vt 0.091877446 0.31630817
vt 0.19713037 0.3490765
vt 0.09221223 0.30988526
vt 0.105419144 0.31100702
vt 0.09437315 0.30401474
vt 0.19198032 0.33208132
vt 0.19133386 0.3242444
vt 0.10131937 0.30740672
vt 0.18479645 0.30908385
vt 0.20997375 0.32953718
vt 0.18819685 0.31536397
vt 0.20886903 0.26480645
vt 0.19538057 0.25224966
vt 0.35289907 0.25702155
vt 0.21201256 0.34047505
vt 0.20724967 0.36361462
vt 0.2269299 0.32288203
vt 0.22741441 0.27124238
vt 0.33739394 0.2679507
vt 0.33698478 0.328427
vt 0.35586154 0.33759207
vt 0.35299438 0.34328932
vt 0.22264014 0.35336262
vt 0.22908862 0.32878345
vt 0.32946748 0.34205902
vt 0.3469398 0.35267177
vt 0.33543542 0.3332563
vt 0.30913365 0.33547822
vt 0.3113461 0.32707658
vt 0.31244653 0.32318056
vt 0.23642828 0.34322762
vt 0.28777027 0.3318963
vt 0.3138752 0.27059746
vt 0.29163045 0.3227709
vt 0.2458346 0.27736312
vt 0.24505769 0.3181198
vt 0.24672063 0.32324895
vt 0.29209688 0.31883094
vt 0.25281933 0.33458847
vt 0.29342225 0.27590796
vt 0.27019483 0.28209913
vt 0.26754153 0.31461218
vt 0.26858506 0.31843695
vt 0.26905718 0.33026746
vn -0 -0.64266086 0.7661507
vn 0.27247706 -0.7136094 -0.645382
vn -3.8617776E-07 -0.711908 -0.7022728
vn -5.7217494E-07 -0.77592313 -0.6308276
vn 0.2986132 -0.6585322 0.6907716
vn 0.25446782 0.77328295 0.58075786
vn -0 0.8018669 0.59750265
vn -0.0051173232 0.6125137 -0.7904435
vn 0.40936938 -0.6738381 -0.61510897
vn 0.7861587 -0.10397109 -0.60921633
vn 0.24926467 -0.88316506 -0.3973495
vn -0 -0.89544713 -0.44516787
vn 0.7580984 -0.40332192 -0.51246285
vn 5.0433675E-07 -0.28129295 -0.9596219
vn 0.60814786 0.647596 -0.45910305
vn 4.900807E-07 0.65808886 -0.75294024
vn -0.006551134 0.8498212 0.52703035
vn 0.39227125 0.8942054 -0.21568492
vn 0.4125138 0.7272568 -0.54857093
vn 0.5353386 -0.6677899 -0.5171744
vn -0.24883345 0.766278 0.59236807
vn 0.011033581 0.6890884 0.7245932
vn 0.56318754 0.66078395 -0.49616978
vn 0.5941749 -0.6390685 0.48841342
vn 0.6594872 -0.68549967 -0.3084912
vn 0.5658182 0.6868889 0.45610672
vn -0.26129892 0.77807665 0.5712439
vn -0.35705313 0.8331003 0.42244166
vn 0.6556108 0.68974996 -0.30727738
vn -0.24846575 0.7129616 -0.65570605
vn 0.006076162 0.6980772 -0.71599674
vn -0.2812858 0.664203 -0.6926129
vn -0.5455826 0.6484961 -0.5308413
vn -0.46226987 0.7861518 -0.41020966
vn -0.4538375 0.7434799 0.49119163
vn -0.6524561 0.7112142 -0.26167804
vn -0.6118995 0.76747614 -0.19120485
vn -0.56075346 0.7810533 0.27479324
vn -0.6236441 0.74348074 0.24146295
vn -0.6789067 0.7341513 -0.010369184
vn -0.55851835 0.82856524 0.03920359
vn 0.6745367 0.7019777 0.22853343
vn 0.7513437 0.65881413 -0.038032185
vn 0.69488496 -0.67952174 0.23534055
vn 0.7730833 -0.63331515 -0.03541345
vn -0.6081431 0.64759815 -0.4591064
vn 4.900807E-07 0.65808886 -0.75294024
vn -0.006551134 0.8498212 0.52703035
vn 5.0433675E-07 -0.28129295 -0.9596219
vn -0.75810134 -0.4033205 -0.51245975
vn -0 -0.89544713 -0.44516787
vn -0.39227036 0.89420587 -0.21568419
vn -0.78615826 -0.10396934 -0.6092172
vn -0.2492615 -0.8831661 -0.39734927
vn -5.7217494E-07 -0.77592313 -0.6308276
vn -0.41251442 0.72725713 -0.54856986
vn -0.40936655 -0.67383975 -0.61510897
vn -0.27247658 -0.7136099 -0.6453817
vn -3.8617776E-07 -0.711908 -0.7022728
vn -0 -0.64266086 0.7661507
vn 0.2557087 0.7526456 0.60674345
vn 0.011033581 0.6890884 0.7245932
vn -0.5631865 0.6607848 -0.49616978
vn -0.5353377 -0.66779 -0.5171752
vn -0.3038273 -0.6571342 0.6898288
vn -0.25959525 0.77197963 0.5802222
vn -0 0.8018669 0.59750265
vn -0.0051173232 0.6125137 -0.7904435
vn 0.2687222 0.76465166 0.58574414
vn 0.36707637 0.81484795 0.44863993
vn 0.26424614 0.69536173 -0.6683158
vn 0.006076162 0.6980772 -0.71599674
vn 0.28386348 0.64806193 -0.70670885
vn 0.56126785 0.6161322 -0.55259335
vn 0.48132342 0.7496552 -0.45425195
vn -0.5492583 0.69355375 0.46615285
vn 0.47919437 0.72016984 0.5017252
vn 0.6972232 0.66044855 -0.2787247
vn -0.5786255 -0.64602846 0.49783498
vn 0.63941807 0.74033344 -0.20748699
vn -0.6594861 -0.68549997 -0.30849284
vn -0.65561056 0.68974936 -0.3072793
vn 0.5918917 0.7497558 0.29585567
vn -0.67911613 0.6931826 0.24145222
vn 0.6574695 0.70905507 0.25490144
vn -0.69944346 -0.6701059 0.24846947
vn -0.7703201 -0.6359802 -0.04621789
vn -0.7485965 0.6612514 -0.04847537
vn 0.60590273 0.79361814 0.055245563
vn 0.71541476 0.69869834 0.0015188734
g Pan_LOD0_0
f 3/3/3 2/2/2 1/1/1
f 3/3/3 4/4/4 2/2/2
f 2/2/2 5/5/5 1/1/1
f 1/1/1 5/5/5 6/6/6
f 7/7/7 1/1/1 6/6/6
f 7/7/7 6/6/6 8/8/8
f 4/4/4 9/9/9 2/2/2
f 9/9/9 10/10/10 2/2/2
f 11/11/11 9/9/9 4/4/4
f 9/9/9 11/11/11 10/10/10
f 12/12/12 11/11/11 4/4/4
f 13/13/13 11/11/11 12/12/12
f 11/11/11 13/13/13 10/10/10
f 14/14/14 13/13/13 12/12/12
f 15/15/15 13/13/13 14/14/14
f 16/16/16 15/15/15 14/14/14
f 16/16/16 17/17/17 15/15/15
f 13/13/13 15/15/15 18/18/18
f 10/10/10 13/13/13 18/18/18
f 17/17/17 18/18/18 15/15/15
f 19/19/19 18/18/18 17/17/17
f 18/18/18 19/19/19 10/10/10
f 10/10/10 20/20/20 2/2/2
f 5/5/5 2/2/2 20/20/20
f 21/21/21 19/19/19 17/17/17
f 21/21/21 17/17/17 22/22/22
f 19/19/19 23/23/23 10/10/10
f 23/23/23 20/20/20 10/10/10
f 23/23/23 19/19/19 21/21/21
f 24/24/24 5/5/5 20/20/20
f 20/20/20 23/23/23 25/25/25
f 24/24/24 20/20/20 25/25/25
f 5/5/5 24/24/24 26/26/26
f 6/6/6 5/5/5 26/26/26
f 27/27/27 21/21/21 22/22/22
f 28/28/28 23/23/23 21/21/21
f 28/28/28 21/21/21 27/27/27
f 23/23/23 29/29/29 25/25/25
f 29/29/29 23/23/23 28/28/28
f 27/27/27 22/22/22 30/30/30
f 22/22/22 31/31/31 30/30/30
f 31/31/31 8/8/8 30/30/30
f 6/6/6 32/32/32 8/8/8
f 8/8/8 32/32/32 30/30/30
f 30/30/30 33/33/33 27/27/27
f 30/30/30 32/32/32 33/33/33
f 34/34/34 32/32/32 6/6/6
f 26/26/26 34/34/34 6/6/6
f 32/32/32 34/34/34 33/33/33
f 35/35/35 28/28/28 27/27/27
f 33/33/33 35/35/35 27/27/27
f 36/36/36 33/33/33 34/34/34
f 35/35/35 33/33/33 36/36/36
f 34/34/34 26/26/26 37/37/37
f 37/37/37 36/36/36 34/34/34
f 38/38/38 28/28/28 35/35/35
f 38/38/38 29/29/29 28/28/28
f 39/39/39 35/35/35 36/36/36
f 39/39/39 38/38/38 35/35/35
f 36/36/36 40/40/40 39/39/39
f 40/40/40 36/36/36 37/37/37
f 40/40/40 41/41/41 39/39/39
f 41/41/41 38/38/38 39/39/39
f 41/41/41 40/40/40 37/37/37
f 26/26/26 42/42/42 37/37/37
f 37/37/37 42/42/42 41/41/41
f 42/42/42 26/26/26 24/24/24
f 41/41/41 43/43/43 38/38/38
f 43/43/43 29/29/29 38/38/38
f 42/42/42 43/43/43 41/41/41
f 44/44/44 42/42/42 24/24/24
f 43/43/43 42/42/42 44/44/44
f 44/44/44 24/24/24 25/25/25
f 29/29/29 43/43/43 45/45/45
f 25/25/25 29/29/29 45/45/45
f 45/45/45 43/43/43 44/44/44
f 25/25/25 45/45/45 44/44/44
f 48/48/48 47/47/47 46/46/46
f 46/46/46 47/47/47 49/49/49
f 50/50/50 46/46/46 49/49/49
f 50/50/50 49/49/49 51/51/51
f 52/52/52 48/48/48 46/46/46
f 46/46/46 50/50/50 52/52/52
f 50/50/50 53/53/53 52/52/52
f 54/54/54 50/50/50 51/51/51
f 50/50/50 54/54/54 53/53/53
f 54/54/54 51/51/51 55/55/55
f 52/52/52 56/56/56 48/48/48
f 56/56/56 52/52/52 53/53/53
f 57/57/57 54/54/54 55/55/55
f 54/54/54 57/57/57 53/53/53
f 57/57/57 55/55/55 58/58/58
f 53/53/53 57/57/57 58/58/58
f 55/55/55 59/59/59 58/58/58
f 58/58/58 59/59/59 60/60/60
f 56/56/56 61/61/61 48/48/48
f 48/48/48 61/61/61 62/62/62
f 63/63/63 56/56/56 53/53/53
f 56/56/56 63/63/63 61/61/61
f 64/64/64 53/53/53 58/58/58
f 64/64/64 63/63/63 53/53/53
f 65/65/65 58/58/58 60/60/60
f 58/58/58 65/65/65 64/64/64
f 65/65/65 60/60/60 66/66/66
f 60/60/60 67/67/67 66/66/66
f 66/66/66 67/67/67 68/68/68
f 61/61/61 69/69/69 62/62/62
f 63/63/63 70/70/70 61/61/61
f 61/61/61 70/70/70 69/69/69
f 62/62/62 69/69/69 71/71/71
f 72/72/72 62/62/62 71/71/71
f 68/68/68 72/72/72 71/71/71
f 73/73/73 68/68/68 71/71/71
f 73/73/73 66/66/66 68/68/68
f 74/74/74 71/71/71 69/69/69
f 73/73/73 71/71/71 74/74/74
f 73/73/73 75/75/75 66/66/66
f 75/75/75 73/73/73 74/74/74
f 65/65/65 66/66/66 76/76/76
f 75/75/75 76/76/76 66/66/66
f 77/77/77 74/74/74 69/69/69
f 70/70/70 77/77/77 69/69/69
f 74/74/74 78/78/78 75/75/75
f 74/74/74 77/77/77 78/78/78
f 79/79/79 65/65/65 76/76/76
f 65/65/65 79/79/79 64/64/64
f 76/76/76 75/75/75 80/80/80
f 78/78/78 80/80/80 75/75/75
f 64/64/64 79/79/79 81/81/81
f 63/63/63 64/64/64 81/81/81
f 63/63/63 82/82/82 70/70/70
f 82/82/82 63/63/63 81/81/81
f 70/70/70 83/83/83 77/77/77
f 82/82/82 83/83/83 70/70/70
f 76/76/76 84/84/84 79/79/79
f 84/84/84 76/76/76 80/80/80
f 77/77/77 85/85/85 78/78/78
f 83/83/83 85/85/85 77/77/77
f 79/79/79 86/86/86 81/81/81
f 84/84/84 86/86/86 79/79/79
f 82/82/82 81/81/81 87/87/87
f 87/87/87 81/81/81 86/86/86
f 88/88/88 82/82/82 87/87/87
f 88/88/88 87/87/87 86/86/86
f 82/82/82 88/88/88 83/83/83
f 84/84/84 88/88/88 86/86/86
f 88/88/88 89/89/89 83/83/83
f 88/88/88 84/84/84 89/89/89
f 84/84/84 80/80/80 89/89/89
f 83/83/83 89/89/89 85/85/85
f 78/78/78 90/90/90 80/80/80
f 90/90/90 78/78/78 85/85/85
f 90/90/90 89/89/89 80/80/80
f 89/89/89 90/90/90 85/85/85
