g pCube653
v -0.25 0 0.20000005
v -0.25 0.5500001 0.20000005
v 0.25 0.5500001 0.20000005
v 0.25 0 0.20000005
v -0.25 0.5500001 0.20000005
v -0.25 0.5500001 -0.20000005
v 0.25 0.5500001 -0.20000005
v 0.25 0.5500001 0.20000005
v -0.25 0.5500001 -0.20000005
v -0.25 0 -0.20000005
v 0.25 0 -0.20000005
v 0.25 0.5500001 -0.20000005
v 0.25 0 0.20000005
v 0.25 0.5500001 0.20000005
v 0.25 0.5500001 -0.20000005
v 0.25 0 -0.20000005
v -0.25 0 -0.20000005
v -0.25 0.5500001 -0.20000005
v -0.25 0.5500001 0.20000005
v -0.25 0 0.20000005
vt 0.11398533 0.17337313
vt 0.11398533 0.24152346
vt 0.019428402 0.24152346
vt 0.019428402 0.17337313
vt 0.1138545 0.17288521
vt 0.1138545 0.24883772
vt 0.01925692 0.24883772
vt 0.01925692 0.17288521
vt 0.3863249 0.12391734
vt 0.3863249 0.047529332
vt 0.30158666 0.047529332
vt 0.30158666 0.12391734
vt 0.250848 0.12486306
vt 0.250848 0.18664508
vt 0.2951619 0.18664508
vt 0.2951619 0.12486306
vt 0.34152696 0.12472451
vt 0.34152696 0.18650654
vt 0.38581282 0.18650654
vt 0.38581303 0.12472451
vn -0 0 1
vn -0 0 1
vn -0 0 1
vn -0 0 1
vn -0 1 0
vn -0 1 0
vn -0 1 0
vn -0 1 0
vn -0 0 -1
vn -0 0 -1
vn -0 0 -1
vn -0 0 -1
vn 1 0 0
vn 1 0 0
vn 1 0 0
vn 1 0 0
vn -1 0 0
vn -1 0 0
vn -1 0 0
vn -1 0 0
g pCube653_0
f 3/3/3 2/2/2 1/1/1
f 4/4/4 3/3/3 1/1/1
f 7/7/7 6/6/6 5/5/5
f 8/8/8 7/7/7 5/5/5
f 11/11/11 10/10/10 9/9/9
f 12/12/12 11/11/11 9/9/9
f 15/15/15 14/14/14 13/13/13
f 16/16/16 15/15/15 13/13/13
f 19/19/19 18/18/18 17/17/17
f 20/20/20 19/19/19 17/17/17
