g pCylinder64
v -0.001144104 0.00044973218 0.0019834589
v 5.571365E-07 0.0004497337 8.29388E-07
v 5.329132E-07 0.0004497333 0.0023878927
v 0.0011452547 0.00044973218 0.0019834589
v 0.0020307626 0.0004497333 0.0012144966
v 0.002289928 0.00044973218 8.2950146E-07
v 0.0020040201 0.00044973256 -0.0011338736
v 0.0012371338 0.00044973256 -0.0020323729
v 5.329132E-07 0.00044973256 -0.0023707205
v -0.001144104 0.00044973218 -0.0019818007
v -0.0020144603 0.00044973256 -0.0011860785
v -0.0022887895 0.00044973218 8.291607E-07
v -0.0020623377 0.0004497333 0.0012295485
v -0.001144104 0.00044973218 0.0019834589
vt 0.27776322 0.9802075
vt 0.51103234 0.98026764
vt 0.2835891 0.8773103
vt 0.29578328 0.7934267
vt 0.33428943 0.69518584
vt 0.37454915 0.62159103
vt 0.43418425 0.5675664
vt 0.50719905 0.5495529
vt 0.5802285 0.57232404
vt 0.6421748 0.6154106
vt 0.70212096 0.70565367
vt 0.732633 0.79137194
vt 0.75402176 0.8868253
vt 0.7676973 0.9820385
vn -0 1 0
vn -0 1 0
vn -0 1 0
vn -0 1 0
vn -0 1 0
vn -0 1 0
vn -0 1 0
vn -0 1 0
vn -0 1 0
vn -0 1 0
vn -0 1 0
vn -0 1 0
vn -0 1 0
vn -0 1 0
g pCylinder64_0
f 3/3/3 2/2/2 1/1/1
f 4/4/4 2/2/2 3/3/3
f 5/5/5 2/2/2 4/4/4
f 6/6/6 2/2/2 5/5/5
f 7/7/7 2/2/2 6/6/6
f 8/8/8 2/2/2 7/7/7
f 9/9/9 2/2/2 8/8/8
f 10/10/10 2/2/2 9/9/9
f 11/11/11 2/2/2 10/10/10
f 12/12/12 2/2/2 11/11/11
f 13/13/13 2/2/2 12/12/12
f 14/14/14 2/2/2 13/13/13
