g pCylinder64
v 0.060207367 -9.992007E-16 -0.09926499
v -0 0.11755532 -0.14920248
v -0 -9.992007E-16 -0.11490556
v 0.08000946 0.11755532 -0.13356188
v 0.09718323 -9.992007E-16 -0.055090886
v -0 0.17724884 -0.14104585
v 0.12688541 0.11755531 -0.07223944
v 0.11192131 -5.646112E-16 -3.4724037E-09
v 0.15152454 0.117555305 -1.6140347E-09
v 0.07529926 0.17724884 -0.12540528
v 0.11982155 0.17724884 -0.06816114
v 0.14210701 0.17724884 -1.894725E-09
v 0.09374905 0.23687135 -0.053108003
v 0.10734272 0.23687133 -1.3779635E-09
v 0.057917595 0.23687135 -0.095298186
v -0 0.23687135 -0.11093875
v -0.05366993 0.23687133 -0.0929604
v -0.07105303 0.17724884 -0.1230675
v -0 0.266438 -0.114479095
v 0.059963226 0.266438 -0.09883854
v -0 0.27533454 -0.101543255
v 0.052495956 0.27533454 -0.08590269
v 0.09681511 0.266438 -0.054878388
v 0.11143112 0.266438 -7.757013E-10
v 0.0856123 0.27533454 -0.04841087
v 0.096494675 0.27533457 -1.3268435E-09
v -0.055961132 -5.646112E-16 0.09692723
v -0.07576275 0.117555305 0.13122416
v -0 0.1175553 0.14991967
v -0 -9.992007E-16 0.11562276
v -0.07105303 0.17724884 0.123067476
v -0.05366993 0.23687135 0.09296038
v -0 0.23687136 0.1116559
v -0 0.266438 0.115196206
v -0.05571413 0.266438 0.096500695
v -0.107340336 0.23687133 -1.7373072E-08
v -0.111427784 0.266438 -1.7379959E-08
v -0.09956026 0.26643804 0.059224993
v -0.0964942 0.23687138 0.05745504
v -0.05571413 0.266438 0.096500695
v -0.14210653 0.17724884 -2.3070186E-08
v -0.05366993 0.23687135 0.09296038
v -0.12256813 0.17724885 0.072509
v -0.07105303 0.17724884 0.123067476
v -0.15152454 0.117555305 -2.4192946E-08
v -0.12963247 0.11755531 0.07658723
v -0.07576275 0.117555305 0.13122416
v -0.11192179 -5.646112E-16 -2.0150067E-08
v -0.097717285 -9.992007E-16 -0.057506103
v -0.09993029 -9.992007E-16 0.059438873
v -0.055961132 -5.646112E-16 0.09692723
v -0.04504347 0.23375675 0.078088924
v 2.193451E-05 0.23375681 3.2643627E-05
v 2.0980835E-05 0.2337568 0.094011515
v 0.045088768 0.23375675 0.078088924
v 0.07995129 0.2337568 0.047814813
v 0.09015465 0.23375675 3.2648095E-05
v 0.07889843 0.23375677 -0.044640705
v 0.048706055 0.23375677 -0.08001469
v 2.0980835E-05 0.23375677 -0.09333546
v -0.04504347 0.23375675 -0.07802366
v -0.07930946 0.23375677 -0.04669602
v -0.090109825 0.23375675 3.2634678E-05
v -0.0811944 0.2337568 0.04840741
v -0.04504347 0.23375675 0.078088924
v -0.05571413 0.266438 0.096500695
v -0.048243523 0.27533457 0.08356486
v -0 0.2753346 0.10226037
v -0 0.266438 0.115196206
v 0.048249245 0.27533457 0.08356486
v 0.055716515 0.266438 0.096500695
v 0.08684826 0.2753346 0.052061077
v 0.09805107 0.266438 0.058528576
v 0.096494675 0.27533457 -1.3268435E-09
v 0.11143112 0.266438 -7.757013E-10
v -0.048243523 0.27533454 -0.0835649
v -0.04504347 0.23375675 -0.07802366
v -0.07930946 0.23375677 -0.04669602
v -0.08614349 0.27533454 -0.050823797
v -0.090109825 0.23375675 3.2634678E-05
v -0.09648991 0.27533457 -1.5705316E-08
v -0.0811944 0.2337568 0.04840741
v -0.088355064 0.2753346 0.052756563
v -0.048243523 0.27533457 0.08356486
v -0.04504347 0.23375675 0.078088924
v 2.0980835E-05 0.2337568 0.094011515
v -0 0.2753346 0.10226037
v 0.045088768 0.23375675 0.078088924
v 0.048249245 0.27533457 0.08356486
v 0.048249245 0.27533457 0.08356486
v 0.045088768 0.23375675 0.078088924
v 0.07995129 0.2337568 0.047814813
v 0.08684826 0.2753346 0.052061077
v 0.09015465 0.23375675 3.2648095E-05
v 0.096494675 0.27533457 -1.3268435E-09
v 0.07889843 0.23375677 -0.044640705
v 0.0856123 0.27533454 -0.04841087
v -0 0.11755532 -0.14920248
v -0 0.17724884 -0.14104585
v -0.07105303 0.17724884 -0.1230675
v -0.07576275 0.117555305 -0.13122416
v -0 -9.992007E-16 -0.11490556
v -0.055961132 -5.646112E-16 -0.09692723
v -0.12741947 0.11755531 -0.07465446
v -0.097717285 -9.992007E-16 -0.057506103
v -0.15152454 0.117555305 -2.4192946E-08
v -0.14210653 0.17724884 -2.3070186E-08
v -0.120355606 0.17724884 -0.070576236
v -0.107340336 0.23687133 -1.7373072E-08
v -0.0942812 0.23687135 -0.05552227
v -0.111427784 0.266438 -1.7379959E-08
v -0.09734726 0.266438 -0.057292234
v -0.05366993 0.23687133 -0.0929604
v -0.05571413 0.266438 -0.09650075
v -0 0.23687135 -0.11093875
v -0 0.266438 -0.114479095
v -0 0.23687136 0.1116559
v -0 0.266438 0.115196206
v 0.055716515 0.266438 0.096500695
v 0.053671837 0.23687135 0.09296038
v 0.09805107 0.266438 0.058528576
v -0 0.17724884 0.141763
v -0.07105303 0.17724884 0.123067476
v -0.07576275 0.117555305 0.13122416
v -0 0.1175553 0.14991967
v 0.09498501 0.23687135 0.056758214
v 0.11143112 0.266438 -7.757013E-10
v 0.10734272 0.23687133 -1.3779635E-09
v 0.07105255 0.17724884 0.123067476
v 0.12105656 0.17724884 0.071811356
v 0.14210701 0.17724884 -1.894725E-09
v 0.075761795 0.117555305 0.13122416
v -0 -9.992007E-16 0.11562276
v 0.05596161 -5.646112E-16 0.09692723
v 0.12812138 0.117555305 0.07588948
v 0.15152454 0.117555305 -1.6140347E-09
v 0.09841919 -9.992007E-16 0.058741126
v 0.11192131 -5.646112E-16 -3.4724037E-09
v -0 0.266438 -0.114479095
v -0 0.27533454 -0.101543255
v -0.048243523 0.27533454 -0.0835649
v -0.05571413 0.266438 -0.09650075
v -0.08614349 0.27533454 -0.050823797
v -0.09734726 0.266438 -0.057292234
v -0.09648991 0.27533457 -1.5705316E-08
v -0.111427784 0.266438 -1.7379959E-08
v -0.088355064 0.2753346 0.052756563
v -0.09956026 0.26643804 0.059224993
v -0.048243523 0.27533457 0.08356486
v -0.05571413 0.266438 0.096500695
v -0 0.27533454 -0.101543255
v -0.04504347 0.23375675 -0.07802366
v -0.048243523 0.27533454 -0.0835649
v 2.0980835E-05 0.23375677 -0.09333546
v 0.052495956 0.27533454 -0.08590269
v 0.048706055 0.23375677 -0.08001469
v 0.0856123 0.27533454 -0.04841087
v 0.07889843 0.23375677 -0.044640705
v -0.088355064 0.2753346 0.052756563
v -0.0811944 0.2337568 0.04840741
v -0.04504347 0.23375675 0.078088924
v -0.048243523 0.27533457 0.08356486
vt 0.51103234 0.015024765
vt 0.6737133 0.19092633
vt 0.70176697 0.06813085
vt 0.51103234 0.14779693
vt 0.3146638 0.081452824
vt 0.660619 0.24712965
vt 0.3365042 0.18942392
vt 0.11829527 0.14788088
vt 0.16197552 0.23105103
vt 0.51103234 0.20754494
vt 0.3611427 0.26621136
vt 0.21125259 0.32487798
vt 0.3903324 0.3923929
vt 0.26962978 0.43603218
vt 0.51103234 0.34875458
vt 0.629223 0.3808725
vt 0.7474094 0.41298926
vt 0.81020665 0.28671464
vt 0.6192337 0.42232764
vt 0.51103234 0.3914903
vt 0.60278344 0.49396944
vt 0.51103234 0.4686023
vt 0.39996108 0.43209365
vt 0.2888865 0.4726982
vt 0.41612417 0.50142324
vt 0.32121086 0.534246
vt 0.006803329 0.9802075
vt 0.02705786 0.9802075
vt 0.044456124 0.7715868
vt 0.0066696242 0.7431499
vt 0.082427084 0.9802075
vt 0.14113033 0.9802075
vt 0.16910252 0.84356046
vt 0.19324619 0.8545718
vt 0.16852282 0.9802075
vt 0.83549225 0.68906045
vt 0.81874585 0.7130054
vt 0.84919894 0.8467279
vt 0.8698468 0.8347559
vt 0.87965256 0.98045325
vt 0.8869914 0.6154251
vt 0.90420175 0.98045325
vt 0.9203664 0.7979395
vt 0.95374125 0.98045325
vt 0.9154874 0.57468027
vt 0.94524956 0.7775668
vt 0.9750117 0.98045325
vt 0.9903777 0.46759912
vt 0.9414388 0.2944174
vt 0.99004316 0.72402674
vt 0.98970854 0.98045325
vt 0.23319572 0.9802075
vt 0.51103234 0.98026764
vt 0.25016347 0.8804807
vt 0.26713276 0.7807449
vt 0.3056389 0.67933357
vt 0.3441468 0.5779176
vt 0.42759144 0.55255836
vt 0.51103234 0.5272003
vt 0.5910784 0.546801
vt 0.6711173 0.56639993
vt 0.7246496 0.66870576
vt 0.77818 0.7710079
vt 0.7896513 0.8757287
vt 0.8011229 0.98045325
vt 0.16852282 0.9802075
vt 0.20875582 0.9802075
vt 0.22870225 0.8707434
vt 0.19324619 0.8545718
vt 0.24865103 0.7612662
vt 0.21797061 0.72893065
vt 0.28492996 0.6477592
vt 0.25342804 0.60081637
vt 0.32121086 0.534246
vt 0.2888865 0.4726982
vt 0.6945237 0.5193336
vt 0.6711173 0.56639993
vt 0.7246496 0.66870576
vt 0.74397206 0.6342797
vt 0.77818 0.7710079
vt 0.793418 0.74922013
vt 0.7896513 0.8757287
vt 0.8086426 0.86483383
vt 0.20875582 0.9802075
vt 0.23319572 0.9802075
vt 0.25016347 0.8804807
vt 0.22870225 0.8707434
vt 0.26713276 0.7807449
vt 0.24865103 0.7612662
vt 0.24865103 0.7612662
vt 0.26713276 0.7807449
vt 0.3056389 0.67933357
vt 0.28492996 0.6477592
vt 0.3441468 0.5779176
vt 0.32121086 0.534246
vt 0.42759144 0.55255836
vt 0.41612417 0.50142324
vt 0.6737133 0.19092633
vt 0.660619 0.24712965
vt 0.81020665 0.28671464
vt 0.83639425 0.23405573
vt 0.70176697 0.06813085
vt 0.89250004 0.12123647
vt 0.8759408 0.40436798
vt 0.9414388 0.2944174
vt 0.9154874 0.57468027
vt 0.8869914 0.6154251
vt 0.84859896 0.4510696
vt 0.83549225 0.68906045
vt 0.7914511 0.55102575
vt 0.81874585 0.7130054
vt 0.77308863 0.5830859
vt 0.7474094 0.41298926
vt 0.72743046 0.45316362
vt 0.629223 0.3808725
vt 0.6192337 0.42232764
vt 0.16910252 0.84356046
vt 0.19324619 0.8545718
vt 0.21797061 0.72893065
vt 0.19707572 0.7069085
vt 0.25342804 0.60081637
vt 0.102387816 0.801899
vt 0.082427084 0.9802075
vt 0.02705786 0.9802075
vt 0.044456124 0.7715868
vt 0.23335236 0.5714718
vt 0.2888865 0.4726982
vt 0.26962978 0.43603218
vt 0.122348405 0.6235917
vt 0.16680041 0.4742351
vt 0.21125259 0.32487798
vt 0.061854172 0.5629686
vt 0.0066696242 0.7431499
vt 0.0065359175 0.50609016
vt 0.111914925 0.39700955
vt 0.16197552 0.23105103
vt 0.062415592 0.32698554
vt 0.11829527 0.14788088
vt 0.6192337 0.42232764
vt 0.60278344 0.49396944
vt 0.6945237 0.5193336
vt 0.72743046 0.45316362
vt 0.74397206 0.6342797
vt 0.77308863 0.5830859
vt 0.793418 0.74922013
vt 0.81874585 0.7130054
vt 0.8086426 0.86483383
vt 0.84919894 0.8467279
vt 0.823868 0.98045325
vt 0.87965256 0.98045325
vt 0.60278344 0.49396944
vt 0.6711173 0.56639993
vt 0.6945237 0.5193336
vt 0.5910784 0.546801
vt 0.51103234 0.4686023
vt 0.51103234 0.5272003
vt 0.41612417 0.50142324
vt 0.42759144 0.55255836
vt 0.8086426 0.86483383
vt 0.7896513 0.8757287
vt 0.8011229 0.98045325
vt 0.823868 0.98045325
vn 0.5054254 -0.30508742 -0.807135
vn -0.021992547 -0.07878907 -0.9966486
vn -0.022400958 -0.2983122 -0.95420545
vn 0.52767855 -0.08132064 -0.8455426
vn 0.84527016 -0.29380217 -0.4463167
vn -0.021558842 0.31524405 -0.94876575
vn 0.8807155 -0.07766077 -0.46723548
vn 0.95339835 -0.3013187 -0.015449264
vn 0.9966581 -0.08018376 -0.015596441
vn 0.50157624 0.32337362 -0.80240303
vn 0.8400205 0.31079853 -0.44471344
vn 0.94750816 0.31937692 -0.015052145
vn 0.8717764 0.18213579 -0.45478842
vn 0.9826653 0.18460025 -0.01707841
vn 0.5242988 0.18726942 -0.830687
vn -0.026679322 0.18555443 -0.9822717
vn -0.4998923 0.1838412 -0.8463511
vn -0.48135397 0.31814682 -0.8167502
vn -0.026831709 0.43329287 -0.9008537
vn 0.4826798 0.43396005 -0.7607226
vn 0.012754721 0.92518264 0.3793077
vn -0.20589076 0.9238381 0.3226949
vn 0.80317664 0.42685056 -0.41557902
vn 0.903818 0.42760506 -0.0163365
vn -0.34573534 0.92160875 0.17636475
vn -0.3932044 0.9194203 0.007517353
vn -0.4709008 -0.2983333 0.8302107
vn -0.49224705 -0.079241365 0.8668412
vn -0 -0.07944526 0.9968393
vn -0 -0.30101725 0.9536187
vn -0.4682666 0.3162107 0.825068
vn -0.48393297 0.1827238 0.85581595
vn -0 0.18781254 0.98220485
vn -0 0.43782568 0.8990599
vn -0.4452538 0.42327288 0.7890432
vn -0.98276055 0.18373403 -0.020583013
vn -0.90467376 0.42563313 -0.020043584
vn -0.77399373 0.43906835 0.45623767
vn -0.8466483 0.18842763 0.49767643
vn -0.4452538 0.42327288 0.7890432
vn -0.9479703 0.3178719 -0.017600454
vn -0.48393297 0.1827238 0.85581595
vn -0.8180848 0.31858552 0.47879067
vn -0.4682666 0.3162107 0.825068
vn -0.99665135 -0.07973156 -0.018139903
vn -0.8604606 -0.07961457 0.5032584
vn -0.49224705 -0.079241365 0.8668412
vn -0.9537991 -0.29989713 -0.01813822
vn -0.82492596 -0.2985291 -0.47997653
vn -0.82269156 -0.301732 0.4818054
vn -0.4709008 -0.2983333 0.8302107
vn 0.3144233 0.76773864 -0.5583148
vn -0 1 0
vn -0 0.7834792 -0.62141794
vn -0.32222646 0.76802236 -0.5534545
vn -0.5374724 0.78113884 -0.317719
vn -0.6382342 0.76975 0.011917202
vn -0.5649424 0.7724905 0.28999758
vn -0.33735135 0.7783132 0.52954936
vn 0.020108642 0.78001124 0.62544245
vn 0.3254253 0.76925415 0.54986036
vn 0.54149926 0.77880484 0.31660953
vn 0.63900506 0.76905864 0.01487536
vn 0.5331185 0.7852341 -0.31494763
vn 0.3144233 0.76773864 -0.5583148
vn -0.4452538 0.42327288 0.7890432
vn 0.19325939 0.9189833 -0.34368673
vn -0 0.92677546 -0.37561575
vn -0 0.43782568 0.8990599
vn -0.19841924 0.9189413 -0.3408469
vn 0.4557055 0.42430767 0.7824931
vn -0.32579845 0.9255675 -0.19282164
vn 0.77519727 0.43596548 0.4571688
vn -0.3932044 0.9194203 0.007517353
vn 0.903818 0.42760506 -0.0163365
vn 0.20043473 0.9194069 0.33840334
vn 0.3254253 0.76925415 0.54986036
vn 0.54149926 0.77880484 0.31660953
vn 0.329232 0.92438966 0.19263944
vn 0.63900506 0.76905864 0.01487536
vn 0.39335984 0.9193356 0.009498502
vn 0.5331185 0.7852341 -0.31494763
vn 0.32135162 0.9276983 -0.19002391
vn 0.19325939 0.9189833 -0.34368673
vn 0.3144233 0.76773864 -0.5583148
vn -0 0.7834792 -0.62141794
vn -0 0.92677546 -0.37561575
vn -0.32222646 0.76802236 -0.5534545
vn -0.19841924 0.9189413 -0.3408469
vn -0.19841924 0.9189413 -0.3408469
vn -0.32222646 0.76802236 -0.5534545
vn -0.5374724 0.78113884 -0.317719
vn -0.32579845 0.9255675 -0.19282164
vn -0.6382342 0.76975 0.011917202
vn -0.3932044 0.9194203 0.007517353
vn -0.5649424 0.7724905 0.28999758
vn -0.34573534 0.92160875 0.17636475
vn -0.021992547 -0.07878907 -0.9966486
vn -0.021558842 0.31524405 -0.94876575
vn -0.48135397 0.31814682 -0.8167502
vn -0.5059874 -0.079817556 -0.8588398
vn -0.022400958 -0.2983122 -0.95420545
vn -0.48448443 -0.30014762 -0.8216972
vn -0.86180735 -0.07884558 -0.50107026
vn -0.82492596 -0.2985291 -0.47997653
vn -0.99665135 -0.07973156 -0.018139903
vn -0.9479703 0.3178719 -0.017600454
vn -0.82028216 0.31545588 -0.4771004
vn -0.98276055 0.18373403 -0.020583013
vn -0.8488469 0.18577586 -0.49492046
vn -0.90467376 0.42563313 -0.020043584
vn -0.7780696 0.43379903 -0.45434132
vn -0.4998923 0.1838412 -0.8463511
vn -0.46050858 0.42581227 -0.7788554
vn -0.026679322 0.18555443 -0.9822717
vn -0.026831709 0.43329287 -0.9008537
vn -0 0.18781254 0.98220485
vn -0 0.43782568 0.8990599
vn 0.4557055 0.42430767 0.7824931
vn 0.4948301 0.18318512 0.84946245
vn 0.77519727 0.43596548 0.4571688
vn -0 0.317884 0.9481296
vn -0.4682666 0.3162107 0.825068
vn -0.49224705 -0.079241365 0.8668412
vn -0 -0.07944526 0.9968393
vn 0.8468129 0.18687055 0.49798337
vn 0.903818 0.42760506 -0.0163365
vn 0.9826653 0.18460025 -0.01707841
vn 0.47742316 0.3170443 0.8194816
vn 0.8185534 0.31677753 0.47918925
vn 0.94750816 0.31937692 -0.015052145
vn 0.5018051 -0.07949195 0.8613203
vn -0 -0.30101725 0.9536187
vn 0.48037025 -0.29911733 0.8244837
vn 0.8604391 -0.079174094 0.5033647
vn 0.9966581 -0.08018376 -0.015596441
vn 0.8231361 -0.2998938 0.48219365
vn 0.95339835 -0.3013187 -0.015449264
vn -0.026831709 0.43329287 -0.9008537
vn 0.012754721 0.92518264 0.3793077
vn 0.20043473 0.9194069 0.33840334
vn -0.46050858 0.42581227 -0.7788554
vn 0.329232 0.92438966 0.19263944
vn -0.7780696 0.43379903 -0.45434132
vn 0.39335984 0.9193356 0.009498502
vn -0.90467376 0.42563313 -0.020043584
vn 0.32135162 0.9276983 -0.19002391
vn -0.77399373 0.43906835 0.45623767
vn 0.19325939 0.9189833 -0.34368673
vn -0.4452538 0.42327288 0.7890432
vn 0.012754721 0.92518264 0.3793077
vn 0.3254253 0.76925415 0.54986036
vn 0.20043473 0.9194069 0.33840334
vn 0.020108642 0.78001124 0.62544245
vn -0.20589076 0.9238381 0.3226949
vn -0.33735135 0.7783132 0.52954936
vn -0.34573534 0.92160875 0.17636475
vn -0.5649424 0.7724905 0.28999758
vn 0.32135162 0.9276983 -0.19002391
vn 0.5331185 0.7852341 -0.31494763
vn 0.3144233 0.76773864 -0.5583148
vn 0.19325939 0.9189833 -0.34368673
g pCylinder64_0
f 3/3/3 2/2/2 1/1/1
f 2/2/2 4/4/4 1/1/1
f 1/1/1 4/4/4 5/5/5
f 2/2/2 6/6/6 4/4/4
f 4/4/4 7/7/7 5/5/5
f 5/5/5 7/7/7 8/8/8
f 7/7/7 9/9/9 8/8/8
f 4/4/4 10/10/10 7/7/7
f 6/6/6 10/10/10 4/4/4
f 7/7/7 11/11/11 9/9/9
f 10/10/10 11/11/11 7/7/7
f 11/11/11 12/12/12 9/9/9
f 11/11/11 13/13/13 12/12/12
f 13/13/13 14/14/14 12/12/12
f 10/10/10 15/15/15 11/11/11
f 15/15/15 13/13/13 11/11/11
f 6/6/6 16/16/16 10/10/10
f 16/16/16 15/15/15 10/10/10
f 17/17/17 16/16/16 6/6/6
f 18/18/18 17/17/17 6/6/6
f 16/16/16 19/19/19 15/15/15
f 19/19/19 20/20/20 15/15/15
f 15/15/15 20/20/20 13/13/13
f 19/19/19 21/21/21 20/20/20
f 21/21/21 22/22/22 20/20/20
f 13/13/13 23/23/23 14/14/14
f 20/20/20 23/23/23 13/13/13
f 20/20/20 22/22/22 23/23/23
f 23/23/23 24/24/24 14/14/14
f 22/22/22 25/25/25 23/23/23
f 23/23/23 25/25/25 24/24/24
f 25/25/25 26/26/26 24/24/24
f 29/29/29 28/28/28 27/27/27
f 30/30/30 29/29/29 27/27/27
f 33/33/33 32/32/32 31/31/31
f 33/33/33 34/34/34 32/32/32
f 34/34/34 35/35/35 32/32/32
f 38/38/38 37/37/37 36/36/36
f 39/39/39 38/38/38 36/36/36
f 40/40/40 38/38/38 39/39/39
f 39/39/39 36/36/36 41/41/41
f 42/42/42 40/40/40 39/39/39
f 43/43/43 39/39/39 41/41/41
f 42/42/42 39/39/39 43/43/43
f 44/44/44 42/42/42 43/43/43
f 43/43/43 41/41/41 45/45/45
f 44/44/44 43/43/43 46/46/46
f 46/46/46 43/43/43 45/45/45
f 47/47/47 44/44/44 46/46/46
f 46/46/46 45/45/45 48/48/48
f 48/48/48 45/45/45 49/49/49
f 50/50/50 46/46/46 48/48/48
f 47/47/47 46/46/46 50/50/50
f 51/51/51 47/47/47 50/50/50
f 54/54/54 53/53/53 52/52/52
f 55/55/55 53/53/53 54/54/54
f 56/56/56 53/53/53 55/55/55
f 57/57/57 53/53/53 56/56/56
f 58/58/58 53/53/53 57/57/57
f 59/59/59 53/53/53 58/58/58
f 60/60/60 53/53/53 59/59/59
f 61/61/61 53/53/53 60/60/60
f 62/62/62 53/53/53 61/61/61
f 63/63/63 53/53/53 62/62/62
f 64/64/64 53/53/53 63/63/63
f 65/65/65 53/53/53 64/64/64
f 68/68/68 67/67/67 66/66/66
f 69/69/69 68/68/68 66/66/66
f 70/70/70 68/68/68 69/69/69
f 71/71/71 70/70/70 69/69/69
f 72/72/72 70/70/70 71/71/71
f 73/73/73 72/72/72 71/71/71
f 74/74/74 72/72/72 73/73/73
f 75/75/75 74/74/74 73/73/73
f 78/78/78 77/77/77 76/76/76
f 79/79/79 78/78/78 76/76/76
f 80/80/80 78/78/78 79/79/79
f 81/81/81 80/80/80 79/79/79
f 82/82/82 80/80/80 81/81/81
f 83/83/83 82/82/82 81/81/81
f 86/86/86 85/85/85 84/84/84
f 87/87/87 86/86/86 84/84/84
f 88/88/88 86/86/86 87/87/87
f 89/89/89 88/88/88 87/87/87
f 92/92/92 91/91/91 90/90/90
f 93/93/93 92/92/92 90/90/90
f 94/94/94 92/92/92 93/93/93
f 95/95/95 94/94/94 93/93/93
f 96/96/96 94/94/94 95/95/95
f 97/97/97 96/96/96 95/95/95
f 100/100/100 99/99/99 98/98/98
f 101/101/101 100/100/100 98/98/98
f 101/101/101 98/98/98 102/102/102
f 103/103/103 101/101/101 102/102/102
f 104/104/104 101/101/101 103/103/103
f 105/105/105 104/104/104 103/103/103
f 106/106/106 104/104/104 105/105/105
f 106/106/106 107/107/107 104/104/104
f 104/104/104 108/108/108 101/101/101
f 107/107/107 108/108/108 104/104/104
f 108/108/108 100/100/100 101/101/101
f 107/107/107 109/109/109 108/108/108
f 108/108/108 110/110/110 100/100/100
f 109/109/109 110/110/110 108/108/108
f 109/109/109 111/111/111 110/110/110
f 111/111/111 112/112/112 110/110/110
f 110/110/110 113/113/113 100/100/100
f 110/110/110 112/112/112 113/113/113
f 112/112/112 114/114/114 113/113/113
f 113/113/113 114/114/114 115/115/115
f 114/114/114 116/116/116 115/115/115
f 119/119/119 118/118/118 117/117/117
f 120/120/120 119/119/119 117/117/117
f 121/121/121 119/119/119 120/120/120
f 120/120/120 117/117/117 122/122/122
f 122/122/122 117/117/117 123/123/123
f 122/122/122 123/123/123 124/124/124
f 125/125/125 122/122/122 124/124/124
f 126/126/126 121/121/121 120/120/120
f 127/127/127 121/121/121 126/126/126
f 128/128/128 127/127/127 126/126/126
f 129/129/129 120/120/120 122/122/122
f 129/129/129 122/122/122 125/125/125
f 126/126/126 120/120/120 129/129/129
f 128/128/128 126/126/126 130/130/130
f 130/130/130 126/126/126 129/129/129
f 131/131/131 128/128/128 130/130/130
f 132/132/132 129/129/129 125/125/125
f 130/130/130 129/129/129 132/132/132
f 132/132/132 125/125/125 133/133/133
f 134/134/134 132/132/132 133/133/133
f 131/131/131 130/130/130 135/135/135
f 135/135/135 130/130/130 132/132/132
f 135/135/135 132/132/132 134/134/134
f 136/136/136 131/131/131 135/135/135
f 137/137/137 135/135/135 134/134/134
f 136/136/136 135/135/135 137/137/137
f 138/138/138 136/136/136 137/137/137
f 141/141/141 140/140/140 139/139/139
f 142/142/142 141/141/141 139/139/139
f 143/143/143 141/141/141 142/142/142
f 144/144/144 143/143/143 142/142/142
f 145/145/145 143/143/143 144/144/144
f 146/146/146 145/145/145 144/144/144
f 147/147/147 145/145/145 146/146/146
f 148/148/148 147/147/147 146/146/146
f 149/149/149 147/147/147 148/148/148
f 150/150/150 149/149/149 148/148/148
f 153/153/153 152/152/152 151/151/151
f 152/152/152 154/154/154 151/151/151
f 151/151/151 154/154/154 155/155/155
f 154/154/154 156/156/156 155/155/155
f 155/155/155 156/156/156 157/157/157
f 156/156/156 158/158/158 157/157/157
f 161/161/161 160/160/160 159/159/159
f 162/162/162 161/161/161 159/159/159
