g Pelvis
v -0.07159498 -0.02064432 -0.032546375
v -0.09161585 -0.0025382615 0.0062822104
v -0.13926624 0.047642134 -0.0171173
v -0.09161585 -0.025146626 0.01682466
v -0.07159498 -0.043252695 -0.022003919
v -0.029601477 -0.051267385 -0.030812053
v -0.029601477 -0.07387576 -0.0202696
v 1.1920928E-08 -0.05990772 -0.030309819
v 1.1920928E-08 -0.08251609 -0.019767364
v 0.029601514 -0.07387576 -0.0202696
v 0.029601514 -0.051267385 -0.030812053
v 0.071595 -0.043252695 -0.022003919
v 0.071595 -0.02064432 -0.032546375
v -0.06341008 0.012073574 0.037617415
v -0.09161585 -0.0025382615 0.0062822104
v -0.09161585 -0.025146626 0.01682466
v -0.06341008 -0.019433746 0.052309513
v -0.032061577 -0.022091845 0.07524818
v -0.032061577 0.020384826 0.055440977
v 1.1920928E-08 0.022294464 0.05953617
v 1.1920928E-08 -0.032518882 0.085096054
v 0.0320616 -0.022091845 0.07524818
v 0.0320616 0.020384826 0.055440977
v 0.063410096 0.012073574 0.037617415
v 0.063410096 -0.019433746 0.052309513
v 0.09161588 -0.025146626 0.01682466
v 0.09161588 -0.0025382615 0.0062822104
v 0.071595 -0.02064432 -0.032546375
v 0.09161588 -0.025146626 0.01682466
v 0.071595 -0.043252695 -0.022003919
v 0.09161588 -0.0025382615 0.0062822104
v 0.13926625 0.047642134 -0.0171173
v 0.13844605 0.067834735 0.06622896
v 0.063410096 0.012073574 0.037617415
v 0.058630724 0.08420126 0.10132713
v 0.0320616 0.020384826 0.055440977
v 1.1920928E-08 0.057857685 0.097480774
v 1.1920928E-08 0.022294464 0.05953617
v -0.032061577 0.020384826 0.055440977
v -0.058630705 0.08420126 0.10132713
v -0.06341008 0.012073574 0.037617415
v 1.1920928E-08 0.046906564 0.11921275
v 0.064711034 0.07325016 0.12305911
v -0.064711004 0.07325016 0.12305911
v 0.15561786 0.05226963 0.07806621
v -0.13844602 0.067834735 0.06622896
v -0.09161585 -0.0025382615 0.0062822104
v -0.15561783 0.05226963 0.07806621
v -0.13926624 0.047642134 -0.0171173
v 0.18703625 0.08886818 0.0073434114
v 0.22707357 0.08553324 0.025499687
v -0.1870362 0.08886818 0.0073434114
v -0.22707355 0.08553324 0.025499687
v 0.21172364 0.08741089 -0.035661753
v 0.2545279 0.06959572 -0.027354416
v 0.2545279 0.046504896 -0.07687288
v -0.2117236 0.08741089 -0.035661753
v -0.2545279 0.06959572 -0.027354416
v -0.2545279 0.046504896 -0.07687288
v 0.13926625 0.024551315 -0.06663576
v 0.21172364 0.06432003 -0.08518021
v 0.22707357 0.016260738 -0.12305568
v 0.18703625 0.032312926 -0.11393978
v 0.15788732 -0.031195926 -0.10092628
v -0.13926624 0.024551315 -0.06663576
v -0.07159498 -0.02064432 -0.032546375
v -0.2117236 0.06432003 -0.08518021
v -0.22707355 0.016260738 -0.12305568
v -0.1870362 0.032312926 -0.11393978
v -0.15788731 -0.031195926 -0.10092628
v 0.14010973 -0.009275513 -0.09913452
v 0.062426824 -0.042923544 -0.080324315
v 0.062426824 -0.0713283 -0.082212254
v 1.1920928E-08 -0.060463667 -0.08165092
v 0.029601514 -0.051267385 -0.030812053
v 1.1920928E-08 -0.088868424 -0.083538875
v 1.1920928E-08 -0.05990772 -0.030309819
v -0.062426794 -0.0713283 -0.082212254
v -0.029601477 -0.051267385 -0.030812053
v -0.062426794 -0.042923544 -0.080324315
v -0.14010972 -0.009275513 -0.09913452
v 1.1920928E-08 0.046906564 0.11921275
v 1.1920928E-08 -0.032518882 0.085096054
v -0.032061577 -0.022091845 0.07524818
v 0.0320616 -0.022091845 0.07524818
v -0.064711004 0.07325016 0.12305911
v 0.064711034 0.07325016 0.12305911
v -0.06341008 -0.019433746 0.052309513
v 0.063410096 -0.019433746 0.052309513
v -0.15561783 0.05226963 0.07806621
v 0.15561786 0.05226963 0.07806621
v -0.09161585 -0.025146626 0.01682466
v 0.09161588 -0.025146626 0.01682466
v -0.17285575 0.034440536 -0.0109612895
v -0.22707355 0.08553324 0.025499687
v -0.2545279 0.06959572 -0.027354416
v -0.07159498 -0.043252695 -0.022003919
v 0.1728558 0.034440536 -0.0109612895
v 0.22707357 0.08553324 0.025499687
v 0.2545279 0.06959572 -0.027354416
v 0.071595 -0.043252695 -0.022003919
v -0.17285575 0.011349716 -0.06047975
v -0.2545279 0.046504896 -0.07687288
v -0.22707355 0.016260738 -0.12305568
v -0.15788731 -0.031195926 -0.10092628
v -0.062426794 -0.0713283 -0.082212254
v -0.029601477 -0.07387576 -0.0202696
v 1.1920928E-08 -0.088868424 -0.083538875
v 1.1920928E-08 -0.08251609 -0.019767364
v 0.029601514 -0.07387576 -0.0202696
v 0.062426824 -0.0713283 -0.082212254
v 0.1728558 0.011349716 -0.06047975
v 0.15788732 -0.031195926 -0.10092628
v 0.2545279 0.046504896 -0.07687288
v 0.22707357 0.016260738 -0.12305568
vt 0.68589014 0.05164251
vt 0.6849892 0.04727417
vt 0.677963 0.04693239
vt 0.68679047 0.04757538
vt 0.68760127 0.05067698
vt 0.69041693 0.052567508
vt 0.6913751 0.051070273
vt 0.6929088 0.05271135
vt 0.69292027 0.05106087
vt 0.69446516 0.051091783
vt 0.6954024 0.052602217
vt 0.69824415 0.05075104
vt 0.6999418 0.051740326
vt 0.6872484 0.04396872
vt 0.6849892 0.04727417
vt 0.68679047 0.04757538
vt 0.6889057 0.04578103
vt 0.69117373 0.04556935
vt 0.6901317 0.042251583
vt 0.6929846 0.04180462
vt 0.69295317 0.046345863
vt 0.694743 0.04559417
vt 0.69583106 0.042291142
vt 0.69869035 0.044048175
vt 0.6970081 0.04583734
vt 0.69909805 0.04766094
vt 0.7009034 0.047384787
vt 0.6999418 0.051740326
vt 0.69909805 0.04766094
vt 0.69824415 0.05075104
vt 0.7009034 0.047384787
vt 0.707934 0.047140703
vt 0.7062525 0.038429227
vt 0.69869035 0.044048175
vt 0.6989081 0.03470054
vt 0.69583106 0.042291142
vt 0.693024 0.03613867
vt 0.6929846 0.04180462
vt 0.6901317 0.042251583
vt 0.6871604 0.034619197
vt 0.6872484 0.04396872
vt 0.6930415 0.033605456
vt 0.6991405 0.032502666
vt 0.68695843 0.032418415
vt 0.70788723 0.036277507
vt 0.6797653 0.03824555
vt 0.6849892 0.04727417
vt 0.67816055 0.0360715
vt 0.677963 0.04693239
vt 0.71300006 0.043026697
vt 0.7164142 0.04040732
vt 0.672955 0.042748664
vt 0.66957766 0.04008235
vt 0.71581215 0.046855174
vt 0.7203994 0.046155334
vt 0.72033656 0.052505407
vt 0.67009014 0.04653743
vt 0.6655136 0.04577408
vt 0.665488 0.052123796
vt 0.7082685 0.05259187
vt 0.7159487 0.052013297
vt 0.71687436 0.05832171
vt 0.7136384 0.055866104
vt 0.7083074 0.06017544
vt 0.6775527 0.05237807
vt 0.68589014 0.05164251
vt 0.66988194 0.051692758
vt 0.6688686 0.057987183
vt 0.6721382 0.055577032
vt 0.6774082 0.05995981
vt 0.7077234 0.057383183
vt 0.6991715 0.05719195
vt 0.69833404 0.059989914
vt 0.692872 0.057981424
vt 0.6954024 0.052602217
vt 0.6928521 0.06083569
vt 0.6929088 0.05271135
vt 0.6873827 0.059913427
vt 0.69041693 0.052567508
vt 0.68658435 0.057104148
vt 0.67803115 0.057176173
vt 0.7828142 0.033643384
vt 0.7828861 0.04072577
vt 0.7852107 0.040379714
vt 0.7805549 0.040427044
vt 0.7880622 0.031719238
vt 0.77752835 0.031826064
vt 0.7877555 0.041373342
vt 0.7780307 0.041472275
vt 0.7952443 0.035659913
vt 0.7704277 0.03591158
vt 0.7901505 0.043853126
vt 0.77568614 0.044000123
vt 0.79839003 0.042981375
vt 0.80283904 0.037647136
vt 0.8056853 0.0422224
vt 0.7891732 0.047515918
vt 0.7674308 0.043295056
vt 0.7628749 0.038051836
vt 0.760122 0.042683408
vt 0.77673715 0.047642555
vt 0.7988162 0.047755934
vt 0.8061601 0.047097508
vt 0.804428 0.052225735
vt 0.79716545 0.052829377
vt 0.78850055 0.053277127
vt 0.7851451 0.048003968
vt 0.7830177 0.05375848
vt 0.782961 0.048171166
vt 0.78077424 0.048048563
vt 0.77752626 0.053388838
vt 0.7671009 0.048077293
vt 0.7688538 0.05311648
vt 0.7597454 0.04756698
vt 0.76158035 0.052659325
vn 0.71472675 0.6959882 0.069037355
vn 0.8663278 0.44251743 -0.23163426
vn 0.59052163 0.7539318 -0.2878734
vn 0.9865737 -0.06902076 -0.14801559
vn 0.5865849 0.34227324 0.73400766
vn 0.34031576 0.7870923 0.51446176
vn 0.16181868 0.41704822 0.89436316
vn -0 0.81059647 0.58560514
vn -0 0.42261815 0.90630776
vn -0.16181868 0.41704828 0.8943631
vn -0.34031576 0.7870923 0.51446176
vn -0.5865848 0.34227327 0.7340077
vn -0.71472675 0.6959881 0.06903742
vn 0.61373454 0.2425989 -0.75131595
vn 0.8663278 0.44251743 -0.23163426
vn 0.9865737 -0.06902076 -0.14801559
vn 0.64141923 -0.3242287 -0.69531083
vn 0.2983218 -0.40337452 -0.8650394
vn 0.3117668 0.19118541 -0.9307252
vn -0 0.17483918 -0.984597
vn -0 -0.42261836 -0.90630776
vn -0.29832187 -0.40337452 -0.8650394
vn -0.31176683 0.19118541 -0.9307252
vn -0.6137345 0.24259894 -0.75131595
vn -0.64141923 -0.3242287 -0.69531083
vn -0.9865737 -0.06902075 -0.14801559
vn -0.8663278 0.44251743 -0.23163426
vn -0.71472675 0.6959881 0.06903742
vn -0.9865737 -0.06902075 -0.14801559
vn -0.5865848 0.34227327 0.7340077
vn -0.8663278 0.44251743 -0.23163426
vn -0.5905216 0.7539318 -0.28787336
vn -0.09620804 0.99459535 0.03904002
vn -0.6137345 0.24259894 -0.75131595
vn -0.11549123 0.99026346 -0.0777172
vn -0.31176683 0.19118541 -0.9307252
vn -0 0.9748063 -0.22305302
vn -0 0.17483918 -0.984597
vn 0.3117668 0.19118541 -0.9307252
vn 0.11549121 0.99026346 -0.077717155
vn 0.61373454 0.2425989 -0.75131595
vn -0 0.8692871 0.49430752
vn 0.0037733929 0.8857703 0.46410847
vn -0.003773306 0.8857703 0.46410844
vn 0.17449974 0.87467134 0.45221668
vn 0.09620798 0.99459535 0.039040085
vn 0.8663278 0.44251743 -0.23163426
vn -0.17449972 0.87467134 0.45221668
vn 0.59052163 0.7539318 -0.2878734
vn -0.20646852 0.97824407 0.020233829
vn 0.17679477 0.9678439 0.17894647
vn 0.20646869 0.97824407 0.02023383
vn -0.1767947 0.9678439 0.17894639
vn -0.035480812 0.95994365 -0.27793747
vn 0.35520026 0.90425205 -0.23698291
vn 0.35520017 0.76278156 -0.54036754
vn 0.035481125 0.95994365 -0.27793753
vn -0.35519987 0.90425223 -0.23698299
vn -0.35519984 0.7627818 -0.5403675
vn -0.5849811 0.71930087 -0.37470445
vn -0.039938476 0.8248479 -0.56394225
vn 0.08334113 0.42101654 -0.9032161
vn -0.29133672 0.4590337 -0.83929193
vn -0.22751762 -0.050989747 -0.972438
vn 0.5849811 0.71930087 -0.37470445
vn 0.71472675 0.6959882 0.069037355
vn 0.039938807 0.82484794 -0.56394213
vn -0.08334103 0.42101666 -0.903216
vn 0.2913368 0.4590337 -0.83929193
vn 0.22751753 -0.050989836 -0.972438
vn -0.43272623 0.33582953 -0.83663994
vn -0.37170225 0.5255845 -0.76524395
vn -0.08163497 0.039368894 -0.9958845
vn -0 0.6177215 -0.786397
vn -0.34031576 0.7870923 0.51446176
vn -0 0.06631951 -0.9977984
vn -0 0.81059647 0.58560514
vn 0.08163495 0.03936888 -0.9958845
vn 0.34031576 0.7870923 0.51446176
vn 0.37170222 0.5255845 -0.76524395
vn 0.4327262 0.3358295 -0.83664
vn -0 -0.4593032 0.8882796
vn -0 -0.45930317 0.8882796
vn -0.27118677 -0.5060312 0.8187735
vn 0.27118677 -0.50603133 0.8187735
vn -0.29053858 -0.5294589 0.7970323
vn 0.2905386 -0.5294589 0.79703236
vn -0.43417993 -0.6605577 0.612496
vn 0.43417993 -0.6605577 0.612496
vn -0.4887609 -0.7219649 0.48977494
vn 0.48876098 -0.7219649 0.48977494
vn -0.5726233 -0.76426864 0.29664123
vn 0.5726232 -0.7642687 0.2966413
vn -0.51938814 -0.7885734 0.32922325
vn -0.50853217 -0.7877355 0.34766045
vn -0.4621666 -0.8067791 0.36811623
vn -0.49818668 -0.81626374 0.2924438
vn 0.51938814 -0.7885733 0.32922322
vn 0.50853235 -0.7877354 0.34766042
vn 0.46216673 -0.80677897 0.36811614
vn 0.49818665 -0.81626385 0.29244378
vn -0.5052333 -0.7852275 0.35799032
vn -0.46575856 -0.7968554 0.38482532
vn -0.5169308 -0.7630452 0.38800088
vn -0.5000293 -0.76411664 0.4075493
vn -0.45097217 -0.8444226 0.28909257
vn -0.3666606 -0.91793805 0.15149173
vn -0 -0.9855702 0.16926706
vn -0 -0.9950754 0.09912038
vn 0.36666054 -0.91793805 0.15149175
vn 0.45097217 -0.8444226 0.28909254
vn 0.5052333 -0.7852275 0.3579903
vn 0.5000293 -0.76411664 0.40754926
vn 0.46575874 -0.7968553 0.38482523
vn 0.5169309 -0.7630451 0.38800082
g Pelvis_0
f 3/3/3 2/2/2 1/1/1
f 1/1/1 2/2/2 4/4/4
f 4/4/4 5/5/5 1/1/1
f 6/6/6 1/1/1 5/5/5
f 5/5/5 7/7/7 6/6/6
f 8/8/8 6/6/6 7/7/7
f 7/7/7 9/9/9 8/8/8
f 8/8/8 9/9/9 10/10/10
f 10/10/10 11/11/11 8/8/8
f 11/11/11 10/10/10 12/12/12
f 12/12/12 13/13/13 11/11/11
f 16/16/16 15/15/15 14/14/14
f 14/14/14 17/17/17 16/16/16
f 18/18/18 17/17/17 14/14/14
f 14/14/14 19/19/19 18/18/18
f 18/18/18 19/19/19 20/20/20
f 20/20/20 21/21/21 18/18/18
f 22/22/22 21/21/21 20/20/20
f 23/23/23 22/22/22 20/20/20
f 22/22/22 23/23/23 24/24/24
f 24/24/24 25/25/25 22/22/22
f 26/26/26 25/25/25 24/24/24
f 24/24/24 27/27/27 26/26/26
f 30/30/30 29/29/29 28/28/28
f 29/29/29 31/31/31 28/28/28
f 28/28/28 31/31/31 32/32/32
f 33/33/33 32/32/32 31/31/31
f 31/31/31 34/34/34 33/33/33
f 34/34/34 35/35/35 33/33/33
f 36/36/36 35/35/35 34/34/34
f 35/35/35 36/36/36 37/37/37
f 36/36/36 38/38/38 37/37/37
f 37/37/37 38/38/38 39/39/39
f 39/39/39 40/40/40 37/37/37
f 40/40/40 39/39/39 41/41/41
f 37/37/37 42/42/42 35/35/35
f 40/40/40 42/42/42 37/37/37
f 42/42/42 43/43/43 35/35/35
f 33/33/33 35/35/35 43/43/43
f 42/42/42 40/40/40 44/44/44
f 45/45/45 33/33/33 43/43/43
f 40/40/40 41/41/41 46/46/46
f 46/46/46 44/44/44 40/40/40
f 46/46/46 41/41/41 47/47/47
f 48/48/48 44/44/44 46/46/46
f 47/47/47 49/49/49 46/46/46
f 50/50/50 33/33/33 45/45/45
f 51/51/51 50/50/50 45/45/45
f 32/32/32 33/33/33 50/50/50
f 52/52/52 48/48/48 46/46/46
f 52/52/52 46/46/46 49/49/49
f 48/48/48 52/52/52 53/53/53
f 54/54/54 50/50/50 51/51/51
f 32/32/32 50/50/50 54/54/54
f 51/51/51 55/55/55 54/54/54
f 54/54/54 55/55/55 56/56/56
f 53/53/53 52/52/52 57/57/57
f 49/49/49 57/57/57 52/52/52
f 57/57/57 58/58/58 53/53/53
f 58/58/58 57/57/57 59/59/59
f 60/60/60 32/32/32 54/54/54
f 32/32/32 60/60/60 28/28/28
f 54/54/54 56/56/56 61/61/61
f 54/54/54 61/61/61 60/60/60
f 61/61/61 56/56/56 62/62/62
f 62/62/62 63/63/63 61/61/61
f 61/61/61 63/63/63 60/60/60
f 63/63/63 62/62/62 64/64/64
f 57/57/57 49/49/49 65/65/65
f 66/66/66 65/65/65 49/49/49
f 59/59/59 57/57/57 67/67/67
f 65/65/65 67/67/67 57/57/57
f 59/59/59 67/67/67 68/68/68
f 69/69/69 68/68/68 67/67/67
f 69/69/69 67/67/67 65/65/65
f 70/70/70 68/68/68 69/69/69
f 71/71/71 60/60/60 63/63/63
f 64/64/64 71/71/71 63/63/63
f 60/60/60 71/71/71 72/72/72
f 72/72/72 71/71/71 64/64/64
f 72/72/72 28/28/28 60/60/60
f 64/64/64 73/73/73 72/72/72
f 72/72/72 73/73/73 74/74/74
f 75/75/75 28/28/28 72/72/72
f 75/75/75 72/72/72 74/74/74
f 73/73/73 76/76/76 74/74/74
f 77/77/77 75/75/75 74/74/74
f 74/74/74 76/76/76 78/78/78
f 79/79/79 77/77/77 74/74/74
f 78/78/78 80/80/80 74/74/74
f 80/80/80 79/79/79 74/74/74
f 80/80/80 78/78/78 70/70/70
f 66/66/66 79/79/79 80/80/80
f 65/65/65 66/66/66 80/80/80
f 70/70/70 81/81/81 80/80/80
f 80/80/80 81/81/81 65/65/65
f 69/69/69 81/81/81 70/70/70
f 65/65/65 81/81/81 69/69/69
f 84/84/84 83/83/83 82/82/82
f 82/82/82 83/83/83 85/85/85
f 82/82/82 86/86/86 84/84/84
f 85/85/85 87/87/87 82/82/82
f 88/88/88 84/84/84 86/86/86
f 87/87/87 85/85/85 89/89/89
f 86/86/86 90/90/90 88/88/88
f 89/89/89 91/91/91 87/87/87
f 90/90/90 92/92/92 88/88/88
f 89/89/89 93/93/93 91/91/91
f 90/90/90 94/94/94 92/92/92
f 90/90/90 95/95/95 94/94/94
f 95/95/95 96/96/96 94/94/94
f 97/97/97 92/92/92 94/94/94
f 98/98/98 91/91/91 93/93/93
f 91/91/91 98/98/98 99/99/99
f 100/100/100 99/99/99 98/98/98
f 93/93/93 101/101/101 98/98/98
f 102/102/102 94/94/94 96/96/96
f 97/97/97 94/94/94 102/102/102
f 96/96/96 103/103/103 102/102/102
f 102/102/102 103/103/103 104/104/104
f 104/104/104 105/105/105 102/102/102
f 106/106/106 102/102/102 105/105/105
f 102/102/102 106/106/106 97/97/97
f 107/107/107 97/97/97 106/106/106
f 106/106/106 108/108/108 107/107/107
f 108/108/108 109/109/109 107/107/107
f 109/109/109 108/108/108 110/110/110
f 110/110/110 108/108/108 111/111/111
f 111/111/111 101/101/101 110/110/110
f 101/101/101 112/112/112 98/98/98
f 101/101/101 111/111/111 112/112/112
f 98/98/98 112/112/112 100/100/100
f 111/111/111 113/113/113 112/112/112
f 112/112/112 114/114/114 100/100/100
f 112/112/112 113/113/113 115/115/115
f 115/115/115 114/114/114 112/112/112
