g polySurface9911
v -0 0.0015213862 0.033638854
v -0.010342598 0.09144962 -0.028969217
v 0.010342598 0.09144962 -0.028969217
v -0.010342598 0.07682362 -0.04359523
v -0 0.0015213862 0.033638854
v 0.010342598 0.07682362 -0.04359523
v -0 0.0015213862 0.033638854
v 0.010342598 0.09144962 -0.028969217
v 0.010342598 0.07682362 -0.04359523
v -0.010342598 0.07682362 -0.04359523
v -0.010342598 0.09144962 -0.028969217
v -0 0.0015213862 0.033638854
v -0.10000038 -0.09144962 0.1
v -0.06414986 0.05217874 0.06414968
v 0.06414986 0.05217874 0.06414968
v 0.10000038 -0.09144962 0.1
v -0.04796219 0.04752612 0.047962114
v -0.04796219 0.04752612 -0.047962114
v 0.04796219 0.04752612 -0.047962114
v 0.04796219 0.04752612 0.047962114
v -0.06414986 0.05217874 -0.06414968
v -0.10000038 -0.09144962 -0.1
v 0.10000038 -0.09144962 -0.1
v 0.06414986 0.05217874 -0.06414968
v -0.10000038 -0.09144962 -0.1
v -0.10000038 -0.09144962 0.1
v 0.10000038 -0.09144962 0.1
v 0.10000038 -0.09144962 -0.1
v 0.10000038 -0.09144962 0.1
v 0.06414986 0.05217874 0.06414968
v 0.06414986 0.05217874 -0.06414968
v 0.10000038 -0.09144962 -0.1
v -0.10000038 -0.09144962 -0.1
v -0.06414986 0.05217874 -0.06414968
v -0.06414986 0.05217874 0.06414968
v -0.10000038 -0.09144962 0.1
v -0.06255913 0.058550388 0.062559284
v -0.04796219 0.058550388 0.047962114
v 0.04796219 0.058550388 0.047962114
v 0.06255913 0.058550388 0.062559284
v -0.068556786 0.061544493 0.06855653
v 0.06855583 0.061544597 0.06855653
v 0.06255913 0.058550388 0.062559284
v 0.04796219 0.058550388 0.047962114
v 0.04796219 0.058550388 -0.047962114
v 0.06255913 0.058550388 -0.062559284
v 0.06855583 0.061544597 0.06855653
v 0.06855583 0.061544597 -0.06855653
v 0.06255913 0.058550388 -0.062559284
v 0.04796219 0.058550388 -0.047962114
v -0.04796219 0.058550388 -0.047962114
v -0.06255913 0.058550388 -0.062559284
v 0.06855583 0.061544597 -0.06855653
v -0.068556786 0.061544493 -0.06855653
v -0.06255913 0.058550388 -0.062559284
v -0.04796219 0.058550388 -0.047962114
v -0.04796219 0.058550388 0.047962114
v -0.06255913 0.058550388 0.062559284
v -0.068556786 0.061544493 -0.06855653
v -0.068556786 0.061544493 0.06855653
v -0.04796219 0.058550388 0.047962114
v -0.04796219 0.04752612 0.047962114
v 0.04796219 0.04752612 0.047962114
v 0.04796219 0.058550388 0.047962114
v 0.04796219 0.058550388 0.047962114
v 0.04796219 0.04752612 0.047962114
v 0.04796219 0.04752612 -0.047962114
v 0.04796219 0.058550388 -0.047962114
v 0.04796219 0.058550388 -0.047962114
v 0.04796219 0.04752612 -0.047962114
v -0.04796219 0.04752612 -0.047962114
v -0.04796219 0.058550388 -0.047962114
v -0.04796219 0.058550388 -0.047962114
v -0.04796219 0.04752612 -0.047962114
v -0.04796219 0.04752612 0.047962114
v -0.04796219 0.058550388 0.047962114
v -0.070147514 0.055172846 -0.070146926
v -0.068556786 0.061544493 -0.06855653
v -0.068556786 0.061544493 0.06855653
v -0.070147514 0.055172846 0.070146926
v -0.068556786 0.061544493 -0.06855653
v -0.070147514 0.055172846 -0.070146926
v 0.07014656 0.05517295 -0.070146926
v 0.06855583 0.061544597 -0.06855653
v 0.07014656 0.05517295 0.070146926
v 0.06855583 0.061544597 0.06855653
v 0.06855583 0.061544597 -0.06855653
v 0.07014656 0.05517295 -0.070146926
v -0.070147514 0.055172846 0.070146926
v -0.068556786 0.061544493 0.06855653
v 0.06855583 0.061544597 0.06855653
v 0.07014656 0.05517295 0.070146926
v -0.06414986 0.05217874 -0.06414968
v -0.070147514 0.055172846 -0.070146926
v -0.070147514 0.055172846 0.070146926
v -0.06414986 0.05217874 0.06414968
v 0.06414986 0.05217874 -0.06414968
v 0.07014656 0.05517295 -0.070146926
v -0.070147514 0.055172846 -0.070146926
v -0.06414986 0.05217874 -0.06414968
v 0.06414986 0.05217874 0.06414968
v 0.07014656 0.05517295 0.070146926
v 0.07014656 0.05517295 -0.070146926
v 0.06414986 0.05217874 -0.06414968
v -0.06414986 0.05217874 0.06414968
v -0.070147514 0.055172846 0.070146926
v 0.07014656 0.05517295 0.070146926
v 0.06414986 0.05217874 0.06414968
v -0.010342598 0.09144962 -0.028969217
v -0.010342598 0.07682362 -0.04359523
v 0.010342598 0.07682362 -0.04359523
v 0.010342598 0.09144962 -0.028969217
vt 0.6953937 0.1417853
vt 0.6905587 0.11667595
vt 0.68591917 0.118112005
vt 0.6954127 0.11652807
vt 0.6953937 0.1417853
vt 0.70022535 0.11698351
vt 0.6953937 0.1417853
vt 0.7049507 0.11797152
vt 0.70022535 0.11698351
vt 0.6954127 0.11652807
vt 0.6905587 0.11667595
vt 0.6953937 0.1417853
vt 0.65972626 0.14968002
vt 0.66803753 0.18400049
vt 0.69778246 0.18400073
vt 0.7060942 0.14968044
vt 0.8649656 0.53127724
vt 0.88349825 0.53127724
vt 0.88349825 0.51274455
vt 0.8649656 0.51274455
vt 0.69778246 0.18400073
vt 0.70609426 0.14968044
vt 0.65972626 0.14968002
vt 0.66803753 0.18400049
vt 0.68995273 0.10712898
vt 0.69681686 0.10712898
vt 0.69681686 0.10026467
vt 0.68995273 0.10026467
vt 0.65972626 0.14968002
vt 0.66803753 0.18400049
vt 0.69778246 0.18400073
vt 0.7060942 0.14968038
vt 0.65972626 0.14968002
vt 0.66803753 0.18400049
vt 0.69778246 0.18400073
vt 0.7060942 0.14968038
vt 0.64935243 0.14721423
vt 0.657811 0.15567291
vt 0.7133969 0.15567273
vt 0.7218556 0.14721417
vt 0.64653385 0.14333016
vt 0.7253309 0.14332998
vt 0.64935243 0.14721423
vt 0.657811 0.15567291
vt 0.7133969 0.15567279
vt 0.7218557 0.14721411
vt 0.64653385 0.14333016
vt 0.7253308 0.14333004
vt 0.64935243 0.14721423
vt 0.65781105 0.15567291
vt 0.7133969 0.15567279
vt 0.7218557 0.14721411
vt 0.6465339 0.14333016
vt 0.7253308 0.14333004
vt 0.64935243 0.14721423
vt 0.65781105 0.15567291
vt 0.7133969 0.15567273
vt 0.7218556 0.14721417
vt 0.6465339 0.14333016
vt 0.7253308 0.14333004
vt 0.7240677 0.14334196
vt 0.7240677 0.13457465
vt 0.647782 0.13457471
vt 0.64778197 0.1433419
vt 0.7240677 0.1433419
vt 0.7240677 0.13457471
vt 0.647782 0.13457465
vt 0.647782 0.14334196
vt 0.7240677 0.14334196
vt 0.7240677 0.13457471
vt 0.647782 0.13457465
vt 0.647782 0.14334202
vt 0.7240677 0.1433419
vt 0.7240677 0.13457465
vt 0.647782 0.13457465
vt 0.647782 0.14334196
vt 0.6467302 0.14976883
vt 0.6476093 0.1532901
vt 0.72338116 0.15329015
vt 0.7242602 0.14976901
vt 0.72338116 0.15329015
vt 0.7242602 0.14976901
vt 0.6467302 0.14976883
vt 0.6476093 0.1532901
vt 0.6467302 0.14976883
vt 0.6476093 0.1532901
vt 0.72338116 0.15329015
vt 0.7242602 0.14976901
vt 0.6467302 0.14976883
vt 0.6476093 0.1532901
vt 0.72338116 0.15329015
vt 0.7242602 0.14976901
vt 0.72181594 0.14823198
vt 0.7251637 0.14488399
vt 0.6468501 0.14488399
vt 0.65019786 0.14823192
vt 0.72181594 0.14823198
vt 0.7251637 0.14488399
vt 0.6468501 0.14488399
vt 0.65019786 0.14823192
vt 0.72181594 0.14823198
vt 0.7251637 0.14488399
vt 0.6468501 0.14488399
vt 0.65019786 0.14823192
vt 0.72181594 0.14823198
vt 0.7251637 0.14488399
vt 0.6468501 0.14488399
vt 0.65019786 0.14823192
vt 0.7994822 0.12846616
vt 0.7994822 0.15781245
vt 0.82702744 0.15781245
vt 0.82702744 0.12846616
vn -0 0.5713409 0.8207128
vn -0 0.57134086 0.82071286
vn -0 0.57134086 0.82071286
vn -0 -0.7159877 -0.698113
vn -0 -0.7159877 -0.698113
vn -0 -0.7159877 -0.698113
vn 0.99543387 -0.06749711 0.06749451
vn 0.99543387 -0.06749712 0.06749452
vn 0.99543387 -0.067497104 0.06749451
vn -0.995433 -0.06751036 0.06749447
vn -0.995433 -0.06751035 0.06749446
vn -0.995433 -0.06751036 0.06749446
vn -0 0.24217421 0.97023284
vn -0 0.24217421 0.97023284
vn -0 0.24217421 0.97023284
vn -0 0.24217421 0.97023284
vn -0 1 0
vn -0 1 0
vn -0 1 0
vn -0 1 0
vn -0 0.24217421 -0.97023284
vn -0 0.24217421 -0.97023284
vn -0 0.24217421 -0.97023284
vn -0 0.24217421 -0.97023284
vn -0 -1 0
vn -0 -1 0
vn -0 -1 0
vn -0 -1 0
vn 0.9702323 0.24217613 0
vn 0.9702323 0.24217613 0
vn 0.9702323 0.24217613 0
vn 0.9702323 0.24217613 0
vn -0.9702323 0.24217613 0
vn -0.9702323 0.24217613 0
vn -0.9702323 0.24217613 0
vn -0.9702323 0.24217613 0
vn 0.14373785 0.9791214 -0.14373823
vn -0 1 0
vn -0 1 0
vn -0.14374639 0.97912 -0.14373924
vn -0 0.89469427 -0.44667897
vn -0 0.89469427 -0.44667894
vn -0.14374639 0.97912 -0.14373924
vn -0 1 0
vn -0 1 0
vn -0.14374639 0.9791199 0.14373954
vn -0.44669673 0.8946854 0
vn -0.44669673 0.8946854 0
vn -0.14374639 0.9791199 0.14373954
vn -0 1 0
vn -0 1 0
vn 0.14373788 0.9791214 0.14373857
vn -0 0.8946938 0.44667995
vn -0 0.8946938 0.44667992
vn 0.14373788 0.9791214 0.14373857
vn -0 1 0
vn -0 1 0
vn 0.14373785 0.9791214 -0.14373823
vn 0.44665048 0.8947086 0
vn 0.44665048 0.8947086 0
vn -0 0 -1
vn -0 0 -1
vn -0 0 -1
vn -0 0 -1
vn -1 0 0
vn -1 0 0
vn -1 0 0
vn -1 0 0
vn -0 0 1
vn -0 0 1
vn -0 0 1
vn -0 0 1
vn 1 0 0
vn 1 0 0
vn 1 0 0
vn 1 0 0
vn -0.9701947 0.24232674 0
vn -0.9701947 0.24232674 0
vn -0.9701947 0.24232674 0
vn -0.9701947 0.24232674 0
vn -0 0.24217443 -0.9702327
vn -0 0.24217443 -0.9702327
vn -0 0.2421744 -0.9702327
vn -0 0.2421744 -0.9702327
vn 0.97022164 0.24221896 0
vn 0.97022164 0.24221896 0
vn 0.97022164 0.24221896 0
vn 0.97022164 0.24221896 0
vn -0 0.24217443 0.9702327
vn -0 0.24217443 0.9702327
vn -0 0.2421744 0.9702327
vn -0 0.2421744 0.9702327
vn -0.44659916 -0.8947342 0
vn -0.44659913 -0.8947342 0
vn -0.44659913 -0.8947342 0
vn -0.44659916 -0.8947342 0
vn -0 -0.8946936 -0.44668043
vn -0 -0.8946936 -0.4466805
vn -0 -0.8946936 -0.44668046
vn -0 -0.8946936 -0.4466805
vn 0.44669753 -0.89468503 0
vn 0.4466976 -0.89468503 0
vn 0.4466976 -0.89468503 0
vn 0.44669753 -0.89468503 0
vn -0 -0.89469373 0.4466802
vn -0 -0.89469373 0.4466802
vn -0 -0.89469373 0.44668013
vn -0 -0.89469373 0.4466802
vn -0 0.70712036 -0.7070931
vn -0 0.70712036 -0.7070931
vn -0 0.70712036 -0.7070931
vn -0 0.70712036 -0.7070931
g polySurface9911_0
f 3/3/3 2/2/2 1/1/1
f 6/6/6 5/5/5 4/4/4
f 9/9/9 8/8/8 7/7/7
f 12/12/12 11/11/11 10/10/10
f 15/15/15 14/14/14 13/13/13
f 16/16/16 15/15/15 13/13/13
f 19/19/19 18/18/18 17/17/17
f 20/20/20 19/19/19 17/17/17
f 23/23/23 22/22/22 21/21/21
f 24/24/24 23/23/23 21/21/21
f 27/27/27 26/26/26 25/25/25
f 28/28/28 27/27/27 25/25/25
f 31/31/31 30/30/30 29/29/29
f 32/32/32 31/31/31 29/29/29
f 35/35/35 34/34/34 33/33/33
f 36/36/36 35/35/35 33/33/33
f 39/39/39 38/38/38 37/37/37
f 40/40/40 39/39/39 37/37/37
f 37/37/37 41/41/41 40/40/40
f 41/41/41 42/42/42 40/40/40
f 45/45/45 44/44/44 43/43/43
f 46/46/46 45/45/45 43/43/43
f 43/43/43 47/47/47 46/46/46
f 47/47/47 48/48/48 46/46/46
f 51/51/51 50/50/50 49/49/49
f 52/52/52 51/51/51 49/49/49
f 49/49/49 53/53/53 52/52/52
f 53/53/53 54/54/54 52/52/52
f 57/57/57 56/56/56 55/55/55
f 58/58/58 57/57/57 55/55/55
f 55/55/55 59/59/59 58/58/58
f 59/59/59 60/60/60 58/58/58
f 63/63/63 62/62/62 61/61/61
f 64/64/64 63/63/63 61/61/61
f 67/67/67 66/66/66 65/65/65
f 68/68/68 67/67/67 65/65/65
f 71/71/71 70/70/70 69/69/69
f 72/72/72 71/71/71 69/69/69
f 75/75/75 74/74/74 73/73/73
f 76/76/76 75/75/75 73/73/73
f 79/79/79 78/78/78 77/77/77
f 80/80/80 79/79/79 77/77/77
f 83/83/83 82/82/82 81/81/81
f 84/84/84 83/83/83 81/81/81
f 87/87/87 86/86/86 85/85/85
f 88/88/88 87/87/87 85/85/85
f 91/91/91 90/90/90 89/89/89
f 92/92/92 91/91/91 89/89/89
f 95/95/95 94/94/94 93/93/93
f 96/96/96 95/95/95 93/93/93
f 99/99/99 98/98/98 97/97/97
f 100/100/100 99/99/99 97/97/97
f 103/103/103 102/102/102 101/101/101
f 104/104/104 103/103/103 101/101/101
f 107/107/107 106/106/106 105/105/105
f 108/108/108 107/107/107 105/105/105
g polySurface9911_1
f 111/111/111 110/110/110 109/109/109
f 112/112/112 111/111/111 109/109/109
