g polySurface7994
v -0.27182722 0 0.3038559
v -0.27182722 0 -0.24614382
v -0.3005085 0.049999952 -0.24614382
v -0.3005085 0.049999952 0.3038559
v -0.27182722 0 -0.24614382
v 0.12817287 0 -0.24614382
v 0.12817287 0.10000014 -0.24614382
v -0.27182722 0.10000014 -0.24614382
v -0.3005085 0.049999952 -0.24614382
v 0.12817287 0.10000014 0.3038559
v 0.12817287 0.10000014 -0.24614382
v 0.12817287 0 -0.24614382
v 0.12817287 0 0.3038559
v -0.27182722 0.10000014 0.3038559
v -0.27182722 0.10000014 -0.24614382
v 0.12817287 0.10000014 -0.24614382
v 0.12817287 0.10000014 0.3038559
v 0.12817287 0 0.3038559
v 0.12817287 0 -0.24614382
v -0.27182722 0 -0.24614382
v -0.27182722 0 0.3038559
v -0.3005085 0.049999952 0.3038559
v -0.3005085 0.049999952 -0.24614382
v -0.27182722 0.10000014 -0.24614382
v -0.27182722 0.10000014 0.3038559
v -0.27182722 0.10000014 0.3038559
v 0.12817287 0.10000014 0.3038559
v 0.12817287 0 0.3038559
v -0.27182722 0 0.3038559
v -0.3005085 0.049999952 0.3038559
v -0.018015862 0.10000014 0.3038559
v -0.38499832 0.10000014 -0.105807304
v -0.40636158 0.1500001 -0.08666992
v -0.03937912 0.1500001 0.32299328
v -0.38499832 0.10000014 -0.105807304
v -0.087061405 0.10000014 -0.37270355
v -0.087061405 0.20000029 -0.37270355
v -0.38499832 0.20000029 -0.105807304
v -0.40636158 0.1500001 -0.08666992
v 0.27992105 0.20000029 0.036959648
v -0.087061405 0.20000029 -0.37270355
v -0.087061405 0.10000014 -0.37270355
v 0.27992105 0.10000014 0.036959648
v -0.018015862 0.20000029 0.3038559
v -0.38499832 0.20000029 -0.105807304
v -0.087061405 0.20000029 -0.37270355
v 0.27992105 0.20000029 0.036959648
v 0.27992105 0.10000014 0.036959648
v -0.087061405 0.10000014 -0.37270355
v -0.38499832 0.10000014 -0.105807304
v -0.018015862 0.10000014 0.3038559
v -0.03937912 0.1500001 0.32299328
v -0.40636158 0.1500001 -0.08666992
v -0.38499832 0.20000029 -0.105807304
v -0.018015862 0.20000029 0.3038559
v -0.018015862 0.20000029 0.3038559
v 0.27992105 0.20000029 0.036959648
v 0.27992105 0.10000014 0.036959648
v -0.018015862 0.10000014 0.3038559
v -0.03937912 0.1500001 0.32299328
v 0.39717388 0.20000029 0.1693492
v -0.12384367 0.20000029 0.34553385
v -0.11465597 0.25000024 0.37270355
v 0.40636158 0.25000024 0.19651937
v -0.11465597 0.25000024 0.37270355
v -0.12384367 0.20000029 0.34553385
v -0.25197792 0.20000029 -0.033388138
v -0.25197792 0.30000043 -0.033388138
v -0.12384367 0.30000043 0.34553385
v 0.26903963 0.30000043 -0.20957232
v -0.25197792 0.30000043 -0.033388138
v -0.25197792 0.20000029 -0.033388138
v 0.26903963 0.20000029 -0.20957232
v 0.39717388 0.30000043 0.1693492
v -0.12384367 0.30000043 0.34553385
v -0.25197792 0.30000043 -0.033388138
v 0.26903963 0.30000043 -0.20957232
v 0.26903963 0.20000029 -0.20957232
v -0.25197792 0.20000029 -0.033388138
v -0.12384367 0.20000029 0.34553385
v 0.39717388 0.20000029 0.1693492
v 0.40636158 0.25000024 0.19651937
v -0.11465597 0.25000024 0.37270355
v -0.12384367 0.30000043 0.34553385
v 0.39717388 0.30000043 0.1693492
v 0.26903963 0.30000043 -0.20957232
v 0.26903963 0.20000029 -0.20957232
v 0.39717388 0.20000029 0.1693492
v 0.40636158 0.25000024 0.19651937
v 0.39717388 0.30000043 0.1693492
vt 0.28493425 0.047588482
vt 0.28493425 0.12372136
vt 0.29291332 0.12372136
vt 0.29291332 0.047588482
vt 0.056560546 0.24354744
vt 0.056560546 0.17315258
vt 0.038961858 0.17315258
vt 0.038961858 0.24354744
vt 0.047761172 0.24859497
vt 0.038961858 0.17315258
vt 0.038961858 0.24150482
vt 0.056560546 0.24150482
vt 0.056560546 0.17315258
vt 0.34324515 0.18919638
vt 0.34324515 0.2483011
vt 0.38623044 0.2483011
vt 0.38623044 0.18919638
vt 0.34324515 0.18919638
vt 0.34324515 0.2483011
vt 0.38623044 0.2483011
vt 0.38623044 0.18919638
vt 0.29291332 0.047588482
vt 0.29291332 0.12372136
vt 0.30089232 0.12372136
vt 0.30089232 0.047588482
vt 0.056560546 0.24354744
vt 0.056560546 0.17315258
vt 0.038961858 0.17315258
vt 0.038961858 0.24354744
vt 0.047761172 0.24859497
vt 0.3529078 0.047588482
vt 0.3529078 0.12372136
vt 0.36088684 0.12372136
vt 0.36088684 0.047588482
vt 0.09445128 0.24320978
vt 0.09445128 0.17281488
vt 0.07685253 0.17281488
vt 0.07685253 0.24320978
vt 0.085651904 0.24825731
vt 0.07685253 0.17281488
vt 0.07685253 0.2411672
vt 0.09445128 0.2411672
vt 0.09445128 0.17281488
vt 0.4333262 0.1870813
vt 0.4333262 0.24900693
vt 0.47884378 0.24900693
vt 0.47884378 0.1870813
vt 0.4333262 0.1870813
vt 0.4333262 0.24900693
vt 0.47884378 0.24900693
vt 0.47884378 0.1870813
vt 0.36088684 0.047588482
vt 0.36088684 0.12372136
vt 0.36886585 0.12372136
vt 0.36886585 0.047588482
vt 0.09445128 0.24320978
vt 0.09445128 0.17281488
vt 0.07685253 0.17281488
vt 0.07685253 0.24320978
vt 0.085651904 0.24825731
vt 0.40396282 0.047557734
vt 0.40396282 0.12369061
vt 0.41194186 0.12369061
vt 0.41194186 0.047557734
vt 0.10465863 0.24834459
vt 0.11345801 0.24329704
vt 0.11345801 0.1729022
vt 0.09585926 0.1729022
vt 0.09585926 0.24329704
vt 0.09585926 0.1729022
vt 0.09585926 0.24125451
vt 0.11345801 0.24125445
vt 0.11345801 0.1729022
vt 0.43108276 0.12479511
vt 0.43108276 0.18658333
vt 0.47406802 0.18658333
vt 0.47406802 0.12479511
vt 0.43108276 0.12479511
vt 0.43108276 0.18658333
vt 0.47406802 0.18658333
vt 0.47406802 0.12479511
vt 0.41194186 0.047557734
vt 0.41194186 0.12369061
vt 0.41992092 0.12369061
vt 0.41992092 0.047557734
vt 0.11345801 0.1729022
vt 0.09585926 0.1729022
vt 0.09585926 0.24329704
vt 0.10465863 0.24834459
vt 0.11345801 0.24329704
vn -0.8674204 -0.497576 0
vn -0.8674204 -0.497576 0
vn -1 0 0
vn -1 0 0
vn -0 0 -1
vn -0 0 -1
vn -0 0 -1
vn -0 0 -1
vn -0 0 -1
vn 1 0 0
vn 1 0 0
vn 1 0 0
vn 1 0 0
vn -0 1 0
vn -0 1 0
vn -0 1 0
vn -0 1 0
vn -0 -1 0
vn -0 -1 0
vn -0 -1 0
vn -0 -1 0
vn -1 0 0
vn -1 0 0
vn -0.86742145 0.49757418 0
vn -0.86742145 0.49757418 0
vn -0 0 1
vn -0 0 1
vn -0 0 1
vn -0 0 1
vn -0 0 1
vn -0.6460936 -0.4975701 0.57878065
vn -0.6460936 -0.4975701 0.57878065
vn -0.7448423 0 0.6672406
vn -0.7448423 0 0.6672406
vn -0.66724 0 -0.74484277
vn -0.66724 0 -0.74484277
vn -0.66724 0 -0.74484277
vn -0.66724 0 -0.74484277
vn -0.66724 0 -0.74484277
vn 0.74484205 0 -0.66724074
vn 0.74484205 0 -0.66724074
vn 0.74484205 0 -0.66724074
vn 0.74484205 0 -0.66724074
vn -0 1 0
vn -0 1 0
vn -0 1 0
vn -0 1 0
vn -0 -1 0
vn -0 -1 0
vn -0 -1 0
vn -0 -1 0
vn -0.7448423 0 0.6672406
vn -0.7448423 0 0.6672406
vn -0.6460924 0.49757415 0.5787785
vn -0.6460924 0.49757415 0.5787785
vn 0.66724044 0 0.7448424
vn 0.66724044 0 0.7448424
vn 0.66724044 0 0.7448424
vn 0.66724044 0 0.7448424
vn 0.66724044 0 0.7448424
vn 0.2778651 -0.4975755 0.82171136
vn 0.2778651 -0.4975755 0.82171136
vn 0.32033533 0 0.9473042
vn 0.32033533 0 0.9473042
vn -0.9473042 0 0.32033545
vn -0.9473042 0 0.32033545
vn -0.9473042 0 0.32033545
vn -0.9473042 0 0.32033545
vn -0.9473042 0 0.32033545
vn -0.32033506 0 -0.9473043
vn -0.32033506 0 -0.9473043
vn -0.32033506 0 -0.9473043
vn -0.32033506 0 -0.9473043
vn -0 1 0
vn -0 1 0
vn -0 1 0
vn -0 1 0
vn -0 -1 0
vn -0 -1 0
vn -0 -1 0
vn -0 -1 0
vn 0.32033533 0 0.9473042
vn 0.32033533 0 0.9473042
vn 0.27786598 0.4975745 0.8217116
vn 0.27786598 0.4975745 0.8217116
vn 0.9473042 0 -0.3203354
vn 0.9473042 0 -0.3203354
vn 0.9473042 0 -0.3203354
vn 0.9473042 0 -0.3203354
vn 0.9473042 0 -0.3203354
g polySurface7994_0
f 3/3/3 2/2/2 1/1/1
f 4/4/4 3/3/3 1/1/1
f 7/7/7 6/6/6 5/5/5
f 5/5/5 8/8/8 7/7/7
f 5/5/5 9/9/9 8/8/8
f 12/12/12 11/11/11 10/10/10
f 13/13/13 12/12/12 10/10/10
f 16/16/16 15/15/15 14/14/14
f 17/17/17 16/16/16 14/14/14
f 20/20/20 19/19/19 18/18/18
f 21/21/21 20/20/20 18/18/18
f 24/24/24 23/23/23 22/22/22
f 25/25/25 24/24/24 22/22/22
f 28/28/28 27/27/27 26/26/26
f 26/26/26 29/29/29 28/28/28
f 26/26/26 30/30/30 29/29/29
f 33/33/33 32/32/32 31/31/31
f 34/34/34 33/33/33 31/31/31
f 37/37/37 36/36/36 35/35/35
f 35/35/35 38/38/38 37/37/37
f 35/35/35 39/39/39 38/38/38
f 42/42/42 41/41/41 40/40/40
f 43/43/43 42/42/42 40/40/40
f 46/46/46 45/45/45 44/44/44
f 47/47/47 46/46/46 44/44/44
f 50/50/50 49/49/49 48/48/48
f 51/51/51 50/50/50 48/48/48
f 54/54/54 53/53/53 52/52/52
f 55/55/55 54/54/54 52/52/52
f 58/58/58 57/57/57 56/56/56
f 56/56/56 59/59/59 58/58/58
f 56/56/56 60/60/60 59/59/59
f 63/63/63 62/62/62 61/61/61
f 64/64/64 63/63/63 61/61/61
f 67/67/67 66/66/66 65/65/65
f 65/65/65 68/68/68 67/67/67
f 65/65/65 69/69/69 68/68/68
f 72/72/72 71/71/71 70/70/70
f 73/73/73 72/72/72 70/70/70
f 76/76/76 75/75/75 74/74/74
f 77/77/77 76/76/76 74/74/74
f 80/80/80 79/79/79 78/78/78
f 81/81/81 80/80/80 78/78/78
f 84/84/84 83/83/83 82/82/82
f 85/85/85 84/84/84 82/82/82
f 88/88/88 87/87/87 86/86/86
f 86/86/86 89/89/89 88/88/88
f 86/86/86 90/90/90 89/89/89
