g rightFoot001
v -0.0063687903 -0.1422934 -0.016851095
v -0.032190606 -0.13974306 -0.016022034
v -0.061860997 -0.031660493 -0.008458298
v -0.006299634 -0.0296612 -0.015154712
v -0.004928015 -0.1729503 -0.0014515846
v 0.023181148 -0.13975057 -0.016022293
v -0.00439772 -0.17033798 0.031014774
v 0.055212647 -0.031660482 -0.008458298
v 0.044925667 0.00092368195 0.08163844
v -0.00439772 -0.17033798 0.031014774
v -0.0040253606 -0.043640938 0.08804925
v -0.05011204 0.0009234592 0.08164499
v -0.00439772 -0.17033798 0.031014774
v -0.061860997 -0.031660493 -0.008458298
v -0.00439772 -0.17033798 0.031014774
v -0.032190606 -0.13974306 -0.016022034
v -0.004928015 -0.1729503 -0.0014515846
v -0.0063687903 -0.1422934 -0.016851095
v 0.023181148 -0.13975057 -0.016022293
v -0.032190606 -0.13974306 -0.016022034
v -0.004928015 -0.1729503 -0.0014515846
v 0.023181148 -0.13975057 -0.016022293
v -0.0063687903 -0.1422934 -0.016851095
v -0.006299634 -0.0296612 -0.015154712
v 0.055212647 -0.031660482 -0.008458298
vt 0.7979088 0.56547064
vt 0.8444471 0.56547064
vt 0.8444471 0.61770844
vt 0.7979088 0.61770844
vt 0.8948257 0.56547064
vt 0.9445464 0.56547064
vt 0.8948257 0.61770844
vt 0.9445464 0.61770844
vt 0.9445464 0.6726334
vt 0.8948257 0.61770844
vt 0.8948257 0.6726334
vt 0.8444471 0.6726334
vt 0.8948257 0.61770844
vt 0.8444471 0.61770844
vt 0.8948257 0.61770844
vt 0.8444471 0.56547064
vt 0.8948257 0.56547064
vt 0.9658108 0.7201967
vt 0.98925245 0.7201967
vt 0.9658108 0.7428561
vt 0.98925245 0.7428561
vt 0.9445464 0.56547064
vt 0.9929654 0.56547064
vt 0.9929654 0.61770844
vt 0.9445464 0.61770844
vn 0.01607304 0.98559916 0.1683325
vn 0.74136406 0.36976913 0.5600447
vn 0.88445926 0.2588972 0.38820624
vn 0.0047396887 -0.02975827 0.9995459
vn 0.014522114 0.9415 0.33669984
vn -0.72947013 0.37881204 0.569539
vn 0.0020104998 0.83554584 -0.54941696
vn -0.8790345 0.2748018 0.38959256
vn -0.78458303 0.3724769 -0.49567178
vn 0.0020104998 0.83554584 -0.54941696
vn 0.013337612 0.4104201 -0.91179895
vn 0.7922032 0.3576428 -0.49447513
vn 0.0020104998 0.83554584 -0.54941696
vn 0.88445926 0.2588972 0.38820624
vn 0.0020104998 0.83554584 -0.54941696
vn 0.74136406 0.36976913 0.5600447
vn 0.014522114 0.9415 0.33669984
vn 0.01607304 0.98559916 0.1683325
vn -0.72947013 0.37881204 0.569539
vn 0.74136406 0.36976913 0.5600447
vn 0.014522114 0.9415 0.33669984
vn -0.72947013 0.37881204 0.569539
vn 0.01607304 0.98559916 0.1683325
vn 0.0047396887 -0.02975827 0.9995459
vn -0.8790345 0.2748018 0.38959256
g rightFoot001_0
f 3/3/3 2/2/2 1/1/1
f 4/4/4 3/3/3 1/1/1
f 7/7/7 6/6/6 5/5/5
f 6/6/6 7/7/7 8/8/8
f 7/7/7 9/9/9 8/8/8
f 11/11/11 9/9/9 10/10/10
f 13/13/13 12/12/12 11/11/11
f 12/12/12 15/15/15 14/14/14
f 14/14/14 15/15/15 16/16/16
f 16/16/16 15/15/15 17/17/17
f 20/20/20 19/19/19 18/18/18
f 19/19/19 20/20/20 21/21/21
f 24/24/24 23/23/23 22/22/22
f 25/25/25 24/24/24 22/22/22
