g robe001
v -0.011321476 0.17067894 0.037840426
v -0.05911292 0.2214025 0.050174475
v -0.05911292 0.26446488 0.1071938
v -0.106904365 0.17067894 0.037840426
v -0.05911292 0.26446488 0.1071938
v -0.05911292 0.2214025 0.050174475
v -0.05911292 0.2214025 0.050174475
v 0.06375142 0.22522941 0.029636413
v 0.029678224 0.19103917 0.034999818
v -0.08911963 0.2725869 0.05620426
v -0.08911963 0.2725869 0.05620426
v 0.029678224 0.19103917 0.034999818
v -0.011321476 0.17067894 0.037840426
v -0.05911292 0.26446488 0.1071938
v 0.24813448 -0.042760998 -0.28328785
v 0.20647727 0.10630426 -0.28095168
v 0.24713486 -0.075258404 -0.60528314
v 0.27050143 -0.19701308 -0.5601046
v 0.22128089 -0.16230506 -0.2797221
v 0.24813448 -0.042760998 -0.28328785
v 0.27050143 -0.19701308 -0.5601046
v 0.28266653 -0.30557668 -0.52697486
v 0.08941423 -0.22999643 -0.26458693
v 0.22128089 -0.16230506 -0.2797221
v 0.28266653 -0.30557668 -0.52697486
v 0.15751387 -0.41405773 -0.45754096
v 0.20647727 0.10630426 -0.28095168
v 0.095770545 0.19467404 -0.35366732
v 0.033020064 0.10877791 -0.64365494
v 0.24713486 -0.075258404 -0.60528314
v 0.20647727 0.10630426 -0.28095168
v 0.24813448 -0.042760998 -0.28328785
v 0.092799656 0.17535606 -0.025063783
v 0.09301373 0.2366651 -0.028171062
v 0.09301373 0.2366651 -0.028171062
v 0.092799656 0.17535606 -0.025063783
v 0.06375142 0.22522941 0.029636413
v 0.030907193 0.28615627 0.039976925
v 0.24813448 -0.042760998 -0.28328785
v 0.22128089 -0.16230506 -0.2797221
v 0.08830322 0.08716449 -0.01787582
v 0.092799656 0.17535606 -0.025063783
v 0.092799656 0.17535606 -0.025063783
v 0.08830322 0.08716449 -0.01787582
v 0.029678224 0.19103917 0.034999818
v 0.06375142 0.22522941 0.029636413
v 0.22128089 -0.16230506 -0.2797221
v 0.08941423 -0.22999643 -0.26458693
v -0.004266089 0.09166747 -0.0139772
v 0.08830322 0.08716449 -0.01787582
v 0.029678224 0.19103917 0.034999818
v 0.08830322 0.08716449 -0.01787582
v -0.004266089 0.09166747 -0.0139772
v -0.011321476 0.17067894 0.037840426
v 0.08941423 -0.22999643 -0.26458693
v -0.05911292 -0.31774226 -0.24785912
v -0.05911292 0.09332606 -0.005945623
v -0.004266089 0.09166747 -0.0139772
v -0.011321476 0.17067894 0.037840426
v -0.004266089 0.09166747 -0.0139772
v -0.05911292 0.09332606 -0.005945623
v -0.05911292 0.2214025 0.050174475
v 0.10496043 0.2938867 -0.04711595
v 0.095770545 0.19467404 -0.35366732
v 0.20647727 0.10630426 -0.28095168
v 0.09301373 0.2366651 -0.028171062
v -0.08911963 0.2725869 0.05620426
v 0.030907193 0.28615627 0.039976925
v 0.06375142 0.22522941 0.029636413
v -0.05911292 0.2214025 0.050174475
v 0.15751387 -0.41405773 -0.45754096
v -0.05911292 -0.6060126 -0.39258322
v -0.05911292 -0.31774226 -0.24785912
v 0.08941423 -0.22999643 -0.26458693
v -0.14790405 0.19103917 0.034999818
v -0.18197726 0.22522941 0.029636413
v -0.05911292 0.2214025 0.050174475
v -0.05911292 0.30890706 0.05485183
v -0.106904365 0.17067894 0.037840426
v -0.14790405 0.19103917 0.034999818
v -0.05911292 0.30890706 0.05485183
v -0.05911292 0.26446488 0.1071938
v -0.36636034 -0.042760998 -0.28328785
v -0.3887273 -0.19701308 -0.5601046
v -0.3653607 -0.075258404 -0.60528314
v -0.32470313 0.10630426 -0.2809517
v -0.33950675 -0.16230506 -0.27972212
v -0.4008924 -0.30557668 -0.5269749
v -0.3887273 -0.19701308 -0.5601046
v -0.36636034 -0.042760998 -0.28328785
v -0.20764007 -0.22999643 -0.26458696
v -0.27573973 -0.41405776 -0.45754096
v -0.4008924 -0.30557668 -0.5269749
v -0.33950675 -0.16230506 -0.27972212
v -0.32470313 0.10630426 -0.2809517
v -0.3653607 -0.075258404 -0.60528314
v -0.1512459 0.10877791 -0.64365494
v -0.2139964 0.19467404 -0.35366732
v -0.32470313 0.10630426 -0.2809517
v -0.21123956 0.2366651 -0.028171062
v -0.21102549 0.17535606 -0.025063783
v -0.36636034 -0.042760998 -0.28328785
v -0.21123956 0.2366651 -0.028171062
v -0.08911963 0.2725869 0.05620426
v -0.18197726 0.22522941 0.029636413
v -0.21102549 0.17535606 -0.025063783
v -0.36636034 -0.042760998 -0.28328785
v -0.21102549 0.17535606 -0.025063783
v -0.20652907 0.08716449 -0.01787582
v -0.33950675 -0.16230506 -0.27972212
v -0.21102549 0.17535606 -0.025063783
v -0.18197726 0.22522941 0.029636413
v -0.14790405 0.19103917 0.034999818
v -0.20652907 0.08716449 -0.01787582
v -0.33950675 -0.16230506 -0.27972212
v -0.20652907 0.08716449 -0.01787582
v -0.11395975 0.09166747 -0.0139772
v -0.20764007 -0.22999643 -0.26458696
v -0.11395975 0.09166747 -0.0139772
v -0.20652907 0.08716449 -0.01787582
v -0.14790405 0.19103917 0.034999818
v -0.106904365 0.17067894 0.037840426
v -0.20764007 -0.22999643 -0.26458696
v -0.11395975 0.09166747 -0.0139772
v -0.05911292 0.09332606 -0.005945623
v -0.05911292 -0.31774226 -0.24785912
v -0.05911292 0.09332606 -0.005945623
v -0.11395975 0.09166747 -0.0139772
v -0.106904365 0.17067894 0.037840426
v -0.05911292 0.2214025 0.050174475
v -0.32470313 0.10630426 -0.2809517
v -0.2139964 0.19467404 -0.35366732
v -0.22318627 0.2938867 -0.04711595
v -0.21123956 0.2366651 -0.028171062
v -0.18197726 0.22522941 0.029636413
v -0.08911963 0.2725869 0.05620426
v -0.05911292 0.30890706 0.05485183
v -0.05911292 0.2214025 0.050174475
v -0.05911292 -0.31774226 -0.24785912
v -0.05911292 -0.6060126 -0.39258322
v -0.27573973 -0.41405776 -0.45754096
v -0.20764007 -0.22999643 -0.26458696
vt 0.25546795 0.10199966
vt 0.26724982 0.10526478
vt 0.2675238 0.083728105
vt 0.25546795 0.10199966
vt 0.2675238 0.083728105
vt 0.26724982 0.10526478
vt 0.26791844 0.07430208
vt 0.24887228 0.078394786
vt 0.24956082 0.08762652
vt 0.26738635 0.077146605
vt 0.26738635 0.077146605
vt 0.24956082 0.08762652
vt 0.25546795 0.10199966
vt 0.2675238 0.083728105
vt 0.20326279 0.06690632
vt 0.20326279 0.042580366
vt 0.17792436 0.009583523
vt 0.17792436 0.048748333
vt 0.20326279 0.08229277
vt 0.20326279 0.06690632
vt 0.17792436 0.048748333
vt 0.17792436 0.063405
vt 0.20326279 0.10624724
vt 0.20326279 0.08229277
vt 0.17792436 0.063405
vt 0.17792436 0.09779023
vt 0.20326279 0.042580366
vt 0.22641893 0.023986079
vt 0.22337928 0.010459805
vt 0.17792436 0.009583523
vt 0.20326279 0.042580366
vt 0.20326279 0.06690632
vt 0.23138559 0.07265044
vt 0.23992668 0.05318955
vt 0.23992668 0.05318955
vt 0.23138559 0.07265044
vt 0.24887228 0.078394786
vt 0.2557679 0.06364506
vt 0.20326279 0.06690632
vt 0.20326279 0.08229277
vt 0.23230363 0.08495961
vt 0.23138559 0.07265044
vt 0.23138559 0.07265044
vt 0.23230363 0.08495961
vt 0.24956082 0.08762652
vt 0.24887228 0.078394786
vt 0.20326279 0.08229277
vt 0.20326279 0.10624724
vt 0.24017997 0.10412382
vt 0.23230363 0.08495961
vt 0.24956082 0.08762652
vt 0.23230363 0.08495961
vt 0.24017997 0.10412382
vt 0.25546795 0.10199966
vt 0.20326279 0.10624724
vt 0.20326279 0.12180027
vt 0.24568634 0.11378664
vt 0.24017997 0.10412382
vt 0.25546795 0.10199966
vt 0.24017997 0.10412382
vt 0.24568634 0.11378664
vt 0.26724982 0.10526478
vt 0.25562713 0.04804435
vt 0.22641893 0.023986079
vt 0.20326279 0.042580366
vt 0.23992668 0.05318955
vt 0.26801285 0.073587395
vt 0.2557679 0.06364506
vt 0.24887228 0.078394786
vt 0.26791844 0.07430208
vt 0.17792436 0.09779023
vt 0.17792436 0.12198712
vt 0.20326279 0.12180027
vt 0.20326279 0.10624724
vt 0.24956082 0.08762652
vt 0.24887228 0.078394786
vt 0.26791844 0.07430208
vt 0.26738635 0.077146605
vt 0.25546795 0.10199966
vt 0.24956082 0.08762652
vt 0.26738635 0.077146605
vt 0.2675238 0.083728105
vt 0.20326279 0.06690632
vt 0.17792436 0.048748333
vt 0.17792436 0.009583523
vt 0.20326279 0.042580366
vt 0.20326279 0.08229277
vt 0.17792436 0.063405
vt 0.17792436 0.048748333
vt 0.20326279 0.06690632
vt 0.20326279 0.10624724
vt 0.17792436 0.09779023
vt 0.17792436 0.063405
vt 0.20326279 0.08229277
vt 0.20326279 0.042580366
vt 0.17792436 0.009583523
vt 0.22337928 0.010459805
vt 0.22641893 0.023986079
vt 0.20326279 0.042580366
vt 0.23992668 0.05318955
vt 0.23138559 0.07265044
vt 0.20326279 0.06690632
vt 0.23992668 0.05318955
vt 0.2557679 0.06364506
vt 0.24887228 0.078394786
vt 0.23138559 0.07265044
vt 0.20326279 0.06690632
vt 0.23138559 0.07265044
vt 0.23230363 0.08495961
vt 0.20326279 0.08229277
vt 0.23138559 0.07265044
vt 0.24887228 0.078394786
vt 0.24956082 0.08762652
vt 0.23230363 0.08495961
vt 0.20326279 0.08229277
vt 0.23230363 0.08495961
vt 0.24017997 0.10412382
vt 0.20326279 0.10624724
vt 0.24017997 0.10412382
vt 0.23230363 0.08495961
vt 0.24956082 0.08762652
vt 0.25546795 0.10199966
vt 0.20326279 0.10624724
vt 0.24017997 0.10412382
vt 0.24568634 0.11378664
vt 0.20326279 0.12180027
vt 0.24568634 0.11378664
vt 0.24017997 0.10412382
vt 0.25546795 0.10199966
vt 0.26724982 0.10526478
vt 0.20326279 0.042580366
vt 0.22641893 0.023986079
vt 0.25562713 0.04804435
vt 0.23992668 0.05318955
vt 0.24887228 0.078394786
vt 0.2557679 0.06364506
vt 0.26801285 0.073587395
vt 0.26791844 0.07430208
vt 0.20326279 0.12180027
vt 0.17792436 0.12198712
vt 0.17792436 0.09779023
vt 0.20326279 0.10624724
vn -0.5687146 -0.6563783 0.49571294
vn -0.5687145 -0.6563783 0.4957129
vn -0.56871456 -0.6563783 0.4957129
vn 0.5687146 -0.6563783 0.49571294
vn 0.56871456 -0.6563783 0.4957129
vn 0.5687145 -0.6563783 0.4957129
vn 0.19687589 0.08769779 0.97649837
vn 0.1968759 0.087697804 0.97649837
vn 0.19687587 0.08769779 0.97649837
vn 0.19687589 0.0876978 0.97649837
vn 0.75629306 0.50169927 0.41990328
vn 0.75629294 0.50169927 0.41990325
vn 0.75629306 0.50169927 0.41990328
vn 0.75629306 0.50169927 0.41990328
vn 0.9729643 0.229467 -0.026179487
vn 0.9729643 0.22946699 -0.026179485
vn 0.9729643 0.229467 -0.026179489
vn 0.9729643 0.229467 -0.026179489
vn 0.98359597 -0.034865223 0.17698413
vn 0.98359597 -0.03486522 0.17698412
vn 0.98359597 -0.034865223 0.17698412
vn 0.98359597 -0.03486522 0.17698413
vn 0.5797006 -0.5629359 0.58910996
vn 0.5797006 -0.5629359 0.58910996
vn 0.5797006 -0.5629359 0.58910996
vn 0.5797006 -0.5629359 0.5891099
vn 0.6707668 0.67088324 -0.31620833
vn 0.6707668 0.67088324 -0.31620833
vn 0.6707668 0.67088324 -0.31620833
vn 0.6707668 0.67088324 -0.31620833
vn 0.9159208 0.18174544 0.35785133
vn 0.9159208 0.18174544 0.35785133
vn 0.9159208 0.18174544 0.35785133
vn 0.9159208 0.18174544 0.35785133
vn 0.8574376 0.20085284 0.4737709
vn 0.8574376 0.20085286 0.4737709
vn 0.8574376 0.20085286 0.4737709
vn 0.8574376 0.20085286 0.47377095
vn 0.83091265 -0.09703406 0.5478765
vn 0.83091265 -0.09703406 0.5478765
vn 0.8309127 -0.09703406 0.5478764
vn 0.83091265 -0.09703406 0.5478765
vn 0.66536295 -0.13438289 0.73432505
vn 0.66536295 -0.13438289 0.73432505
vn 0.66536295 -0.13438287 0.73432505
vn 0.66536295 -0.13438289 0.73432505
vn 0.23308867 -0.5965669 0.7679697
vn 0.23308867 -0.596567 0.7679697
vn 0.23308866 -0.5965669 0.7679697
vn 0.23308867 -0.5965669 0.7679697
vn 0.099781156 -0.46709645 0.8785583
vn 0.09978116 -0.46709645 0.8785583
vn 0.099781156 -0.46709645 0.8785583
vn 0.099781156 -0.46709645 0.8785583
vn 0.31092355 -0.50250965 0.80672824
vn 0.31092358 -0.5025096 0.8067283
vn 0.31092358 -0.5025096 0.8067283
vn 0.3109236 -0.50250965 0.8067283
vn -0.060821977 -0.46297505 0.8842821
vn -0.06082197 -0.46297505 0.8842821
vn -0.060821973 -0.46297505 0.88428205
vn -0.06082197 -0.46297505 0.8842821
vn 0.8435998 0.5334194 -0.06166953
vn 0.8435998 0.53341943 -0.06166953
vn 0.8435998 0.53341943 -0.06166953
vn 0.8435998 0.53341943 -0.06166953
vn 0.15346895 -0.058003142 0.98644966
vn 0.15346895 -0.058003142 0.98644966
vn 0.15346894 -0.05800314 0.98644966
vn 0.15346895 -0.058003142 0.98644966
vn 0.50925124 -0.45072135 0.73315316
vn 0.50925124 -0.45072132 0.73315316
vn 0.50925124 -0.45072132 0.73315316
vn 0.5092512 -0.45072132 0.73315316
vn 0.1343629 0.09980328 -0.9858935
vn 0.13436292 0.09980329 -0.9858935
vn 0.13436292 0.09980328 -0.9858935
vn 0.13436292 0.09980328 -0.9858935
vn -0.69720554 0.1549151 0.69993263
vn -0.69720554 0.1549151 0.69993263
vn -0.69720554 0.1549151 0.69993263
vn -0.69720554 0.1549151 0.69993263
vn -0.9729643 0.22946703 -0.026179539
vn -0.9729643 0.22946705 -0.026179539
vn -0.9729643 0.22946703 -0.02617954
vn -0.9729643 0.22946703 -0.026179539
vn -0.98359597 -0.034865215 0.17698412
vn -0.98359597 -0.034865215 0.17698412
vn -0.98359597 -0.034865215 0.17698412
vn -0.98359597 -0.034865215 0.1769841
vn -0.57970065 -0.5629358 0.5891099
vn -0.57970065 -0.5629358 0.58910984
vn -0.57970065 -0.5629358 0.58910984
vn -0.57970065 -0.5629358 0.5891099
vn -0.6707668 0.67088324 -0.3162084
vn -0.6707668 0.67088324 -0.3162084
vn -0.6707667 0.67088324 -0.31620836
vn -0.6707667 0.67088324 -0.31620836
vn -0.9159208 0.18174548 0.35785136
vn -0.9159208 0.1817455 0.35785136
vn -0.9159208 0.18174548 0.35785136
vn -0.9159208 0.18174548 0.35785136
vn -0.72037625 0.51349765 0.46623844
vn -0.72037625 0.51349765 0.46623844
vn -0.72037625 0.5134976 0.46623844
vn -0.72037625 0.5134976 0.46623844
vn -0.83091265 -0.09703405 0.5478765
vn -0.83091265 -0.09703405 0.5478765
vn -0.83091265 -0.09703405 0.5478765
vn -0.83091265 -0.09703406 0.5478765
vn -0.66536295 -0.13438287 0.7343251
vn -0.66536295 -0.13438287 0.7343251
vn -0.66536295 -0.13438286 0.7343251
vn -0.66536295 -0.13438287 0.7343251
vn -0.23308861 -0.5965669 0.7679697
vn -0.23308863 -0.5965669 0.7679697
vn -0.23308861 -0.5965669 0.7679697
vn -0.23308861 -0.5965669 0.7679697
vn -0.09978115 -0.46709645 0.8785583
vn -0.099781156 -0.46709645 0.8785583
vn -0.099781156 -0.46709645 0.8785583
vn -0.09978115 -0.46709645 0.8785583
vn -0.31092367 -0.50250965 0.80672824
vn -0.31092364 -0.50250965 0.80672824
vn -0.31092367 -0.5025097 0.80672824
vn -0.31092367 -0.50250965 0.80672824
vn 0.060821977 -0.46297505 0.88428205
vn 0.060821977 -0.46297505 0.8842821
vn 0.060821977 -0.46297505 0.8842821
vn 0.060821977 -0.46297505 0.8842821
vn -0.8435998 0.5334195 -0.061669465
vn -0.8435998 0.5334195 -0.061669473
vn -0.84359974 0.5334195 -0.061669465
vn -0.84359974 0.5334195 -0.061669465
vn -0.08772524 -0.16711637 0.98202664
vn -0.087725244 -0.16711639 0.98202664
vn -0.08772524 -0.16711639 0.98202664
vn -0.087725244 -0.16711637 0.98202664
vn -0.50925124 -0.45072126 0.7331531
vn -0.50925124 -0.45072126 0.7331531
vn -0.50925124 -0.45072126 0.7331531
vn -0.50925124 -0.45072132 0.73315316
g robe001_0
f 3/3/3 2/2/2 1/1/1
f 6/6/6 5/5/5 4/4/4
f 9/9/9 8/8/8 7/7/7
f 10/10/10 9/9/9 7/7/7
f 13/13/13 12/12/12 11/11/11
f 14/14/14 13/13/13 11/11/11
f 17/17/17 16/16/16 15/15/15
f 18/18/18 17/17/17 15/15/15
f 21/21/21 20/20/20 19/19/19
f 22/22/22 21/21/21 19/19/19
f 25/25/25 24/24/24 23/23/23
f 26/26/26 25/25/25 23/23/23
f 29/29/29 28/28/28 27/27/27
f 30/30/30 29/29/29 27/27/27
f 33/33/33 32/32/32 31/31/31
f 34/34/34 33/33/33 31/31/31
f 37/37/37 36/36/36 35/35/35
f 38/38/38 37/37/37 35/35/35
f 41/41/41 40/40/40 39/39/39
f 42/42/42 41/41/41 39/39/39
f 45/45/45 44/44/44 43/43/43
f 46/46/46 45/45/45 43/43/43
f 49/49/49 48/48/48 47/47/47
f 50/50/50 49/49/49 47/47/47
f 53/53/53 52/52/52 51/51/51
f 54/54/54 53/53/53 51/51/51
f 57/57/57 56/56/56 55/55/55
f 58/58/58 57/57/57 55/55/55
f 61/61/61 60/60/60 59/59/59
f 62/62/62 61/61/61 59/59/59
f 65/65/65 64/64/64 63/63/63
f 66/66/66 65/65/65 63/63/63
f 69/69/69 68/68/68 67/67/67
f 70/70/70 69/69/69 67/67/67
f 73/73/73 72/72/72 71/71/71
f 74/74/74 73/73/73 71/71/71
f 77/77/77 76/76/76 75/75/75
f 78/78/78 77/77/77 75/75/75
f 81/81/81 80/80/80 79/79/79
f 82/82/82 81/81/81 79/79/79
f 85/85/85 84/84/84 83/83/83
f 86/86/86 85/85/85 83/83/83
f 89/89/89 88/88/88 87/87/87
f 90/90/90 89/89/89 87/87/87
f 93/93/93 92/92/92 91/91/91
f 94/94/94 93/93/93 91/91/91
f 97/97/97 96/96/96 95/95/95
f 98/98/98 97/97/97 95/95/95
f 101/101/101 100/100/100 99/99/99
f 102/102/102 101/101/101 99/99/99
f 105/105/105 104/104/104 103/103/103
f 106/106/106 105/105/105 103/103/103
f 109/109/109 108/108/108 107/107/107
f 110/110/110 109/109/109 107/107/107
f 113/113/113 112/112/112 111/111/111
f 114/114/114 113/113/113 111/111/111
f 117/117/117 116/116/116 115/115/115
f 118/118/118 117/117/117 115/115/115
f 121/121/121 120/120/120 119/119/119
f 122/122/122 121/121/121 119/119/119
f 125/125/125 124/124/124 123/123/123
f 126/126/126 125/125/125 123/123/123
f 129/129/129 128/128/128 127/127/127
f 130/130/130 129/129/129 127/127/127
f 133/133/133 132/132/132 131/131/131
f 134/134/134 133/133/133 131/131/131
f 137/137/137 136/136/136 135/135/135
f 138/138/138 137/137/137 135/135/135
f 141/141/141 140/140/140 139/139/139
f 142/142/142 141/141/141 139/139/139
