g robe
v -0.000721117 0.003842322 -0.0003250423
v -0.002678157 0.0035739876 -0.0017584912
v -0.00064651883 0.0031353661 0.00012835681
v -0.0020857623 0.0039520888 -0.0013486547
v -0.0017029847 0.004370997 -0.0014372279
v -0.0006888215 0.0041742846 -0.0009242174
v -0.0007026179 0.005585303 -0.0014588241
v -0.0007337792 0.005101858 -0.0009296223
v -0.0006398109 -0.0029962545 -0.0018329269
v -0.0028540185 -0.0008149326 -0.0043390305
v -0.00064684625 -0.0022887336 -0.005183795
v -0.0021681539 -0.0022886794 -0.0015981395
v -0.0041033025 0.0004111114 -0.0038027428
v -0.0012362874 -0.0017937782 0.0012808039
v -0.0006366002 -0.0017756438 0.0013686195
v -0.003468465 -0.00093679514 -0.00084161607
v -0.003980551 0.0015212664 -0.0036617233
v -0.0030843897 0.00077476527 -1.5032291E-05
v -0.0037705174 0.002140477 -0.0036001755
v -0.0011660231 0.00045017092 0.0026056585
v -0.0006400115 0.00050185947 0.002670212
v -0.00063952734 0.0013788614 0.0029063805
v -0.0006395275 0.0011708555 0.002465262
v -0.001641347 -0.0004608914 0.0014791802
v -0.0013392068 0.0005542633 0.0022750737
v -0.003231664 0.0016800836 -0.00042366594
v -0.002831555 0.0031844792 -0.0025668496
v -0.002678157 0.0035739876 -0.0017584912
v -0.0020877486 0.00064839126 0.0013746509
v -0.0014147254 0.00075628783 0.0019211897
v -0.00063952745 0.0011968353 0.0022031756
v -0.0006400115 0.0016378138 0.0014134403
v -0.0020382707 0.0016925427 0.00090822903
v -0.00064651883 0.0031353661 0.00012835681
v -0.0006415076 0.002518144 0.00078980386
v -0.0005695298 0.003831683 -0.00032271532
v -0.0006414714 0.0031235553 0.00013093799
v 0.0013853493 0.0035679701 -0.0017571745
v 0.0007929022 0.003943339 -0.001346742
v 0.00040978557 0.004359618 -0.0014347401
v -0.0006009934 0.004162913 -0.000921731
v -0.00059300644 0.0055650175 -0.001454389
v -0.00055434025 0.0050858995 -0.00092613365
v -0.0006398109 -0.0029962545 -0.0018329269
v -0.00064684625 -0.0022887336 -0.005183795
v 0.0015637324 -0.0008149323 -0.0043390295
v 0.00089180074 -0.0022886794 -0.0015981394
v 0.0028120875 0.00041206507 -0.0038029521
v -3.691299E-05 -0.0017937785 0.0012808039
v -0.0006366002 -0.0017756438 0.0013686195
v 0.0021902146 -0.0009313002 -0.0008428171
v 0.0026893483 0.0015110674 -0.0036594938
v 0.0018006341 0.00077476527 -1.5032887E-05
v 0.00247845 0.0021343573 -0.0035988374
v -0.00011399982 0.00045017092 0.0026056585
v -0.0006400115 0.00050185947 0.002670212
v -0.00063952734 0.0013788614 0.0029063805
v -0.0006395275 0.0011708555 0.002465262
v 0.00036358222 -0.0004608914 0.0014791802
v 5.9184003E-05 0.0005542633 0.0022750737
v 0.0019458045 0.001680083 -0.00042366653
v 0.0015356314 0.0031757988 -0.0025649518
v 0.0013853493 0.0035679701 -0.0017571745
v 0.0008077257 0.00064839126 0.0013746509
v 0.00013470264 0.00075628783 0.0019211897
v -0.00063952745 0.0011968353 0.0022031756
v -0.0006400115 0.0016378138 0.0014134403
v 0.0007542106 0.0016925427 0.00090822874
v -0.0006414714 0.0031235553 0.00013093799
v -0.0006415076 0.002518144 0.00078980386
v -0.000721117 0.0038423224 -0.0003250426
v -0.0006465189 0.0031353673 0.00012835622
v -0.002678157 0.0035739872 -0.0017584921
v -0.0020857623 0.0039520888 -0.0013486547
v -0.0017029847 0.004370999 -0.0014372276
v -0.0006888215 0.004174285 -0.0009242174
v -0.0007026179 0.0055853054 -0.0014588247
v -0.0007337792 0.005101856 -0.0009296229
v -0.0006398109 -0.0029962545 -0.0018329276
v -0.00064684625 -0.0022887336 -0.005183795
v -0.0028540185 -0.0008149326 -0.0043390305
v -0.0021681539 -0.0022886794 -0.0015981402
v -0.0041033025 0.0004111114 -0.0038027428
v -0.0012362874 -0.0017937779 0.0012808033
v -0.0006366002 -0.0017756432 0.0013686189
v -0.003468465 -0.00093679485 -0.00084161665
v -0.003980551 0.0015212664 -0.0036617233
v -0.0030843897 0.0007747656 -1.50325895E-05
v -0.0037705174 0.002140477 -0.0036001755
v -0.0011660231 0.0004501712 0.0026056578
v -0.0006400115 0.00050186005 0.0026702115
v -0.00063952745 0.001378862 0.00290638
v -0.00063952745 0.0011708555 0.002465261
v -0.001641347 -0.0004608911 0.0014791795
v -0.0013392068 0.0005542639 0.0022750732
v -0.003231664 0.001680083 -0.00042366653
v -0.002831555 0.0031844792 -0.0025668496
v -0.002678157 0.0035739872 -0.0017584921
v -0.0020877486 0.00064839184 0.0013746509
v -0.0014147254 0.0007562882 0.0019211891
v -0.00063952745 0.0011968359 0.002203175
v -0.0006400115 0.0016378149 0.0014134397
v -0.0020382707 0.0016925433 0.00090822845
v -0.0006465189 0.0031353673 0.00012835622
v -0.00064150774 0.0025181444 0.00078980264
v -0.00056952966 0.0038316841 -0.0003227177
v 0.0013853493 0.0035679725 -0.0017571755
v -0.00064147153 0.0031235572 0.0001309383
v 0.0007929022 0.0039433427 -0.0013467419
v 0.0004097855 0.0043596197 -0.0014347398
v -0.0006009934 0.004162915 -0.00092173065
v -0.00059300644 0.0055650207 -0.0014543895
v -0.00055434025 0.0050858995 -0.00092613365
v -0.0006398109 -0.0029962545 -0.0018329276
v 0.0015637324 -0.0008149323 -0.0043390295
v -0.00064684625 -0.0022887336 -0.005183795
v 0.00089180074 -0.002288679 -0.0015981405
v 0.0028120875 0.00041206507 -0.0038029521
v -3.6912952E-05 -0.0017937782 0.0012808033
v -0.0006366002 -0.0017756432 0.0013686189
v 0.0021902146 -0.0009312996 -0.0008428177
v 0.0026893483 0.0015110674 -0.0036594938
v 0.0018006341 0.00077476527 -1.5032887E-05
v 0.00247845 0.0021343573 -0.0035988374
v -0.00011399982 0.0004501712 0.0026056578
v -0.0006400115 0.00050186005 0.0026702115
v -0.00063952745 0.001378862 0.00290638
v -0.00063952745 0.0011708555 0.002465261
v 0.00036358222 -0.0004608911 0.0014791802
v 5.9184003E-05 0.0005542639 0.0022750732
v 0.0019458045 0.0016800842 -0.00042366653
v 0.0015356314 0.0031757988 -0.0025649518
v 0.0013853493 0.0035679725 -0.0017571755
v 0.0008077257 0.00064839184 0.0013746509
v 0.00013470264 0.0007562882 0.0019211891
v -0.00063952745 0.0011968359 0.002203175
v -0.0006400115 0.0016378149 0.0014134397
v 0.0007542106 0.0016925433 0.00090822845
v -0.00064147153 0.0031235572 0.0001309383
v -0.00064150774 0.0025181444 0.00078980264
vt 0.315167 0.13530442
vt 0.30281228 0.16683045
vt 0.315167 0.16683045
vt 0.30281228 0.13530442
vt 0.2761914 0.057901636
vt 0.28181043 0.050821323
vt 0.27458256 0.019973706
vt 0.3070799 0.027669696
vt 0.20326279 0.122288145
vt 0.17792436 0.09779023
vt 0.17792436 0.12250133
vt 0.20326279 0.10624724
vt 0.17792436 0.063405
vt 0.24017997 0.10412382
vt 0.24620056 0.114689
vt 0.20326279 0.08229277
vt 0.17792436 0.048748333
vt 0.20326279 0.06690632
vt 0.17792436 0.009583523
vt 0.25546795 0.10199966
vt 0.26843557 0.10559338
vt 0.2687593 0.08185559
vt 0.2683793 0.07656284
vt 0.23230363 0.08495961
vt 0.24956082 0.08762652
vt 0.20326279 0.042580366
vt 0.22337928 0.010459805
vt 0.22641893 0.023986079
vt 0.23138559 0.07265044
vt 0.24887228 0.078394786
vt 0.2686891 0.07413647
vt 0.2557679 0.06364506
vt 0.23992668 0.05318955
vt 0.25562713 0.04804435
vt 0.26066417 0.059758108
vt 0.315167 0.13530442
vt 0.315167 0.16683045
vt 0.30281228 0.16683045
vt 0.30281228 0.13530442
vt 0.2761914 0.057901636
vt 0.28181043 0.050821323
vt 0.27458256 0.019973706
vt 0.3070799 0.027669696
vt 0.20326279 0.122288145
vt 0.17792436 0.12250133
vt 0.17792436 0.09779023
vt 0.20326279 0.10624724
vt 0.17792436 0.063405
vt 0.24017997 0.10412382
vt 0.24620056 0.114689
vt 0.20326279 0.08229277
vt 0.17792436 0.048748333
vt 0.20326279 0.06690632
vt 0.17792436 0.009583523
vt 0.25546795 0.10199966
vt 0.26843557 0.10559338
vt 0.2687593 0.08185559
vt 0.2683793 0.07656284
vt 0.23230363 0.08495961
vt 0.24956082 0.08762652
vt 0.20326279 0.042580366
vt 0.22337928 0.010459805
vt 0.22641893 0.023986079
vt 0.23138559 0.07265044
vt 0.24887228 0.078394786
vt 0.2686891 0.07413647
vt 0.2557679 0.06364506
vt 0.23992668 0.05318955
vt 0.25562713 0.04804435
vt 0.26066417 0.059758108
vt 0.315167 0.13530442
vt 0.315167 0.16683045
vt 0.30281228 0.16683045
vt 0.30281228 0.13530442
vt 0.2761914 0.057901636
vt 0.28181043 0.050821323
vt 0.27458256 0.019973706
vt 0.3070799 0.027669696
vt 0.20326279 0.122288145
vt 0.17792436 0.12250133
vt 0.17792436 0.09779023
vt 0.20326279 0.10624724
vt 0.17792436 0.063405
vt 0.24017997 0.10412382
vt 0.24620056 0.114689
vt 0.20326279 0.08229277
vt 0.17792436 0.048748333
vt 0.20326279 0.06690632
vt 0.17792436 0.009583523
vt 0.25546795 0.10199966
vt 0.26843557 0.10559338
vt 0.2687593 0.08185559
vt 0.2683793 0.07656284
vt 0.23230363 0.08495961
vt 0.24956082 0.08762652
vt 0.20326279 0.042580366
vt 0.22337928 0.010459805
vt 0.22641893 0.023986079
vt 0.23138559 0.07265044
vt 0.24887228 0.078394786
vt 0.2686891 0.07413647
vt 0.2557679 0.06364506
vt 0.23992668 0.05318955
vt 0.25562713 0.04804435
vt 0.26066417 0.059758108
vt 0.315167 0.13530442
vt 0.30281228 0.16683045
vt 0.315167 0.16683045
vt 0.30281228 0.13530442
vt 0.2761914 0.057901636
vt 0.28181043 0.050821323
vt 0.27458256 0.019973706
vt 0.3070799 0.027669696
vt 0.20326279 0.122288145
vt 0.17792436 0.09779023
vt 0.17792436 0.12250133
vt 0.20326279 0.10624724
vt 0.17792436 0.063405
vt 0.24017997 0.10412382
vt 0.24620056 0.114689
vt 0.20326279 0.08229277
vt 0.17792436 0.048748333
vt 0.20326279 0.06690632
vt 0.17792436 0.009583523
vt 0.25546795 0.10199966
vt 0.26843557 0.10559338
vt 0.2687593 0.08185559
vt 0.2683793 0.07656284
vt 0.23230363 0.08495961
vt 0.24956082 0.08762652
vt 0.20326279 0.042580366
vt 0.22337928 0.010459805
vt 0.22641893 0.023986079
vt 0.23138559 0.07265044
vt 0.24887228 0.078394786
vt 0.2686891 0.07413647
vt 0.2557679 0.06364506
vt 0.23992668 0.05318955
vt 0.25562713 0.04804435
vt 0.26066417 0.059758108
vn 0.46185625 -0.5389858 -0.7044028
vn 0.6886941 -0.5019358 -0.52322155
vn 0.47172278 -0.53930753 -0.6975851
vn 0.46185625 -0.5389858 -0.7044028
vn 0.4707957 -0.524414 -0.70946556
vn 0.4707957 -0.524414 -0.70946556
vn 0.6017039 -0.2778367 -0.7488385
vn 0.6017039 -0.2778367 -0.7488385
vn 0.00023147555 0.99918157 -0.04044976
vn 0.64530927 0.7392657 0.19251563
vn 0.53936076 0.8103881 0.22882557
vn 0.59600836 0.79644334 -0.10223492
vn 0.9472626 0.31577805 -0.054568402
vn 0.500601 0.6247595 -0.5992281
vn 7.9664125E-05 0.7723668 -0.6351768
vn 0.87174755 0.36791632 -0.32356405
vn 0.967795 -0.08862071 -0.23562495
vn 0.89662343 -0.062930465 -0.43829924
vn 0.94012684 -0.2804115 -0.19372869
vn 0.57524836 0.13914336 -0.80605733
vn -3.6668887E-06 0.38396147 -0.9233491
vn -0.0002121105 -0.3057848 -0.9521006
vn -0.00035691698 -0.94871616 -0.31612918
vn 0.7670881 0.28430894 -0.57510364
vn 0.84531486 -0.271781 -0.45997587
vn 0.8227055 -0.3839694 -0.41919345
vn 0.87335944 -0.4600804 -0.15990417
vn 0.6886941 -0.5019358 -0.52322155
vn 0.71252656 -0.13861139 -0.68781734
vn 0.63561064 -0.5142797 -0.57577384
vn -0.0002985034 -0.8879414 -0.4599564
vn -0.00055115815 -0.7107974 -0.70339656
vn 0.49974108 -0.5293741 -0.68558145
vn 0.47172278 -0.53930753 -0.6975851
vn -0.0010713366 -0.6520174 -0.7582032
vn -0.46154964 -0.54044634 -0.70348394
vn -0.47181106 -0.5415906 -0.69575423
vn -0.6878737 -0.5048091 -0.521534
vn -0.46154964 -0.54044634 -0.70348394
vn -0.47190553 -0.5261483 -0.7074413
vn -0.47190553 -0.5261483 -0.7074413
vn -0.6043636 -0.27992854 -0.74591196
vn -0.6043636 -0.27992854 -0.74591196
vn 0.00023147555 0.99918157 -0.04044976
vn -0.5388805 0.8100257 0.23122771
vn -0.64584756 0.7382385 0.19464019
vn -0.5970349 0.79583967 -0.10093826
vn -0.9482526 0.31315595 -0.052442227
vn -0.5015136 0.62393403 -0.59932506
vn 7.9664125E-05 0.7723668 -0.6351768
vn -0.8731924 0.365661 -0.32222193
vn -0.96806395 -0.09074116 -0.23370555
vn -0.8971874 -0.06495339 -0.43684772
vn -0.93986005 -0.2829719 -0.19128509
vn -0.5754996 0.13856708 -0.8059772
vn -3.6668887E-06 0.38396147 -0.9233491
vn -0.0002121105 -0.3057848 -0.9521006
vn -0.00035691698 -0.94871616 -0.31612918
vn -0.7679921 0.28244436 -0.5748158
vn -0.84524876 -0.2723263 -0.45977473
vn -0.8224086 -0.38658506 -0.41736814
vn -0.87208354 -0.46356997 -0.15675808
vn -0.6878737 -0.5048091 -0.521534
vn -0.71293056 -0.14007506 -0.687102
vn -0.6358216 -0.51458836 -0.57526505
vn -0.0002985034 -0.8879414 -0.4599564
vn -0.00055115815 -0.7107974 -0.70339656
vn -0.5000028 -0.5313081 -0.6838925
vn -0.47181106 -0.5415906 -0.69575423
vn -0.0010713366 -0.6520174 -0.7582032
vn -0.4618565 0.5389847 0.7044032
vn -0.471723 0.5393074 0.69758517
vn -0.68869436 0.50193566 0.5232215
vn -0.4618565 0.5389847 0.7044032
vn -0.47079512 0.52441335 0.7094664
vn -0.47079512 0.52441335 0.7094664
vn -0.60170263 0.277837 0.74883944
vn -0.60170263 0.277837 0.74883944
vn -0.00023142374 -0.99918157 0.040449783
vn -0.5393607 -0.81038815 -0.22882561
vn -0.64530927 -0.7392657 -0.19251563
vn -0.59600836 -0.79644334 0.10223494
vn -0.9472626 -0.31577802 0.054568402
vn -0.500601 -0.6247595 0.59922814
vn -7.962135E-05 -0.77236676 0.63517684
vn -0.87174755 -0.36791632 0.32356405
vn -0.967795 0.08862074 0.235625
vn -0.89662343 0.062930524 0.43829915
vn -0.94012684 0.28041157 0.19372876
vn -0.5752483 -0.1391433 0.80605733
vn 3.6631159E-06 -0.38396147 0.9233491
vn 0.0002121273 0.305785 0.9521006
vn 0.00035696008 0.94871604 0.31612924
vn -0.7670881 -0.284309 0.57510364
vn -0.84531486 0.27178103 0.45997596
vn -0.8227055 0.3839695 0.41919333
vn -0.8733594 0.4600804 0.15990433
vn -0.68869436 0.50193566 0.5232215
vn -0.71252656 0.1386114 0.6878174
vn -0.6356105 0.5142795 0.57577413
vn 0.0002985219 0.8879411 0.459957
vn 0.0005510571 0.7107972 0.7033968
vn -0.49974108 0.52937424 0.6855813
vn -0.471723 0.5393074 0.69758517
vn 0.001071133 0.65201724 0.75820345
vn 0.46154898 0.5404463 0.7034844
vn 0.68787366 0.50480914 0.52153397
vn 0.47181067 0.5415906 0.6957545
vn 0.46154898 0.5404463 0.7034844
vn 0.47190487 0.5261481 0.7074418
vn 0.47190487 0.5261481 0.7074418
vn 0.6043632 0.27992874 0.74591225
vn 0.6043632 0.27992874 0.74591225
vn -0.00023142374 -0.99918157 0.040449783
vn 0.6458476 -0.7382385 -0.19464014
vn 0.5388805 -0.8100257 -0.23122779
vn 0.5970349 -0.79583967 0.10093826
vn 0.9482526 -0.3131559 0.05244228
vn 0.50151354 -0.62393403 0.59932506
vn -7.962135E-05 -0.77236676 0.63517684
vn 0.8731924 -0.365661 0.3222219
vn 0.96806395 0.0907411 0.23370555
vn 0.8971874 0.06495333 0.43684772
vn 0.93986017 0.28297192 0.19128492
vn 0.57549953 -0.13856709 0.8059774
vn 3.6631159E-06 -0.38396147 0.9233491
vn 0.0002121273 0.305785 0.9521006
vn 0.00035696008 0.94871604 0.31612924
vn 0.7679921 -0.28244436 0.5748158
vn 0.8452487 0.27232635 0.459775
vn 0.8224087 0.3865849 0.41736814
vn 0.8720837 0.46356988 0.15675773
vn 0.68787366 0.50480914 0.52153397
vn 0.71293044 0.14007504 0.6871021
vn 0.63582146 0.5145882 0.5752653
vn 0.0002985219 0.8879411 0.459957
vn 0.0005510571 0.7107972 0.7033968
vn 0.5000027 0.531308 0.6838927
vn 0.47181067 0.5415906 0.6957545
vn 0.001071133 0.65201724 0.75820345
g robe_0
f 3/3/3 2/2/2 1/1/1
f 2/2/2 4/4/4 1/1/1
f 1/1/1 4/4/4 5/5/5
f 6/6/6 1/1/1 5/5/5
f 6/6/6 5/5/5 7/7/7
f 8/8/8 6/6/6 7/7/7
f 11/11/11 10/10/10 9/9/9
f 10/10/10 12/12/12 9/9/9
f 10/10/10 13/13/13 12/12/12
f 9/9/9 12/12/12 14/14/14
f 15/15/15 9/9/9 14/14/14
f 13/13/13 16/16/16 12/12/12
f 14/14/14 12/12/12 16/16/16
f 13/13/13 17/17/17 16/16/16
f 17/17/17 18/18/18 16/16/16
f 17/17/17 19/19/19 18/18/18
f 15/15/15 14/14/14 20/20/20
f 21/21/21 15/15/15 20/20/20
f 22/22/22 21/21/21 20/20/20
f 22/22/22 20/20/20 23/23/23
f 24/24/24 14/14/14 16/16/16
f 24/24/24 16/16/16 18/18/18
f 20/20/20 14/14/14 25/25/25
f 20/20/20 25/25/25 23/23/23
f 14/14/14 24/24/24 25/25/25
f 19/19/19 26/26/26 18/18/18
f 19/19/19 27/27/27 26/26/26
f 27/27/27 28/28/28 26/26/26
f 29/29/29 24/24/24 18/18/18
f 25/25/25 24/24/24 29/29/29
f 29/29/29 18/18/18 26/26/26
f 23/23/23 25/25/25 30/30/30
f 30/30/30 25/25/25 29/29/29
f 31/31/31 23/23/23 30/30/30
f 31/31/31 30/30/30 32/32/32
f 33/33/33 26/26/26 28/28/28
f 33/33/33 29/29/29 26/26/26
f 30/30/30 29/29/29 33/33/33
f 32/32/32 30/30/30 33/33/33
f 34/34/34 33/33/33 28/28/28
f 32/32/32 33/33/33 35/35/35
f 33/33/33 34/34/34 35/35/35
f 38/38/38 37/37/37 36/36/36
f 39/39/39 38/38/38 36/36/36
f 39/39/39 36/36/36 40/40/40
f 36/36/36 41/41/41 40/40/40
f 40/40/40 41/41/41 42/42/42
f 41/41/41 43/43/43 42/42/42
f 46/46/46 45/45/45 44/44/44
f 47/47/47 46/46/46 44/44/44
f 48/48/48 46/46/46 47/47/47
f 49/49/49 47/47/47 44/44/44
f 50/50/50 49/49/49 44/44/44
f 51/51/51 48/48/48 47/47/47
f 47/47/47 49/49/49 51/51/51
f 52/52/52 48/48/48 51/51/51
f 53/53/53 52/52/52 51/51/51
f 54/54/54 52/52/52 53/53/53
f 55/55/55 49/49/49 50/50/50
f 56/56/56 55/55/55 50/50/50
f 56/56/56 57/57/57 55/55/55
f 57/57/57 58/58/58 55/55/55
f 49/49/49 59/59/59 51/51/51
f 51/51/51 59/59/59 53/53/53
f 55/55/55 60/60/60 49/49/49
f 58/58/58 60/60/60 55/55/55
f 60/60/60 59/59/59 49/49/49
f 61/61/61 54/54/54 53/53/53
f 62/62/62 54/54/54 61/61/61
f 63/63/63 62/62/62 61/61/61
f 59/59/59 64/64/64 53/53/53
f 59/59/59 60/60/60 64/64/64
f 53/53/53 64/64/64 61/61/61
f 60/60/60 58/58/58 65/65/65
f 60/60/60 65/65/65 64/64/64
f 58/58/58 66/66/66 65/65/65
f 65/65/65 66/66/66 67/67/67
f 61/61/61 68/68/68 63/63/63
f 64/64/64 68/68/68 61/61/61
f 64/64/64 65/65/65 68/68/68
f 65/65/65 67/67/67 68/68/68
f 68/68/68 69/69/69 63/63/63
f 67/67/67 70/70/70 68/68/68
f 70/70/70 69/69/69 68/68/68
f 73/73/73 72/72/72 71/71/71
f 74/74/74 73/73/73 71/71/71
f 74/74/74 71/71/71 75/75/75
f 71/71/71 76/76/76 75/75/75
f 75/75/75 76/76/76 77/77/77
f 76/76/76 78/78/78 77/77/77
f 81/81/81 80/80/80 79/79/79
f 82/82/82 81/81/81 79/79/79
f 83/83/83 81/81/81 82/82/82
f 84/84/84 82/82/82 79/79/79
f 85/85/85 84/84/84 79/79/79
f 86/86/86 83/83/83 82/82/82
f 82/82/82 84/84/84 86/86/86
f 87/87/87 83/83/83 86/86/86
f 88/88/88 87/87/87 86/86/86
f 89/89/89 87/87/87 88/88/88
f 90/90/90 84/84/84 85/85/85
f 91/91/91 90/90/90 85/85/85
f 91/91/91 92/92/92 90/90/90
f 92/92/92 93/93/93 90/90/90
f 84/84/84 94/94/94 86/86/86
f 86/86/86 94/94/94 88/88/88
f 90/90/90 95/95/95 84/84/84
f 93/93/93 95/95/95 90/90/90
f 95/95/95 94/94/94 84/84/84
f 96/96/96 89/89/89 88/88/88
f 97/97/97 89/89/89 96/96/96
f 98/98/98 97/97/97 96/96/96
f 94/94/94 99/99/99 88/88/88
f 94/94/94 95/95/95 99/99/99
f 88/88/88 99/99/99 96/96/96
f 95/95/95 93/93/93 100/100/100
f 95/95/95 100/100/100 99/99/99
f 93/93/93 101/101/101 100/100/100
f 100/100/100 101/101/101 102/102/102
f 96/96/96 103/103/103 98/98/98
f 99/99/99 103/103/103 96/96/96
f 99/99/99 100/100/100 103/103/103
f 100/100/100 102/102/102 103/103/103
f 103/103/103 104/104/104 98/98/98
f 102/102/102 105/105/105 103/103/103
f 105/105/105 104/104/104 103/103/103
f 108/108/108 107/107/107 106/106/106
f 107/107/107 109/109/109 106/106/106
f 106/106/106 109/109/109 110/110/110
f 111/111/111 106/106/106 110/110/110
f 111/111/111 110/110/110 112/112/112
f 113/113/113 111/111/111 112/112/112
f 116/116/116 115/115/115 114/114/114
f 115/115/115 117/117/117 114/114/114
f 115/115/115 118/118/118 117/117/117
f 114/114/114 117/117/117 119/119/119
f 120/120/120 114/114/114 119/119/119
f 118/118/118 121/121/121 117/117/117
f 119/119/119 117/117/117 121/121/121
f 118/118/118 122/122/122 121/121/121
f 122/122/122 123/123/123 121/121/121
f 122/122/122 124/124/124 123/123/123
f 120/120/120 119/119/119 125/125/125
f 126/126/126 120/120/120 125/125/125
f 127/127/127 126/126/126 125/125/125
f 127/127/127 125/125/125 128/128/128
f 129/129/129 119/119/119 121/121/121
f 129/129/129 121/121/121 123/123/123
f 125/125/125 119/119/119 130/130/130
f 125/125/125 130/130/130 128/128/128
f 119/119/119 129/129/129 130/130/130
f 124/124/124 131/131/131 123/123/123
f 124/124/124 132/132/132 131/131/131
f 132/132/132 133/133/133 131/131/131
f 134/134/134 129/129/129 123/123/123
f 130/130/130 129/129/129 134/134/134
f 134/134/134 123/123/123 131/131/131
f 128/128/128 130/130/130 135/135/135
f 135/135/135 130/130/130 134/134/134
f 136/136/136 128/128/128 135/135/135
f 136/136/136 135/135/135 137/137/137
f 138/138/138 131/131/131 133/133/133
f 138/138/138 134/134/134 131/131/131
f 135/135/135 134/134/134 138/138/138
f 137/137/137 135/135/135 138/138/138
f 139/139/139 138/138/138 133/133/133
f 137/137/137 138/138/138 140/140/140
f 138/138/138 139/139/139 140/140/140
