g robe
v -0.018683359 0.017630138 0.10204077
v 0.0017686009 0.052497786 0.103592835
v 0.0017166829 0.060687046 0.12095983
v -0.025501525 0.021728287 0.08902561
v -0.021583945 -0.026440505 0.092941225
v 0.0017877531 -0.025726624 0.09639856
v 0.0017877531 0.019665107 0.10458231
v 0.0017166829 0.060687046 0.12095983
v 0.0017332172 -0.067408904 0.016779708
v -0.045994263 -0.04265027 0.020006865
v -0.06721664 -0.07349837 -0.051549014
v 0.0016571545 -0.13241324 -0.06781881
v -0.06722464 -0.05580453 -0.091528684
v -0.09374245 -0.0110032745 -0.09697442
v -0.11969248 0.001146574 -0.06149718
v -0.15293214 0.0886231 -0.14130451
v -0.20882295 0.06584631 -0.07982962
v -0.077830516 -0.016122436 0.019768886
v -0.09413605 0.010672378 -0.0041752625
v -0.0374413 -0.0029489517 0.07485136
v -0.09413605 0.010672378 -0.0041752625
v -0.054971695 0.025434073 0.053575933
v -0.099892855 0.034762688 -0.023933066
v -0.028474776 0.029682007 0.075093195
v 0.0017686009 0.052497786 0.103592835
v 0.0017739057 0.05352066 0.09327457
v 0.0017140913 0.064196944 0.055553224
v 0.0017140888 0.06457863 0.054652996
v -0.052944344 0.044525757 0.028866671
v 0.0016755842 0.115627766 0.048906937
v -0.06582001 0.07425863 0.015267925
v -0.0794118 0.06991867 -0.0113504315
v -0.13373537 0.04448011 -0.03484657
v -0.15606141 0.031889495 -0.041225318
v -0.20882295 0.06584631 -0.07982962
v -0.09413605 0.010672378 -0.0041752625
v 0.0017686009 0.052497786 0.103592835
v 0.02225887 0.017630119 0.102040805
v 0.0017166829 0.060687046 0.12095983
v 0.0290155 0.021728305 0.08902557
v 0.025159411 -0.026440544 0.09294115
v 0.0017877531 -0.025726624 0.09639856
v 0.0017877531 0.019665107 0.10458231
v 0.0017166829 0.060687046 0.12095983
v 0.0017332172 -0.067408904 0.016779708
v 0.049481113 -0.042730533 0.019975623
v 0.07079206 -0.07361444 -0.051594093
v 0.0016571545 -0.13241324 -0.06781881
v 0.07078406 -0.0559206 -0.09157375
v 0.12308233 0.0011954975 -0.061478194
v 0.097324096 -0.011231689 -0.09706307
v 0.08140606 -0.016122399 0.019768963
v 0.21215966 0.06633108 -0.07964153
v 0.15627894 0.088319816 -0.14052095
v 0.09771159 0.01067234 -0.004175434
v 0.041016843 -0.0029489421 0.07485132
v 0.09771159 0.01067234 -0.004175434
v 0.05854724 0.025434112 0.053575896
v 0.103468426 0.03476267 -0.023933066
v 0.03205024 0.029682007 0.07509317
v 0.0017686009 0.052497786 0.103592835
v 0.0017739057 0.05352066 0.09327457
v 0.0017140913 0.064196944 0.055553224
v 0.0017140888 0.06457863 0.054652996
v 0.056519814 0.044525757 0.028866671
v 0.0016755842 0.115627766 0.048906937
v 0.06953124 0.07425857 0.015267906
v 0.0830785 0.06976547 -0.011409874
v 0.1373507 0.044480093 -0.034846533
v 0.15973327 0.03188944 -0.04122528
v 0.09771159 0.01067234 -0.004175434
v 0.21215966 0.06633108 -0.07964153
v -0.03717648 0.058650587 0.0058425902
v -0.0041761757 0.07715168 0.028818378
v 0.0024969028 0.040373094 0.017324332
v 0.00096617936 0.03599533 0.013327608
v -0.0041761757 0.07715168 0.028818378
v -0.03717648 0.058650587 0.0058425902
v -0.09824353 0.12057751 0.0057148933
v -0.034892075 0.15205291 0.04661812
v -0.14774406 0.16227923 0.019522019
v -0.11609948 0.1921399 0.060306776
v -0.24486102 0.22099502 0.074169636
v 0.0013533711 0.040369358 0.017322883
v 0.011779101 0.08141666 0.029197272
v 0.04498005 0.06313232 0.0063056084
v 0.0029276395 0.036001798 0.013330125
v 0.011779101 0.08141666 0.029197272
v 0.10559053 0.12545745 0.006332569
v 0.04498005 0.06313232 0.0063056084
v 0.04189265 0.15651703 0.047074355
v 0.15474369 0.16748218 0.020265045
v 0.12276406 0.19713451 0.060968895
v 0.25127026 0.22683188 0.07515873
vt 0.96666974 0.9409091
vt 0.9949425 0.8693442
vt 0.99577457 0.88423496
vt 0.9537346 0.90047115
vt 0.9331928 0.9468853
vt 0.9463764 0.97660965
vt 0.9950656 0.9510197
vt 0.99577457 0.88423496
vt 0.8900953 0.99798936
vt 0.8900953 0.95285934
vt 0.81490666 0.9600924
vt 0.77093154 0.9985891
vt 0.7708982 0.9295493
vt 0.77093154 0.8072381
vt 0.8387175 0.8323255
vt 0.77093154 0.77554905
vt 0.8387175 0.7699987
vt 0.8900953 0.88546497
vt 0.8900953 0.84217626
vt 0.9159456 0.892968
vt 0.8900953 0.84217626
vt 0.91393524 0.858337
vt 0.9239523 0.74154496
vt 0.9522268 0.8744983
vt 0.9949425 0.8693442
vt 0.9956208 0.8625178
vt 0.96737427 0.8336778
vt 0.9672788 0.8323241
vt 0.9326381 0.803585
vt 0.97804826 0.8220652
vt 0.9670183 0.7891093
vt 0.963558 0.721423
vt 0.95690185 0.68336767
vt 0.8745726 0.6809023
vt 0.8387175 0.7699987
vt 0.8900953 0.84217626
vt 0.9949425 0.8693442
vt 0.96666974 0.9409091
vt 0.99577457 0.88423496
vt 0.9537346 0.90047115
vt 0.9331928 0.9468853
vt 0.9463764 0.97660965
vt 0.9950656 0.9510197
vt 0.99577457 0.88423496
vt 0.8900953 0.99798936
vt 0.8900953 0.95285934
vt 0.81490666 0.9600924
vt 0.77093154 0.9985891
vt 0.77093154 0.9290661
vt 0.8387175 0.8323255
vt 0.77093154 0.8072381
vt 0.8900953 0.88546497
vt 0.8387175 0.7699987
vt 0.77093154 0.77554905
vt 0.8900953 0.84217626
vt 0.9159456 0.892968
vt 0.8900953 0.84217626
vt 0.91393524 0.858337
vt 0.9239523 0.74154496
vt 0.9522268 0.8744983
vt 0.9949425 0.8693442
vt 0.9956208 0.8625178
vt 0.96737427 0.8336778
vt 0.9672788 0.8323241
vt 0.9326381 0.803585
vt 0.97804826 0.8220652
vt 0.9670183 0.7891093
vt 0.963558 0.721423
vt 0.95690185 0.68336767
vt 0.8745726 0.6809023
vt 0.8900953 0.84217626
vt 0.8387175 0.7699987
vt 0.9326381 0.803585
vt 0.9670183 0.7891093
vt 0.97804826 0.8220652
vt 0.9672788 0.8323241
vt 0.6336119 0.84448737
vt 0.6485237 0.8465639
vt 0.6830891 0.85347223
vt 0.6411423 0.80398524
vt 0.67833555 0.7545444
vt 0.6456359 0.74297434
vt 0.6987528 0.7037681
vt 0.97804826 0.8220652
vt 0.9670183 0.7891093
vt 0.9326381 0.803585
vt 0.9672788 0.8323241
vt 0.6336119 0.84448737
vt 0.6830891 0.85347223
vt 0.6485237 0.8465639
vt 0.6411423 0.80398524
vt 0.67833555 0.7545444
vt 0.6456359 0.74297434
vt 0.6987528 0.7037681
vn -0.58421177 -0.02359774 0.8112581
vn -0.8057474 0.55025655 0.21906367
vn -0.6628945 0.09071612 0.7431968
vn -0.8346307 0.33622795 0.43628228
vn -0.5599918 -0.4554129 0.6921042
vn -0.00023542772 -0.6162217 0.78757274
vn 8.358335E-06 -0.2798175 0.9600532
vn -0.395936 -0.11134957 0.91150206
vn -0.0006189305 -0.87495023 0.48421252
vn -0.564876 -0.69497555 0.44488654
vn -0.71354496 -0.6971131 0.06990608
vn -0.0012736865 -0.9895314 0.14431158
vn -0.7202651 -0.6221877 -0.30675808
vn -0.6610992 -0.62225646 -0.41921932
vn -0.74937505 -0.66190773 -0.017750457
vn -0.5269214 -0.6733554 -0.5186003
vn -0.6875089 -0.72337985 -0.06366443
vn -0.7633182 -0.44258136 0.47060293
vn -0.8346004 -0.06968324 0.54643065
vn -0.8018564 -0.09117994 0.5905189
vn -0.7339597 0.20410742 0.64779884
vn -0.70026934 0.43083745 0.56921166
vn -0.55603635 0.37170193 0.7434119
vn -0.6832912 0.60972244 0.40168616
vn -0.42188644 0.8288264 0.3675032
vn -0.00025297113 0.9305909 0.36606085
vn -0.0008566599 0.94264615 0.33379248
vn -0.0007976172 0.72586715 0.6878345
vn -0.66989 0.36382583 0.64720803
vn -0.0008839092 0.14800332 0.9889865
vn -0.6571629 0.11880924 0.74432606
vn -0.59216595 0.011626957 0.8057321
vn -0.32687035 -0.080879115 0.941602
vn -0.21921198 0.4356054 0.87303734
vn -0.049506128 0.8287927 0.55736136
vn -0.619749 0.47666237 0.62346154
vn 0.8055015 0.5500468 0.22048992
vn 0.5841095 -0.0230301 0.81134814
vn 0.66229296 0.09127365 0.7436647
vn 0.8342441 0.33625355 0.4370016
vn 0.5599473 -0.45551938 0.6920702
vn -0.00023542772 -0.6162217 0.78757274
vn 8.358335E-06 -0.2798175 0.9600532
vn 0.39561337 -0.11103542 0.91168046
vn -0.0006189305 -0.87495023 0.48421252
vn 0.5645442 -0.6952535 0.44487345
vn 0.7132776 -0.69731414 0.07062709
vn -0.0012736865 -0.9895314 0.14431158
vn 0.7202418 -0.6228452 -0.3054762
vn 0.750974 -0.6601187 -0.016773675
vn 0.66437733 -0.6207665 -0.41623515
vn 0.7638053 -0.44245046 0.46993515
vn 0.6899511 -0.72106075 -0.06355165
vn 0.5317023 -0.6711963 -0.5165154
vn 0.835093 -0.06964961 0.5456817
vn 0.80181396 -0.09114167 0.5905824
vn 0.7343117 0.21504393 0.6438497
vn 0.69993037 0.43119013 0.5693616
vn 0.5528868 0.3824556 0.74029994
vn 0.68263656 0.61034733 0.4018502
vn 0.42153218 0.8288434 0.36787114
vn -0.00025297113 0.9305909 0.36606085
vn -0.0008566599 0.94264615 0.33379248
vn -0.0007976172 0.72586715 0.6878345
vn 0.6695836 0.36356768 0.64766985
vn -0.0008839092 0.14800332 0.9889865
vn 0.6568095 0.1178877 0.7447844
vn 0.5922542 0.010726944 0.80567974
vn 0.32646605 -0.08062851 0.94176376
vn 0.20418859 0.45780054 0.86528933
vn 0.61495805 0.4920011 0.61624795
vn 0.018468486 0.8539883 0.51996446
vn -0.39361224 -0.36434 0.84399396
vn -0.39361224 -0.36434 0.84399396
vn -0.4102603 -0.36570722 0.83543086
vn -0.4102603 -0.36570722 0.83543086
vn -0.39361224 -0.36434 0.84399396
vn -0.39361224 -0.36434 0.84399396
vn -0.30997887 -0.50075185 0.8081836
vn -0.30997887 -0.50075185 0.8081836
vn -0.16979498 -0.6986942 0.6949791
vn -0.16979498 -0.6986942 0.6949791
vn -0.102313206 -0.7631213 0.6381049
vn 0.4046184 -0.37090623 0.83589023
vn 0.39088094 -0.36554575 0.84474164
vn 0.39088094 -0.36554575 0.84474164
vn 0.4046184 -0.37090623 0.83589023
vn 0.39088094 -0.36554575 0.84474164
vn 0.3112071 -0.49849525 0.8091061
vn 0.39088094 -0.36554575 0.84474164
vn 0.3112071 -0.49849525 0.8091061
vn 0.17260937 -0.69747585 0.6955096
vn 0.17260937 -0.69747585 0.6955096
vn 0.10568955 -0.7623895 0.6384294
g robe_0
f 3/3/3 2/2/2 1/1/1
f 2/2/2 4/4/4 1/1/1
f 1/1/1 4/4/4 5/5/5
f 1/1/1 5/5/5 6/6/6
f 7/7/7 1/1/1 6/6/6
f 7/7/7 8/8/8 1/1/1
f 6/6/6 5/5/5 9/9/9
f 5/5/5 10/10/10 9/9/9
f 10/10/10 11/11/11 9/9/9
f 11/11/11 12/12/12 9/9/9
f 11/11/11 13/13/13 12/12/12
f 14/14/14 13/13/13 11/11/11
f 15/15/15 14/14/14 11/11/11
f 15/15/15 11/11/11 10/10/10
f 16/16/16 14/14/14 15/15/15
f 17/17/17 16/16/16 15/15/15
f 18/18/18 15/15/15 10/10/10
f 17/17/17 15/15/15 18/18/18
f 10/10/10 5/5/5 18/18/18
f 19/19/19 17/17/17 18/18/18
f 5/5/5 20/20/20 18/18/18
f 18/18/18 20/20/20 21/21/21
f 4/4/4 20/20/20 5/5/5
f 20/20/20 22/22/22 21/21/21
f 20/20/20 4/4/4 22/22/22
f 21/21/21 22/22/22 23/23/23
f 4/4/4 24/24/24 22/22/22
f 4/4/4 25/25/25 24/24/24
f 25/25/25 26/26/26 24/24/24
f 24/24/24 26/26/26 27/27/27
f 24/24/24 27/27/27 28/28/28
f 22/22/22 24/24/24 28/28/28
f 28/28/28 29/29/29 22/22/22
f 22/22/22 29/29/29 23/23/23
f 28/28/28 30/30/30 29/29/29
f 30/30/30 31/31/31 29/29/29
f 29/29/29 31/31/31 32/32/32
f 23/23/23 29/29/29 32/32/32
f 32/32/32 33/33/33 23/23/23
f 33/33/33 34/34/34 23/23/23
f 34/34/34 35/35/35 23/23/23
f 35/35/35 36/36/36 23/23/23
f 39/39/39 38/38/38 37/37/37
f 38/38/38 40/40/40 37/37/37
f 38/38/38 41/41/41 40/40/40
f 42/42/42 41/41/41 38/38/38
f 43/43/43 42/42/42 38/38/38
f 44/44/44 43/43/43 38/38/38
f 42/42/42 45/45/45 41/41/41
f 45/45/45 46/46/46 41/41/41
f 47/47/47 46/46/46 45/45/45
f 48/48/48 47/47/47 45/45/45
f 48/48/48 49/49/49 47/47/47
f 47/47/47 49/49/49 50/50/50
f 47/47/47 50/50/50 46/46/46
f 49/49/49 51/51/51 50/50/50
f 41/41/41 46/46/46 52/52/52
f 50/50/50 52/52/52 46/46/46
f 50/50/50 51/51/51 53/53/53
f 50/50/50 53/53/53 52/52/52
f 51/51/51 54/54/54 53/53/53
f 53/53/53 55/55/55 52/52/52
f 56/56/56 41/41/41 52/52/52
f 56/56/56 52/52/52 57/57/57
f 41/41/41 56/56/56 40/40/40
f 58/58/58 56/56/56 57/57/57
f 40/40/40 56/56/56 58/58/58
f 58/58/58 57/57/57 59/59/59
f 60/60/60 40/40/40 58/58/58
f 61/61/61 40/40/40 60/60/60
f 62/62/62 61/61/61 60/60/60
f 62/62/62 60/60/60 63/63/63
f 64/64/64 63/63/63 60/60/60
f 64/64/64 60/60/60 58/58/58
f 58/58/58 65/65/65 64/64/64
f 65/65/65 58/58/58 59/59/59
f 64/64/64 65/65/65 66/66/66
f 65/65/65 67/67/67 66/66/66
f 67/67/67 65/65/65 68/68/68
f 65/65/65 59/59/59 68/68/68
f 69/69/69 68/68/68 59/59/59
f 70/70/70 69/69/69 59/59/59
f 70/70/70 59/59/59 71/71/71
f 72/72/72 70/70/70 71/71/71
f 75/75/75 74/74/74 73/73/73
f 76/76/76 75/75/75 73/73/73
f 79/79/79 78/78/78 77/77/77
f 80/80/80 79/79/79 77/77/77
f 81/81/81 79/79/79 80/80/80
f 82/82/82 81/81/81 80/80/80
f 83/83/83 81/81/81 82/82/82
f 86/86/86 85/85/85 84/84/84
f 87/87/87 86/86/86 84/84/84
f 90/90/90 89/89/89 88/88/88
f 89/89/89 91/91/91 88/88/88
f 89/89/89 92/92/92 91/91/91
f 92/92/92 93/93/93 91/91/91
f 92/92/92 94/94/94 93/93/93
