g rock014
v -0 0 0.14825974
v -0.03192556 0.08780491 0.11012395
v -4.582504E-09 0.10483547 0.10483547
v -0.08189797 0.11226769 0.0028742128
v -6.480639E-09 0.14029355 -5.530995E-09
v -0.07412987 0.07412987 -0.10483547
v -4.582504E-09 0.10483547 -0.10483547
v -0 0 -0.14825974
v -0.10483547 -9.165008E-09 -0.10483547
v -0 0 -0.14825974
v -0.10678443 0.013438819 0.0051971273
v -0.06263116 0.013675033 0.11012395
v -0 0 0.14825974
v -0.074129865 -0.058379695 -0.10483547
v -0 0 -0.14825974
v -0.081897944 -0.0816531 0.0028742137
v -0.031925548 -0.044704657 0.110123955
v -0 0 0.14825974
v 1.2501505E-09 -0.08321588 -0.10483546
v -0 0 -0.14825974
v 1.7679798E-09 -0.12664016 -9.057896E-09
v 1.2501505E-09 -0.08321588 0.10483549
v -0 0 0.14825974
v 0.025590347 -0.07025344 -0.11091781
v -0 0 -0.14825974
v 0.051048193 -0.10265942 -0.0067399153
v 0.074129865 -0.05452567 0.10483547
v -0 0 0.14825974
v 0.056295957 -0.0157278 -0.11091781
v -0 0 -0.14825974
v 0.094472475 -0.017428191 -0.006739914
v 0.10483547 -3.1659432E-08 0.10483547
v -0 0 0.14825974
v 0.025590377 0.058402073 -0.11091781
v -0 0 -0.14825974
v 0.051048253 0.08740728 -0.0067399116
v -4.582504E-09 0.10483547 -0.10483547
v -0 0 -0.14825974
v -6.480639E-09 0.14029355 -5.530995E-09
v 0.07412991 0.07412984 0.10483547
v -0 0 0.14825974
v -4.582504E-09 0.10483547 0.10483547
v -0 0 0.14825974
vt 0.726077 0.8423878
vt 0.6440537 0.7903174
vt 0.65920395 0.8877688
vt 0.5284042 0.79255044
vt 0.51972914 0.8581099
vt 0.41275477 0.79478335
vt 0.46145678 0.9070264
vt 0.25417143 0.8421561
vt 0.41167444 0.69264185
vt 0.2971053 0.7970165
vt 0.52732384 0.69040906
vt 0.64297336 0.6881759
vt 0.75970286 0.78808475
vt 0.4105941 0.5905001
vt 0.29602498 0.69487476
vt 0.52624345 0.58826756
vt 0.641893 0.5860344
vt 0.7586227 0.685943
vt 0.40951377 0.48835862
vt 0.29494458 0.59273326
vt 0.5251631 0.48612583
vt 0.64081264 0.48389292
vt 0.7575422 0.5838015
vt 0.40843344 0.38621724
vt 0.29386425 0.49059153
vt 0.5240828 0.38398433
vt 0.6397323 0.38175118
vt 0.7564619 0.48165977
vt 0.40735304 0.28407574
vt 0.29278386 0.38845038
vt 0.52300245 0.2818426
vt 0.6386519 0.27960968
vt 0.7553815 0.37951803
vt 0.4062727 0.181934
vt 0.29170352 0.28630888
vt 0.5219221 0.17970109
vt 0.3339042 0.117312655
vt 0.26623508 0.16353106
vt 0.4692517 0.14978589
vt 0.6375716 0.1774683
vt 0.75430113 0.27737665
vt 0.52580696 0.09314887
vt 0.726272 0.16413881
vn -0.08784832 -0.06577232 0.99396014
vn -0.47255 0.54636896 0.6915038
vn 0.0954523 0.7984142 0.5944945
vn -0.71492434 0.69491655 0.077292696
vn 0.16164196 0.9861081 -0.038244322
vn -0.6029704 0.52588 -0.5998975
vn 0.21431147 0.7649721 -0.60736173
vn 0.10846677 -0.009671799 -0.99405307
vn -0.84934556 -0.03565052 -0.5266319
vn 0.10846677 -0.009671799 -0.99405307
vn -0.98384696 -0.0046123983 0.17895211
vn -0.77041745 -0.0112139145 0.6374411
vn -0.08784832 -0.06577232 0.99396014
vn -0.6047454 -0.5599344 -0.56635374
vn 0.10846677 -0.009671799 -0.99405307
vn -0.74922836 -0.6512489 0.120547995
vn -0.60152847 -0.4732259 0.64359987
vn -0.08784832 -0.06577232 0.99396014
vn -0.028059738 -0.7929761 -0.6086062
vn 0.10846677 -0.009671799 -0.99405307
vn -0.047884278 -0.9981446 0.03760953
vn -0.08974516 -0.77904266 0.62051463
vn -0.08784832 -0.06577232 0.99396014
vn 0.46742865 -0.59013456 -0.6582185
vn 0.10846677 -0.009671799 -0.99405307
vn 0.6405264 -0.76346916 -0.08270879
vn 0.61075586 -0.575378 0.5439829
vn -0.08784832 -0.06577232 0.99396014
vn 0.80845046 -0.050665956 -0.5863794
vn 0.10846677 -0.009671799 -0.99405307
vn 0.9762631 -0.069799066 -0.2050328
vn 0.8896784 -0.014411774 0.45636
vn -0.08784832 -0.06577232 0.99396014
vn 0.68615854 0.4171115 -0.5959902
vn 0.10846677 -0.009671799 -0.99405307
vn 0.7958509 0.5860236 -0.15230776
vn 0.21431147 0.7649721 -0.60736173
vn 0.10846677 -0.009671799 -0.99405307
vn 0.16164196 0.9861081 -0.038244322
vn 0.68194747 0.54900867 0.4832567
vn -0.08784832 -0.06577232 0.99396014
vn 0.0954523 0.7984142 0.5944945
vn -0.08784832 -0.06577232 0.99396014
g rock014_0
f 3/3/3 2/2/2 1/1/1
f 4/4/4 2/2/2 3/3/3
f 5/5/5 4/4/4 3/3/3
f 6/6/6 4/4/4 5/5/5
f 7/7/7 6/6/6 5/5/5
f 6/6/6 7/7/7 8/8/8
f 6/6/6 9/9/9 4/4/4
f 9/9/9 6/6/6 10/10/10
f 4/4/4 11/11/11 2/2/2
f 9/9/9 11/11/11 4/4/4
f 11/11/11 12/12/12 2/2/2
f 2/2/2 12/12/12 13/13/13
f 9/9/9 14/14/14 11/11/11
f 14/14/14 9/9/9 15/15/15
f 11/11/11 16/16/16 12/12/12
f 14/14/14 16/16/16 11/11/11
f 16/16/16 17/17/17 12/12/12
f 12/12/12 17/17/17 18/18/18
f 14/14/14 19/19/19 16/16/16
f 19/19/19 14/14/14 20/20/20
f 16/16/16 21/21/21 17/17/17
f 19/19/19 21/21/21 16/16/16
f 21/21/21 22/22/22 17/17/17
f 17/17/17 22/22/22 23/23/23
f 19/19/19 24/24/24 21/21/21
f 24/24/24 19/19/19 25/25/25
f 21/21/21 26/26/26 22/22/22
f 24/24/24 26/26/26 21/21/21
f 26/26/26 27/27/27 22/22/22
f 22/22/22 27/27/27 28/28/28
f 24/24/24 29/29/29 26/26/26
f 29/29/29 24/24/24 30/30/30
f 26/26/26 31/31/31 27/27/27
f 29/29/29 31/31/31 26/26/26
f 31/31/31 32/32/32 27/27/27
f 27/27/27 32/32/32 33/33/33
f 29/29/29 34/34/34 31/31/31
f 34/34/34 29/29/29 35/35/35
f 31/31/31 36/36/36 32/32/32
f 34/34/34 36/36/36 31/31/31
f 34/34/34 37/37/37 36/36/36
f 37/37/37 34/34/34 38/38/38
f 37/37/37 39/39/39 36/36/36
f 36/36/36 40/40/40 32/32/32
f 36/36/36 39/39/39 40/40/40
f 32/32/32 40/40/40 41/41/41
f 39/39/39 42/42/42 40/40/40
f 40/40/40 42/42/42 43/43/43
