g rock7
v -0 0 0.14825974
v -0.07412987 0.07412987 0.10483547
v -4.582504E-09 0.10483547 0.10483547
v -0.10483547 0.10483547 -6.480639E-09
v -6.480639E-09 0.14029355 -5.530995E-09
v -0.07412987 0.07412987 -0.10483547
v -4.582504E-09 0.10483547 -0.10483547
v -0 0 -0.14825974
v -0.10483547 -9.165008E-09 -0.10483547
v -0 0 -0.14825974
v -0.14825974 -1.2961278E-08 -6.480639E-09
v -0.10483547 -9.165008E-09 0.10483547
v -0 0 0.14825974
v -0.074129865 -0.058379695 -0.10483547
v -0 0 -0.14825974
v -0.10483545 -0.089085296 -8.358208E-09
v -0.074129865 -0.058379695 0.10483547
v -0 0 0.14825974
v 1.2501505E-09 -0.08321588 -0.10483546
v -0 0 -0.14825974
v 1.7679798E-09 -0.12664016 -9.057896E-09
v 1.2501505E-09 -0.08321588 0.10483549
v -0 0 0.14825974
v 0.074129865 -0.05452567 -0.10483547
v -0 0 -0.14825974
v 0.10483546 -0.08523127 -8.817644E-09
v 0.074129865 -0.05452567 0.10483547
v -0 0 0.14825974
v 0.10483547 -3.1659432E-08 -0.10483547
v -0 0 -0.14825974
v 0.14825974 -4.47732E-08 -6.480639E-09
v 0.10483547 -3.1659432E-08 0.10483547
v -0 0 0.14825974
v 0.07412991 0.07412984 -0.10483547
v -0 0 -0.14825974
v 0.10483552 0.10483542 -6.480639E-09
v -4.582504E-09 0.10483547 -0.10483547
v -0 0 -0.14825974
v -6.480639E-09 0.14029355 -5.530995E-09
v 0.07412991 0.07412984 0.10483547
v -0 0 0.14825974
v -4.582504E-09 0.10483547 0.10483547
v -0 0 0.14825974
vt 0.726077 0.8423878
vt 0.6440537 0.7903174
vt 0.65920395 0.8877688
vt 0.5284042 0.79255044
vt 0.51972914 0.8581099
vt 0.41275477 0.79478335
vt 0.46145678 0.9070264
vt 0.25417143 0.8421561
vt 0.41167444 0.69264185
vt 0.2971053 0.7970165
vt 0.52732384 0.69040906
vt 0.64297336 0.6881759
vt 0.75970286 0.78808475
vt 0.4105941 0.5905001
vt 0.29602498 0.69487476
vt 0.52624345 0.58826756
vt 0.641893 0.5860344
vt 0.7586227 0.685943
vt 0.40951377 0.48835862
vt 0.29494458 0.59273326
vt 0.5251631 0.48612583
vt 0.64081264 0.48389292
vt 0.7575422 0.5838015
vt 0.40843344 0.38621724
vt 0.29386425 0.49059153
vt 0.5240828 0.38398433
vt 0.6397323 0.38175118
vt 0.7564619 0.48165977
vt 0.40735304 0.28407574
vt 0.29278386 0.38845038
vt 0.52300245 0.2818426
vt 0.6386519 0.27960968
vt 0.7553815 0.37951803
vt 0.4062727 0.181934
vt 0.29170352 0.28630888
vt 0.5219221 0.17970109
vt 0.3339042 0.117312655
vt 0.26623508 0.16353106
vt 0.4692517 0.14978589
vt 0.6375716 0.1774683
vt 0.75430113 0.27737665
vt 0.52580696 0.09314887
vt 0.726272 0.16413881
vn 0.0021795987 -0.042381436 0.99909914
vn -0.52344495 0.5411888 0.65811867
vn -0 0.76306653 0.64631987
vn -0.69413316 0.7198466 0
vn -0 1 0
vn -0.52344495 0.5411888 -0.6581187
vn -0 0.7630666 -0.6463198
vn 0.002179587 -0.042381503 -0.99909914
vn -0.7505954 -0.03008676 -0.66007686
vn 0.002179587 -0.042381503 -0.99909914
vn -0.9994506 -0.033141293 0
vn -0.75059545 -0.030086769 0.6600768
vn 0.0021795987 -0.042381436 0.99909914
vn -0.50077623 -0.5714101 -0.6501643
vn 0.002179587 -0.042381503 -0.99909914
vn -0.6637461 -0.7479579 0
vn -0.5007763 -0.57141006 0.65016425
vn 0.0021795987 -0.042381436 0.99909914
vn 0.015699623 -0.769738 -0.6381668
vn 0.002179587 -0.042381503 -0.99909914
vn 0.017403957 -0.9998485 0
vn 0.015699612 -0.769738 0.63816684
vn 0.0021795987 -0.042381436 0.99909914
vn 0.507004 -0.56742114 -0.64882976
vn 0.002179587 -0.042381503 -0.99909914
vn 0.66891575 -0.7433382 0
vn 0.507004 -0.5674212 0.64882976
vn 0.0021795987 -0.042381436 0.99909914
vn 0.7510615 -0.039304696 -0.6590613
vn 0.002179587 -0.042381503 -0.99909914
vn 0.99907506 -0.04300037 0
vn 0.7510615 -0.039304685 0.65906125
vn 0.0021795987 -0.042381436 0.99909914
vn 0.52344507 0.54118866 -0.6581186
vn 0.002179587 -0.042381503 -0.99909914
vn 0.69413346 0.71984637 0
vn -0 0.7630666 -0.6463198
vn 0.002179587 -0.042381503 -0.99909914
vn -0 1 0
vn 0.523445 0.54118866 0.6581186
vn 0.0021795987 -0.042381436 0.99909914
vn -0 0.76306653 0.64631987
vn 0.0021795987 -0.042381436 0.99909914
g rock7_0
f 3/3/3 2/2/2 1/1/1
f 4/4/4 2/2/2 3/3/3
f 5/5/5 4/4/4 3/3/3
f 6/6/6 4/4/4 5/5/5
f 7/7/7 6/6/6 5/5/5
f 6/6/6 7/7/7 8/8/8
f 6/6/6 9/9/9 4/4/4
f 9/9/9 6/6/6 10/10/10
f 4/4/4 11/11/11 2/2/2
f 9/9/9 11/11/11 4/4/4
f 11/11/11 12/12/12 2/2/2
f 2/2/2 12/12/12 13/13/13
f 9/9/9 14/14/14 11/11/11
f 14/14/14 9/9/9 15/15/15
f 11/11/11 16/16/16 12/12/12
f 14/14/14 16/16/16 11/11/11
f 16/16/16 17/17/17 12/12/12
f 12/12/12 17/17/17 18/18/18
f 14/14/14 19/19/19 16/16/16
f 19/19/19 14/14/14 20/20/20
f 16/16/16 21/21/21 17/17/17
f 19/19/19 21/21/21 16/16/16
f 21/21/21 22/22/22 17/17/17
f 17/17/17 22/22/22 23/23/23
f 19/19/19 24/24/24 21/21/21
f 24/24/24 19/19/19 25/25/25
f 21/21/21 26/26/26 22/22/22
f 24/24/24 26/26/26 21/21/21
f 26/26/26 27/27/27 22/22/22
f 22/22/22 27/27/27 28/28/28
f 24/24/24 29/29/29 26/26/26
f 29/29/29 24/24/24 30/30/30
f 26/26/26 31/31/31 27/27/27
f 29/29/29 31/31/31 26/26/26
f 31/31/31 32/32/32 27/27/27
f 27/27/27 32/32/32 33/33/33
f 29/29/29 34/34/34 31/31/31
f 34/34/34 29/29/29 35/35/35
f 31/31/31 36/36/36 32/32/32
f 34/34/34 36/36/36 31/31/31
f 34/34/34 37/37/37 36/36/36
f 37/37/37 34/34/34 38/38/38
f 37/37/37 39/39/39 36/36/36
f 36/36/36 40/40/40 32/32/32
f 36/36/36 39/39/39 40/40/40
f 32/32/32 40/40/40 41/41/41
f 39/39/39 42/42/42 40/40/40
f 40/40/40 42/42/42 43/43/43
