g Rock_A15
v 0.52819335 -0.57944334 -0.021343498
v 0.47883543 -0.63336426 -0.27582023
v 0.4756665 -0.63617676 0.26687652
v 0.5307397 -0.5720166 0.3242259
v 0.4458911 -0.63631344 0.7231156
v 0.52809083 -0.5930176 0.65353316
v 0.51936036 -0.46967772 0.8540296
v 0.42720947 -0.51973146 0.90171075
v 0.4458911 -0.63631344 0.7231156
v 0.24737549 -0.6001806 0.90380424
v 0.42720947 -0.51973146 0.90171075
v 0.2605493 -0.6379199 0.86289084
v 0.08840088 -0.6366992 0.837551
v 0.15146972 -0.63625973 0.4748281
v 0.4756665 -0.63617676 0.26687652
v -0.19033203 -0.6366504 0.6595042
v -0.2356543 -0.624082 0.8372698
v -0.38274658 -0.61312985 0.74237293
v -0.41742432 -0.63629884 0.5180509
v -0.16983399 -0.63624024 0.2750582
v -0.42550048 -0.6361523 0.07184502
v 0.24841551 -0.63623047 0.2005123
v 0.1746167 -0.63623047 -0.119212374
v 0.47883543 -0.63336426 -0.27582023
v -0.21938965 -0.63623047 -0.26734406
v -0.42637938 -0.635957 -0.4080027
v 0.20431152 -0.63623047 -0.4360156
v 0.4651367 -0.635332 -0.68783575
v 0.05457031 -0.63623047 -0.6819435
v -0.42645264 -0.6363281 -0.90292454
v 0.36164793 -0.62556636 -0.90381444
v 0.08840088 -0.6366992 0.837551
v 0.01706787 -0.5508154 0.90530354
v 0.24737549 -0.6001806 0.90380424
v -0.2356543 -0.624082 0.8372698
v -0.24355468 -0.5359765 0.90515876
v -0.38274658 -0.61312985 0.74237293
v -0.47418457 -0.3302246 0.9051583
v -0.53033936 -0.46622556 0.74713445
v -0.41742432 -0.63629884 0.5180509
v -0.5311035 -0.23198241 0.8362044
v -0.46601072 0.21374512 0.89658636
v -0.5301855 0.30055663 0.8282853
v -0.3621411 0.29311034 0.9062163
v -0.5192285 0.46404785 0.7983707
v -0.3591919 0.6345068 0.8114022
v -0.45052245 -0.1389746 0.9015087
v -0.5311035 -0.23198241 0.8362044
v -0.47418457 -0.3302246 0.9051583
v -0.2500244 -0.3338623 0.9062714
v -0.24355468 -0.5359765 0.90515876
v 0.01706787 -0.5508154 0.90530354
v -0.09716308 -0.059755858 0.9061809
v 0.09682861 0.29593748 0.90572804
v -0.17566405 0.5516504 0.9056139
v -0.2490039 0.6341992 0.8614135
v 0.07506592 0.6376904 0.79971045
v 0.11823486 0.58111817 0.8441054
v 0.12582275 -0.17340332 0.90601707
v 0.24737549 -0.6001806 0.90380424
v 0.0056835935 0.44740233 0.90234154
v 0.24753173 0.5645654 0.7855712
v 0.31012696 -0.28129882 0.90510017
v 0.42720947 -0.51973146 0.90171075
v 0.31471923 0.11330078 0.9059624
v 0.471145 -0.22472656 0.9023076
v 0.51936036 -0.46967772 0.8540296
v 0.53046143 0.059003904 0.83082324
v 0.46038085 0.057734374 0.90557194
v 0.49569824 0.1921289 0.8007277
v 0.3749585 0.17428711 0.8617562
v 0.32429442 0.43938965 0.7933437
v 0.50550294 0.35393554 0.7441083
v 0.31092528 0.5685205 0.70033234
v 0.41790527 0.4798584 0.70092404
v 0.32429442 0.43938965 0.7933437
v 0.49569824 0.1921289 0.8007277
v 0.53046143 0.059003904 0.83082324
v 0.52809083 -0.5930176 0.65353316
v 0.51936036 -0.46967772 0.8540296
v 0.5307397 -0.5720166 0.3242259
v 0.5310034 -0.17510253 0.46704307
v 0.53046143 0.059003904 0.83082324
v 0.53124756 0.2080664 0.6843895
v 0.50550294 0.35393554 0.7441083
v 0.41790527 0.4798584 0.70092404
v 0.53108156 -0.07571777 0.021900138
v 0.53082275 0.25251952 0.30440688
v 0.52633786 0.37643555 0.52699465
v 0.4633569 0.58931637 0.4597482
v 0.31092528 0.5685205 0.70033234
v 0.46464354 0.53473145 0.18215026
v 0.24312012 0.63549316 0.6941229
v 0.24753173 0.5645654 0.7855712
v 0.11823486 0.58111817 0.8441054
v 0.07506592 0.6376904 0.79971045
v 0.5315234 0.40112793 0.032594565
v 0.45920897 0.5096289 -0.118438795
v 0.52819335 -0.57944334 -0.021343498
v 0.4756665 -0.63617676 0.26687652
v 0.5047119 0.388584 -0.37613425
v 0.53105223 0.2181787 -0.30676192
v 0.53107667 -0.17394531 -0.25650764
v 0.45468506 0.4907373 -0.44997305
v 0.22545898 0.6363281 -0.15669265
v 0.26092774 0.637915 -0.6099205
v 0.53195554 0.12694824 -0.62491745
v 0.53112304 -0.47986814 -0.5442909
v 0.47883543 -0.63336426 -0.27582023
v 0.4651367 -0.635332 -0.68783575
v 0.49932373 0.4179199 -0.9024485
v 0.44470704 0.5015478 -0.7632267
v 0.31709716 0.58736324 -0.8876722
v 0.10736572 0.6369678 -0.9032117
v 0.5321167 0.051401366 -0.9056983
v 0.53107667 -0.25816405 -0.6249763
v 0.5271362 -0.3964795 -0.8955994
v 0.42884764 -0.61132324 -0.7781995
v 0.36164793 -0.62556636 -0.90381444
v -0.5312622 0.6372754 -0.90117496
v -0.33951417 0.6376172 -0.89969945
v -0.53102297 0.63753414 -0.42139265
v -0.15403076 0.6376172 -0.6902041
v 0.10736572 0.6369678 -0.9032117
v -0.07299072 0.6376172 -0.46357566
v 0.26092774 0.637915 -0.6099205
v -0.36505127 0.6376172 -0.22764067
v -0.5312061 0.63716793 0.004645233
v -0.07759033 0.6376172 -0.17370231
v 0.22545898 0.6363281 -0.15669265
v -0.2206494 0.63768065 0.28781775
v -0.5312158 0.6374414 0.34235817
v 0.20551758 0.63788575 0.15068756
v -0.088483885 0.6375879 0.59892476
v -0.4109033 0.63677734 0.7043351
v -0.5300708 0.6191064 0.5700856
v -0.3591919 0.6345068 0.8114022
v -0.2490039 0.6341992 0.8614135
v 0.07506592 0.6376904 0.79971045
v 0.24312012 0.63549316 0.6941229
v 0.2792163 0.63624996 0.47303236
v 0.4633569 0.58931637 0.4597482
v 0.46464354 0.53473145 0.18215026
v 0.45920897 0.5096289 -0.118438795
v -0.3591919 0.6345068 0.8114022
v -0.5192285 0.46404785 0.7983707
v -0.5300708 0.6191064 0.5700856
v -0.5301855 0.30055663 0.8282853
v -0.53130615 0.22040527 0.5151491
v -0.5311035 -0.23198241 0.8362044
v -0.5312158 0.6374414 0.34235817
v -0.5312402 -0.07816406 0.36827263
v -0.53033936 -0.46622556 0.74713445
v -0.5312744 0.193042 0.07729583
v -0.5312061 0.63716793 0.004645233
v -0.5312744 0.27577147 -0.31946716
v -0.53102297 0.63753414 -0.42139265
v -0.5292407 -0.5004297 0.51783514
v -0.41742432 -0.63629884 0.5180509
v -0.5312744 -0.05057617 -0.19409545
v -0.53127193 0.41424805 -0.6747251
v -0.5312622 0.6372754 -0.90117496
v -0.53127193 0.14935058 -0.9062714
v -0.53127193 0.07870117 -0.52883804
v -0.49867675 -0.5338135 0.1765885
v -0.42550048 -0.6361523 0.07184502
v -0.5315405 -0.36479002 0.113997266
v -0.49270996 -0.5378027 -0.24069725
v -0.42637938 -0.635957 -0.4080027
v -0.5316626 -0.32497558 -0.32048386
v -0.53207517 -0.31238282 -0.6574047
v -0.5321167 -0.51001954 -0.9018302
v -0.48723876 -0.541792 -0.6068176
v -0.42645264 -0.6363281 -0.90292454
vt 0.9693769 0.8975853
vt 0.9778941 0.9145759
vt 0.9704249 0.87604564
vt 0.963668 0.8731294
vt 0.9640674 0.84348774
vt 0.9595493 0.85000294
vt 0.9486236 0.8373593
vt 0.9544178 0.83131385
vt 0.6765686 0.8593351
vt 0.6923922 0.84751785
vt 0.6786221 0.8440282
vt 0.6911641 0.85136867
vt 0.7030221 0.8545678
vt 0.69461817 0.87999254
vt 0.6698111 0.8921804
vt 0.7202576 0.8702181
vt 0.7259112 0.85849
vt 0.73454726 0.8666627
vt 0.7341787 0.8822598
vt 0.7154078 0.89722985
vt 0.73208904 0.91361684
vt 0.6853262 0.8988362
vt 0.68813914 0.9223825
vt 0.66542566 0.9313234
vt 0.7152162 0.9360942
vt 0.7293174 0.9476873
vt 0.6838925 0.9448677
vt 0.6636729 0.9610439
vt 0.6930024 0.9636201
vt 0.72590387 0.9828731
vt 0.669636 0.97729146
vt 0.7030221 0.8545678
vt 0.71005094 0.84758484
vt 0.6923922 0.84751785
vt 0.7259112 0.85849
vt 0.7299961 0.85131514
vt 0.73454726 0.8666627
vt 0.7544137 0.852707
vt 0.7487602 0.86665434
vt 0.7341787 0.8822598
vt 0.7650678 0.85911155
vt 0.80086774 0.8529276
vt 0.80288184 0.86349803
vt 0.8121275 0.85199696
vt 0.81180906 0.8698242
vt 0.8259207 0.8698738
vt 0.7952099 0.82669526
vt 0.7859851 0.8232793
vt 0.7887889 0.81442064
vt 0.8034915 0.8081232
vt 0.79837036 0.79456145
vt 0.8150919 0.786253
vt 0.82130605 0.82174486
vt 0.84525836 0.83911115
vt 0.8338848 0.86029166
vt 0.8312748 0.8663149
vt 0.8537554 0.8628511
vt 0.8552673 0.857596
vt 0.8330687 0.80781543
vt 0.82905215 0.77627975
vt 0.8441395 0.8505911
vt 0.8659329 0.8558903
vt 0.84214467 0.79543275
vt 0.8435423 0.7764156
vt 0.8539401 0.8211462
vt 0.8543588 0.7947646
vt 0.85224164 0.7767885
vt 0.8680685 0.8113636
vt 0.8613909 0.8133895
vt 0.8703788 0.8217607
vt 0.8606811 0.82386655
vt 0.8661654 0.8433408
vt 0.89176166 0.857492
vt 0.87244725 0.86399215
vt 0.8828548 0.86311316
vt 0.87792385 0.8521835
vt 0.90016973 0.8489248
vt 0.91073143 0.8455636
vt 0.9595493 0.85000294
vt 0.9486236 0.8373593
vt 0.963668 0.8731294
vt 0.93367535 0.8684094
vt 0.91073143 0.8455636
vt 0.90354043 0.8588827
vt 0.89176166 0.857492
vt 0.8828548 0.86311316
vt 0.9338719 0.90184635
vt 0.90735894 0.88672787
vt 0.8961116 0.8730658
vt 0.8836862 0.88132757
vt 0.87244725 0.86399215
vt 0.8899534 0.9000476
vt 0.8667478 0.8662336
vt 0.8659329 0.8558903
vt 0.8552673 0.857596
vt 0.8537554 0.8628511
vt 0.9010878 0.9083523
vt 0.8942446 0.9210736
vt 0.9693769 0.8975853
vt 0.9704249 0.87604564
vt 0.9064669 0.9372939
vt 0.9178425 0.9296122
vt 0.94442606 0.9202949
vt 0.8990985 0.94451344
vt 0.8763936 0.9277396
vt 0.8833413 0.9595467
vt 0.9283539 0.95081705
vt 0.9699814 0.9358513
vt 0.9778941 0.9145759
vt 0.98370916 0.94372815
vt 0.91109186 0.9749219
vt 0.90166694 0.966909
vt 0.892015 0.9781301
vt 0.8745485 0.9822496
vt 0.9377238 0.9693498
vt 0.95545185 0.9449706
vt 0.96917933 0.9617493
vt 0.9846054 0.95086974
vt 0.98932636 0.95994455
vt 0.8236867 0.987161
vt 0.84031576 0.9861677
vt 0.8238023 0.9530389
vt 0.85299253 0.9697106
vt 0.8745485 0.9822496
vt 0.8574691 0.95297694
vt 0.8833413 0.9595467
vt 0.8350645 0.93840075
vt 0.8221794 0.9233005
vt 0.8553633 0.9326467
vt 0.8763936 0.9277396
vt 0.8422235 0.90210384
vt 0.821448 0.90122104
vt 0.8723454 0.90654486
vt 0.84694284 0.8796011
vt 0.8250741 0.87588304
vt 0.82130766 0.88686883
vt 0.8259207 0.8698738
vt 0.8312748 0.8663149
vt 0.8537554 0.8628511
vt 0.8667478 0.8662336
vt 0.87208843 0.8824716
vt 0.8836862 0.88132757
vt 0.8899534 0.9000476
vt 0.8942446 0.9210736
vt 0.8259207 0.8698738
vt 0.81180906 0.8698242
vt 0.82130766 0.88686883
vt 0.80288184 0.86349803
vt 0.7943321 0.88569915
vt 0.7650678 0.85911155
vt 0.821448 0.90122104
vt 0.7740057 0.8949175
vt 0.7487602 0.86665434
vt 0.7907109 0.9174149
vt 0.8221794 0.9233005
vt 0.7968888 0.945758
vt 0.8238023 0.9530389
vt 0.74561363 0.88277364
vt 0.7341787 0.8822598
vt 0.773543 0.9358008
vt 0.8068444 0.9709547
vt 0.8236867 0.987161
vt 0.78679645 0.9869471
vt 0.78230166 0.95993966
vt 0.74157214 0.9069879
vt 0.73208904 0.91361684
vt 0.753235 0.9122168
vt 0.7387126 0.9365854
vt 0.7293174 0.9476873
vt 0.753692 0.94360656
vt 0.75359684 0.96772224
vt 0.7384221 0.9844037
vt 0.7364393 0.9628177
vt 0.72590387 0.9828731
vn 0.9299015 -0.3677582 -0.0060849856
vn 0.5304555 -0.8468783 -0.037605222
vn 0.41677532 -0.9089459 0.010753482
vn 0.9320155 -0.361956 0.018305821
vn 0.374884 -0.8947139 0.24279423
vn 0.8489377 -0.5223618 0.08026809
vn 0.83005965 -0.24053502 0.5031341
vn 0.35343817 -0.3970895 0.8469954
vn 0.374884 -0.8947139 0.24279423
vn 0.09040749 -0.46402693 0.88119555
vn 0.35343817 -0.3970895 0.8469954
vn 0.1831453 -0.8739847 0.4501205
vn -0.056426402 -0.9210636 0.38530248
vn 0.00033647625 -0.99999976 -0.00059855956
vn 0.41677532 -0.9089459 0.010753482
vn -0.033749722 -0.99880064 0.0354725
vn -0.2009584 -0.84812874 0.49019724
vn -0.4304651 -0.8290478 0.35690272
vn -0.43638676 -0.89812744 0.054163814
vn -6.300676E-05 -1 -0.00039596274
vn -0.46053445 -0.8876418 0.00019055605
vn 0.00015294089 -1 -4.3748834E-05
vn 0.0030928194 -0.99999475 -0.000993219
vn 0.5304555 -0.8468783 -0.037605222
vn -0.0005307026 -0.9999999 -0.00025577468
vn -0.47361463 -0.88072944 -0.0021966086
vn 0.003865778 -0.99999225 0.0008155764
vn 0.57919586 -0.8050858 -0.12794156
vn 0.0049365 -0.99988544 -0.014309428
vn -0.43319753 -0.90115386 0.016176261
vn 0.35345715 -0.9162087 -0.18875821
vn -0.056426402 -0.9210636 0.38530248
vn -0.028242141 -0.32964525 0.9436824
vn 0.09040749 -0.46402693 0.88119555
vn -0.2009584 -0.84812874 0.49019724
vn -0.19829226 -0.37564132 0.9053032
vn -0.4304651 -0.8290478 0.35690272
vn -0.5025236 -0.17581181 0.84649885
vn -0.8633592 -0.39400384 0.31523284
vn -0.43638676 -0.89812744 0.054163814
vn -0.9203662 -0.007078783 0.39099357
vn -0.4314421 0.11412337 0.8948931
vn -0.84815216 0.12619929 0.5145014
vn -0.18486722 0.12796856 0.9743963
vn -0.7715254 0.28694028 0.56781495
vn -0.3283613 0.7784992 0.5348999
vn -0.3320404 0.0097885635 0.94321436
vn -0.9203662 -0.007078783 0.39099357
vn -0.5025236 -0.17581181 0.84649885
vn -0.0044005946 0.0016573331 0.99998903
vn -0.19829226 -0.37564132 0.9053032
vn -0.028242141 -0.32964525 0.9436824
vn -0.0033525873 -0.00048456326 0.9999943
vn 0.14156598 0.12328869 0.9822214
vn -0.040166873 0.30451503 0.9516602
vn -0.18146415 0.7369971 0.6510806
vn 0.12915647 0.9023386 0.41122216
vn 0.3271808 0.44358513 0.83437705
vn 0.0017427497 -0.001744651 0.999997
vn 0.09040749 -0.46402693 0.88119555
vn 0.17636295 0.15381719 0.97223264
vn 0.45013204 0.52523607 0.72215533
vn 0.010112183 -0.005128256 0.99993575
vn 0.35343817 -0.3970895 0.8469954
vn 0.114255905 0.18384878 0.9762915
vn 0.41621545 -0.0020972092 0.9092636
vn 0.83005965 -0.24053502 0.5031341
vn 0.90768474 0.11091905 0.40472886
vn 0.3994997 0.19742216 0.89522314
vn 0.39154944 0.3369486 0.8562445
vn 0.29774356 0.3905793 0.8710893
vn 0.33922902 0.27609447 0.899275
vn 0.8572254 0.44404542 0.26074556
vn 0.59414834 0.65687954 0.4642166
vn 0.6692181 0.5571709 0.49163768
vn 0.33922902 0.27609447 0.899275
vn 0.39154944 0.3369486 0.8562445
vn 0.90768474 0.11091905 0.40472886
vn 0.8489377 -0.5223618 0.08026809
vn 0.83005965 -0.24053502 0.5031341
vn 0.9320155 -0.361956 0.018305821
vn 0.9999527 -0.0060269297 0.007639991
vn 0.90768474 0.11091905 0.40472886
vn 0.9921445 0.111938715 0.055847656
vn 0.8572254 0.44404542 0.26074556
vn 0.6692181 0.5571709 0.49163768
vn 0.99999833 -0.0018084267 -0.00020591896
vn 0.99678 0.08015949 -0.002036449
vn 0.9649887 0.2297654 0.12650967
vn 0.6871199 0.72433805 0.056574937
vn 0.59414834 0.65687954 0.4642166
vn 0.738352 0.6737645 -0.029627686
vn 0.32233956 0.901396 0.28910652
vn 0.45013204 0.52523607 0.72215533
vn 0.3271808 0.44358513 0.83437705
vn 0.12915647 0.9023386 0.41122216
vn 0.96520996 0.26144162 0.004240651
vn 0.7092249 0.70154256 -0.06955663
vn 0.9299015 -0.3677582 -0.0060849856
vn 0.41677532 -0.9089459 0.010753482
vn 0.9589131 0.28171733 -0.03348293
vn 0.99782157 0.061365195 -0.024214108
vn 0.99999535 -0.0024372125 0.0018205452
vn 0.7576194 0.65268236 0.0043168375
vn 0.24908358 0.96840847 -0.011931538
vn 0.31831476 0.9479442 -0.008794545
vn 0.9986029 0.0523163 -0.007426178
vn 0.9818897 -0.18717 -0.029323561
vn 0.5304555 -0.8468783 -0.037605222
vn 0.57919586 -0.8050858 -0.12794156
vn 0.9164923 0.3952347 -0.06189927
vn 0.71279764 0.6995453 -0.0505562
vn 0.46376905 0.8793616 -0.10789547
vn 0.08029839 0.9957957 -0.044080466
vn 0.99935824 0.033953544 -0.011409832
vn 0.999982 -0.0040542437 -0.0044327853
vn 0.9697454 -0.21207774 -0.12090104
vn 0.79434216 -0.44506332 -0.4134479
vn 0.35345715 -0.9162087 -0.18875821
vn -0.7119237 0.70225674 -0.00021214415
vn -0.0003315215 0.9999999 -0.0005080536
vn -0.7068553 0.7073582 8.996039E-05
vn 0.0008877134 0.9999995 -0.00049620686
vn 0.08029839 0.9957957 -0.044080466
vn -0.0003470332 0.9999999 -0.00037009438
vn 0.31831476 0.9479442 -0.008794545
vn -0.00058771076 0.99999964 0.0007277177
vn -0.7076058 0.7066074 -2.146004E-05
vn 0.00081058027 0.99999964 8.5286665E-06
vn 0.24908358 0.96840847 -0.011931538
vn -0.0008614746 0.99999964 0.0003096719
vn -0.70700765 0.7071666 0.0074478816
vn 0.17361256 0.98474634 -0.011545369
vn -0.0004900288 0.99999344 0.0035943144
vn -0.17553708 0.9797102 0.096718885
vn -0.78079414 0.6115269 0.12804382
vn -0.3283613 0.7784992 0.5348999
vn -0.18146415 0.7369971 0.6510806
vn 0.12915647 0.9023386 0.41122216
vn 0.32233956 0.901396 0.28910652
vn 0.15859956 0.98706585 -0.023392566
vn 0.6871199 0.72433805 0.056574937
vn 0.738352 0.6737645 -0.029627686
vn 0.7092249 0.70154256 -0.06955663
vn -0.3283613 0.7784992 0.5348999
vn -0.7715254 0.28694028 0.56781495
vn -0.78079414 0.6115269 0.12804382
vn -0.84815216 0.12619929 0.5145014
vn -0.9999982 0.0009987379 0.0015884705
vn -0.9203662 -0.007078783 0.39099357
vn -0.70700765 0.7071666 0.0074478816
vn -0.9999993 -0.0011554058 0.0005225622
vn -0.8633592 -0.39400384 0.31523284
vn -1 3.356088E-05 -2.4330266E-06
vn -0.7076058 0.7066074 -2.146004E-05
vn -1 0.0002317215 -2.2631566E-05
vn -0.7068553 0.7073582 8.996039E-05
vn -0.9346832 -0.35497463 0.018981827
vn -0.43638676 -0.89812744 0.054163814
vn -0.99999976 0.0006305081 0.00020429562
vn -1 0.00028403074 0.00017479934
vn -0.7119237 0.70225674 -0.00021214415
vn -0.99999976 0.00075562 -3.635626E-05
vn -0.99999964 0.00078679743 0.00029509052
vn -0.9087724 -0.41686377 -0.018903788
vn -0.46053445 -0.8876418 0.00019055605
vn -0.99557745 -0.09304585 -0.012962044
vn -0.9240872 -0.38209873 -0.007965532
vn -0.47361463 -0.88072944 -0.0021966086
vn -0.99577266 -0.09166304 -0.005896218
vn -0.9973907 -0.06869065 0.022213606
vn -0.9353983 -0.3488097 0.05798205
vn -0.9211153 -0.38832438 0.027399043
vn -0.43319753 -0.90115386 0.016176261
g Rock_A15_0
f 3/3/3 2/2/2 1/1/1
f 5/5/5 3/3/3 4/4/4
f 5/5/5 4/4/4 6/6/6
f 5/5/5 6/6/6 7/7/7
f 5/5/5 7/7/7 8/8/8
f 11/11/11 10/10/10 9/9/9
f 10/10/10 12/12/12 9/9/9
f 10/10/10 13/13/13 12/12/12
f 12/12/12 13/13/13 9/9/9
f 13/13/13 14/14/14 9/9/9
f 14/14/14 15/15/15 9/9/9
f 16/16/16 14/14/14 13/13/13
f 16/16/16 13/13/13 17/17/17
f 16/16/16 17/17/17 18/18/18
f 19/19/19 16/16/16 18/18/18
f 20/20/20 16/16/16 19/19/19
f 14/14/14 16/16/16 20/20/20
f 21/21/21 20/20/20 19/19/19
f 22/22/22 15/15/15 14/14/14
f 20/20/20 22/22/22 14/14/14
f 23/23/23 15/15/15 22/22/22
f 20/20/20 23/23/23 22/22/22
f 15/15/15 23/23/23 24/24/24
f 21/21/21 25/25/25 20/20/20
f 25/25/25 23/23/23 20/20/20
f 25/25/25 21/21/21 26/26/26
f 23/23/23 27/27/27 24/24/24
f 27/27/27 23/23/23 25/25/25
f 27/27/27 28/28/28 24/24/24
f 29/29/29 25/25/25 26/26/26
f 29/29/29 27/27/27 25/25/25
f 27/27/27 29/29/29 28/28/28
f 29/29/29 26/26/26 30/30/30
f 28/28/28 29/29/29 31/31/31
f 29/29/29 30/30/30 31/31/31
f 34/34/34 33/33/33 32/32/32
f 35/35/35 32/32/32 33/33/33
f 33/33/33 36/36/36 35/35/35
f 35/35/35 36/36/36 37/37/37
f 36/36/36 38/38/38 37/37/37
f 39/39/39 37/37/37 38/38/38
f 40/40/40 37/37/37 39/39/39
f 41/41/41 39/39/39 38/38/38
f 43/43/43 41/41/41 42/42/42
f 42/42/42 44/44/44 43/43/43
f 43/43/43 44/44/44 45/45/45
f 44/44/44 46/46/46 45/45/45
f 47/47/47 44/44/44 42/42/42
f 48/48/48 47/47/47 42/42/42
f 49/49/49 47/47/47 48/48/48
f 50/50/50 47/47/47 49/49/49
f 51/51/51 50/50/50 49/49/49
f 51/51/51 52/52/52 50/50/50
f 53/53/53 47/47/47 50/50/50
f 52/52/52 53/53/53 50/50/50
f 53/53/53 44/44/44 47/47/47
f 53/53/53 54/54/54 44/44/44
f 44/44/44 54/54/54 55/55/55
f 44/44/44 55/55/55 46/46/46
f 46/46/46 55/55/55 56/56/56
f 55/55/55 57/57/57 56/56/56
f 57/57/57 55/55/55 58/58/58
f 52/52/52 59/59/59 53/53/53
f 53/53/53 59/59/59 54/54/54
f 59/59/59 52/52/52 60/60/60
f 55/55/55 61/61/61 58/58/58
f 55/55/55 54/54/54 61/61/61
f 61/61/61 62/62/62 58/58/58
f 61/61/61 54/54/54 62/62/62
f 59/59/59 60/60/60 63/63/63
f 64/64/64 63/63/63 60/60/60
f 54/54/54 59/59/59 65/65/65
f 65/65/65 59/59/59 63/63/63
f 66/66/66 63/63/63 64/64/64
f 66/66/66 64/64/64 67/67/67
f 68/68/68 66/66/66 67/67/67
f 69/69/69 63/63/63 66/66/66
f 68/68/68 69/69/69 66/66/66
f 69/69/69 65/65/65 63/63/63
f 69/69/69 68/68/68 70/70/70
f 65/65/65 69/69/69 71/71/71
f 71/71/71 69/69/69 70/70/70
f 54/54/54 65/65/65 71/71/71
f 71/71/71 70/70/70 72/72/72
f 54/54/54 71/71/71 72/72/72
f 54/54/54 72/72/72 62/62/62
f 74/74/74 62/62/62 73/73/73
f 73/73/73 75/75/75 74/74/74
f 62/62/62 76/76/76 73/73/73
f 76/76/76 77/77/77 73/73/73
f 78/78/78 73/73/73 77/77/77
f 81/81/81 80/80/80 79/79/79
f 82/82/82 80/80/80 81/81/81
f 82/82/82 83/83/83 80/80/80
f 82/82/82 84/84/84 83/83/83
f 83/83/83 84/84/84 85/85/85
f 84/84/84 86/86/86 85/85/85
f 81/81/81 87/87/87 82/82/82
f 82/82/82 88/88/88 84/84/84
f 82/82/82 87/87/87 88/88/88
f 84/84/84 89/89/89 86/86/86
f 88/88/88 89/89/89 84/84/84
f 89/89/89 90/90/90 86/86/86
f 90/90/90 91/91/91 86/86/86
f 89/89/89 92/92/92 90/90/90
f 88/88/88 92/92/92 89/89/89
f 90/90/90 93/93/93 91/91/91
f 91/91/91 93/93/93 94/94/94
f 93/93/93 95/95/95 94/94/94
f 96/96/96 95/95/95 93/93/93
f 88/88/88 97/97/97 92/92/92
f 87/87/87 97/97/97 88/88/88
f 97/97/97 98/98/98 92/92/92
f 99/99/99 87/87/87 81/81/81
f 99/99/99 81/81/81 100/100/100
f 97/97/97 101/101/101 98/98/98
f 97/97/97 87/87/87 102/102/102
f 97/97/97 102/102/102 101/101/101
f 103/103/103 87/87/87 99/99/99
f 87/87/87 103/103/103 102/102/102
f 98/98/98 101/101/101 104/104/104
f 105/105/105 98/98/98 104/104/104
f 106/106/106 105/105/105 104/104/104
f 102/102/102 107/107/107 101/101/101
f 103/103/103 107/107/107 102/102/102
f 108/108/108 103/103/103 99/99/99
f 108/108/108 99/99/99 109/109/109
f 108/108/108 109/109/109 110/110/110
f 104/104/104 101/101/101 111/111/111
f 101/101/101 107/107/107 111/111/111
f 106/106/106 104/104/104 112/112/112
f 104/104/104 111/111/111 112/112/112
f 106/106/106 112/112/112 113/113/113
f 112/112/112 111/111/111 113/113/113
f 114/114/114 106/106/106 113/113/113
f 107/107/107 115/115/115 111/111/111
f 103/103/103 116/116/116 107/107/107
f 107/107/107 116/116/116 115/115/115
f 103/103/103 108/108/108 116/116/116
f 115/115/115 116/116/116 117/117/117
f 116/116/116 108/108/108 117/117/117
f 108/108/108 110/110/110 117/117/117
f 117/117/117 110/110/110 118/118/118
f 110/110/110 119/119/119 118/118/118
f 117/117/117 118/118/118 119/119/119
f 122/122/122 121/121/121 120/120/120
f 122/122/122 123/123/123 121/121/121
f 123/123/123 124/124/124 121/121/121
f 123/123/123 125/125/125 124/124/124
f 122/122/122 125/125/125 123/123/123
f 124/124/124 125/125/125 126/126/126
f 127/127/127 125/125/125 122/122/122
f 128/128/128 127/127/127 122/122/122
f 129/129/129 126/126/126 125/125/125
f 129/129/129 125/125/125 127/127/127
f 128/128/128 129/129/129 127/127/127
f 129/129/129 130/130/130 126/126/126
f 128/128/128 131/131/131 129/129/129
f 131/131/131 128/128/128 132/132/132
f 133/133/133 130/130/130 129/129/129
f 133/133/133 129/129/129 131/131/131
f 131/131/131 134/134/134 133/133/133
f 131/131/131 132/132/132 135/135/135
f 134/134/134 131/131/131 135/135/135
f 135/135/135 132/132/132 136/136/136
f 135/135/135 136/136/136 137/137/137
f 134/134/134 135/135/135 137/137/137
f 138/138/138 134/134/134 137/137/137
f 139/139/139 134/134/134 138/138/138
f 140/140/140 134/134/134 139/139/139
f 141/141/141 134/134/134 140/140/140
f 133/133/133 134/134/134 141/141/141
f 141/141/141 140/140/140 142/142/142
f 143/143/143 141/141/141 142/142/142
f 143/143/143 133/133/133 141/141/141
f 143/143/143 130/130/130 133/133/133
f 144/144/144 130/130/130 143/143/143
f 147/147/147 146/146/146 145/145/145
f 147/147/147 148/148/148 146/146/146
f 147/147/147 149/149/149 148/148/148
f 149/149/149 150/150/150 148/148/148
f 151/151/151 149/149/149 147/147/147
f 149/149/149 152/152/152 150/150/150
f 152/152/152 153/153/153 150/150/150
f 151/151/151 154/154/154 149/149/149
f 154/154/154 152/152/152 149/149/149
f 154/154/154 151/151/151 155/155/155
f 156/156/156 154/154/154 155/155/155
f 156/156/156 155/155/155 157/157/157
f 152/152/152 158/158/158 153/153/153
f 153/153/153 158/158/158 159/159/159
f 160/160/160 152/152/152 154/154/154
f 160/160/160 154/154/154 156/156/156
f 156/156/156 157/157/157 161/161/161
f 161/161/161 157/157/157 162/162/162
f 161/161/161 162/162/162 163/163/163
f 164/164/164 156/156/156 161/161/161
f 164/164/164 161/161/161 163/163/163
f 164/164/164 160/160/160 156/156/156
f 165/165/165 159/159/159 158/158/158
f 166/166/166 159/159/159 165/165/165
f 152/152/152 167/167/167 158/158/158
f 160/160/160 167/167/167 152/152/152
f 167/167/167 165/165/165 158/158/158
f 166/166/166 165/165/165 168/168/168
f 167/167/167 168/168/168 165/165/165
f 169/169/169 166/166/166 168/168/168
f 167/167/167 160/160/160 170/170/170
f 160/160/160 164/164/164 170/170/170
f 167/167/167 170/170/170 168/168/168
f 171/171/171 164/164/164 163/163/163
f 170/170/170 164/164/164 171/171/171
f 171/171/171 163/163/163 172/172/172
f 169/169/169 168/168/168 173/173/173
f 168/168/168 170/170/170 173/173/173
f 173/173/173 170/170/170 171/171/171
f 173/173/173 171/171/171 172/172/172
f 174/174/174 169/169/169 173/173/173
f 174/174/174 173/173/173 172/172/172
