g rock
v -0 -4.1633843E-09 0.12201244
v -0.07412987 0.074129865 0.086275816
v -4.582504E-09 0.10483547 0.086275816
v -0.10483547 0.10483547 -8.223071E-09
v -6.480639E-09 0.14029355 -8.464259E-09
v -0.07412987 0.07412988 -0.086275816
v -4.582504E-09 0.10483547 -0.08627582
v -0 4.1633843E-09 -0.12201244
v -0.10483547 -6.055832E-09 -0.086275816
v -0 4.1633843E-09 -0.12201244
v -0.14825974 -1.2868643E-08 -5.19932E-09
v -0.10483547 -1.2111664E-08 0.086275816
v -0 -4.1633843E-09 0.12201244
v -0.074129865 -0.05837969 -0.086275816
v -0 4.1633843E-09 -0.12201244
v -0.10483545 -0.089085296 -4.1750208E-09
v -0.074129865 -0.058379702 0.08627582
v -0 -4.1633843E-09 0.12201244
v 1.2501505E-09 -0.08321587 -0.086275816
v -0 4.1633843E-09 -0.12201244
v 1.7679798E-09 -0.12664016 -3.6676515E-09
v 1.2501505E-09 -0.08321588 0.08627583
v -0 -4.1633843E-09 0.12201244
v 0.074129865 -0.054525662 -0.086275816
v -0 4.1633843E-09 -0.12201244
v 0.10483546 -0.08523127 -4.664282E-09
v 0.074129865 -0.054525673 0.08627582
v -0 -4.1633843E-09 0.12201244
v 0.10483547 -2.8765202E-08 -0.086275816
v -0 4.1633843E-09 -0.12201244
v 0.14825974 -4.466176E-08 -5.199319E-09
v 0.10483547 -3.482103E-08 0.086275816
v -0 -4.1633843E-09 0.12201244
v 0.07412991 0.07412985 -0.086275816
v -0 4.1633843E-09 -0.12201244
v 0.10483552 0.10483542 -8.2230684E-09
v -4.582504E-09 0.10483547 -0.08627582
v -0 4.1633843E-09 -0.12201244
v -6.480639E-09 0.14029355 -8.464259E-09
v 0.07412991 0.074129835 0.086275816
v -0 -4.1633843E-09 0.12201244
v -4.582504E-09 0.10483547 0.086275816
v -0 -4.1633843E-09 0.12201244
vt 0.19333105 0.4275015
vt 0.1652211 0.39781985
vt 0.17041318 0.45337
vt 0.1255872 0.39909276
vt 0.12261422 0.43646353
vt 0.085953355 0.40036556
vt 0.10264383 0.46434745
vt 0.031605735 0.42736942
vt 0.085583106 0.34214184
vt 0.04631946 0.40163854
vt 0.12521695 0.34086913
vt 0.16485085 0.33959612
vt 0.20485485 0.39654714
vt 0.08521287 0.28391808
vt 0.04594923 0.34341472
vt 0.12484668 0.28264546
vt 0.16448061 0.28137252
vt 0.20448469 0.33832332
vt 0.08484264 0.22569439
vt 0.04557897 0.285191
vt 0.12447645 0.22442162
vt 0.16411036 0.2231488
vt 0.20411439 0.28009966
vt 0.08447239 0.16747075
vt 0.045208745 0.2269672
vt 0.12410623 0.16619796
vt 0.16374013 0.16492498
vt 0.20374416 0.22187583
vt 0.084102124 0.10924709
vt 0.044838488 0.16874373
vt 0.123735964 0.10797415
vt 0.16336986 0.1067013
vt 0.20337391 0.16365202
vt 0.083731905 0.05102328
vt 0.04446823 0.11052006
vt 0.123365745 0.049750462
vt 0.058930714 0.0141872065
vt 0.035740033 0.04053307
vt 0.10531524 0.032697912
vt 0.16299962 0.048477706
vt 0.20300364 0.10542842
vt 0.12469712 0.00041312643
vt 0.19339785 0.040879503
vn 0.0019298209 -0.037296496 0.9993024
vn -0.49251726 0.51065016 0.70474327
vn -0 0.721474 0.6924415
vn -0.6939442 0.7200288 0
vn -0 1 0
vn -0.4925173 0.51065016 -0.70474327
vn -0 0.7214739 -0.6924416
vn 0.0019298512 -0.03729662 -0.9993024
vn -0.7060776 -0.028752433 -0.7075505
vn 0.0019298512 -0.03729662 -0.9993024
vn -0.99947304 -0.032460943 0
vn -0.70607764 -0.028752387 0.70755047
vn 0.0019298209 -0.037296496 0.9993024
vn -0.47000605 -0.53778034 -0.69991904
vn 0.0019298512 -0.03729662 -0.9993024
vn -0.6645913 -0.7472071 0
vn -0.47000605 -0.5377803 0.69991904
vn 0.0019298209 -0.037296496 0.9993024
vn 0.014912233 -0.72328913 -0.6903843
vn 0.0019298512 -0.03729662 -0.9993024
vn 0.017092362 -0.99985397 0
vn 0.014912256 -0.72328913 0.6903843
vn 0.0019298209 -0.037296496 0.9993024
vn 0.47575364 -0.5337267 -0.6991383
vn 0.0019298512 -0.03729662 -0.9993024
vn 0.6696006 -0.7427213 0
vn 0.47575366 -0.53372663 0.6991383
vn 0.0019298209 -0.037296496 0.9993024
vn 0.7066073 -0.037585914 -0.7066069
vn 0.0019298512 -0.03729662 -0.9993024
vn 0.999113 -0.04210778 0
vn 0.7066073 -0.03758585 0.7066069
vn 0.0019298209 -0.037296496 0.9993024
vn 0.49251747 0.51065 -0.70474327
vn 0.0019298512 -0.03729662 -0.9993024
vn 0.69394445 0.7200286 0
vn -0 0.7214739 -0.6924416
vn 0.0019298512 -0.03729662 -0.9993024
vn -0 1 0
vn 0.49251747 0.51065004 0.7047432
vn 0.0019298209 -0.037296496 0.9993024
vn -0 0.721474 0.6924415
vn 0.0019298209 -0.037296496 0.9993024
g rock_0
f 3/3/3 2/2/2 1/1/1
f 4/4/4 2/2/2 3/3/3
f 5/5/5 4/4/4 3/3/3
f 6/6/6 4/4/4 5/5/5
f 7/7/7 6/6/6 5/5/5
f 6/6/6 7/7/7 8/8/8
f 6/6/6 9/9/9 4/4/4
f 9/9/9 6/6/6 10/10/10
f 4/4/4 11/11/11 2/2/2
f 9/9/9 11/11/11 4/4/4
f 11/11/11 12/12/12 2/2/2
f 2/2/2 12/12/12 13/13/13
f 9/9/9 14/14/14 11/11/11
f 14/14/14 9/9/9 15/15/15
f 11/11/11 16/16/16 12/12/12
f 14/14/14 16/16/16 11/11/11
f 16/16/16 17/17/17 12/12/12
f 12/12/12 17/17/17 18/18/18
f 14/14/14 19/19/19 16/16/16
f 19/19/19 14/14/14 20/20/20
f 16/16/16 21/21/21 17/17/17
f 19/19/19 21/21/21 16/16/16
f 21/21/21 22/22/22 17/17/17
f 17/17/17 22/22/22 23/23/23
f 19/19/19 24/24/24 21/21/21
f 24/24/24 19/19/19 25/25/25
f 21/21/21 26/26/26 22/22/22
f 24/24/24 26/26/26 21/21/21
f 26/26/26 27/27/27 22/22/22
f 22/22/22 27/27/27 28/28/28
f 24/24/24 29/29/29 26/26/26
f 29/29/29 24/24/24 30/30/30
f 26/26/26 31/31/31 27/27/27
f 29/29/29 31/31/31 26/26/26
f 31/31/31 32/32/32 27/27/27
f 27/27/27 32/32/32 33/33/33
f 29/29/29 34/34/34 31/31/31
f 34/34/34 29/29/29 35/35/35
f 31/31/31 36/36/36 32/32/32
f 34/34/34 36/36/36 31/31/31
f 34/34/34 37/37/37 36/36/36
f 37/37/37 34/34/34 38/38/38
f 37/37/37 39/39/39 36/36/36
f 36/36/36 40/40/40 32/32/32
f 36/36/36 39/39/39 40/40/40
f 32/32/32 40/40/40 41/41/41
f 39/39/39 42/42/42 40/40/40
f 40/40/40 42/42/42 43/43/43
