g Skull
v -0 0.306559 1.3400121E-08
v -0.106739536 0.25789383 -0.10413907
v 0.03979099 0.25789383 -0.15258309
v -0.13389716 0.1273492 -0.23458852
v -1.0825729E-08 0.1273492 -0.2788559
v -0.22528294 0.1273492 -0.11584091
v -0 0.306559 1.3400121E-08
v 3.427267E-08 0.25789383 0.15902475
v -0.12847339 0.25789383 0.06606129
v -0.106739536 0.25789383 -0.10413907
v -0.24514295 0.1273492 0.03968535
v -0.18717182 0.12734918 0.18261181
v -0.22528294 0.1273492 -0.11584091
v -0 0.306559 1.3400121E-08
v 0.11124581 0.25789383 0.108535506
v 3.427267E-08 0.25789383 0.15902475
v 0.1397991 0.25789383 -0.022631552
v 0.24514295 0.1273492 0.039685335
v 0.22528295 0.1273492 -0.11584085
v 0.18717186 0.12734918 0.18261175
v 0.06977505 0.12734918 0.2675602
v -0 0.306559 1.3400121E-08
v 0.03979099 0.25789383 -0.15258309
v 0.1397991 0.25789383 -0.022631552
v 0.22528295 0.1273492 -0.11584085
v 0.13389726 0.1273492 -0.23458843
v -0.18717182 0.12734918 0.18261181
v -0.12847339 0.25789383 0.06606129
v 3.427267E-08 0.25789383 0.15902475
v -0.06977493 0.12734918 0.26756027
v 0.06977505 0.12734918 0.2675602
v 0.11124581 0.25789383 0.108535506
v 0.07592613 0.022988724 0.28509507
v -0.075926006 0.022988701 0.2850951
v -0.16014643 -0.06709254 0.19265792
v 0.03979099 0.25789383 -0.15258309
v -1.0825729E-08 0.1273492 -0.2788559
v 0.13389726 0.1273492 -0.23458843
v 0.05256395 0.022355352 -0.26988587
v -1.1175871E-08 0.022355352 -0.27115092
v -1.1780081E-08 -0.045426045 -0.31845692
v -0.058412798 0.022355352 -0.2683626
v -0.13389716 0.1273492 -0.23458852
v -0.1331984 0.082403325 -0.19249883
v -0.08254184 0.021866238 -0.21389534
v -0.1680178 0.02767517 -0.1642872
v -0.14067632 -0.027052984 -0.2094344
v -0.14570099 -0.04542605 -0.26132107
v -0.13192657 -0.1624585 -0.27526045
v -1.06664055E-08 -0.18059814 -0.31528616
v 0.13192667 -0.1624585 -0.2752604
v 0.1457011 -0.04542605 -0.26132098
v 0.079544805 0.021840507 -0.21449886
v 0.1297119 -0.027078709 -0.20907283
v 0.15787312 0.027649438 -0.1634771
v -0.18885913 0.04096158 -0.19005683
v -0.13389716 0.1273492 -0.23458852
v -0.22528294 0.1273492 -0.11584091
v -0.22186798 -0.0022322389 -0.12803909
v -0.14570099 -0.04542605 -0.26132107
v -0.15408593 -0.16245851 -0.1524315
v -0.13192657 -0.1624585 -0.27526045
v -0.22186798 -0.0022322389 -0.12803909
v -0.22528294 0.1273492 -0.11584091
v -0.24514295 0.1273492 0.03968535
v -0.19214818 -0.10261718 0.09986055
v -0.16014643 -0.06709254 0.19265792
v -0.18717182 0.12734918 0.18261181
v -0.12408699 -0.19516055 0.016802076
v -0.15408593 -0.16245851 -0.1524315
v 0.07592613 0.022988724 0.28509507
v 0.06977505 0.12734918 0.2675602
v 0.18717186 0.12734918 0.18261175
v 0.16014643 -0.06709254 0.19265787
v 0.24514295 0.1273492 0.039685335
v 0.19214818 -0.10261718 0.099860534
v 0.22186798 -0.0022322389 -0.12803905
v 0.22528295 0.1273492 -0.11584085
v 0.12408699 -0.19516055 0.016802063
v 0.15408596 -0.16245851 -0.15243144
v 0.13389726 0.1273492 -0.23458843
v 0.1901532 0.04096158 -0.18934876
v 0.22528295 0.1273492 -0.11584085
v 0.22186798 -0.0022322389 -0.12803905
v 0.1457011 -0.04542605 -0.26132098
v 0.15408596 -0.16245851 -0.15243144
v 0.13192667 -0.1624585 -0.2752604
v -0.075926006 0.022988701 0.2850951
v 0.07592613 0.022988724 0.28509507
v 0.16014643 -0.06709254 0.19265787
v -0.16014643 -0.06709254 0.19265792
v -0.19214818 -0.10261718 0.09986055
v 0.19214818 -0.10261718 0.099860534
v 0.12408699 -0.19516055 0.016802063
v -0.12408699 -0.19516055 0.016802076
v -0.15408593 -0.16245851 -0.1524315
v 0.15408596 -0.16245851 -0.15243144
v -1.06664055E-08 -0.18059814 -0.31528616
v 0.13192667 -0.1624585 -0.2752604
v -0.13192657 -0.1624585 -0.27526045
v 0.12223396 0.0823776 -0.19213727
v 0.079544805 0.021840507 -0.21449886
v 0.15787312 0.027649438 -0.1634771
v 0.05256395 0.022355352 -0.26988587
v 0.13389726 0.1273492 -0.23458843
v -0.14067632 -0.027052984 -0.2094344
v -0.1680178 0.02767517 -0.1642872
v -0.18885913 0.04096158 -0.19005683
v -0.14570099 -0.04542605 -0.26132107
v -0.1331984 0.082403325 -0.19249883
v -0.18885913 0.04096158 -0.19005683
v -0.1680178 0.02767517 -0.1642872
v -0.13389716 0.1273492 -0.23458852
v -0.14570099 -0.04542605 -0.26132107
v -0.058412798 0.022355352 -0.2683626
v -0.08254184 0.021866238 -0.21389534
v -0.14067632 -0.027052984 -0.2094344
v 0.1297119 -0.027078709 -0.20907283
v 0.1901532 0.04096158 -0.18934876
v 0.15787312 0.027649438 -0.1634771
v 0.1457011 -0.04542605 -0.26132098
v 0.12223396 0.0823776 -0.19213727
v 0.15787312 0.027649438 -0.1634771
v 0.1901532 0.04096158 -0.18934876
v 0.13389726 0.1273492 -0.23458843
vt 0.77057916 0.1908044
vt 0.77914476 0.18233639
vt 0.76909715 0.17923267
vt 0.77984816 0.16957465
vt 0.7716738 0.1681805
vt 0.78895813 0.17400862
vt 0.7005089 0.18836392
vt 0.7013366 0.17847209
vt 0.6938841 0.18205418
vt 0.6902134 0.19163206
vt 0.6851896 0.17830274
vt 0.6911959 0.17288035
vt 0.6794387 0.18581787
vt 0.7005089 0.18836392
vt 0.7072157 0.18094732
vt 0.7013366 0.17847209
vt 0.71125346 0.1881575
vt 0.718054 0.17930155
vt 0.72388256 0.18711364
vt 0.71200925 0.1733599
vt 0.705236 0.16945013
vt 0.77057916 0.1908044
vt 0.76909715 0.17923267
vt 0.7602044 0.1861343
vt 0.75454134 0.17395791
vt 0.7635123 0.16940697
vt 0.6911959 0.17288035
vt 0.6938841 0.18205418
vt 0.7013366 0.17847209
vt 0.6977051 0.16946954
vt 0.705236 0.16945013
vt 0.7072157 0.18094732
vt 0.70684355 0.16329038
vt 0.6959856 0.16326387
vt 0.68573236 0.16274911
vt 0.76909715 0.17923267
vt 0.7716738 0.1681805
vt 0.7635123 0.16940697
vt 0.7678039 0.16226333
vt 0.77169967 0.16196302
vt 0.7717249 0.15639214
vt 0.7759788 0.1623067
vt 0.77984816 0.16957465
vt 0.78160983 0.1666516
vt 0.7794014 0.16316998
vt 0.7841782 0.16470024
vt 0.782625 0.16111214
vt 0.78216404 0.15804152
vt 0.7824982 0.1491614
vt 0.7717201 0.1463715
vt 0.76088685 0.14912601
vt 0.76121455 0.15795442
vt 0.7642528 0.16336204
vt 0.7614576 0.16130222
vt 0.759746 0.16451812
vt 0.7856248 0.16545494
vt 0.77984816 0.16957465
vt 0.78895813 0.17400862
vt 0.79163265 0.1647466
vt 0.78216404 0.15804152
vt 0.7919443 0.15149719
vt 0.7824982 0.1491614
vt 0.6722402 0.18034448
vt 0.6794387 0.18581787
vt 0.6851896 0.17830274
vt 0.67892027 0.16509138
vt 0.68573236 0.16274911
vt 0.6911959 0.17288035
vt 0.66969013 0.16325015
vt 0.66324747 0.17291604
vt 0.70684355 0.16329038
vt 0.705236 0.16945013
vt 0.71200925 0.1733599
vt 0.7176832 0.16324253
vt 0.718054 0.17930155
vt 0.7246872 0.16588855
vt 0.7314709 0.18099338
vt 0.72388256 0.18711364
vt 0.73381925 0.16383903
vt 0.7402614 0.17342678
vt 0.7635123 0.16940697
vt 0.75776887 0.16538683
vt 0.75454134 0.17395791
vt 0.75184137 0.16470613
vt 0.76121455 0.15795442
vt 0.75157976 0.1512667
vt 0.76088685 0.14912601
vt 0.81131697 0.19073255
vt 0.82052886 0.19143327
vt 0.82623357 0.18399197
vt 0.80680346 0.18251407
vt 0.8053207 0.17633855
vt 0.8286333 0.17811184
vt 0.82363635 0.16881225
vt 0.80858123 0.16766705
vt 0.8075567 0.15707245
vt 0.8262515 0.15849444
vt 0.81911576 0.14910847
vt 0.8269161 0.15238301
vt 0.81090987 0.15116552
vt 0.7623474 0.16654445
vt 0.7642528 0.16336204
vt 0.759746 0.16451812
vt 0.7678039 0.16226333
vt 0.7635123 0.16940697
vt 0.782625 0.16111214
vt 0.7841782 0.16470024
vt 0.7856248 0.16545494
vt 0.78216404 0.15804152
vt 0.78160983 0.1666516
vt 0.7856248 0.16545494
vt 0.7841782 0.16470024
vt 0.77984816 0.16957465
vt 0.78216404 0.15804152
vt 0.7759788 0.1623067
vt 0.7794014 0.16316998
vt 0.782625 0.16111214
vt 0.7614576 0.16130222
vt 0.75776887 0.16538683
vt 0.759746 0.16451812
vt 0.76121455 0.15795442
vt 0.7623474 0.16654445
vt 0.759746 0.16451812
vt 0.75776887 0.16538683
vt 0.7635123 0.16940697
vn -0.009045109 0.9999292 -0.007734608
vn -0.44652328 0.8222071 -0.35297653
vn 0.16901395 0.8337193 -0.5256865
vn -0.5538831 0.22523446 -0.8015503
vn -0.01294543 0.3702329 -0.9288488
vn -0.899952 0.3228793 -0.2929768
vn -0.009045109 0.9999292 -0.007734608
vn -0.028791387 0.8308113 0.55580896
vn -0.5332978 0.81625223 0.22209394
vn -0.44652328 0.8222071 -0.35297653
vn -0.95644945 0.26536223 0.121603414
vn -0.76003623 0.31910065 0.5661446
vn -0.899952 0.3228793 -0.2929768
vn -0.009045109 0.9999292 -0.007734608
vn 0.46478423 0.8078482 0.36243176
vn -0.028791387 0.8308113 0.55580896
vn 0.58024937 0.8081253 -0.10121347
vn 0.9592226 0.24876815 0.13418819
vn 0.8899796 0.3278139 -0.31697667
vn 0.767315 0.31532428 0.558389
vn 0.30757868 0.38398454 0.870604
vn -0.009045109 0.9999292 -0.007734608
vn 0.16901395 0.8337193 -0.5256865
vn 0.58024937 0.8081253 -0.10121347
vn 0.8899796 0.3278139 -0.31697667
vn 0.5687539 0.20796233 -0.7957831
vn -0.76003623 0.31910065 0.5661446
vn -0.5332978 0.81625223 0.22209394
vn -0.028791387 0.8308113 0.55580896
vn -0.32059428 0.39865658 0.8592394
vn 0.30757868 0.38398454 0.870604
vn 0.46478423 0.8078482 0.36243176
vn 0.28420636 -0.25184712 0.9250945
vn -0.28420585 -0.25184715 0.9250946
vn -0.52534276 -0.58024484 0.6223592
vn 0.16901395 0.8337193 -0.5256865
vn -0.01294543 0.3702329 -0.9288488
vn 0.5687539 0.20796233 -0.7957831
vn 0.47064093 0.2549049 -0.84470147
vn -0.00060586515 0.24310847 -0.96999896
vn 0.00014896784 0.22403014 -0.9745822
vn -0.4652577 0.25369507 -0.8480413
vn -0.5538831 0.22523446 -0.8015503
vn -0.2453711 -0.5637317 -0.78866947
vn -0.79257417 0.17154282 -0.5851489
vn 0.30077922 0.15464582 -0.9410719
vn 0.020851819 0.83774745 -0.54565966
vn -0.67179185 0.266061 -0.69130844
vn -0.5266535 -0.63367134 -0.5666539
vn -0 -0.68497074 -0.7285705
vn 0.5266537 -0.6336713 -0.5666538
vn 0.65894157 0.27221033 -0.7012115
vn 0.8223856 0.16911244 -0.5432152
vn 0.108288445 0.8217176 -0.5595121
vn -0.18948844 0.15704301 -0.9692429
vn -0.4231369 0.0077331094 -0.9060327
vn -0.5538831 0.22523446 -0.8015503
vn -0.899952 0.3228793 -0.2929768
vn -0.9556189 -0.17469333 -0.23722292
vn -0.67179185 0.266061 -0.69130844
vn -0.6125715 -0.77533674 -0.15365215
vn -0.5266535 -0.63367134 -0.5666539
vn -0.9556189 -0.17469333 -0.23722292
vn -0.899952 0.3228793 -0.2929768
vn -0.95644945 0.26536223 0.121603414
vn -0.72290957 -0.5862548 0.36565974
vn -0.52534276 -0.58024484 0.6223592
vn -0.76003623 0.31910065 0.5661446
vn -0.38119566 -0.88752383 0.2588267
vn -0.6125715 -0.77533674 -0.15365215
vn 0.28420636 -0.25184712 0.9250945
vn 0.30757868 0.38398454 0.870604
vn 0.767315 0.31532428 0.558389
vn 0.52534276 -0.5802449 0.6223591
vn 0.9592226 0.24876815 0.13418819
vn 0.72290957 -0.5862548 0.36565974
vn 0.95574445 -0.175789 -0.23590444
vn 0.8899796 0.3278139 -0.31697667
vn 0.38119566 -0.88752383 0.25882676
vn 0.61257154 -0.77533686 -0.15365194
vn 0.5687539 0.20796233 -0.7957831
vn 0.49549153 0.041439783 -0.86762375
vn 0.8899796 0.3278139 -0.31697667
vn 0.95574445 -0.175789 -0.23590444
vn 0.65894157 0.27221033 -0.7012115
vn 0.61257154 -0.77533686 -0.15365194
vn 0.5266537 -0.6336713 -0.5666538
vn -0.28420585 -0.25184715 0.9250946
vn 0.28420636 -0.25184712 0.9250945
vn 0.52534276 -0.5802449 0.6223591
vn -0.52534276 -0.58024484 0.6223592
vn -0.72290957 -0.5862548 0.36565974
vn 0.72290957 -0.5862548 0.36565974
vn 0.38119566 -0.88752383 0.25882676
vn -0.38119566 -0.88752383 0.2588267
vn -0.6125715 -0.77533674 -0.15365215
vn 0.61257154 -0.77533686 -0.15365194
vn -0 -0.68497074 -0.7285705
vn 0.5266537 -0.6336713 -0.5666538
vn -0.5266535 -0.63367134 -0.5666539
vn 0.34267783 -0.540963 -0.7680697
vn 0.8223856 0.16911244 -0.5432152
vn -0.18948844 0.15704301 -0.9692429
vn 0.47064093 0.2549049 -0.84470147
vn 0.5687539 0.20796233 -0.7957831
vn 0.020851819 0.83774745 -0.54565966
vn 0.30077922 0.15464582 -0.9410719
vn -0.4231369 0.0077331094 -0.9060327
vn -0.67179185 0.266061 -0.69130844
vn -0.2453711 -0.5637317 -0.78866947
vn -0.4231369 0.0077331094 -0.9060327
vn 0.30077922 0.15464582 -0.9410719
vn -0.5538831 0.22523446 -0.8015503
vn -0.67179185 0.266061 -0.69130844
vn -0.4652577 0.25369507 -0.8480413
vn -0.79257417 0.17154282 -0.5851489
vn 0.020851819 0.83774745 -0.54565966
vn 0.108288445 0.8217176 -0.5595121
vn 0.49549153 0.041439783 -0.86762375
vn -0.18948844 0.15704301 -0.9692429
vn 0.65894157 0.27221033 -0.7012115
vn 0.34267783 -0.540963 -0.7680697
vn -0.18948844 0.15704301 -0.9692429
vn 0.49549153 0.041439783 -0.86762375
vn 0.5687539 0.20796233 -0.7957831
g Skull_0
f 3/3/3 2/2/2 1/1/1
f 4/4/4 2/2/2 3/3/3
f 3/3/3 5/5/5 4/4/4
f 4/4/4 6/6/6 2/2/2
f 9/9/9 8/8/8 7/7/7
f 10/10/10 9/9/9 7/7/7
f 10/10/10 11/11/11 9/9/9
f 11/11/11 12/12/12 9/9/9
f 13/13/13 11/11/11 10/10/10
f 16/16/16 15/15/15 14/14/14
f 15/15/15 17/17/17 14/14/14
f 17/17/17 15/15/15 18/18/18
f 18/18/18 19/19/19 17/17/17
f 20/20/20 18/18/18 15/15/15
f 21/21/21 20/20/20 15/15/15
f 24/24/24 23/23/23 22/22/22
f 23/23/23 24/24/24 25/25/25
f 25/25/25 26/26/26 23/23/23
f 29/29/29 28/28/28 27/27/27
f 27/27/27 30/30/30 29/29/29
f 30/30/30 31/31/31 29/29/29
f 32/32/32 29/29/29 31/31/31
f 30/30/30 33/33/33 31/31/31
f 34/34/34 33/33/33 30/30/30
f 27/27/27 34/34/34 30/30/30
f 35/35/35 34/34/34 27/27/27
f 38/38/38 37/37/37 36/36/36
f 37/37/37 38/38/38 39/39/39
f 39/39/39 40/40/40 37/37/37
f 41/41/41 40/40/40 39/39/39
f 37/37/37 40/40/40 42/42/42
f 41/41/41 42/42/42 40/40/40
f 42/42/42 43/43/43 37/37/37
f 44/44/44 43/43/43 42/42/42
f 42/42/42 45/45/45 44/44/44
f 46/46/46 44/44/44 45/45/45
f 46/46/46 45/45/45 47/47/47
f 41/41/41 48/48/48 42/42/42
f 41/41/41 49/49/49 48/48/48
f 50/50/50 49/49/49 41/41/41
f 51/51/51 50/50/50 41/41/41
f 41/41/41 52/52/52 51/51/51
f 39/39/39 52/52/52 41/41/41
f 53/53/53 52/52/52 39/39/39
f 53/53/53 54/54/54 52/52/52
f 55/55/55 54/54/54 53/53/53
f 58/58/58 57/57/57 56/56/56
f 56/56/56 59/59/59 58/58/58
f 60/60/60 59/59/59 56/56/56
f 60/60/60 61/61/61 59/59/59
f 62/62/62 61/61/61 60/60/60
f 65/65/65 64/64/64 63/63/63
f 63/63/63 66/66/66 65/65/65
f 66/66/66 67/67/67 65/65/65
f 65/65/65 67/67/67 68/68/68
f 63/63/63 69/69/69 66/66/66
f 70/70/70 69/69/69 63/63/63
f 73/73/73 72/72/72 71/71/71
f 71/71/71 74/74/74 73/73/73
f 75/75/75 73/73/73 74/74/74
f 74/74/74 76/76/76 75/75/75
f 76/76/76 77/77/77 75/75/75
f 75/75/75 77/77/77 78/78/78
f 77/77/77 76/76/76 79/79/79
f 79/79/79 80/80/80 77/77/77
f 83/83/83 82/82/82 81/81/81
f 84/84/84 82/82/82 83/83/83
f 85/85/85 82/82/82 84/84/84
f 85/85/85 84/84/84 86/86/86
f 86/86/86 87/87/87 85/85/85
f 90/90/90 89/89/89 88/88/88
f 88/88/88 91/91/91 90/90/90
f 90/90/90 91/91/91 92/92/92
f 92/92/92 93/93/93 90/90/90
f 92/92/92 94/94/94 93/93/93
f 92/92/92 95/95/95 94/94/94
f 94/94/94 95/95/95 96/96/96
f 96/96/96 97/97/97 94/94/94
f 96/96/96 98/98/98 97/97/97
f 98/98/98 99/99/99 97/97/97
f 96/96/96 100/100/100 98/98/98
f 103/103/103 102/102/102 101/101/101
f 101/101/101 102/102/102 104/104/104
f 105/105/105 101/101/101 104/104/104
f 108/108/108 107/107/107 106/106/106
f 106/106/106 109/109/109 108/108/108
f 112/112/112 111/111/111 110/110/110
f 113/113/113 110/110/110 111/111/111
f 116/116/116 115/115/115 114/114/114
f 114/114/114 117/117/117 116/116/116
f 120/120/120 119/119/119 118/118/118
f 121/121/121 118/118/118 119/119/119
f 124/124/124 123/123/123 122/122/122
f 122/122/122 125/125/125 124/124/124
