g Stone_01
v 0.3549873 0.49861556 0.7948517
v 0.56411743 0.3825885 0.7948517
v 0.59451294 0.20912996 0.9794342
v -0.53326017 0.28948542 0.8315569
v -0.65966797 0.28948545 0.6326546
v -0.59451294 0.4986156 0.5611741
v -0.73081666 0.49861583 -1.0322181
v -0.59451294 0.81194824 -0.06696688
v -0.73081666 0.49861562 0.26760262
v 0.59451294 0.20912996 0.9794342
v -0.19398992 0.20837642 0.9794342
v 0.3549873 0.49861556 0.7948517
v -0.20687911 0.35979822 0.97943425
v -0.53326017 0.28948542 0.8315569
v -0.3694637 -1.4653145E-07 0.8994035
v 0.3853828 -1.2549847E-07 0.7703041
v -0.53326017 -1.3547782E-07 0.83155686
v 0.3853828 -0.11284795 0.2676025
v 0.59451294 0.20912996 0.9794342
v 0.56411743 0.3825885 0.7948517
v 0.59451294 0.2894855 0.26760256
v 0.59451294 0.49861568 0.0584725
v 0.525336 -0.112847805 -0.5669343
v 0.57277375 0.18523076 -0.86941266
v 0.12918238 1.9979909E-07 -1.226358
v 0.59451294 0.49861583 -1.0322181
v 0.3853828 0.18514201 -1.076686
v 0.3853828 0.49861586 -1.2413481
v 0.3853828 0.49861586 -1.2413481
v -0.44602048 0.65907156 -1.2768952
v 0.12918238 1.9979909E-07 -1.226358
v -0.4466356 -0.112847745 -0.9181814
v -0.73081666 0.49861583 -1.0322181
v -0.75059205 0.20913008 0.26760256
v -0.4466356 -0.112847745 -0.9181814
v -0.73081666 0.49861583 -1.0322181
v -0.73081666 0.49861562 0.26760262
v -0.59451294 0.4986156 0.5611741
v -0.65966797 0.28948545 0.6326546
v -0.65966797 -1.03072516E-07 0.63265455
v -0.53326017 -1.3547782E-07 0.83155686
v -0.53326017 0.28948542 0.8315569
v 0.59451294 0.49861583 -1.0322181
v 0.59451294 0.81194836 -0.979434
v 0.3853828 0.49861586 -1.2413481
v 0.59451294 0.81194824 -0.20912997
v 0.59451294 0.49861568 0.0584725
v 0.59451294 0.2894855 0.26760256
v 0.56411743 0.3825885 0.7948517
v 0.3549873 0.49861556 0.7948517
v 0.16679151 0.4986156 0.35439458
v 0.59451294 0.49861568 0.0584725
v -0.20687911 0.35979822 0.97943425
v -0.59451294 0.4986156 0.5611741
v -0.53326017 0.28948542 0.8315569
v -0.73081666 0.49861562 0.26760262
v 0.38686174 0.81194824 0.024827454
v 0.59451294 0.81194824 -0.20912997
v -0.38686174 0.81194824 0.117335886
v -0.59451294 0.81194824 -0.06696688
v 0.19752681 0.95484513 -0.14065947
v -0.24568428 0.9761182 -0.6429541
v 0.25506714 1.0816859 -0.65923786
v 0.59451294 0.81194836 -0.979434
v -0.59451294 0.81194836 -0.979434
v -0.73081666 0.49861583 -1.0322181
v 0.3853828 0.49861586 -1.2413481
v -0.44602048 0.65907156 -1.2768952
v 0.59451294 0.20912996 0.9794342
v 0.3853828 -1.2549847E-07 0.7703041
v -0.19398992 0.20837642 0.9794342
v 0.3853828 -0.11284795 0.2676025
v -0.38538283 -0.11284795 0.2676025
v -0.3694637 -1.4653145E-07 0.8994035
v -0.53326017 -1.3547782E-07 0.83155686
v -0.65966797 -1.03072516E-07 0.63265455
v -0.75059205 0.20913008 0.26760256
v 0.525336 -0.112847805 -0.5669343
v -0.4466356 -0.112847745 -0.9181814
v 0.12918238 1.9979909E-07 -1.226358
vt 0.84076375 0.8858091
vt 0.82270795 0.87816703
vt 0.82303053 0.8862985
vt 0.7632164 0.71294254
vt 0.7534386 0.7238879
vt 0.7625329 0.73489517
vt 0.75550956 0.84364486
vt 0.7683092 0.77947426
vt 0.75297827 0.75394845
vt 0.82303053 0.8862985
vt 0.83962774 0.9229702
vt 0.84076375 0.8858091
vt 0.8501616 0.9231
vt 0.8459843 0.9530104
vt 0.82891005 0.93552625
vt 0.81375974 0.8990998
vt 0.8269313 0.9451016
vt 0.78778476 0.9010486
vt 0.82303053 0.8862985
vt 0.82270795 0.87816703
vt 0.78900176 0.8749707
vt 0.7703931 0.8638897
vt 0.7430579 0.90338767
vt 0.722495 0.8954914
vt 0.71479887 0.92165774
vt 0.7036181 0.8834293
vt 0.71062183 0.90744746
vt 0.685437 0.90748084
vt 0.685437 0.90748084
vt 0.6909351 0.96293265
vt 0.71479887 0.92165774
vt 0.73254395 0.9470437
vt 0.71714157 0.97869223
vt 0.79608 0.97024316
vt 0.73254395 0.9470437
vt 0.71714157 0.97869223
vt 0.79751223 0.9883929
vt 0.8216544 0.9859368
vt 0.8291777 0.96938616
vt 0.8174308 0.95400107
vt 0.8269313 0.9451016
vt 0.8459843 0.9530104
vt 0.8609332 0.83522934
vt 0.8462943 0.8288914
vt 0.8434815 0.8543666
vt 0.8400844 0.7824071
vt 0.84850216 0.7605304
vt 0.8469869 0.7418365
vt 0.836396 0.71003866
vt 0.8219882 0.71276575
vt 0.814891 0.7431464
vt 0.84850216 0.7605304
vt 0.7848739 0.7055459
vt 0.7625329 0.73489517
vt 0.7632164 0.71294254
vt 0.75297827 0.75394845
vt 0.8265266 0.77150035
vt 0.8400844 0.7824071
vt 0.7784673 0.76809853
vt 0.7683092 0.77947426
vt 0.81586194 0.7810045
vt 0.79288524 0.81412417
vt 0.8222017 0.81125516
vt 0.8462943 0.8288914
vt 0.77387106 0.8369992
vt 0.75550956 0.84364486
vt 0.8434815 0.8543666
vt 0.78293025 0.85744196
vt 0.82303053 0.8862985
vt 0.81375974 0.8990998
vt 0.83962774 0.9229702
vt 0.78778476 0.9010486
vt 0.7932759 0.9417882
vt 0.82891005 0.93552625
vt 0.8269313 0.9451016
vt 0.8174308 0.95400107
vt 0.79608 0.97024316
vt 0.7430579 0.90338767
vt 0.73254395 0.9470437
vt 0.71479887 0.92165774
vn 0.17094436 0.9008289 0.39910564
vn 0.8027457 0.46634647 0.37164536
vn 0.603953 -0.23214838 0.76246166
vn -0.627717 0.27538317 0.728104
vn -0.855666 0.23983246 0.45860234
vn -0.48151717 0.7974703 0.36356905
vn -0.8968994 -0.016193198 -0.44193795
vn -0.60990936 0.77104354 0.1830369
vn -0.8471175 0.43240866 0.30889285
vn 0.603953 -0.23214838 0.76246166
vn -0.105317555 -0.11517846 0.98774606
vn 0.17094436 0.9008289 0.39910564
vn -0.1665121 0.6536889 0.73821706
vn -0.627717 0.27538317 0.728104
vn -0.1898116 -0.6707381 0.7169951
vn 0.2742402 -0.86179763 0.42672852
vn -0.47033575 -0.59368557 0.6529331
vn 0.5169313 -0.8530388 0.07146261
vn 0.603953 -0.23214838 0.76246166
vn 0.8027457 0.46634647 0.37164536
vn 0.9907397 0.11758063 -0.06789462
vn 0.90333 0.19005124 0.3845456
vn 0.6633578 -0.74164677 -0.09958093
vn 0.88409555 -0.33787784 -0.32282135
vn 0.12214026 -0.61669034 -0.77767265
vn 0.8964348 -0.105638064 -0.43040127
vn 0.5503627 -0.39652178 -0.73475933
vn 0.38085815 0.19092372 -0.9047072
vn 0.38085815 0.19092372 -0.9047072
vn -0.26913518 0.2851185 -0.9199313
vn 0.12214026 -0.61669034 -0.77767265
vn -0.5079158 -0.7693695 -0.3874173
vn -0.8968994 -0.016193198 -0.44193795
vn -0.9350792 -0.35265693 0.03549419
vn -0.5079158 -0.7693695 -0.3874173
vn -0.8968994 -0.016193198 -0.44193795
vn -0.8471175 0.43240866 0.30889285
vn -0.48151717 0.7974703 0.36356905
vn -0.855666 0.23983246 0.45860234
vn -0.73595196 -0.613096 0.28720716
vn -0.47033575 -0.59368557 0.6529331
vn -0.627717 0.27538317 0.728104
vn 0.8964348 -0.105638064 -0.43040127
vn 0.6858356 0.6110585 -0.39526844
vn 0.38085815 0.19092372 -0.9047072
vn 0.8073323 0.5260639 0.26734102
vn 0.90333 0.19005124 0.3845456
vn 0.9907397 0.11758063 -0.06789462
vn 0.8027457 0.46634647 0.37164536
vn 0.17094436 0.9008289 0.39910564
vn 0.19506413 0.88367534 0.42552063
vn 0.90333 0.19005124 0.3845456
vn -0.1665121 0.6536889 0.73821706
vn -0.48151717 0.7974703 0.36356905
vn -0.627717 0.27538317 0.728104
vn -0.8471175 0.43240866 0.30889285
vn 0.32481933 0.66760534 0.66992193
vn 0.8073323 0.5260639 0.26734102
vn -0.14337777 0.8222445 0.55077815
vn -0.60990936 0.77104354 0.1830369
vn 0.14126551 0.9337772 0.3287921
vn -0.21292476 0.9653046 -0.15116222
vn 0.14601701 0.98061746 -0.13064587
vn 0.6858356 0.6110585 -0.39526844
vn -0.5718469 0.723193 -0.3872763
vn -0.8968994 -0.016193198 -0.44193795
vn 0.38085815 0.19092372 -0.9047072
vn -0.26913518 0.2851185 -0.9199313
vn 0.603953 -0.23214838 0.76246166
vn 0.2742402 -0.86179763 0.42672852
vn -0.105317555 -0.11517846 0.98774606
vn 0.5169313 -0.8530388 0.07146261
vn -0.2807669 -0.9589942 0.038730096
vn -0.1898116 -0.6707381 0.7169951
vn -0.47033575 -0.59368557 0.6529331
vn -0.73595196 -0.613096 0.28720716
vn -0.9350792 -0.35265693 0.03549419
vn 0.6633578 -0.74164677 -0.09958093
vn -0.5079158 -0.7693695 -0.3874173
vn 0.12214026 -0.61669034 -0.77767265
g Stone_01_0
f 3/3/3 2/2/2 1/1/1
f 6/6/6 5/5/5 4/4/4
f 9/9/9 8/8/8 7/7/7
f 12/12/12 11/11/11 10/10/10
f 13/13/13 11/11/11 12/12/12
f 11/11/11 13/13/13 14/14/14
f 14/14/14 15/15/15 11/11/11
f 11/11/11 15/15/15 16/16/16
f 14/14/14 17/17/17 15/15/15
f 20/20/20 19/19/19 18/18/18
f 18/18/18 21/21/21 20/20/20
f 22/22/22 21/21/21 18/18/18
f 23/23/23 22/22/22 18/18/18
f 22/22/22 23/23/23 24/24/24
f 25/25/25 24/24/24 23/23/23
f 24/24/24 26/26/26 22/22/22
f 25/25/25 27/27/27 24/24/24
f 26/26/26 24/24/24 27/27/27
f 28/28/28 27/27/27 25/25/25
f 27/27/27 28/28/28 26/26/26
f 31/31/31 30/30/30 29/29/29
f 32/32/32 30/30/30 31/31/31
f 33/33/33 30/30/30 32/32/32
f 36/36/36 35/35/35 34/34/34
f 34/34/34 37/37/37 36/36/36
f 37/37/37 34/34/34 38/38/38
f 39/39/39 38/38/38 34/34/34
f 34/34/34 40/40/40 39/39/39
f 39/39/39 40/40/40 41/41/41
f 41/41/41 42/42/42 39/39/39
f 45/45/45 44/44/44 43/43/43
f 43/43/43 44/44/44 46/46/46
f 46/46/46 47/47/47 43/43/43
f 50/50/50 49/49/49 48/48/48
f 50/50/50 48/48/48 51/51/51
f 52/52/52 51/51/51 48/48/48
f 50/50/50 51/51/51 53/53/53
f 54/54/54 53/53/53 51/51/51
f 54/54/54 55/55/55 53/53/53
f 56/56/56 54/54/54 51/51/51
f 57/57/57 51/51/51 52/52/52
f 52/52/52 58/58/58 57/57/57
f 59/59/59 56/56/56 51/51/51
f 51/51/51 57/57/57 59/59/59
f 59/59/59 60/60/60 56/56/56
f 61/61/61 57/57/57 58/58/58
f 57/57/57 61/61/61 59/59/59
f 62/62/62 60/60/60 59/59/59
f 59/59/59 61/61/61 62/62/62
f 63/63/63 61/61/61 58/58/58
f 62/62/62 61/61/61 63/63/63
f 64/64/64 63/63/63 58/58/58
f 60/60/60 62/62/62 65/65/65
f 65/65/65 62/62/62 63/63/63
f 63/63/63 64/64/64 65/65/65
f 65/65/65 66/66/66 60/60/60
f 65/65/65 64/64/64 67/67/67
f 66/66/66 65/65/65 68/68/68
f 68/68/68 65/65/65 67/67/67
f 71/71/71 70/70/70 69/69/69
f 69/69/69 70/70/70 72/72/72
f 73/73/73 72/72/72 70/70/70
f 73/73/73 70/70/70 74/74/74
f 73/73/73 74/74/74 75/75/75
f 75/75/75 76/76/76 73/73/73
f 73/73/73 76/76/76 77/77/77
f 78/78/78 72/72/72 73/73/73
f 77/77/77 79/79/79 73/73/73
f 79/79/79 78/78/78 73/73/73
f 80/80/80 78/78/78 79/79/79
