g Stone_02
v -0.5345276 0.20599934 0.3244141
v -0.6221557 -3.5099E-08 0.21543613
v -0.6221557 -1.919512E-08 0.11781881
v 0.34586868 0.727501 0.32719356
v 0.34586868 0.8058824 0.13113874
v 0.3682202 0.5151567 -0.14514838
v -0.6221557 -3.5099E-08 0.21543613
v -0.5345276 0.20599934 0.3244141
v 0.14867428 0.20599931 0.54559326
v -0.47309855 0.8058824 0.15180849
v -0.6221557 0.65682524 0.15180846
v -0.6221557 0.65682524 -0.15180826
v 0.47838134 -2.4850621E-08 0.15253203
v 0.48679045 4.508957E-08 -0.2767578
v -0.08290138 6.866057E-08 -0.42143553
v 0.2956286 -5.0357897E-08 0.30909458
v -0.6221557 -1.919512E-08 0.11781881
v -0.6221557 -3.5099E-08 0.21543613
v 0.14867428 0.20599931 0.54559326
v -0.5345276 0.20599934 0.3244141
v -0.6221557 0.38719797 0.42143562
v -0.20347136 0.8992051 0.42143568
v 0.14867428 0.20599931 0.54559326
v 0.34586868 0.727501 0.32719356
v 0.6221557 0.5295953 0.42143562
v 0.6221557 0.42775214 -0.1451484
v 0.6221557 0.25330836 -0.4214355
v 0.48679045 4.508957E-08 -0.2767578
v 0.47838134 -2.4850621E-08 0.15253203
v 0.6221557 0.5295953 0.42143562
v 0.14867428 0.20599931 0.54559326
v 0.2956286 -5.0357897E-08 0.30909458
v 0.09193315 0.5151567 -0.42143548
v 0.48679045 4.508957E-08 -0.2767578
v 0.6221557 0.25330836 -0.4214355
v -0.08290138 6.866057E-08 -0.42143553
v -0.39242408 0.26665932 -0.4214355
v -0.20670547 0.67002434 -0.42143542
v -0.47309855 0.5767016 -0.42143548
v -0.6221557 0.26962718 -0.15180832
v -0.6221557 -1.919512E-08 0.11781881
v -0.6221557 0.65682524 -0.15180826
v -0.6221557 -1.919512E-08 0.11781881
v -0.6221557 0.26962718 -0.15180832
v -0.5345276 0.20599934 0.3244141
v -0.6221557 0.65682524 -0.15180826
v -0.6221557 0.65682524 -0.15180826
v -0.47309855 0.5767016 -0.42143548
v -0.47309855 0.8058824 0.15180849
v -0.20670547 0.67002434 -0.42143542
v -0.20347136 0.8992051 0.42143568
v 0.34586868 0.727501 0.32719356
v 0.34586868 0.8058824 0.13113874
v 0.09193315 0.5151567 -0.42143548
v 0.3682202 0.5151567 -0.14514838
v 0.6221557 0.5295953 0.42143562
v 0.6221557 0.42775214 -0.1451484
v 0.6221557 0.25330836 -0.4214355
v -0.20347136 0.8992051 0.42143568
v -0.6221557 0.65682524 0.15180846
v -0.47309855 0.8058824 0.15180849
v -0.6221557 0.38719797 0.42143562
v -0.5345276 0.20599934 0.3244141
v -0.6221557 0.65682524 -0.15180826
vt 0.67469436 0.96581423
vt 0.6626351 0.9615972
vt 0.65900904 0.95835745
vt 0.51205134 0.9228486
vt 0.5237255 0.9242076
vt 0.54712254 0.91464454
vt 0.6626351 0.9615972
vt 0.67469436 0.96581423
vt 0.6771048 0.9080341
vt 0.526073 0.9754064
vt 0.52942944 0.9878487
vt 0.5486032 0.9843085
vt 0.6408859 0.90059614
vt 0.6153389 0.903504
vt 0.6209115 0.9377652
vt 0.65320873 0.9077279
vt 0.65900904 0.95835745
vt 0.6626351 0.9615972
vt 0.6771048 0.9080341
vt 0.53006977 0.8436356
vt 0.53245217 0.8552846
vt 0.5602714 0.8855995
vt 0.5789176 0.835095
vt 0.5986568 0.87230176
vt 0.6169584 0.85430306
vt 0.6182797 0.87131363
vt 0.59515655 0.8902525
vt 0.6153389 0.903504
vt 0.6408859 0.90059614
vt 0.66081953 0.8646007
vt 0.6771048 0.9080341
vt 0.65320873 0.9077279
vt 0.58689207 0.9382392
vt 0.6153389 0.903504
vt 0.59515655 0.8902525
vt 0.6209115 0.9377652
vt 0.62036246 0.9603718
vt 0.59019303 0.9652469
vt 0.61066073 0.979156
vt 0.6403786 0.9698747
vt 0.65900904 0.95835745
vt 0.6334614 0.99354786
vt 0.65900904 0.95835745
vt 0.6403786 0.9698747
vt 0.67469436 0.96581423
vt 0.6334614 0.99354786
vt 0.5486032 0.9843085
vt 0.5666215 0.9740857
vt 0.526073 0.9754064
vt 0.5643558 0.9552572
vt 0.50650865 0.9595812
vt 0.51205134 0.9228486
vt 0.5237255 0.9242076
vt 0.5657916 0.93300045
vt 0.54712254 0.91464454
vt 0.50914025 0.89864784
vt 0.5480509 0.8972312
vt 0.5696112 0.8943486
vt 0.5602714 0.8855995
vt 0.52441996 0.8758812
vt 0.5339329 0.88629377
vt 0.53245217 0.8552846
vt 0.53006977 0.8436356
vt 0.5044363 0.8796716
vn -0.6378616 -0.3312711 0.695264
vn -0.645931 -0.667886 0.36973143
vn -0.72543526 -0.6872542 -0.03775531
vn 0.39845216 0.8106548 0.42903924
vn 0.23858 0.96809834 -0.07658423
vn 0.44218454 0.8189736 -0.36572543
vn -0.645931 -0.667886 0.36973143
vn -0.6378616 -0.3312711 0.695264
vn 0.07245942 -0.27287307 0.9593174
vn -0.46383858 0.8855147 0.026787387
vn -0.90093493 0.42349544 0.09469853
vn -0.8365757 0.4659847 -0.2880962
vn 0.5791494 -0.7758449 0.25030103
vn 0.5358725 -0.72637486 -0.43037203
vn -0.11424107 -0.7060339 -0.69890285
vn 0.2192633 -0.8330672 0.50786084
vn -0.72543526 -0.6872542 -0.03775531
vn -0.645931 -0.667886 0.36973143
vn 0.07245942 -0.27287307 0.9593174
vn -0.6378616 -0.3312711 0.695264
vn -0.63509357 -0.16607103 0.75437164
vn -0.11444733 0.81762314 0.56426436
vn 0.07245942 -0.27287307 0.9593174
vn 0.39845216 0.8106548 0.42903924
vn 0.7866381 0.25462103 0.5624665
vn 0.86576986 0.46219105 -0.19189057
vn 0.72498685 0.07215158 -0.6849732
vn 0.5358725 -0.72637486 -0.43037203
vn 0.5791494 -0.7758449 0.25030103
vn 0.7866381 0.25462103 0.5624665
vn 0.07245942 -0.27287307 0.9593174
vn 0.2192633 -0.8330672 0.50786084
vn 0.2714573 0.36534154 -0.8904137
vn 0.5358725 -0.72637486 -0.43037203
vn 0.72498685 0.07215158 -0.6849732
vn -0.11424107 -0.7060339 -0.69890285
vn -0.44945893 -0.26779783 -0.8522153
vn 0.051189445 0.64901745 -0.7590494
vn -0.48780313 0.3827676 -0.78456175
vn -0.92186284 -0.23082481 -0.3112695
vn -0.72543526 -0.6872542 -0.03775531
vn -0.8365757 0.4659847 -0.2880962
vn -0.72543526 -0.6872542 -0.03775531
vn -0.92186284 -0.23082481 -0.3112695
vn -0.6378616 -0.3312711 0.695264
vn -0.8365757 0.4659847 -0.2880962
vn -0.8365757 0.4659847 -0.2880962
vn -0.48780313 0.3827676 -0.78456175
vn -0.46383858 0.8855147 0.026787387
vn 0.051189445 0.64901745 -0.7590494
vn -0.11444733 0.81762314 0.56426436
vn 0.39845216 0.8106548 0.42903924
vn 0.23858 0.96809834 -0.07658423
vn 0.2714573 0.36534154 -0.8904137
vn 0.44218454 0.8189736 -0.36572543
vn 0.7866381 0.25462103 0.5624665
vn 0.86576986 0.46219105 -0.19189057
vn 0.72498685 0.07215158 -0.6849732
vn -0.11444733 0.81762314 0.56426436
vn -0.90093493 0.42349544 0.09469853
vn -0.46383858 0.8855147 0.026787387
vn -0.63509357 -0.16607103 0.75437164
vn -0.6378616 -0.3312711 0.695264
vn -0.8365757 0.4659847 -0.2880962
g Stone_02_0
f 3/3/3 2/2/2 1/1/1
f 6/6/6 5/5/5 4/4/4
f 9/9/9 8/8/8 7/7/7
f 12/12/12 11/11/11 10/10/10
f 15/15/15 14/14/14 13/13/13
f 13/13/13 16/16/16 15/15/15
f 16/16/16 17/17/17 15/15/15
f 16/16/16 18/18/18 17/17/17
f 18/18/18 16/16/16 19/19/19
f 22/22/22 21/21/21 20/20/20
f 23/23/23 22/22/22 20/20/20
f 24/24/24 22/22/22 23/23/23
f 25/25/25 24/24/24 23/23/23
f 28/28/28 27/27/27 26/26/26
f 26/26/26 29/29/29 28/28/28
f 26/26/26 30/30/30 29/29/29
f 29/29/29 30/30/30 31/31/31
f 31/31/31 32/32/32 29/29/29
f 35/35/35 34/34/34 33/33/33
f 36/36/36 33/33/33 34/34/34
f 33/33/33 36/36/36 37/37/37
f 37/37/37 38/38/38 33/33/33
f 37/37/37 39/39/39 38/38/38
f 40/40/40 37/37/37 36/36/36
f 39/39/39 37/37/37 40/40/40
f 36/36/36 41/41/41 40/40/40
f 40/40/40 42/42/42 39/39/39
f 45/45/45 44/44/44 43/43/43
f 46/46/46 44/44/44 45/45/45
f 49/49/49 48/48/48 47/47/47
f 49/49/49 50/50/50 48/48/48
f 49/49/49 51/51/51 50/50/50
f 52/52/52 50/50/50 51/51/51
f 53/53/53 50/50/50 52/52/52
f 53/53/53 54/54/54 50/50/50
f 53/53/53 55/55/55 54/54/54
f 55/55/55 52/52/52 56/56/56
f 57/57/57 55/55/55 56/56/56
f 54/54/54 55/55/55 57/57/57
f 58/58/58 54/54/54 57/57/57
f 61/61/61 60/60/60 59/59/59
f 60/60/60 62/62/62 59/59/59
f 63/63/63 62/62/62 60/60/60
f 63/63/63 60/60/60 64/64/64
