g Sword_LOD0
v 0.022870025 0.024967548 0.10299378
v -0 0.03400669 0.10367591
v -0 0.030613698 0.010258407
v 0.020370178 0.02250082 0.0093535995
v -0 0.035509255 -0.0830574
v 0.027334899 1.7369082E-05 0.010566444
v 0.031434022 1.7351624E-05 -0.08286551
v 0.030640868 1.7382097E-05 0.104183555
v 0.022870025 -0.024932785 0.102993794
v 0.023388823 0.026124854 -0.084429964
v -0 0.050655834 -0.09340109
v 0.020370178 -0.022466043 0.0093535995
v 0.033549804 0.035289437 -0.09367382
v -0 -0.030578928 0.010258427
v -0 -0.033971928 0.10367593
v -0 -0.03547446 -0.0830574
v 0.023388823 -0.026090063 -0.084429964
v -0 -0.05062104 -0.09340109
v 0.033549804 -0.035254646 -0.09367382
v 0.038200684 0.04030928 -0.12172823
v -0 0.05643247 -0.1218942
v 0.0461734 1.734996E-05 -0.09307476
v 0.053603362 1.7344139E-05 -0.12104372
v 0.05333145 1.7340833E-05 -0.14909242
v 0.038200684 -0.04027454 -0.12172823
v -0 -0.05639773 -0.1218942
v -0 -0.054068744 -0.15034486
v 0.037362974 0.039540015 -0.149764
v -0 0.054103427 -0.15034486
v 0.037362974 -0.039505333 -0.149764
v -0 -0.04293752 -0.16012998
v 0.030076599 0.03140434 -0.15980978
v -0 0.042972244 -0.16012998
v 0.030076599 -0.03136966 -0.15980978
v 0.026864776 0.027602548 -0.16831067
v -0 0.037776206 -0.16843458
v -0 0.035067283 -0.17025702
v 0.04346954 1.7339578E-05 -0.15957128
v 0.026864776 -0.02756787 -0.16831067
v -0 -0.037741445 -0.16843458
v 0.025051117 0.025653083 -0.17015845
v -0 1.733639E-05 -0.17637075
v 0.03940277 1.733776E-05 -0.16839674
v 0.03689102 1.7337376E-05 -0.17030989
v 0.025051117 -0.025618404 -0.17015845
v -0 -0.03503252 -0.17025702
v -0.022869872 0.024967548 0.10299378
v -0 0.030613698 0.010258407
v -0 0.03400669 0.10367591
v -0.020370178 0.02250082 0.0093535995
v -0 0.035509255 -0.0830574
v -0.027334899 1.7369082E-05 0.010566444
v -0.031434022 1.7351624E-05 -0.08286551
v -0.030640868 1.7382097E-05 0.104183555
v -0.022869872 -0.024932785 0.102993794
v -0.023388823 0.026124854 -0.084429964
v -0 0.050655834 -0.09340109
v -0.020370178 -0.022466043 0.0093535995
v -0.033549804 0.035289437 -0.09367382
v -0 -0.030578928 0.010258427
v -0 -0.033971928 0.10367593
v -0 -0.03547446 -0.0830574
v -0.023388823 -0.026090063 -0.084429964
v -0 -0.05062104 -0.09340109
v -0.033549804 -0.035254646 -0.09367382
v -0.038200684 0.04030928 -0.12172823
v -0 0.05643247 -0.1218942
v -0 0.054103427 -0.15034486
v -0.0461734 1.734996E-05 -0.09307476
v -0.053603515 1.7344139E-05 -0.12104372
v -0.05333145 1.7340833E-05 -0.14909242
v -0.038200684 -0.04027454 -0.12172823
v -0 -0.05639773 -0.1218942
v -0.03736282 0.039540015 -0.149764
v -0 0.042972244 -0.16012998
v -0.03736282 -0.039505333 -0.149764
v -0 -0.054068744 -0.15034486
v -0.030076446 -0.03136966 -0.15980978
v -0 -0.04293752 -0.16012998
v -0.030076446 0.03140434 -0.15980978
v -0.026864624 -0.02756787 -0.16831067
v -0 -0.037741445 -0.16843458
v -0 -0.03503252 -0.17025702
v -0.043469694 1.7339578E-05 -0.15957128
v -0.026864624 0.027602548 -0.16831067
v -0 0.037776206 -0.16843458
v -0.025050964 -0.0256184 -0.17015845
v -0 1.733639E-05 -0.17637075
v -0.03940277 1.733776E-05 -0.16839674
v -0.03689102 1.7337376E-05 -0.17030989
v -0.025050964 0.025653077 -0.17015845
v -0 0.035067283 -0.17025702
v 0.017839966 5.001854E-07 0.2799792
v 0.022298431 4.8126094E-09 0.11991254
v -1.5258789E-07 -0.057079744 0.12124557
v -1.5258789E-07 0.057128105 0.12122818
v -1.5258789E-07 0.059122324 0.2797243
v -1.5258789E-07 -0.059088983 0.27972907
v -1.5258789E-07 0.06569162 0.43821532
v 0.013983612 5.6969E-08 0.44006053
v -1.5258789E-07 -0.06567269 0.43820783
v 0.008380432 -1.4672232E-05 0.48847204
v -1.5258789E-07 0.039219946 0.48797375
v -1.5258789E-07 -0.039004177 0.48797
v -1.5258789E-07 0.0001964742 0.5377321
v -0 -4.980393E-09 0.059805136
v -0 -0.07116418 0.05990033
v 0.04732376 -0.0675715 0.063390285
v -0 -0.12240698 0.06275048
v 0.047891997 -4.2780446E-09 0.06411623
v -0 0.07116047 0.05990031
v 0.046223298 -0.12476984 0.06652976
v 0.046457365 -0.12869868 0.10193019
v -0 -0.13087729 0.10226638
v 0.04883148 -0.07240382 0.101411216
v 0.047029264 -0.12405978 0.11976903
v -0 -0.12952362 0.11848863
v 0.04652008 -0.07068456 0.12247111
v -0 -0.06256997 0.126372
v 0.048044432 1.5598197E-09 0.09994876
v 0.04610016 5.2633546E-09 0.12268109
v -0 5.878828E-09 0.12645887
v 0.04883148 0.07240382 0.10141119
v 0.04652008 0.07068457 0.122471064
v -0 0.062569976 0.12637196
v 0.04732376 0.0675715 0.06339026
v 0.047029264 0.12405979 0.11976899
v -0 0.12952365 0.11848857
v 0.046457365 0.12869875 0.10193016
v -0 0.13087729 0.1022663
v 0.046223298 0.124769844 0.06652969
v -0 0.12240996 0.06275119
v -1.5258789E-07 -0.057079744 0.12124557
v -0.022298736 4.8126094E-09 0.11991254
v -0.017839966 5.001854E-07 0.2799792
v -1.5258789E-07 -0.059088983 0.27972907
v -1.5258789E-07 0.057128105 0.12122818
v -1.5258789E-07 0.059122324 0.2797243
v -1.5258789E-07 0.06569162 0.43821532
v -1.5258789E-07 -0.06567269 0.43820783
v -0.0139839165 5.6969E-08 0.44006053
v -1.5258789E-07 0.039219946 0.48797375
v -0.008380737 -1.4672232E-05 0.48847204
v -1.5258789E-07 -0.039004177 0.48797
v -1.5258789E-07 0.0001964742 0.5377321
v -0 -4.980393E-09 0.059805136
v -0.047323607 -0.0675715 0.063390285
v -0 -0.07116418 0.05990033
v -0 -0.12240698 0.06275048
v -0.047891997 -4.2780446E-09 0.06411623
v -0 0.07116047 0.05990031
v -0.046223298 -0.12476984 0.06652976
v -0.046457212 -0.12869868 0.10193019
v -0 -0.13087729 0.10226638
v -0.04883133 -0.07240382 0.101411216
v -0.047029264 -0.12405978 0.11976903
v -0 -0.12952362 0.11848863
v -0.046519928 -0.07068456 0.12247111
v -0 -0.06256997 0.126372
v -0.048044432 1.5598197E-09 0.09994876
v -0.04610016 5.2633546E-09 0.12268109
v -0 5.878828E-09 0.12645887
v -0.04883133 0.07240382 0.10141119
v -0.046519928 0.07068457 0.122471064
v -0 0.062569976 0.12637196
v -0.047323607 0.0675715 0.06339026
v -0.046457212 0.12869875 0.10193016
v -0.047029264 0.12405979 0.11976899
v -0 0.12952365 0.11848857
v -0 0.13087729 0.1022663
v -0.046223298 0.124769844 0.06652969
v -0 0.12240996 0.06275119
vt 0.5100033 0.4369969
vt 0.5206905 0.43631795
vt 0.52269286 0.47692603
vt 0.5113903 0.4778902
vt 0.5246952 0.51753414
vt 0.49857682 0.47723585
vt 0.49857214 0.51787364
vt 0.4985815 0.4365981
vt 0.48715952 0.4369969
vt 0.51277727 0.51878345
vt 0.52937514 0.5256214
vt 0.48576105 0.47789228
vt 0.5138658 0.52562594
vt 0.47445855 0.47692809
vt 0.47647247 0.43631795
vt 0.47244462 0.5175382
vt 0.48436257 0.5187876
vt 0.46776935 0.5256306
vt 0.4832833 0.52562594
vt 0.5139576 0.5374451
vt 0.5291915 0.5398379
vt 0.49857214 0.5246155
vt 0.49857447 0.53597087
vt 0.4985768 0.5473262
vt 0.48319373 0.53744733
vt 0.46795997 0.53984934
vt 0.4681506 0.5540681
vt 0.5140495 0.5492643
vt 0.5290078 0.5540544
vt 0.48310414 0.5492687
vt 0.47337243 0.56025237
vt 0.51204705 0.5541167
vt 0.5237905 0.5602384
vt 0.48511118 0.5541232
vt 0.5103522 0.5582239
vt 0.5193783 0.56546825
vt 0.51761717 0.5666929
vt 0.49857914 0.5517557
vt 0.48680997 0.5582321
vt 0.4777885 0.5654824
vt 0.50950795 0.559583
vt 0.49858603 0.57207584
vt 0.49858114 0.55549705
vt 0.4985817 0.55691034
vt 0.4876553 0.5595912
vt 0.47955057 0.5667064
vt 0.5100033 0.4369969
vt 0.52269286 0.47692603
vt 0.5206905 0.43631795
vt 0.51139027 0.4778902
vt 0.5246952 0.51753414
vt 0.49857682 0.47723585
vt 0.49857214 0.51787364
vt 0.4985815 0.4365981
vt 0.48715952 0.4369969
vt 0.51277727 0.51878345
vt 0.52937514 0.5256214
vt 0.48576105 0.47789228
vt 0.5138658 0.52562594
vt 0.47445855 0.47692809
vt 0.47647247 0.43631795
vt 0.47244462 0.5175382
vt 0.48436257 0.5187876
vt 0.46776935 0.5256306
vt 0.4832833 0.52562594
vt 0.5139576 0.5374451
vt 0.5291915 0.5398379
vt 0.5290078 0.5540544
vt 0.49857214 0.5246155
vt 0.49857447 0.53597087
vt 0.4985768 0.5473262
vt 0.48319373 0.53744733
vt 0.46795997 0.53984934
vt 0.5140495 0.5492643
vt 0.5237905 0.5602384
vt 0.48310414 0.5492687
vt 0.4681506 0.5540681
vt 0.48511118 0.5541232
vt 0.47337243 0.56025237
vt 0.51204705 0.5541167
vt 0.48680997 0.5582321
vt 0.4777885 0.5654824
vt 0.47955057 0.5667064
vt 0.49857914 0.5517557
vt 0.5103522 0.5582239
vt 0.5193783 0.56546825
vt 0.4876553 0.5595912
vt 0.49858603 0.57207584
vt 0.49858114 0.55549705
vt 0.4985817 0.55691034
vt 0.50950795 0.559583
vt 0.51761717 0.5666929
vt 0.40569058 0.3834678
vt 0.4054259 0.44203553
vt 0.38255244 0.44061494
vt 0.42806596 0.44094282
vt 0.42899942 0.38220334
vt 0.3822718 0.38187236
vt 0.4299329 0.32346383
vt 0.40595526 0.3249001
vt 0.38199112 0.3231298
vt 0.40603924 0.3068032
vt 0.41804832 0.2995472
vt 0.39407745 0.29938018
vt 0.40616375 0.2756306
vt 0.35101724 0.47622707
vt 0.3504603 0.50364953
vt 0.3351252 0.49931675
vt 0.3423339 0.5251283
vt 0.33439314 0.4771986
vt 0.34738111 0.44904375
vt 0.3322568 0.5164054
vt 0.32383418 0.5185449
vt 0.32381284 0.53298324
vt 0.32233393 0.5009528
vt 0.32093728 0.5172913
vt 0.3126359 0.5287289
vt 0.31540036 0.50164926
vt 0.29982638 0.5038569
vt 0.3213657 0.4779523
vt 0.3127321 0.4784524
vt 0.29671872 0.47938114
vt 0.3196653 0.45499843
vt 0.3127036 0.4551055
vt 0.2969687 0.4547127
vt 0.33255708 0.4551449
vt 0.3163972 0.43892774
vt 0.30683494 0.42852962
vt 0.3191334 0.43734902
vt 0.3174473 0.42301077
vt 0.32774913 0.43849915
vt 0.33675432 0.42868313
vt 0.38255244 0.44061494
vt 0.4054259 0.44203553
vt 0.40569058 0.3834678
vt 0.3822718 0.38187236
vt 0.42806596 0.44094282
vt 0.42899942 0.38220334
vt 0.4299329 0.32346383
vt 0.38199112 0.3231298
vt 0.40595526 0.3249001
vt 0.41804832 0.2995472
vt 0.40603924 0.3068032
vt 0.39407745 0.29938018
vt 0.40616375 0.2756306
vt 0.35101724 0.47622707
vt 0.3351252 0.49931675
vt 0.3504603 0.50364953
vt 0.3423339 0.5251283
vt 0.33439314 0.4771986
vt 0.34738111 0.44904375
vt 0.3322568 0.5164054
vt 0.32383418 0.5185449
vt 0.32381284 0.53298324
vt 0.32233393 0.5009528
vt 0.32093728 0.5172913
vt 0.3126359 0.5287289
vt 0.31540036 0.50164926
vt 0.29982638 0.5038569
vt 0.3213657 0.4779523
vt 0.3127321 0.4784524
vt 0.29671872 0.47938114
vt 0.3196653 0.45499843
vt 0.3127036 0.4551055
vt 0.2969687 0.4547127
vt 0.33255708 0.4551449
vt 0.3191334 0.43734902
vt 0.3163972 0.43892774
vt 0.30683494 0.42852962
vt 0.3174473 0.42301077
vt 0.32774913 0.43849915
vt 0.33675432 0.42868313
vn 0.73485357 0.67719173 -0.037437364
vn -5.8652097E-07 0.99933064 -0.036584225
vn -3.1359613E-07 0.9999784 0.0065749614
vn 0.73515636 0.67785466 0.0076308902
vn -0 0.84660655 0.5322191
vn 0.9999949 -2.3677337E-07 0.0032119777
vn 0.8588546 -4.1092952E-07 0.5122195
vn 0.9993855 -1.1324351E-07 -0.0350518
vn 0.73485345 -0.6771919 -0.0374374
vn 0.606225 0.56363887 0.5610725
vn -0 0.85111487 0.52497935
vn 0.7351563 -0.6778547 0.007630836
vn 0.6210331 0.5807276 0.52637774
vn -2.9336414E-07 -0.9999784 0.0065747746
vn -5.8652125E-07 -0.99933064 -0.036584336
vn -0 -0.84660673 0.53221893
vn 0.60622483 -0.56363934 0.56107247
vn -0 -0.85111445 0.52498007
vn 0.62103266 -0.58072746 0.5263782
vn 0.71425307 0.69381493 0.09199696
vn -1.9360681E-07 0.9969489 0.07805777
vn 0.8414797 -2.8324405E-07 0.5402887
vn 0.99421096 -2.0060652E-07 0.10744627
vn 0.9322107 0 -0.36191615
vn 0.7142528 -0.693815 0.09199811
vn -1.8285083E-07 -0.99694866 0.07805964
vn -4.071438E-07 -0.91322637 -0.40745246
vn 0.6545814 0.6508047 -0.3846769
vn -4.248453E-07 0.91322607 -0.40745315
vn 0.6545813 -0.65080506 -0.38467658
vn -6.57526E-07 -0.7542111 -0.656632
vn 0.5449472 0.5461221 -0.6362258
vn -6.3317316E-07 0.7542118 -0.6566312
vn 0.54494673 -0.5461219 -0.6362264
vn 0.53372324 0.5487495 -0.6434388
vn -6.5351685E-07 0.74682176 -0.6650243
vn -4.4141734E-07 0.4171383 -0.908843
vn 0.7940543 0 -0.60784686
vn 0.53372246 -0.5487496 -0.64343935
vn -6.848848E-07 -0.74682117 -0.665025
vn 0.29469186 0.3107382 -0.90365833
vn -1.953141E-07 -1.3714846E-07 -1
vn 0.7804159 0 -0.6252608
vn 0.4332026 0 -0.9012966
vn 0.29469135 -0.31073862 -0.90365845
vn -4.514494E-07 -0.41713834 -0.9088431
vn -0.73485273 0.6771926 -0.03743673
vn -3.1359613E-07 0.9999784 0.0065749614
vn -5.8652097E-07 0.99933064 -0.036584225
vn -0.73515624 0.6778548 0.0076311803
vn -0 0.84660655 0.5322191
vn -0.9999949 -2.4663905E-07 0.0032123919
vn -0.85885453 -3.8556348E-07 0.5122196
vn -0.9993855 -1.4412826E-07 -0.03505103
vn -0.7348526 -0.67719275 -0.03743677
vn -0.6062251 0.56363887 0.5610725
vn -0 0.85111487 0.52497935
vn -0.73515606 -0.6778549 0.0076311226
vn -0.62103236 0.58072776 0.52637815
vn -2.9336414E-07 -0.9999784 0.0065747746
vn -5.8652125E-07 -0.99933064 -0.036584336
vn -0 -0.84660673 0.53221893
vn -0.60622483 -0.5636392 0.56107247
vn -0 -0.85111445 0.52498007
vn -0.621032 -0.58072764 0.5263787
vn -0.7142527 0.6938154 0.09199593
vn -1.9360681E-07 0.9969489 0.07805777
vn -4.248453E-07 0.91322607 -0.40745315
vn -0.8414789 -2.6058433E-07 0.5402899
vn -0.9942111 -2.2172367E-07 0.10744484
vn -0.9322101 0 -0.36191761
vn -0.7142525 -0.69381547 0.091997065
vn -1.8285083E-07 -0.99694866 0.07805964
vn -0.65458006 0.6508057 -0.38467756
vn -6.3317316E-07 0.7542118 -0.6566312
vn -0.65457994 -0.6508061 -0.38467717
vn -4.071438E-07 -0.91322637 -0.40745246
vn -0.54494584 -0.54612345 -0.6362259
vn -6.57526E-07 -0.7542111 -0.656632
vn -0.5449463 0.54612356 -0.6362252
vn -0.53372025 -0.54875034 -0.6434406
vn -6.848848E-07 -0.74682117 -0.665025
vn -4.514494E-07 -0.41713834 -0.9088431
vn -0.79405266 0 -0.607849
vn -0.533721 0.54875016 -0.6434401
vn -6.5351685E-07 0.74682176 -0.6650243
vn -0.29469088 -0.31073907 -0.90365845
vn -1.953141E-07 -1.3714846E-07 -1
vn -0.78041303 0 -0.6252644
vn -0.43320242 0 -0.9012967
vn -0.29469138 0.31073862 -0.90365833
vn -4.4141734E-07 0.4171383 -0.908843
vn 0.9999567 -7.7850455E-05 0.009306236
vn 0.99993014 -7.243656E-05 0.011825296
vn 0.9451445 -0.32646146 0.011169726
vn 0.9452137 0.3262607 0.011185882
vn 0.9580641 0.28641644 0.0088857105
vn 0.9580211 -0.2865603 0.008870482
vn 0.9714001 0.23222914 0.049512513
vn 0.9981018 -0.00013681265 0.061586812
vn 0.97132385 -0.23252341 0.04962722
vn 0.99000776 -0.00074331235 0.14101058
vn 0.96950847 0.2091504 0.12770808
vn 0.9692414 -0.20988743 0.12852363
vn 0.985835 0.0003366899 0.16771793
vn -0 -1.930541E-07 -1
vn -0 -0.027289424 -0.9996276
vn 0.7204046 -0.025331778 -0.6930913
vn -0 -0.6404068 -0.7680359
vn 0.73167324 -1.3072595E-07 -0.6816555
vn -0 0.027289156 -0.9996276
vn 0.58707625 -0.56206423 -0.58260226
vn 0.67191875 -0.74056363 0.009526578
vn -0 -0.9999863 0.0052442453
vn 0.9996762 -0.010695647 0.023087012
vn 0.61624444 -0.49687946 0.61102676
vn -0 -0.70364696 0.7105498
vn 0.69358444 -0.035689455 0.71949077
vn -0 -0.040029254 0.9991985
vn 0.9993406 0 0.036310367
vn 0.7003148 1.6513005E-07 0.7138341
vn -0 2.322235E-07 1
vn 0.9996762 0.010695646 0.023087036
vn 0.6935846 0.035689693 0.7194905
vn -0 0.040029634 0.9991985
vn 0.7204032 0.025333544 -0.69309264
vn 0.61624455 0.49687883 0.6110271
vn -0 0.70364654 0.7105501
vn 0.6719223 0.7405602 0.009540047
vn -0 0.9999862 0.0052626636
vn 0.5870847 0.5620587 -0.582599
vn -0 0.6404391 -0.76800895
vn -0.9451452 -0.3264592 0.011170652
vn -0.99993014 -7.2416056E-05 0.011826271
vn -0.9999567 -7.786028E-05 0.009306259
vn -0.95802176 -0.286558 0.0088704955
vn -0.94521445 0.32625848 0.011186812
vn -0.95806473 0.28641418 0.008885727
vn -0.97140044 0.23222782 0.049512
vn -0.97132415 -0.23252206 0.049626693
vn -0.9981018 -0.00013681262 0.06158635
vn -0.96950847 0.20915043 0.12770808
vn -0.99000776 -0.0007433075 0.14101058
vn -0.9692414 -0.20988743 0.12852363
vn -0.985835 0.0003366899 0.16771793
vn -0 -1.930541E-07 -1
vn -0.72040445 -0.025332166 -0.69309133
vn -0 -0.027289424 -0.9996276
vn -0 -0.6404068 -0.7680359
vn -0.7316736 -1.3062632E-07 -0.68165505
vn -0 0.027289156 -0.9996276
vn -0.5870778 -0.56206346 -0.58260137
vn -0.6719178 -0.7405644 0.009526067
vn -0 -0.9999863 0.0052442453
vn -0.9996762 -0.010695885 0.023086522
vn -0.6162467 -0.4968781 0.61102545
vn -0 -0.70364696 0.7105498
vn -0.6935845 -0.035689842 0.7194905
vn -0 -0.040029254 0.9991985
vn -0.9993406 0 0.036310337
vn -0.70031536 1.6469595E-07 0.7138336
vn -0 2.322235E-07 1
vn -0.9996762 0.01069588 0.023086544
vn -0.6935847 0.03569007 0.71949047
vn -0 0.040029634 0.9991985
vn -0.72040313 0.025333937 -0.69309276
vn -0.6719215 0.74056095 0.0095395455
vn -0.616247 0.4968775 0.6110257
vn -0 0.70364654 0.7105501
vn -0 0.9999862 0.0052626636
vn -0.58708626 0.56205785 -0.58259815
vn -0 0.6404391 -0.76800895
g Sword_LOD0_0
f 3/3/3 2/2/2 1/1/1
f 4/4/4 3/3/3 1/1/1
f 5/5/5 3/3/3 4/4/4
f 4/4/4 1/1/1 6/6/6
f 4/4/4 6/6/6 7/7/7
f 1/1/1 8/8/8 6/6/6
f 6/6/6 8/8/8 9/9/9
f 10/10/10 5/5/5 4/4/4
f 10/10/10 4/4/4 7/7/7
f 11/11/11 5/5/5 10/10/10
f 12/12/12 6/6/6 9/9/9
f 7/7/7 6/6/6 12/12/12
f 13/13/13 11/11/11 10/10/10
f 13/13/13 10/10/10 7/7/7
f 14/14/14 12/12/12 9/9/9
f 15/15/15 14/14/14 9/9/9
f 12/12/12 14/14/14 16/16/16
f 17/17/17 12/12/12 16/16/16
f 17/17/17 7/7/7 12/12/12
f 16/16/16 18/18/18 17/17/17
f 17/17/17 19/19/19 7/7/7
f 18/18/18 19/19/19 17/17/17
f 11/11/11 13/13/13 20/20/20
f 21/21/21 11/11/11 20/20/20
f 22/22/22 13/13/13 7/7/7
f 19/19/19 22/22/22 7/7/7
f 22/22/22 23/23/23 13/13/13
f 22/22/22 19/19/19 23/23/23
f 23/23/23 20/20/20 13/13/13
f 20/20/20 23/23/23 24/24/24
f 25/25/25 19/19/19 18/18/18
f 19/19/19 25/25/25 23/23/23
f 23/23/23 25/25/25 24/24/24
f 26/26/26 25/25/25 18/18/18
f 25/25/25 26/26/26 27/27/27
f 21/21/21 20/20/20 28/28/28
f 28/28/28 20/20/20 24/24/24
f 29/29/29 21/21/21 28/28/28
f 30/30/30 25/25/25 27/27/27
f 25/25/25 30/30/30 24/24/24
f 27/27/27 31/31/31 30/30/30
f 28/28/28 32/32/32 29/29/29
f 32/32/32 28/28/28 24/24/24
f 32/32/32 33/33/33 29/29/29
f 30/30/30 34/34/34 24/24/24
f 31/31/31 34/34/34 30/30/30
f 32/32/32 35/35/35 33/33/33
f 35/35/35 36/36/36 33/33/33
f 37/37/37 36/36/36 35/35/35
f 38/38/38 32/32/32 24/24/24
f 34/34/34 38/38/38 24/24/24
f 35/35/35 32/32/32 38/38/38
f 34/34/34 31/31/31 39/39/39
f 38/38/38 34/34/34 39/39/39
f 31/31/31 40/40/40 39/39/39
f 41/41/41 37/37/37 35/35/35
f 37/37/37 41/41/41 42/42/42
f 43/43/43 35/35/35 38/38/38
f 41/41/41 35/35/35 43/43/43
f 43/43/43 38/38/38 39/39/39
f 44/44/44 41/41/41 43/43/43
f 41/41/41 44/44/44 42/42/42
f 44/44/44 43/43/43 39/39/39
f 45/45/45 39/39/39 40/40/40
f 45/45/45 44/44/44 39/39/39
f 44/44/44 45/45/45 42/42/42
f 46/46/46 45/45/45 40/40/40
f 45/45/45 46/46/46 42/42/42
f 49/49/49 48/48/48 47/47/47
f 48/48/48 50/50/50 47/47/47
f 50/50/50 48/48/48 51/51/51
f 50/50/50 52/52/52 47/47/47
f 53/53/53 52/52/52 50/50/50
f 52/52/52 54/54/54 47/47/47
f 55/55/55 54/54/54 52/52/52
f 56/56/56 50/50/50 51/51/51
f 56/56/56 53/53/53 50/50/50
f 51/51/51 57/57/57 56/56/56
f 58/58/58 55/55/55 52/52/52
f 58/58/58 52/52/52 53/53/53
f 57/57/57 59/59/59 56/56/56
f 56/56/56 59/59/59 53/53/53
f 58/58/58 60/60/60 55/55/55
f 60/60/60 61/61/61 55/55/55
f 62/62/62 60/60/60 58/58/58
f 63/63/63 62/62/62 58/58/58
f 63/63/63 58/58/58 53/53/53
f 64/64/64 62/62/62 63/63/63
f 65/65/65 63/63/63 53/53/53
f 65/65/65 64/64/64 63/63/63
f 66/66/66 59/59/59 57/57/57
f 67/67/67 66/66/66 57/57/57
f 66/66/66 67/67/67 68/68/68
f 59/59/59 69/69/69 53/53/53
f 69/69/69 65/65/65 53/53/53
f 69/69/69 59/59/59 70/70/70
f 69/69/69 70/70/70 65/65/65
f 59/59/59 66/66/66 70/70/70
f 70/70/70 66/66/66 71/71/71
f 64/64/64 65/65/65 72/72/72
f 70/70/70 72/72/72 65/65/65
f 72/72/72 70/70/70 71/71/71
f 73/73/73 64/64/64 72/72/72
f 74/74/74 66/66/66 68/68/68
f 66/66/66 74/74/74 71/71/71
f 68/68/68 75/75/75 74/74/74
f 73/73/73 72/72/72 76/76/76
f 76/76/76 72/72/72 71/71/71
f 77/77/77 73/73/73 76/76/76
f 76/76/76 78/78/78 77/77/77
f 78/78/78 76/76/76 71/71/71
f 78/78/78 79/79/79 77/77/77
f 74/74/74 80/80/80 71/71/71
f 75/75/75 80/80/80 74/74/74
f 78/78/78 81/81/81 79/79/79
f 81/81/81 82/82/82 79/79/79
f 83/83/83 82/82/82 81/81/81
f 84/84/84 78/78/78 71/71/71
f 80/80/80 84/84/84 71/71/71
f 81/81/81 78/78/78 84/84/84
f 80/80/80 75/75/75 85/85/85
f 84/84/84 80/80/80 85/85/85
f 75/75/75 86/86/86 85/85/85
f 87/87/87 83/83/83 81/81/81
f 83/83/83 87/87/87 88/88/88
f 89/89/89 81/81/81 84/84/84
f 87/87/87 81/81/81 89/89/89
f 89/89/89 84/84/84 85/85/85
f 90/90/90 87/87/87 89/89/89
f 87/87/87 90/90/90 88/88/88
f 90/90/90 89/89/89 85/85/85
f 91/91/91 85/85/85 86/86/86
f 91/91/91 90/90/90 85/85/85
f 90/90/90 91/91/91 88/88/88
f 92/92/92 91/91/91 86/86/86
f 91/91/91 92/92/92 88/88/88
f 95/95/95 94/94/94 93/93/93
f 94/94/94 96/96/96 93/93/93
f 96/96/96 97/97/97 93/93/93
f 98/98/98 95/95/95 93/93/93
f 97/97/97 99/99/99 93/93/93
f 98/98/98 93/93/93 100/100/100
f 99/99/99 100/100/100 93/93/93
f 101/101/101 98/98/98 100/100/100
f 100/100/100 99/99/99 102/102/102
f 101/101/101 100/100/100 102/102/102
f 99/99/99 103/103/103 102/102/102
f 104/104/104 101/101/101 102/102/102
f 102/102/102 103/103/103 105/105/105
f 105/105/105 104/104/104 102/102/102
f 108/108/108 107/107/107 106/106/106
f 107/107/107 108/108/108 109/109/109
f 110/110/110 108/108/108 106/106/106
f 106/106/106 111/111/111 110/110/110
f 108/108/108 112/112/112 109/109/109
f 109/109/109 112/112/112 113/113/113
f 114/114/114 109/109/109 113/113/113
f 112/112/112 108/108/108 115/115/115
f 113/113/113 112/112/112 115/115/115
f 114/114/114 113/113/113 116/116/116
f 116/116/116 113/113/113 115/115/115
f 117/117/117 114/114/114 116/116/116
f 117/117/117 116/116/116 118/118/118
f 118/118/118 116/116/116 115/115/115
f 119/119/119 117/117/117 118/118/118
f 120/120/120 115/115/115 108/108/108
f 118/118/118 115/115/115 120/120/120
f 110/110/110 120/120/120 108/108/108
f 119/119/119 118/118/118 121/121/121
f 121/121/121 118/118/118 120/120/120
f 122/122/122 119/119/119 121/121/121
f 123/123/123 120/120/120 110/110/110
f 120/120/120 123/123/123 121/121/121
f 121/121/121 124/124/124 122/122/122
f 123/123/123 124/124/124 121/121/121
f 124/124/124 125/125/125 122/122/122
f 126/126/126 123/123/123 110/110/110
f 111/111/111 126/126/126 110/110/110
f 124/124/124 127/127/127 125/125/125
f 127/127/127 128/128/128 125/125/125
f 123/123/123 129/129/129 124/124/124
f 129/129/129 127/127/127 124/124/124
f 127/127/127 129/129/129 128/128/128
f 123/123/123 126/126/126 129/129/129
f 129/129/129 130/130/130 128/128/128
f 131/131/131 126/126/126 111/111/111
f 126/126/126 131/131/131 129/129/129
f 129/129/129 131/131/131 130/130/130
f 132/132/132 131/131/131 111/111/111
f 131/131/131 132/132/132 130/130/130
f 135/135/135 134/134/134 133/133/133
f 136/136/136 135/135/135 133/133/133
f 134/134/134 135/135/135 137/137/137
f 135/135/135 138/138/138 137/137/137
f 138/138/138 135/135/135 139/139/139
f 135/135/135 136/136/136 140/140/140
f 135/135/135 141/141/141 139/139/139
f 141/141/141 135/135/135 140/140/140
f 139/139/139 141/141/141 142/142/142
f 143/143/143 141/141/141 140/140/140
f 141/141/141 143/143/143 142/142/142
f 144/144/144 143/143/143 140/140/140
f 142/142/142 143/143/143 145/145/145
f 145/145/145 143/143/143 144/144/144
f 148/148/148 147/147/147 146/146/146
f 147/147/147 148/148/148 149/149/149
f 147/147/147 150/150/150 146/146/146
f 151/151/151 146/146/146 150/150/150
f 152/152/152 147/147/147 149/149/149
f 152/152/152 149/149/149 153/153/153
f 149/149/149 154/154/154 153/153/153
f 147/147/147 152/152/152 155/155/155
f 152/152/152 153/153/153 155/155/155
f 153/153/153 154/154/154 156/156/156
f 153/153/153 156/156/156 155/155/155
f 154/154/154 157/157/157 156/156/156
f 156/156/156 157/157/157 158/158/158
f 156/156/156 158/158/158 155/155/155
f 157/157/157 159/159/159 158/158/158
f 155/155/155 160/160/160 147/147/147
f 155/155/155 158/158/158 160/160/160
f 160/160/160 150/150/150 147/147/147
f 158/158/158 159/159/159 161/161/161
f 158/158/158 161/161/161 160/160/160
f 159/159/159 162/162/162 161/161/161
f 160/160/160 163/163/163 150/150/150
f 163/163/163 160/160/160 161/161/161
f 164/164/164 161/161/161 162/162/162
f 164/164/164 163/163/163 161/161/161
f 165/165/165 164/164/164 162/162/162
f 163/163/163 166/166/166 150/150/150
f 166/166/166 151/151/151 150/150/150
f 167/167/167 163/163/163 164/164/164
f 166/166/166 163/163/163 167/167/167
f 168/168/168 164/164/164 165/165/165
f 168/168/168 167/167/167 164/164/164
f 169/169/169 168/168/168 165/165/165
f 167/167/167 168/168/168 169/169/169
f 170/170/170 167/167/167 169/169/169
f 166/166/166 171/171/171 151/151/151
f 171/171/171 166/166/166 167/167/167
f 171/171/171 167/167/167 170/170/170
f 171/171/171 172/172/172 151/151/151
f 172/172/172 171/171/171 170/170/170
