g Tower_A_PZ
v 1.4296621 8.108021 -0.7227302
v -0.67628753 3.8354144 0.7227302
v -1.4296638 8.10802 -0.7227302
v 0.67628676 3.8354144 0.7227302
v 4.1165495 7.1300735 -0.7227302
v 1.9472908 3.372807 0.7227302
v 6.3069205 5.2921343 -0.7227302
v 2.9834228 2.503389 0.7227302
v 7.7365823 2.8158858 -0.7227302
v 3.6597097 1.3320254 0.7227302
v 8.2331 0 -0.7227302
v 3.8945818 0 0.7227302
v 7.736581 -2.8158913 -0.7227302
v 3.6597087 -1.332028 0.7227302
v 6.306916 -5.2921386 -0.7227302
v 2.9834208 -2.5033908 0.7227302
v 4.1165457 -7.1300755 -0.7227302
v 1.9472889 -3.3728077 0.7227302
v 1.4296587 -8.108021 -0.7227302
v 0.6762851 -3.8354146 0.7227302
v -1.4296662 -8.108019 -0.7227302
v -0.67628866 -3.835414 0.7227302
v -4.1165524 -7.1300716 -0.7227302
v -1.9472921 -3.372806 0.7227302
v -6.306922 -5.2921324 -0.7227302
v -2.9834235 -2.503388 0.7227302
v -7.736583 -2.8158844 -0.7227302
v -3.65971 -1.3320247 0.7227302
v -8.2331 1.2431635E-06 -0.7227302
v -3.8945818 5.880655E-07 0.7227302
v -7.7365823 2.8158865 -0.7227302
v -3.6597097 1.3320258 0.7227302
v -6.3069205 5.2921343 -0.7227302
v -2.9834228 2.503389 0.7227302
v -4.1165504 7.130073 -0.7227302
v -1.9472913 3.3728065 0.7227302
v -1.4296638 8.10802 -0.7227302
v -0.67628753 3.8354144 0.7227302
v 6.306916 -5.2921386 -0.7227302
v 1.4296587 -8.108021 -0.7227302
v 4.1165457 -7.1300755 -0.7227302
v 8.2331 0 -0.7227302
v 7.736581 -2.8158913 -0.7227302
v 6.3069205 5.2921343 -0.7227302
v 7.7365823 2.8158858 -0.7227302
v -7.736583 -2.8158844 -0.7227302
v -4.1165524 -7.1300716 -0.7227302
v -1.4296662 -8.108019 -0.7227302
v -6.306922 -5.2921324 -0.7227302
v -4.1165504 7.130073 -0.7227302
v -7.7365823 2.8158865 -0.7227302
v -8.2331 1.2431635E-06 -0.7227302
v -6.3069205 5.2921343 -0.7227302
v 1.4296621 8.108021 -0.7227302
v -1.4296638 8.10802 -0.7227302
v 4.1165495 7.1300735 -0.7227302
v 3.6597097 1.3320254 0.7227302
v 1.9472908 3.372807 0.7227302
v 2.9834228 2.503389 0.7227302
v 3.6597087 -1.332028 0.7227302
v 3.8945818 0 0.7227302
v 1.9472889 -3.3728077 0.7227302
v 2.9834208 -2.5033908 0.7227302
v -2.9834228 2.503389 0.7227302
v -0.67628753 3.8354144 0.7227302
v 0.67628676 3.8354144 0.7227302
v -1.9472913 3.3728065 0.7227302
v -2.9834235 -2.503388 0.7227302
v -3.8945818 5.880655E-07 0.7227302
v -3.6597097 1.3320258 0.7227302
v -3.65971 -1.3320247 0.7227302
v -0.67628866 -3.835414 0.7227302
v -1.9472921 -3.372806 0.7227302
v 0.6762851 -3.8354146 0.7227302
vt 0.9722222 0
vt 1.0277778 1
vt 1.0277778 0
vt 0.9722222 1
vt 0.9166667 0
vt 0.9166667 1
vt 0.86111104 0
vt 0.86111104 1
vt 0.8055555 0
vt 0.8055555 1
vt 0.75 0
vt 0.75 1
vt 0.6944443 0
vt 0.6944443 1
vt 0.63888884 0
vt 0.63888884 1
vt 0.58333325 0
vt 0.58333325 1
vt 0.5277777 0
vt 0.5277777 1
vt 0.47222215 0
vt 0.47222215 1
vt 0.4166666 0
vt 0.4166666 1
vt 0.36111107 0
vt 0.36111107 1
vt 0.30555552 0
vt 0.30555552 1
vt 0.24999999 0
vt 0.24999999 1
vt 0.19444443 0
vt 0.19444443 1
vt 0.1388889 0
vt 0.1388889 1
vt 0.08333335 0
vt 0.08333335 1
vt 0.02777781 0
vt 0.02777781 1
vt 0.821394 0.883022
vt 0.992404 0.5868239
vt 0.93301284 0.74999976
vt 0.49999997 1
vt 0.6710104 0.9698462
vt 0.17860615 0.88302225
vt 0.32898992 0.9698463
vt 0.67101 0.030153662
vt 0.9330126 0.24999988
vt 0.99240386 0.41317573
vt 0.8213937 0.11697769
vt 0.066987306 0.24999994
vt 0.32898992 0.030153692
vt 0.49999994 0
vt 0.17860621 0.11697775
vt 0.0075961053 0.58682406
vt 0.007596135 0.41317582
vt 0.066987276 0.75
vt 0.32898992 0.9698463
vt 0.066987276 0.75
vt 0.17860615 0.88302225
vt 0.6710104 0.9698462
vt 0.49999997 1
vt 0.93301284 0.74999976
vt 0.821394 0.883022
vt 0.17860621 0.11697775
vt 0.007596135 0.41317582
vt 0.0075961053 0.58682406
vt 0.066987306 0.24999994
vt 0.8213937 0.11697769
vt 0.49999994 0
vt 0.32898992 0.030153692
vt 0.67101 0.030153662
vt 0.99240386 0.41317573
vt 0.9330126 0.24999988
vt 0.992404 0.5868239
vn 0.17180806 0.9743726 -0.14518876
vn -0.030794624 0.17464487 0.98414975
vn -0.17180833 0.97437257 -0.14518927
vn 0.03079459 0.17464487 0.98414975
vn 0.4947018 0.85684896 -0.14518927
vn 0.08866953 0.15358016 0.98414975
vn 0.75792736 0.6359765 -0.1451899
vn 0.13584961 0.11399134 0.98414975
vn 0.9297355 0.33839598 -0.14518951
vn 0.16664423 0.06065355 0.98414975
vn 0.9894041 -1.0803768E-07 -0.1451882
vn 0.17733908 0 0.98414975
vn 0.92973536 -0.33839667 -0.14518878
vn 0.16664419 -0.06065363 0.98414975
vn 0.75792694 -0.6359771 -0.14518906
vn 0.13584952 -0.113991454 0.98414975
vn 0.49470156 -0.85684925 -0.145189
vn 0.08866944 -0.15358016 0.98414975
vn 0.17180766 -0.97437274 -0.14518909
vn 0.03079451 -0.17464489 0.98414975
vn -0.17180863 -0.97437257 -0.14518927
vn -0.030794678 -0.17464489 0.98414975
vn -0.4947022 -0.8568487 -0.1451898
vn -0.08866958 -0.1535801 0.98414975
vn -0.75792754 -0.63597625 -0.1451893
vn -0.13584964 -0.1139913 0.98414975
vn -0.9297356 -0.3383959 -0.14518954
vn -0.1666442 -0.060653504 0.98414975
vn -0.98940396 1.2569765E-07 -0.14518905
vn -0.17733903 0 0.98414975
vn -0.9297355 0.33839616 -0.14518954
vn -0.16664419 0.060653534 0.98414975
vn -0.7579275 0.63597655 -0.1451888
vn -0.13584958 0.11399133 0.98414975
vn -0.49470198 0.8568489 -0.14518957
vn -0.08866954 0.15358011 0.98414975
vn -0.17180833 0.97437257 -0.14518927
vn -0.030794624 0.17464487 0.98414975
vn 0.75792694 -0.6359771 -0.14518906
vn 0.17180766 -0.97437274 -0.14518909
vn 0.49470156 -0.85684925 -0.145189
vn 0.9894041 -1.0803768E-07 -0.1451882
vn 0.92973536 -0.33839667 -0.14518878
vn 0.75792736 0.6359765 -0.1451899
vn 0.9297355 0.33839598 -0.14518951
vn -0.9297356 -0.3383959 -0.14518954
vn -0.4947022 -0.8568487 -0.1451898
vn -0.17180863 -0.97437257 -0.14518927
vn -0.75792754 -0.63597625 -0.1451893
vn -0.49470198 0.8568489 -0.14518957
vn -0.9297355 0.33839616 -0.14518954
vn -0.98940396 1.2569765E-07 -0.14518905
vn -0.7579275 0.63597655 -0.1451888
vn 0.17180806 0.9743726 -0.14518876
vn -0.17180833 0.97437257 -0.14518927
vn 0.4947018 0.85684896 -0.14518927
vn 0.16664423 0.06065355 0.98414975
vn 0.08866953 0.15358016 0.98414975
vn 0.13584961 0.11399134 0.98414975
vn 0.16664419 -0.06065363 0.98414975
vn 0.17733908 0 0.98414975
vn 0.08866944 -0.15358016 0.98414975
vn 0.13584952 -0.113991454 0.98414975
vn -0.13584958 0.11399133 0.98414975
vn -0.030794624 0.17464487 0.98414975
vn 0.03079459 0.17464487 0.98414975
vn -0.08866954 0.15358011 0.98414975
vn -0.13584964 -0.1139913 0.98414975
vn -0.17733903 0 0.98414975
vn -0.16664419 0.060653534 0.98414975
vn -0.1666442 -0.060653504 0.98414975
vn -0.030794678 -0.17464489 0.98414975
vn -0.08866958 -0.1535801 0.98414975
vn 0.03079451 -0.17464489 0.98414975
g Tower_A_PZ_0
f 3/3/3 2/2/2 1/1/1
f 4/4/4 1/1/1 2/2/2
f 1/1/1 4/4/4 5/5/5
f 6/6/6 5/5/5 4/4/4
f 5/5/5 6/6/6 7/7/7
f 8/8/8 7/7/7 6/6/6
f 7/7/7 8/8/8 9/9/9
f 10/10/10 9/9/9 8/8/8
f 9/9/9 10/10/10 11/11/11
f 12/12/12 11/11/11 10/10/10
f 11/11/11 12/12/12 13/13/13
f 14/14/14 13/13/13 12/12/12
f 13/13/13 14/14/14 15/15/15
f 16/16/16 15/15/15 14/14/14
f 15/15/15 16/16/16 17/17/17
f 18/18/18 17/17/17 16/16/16
f 17/17/17 18/18/18 19/19/19
f 20/20/20 19/19/19 18/18/18
f 19/19/19 20/20/20 21/21/21
f 22/22/22 21/21/21 20/20/20
f 21/21/21 22/22/22 23/23/23
f 24/24/24 23/23/23 22/22/22
f 23/23/23 24/24/24 25/25/25
f 26/26/26 25/25/25 24/24/24
f 25/25/25 26/26/26 27/27/27
f 28/28/28 27/27/27 26/26/26
f 27/27/27 28/28/28 29/29/29
f 30/30/30 29/29/29 28/28/28
f 29/29/29 30/30/30 31/31/31
f 32/32/32 31/31/31 30/30/30
f 31/31/31 32/32/32 33/33/33
f 34/34/34 33/33/33 32/32/32
f 33/33/33 34/34/34 35/35/35
f 36/36/36 35/35/35 34/34/34
f 35/35/35 36/36/36 37/37/37
f 38/38/38 37/37/37 36/36/36
f 41/41/41 40/40/40 39/39/39
f 40/40/40 42/42/42 39/39/39
f 39/39/39 42/42/42 43/43/43
f 44/44/44 42/42/42 40/40/40
f 45/45/45 42/42/42 44/44/44
f 46/46/46 44/44/44 40/40/40
f 47/47/47 46/46/46 40/40/40
f 48/48/48 47/47/47 40/40/40
f 49/49/49 46/46/46 47/47/47
f 50/50/50 44/44/44 46/46/46
f 51/51/51 50/50/50 46/46/46
f 52/52/52 51/51/51 46/46/46
f 53/53/53 50/50/50 51/51/51
f 54/54/54 44/44/44 50/50/50
f 55/55/55 54/54/54 50/50/50
f 56/56/56 44/44/44 54/54/54
f 59/59/59 58/58/58 57/57/57
f 58/58/58 60/60/60 57/57/57
f 57/57/57 60/60/60 61/61/61
f 62/62/62 60/60/60 58/58/58
f 63/63/63 60/60/60 62/62/62
f 64/64/64 62/62/62 58/58/58
f 65/65/65 64/64/64 58/58/58
f 66/66/66 65/65/65 58/58/58
f 67/67/67 64/64/64 65/65/65
f 68/68/68 62/62/62 64/64/64
f 69/69/69 68/68/68 64/64/64
f 70/70/70 69/69/69 64/64/64
f 71/71/71 68/68/68 69/69/69
f 72/72/72 62/62/62 68/68/68
f 73/73/73 72/72/72 68/68/68
f 74/74/74 62/62/62 72/72/72
