g WP01
v 4.0021324 1.2905949 8.484378
v 4.1774416 1.2972817 8.1436405
v 4.2532797 1.6211718 8.395664
v 4.5249624 1.3078461 8.30488
v 4.2532797 1.6211718 8.395664
v 4.1774416 1.2972817 8.1436405
v 4.5249624 1.3078461 8.30488
v 4.3496532 1.3011584 8.6456175
v 4.2532797 1.6211718 8.395664
v 4.0021324 1.2905949 8.484378
v 4.2532797 1.6211718 8.395664
v 4.3496532 1.3011584 8.6456175
v 4.1427526 -0.3601653 8.448888
v 4.233982 -0.9724158 8.090186
v 4.258405 -0.361901 8.220001
v 3.8834648 -0.9885223 8.34849
v 3.7112432 -0.53012365 8.598237
v 3.412452 -1.0254246 8.704569
v 3.7497866 -1.200959 8.590197
v 3.8955045 -1.5318568 8.542762
v 4.292282 -1.5562911 8.203882
v 4.1570954 -3.7135453 8.4698715
v 4.3745317 -3.4917343 8.257436
v 4.443526 -4.3440647 8.376478
v 4.1427526 -0.3601653 8.448888
v 4.218593 1.0305419 8.237866
v 4.1162605 1.0266048 8.447264
v 4.258405 -0.361901 8.220001
v 4.1774416 1.2972817 8.1436405
v 4.1162605 1.0266048 8.447264
v 4.218593 1.0305419 8.237866
v 4.0021324 1.2905949 8.484378
v 4.233982 -0.9724158 8.090186
v 4.4898205 -0.34871325 8.329733
v 4.258405 -0.361901 8.220001
v 4.669428 -0.9625882 8.078652
v 4.931252 -0.48986733 8.179382
v 5.260975 -0.9644294 8.069931
v 4.935534 -1.1618333 8.1831045
v 4.811207 -1.5016415 8.228382
v 4.292282 -1.5562911 8.203882
v 4.689179 -3.6959898 8.287197
v 4.3745317 -3.4917343 8.257436
v 4.443526 -4.3440647 8.376478
v 4.4898205 -0.34871325 8.329733
v 4.218593 1.0305419 8.237866
v 4.258405 -0.361901 8.220001
v 4.427895 1.0368878 8.340274
v 4.1774416 1.2972817 8.1436405
v 4.427895 1.0368878 8.340274
v 4.5249624 1.3078461 8.30488
v 4.218593 1.0305419 8.237866
v 4.4898205 -0.34871325 8.329733
v 4.4378624 -0.967825 8.684474
v 4.3745604 -0.35928553 8.558579
v 4.788641 -0.95990384 8.426144
v 4.931252 -0.48986733 8.179382
v 5.260975 -0.9644294 8.069931
v 4.935534 -1.1618333 8.1831045
v 4.811207 -1.5016415 8.228382
v 4.416862 -1.5534859 8.567017
v 4.689179 -3.6959898 8.287197
v 4.458094 -3.4898524 8.50101
v 4.443526 -4.3440647 8.376478
v 4.4898205 -0.34871325 8.329733
v 4.3255625 1.0329506 8.54967
v 4.427895 1.0368878 8.340274
v 4.3745604 -0.35928553 8.558579
v 4.3496532 1.3011584 8.6456175
v 4.427895 1.0368878 8.340274
v 4.3255625 1.0329506 8.54967
v 4.5249624 1.3078461 8.30488
v 4.4378624 -0.967825 8.684474
v 4.1427526 -0.3601653 8.448888
v 4.3745604 -0.35928553 8.558579
v 4.0026774 -0.98583806 8.695981
v 3.7112432 -0.53012365 8.598237
v 3.412452 -1.0254246 8.704569
v 3.7497866 -1.200959 8.590197
v 3.8955045 -1.5318568 8.542762
v 4.416862 -1.5534859 8.567017
v 4.1570954 -3.7135453 8.4698715
v 4.458094 -3.4898524 8.50101
v 4.443526 -4.3440647 8.376478
v 4.1427526 -0.3601653 8.448888
v 4.3255625 1.0329506 8.54967
v 4.3745604 -0.35928553 8.558579
v 4.1162605 1.0266048 8.447264
v 4.3496532 1.3011584 8.6456175
v 4.1162605 1.0266048 8.447264
v 4.0021324 1.2905949 8.484378
v 4.3255625 1.0329506 8.54967
vt 0.37028283 0.3375742
vt 0.33164272 0.33782694
vt 0.33164272 0.29746073
vt 0.37028283 0.3375742
vt 0.33164272 0.29746073
vt 0.33164272 0.33782694
vt 0.37028283 0.3375742
vt 0.33164272 0.33782694
vt 0.33164272 0.29746073
vt 0.37028283 0.3375742
vt 0.33164272 0.29746073
vt 0.33164272 0.33782694
vt 0.279881 0.1748772
vt 0.25519833 0.22848943
vt 0.25519833 0.1748772
vt 0.29583615 0.22848943
vt 0.3247051 0.18864498
vt 0.35661277 0.22848943
vt 0.32286698 0.24751082
vt 0.30920726 0.27612385
vt 0.25519833 0.27612385
vt 0.28571 0.45336375
vt 0.25519833 0.43514046
vt 0.25519833 0.5059268
vt 0.36025688 0.49489087
vt 0.33164272 0.36602682
vt 0.36006302 0.36617512
vt 0.33164272 0.49489087
vt 0.33164272 0.33782694
vt 0.36006302 0.36617512
vt 0.33164272 0.36602682
vt 0.37028283 0.3375742
vt 0.25519833 0.22848943
vt 0.279881 0.1748772
vt 0.25519833 0.1748772
vt 0.29583615 0.22848943
vt 0.3247051 0.18864498
vt 0.35661277 0.22848943
vt 0.32286698 0.24751082
vt 0.30920726 0.27612385
vt 0.25519833 0.27612385
vt 0.28571 0.45336375
vt 0.25519833 0.43514046
vt 0.25519833 0.5059268
vt 0.36025688 0.49489087
vt 0.33164272 0.36602682
vt 0.33164272 0.49489087
vt 0.36006302 0.36617512
vt 0.33164272 0.33782694
vt 0.36006302 0.36617512
vt 0.37028283 0.3375742
vt 0.33164272 0.36602682
vt 0.279881 0.1748772
vt 0.25519833 0.22848943
vt 0.25519833 0.1748772
vt 0.29583615 0.22848943
vt 0.3247051 0.18864498
vt 0.35661277 0.22848943
vt 0.32286698 0.24751082
vt 0.30920726 0.27612385
vt 0.25519833 0.27612385
vt 0.28571 0.45336375
vt 0.25519833 0.43514046
vt 0.25519833 0.5059268
vt 0.36025688 0.49489087
vt 0.33164272 0.36602682
vt 0.36006302 0.36617512
vt 0.33164272 0.49489087
vt 0.33164272 0.33782694
vt 0.36006302 0.36617512
vt 0.33164272 0.36602682
vt 0.37028283 0.3375742
vt 0.25519833 0.22848943
vt 0.279881 0.1748772
vt 0.25519833 0.1748772
vt 0.29583615 0.22848943
vt 0.3247051 0.18864498
vt 0.35661277 0.22848943
vt 0.32286698 0.24751082
vt 0.30920726 0.27612385
vt 0.25519833 0.27612385
vt 0.28571 0.45336375
vt 0.25519833 0.43514046
vt 0.25519833 0.5059268
vt 0.36025688 0.49489087
vt 0.33164272 0.36602682
vt 0.33164272 0.49489087
vt 0.36006302 0.36617512
vt 0.33164272 0.33782694
vt 0.36006302 0.36617512
vt 0.37028283 0.3375742
vt 0.33164272 0.36602682
vn -0.78020436 0.48758397 -0.3918458
vn -0.78020424 0.48758394 -0.39184573
vn -0.78020424 0.48758388 -0.3918458
vn 0.34510577 0.52471465 -0.778188
vn 0.34510577 0.52471465 -0.778188
vn 0.34510577 0.52471465 -0.778188
vn 0.74763066 0.53377837 0.3951316
vn 0.74763066 0.53377837 0.3951316
vn 0.74763066 0.53377837 0.3951316
vn -0.37767747 0.49664727 0.78147376
vn -0.37767744 0.49664727 0.7814738
vn -0.37767747 0.49664727 0.78147376
vn -0.79392105 0.5456955 0.26815268
vn -0.32573348 0.046173505 -0.9443335
vn -0.32370153 0.20915574 -0.92275196
vn -0.5965512 -0.01774003 -0.8023789
vn -0.5748613 0.79563 0.19106911
vn -0.92340964 -0.21425748 0.31844658
vn -0.6806583 -0.6925674 0.23886085
vn -0.87290704 -0.38284975 0.30242255
vn -0.31836447 -0.12660752 -0.9394757
vn -0.8991443 -0.30808312 0.31084454
vn -0.32159013 -0.0749476 -0.9439083
vn 0.031875007 -0.9994867 -0.0032130866
vn -0.94563884 -0.020445542 0.32457533
vn -0.32488203 0.0058058314 -0.9457367
vn -0.94569534 -0.017685955 0.3245729
vn -0.32479972 0.0028484087 -0.9457785
vn -0.8596378 -0.28290492 -0.4254263
vn -0.8596378 -0.28290492 -0.42542624
vn -0.8596378 -0.28290492 -0.4254263
vn -0.8448869 -0.30331093 -0.44064566
vn -0.32573348 0.046173505 -0.9443335
vn 0.7574809 0.59688747 -0.26447687
vn -0.32370153 0.20915574 -0.92275196
vn -0.021618845 0.0012305622 -0.9997656
vn 0.52295613 0.8318545 -0.18583585
vn 0.9351203 -0.15293197 -0.3196276
vn 0.7233565 -0.6462392 -0.24316727
vn 0.89546597 -0.32449967 -0.30469748
vn -0.31836447 -0.12660752 -0.9394757
vn 0.91688347 -0.24816126 -0.312635
vn -0.32159013 -0.0749476 -0.9439083
vn 0.031875007 -0.9994867 -0.0032130866
vn 0.9449538 0.041937556 -0.32450497
vn -0.32488203 0.0058058314 -0.9457367
vn -0.32479972 0.0028484087 -0.9457785
vn 0.9448345 0.04469513 -0.3244844
vn 0.41273317 -0.26181465 -0.8724129
vn 0.41273317 -0.26181465 -0.8724129
vn 0.41273317 -0.26181462 -0.8724129
vn 0.43248546 -0.24026807 -0.86903834
vn 0.7574809 0.59688747 -0.26447687
vn 0.32232225 0.06076615 0.94467765
vn 0.30990556 0.22342311 0.92414325
vn 0.5966338 0.015152321 0.8023705
vn 0.52295613 0.8318545 -0.18583585
vn 0.9351203 -0.15293197 -0.3196276
vn 0.7233565 -0.6462392 -0.24316727
vn 0.89546597 -0.32449967 -0.30469748
vn 0.3259771 -0.112098396 0.93870807
vn 0.91688347 -0.24816126 -0.312635
vn 0.32590553 -0.060367767 0.943473
vn 0.031875007 -0.9994867 -0.0032130866
vn 0.9449538 0.041937556 -0.32450497
vn 0.32404643 0.02041782 0.94582087
vn 0.9448345 0.04469513 -0.3244844
vn 0.3241522 0.017461114 0.94584376
vn 0.8760041 -0.23028341 0.42377654
vn 0.8760041 -0.23028341 0.42377654
vn 0.876004 -0.23028341 0.4237765
vn 0.8625872 -0.25168395 0.4388604
vn 0.32232225 0.06076615 0.94467765
vn -0.79392105 0.5456955 0.26815268
vn 0.30990556 0.22342311 0.92414325
vn 0.0217009 -0.0038184961 0.99975723
vn -0.5748613 0.79563 0.19106911
vn -0.92340964 -0.21425748 0.31844658
vn -0.6806583 -0.6925674 0.23886085
vn -0.87290704 -0.38284975 0.30242255
vn 0.3259771 -0.112098396 0.93870807
vn -0.8991443 -0.30808312 0.31084454
vn 0.32590553 -0.060367767 0.943473
vn 0.031875007 -0.9994867 -0.0032130866
vn -0.94563884 -0.020445542 0.32457533
vn 0.32404643 0.02041782 0.94582087
vn 0.3241522 0.017461114 0.94584376
vn -0.94569534 -0.017685955 0.3245729
vn -0.39503425 -0.29318127 0.87062776
vn -0.39503425 -0.29318127 0.87062776
vn -0.3950342 -0.29318127 0.87062776
vn -0.41611633 -0.27291936 0.8673881
g WP01_0
f 3/3/3 2/2/2 1/1/1
f 6/6/6 5/5/5 4/4/4
f 9/9/9 8/8/8 7/7/7
f 12/12/12 11/11/11 10/10/10
f 15/15/15 14/14/14 13/13/13
f 16/16/16 13/13/13 14/14/14
f 17/17/17 13/13/13 16/16/16
f 16/16/16 18/18/18 17/17/17
f 19/19/19 18/18/18 16/16/16
f 16/16/16 20/20/20 19/19/19
f 16/16/16 14/14/14 20/20/20
f 21/21/21 20/20/20 14/14/14
f 20/20/20 21/21/21 22/22/22
f 23/23/23 22/22/22 21/21/21
f 23/23/23 24/24/24 22/22/22
f 27/27/27 26/26/26 25/25/25
f 28/28/28 25/25/25 26/26/26
f 31/31/31 30/30/30 29/29/29
f 32/32/32 29/29/29 30/30/30
f 35/35/35 34/34/34 33/33/33
f 36/36/36 33/33/33 34/34/34
f 34/34/34 37/37/37 36/36/36
f 38/38/38 36/36/36 37/37/37
f 38/38/38 39/39/39 36/36/36
f 40/40/40 36/36/36 39/39/39
f 36/36/36 40/40/40 33/33/33
f 41/41/41 33/33/33 40/40/40
f 40/40/40 42/42/42 41/41/41
f 43/43/43 41/41/41 42/42/42
f 44/44/44 43/43/43 42/42/42
f 47/47/47 46/46/46 45/45/45
f 48/48/48 45/45/45 46/46/46
f 51/51/51 50/50/50 49/49/49
f 52/52/52 49/49/49 50/50/50
f 55/55/55 54/54/54 53/53/53
f 56/56/56 53/53/53 54/54/54
f 57/57/57 53/53/53 56/56/56
f 56/56/56 58/58/58 57/57/57
f 59/59/59 58/58/58 56/56/56
f 56/56/56 60/60/60 59/59/59
f 56/56/56 54/54/54 60/60/60
f 61/61/61 60/60/60 54/54/54
f 60/60/60 61/61/61 62/62/62
f 63/63/63 62/62/62 61/61/61
f 63/63/63 64/64/64 62/62/62
f 67/67/67 66/66/66 65/65/65
f 68/68/68 65/65/65 66/66/66
f 71/71/71 70/70/70 69/69/69
f 72/72/72 69/69/69 70/70/70
f 75/75/75 74/74/74 73/73/73
f 76/76/76 73/73/73 74/74/74
f 74/74/74 77/77/77 76/76/76
f 78/78/78 76/76/76 77/77/77
f 78/78/78 79/79/79 76/76/76
f 80/80/80 76/76/76 79/79/79
f 76/76/76 80/80/80 73/73/73
f 81/81/81 73/73/73 80/80/80
f 80/80/80 82/82/82 81/81/81
f 83/83/83 81/81/81 82/82/82
f 84/84/84 83/83/83 82/82/82
f 87/87/87 86/86/86 85/85/85
f 88/88/88 85/85/85 86/86/86
f 91/91/91 90/90/90 89/89/89
f 92/92/92 89/89/89 90/90/90
