g Wp_Sword_01
v -0.08430742 1.4063054E-08 0.32172516
v -0.12044748 5.436218E-08 1.2436618
v -0.04829606 -0.042338286 0.31783652
v -0.06342113 -0.05321946 0.13462219
v -0.10578236 -0.053219464 0.21134265
v -4.80262E-08 -0.053219456 0.31806317
v -1.764457E-08 -0.05321946 0.116854705
v 0.06342109 -0.05321946 0.1346222
v -1.8210159E-07 -0.032674994 1.2060043
v -0.12044748 5.436218E-08 1.2436618
v 0.048295964 -0.042338286 0.31783652
v 0.10578231 -0.053219464 0.21134269
v 0.1204471 5.436218E-08 1.2436618
v -0.14223711 5.700062E-08 1.3040222
v -1.8210159E-07 0.0326751 1.2060043
v -0.04829606 0.04233831 0.31783652
v -0.09122548 6.278768E-08 1.4364146
v -2.3290063E-07 6.74218E-08 1.5424311
v 0.09122504 6.278768E-08 1.4364146
v 0.14223671 5.700062E-08 1.3040222
v 0.048295964 0.04233831 0.31783652
v -4.80262E-08 0.053219482 0.31806317
v -0.06342113 0.05321948 0.13462219
v -0.10578236 0.053219482 0.21134265
v -1.764457E-08 0.05321948 0.116854705
v 0.06342109 0.05321948 0.1346222
v 0.10578231 0.053219482 0.21134269
v -0.08430742 1.4063054E-08 0.32172516
v -0.12044748 5.436218E-08 1.2436618
v 0.08430733 1.4063054E-08 0.32172516
v 0.1204471 5.436218E-08 1.2436618
v 0.08430733 1.4063054E-08 0.32172516
v 0.1204471 5.436218E-08 1.2436618
v -0.19943386 -0.045541532 0.21156436
v -0.0658763 7.3138984E-09 0.16732249
v -0.19648252 7.314054E-09 0.167326
v -0.28329012 6.002988E-09 0.1373323
v -0.28327686 1.2492047E-08 0.2857847
v -0.19935557 1.1181036E-08 0.25579223
v -0.070856854 1.1180801E-08 0.2557869
v -0.065494485 -0.03304248 0.21156438
v -0.0658763 7.3138984E-09 0.16732249
v -0.070856854 1.1180801E-08 0.2557869
v -0.19943386 0.04554155 0.21156436
v -0.065494485 0.033042498 0.21156438
v -0.19648252 7.314054E-09 0.167326
v -0.0658763 7.3138984E-09 0.16732249
v -0.28329012 6.002988E-09 0.1373323
v -0.19935557 1.1181036E-08 0.25579223
v -0.28327686 1.2492047E-08 0.2857847
v -0.070856854 1.1180801E-08 0.2557869
v -0.28329012 6.002988E-09 0.1373323
v -0.3149545 9.247774E-09 0.21156436
v -0.28327686 1.2492047E-08 0.2857847
v -0.04170712 -0.04386613 -0.34946862
v -0.04170712 0.043866113 -0.34946853
v -0.06871581 -1.2937461E-08 -0.29597464
v 5.6280978E-08 -0.04386614 -0.37273207
v 5.6280978E-08 0.04386611 -0.37273207
v 0.041707225 0.043866113 -0.34946853
v 0.041707225 -0.04386613 -0.34946862
v 0.0687159 -1.2937461E-08 -0.29597458
v 0.19943377 -0.045541532 0.21156444
v 0.19648248 7.314054E-09 0.16732608
v 0.06587625 7.3138984E-09 0.16732252
v 0.2832901 6.002988E-09 0.13733238
v 0.1993555 1.1181036E-08 0.25579232
v 0.28327677 1.2492047E-08 0.28578475
v 0.07085678 1.1180801E-08 0.25578696
v 0.06587625 7.3138984E-09 0.16732252
v 0.06549442 -0.03304248 0.21156442
v 0.07085678 1.1180801E-08 0.25578696
v 0.19943377 0.04554155 0.21156444
v 0.06549442 0.033042498 0.21156442
v 0.06587625 7.3138984E-09 0.16732252
v 0.19648248 7.314054E-09 0.16732608
v 0.2832901 6.002988E-09 0.13733238
v 0.28327677 1.2492047E-08 0.28578475
v 0.1993555 1.1181036E-08 0.25579232
v 0.07085678 1.1180801E-08 0.25578696
v 0.2832901 6.002988E-09 0.13733238
v 0.3149544 9.247774E-09 0.21156444
v 0.28327677 1.2492047E-08 0.28578475
v -0.04170712 -0.04386613 -0.34946862
v 3.0756453E-08 -0.033042498 -0.2036908
v 5.6280978E-08 -0.04386614 -0.37273207
v 0.041707225 -0.04386613 -0.34946862
v -0.06871581 -1.2937461E-08 -0.29597464
v 0.0687159 -1.2937461E-08 -0.29597458
v -0.051601317 7.0256463E-09 0.16072807
v 3.0756453E-08 0.03304248 -0.2036908
v -0.04170712 0.043866113 -0.34946853
v 5.6280978E-08 0.04386611 -0.37273207
v 0.041707225 0.043866113 -0.34946853
v -2.6495545E-08 -0.03304248 0.17547207
v -2.6495545E-08 0.033042494 0.17547207
v 0.051601272 7.0256463E-09 0.16072807
v -0.054374635 1.3496008E-08 0.30875266
v -0.08430742 1.4063054E-08 0.32172516
v -0.04829606 -0.042338286 0.31783652
v -0.04829606 0.04233831 0.31783652
v -0.10578236 -0.053219464 0.21134265
v -0.10578236 0.053219482 0.21134265
v -0.06342113 -0.05321946 0.13462219
v -0.06342113 0.05321948 0.13462219
v -1.764457E-08 -0.05321946 0.116854705
v -1.764457E-08 0.05321948 0.116854705
v 0.06342109 0.05321948 0.1346222
v 0.06342109 -0.05321946 0.1346222
v 0.10578231 0.053219482 0.21134269
v 0.10578231 -0.053219464 0.21134269
v 0.054374542 1.3496008E-08 0.30875266
v 0.048295964 0.04233831 0.31783652
v 0.048295964 -0.042338286 0.31783652
v 0.08430733 1.4063054E-08 0.32172516
vt 0.41158155 0.849433
vt 0.44695282 0.231522
vt 0.32592833 0.85207176
vt 0.34860155 0.96444607
vt 0.4153037 0.9238565
vt 0.25007266 0.8521032
vt 0.250077 0.97624344
vt 0.15155165 0.9644471
vt 0.25027564 0.26265433
vt 0.44695282 0.231522
vt 0.17421666 0.85207224
vt 0.08484648 0.9238584
vt 0.053204793 0.23166464
vt 0.4768461 0.18990745
vt 0.24987607 0.26265422
vt 0.32592833 0.85207176
vt 0.39449704 0.10128273
vt 0.25006956 0.03055916
vt 0.10564352 0.10128323
vt 0.023296284 0.18990813
vt 0.17421666 0.85207224
vt 0.25007266 0.8521032
vt 0.34860155 0.96444607
vt 0.4153037 0.9238565
vt 0.250077 0.97624344
vt 0.15155165 0.9644471
vt 0.08484648 0.9238584
vt 0.41158155 0.849433
vt 0.44695282 0.231522
vt 0.08856281 0.8494335
vt 0.053204793 0.23166464
vt 0.08856281 0.8494335
vt 0.053204793 0.23166464
vt 0.85389215 0.8962969
vt 0.7697241 0.8097372
vt 0.7606006 0.8948328
vt 0.7379293 0.9549432
vt 0.97043216 0.9547448
vt 0.9471643 0.8964933
vt 0.9374895 0.81278354
vt 0.8534442 0.81102747
vt 0.7697241 0.8097372
vt 0.9374895 0.81278354
vt 0.85389215 0.8962969
vt 0.8534442 0.81102747
vt 0.7606006 0.8948328
vt 0.7697241 0.8097372
vt 0.7379293 0.9549432
vt 0.9471643 0.8964933
vt 0.97043216 0.9547448
vt 0.9374895 0.81278354
vt 0.7379293 0.9549432
vt 0.85427517 0.97541493
vt 0.97043216 0.9547448
vt 0.7308151 0.45913672
vt 0.7308151 0.40417707
vt 0.8182516 0.43207633
vt 0.66113454 0.45913672
vt 0.66113454 0.40417707
vt 0.59145385 0.40417707
vt 0.59145385 0.45913672
vt 0.50401723 0.43123722
vt 0.85389215 0.8962969
vt 0.7606006 0.8948328
vt 0.7697241 0.8097372
vt 0.7379293 0.9549432
vt 0.9471643 0.8964933
vt 0.97043216 0.9547448
vt 0.9374895 0.81278354
vt 0.7697241 0.8097372
vt 0.8534442 0.81102747
vt 0.9374895 0.81278354
vt 0.85389215 0.8962969
vt 0.8534442 0.81102747
vt 0.7697241 0.8097372
vt 0.7606006 0.8948328
vt 0.7379293 0.9549432
vt 0.97043216 0.9547448
vt 0.9471643 0.8964933
vt 0.9374895 0.81278354
vt 0.7379293 0.9549432
vt 0.85427517 0.97541493
vt 0.97043216 0.9547448
vt 0.71823615 0.3732741
vt 0.66333026 0.2793604
vt 0.6630907 0.38718033
vt 0.60800713 0.37322867
vt 0.7811479 0.33657503
vt 0.5452585 0.33647847
vt 0.75453323 0.0474329
vt 0.66333026 0.2793604
vt 0.71823615 0.3732741
vt 0.6630907 0.38718033
vt 0.60800713 0.37322867
vt 0.66386586 0.038178205
vt 0.66386586 0.038178205
vt 0.5731576 0.04735875
vt 0.5846257 0.56662494
vt 0.5774129 0.5468308
vt 0.5055236 0.5615241
vt 0.66372454 0.56151456
vt 0.49143204 0.6517586
vt 0.6778747 0.6517472
vt 0.49053782 0.7080785
vt 0.67880696 0.7080666
vt 0.4905552 0.75809646
vt 0.6788244 0.75808406
vt 0.6788427 0.80810153
vt 0.4905734 0.8081145
vt 0.67795104 0.86442107
vt 0.4915085 0.86443436
vt 0.58476305 0.9495557
vt 0.6638656 0.95465565
vt 0.50566465 0.9546671
vt 0.5847735 0.97553617
vn -0.88501793 0 -0.46555686
vn -0.9788553 0 -0.2045541
vn -0.5434001 -0.83882624 0.032969374
vn -0.5115761 -0.6278207 -0.5866269
vn -0.7581433 -0.65193933 0.01392194
vn -0 -0.99959916 0.028311878
vn 1.0656029E-07 -0.6596886 -0.7515391
vn 0.51157635 -0.6278207 -0.58662677
vn -0 -0.99956924 0.029348161
vn -0.9788553 0 -0.2045541
vn 0.5434 -0.83882624 0.03296955
vn 0.7581433 -0.6519393 0.013922257
vn 0.9788553 0 -0.20455375
vn -0.9939891 0 0.10947911
vn -0 0.99956924 0.029348075
vn -0.5434001 0.83882624 0.03296932
vn -0.82512325 1.354222E-07 0.5649528
vn -2.7081325E-07 0 1
vn 0.8251231 1.3542218E-07 0.56495297
vn 0.9939891 0 0.10947928
vn 0.54340005 0.83882624 0.032969493
vn -0 0.99959916 0.028311808
vn -0.51157606 0.6278207 -0.58662695
vn -0.7581433 0.65193933 0.013921858
vn 1.1417173E-07 0.6596886 -0.7515391
vn 0.5115763 0.6278206 -0.58662677
vn 0.7581434 0.6519393 0.013922222
vn -0.88501793 0 -0.46555686
vn -0.9788553 0 -0.2045541
vn 0.88501805 0 -0.46555677
vn 0.9788553 0 -0.20455375
vn 0.88501805 0 -0.46555677
vn 0.9788553 0 -0.20455375
vn 0.003966031 -0.99999094 0.001577224
vn 0.053190805 0 -0.9985844
vn 0.20379075 0 -0.97901446
vn -0.50293726 0 -0.8643229
vn -0.4998155 0 0.8661319
vn 0.21417634 0 0.976795
vn 0.053379085 0 0.9985744
vn 0.04736709 -0.99858874 -0.024015443
vn 0.053190805 0 -0.9985844
vn 0.053379085 0 0.9985744
vn 0.0039660246 0.99999094 0.0015772108
vn 0.04736708 0.99858874 -0.024015494
vn 0.20379075 0 -0.97901446
vn 0.053190805 0 -0.9985844
vn -0.50293726 0 -0.8643229
vn 0.21417634 0 0.976795
vn -0.4998155 0 0.8661319
vn 0.053379085 0 0.9985744
vn -0.50293726 0 -0.8643229
vn -1 0 8.598891E-05
vn -0.4998155 0 0.8661319
vn -0.60115504 -0.6836463 -0.4138121
vn -0.6011547 0.68364686 -0.41381162
vn -0.99741274 0 0.07188877
vn -0 -0.6308955 -0.7758679
vn -0 0.63089544 -0.77586794
vn 0.6011548 0.6836468 -0.41381145
vn 0.60115516 -0.6836463 -0.41381198
vn 0.9974126 -1.447944E-07 0.071889184
vn -0.003966028 -0.99999094 0.0015772892
vn -0.20379066 0 -0.97901446
vn -0.053190514 0 -0.9985844
vn 0.50293744 0 -0.8643229
vn -0.21417649 0 0.976795
vn 0.4998155 0 0.8661319
vn -0.053379375 0 0.9985744
vn -0.053190514 0 -0.9985844
vn -0.047367077 -0.99858874 -0.024015395
vn -0.053379375 0 0.9985744
vn -0.0039660376 0.99999094 0.001577224
vn -0.047367077 0.99858874 -0.024015496
vn -0.053190514 0 -0.9985844
vn -0.20379066 0 -0.97901446
vn 0.50293744 0 -0.8643229
vn 0.4998155 0 0.8661319
vn -0.21417649 0 0.976795
vn -0.053379375 0 0.9985744
vn 0.50293744 0 -0.8643229
vn 1 0 8.6177846E-05
vn 0.4998155 0 0.8661319
vn -0.60115504 -0.6836463 -0.4138121
vn -0 -0.9982541 0.0590644
vn -0 -0.6308955 -0.7758679
vn 0.60115516 -0.6836463 -0.41381198
vn -0.99741274 0 0.07188877
vn 0.9974126 -1.447944E-07 0.071889184
vn -0.9997905 0 0.020470824
vn -0 0.9982541 0.05906436
vn -0.6011547 0.68364686 -0.41381162
vn -0 0.63089544 -0.77586794
vn 0.6011548 0.6836468 -0.41381145
vn -0 -0.99993443 0.011454101
vn -0 0.99993443 0.011454011
vn 0.9997905 0 0.020471122
vn -0.9684793 0 -0.24909417
vn -0.88501793 0 -0.46555686
vn -0.5434001 -0.83882624 0.032969374
vn -0.5434001 0.83882624 0.03296932
vn -0.7581433 -0.65193933 0.01392194
vn -0.7581433 0.65193933 0.013921858
vn -0.5115761 -0.6278207 -0.5866269
vn -0.51157606 0.6278207 -0.58662695
vn 1.0656029E-07 -0.6596886 -0.7515391
vn 1.1417173E-07 0.6596886 -0.7515391
vn 0.5115763 0.6278206 -0.58662677
vn 0.51157635 -0.6278207 -0.58662677
vn 0.7581434 0.6519393 0.013922222
vn 0.7581433 -0.6519393 0.013922257
vn 0.9684793 0 -0.24909396
vn 0.54340005 0.83882624 0.032969493
vn 0.5434 -0.83882624 0.03296955
vn 0.88501805 0 -0.46555677
g Wp_Sword_01_0
f 3/3/3 2/2/2 1/1/1
f 5/5/5 4/4/4 3/3/3
f 6/6/6 3/3/3 4/4/4
f 7/7/7 6/6/6 4/4/4
f 6/6/6 7/7/7 8/8/8
f 6/6/6 9/9/9 3/3/3
f 9/9/9 10/10/10 3/3/3
f 6/6/6 11/11/11 9/9/9
f 11/11/11 6/6/6 8/8/8
f 8/8/8 12/12/12 11/11/11
f 11/11/11 13/13/13 9/9/9
f 9/9/9 14/14/14 10/10/10
f 14/14/14 15/15/15 10/10/10
f 16/16/16 10/10/10 15/15/15
f 17/17/17 15/15/15 14/14/14
f 9/9/9 17/17/17 14/14/14
f 18/18/18 15/15/15 17/17/17
f 9/9/9 18/18/18 17/17/17
f 18/18/18 9/9/9 19/19/19
f 15/15/15 18/18/18 19/19/19
f 19/19/19 9/9/9 20/20/20
f 20/20/20 9/9/9 13/13/13
f 15/15/15 19/19/19 20/20/20
f 15/15/15 20/20/20 13/13/13
f 15/15/15 13/13/13 21/21/21
f 22/22/22 16/16/16 15/15/15
f 22/22/22 15/15/15 21/21/21
f 16/16/16 22/22/22 23/23/23
f 23/23/23 24/24/24 16/16/16
f 22/22/22 25/25/25 23/23/23
f 25/25/25 22/22/22 26/26/26
f 22/22/22 21/21/21 26/26/26
f 27/27/27 26/26/26 21/21/21
f 29/29/29 16/16/16 28/28/28
f 21/21/21 31/31/31 30/30/30
f 33/33/33 11/11/11 32/32/32
f 36/36/36 35/35/35 34/34/34
f 34/34/34 37/37/37 36/36/36
f 39/39/39 38/38/38 34/34/34
f 40/40/40 39/39/39 34/34/34
f 42/42/42 41/41/41 34/34/34
f 41/41/41 43/43/43 34/34/34
f 45/45/45 42/42/42 44/44/44
f 43/43/43 45/45/45 44/44/44
f 47/47/47 46/46/46 44/44/44
f 48/48/48 44/44/44 46/46/46
f 50/50/50 49/49/49 44/44/44
f 49/49/49 51/51/51 44/44/44
f 34/34/34 53/53/53 52/52/52
f 53/53/53 44/44/44 52/52/52
f 34/34/34 54/54/54 53/53/53
f 54/54/54 44/44/44 53/53/53
f 57/57/57 56/56/56 55/55/55
f 55/55/55 56/56/56 58/58/58
f 56/56/56 59/59/59 58/58/58
f 59/59/59 60/60/60 58/58/58
f 60/60/60 61/61/61 58/58/58
f 60/60/60 62/62/62 61/61/61
f 65/65/65 64/64/64 63/63/63
f 66/66/66 63/63/63 64/64/64
f 68/68/68 67/67/67 63/63/63
f 67/67/67 69/69/69 63/63/63
f 71/71/71 70/70/70 63/63/63
f 72/72/72 71/71/71 63/63/63
f 70/70/70 74/74/74 73/73/73
f 74/74/74 72/72/72 73/73/73
f 76/76/76 75/75/75 73/73/73
f 73/73/73 77/77/77 76/76/76
f 79/79/79 78/78/78 73/73/73
f 80/80/80 79/79/79 73/73/73
f 82/82/82 63/63/63 81/81/81
f 73/73/73 82/82/82 81/81/81
f 83/83/83 63/63/63 82/82/82
f 73/73/73 83/83/83 82/82/82
f 86/86/86 85/85/85 84/84/84
f 85/85/85 86/86/86 87/87/87
f 84/84/84 85/85/85 88/88/88
f 85/85/85 87/87/87 89/89/89
f 88/88/88 85/85/85 90/90/90
f 91/91/91 88/88/88 90/90/90
f 91/91/91 92/92/92 88/88/88
f 91/91/91 93/93/93 92/92/92
f 93/93/93 91/91/91 94/94/94
f 91/91/91 89/89/89 94/94/94
f 85/85/85 95/95/95 90/90/90
f 96/96/96 91/91/91 90/90/90
f 95/95/95 85/85/85 97/97/97
f 85/85/85 89/89/89 97/97/97
f 91/91/91 96/96/96 97/97/97
f 89/89/89 91/91/91 97/97/97
f 100/100/100 99/99/99 98/98/98
f 99/99/99 101/101/101 98/98/98
f 100/100/100 98/98/98 102/102/102
f 101/101/101 103/103/103 98/98/98
f 102/102/102 98/98/98 103/103/103
f 102/102/102 103/103/103 104/104/104
f 103/103/103 105/105/105 104/104/104
f 104/104/104 105/105/105 106/106/106
f 105/105/105 107/107/107 106/106/106
f 107/107/107 108/108/108 106/106/106
f 108/108/108 109/109/109 106/106/106
f 108/108/108 110/110/110 109/109/109
f 110/110/110 111/111/111 109/109/109
f 112/112/112 111/111/111 110/110/110
f 110/110/110 113/113/113 112/112/112
f 112/112/112 114/114/114 111/111/111
f 113/113/113 115/115/115 112/112/112
f 115/115/115 114/114/114 112/112/112
